<svg width="1599" height="3391" viewBox="0 0 1599 3391" fill="none" xmlns="http://www.w3.org/2000/svg">
<g clip-path="url(#clip0)">
<path d="M356.479 1897C349.979 1905.5 335.979 1936 325.979 1954.5C315.979 1973 305.979 1967.5 299.979 1985C293.979 2002.5 305.824 2009.77 299.979 2026.5C288.679 2058.84 285.65 2102.04 285.979 2112C286.667 2132.88 267.979 2126.5 268.479 2145.5C268.979 2164.5 285.979 2171 285.979 2183C285.979 2195 287.479 2210.5 294.479 2246C301.479 2281.5 282.979 2275 289.979 2297C296.979 2319 315.979 2314.5 318.479 2331C320.979 2347.5 336.479 2373.5 351.979 2397C367.479 2420.5 334.479 2414 366.479 2464C398.479 2514 401.979 2484 407.979 2488C413.979 2492 435.979 2510 447.979 2527C459.979 2544 444.979 2560.5 464.479 2588.5C483.979 2616.5 506.979 2598.5 511.979 2599C516.979 2599.5 546.479 2617 567.479 2626C588.479 2635 564.979 2659 599.479 2677C633.979 2695 645.979 2670.5 658.979 2670.5C671.979 2670.5 681.979 2677.5 710.479 2681C738.979 2684.5 737.479 2726 769.479 2725C801.479 2724 802.979 2686.5 821.979 2686.5C840.979 2686.5 850.479 2687.5 878.479 2686.5C906.479 2685.5 877.479 2713.5 935.479 2706.5C993.479 2699.5 968.479 2671 973.479 2659C978.479 2647 1008.48 2639 1025.48 2630.5C1042.48 2622 1060.98 2646 1087.98 2639C1112.98 2631 1098.98 2587.5 1106.48 2578C1113.98 2568.5 1122.98 2565.5 1140.48 2551C1157.98 2536.5 1190.98 2560.5 1209.98 2544C1228.98 2527.5 1209.48 2487 1214.48 2473C1219.48 2459 1223.27 2447.6 1239.48 2440.5C1256.02 2433.25 1274.97 2448.29 1290.48 2413.5C1304.78 2381.44 1278.48 2358.5 1278.48 2346.5C1278.48 2334.5 1294.48 2306 1298.48 2287C1302.48 2268 1325.98 2271.5 1331.48 2250C1336.98 2228.5 1309.98 2221.5 1306.48 2208C1302.98 2194.5 1308.48 2156 1306.48 2137.5C1304.48 2119 1333.98 2134 1331.48 2096C1328.98 2058 1307.48 2069.5 1298.48 2062C1289.48 2054.5 1282.48 2012 1278.48 1995C1274.48 1978 1296.48 1964.5 1290.48 1946C1284.48 1927.5 1261.48 1932 1248.98 1925.5C1236.48 1919 1218.98 1874.5 1209.98 1857.5C1200.98 1840.5 1218.98 1816.5 1209.98 1804C1200.98 1791.5 1182.98 1797.5 1166.98 1797.5C1150.98 1797.5 1120.98 1764.5 1109.98 1752.5C1098.98 1740.5 1111.48 1710.5 1092.98 1695C1074.48 1679.5 1040.48 1702.5 1028.48 1702.5C1016.48 1702.5 974.479 1677.5 966.979 1668C959.479 1658.5 975.979 1620 932.979 1619.5C889.979 1619 898.479 1646.5 886.479 1650.5C874.479 1654.5 854.479 1648 831.479 1650.5C808.479 1653 796.979 1611 767.479 1611C737.979 1611 723.479 1659 710.479 1661C697.479 1663 686.979 1665 662.479 1666C637.979 1667 652.979 1639.5 608.979 1650.5C564.979 1661.5 586.479 1697 578.479 1699C570.479 1701 555.479 1718 525.979 1729C496.479 1740 485.479 1716 469.479 1729C453.479 1742 469.722 1766.22 452.979 1777C435.469 1788.27 406.61 1818.44 395.979 1835.5C385.127 1852.91 379.979 1827 361.979 1846.5C343.979 1866 362.979 1888.5 356.479 1897ZM356.479 1897C369.679 1875.8 378.312 1864.17 380.979 1861M312.979 2116C324.914 2065.09 349.222 2014.31 366.479 1949.5C376.675 1911.2 386.479 1902.5 428.479 1864L428.681 1863.81C502.832 1818.71 545.684 1766.57 610.979 1748.5C690.226 1726.56 742.798 1724.61 810.479 1727.5C881.659 1730.54 988.97 1751.36 1041.48 1800.5C1092.83 1848.56 1150.48 1882.5 1182.98 1926C1215.48 1969.5 1252.48 2041 1259.98 2098.5M318.479 2287C338.979 2346.5 357.479 2390.5 392.979 2436C428.479 2481.5 481.566 2510.88 552.479 2581C594.076 2622.13 697.387 2653.09 808.479 2653.5C890.003 2653.8 917.979 2635 949.479 2630.5C980.979 2626 1038.74 2597.32 1078.98 2564.5C1155.56 2502.04 1189.87 2486.66 1214.48 2428M902.979 1695C939.479 1702.5 974.479 1720.5 984.479 1724M742.979 1661C760.979 1646.5 772.979 1647 784.979 1654C794.579 1659.6 807.979 1661 813.479 1661M906.479 1668C924.479 1661 931.979 1666 941.479 1682.5M1036.48 1724C1072.98 1718.5 1066.48 1746 1085.98 1763M618.479 2670.5C634.479 2667.5 646.479 2649.5 658.979 2653.5M515.979 1770.8C561.464 1729.09 658.979 1712.3 742.979 1699M878.479 2620.3C941.681 2590.62 998.332 2579.17 1087.98 2531.3C1160.27 2492.7 1189.48 2409.8 1214.48 2388.3" stroke="black" stroke-width="10" stroke-linecap="round"/>
<path d="M405.978 2261.3C410.478 2255.8 423.979 2273.3 432.979 2278.8C441.979 2284.3 458.478 2285.3 469.479 2281.8M405.978 2316.8C418.478 2308.3 425.978 2308.8 442.978 2312.8C459.978 2316.8 458.978 2317.3 468.478 2316.3C477.978 2315.3 492.478 2312.8 498.978 2308.8C505.478 2304.8 530.478 2296.8 527.978 2267.8M500.478 2233.3C509.38 2235.84 521.155 2238.03 526.058 2256.3M490.478 2226.8C490.478 2222.8 491.478 2216.8 482.978 2220.3C474.478 2223.8 458.478 2218.8 458.478 2212.8C458.478 2206.8 465.478 2200.8 478.478 2202.8C491.478 2204.8 499.978 2220.3 505.978 2220.3C510.181 2220.3 510.459 2214.91 510.592 2204.8M435.478 2182.3C453.478 2171.8 481.478 2180.3 495.978 2177.3C510.478 2174.3 511.978 2169.3 510.978 2189.3C510.679 2195.29 510.648 2200.48 510.592 2204.8M411.478 2240.8C400.478 2234.3 402.478 2217.3 405.978 2204.8C410.979 2221.8 411.479 2229.8 428.979 2237.3C434.329 2239.59 439.539 2241.51 444.222 2243.3M600.979 2179.3C606.979 2186.3 593.479 2193.8 592.979 2206.8M594.479 2226.8C600.979 2233.3 596.979 2242.8 592.979 2249.8C588.979 2256.8 586.979 2281.8 602.979 2281.8C618.979 2281.8 635.979 2274.8 635.479 2255.3C634.979 2235.8 627.479 2247.8 626.979 2237.3C626.479 2226.8 634.979 2227.3 631.979 2206.8C628.979 2186.3 609.479 2182.8 622.479 2179.3C635.479 2175.8 646.479 2178.8 657.979 2178.8C669.479 2178.8 695.479 2175.3 690.979 2184.8C686.479 2194.3 679.479 2194.8 679.979 2212.3M690.979 2237.3C690.979 2246.3 681.479 2247.8 682.479 2269.3C683.479 2290.8 679.479 2292.8 683.979 2296.8C688.479 2300.8 698.479 2311.3 686.479 2312.3C681.99 2312.68 673.514 2313.75 664.479 2314.58C649.358 2315.97 632.669 2316.68 630.479 2312.3M540.479 2255.3C540.112 2271.43 540.283 2280.57 546.506 2290.8M540.479 2198.8C532.479 2189.3 527.479 2191.3 532.479 2177.3C545.407 2178.15 558.605 2177.38 569.979 2176.75M716.979 2212.3C716.979 2226.8 705.979 2231.3 705.979 2240.3M705.979 2308.8C701.175 2306.56 706.421 2302.27 710.814 2290.8M835.479 2291.3C849.979 2269.3 846.479 2260.8 841.979 2252.8M835.479 2212.3C835.479 2221.3 835.479 2228.3 818.479 2234.3C821.904 2236.19 827.446 2239.58 832.382 2243.3M777.979 2179.3C769.166 2179.3 758.436 2178.4 747.979 2177.66M766.979 2252.8C766.979 2255.8 766.979 2264.2 766.979 2273.8C766.979 2285.8 772.979 2282.3 777.979 2282.3C782.223 2282.3 790.07 2284.46 792.345 2273.8M792.979 2266.8C792.979 2269.6 792.75 2271.9 792.345 2273.8M463.479 2256.3C464.479 2264.3 470.979 2258.8 475.979 2261.3M449.979 2299.3C468.478 2302.8 485.978 2304.3 495.978 2296.8C499.731 2293.99 505.478 2290.82 510.978 2286.75M458.478 2192.8C469.479 2189.3 492.978 2190.8 495.978 2198.8C498.378 2205.2 506.721 2205.47 510.592 2204.8M417.479 2299.76C422.487 2297.14 427.46 2296.44 432.979 2296.73M550.479 2243.3C550.178 2254.12 550.419 2267.46 554.132 2277.8M566.979 2292.8C582.979 2299.3 585.979 2301.8 597.979 2299.3M672.979 2296.8C665.979 2300.8 646.979 2296.8 639.979 2296.8C632.979 2296.8 639.979 2282.3 635.479 2287.8C632.869 2290.99 624.712 2293.51 615.979 2295.55M764.979 2240.3C784.979 2237.3 809.711 2244.8 792.345 2273.8M764.979 2193.3C775.036 2191.75 796.911 2196.79 791.479 2209.8C789.017 2218.2 784.312 2224.3 784.479 2226.3M775.654 2294.8C795.028 2294.8 811.092 2292.84 822.289 2286.75C828.04 2283.62 832.507 2279.4 835.479 2273.8M921.979 2182.3C923.479 2171.3 902.979 2178.8 878.979 2178.8C854.979 2178.3 851.979 2178.8 851.479 2183.3C850.979 2187.8 854.979 2191.8 859.479 2192.8M913.979 2201.8C913.979 2215.8 913.979 2215.3 913.979 2223.3M913.979 2223.3C913.979 2231.3 923.979 2229.8 923.979 2238.8C923.979 2247.8 917.979 2244.8 915.979 2248.8C913.979 2252.8 911.979 2259.8 913.979 2266.8C915.979 2273.8 911.979 2288.3 917.979 2296.3C923.979 2304.3 931.479 2310.8 913.979 2310.8C896.479 2310.8 874.479 2310.8 869.979 2310.8M913.979 2223.3C917.979 2217.3 931.079 2205.6 951.479 2206.8C976.979 2208.3 967.479 2218.8 966.979 2227.3C966.479 2235.8 952.479 2234.3 955.479 2245.3C958.479 2256.3 966.979 2249.8 966.979 2261.8M865.979 2256.8C864.979 2243.3 853.479 2246.8 853.479 2238.8M869.979 2294.8C875.192 2295.43 881.693 2296.14 887.979 2296.5M904.979 2294.8C911.579 2291.3 901.979 2267.8 904.979 2256.3M864.479 2240.3C868.879 2239.1 873.312 2238.8 874.979 2238.8M908.979 2238.8C912.979 2240 915.312 2241.63 915.979 2242.3M715.479 2240.3H721.479C724.242 2243.06 725.202 2248.27 725.337 2256.3M674.979 2246.8C675.479 2243.3 679.979 2240.3 683.979 2240.3M415.979 2277.8C415.979 2286.2 415.979 2290.63 415.979 2291.8M726.479 2176.75C714.561 2176.86 705.979 2178.69 705.979 2184.8C713.442 2190.49 715.853 2194.66 716.623 2201.8M724.945 2272.8C724.65 2279.66 724.256 2287.63 723.979 2296.8C728.257 2296.04 736.928 2295.49 747.979 2295.16M721.479 2311.04C728.981 2311.75 738.877 2312.3 750.979 2312.3C775.95 2312.3 806.112 2312.95 824.479 2301.7M966.979 2279.3C966.979 2291.3 963.479 2296.8 959.479 2299.8M983.479 2309.3C997.479 2308.3 1006.98 2310.8 1014.98 2310.8C1022.98 2310.8 1030.98 2313.3 1028.98 2302.8M1017.98 2288.8C1016.98 2279.3 1012.48 2261.8 1017.98 2256.3C1023.48 2250.8 1032.48 2252.3 1028.98 2242.3M1028.98 2259.8C1032.98 2258.3 1034.98 2256.8 1035.98 2253.3M1044.98 2199.8C1054.48 2207.8 1056.48 2211.8 1055.48 2216.3C1056.31 2211.3 1058.08 2200.5 1058.48 2197.3C1058.81 2194.68 1064.49 2189.49 1064.59 2185.8M1017.98 2221.8C1017.98 2210.3 1016.98 2203.8 1028.98 2204.8C1040.98 2205.8 1041.48 2208.3 1048.48 2212.3M995.979 2181.8C1014.98 2181.8 1044.98 2180.3 1058.48 2181.8C1063.14 2182.32 1064.64 2183.85 1064.59 2185.8M981.979 2180.8H969.979M956.479 2180.8C948.979 2179.13 932.979 2176.4 928.979 2178.8M971.979 2233.3C975.479 2227.3 979.479 2201.3 971.979 2198.8C964.479 2196.3 940.979 2192.8 931.979 2197.3C922.979 2201.8 920.979 2204.3 921.979 2196.3M974.479 2288.8C971.979 2295.3 967.479 2298.3 979.479 2296.3C991.479 2294.3 1012.98 2302.3 1011.48 2296.3M1009.98 2253.3C1011.48 2246.8 1014.98 2244.3 1017.98 2243.3M544.979 2298.3C548.579 2303.5 552.581 2307.47 554.132 2308.8M1061.98 2309.3C1058.48 2302.8 1065.98 2296.3 1068.48 2296.3M1074.48 2281.8C1073.98 2269.3 1074.98 2255.3 1068.48 2251.8C1061.98 2248.3 1061.98 2248.8 1061.98 2244.8M1071.98 2233.3C1079.98 2227.8 1082.48 2223.3 1080.98 2208.8C1079.48 2194.3 1074.98 2190.3 1070.48 2189.3C1066.88 2188.5 1065.05 2186.63 1064.59 2185.8M1066.48 2196.3C1070.48 2208.8 1072.48 2204.3 1070.48 2220.3M1072.98 2242.3C1079.98 2247.3 1080.98 2245.8 1080.98 2266.3M1078.48 2291.8C1076.48 2298.3 1080.48 2298.3 1099.48 2296.3C1118.48 2294.3 1149.48 2296.3 1155.98 2296.3M1168.98 2293.3C1171.48 2289.8 1176.48 2290.3 1176.98 2284.8M1080.98 2311.3C1105.48 2309.3 1099.48 2306.3 1122.48 2309.3C1145.48 2312.3 1169.98 2312.3 1173.48 2305.8C1176.98 2299.3 1176.48 2298.8 1181.98 2291.8M1186.48 2280.8C1186.98 2274.8 1186.48 2270.8 1176.98 2274.3C1167.48 2277.8 1165.48 2283.3 1145.98 2283.3C1126.48 2283.3 1117.48 2284.8 1116.98 2278.3M1120.48 2264.8C1120.98 2253.8 1124.98 2253.3 1136.98 2254.8C1148.98 2256.3 1145.98 2262.8 1152.98 2260.3C1159.98 2257.8 1156.98 2250.3 1157.98 2239.8C1158.98 2229.3 1155.98 2226.8 1143.48 2228.8C1130.98 2230.8 1117.98 2231.3 1117.98 2225.8M1148.98 2244.8C1144.58 2240.8 1125.15 2244.8 1115.98 2247.3M1151.48 2207.3C1162.98 2216.3 1160.48 2220.3 1167.48 2215.3C1174.48 2210.3 1169.98 2206.8 1173.48 2197.3C1176.98 2187.8 1183.48 2175.8 1167.48 2176.8C1151.48 2177.8 1126.48 2180.8 1112.98 2178.8M1070.48 2178.8C1080.98 2175.3 1099.48 2178.8 1101.48 2178.8M1143.48 2193.3C1161.48 2199.8 1161.98 2203.8 1165.48 2194.8M1167.48 2186.3L1168.98 2184.3M502.479 2147.8C508.979 2156.3 482.978 2151.8 455.479 2151.8C452.479 2153.13 444.779 2154.2 437.979 2147.8M483.979 2118.3C484.979 2110.3 483.479 2090.3 490.479 2089.8M493.979 2099.8C498.979 2095.3 504.479 2097.8 500.479 2088.8C496.479 2079.8 488.479 2080.8 488.979 2074.3M488.979 2062.8C490.479 2051.8 494.365 2044.3 502.479 2056.8C510.592 2069.3 520.479 2082.8 530.479 2094.3M538.479 2104.8C544.479 2117.3 556.879 2140.6 558.479 2133.8M594.479 2074.3C605.479 2059.3 613.479 2042.8 616.479 2053.8M618.479 2067.8C618.479 2076.3 611.979 2078.8 616.479 2084.3C620.979 2089.8 625.479 2089.8 625.979 2102.3C626.479 2114.8 616.979 2141.8 629.979 2139.3C642.979 2136.8 663.479 2144.3 657.979 2131.3C652.479 2118.3 649.479 2090.8 651.979 2086.8M645.479 2027.3C647.479 2021.8 665.979 2007.8 651.979 2006.3C637.979 2004.8 599.479 1999.8 600.979 2007.8C602.479 2015.8 594.479 2024.3 594.479 2025.8M588.479 2034.8C579.479 2049.8 564.479 2087.8 554.479 2070.8M532.479 2043.8C529.312 2039.97 522.979 2031.3 522.979 2027.3M514.979 2014.3C514.812 2011.13 512.079 2005.1 502.479 2006.3C490.479 2007.8 448.479 1999.3 457.479 2013.8M465.479 2021.8C466.645 2021.3 468.979 2024.1 468.979 2039.3C468.979 2058.3 469.479 2071.3 457.479 2074.3M452.979 2092.3C457.479 2099.8 456.979 2128.3 450.479 2133.8M452.979 2141.3C465.479 2141.3 471.479 2137.8 478.979 2141.8M458.478 2086.8C465.479 2088.8 465.979 2095.3 464.479 2104.3M458.979 2027.3C459.812 2033.47 460.979 2048 458.979 2056.8M541.979 2133.8C559.979 2169.3 563.979 2139.8 569.979 2133.8M576.479 2120.8C585.479 2110.3 599.479 2086.3 602.479 2081.8C605.479 2077.3 602.979 2082.3 604.979 2092.3C606.979 2102.3 616.979 2091.8 613.479 2112.8C609.979 2133.8 618.979 2130.8 613.479 2139.3C607.979 2147.8 604.479 2150.3 616.479 2150.3M631.979 2151.8C645.979 2152.97 674.079 2153.4 674.479 2145.8C674.979 2136.3 665.479 2137.8 665.479 2125.3C665.479 2112.8 657.979 2101.8 659.979 2094.3M766.979 2018.3C804.979 2018.3 838.479 2031.3 845.979 2047.8C853.479 2064.3 850.479 2074.8 856.479 2076.8M865.479 2084.3C865.479 2090.8 860.479 2089.8 858.479 2096.8C856.479 2103.8 851.979 2122.8 832.479 2133.3C812.979 2143.8 802.479 2152.3 777.979 2152.3C753.479 2152.3 713.479 2151.8 699.979 2134.8M674.479 2096.8C669.979 2092.8 662.479 2091.8 665.479 2084.3C668.479 2076.8 669.979 2086.8 680.479 2064.3C690.979 2041.8 708.979 2033.3 719.979 2027.3M731.979 2022.3C740.379 2020.3 743.145 2019.8 743.479 2019.8M761.979 2034.3C777.979 2034.3 789.979 2033.8 796.979 2043.8C803.979 2053.8 819.979 2066.3 811.979 2072.8M810.479 2105.3C803.979 2114.8 795.979 2125.8 781.479 2125.8M731.479 2093.3C736.979 2091.3 741.479 2087.8 736.479 2081.8C731.479 2075.8 728.479 2073.8 733.979 2066.8C739.479 2059.8 745.479 2048.3 760.479 2047.8M725.979 2069.3C725.979 2058.8 728.979 2051.3 737.479 2043.8M796.979 2080.3C791.479 2085.8 788.979 2088.3 796.979 2090.8C804.979 2093.3 806.979 2096.3 805.479 2100.8M808.979 2084.3C814.979 2088.8 816.979 2089.8 815.479 2096.8M693.479 2108.3C699.979 2119.3 707.979 2124.8 713.479 2127.8M725.979 2133.3L732.979 2135.8M872.479 2022.3C871.479 2027.3 881.979 2027.3 881.979 2040.3C881.979 2053.3 886.979 2069.3 880.979 2074.8C874.979 2080.3 875.979 2084.8 878.979 2090.8M887.479 2086.8C891.979 2089.3 892.479 2093.3 891.979 2105.3C891.479 2117.3 892.479 2129.8 887.979 2133.3C883.479 2136.8 894.479 2136.8 899.979 2136.8M928.979 2125.8C925.399 2103.43 924.222 2065.85 925.805 2047.8M926.479 2042.3C926.215 2043.83 925.991 2045.68 925.805 2047.8M942.479 2033.8C953.479 2034.8 962.479 2042.8 957.979 2059.8M953.979 2066.8C947.979 2074.8 940.979 2076.8 938.979 2076.8M925.805 2047.8C938.979 2047.8 948.479 2043.8 949.979 2055.3M940.979 2095.3C952.479 2110.3 958.979 2116.8 962.479 2123.3C965.979 2129.8 966.979 2140.3 980.479 2136.8C991.279 2134 1005.65 2136.3 1011.48 2136.3M969.979 2086.8C985.479 2098.8 988.979 2107.3 992.479 2110.3M938.979 2149.3C945.479 2149.3 947.979 2145.8 945.479 2141.3C942.979 2136.8 936.979 2138.8 936.479 2136.8M873.979 2141.3C870.479 2144.8 863.979 2149.3 880.979 2149.3C897.979 2149.3 900.979 2147.3 911.979 2149.3M885.479 2020.8C921.979 2023.3 940.979 2020.8 955.479 2020.8M990.479 2033.8C992.245 2037.81 994.327 2040.98 996.305 2043.8M997.979 2076.8C1000.6 2072.03 1002.18 2068.13 1002.97 2064.8M996.305 2043.8C997.196 2049.47 996.679 2062 987.479 2066.8M996.305 2043.8C1001.05 2050.58 1005.21 2055.35 1002.97 2064.8M938.979 2113.8C947.979 2123.3 951.479 2122.8 953.979 2133.3C956.479 2143.8 958.979 2149.3 977.479 2149.3C995.979 2149.3 1000.98 2146.3 1017.98 2146.8M1002.97 2064.8C1017.98 2051.8 1027.48 2052.3 1042.98 2051.8C1058.48 2051.3 1050.48 2056.8 1051.48 2066.8M1019.98 2038.3C1048.48 2033.8 1058.48 2026.8 1058.48 2042.3M1117.98 2035.8C1099.48 2035.8 1095.98 2026.3 1096.98 2055.3C1097.98 2084.3 1103.98 2062.8 1104.98 2076.8C1105.98 2090.8 1096.98 2078.3 1096.98 2088.8M1053.48 2083.3C1058.48 2086.8 1060.48 2085.3 1060.48 2095.3C1060.48 2103.3 1060.48 2117.3 1060.48 2123.3C1058.31 2127.63 1055.78 2136.3 1062.98 2136.3C1071.98 2136.3 1074.98 2134.3 1087.48 2136.3M1051.48 2136.8C1044.48 2141.3 1038.48 2147.3 1045.98 2149.3C1053.48 2151.3 1064.98 2149.3 1078.48 2149.3M1104.98 2149.3C1115.98 2149.3 1114.98 2143.3 1107.48 2133.3C1099.98 2123.3 1099.98 2109.3 1101.48 2102.3C1102.98 2095.3 1104.48 2094.3 1112.98 2088.8C1119.78 2084.4 1115.81 2078.97 1112.98 2076.8M1087.48 2149.3H1090.98M1042.98 2081.8C1039.98 2086.8 1040.48 2088.3 1045.98 2092.8M1106.48 2057.3C1104.98 2047.8 1116.48 2045.3 1123.98 2047.8C1131.48 2050.3 1131.48 2059.8 1139.48 2059.8C1147.48 2059.8 1143.98 2056.8 1147.98 2045.3M1149.98 2026.8C1151.98 2017.8 1143.48 2020.8 1128.98 2020.8C1114.48 2020.8 1079.48 2022.3 1066.48 2019.3C1056.08 2016.9 1036.15 2019.3 1027.48 2020.8M1014.98 2022.3C1009.98 2022.3 1004.98 2027.8 1006.98 2039.8M766.979 2201.8C780.479 2201.3 784.479 2205.8 780.479 2215.8C779.2 2219 777.461 2221.53 775.654 2223.3C771.81 2227.07 767.659 2227.38 766.979 2223.3C766.179 2218.5 766.645 2206.97 766.979 2201.8Z" stroke="black" stroke-width="9" stroke-linecap="round" stroke-linejoin="round"/>
<path d="M780.968 863.199L765.968 1507M772.468 681.09C770.266 681.118 768.099 681.154 765.968 681.199C669.968 683.199 483.968 694.199 400.968 694.199C317.968 694.199 302.468 694.699 279.968 712.699C257.468 730.699 247.968 787.699 263.968 796.199C425.385 791.634 605.935 790.958 770.968 791.733M772.468 681.09L772.338 690.699M772.468 681.09C846.724 680.147 966.688 686.808 1052.47 690.699M770.968 791.733L771.145 772.699M770.968 791.733C788.995 779.079 837.164 773.595 834.468 794.5C872.76 794.722 882.468 802 912.968 792.744C925.374 779.248 979.078 781.352 968.968 794.948C987.968 807.8 1031.16 794.007 1065.97 794.444C1090.35 782.496 1117.42 779.764 1115.47 796.017C1147.97 808.069 1163.81 795.712 1188.47 796.017C1209.97 785.327 1238.11 784.966 1238.47 796.017C1288.72 796.566 1303.07 797.05 1308.47 796.199C1315.05 815.379 1363.61 775.906 1333.47 774.699C1303.33 773.492 1311.76 718.514 1281.97 703.199C1252.18 687.884 1198.47 694.199 1115.47 694.199C1096.42 694.199 1078.77 691.892 1052.47 690.699M772.338 690.699C802.968 694.199 811.517 685.894 822.968 731.699C830.968 763.699 836.106 766.918 860.468 772.199C871.346 774.557 874.468 775.199 885.468 768.199C896.468 761.199 892.968 701.699 931.468 703.199C959.968 703.199 953.968 714.199 968.968 743.199C983.968 772.199 985.468 772.199 1013.97 772.199C1042.47 772.199 1035.47 710.199 1063.97 710.199C1087.47 710.199 1093.97 721.199 1097.97 739.699C1098.47 750.532 1105.87 772.199 1131.47 772.199M772.338 690.699L771.145 772.699M939.968 715.699C946.468 722.199 951.968 751.699 960.468 764.199C967.268 774.199 971.635 778.032 972.968 778.699M794.968 707.199C797.468 710.032 803.568 719.699 807.968 735.699C813.468 755.699 812.968 764.199 817.968 768.199M1164.47 727.699C1173.47 710.199 1177.47 710.199 1196.47 710.199C1215.47 710.199 1217.97 756.199 1231.47 763.199M1199.97 731.199C1210.47 754.699 1206.97 776.199 1226.97 778.699C1246.97 781.199 1258.97 782.199 1263.47 774.699M1008.97 754.199C1022.47 746.699 1034.97 689.952 1052.47 690.699M1063.97 778.699C1069.47 754.199 1069.47 735.699 1069.47 725.199M306.968 778.699C459.768 773.499 680.086 770.532 771.145 772.699" stroke="black" stroke-width="10" stroke-linecap="round"/>
<path d="M406.456 695.97C488.322 695.97 671.781 685.164 766.469 683.199V714.145C699.069 715.904 535.666 706.185 421.251 714.145C377.852 717.092 345.648 715.193 322.469 726C299.29 736.807 284.324 745.35 309.969 796.177C307.168 796.253 274.117 796.098 271.328 796.177C255.547 787.827 264.917 731.828 287.11 714.145C309.302 696.461 324.59 695.97 406.456 695.97Z" fill="black" stroke="black" stroke-width="10" stroke-linecap="round"/>
<rect x="275.5" y="3089.91" width="1053.72" height="61.5947" stroke="black" stroke-width="15"/>
<rect x="268" y="3082" width="356.368" height="77" fill="black"/>
<rect x="980.736" y="3082" width="356.368" height="77" fill="black"/>
<path d="M1213.68 2964.7C1197.04 2964.7 1182.09 2975.62 1182.09 2997.72C1182.09 3017.61 1194.57 3032.3 1213.03 3032.3C1220.7 3032.3 1227.72 3028.66 1230.84 3025.54L1232.14 3016.44H1231.88C1226.94 3019.56 1221.48 3022.42 1214.59 3022.42C1203.02 3022.42 1194.96 3014.49 1194.96 2997.98C1194.96 2983.03 1203.41 2976.53 1213.29 2976.53C1219.66 2976.53 1225.77 2978.61 1231.75 2983.03H1232.01L1229.41 2967.82C1225.9 2966 1220.57 2964.7 1213.68 2964.7ZM1273.43 2977.83C1281.62 2977.83 1286.95 2980.43 1286.56 2992.78L1285.26 3031H1299.82L1298.52 2988.49C1298.39 2986.54 1298.26 2984.72 1298 2982.9C1302.03 2979.91 1306.97 2977.83 1311.39 2977.83C1319.58 2977.83 1324.91 2980.43 1324.52 2992.78L1323.35 3031H1337.91L1336.48 2988.49C1335.96 2974.19 1330.24 2964.7 1318.67 2964.7C1311.91 2964.7 1305.8 2969.25 1300.21 2974.06L1296.7 2977.18C1294.1 2969.38 1288.9 2964.7 1280.71 2964.7C1273.95 2964.7 1267.84 2969.25 1262.25 2974.06L1260.17 2975.88L1259.91 2966H1246.39V2966.26L1248.73 2982.9L1247.17 3031H1261.73L1260.43 2982.77C1264.33 2979.78 1269.14 2977.83 1273.43 2977.83Z" fill="black"/>
<path d="M1112.52 3034.8C1137.09 3034.8 1144.5 3017.77 1144.5 3005.03C1144.5 2990.47 1134.75 2978.12 1117.07 2977.73L1144.11 2937.3V2936H1091.2L1088.6 2948.22H1088.86L1124.22 2944.84L1101.73 2984.49V2989.04C1105.11 2988.13 1107.97 2987.87 1111.35 2987.87C1121.62 2987.87 1131.63 2993.98 1131.63 3005.94C1131.63 3015.95 1125.78 3024.14 1113.3 3024.14C1105.11 3024.14 1099.13 3020.76 1089.51 3015.04H1088.47L1091.07 3030.25C1097.96 3033.11 1105.76 3034.8 1112.52 3034.8Z" fill="black"/>
</g>
<defs>
<clipPath id="clip0">
<rect width="1599" height="3391" fill="white"/>
</clipPath>
</defs>
</svg>
