<svg width="1309" height="1297" viewBox="0 0 1309 1297" fill="none" xmlns="http://www.w3.org/2000/svg">
<g clip-path="url(#clip0)">
<path d="M770.973 776C635.285 776 595.514 764.525 546.571 755.869C497.628 747.212 502.667 723.251 490.001 715.135C489.639 714.903 561.399 739.479 568.74 738.665C600.162 735.18 634.147 730.88 664.409 722.452C702.316 711.895 738.29 728.028 767.178 706.434C791.829 688.007 815.537 668.243 834.408 646.639C841.762 638.219 870.652 618.447 886.999 629.052C907.08 642.08 932 659.157 932 679.272C932 705.781 909.857 721.47 892.963 742.78C868.273 773.926 815.799 776 770.973 776Z" fill="#777772"/>
<path d="M624.215 423.144C601.448 423.144 578.778 424.698 556.071 424.698C551.41 424.698 520.656 432.47 516.175 432.47C510.399 432.47 505.069 432.552 499.399 433.679C489.64 435.618 484.083 436.538 475.41 441.018C462.104 447.892 448.747 454.522 436.296 462.865C424.749 470.601 408.016 482.073 401.181 494.296C392.739 509.391 387.1 524.744 387.1 542.133C387.1 557.74 386.014 575.336 391.011 590.23C392.559 594.845 394.782 607.603 399.616 610.004C404.904 612.631 411.314 611.975 416.131 615.53C423.113 620.683 428.96 637.581 433.341 645.494C441.662 660.524 452.544 671.513 464.11 684.264C467.817 688.351 489.584 707.668 484.101 713.796C591.803 767.859 686.974 767.226 793.186 712.932C801.819 699.456 809.161 685.435 820.131 673.73C827.836 665.508 832.774 653.764 842.556 647.825C859.68 637.429 868.593 626.649 877.15 608.968C881.371 600.246 885.026 596.741 892.448 591.007C896.743 587.688 901.112 584.936 904.269 580.904C910.55 572.881 907.472 550.929 905.312 541.27C902.09 526.866 900.737 510.094 893.143 497.75C888.465 490.145 883.834 482.654 879.236 474.954C876.245 469.944 872.075 460.783 867.067 457.338C856.035 449.75 846.725 447.931 834.473 444.127C826.51 441.655 817.993 439.354 809.874 437.478C804.929 436.335 801.536 432.818 797.011 430.57C788.816 426.5 773.475 428.922 764.155 427.893C752.152 426.568 741.485 419.941 729.735 417.272C718.086 414.627 704.005 416.927 691.925 416.927C681.086 416.927 671.838 419.66 661.243 420.036C648.853 420.475 636.903 423.144 624.215 423.144Z" fill="white"/>
<path d="M501.874 674.166C493.283 664.563 487.706 658.331 475.799 650.311C471.834 642.381 463.671 635.263 471.838 625.054C474.074 622.259 471.203 615.055 471.838 611.564C472.748 606.556 479.879 601.608 482.03 596.875C485.408 589.444 500.831 592.075 506.497 586.724C516.563 577.217 541.429 569.183 554.735 569.183C576.33 569.183 595.749 579.373 616.617 580.146C641.446 581.066 666.458 584.532 691.168 584.532C704.069 584.532 715.386 587.398 727.956 588.795C737.933 589.904 749.022 595.813 759.14 592.815C779.092 586.903 797.247 583.083 815.175 595.495C828.551 604.755 833.68 621.387 825.529 636.059C822.417 641.66 822.646 651.042 820.535 657.377C819.291 661.107 819.648 680.302 817.246 681.983C803.011 691.947 777.807 677.203 764.744 690.267C757.668 697.342 754.475 704.601 746.593 710.732C740.591 715.4 734.212 710.309 727.956 706.833C718.211 701.42 718.696 700.931 707.003 703.057C698.661 704.574 696.385 715.653 688.488 716.091C681.291 716.491 675.552 714.992 668.754 714.021C651.091 711.497 637.392 718.284 620.515 718.284C601.556 718.284 586.099 709.513 566.795 709.513C553.977 709.513 553.159 707.579 543.285 700.743C534.745 694.831 529.944 689.349 519.653 686.49C508.636 683.43 508.94 682.063 502.111 674.431L501.874 674.166Z" fill="#5E5F62"/>
<path d="M420.105 609.227C428.032 627.062 445.089 630.5 463.014 630.5C460.588 637.777 449.9 651.772 460.559 651.772C464.71 651.772 485.974 649.089 487.468 654.317C490.7 665.63 475.292 660.024 468.832 664.135C460.107 669.687 467.831 675.539 473.65 678.772C479.302 681.912 495.74 678.962 495.74 671.408C495.74 662.116 492.274 652.625 487.922 645.227C483.932 638.443 474.468 629.874 474.468 621.954C474.468 610.737 478.739 602.077 479.377 591.227C479.64 586.753 488.182 578.576 491.195 575.228C498.421 567.198 505.896 560.012 515.377 554.41C527.711 547.121 541.802 537.504 556.376 535.683C576.634 533.15 595.495 525.125 615.83 522.501C626.362 521.142 636.378 520.865 647.011 520.865C653.258 520.865 664.298 521.048 670.102 518.41C674.941 516.211 692.455 512.146 692.101 506.138C692.037 505.047 686.201 498.491 684.647 498.047C678.543 496.303 678.141 490.813 677.011 485.411C675.507 478.227 671.148 462.443 665.556 457.411C661.324 453.602 640.373 456.63 636.466 460.32C631.613 464.903 627.387 471.774 620.102 471.774C614.021 471.774 604.231 474.315 602.103 466.865C600.38 460.836 598.209 455.411 591.921 455.411C585.955 455.411 579.035 453.533 575.103 458.775C571.118 464.087 571.813 471.081 569.012 476.683C567.346 480.016 561.621 485.832 558.74 488.138C555.719 490.555 552.398 496.319 548.103 496.319C540.632 496.319 540.478 484.254 538.285 479.32C536.758 475.884 523.617 478.839 521.104 479.956C517.252 481.668 518.649 487.881 518.649 491.41C518.649 495.997 519.345 520.756 512.104 514.319C506.846 509.645 486.397 493.965 479.741 499.956C476.812 502.591 480.497 509.463 481.831 511.865C484.415 516.516 484.286 520.18 484.286 525.41C484.286 536.639 469.083 544.495 463.741 533.046C459.891 524.797 457.833 521.939 448.286 522.501C446.39 522.612 452.573 533.373 453.195 534.774C456.147 541.415 453.713 546.967 453.195 553.955C452.758 559.865 442.723 555.93 439.377 554.41C433.56 551.766 431.808 553.349 425.741 553.591C420.949 553.783 425.213 562.898 426.287 565.046C429.112 570.696 436.428 570.64 440.923 574.137C444.707 577.08 449.244 581.926 451.196 586.318C453.316 591.088 450.879 598.608 449.832 603.318C449.434 605.11 438.595 595.699 436.832 594.864C432.869 592.986 422.277 593.684 418.196 594.591C415.164 595.265 419.279 607.368 420.105 609.227Z" fill="#777772"/>
<path d="M718.288 487.101C710.435 492.991 713.077 511.132 713.077 519.435C719.003 522.398 733.643 525.656 740.305 526.189C749.424 526.919 757.05 539.279 764.715 543.313C770.996 546.619 777.9 552.491 784.924 553.896C788.173 554.546 793.357 556.175 795.347 559.161C800.32 566.62 818.307 575.882 815.024 586.389C813.037 592.746 813.839 604.396 817.417 610.161C822.265 617.972 821.33 630.573 819.544 639.304C818.838 642.757 813.598 658.686 821.246 658.236C824.927 658.02 829.355 653.969 832.733 652.28C837.065 650.114 863.209 654.424 861.397 646.271C860.166 640.731 863.175 630.55 854.75 631.486C849.936 632.021 840.987 635.336 843.263 628.508C845.263 622.507 848.818 616.507 852.835 611.544C857.8 605.41 863.37 602.671 869.64 598.142C871.717 596.643 877.724 594.9 877.724 591.973C877.724 589.611 876.975 582.496 873.682 582.614C868.152 582.811 862.232 588.244 857.834 591.016C852.896 594.129 853.792 593.233 853.792 587.719C853.792 577.686 851.995 565.867 856.239 556.608C858.871 550.866 861.551 548.377 866.183 544.324C868.577 542.229 869.108 541.093 869.108 538.048C869.108 530.518 862.004 526.498 856.239 531.879C853.462 534.471 850.055 535.318 847.092 537.623C844.612 539.552 841.306 542.409 837.998 542.409C829.824 542.409 827.947 533.229 827.947 526.88C827.947 518.102 828.853 513.755 837.519 509.65C842.709 507.191 844.406 499.309 838.476 496.674C832.672 494.094 828.04 500.066 823.16 501.46C819.361 502.546 815.264 504.448 811.248 504.066C806.82 503.644 805.239 499.553 802.154 497.046C795.825 491.904 796.211 484.764 800.612 477.848C805.089 470.813 789.346 472.119 786.359 474.019C782.916 476.21 778.393 491.452 772.479 482.581C768.53 476.657 762.238 486.773 758.067 486.889C755.304 486.965 751.944 487.463 749.452 486.144C747.51 485.116 746.35 481.784 744.666 480.188C742.634 478.263 739.015 480.277 736.795 481.145C731.176 483.344 723.181 483.432 718.288 487.101Z" fill="#39393E"/>
<path d="M460.352 648.18C449.007 640.762 451.453 647.398 451.453 652.334C443.338 652.334 448.431 660.24 448.431 667.066C448.431 678.306 450.651 682.002 459.06 690.549C470.598 702.276 482.948 713.392 493.745 725.809C502.212 735.546 520.791 748.703 533.744 752.235C548.788 756.338 563.798 756.185 579.273 756.185C601.968 756.185 624.728 757.478 647.494 757.478L648.752 757.478C673.347 757.48 697.082 757.481 721.102 751.015C739.225 746.135 757.076 744.328 774.673 737.442C800.216 727.447 811.208 701.603 832.267 685.809C838.184 681.371 834.814 664.728 831.046 668.287C824.428 674.537 818.288 681.394 811.656 687.676C805.566 693.446 802.508 690.937 795.571 692.919C787.826 695.131 778.013 701.991 773.596 708.933C770.081 714.457 765.74 715.276 760.957 719.705C756.126 724.178 747.607 730.082 740.85 730.333C734.195 730.579 728.881 728.289 723.83 723.87C720.803 721.22 710.363 716.461 707.242 721.284C700.74 731.332 690.031 735.403 679.091 739.381C669.993 742.69 669.743 737.07 664.298 731.625C656.277 723.604 645.059 729.041 637.441 734.211C629.567 739.554 619.25 746.376 610.08 738.735C605.843 735.204 601.028 732.074 597.729 727.676C593.031 721.412 587.376 720.32 579.991 722.29C572.95 724.167 569.186 720.268 562.972 718.196C557.112 716.243 550.759 716.136 544.875 714.175C537.347 711.666 530.728 708.645 524.983 702.901C521.179 699.097 515.55 700.525 512.057 697.73C508.217 694.658 499.804 693.67 494.894 690.908C489.255 687.736 482.194 684.147 479.454 677.982C475.062 668.1 469.265 654.008 460.352 648.18Z" fill="#A1A2A6"/>
<path d="M415.698 580.934C416.157 581.622 416.927 582.039 417.755 582.047C418.582 582.054 419.36 581.652 419.832 580.973C424.25 574.611 424.393 567.176 424.519 560.652C424.529 560.138 424.539 559.628 424.551 559.126C424.719 551.971 425.239 545.912 429.982 541.034C431.676 539.291 433.105 537.352 434.419 535.57L434.558 535.382C435.946 533.499 437.222 531.789 438.71 530.301C440.599 528.412 442.695 526.672 444.89 524.876C445.061 524.736 445.234 524.596 445.406 524.454C447.415 522.814 449.5 521.11 451.427 519.28C454.221 516.625 458.154 514.723 461.812 514.723C463.82 514.723 465.332 513.8 466.418 512.89C466.955 512.439 467.436 511.952 467.841 511.531C467.946 511.421 468.046 511.317 468.14 511.218C468.433 510.911 468.68 510.653 468.939 510.405C469.966 509.423 471.081 508.679 472.391 507.806C472.728 507.581 473.077 507.348 473.441 507.1C475.135 505.948 477.021 504.541 478.517 502.392C479.111 501.538 479.646 500.601 480.134 499.723C480.245 499.523 480.353 499.327 480.46 499.134C480.841 498.444 481.201 497.791 481.589 497.149C482.593 495.485 483.53 494.342 484.607 493.726C486.482 492.655 488.985 491.848 491.795 491.108C492.747 490.857 493.758 490.608 494.778 490.358C496.602 489.91 498.452 489.456 500.027 488.971C501.378 488.555 502.714 488.162 504.036 487.773C512.099 485.399 519.645 483.178 526.941 476.955C528.238 475.849 529.51 474.559 530.735 473.295C530.922 473.102 531.108 472.91 531.293 472.718C532.347 471.628 533.377 470.562 534.448 469.552C536.993 467.15 539.421 465.41 542.006 464.848C545.78 464.028 549.475 463.025 553.106 462.039C554.153 461.755 555.195 461.473 556.232 461.196C559.775 460.251 563.234 458.749 566.485 457.337C567.458 456.914 568.412 456.5 569.344 456.111C573.522 454.367 577.463 453.029 581.622 452.952C584.432 452.899 587.228 453.209 590.191 453.563C590.375 453.585 590.559 453.607 590.744 453.629C593.495 453.96 596.402 454.309 599.364 454.34C602.699 454.375 605.953 454.008 609.036 453.654L609.187 453.637C612.261 453.285 615.165 452.952 618.091 452.952C618.724 452.952 619.374 452.958 620.037 452.965C623.682 453.002 627.724 453.042 631.638 452.023C632.554 451.785 633.374 451.548 634.138 451.328C636.281 450.71 637.98 450.221 640.085 450.175C643.148 450.109 646.096 449.974 649.012 449.842C652.998 449.66 656.926 449.482 661.007 449.482C662.793 449.482 664.378 449.982 666.344 450.658C666.445 450.693 666.547 450.728 666.65 450.764C668.477 451.395 670.667 452.151 673.207 452.293C678.786 452.603 684.402 452.697 689.962 452.79C690.914 452.806 691.864 452.822 692.812 452.839C699.324 452.956 705.758 453.123 712.112 453.675C712.275 453.689 712.377 453.712 712.437 453.73C712.46 453.799 712.496 453.937 712.519 454.18C712.564 454.668 712.533 455.277 712.468 456.095C712.461 456.191 712.453 456.291 712.444 456.394C712.388 457.079 712.319 457.914 712.336 458.681C712.391 461.235 713.282 463.292 714.896 464.776C716.428 466.186 718.387 466.871 720.229 467.224C722.088 467.581 724.067 467.644 725.85 467.63C726.727 467.624 727.588 467.598 728.379 467.575L728.436 467.573C729.255 467.548 729.987 467.527 730.644 467.527C734.609 467.527 738.552 467.352 742.433 467.179L742.468 467.178C746.379 467.004 750.229 466.833 754.088 466.833C758.232 466.833 761.9 467.473 765.495 469.207C765.882 469.393 766.223 469.597 766.588 469.828C766.666 469.878 766.753 469.934 766.846 469.993C767.139 470.182 767.493 470.41 767.829 470.602C768.869 471.197 770.081 471.67 771.793 471.691C774.442 471.725 777.577 472.706 781.09 474.01C781.758 474.258 782.444 474.519 783.14 474.785C785.907 475.84 788.832 476.955 791.467 477.533C792.703 477.804 793.891 477.995 795 478.165C795.182 478.193 795.361 478.22 795.538 478.247C796.457 478.387 797.309 478.516 798.153 478.677C800.127 479.053 801.88 479.569 803.607 480.605C804.673 481.245 804.961 481.607 805.35 482.095C805.378 482.13 805.406 482.166 805.435 482.203C806.118 483.054 806.925 483.964 808.968 485.208C810.53 486.159 812.555 486.919 814.542 487.596C815.39 487.884 816.221 488.155 817.047 488.424C818.284 488.826 819.51 489.225 820.765 489.676C822.807 490.411 824.603 491.176 825.988 492.049C827.389 492.932 828.116 493.767 828.408 494.531L830.743 493.638L828.408 494.531C831.295 502.082 835.498 506.255 842.328 510.221L842.328 510.221L842.567 510.36L843.822 508.198L842.568 510.36C845.115 511.838 846.18 512.506 846.804 513.318C847.289 513.95 847.676 514.931 847.676 517.621C847.676 521.447 848.722 523.945 850.724 525.969C851.632 526.886 852.684 527.653 853.702 528.365C853.938 528.53 854.174 528.693 854.411 528.857C855.236 529.428 856.073 530.007 856.978 530.706C858.045 531.529 858.607 532.816 859.352 534.963C859.397 535.093 859.443 535.226 859.49 535.363C860.136 537.247 861.002 539.772 862.945 541.715C863.524 542.293 864.074 542.809 864.515 543.224C864.713 543.409 864.889 543.575 865.036 543.716C865.566 544.225 865.815 544.509 865.971 544.752C866.196 545.101 866.447 545.669 866.416 548.05C866.404 548.99 866.149 550.65 865.802 552.919C865.698 553.594 865.587 554.321 865.471 555.1C864.991 558.323 864.486 562.168 864.455 565.73C864.424 569.162 864.813 572.912 866.611 575.529C867.575 576.933 868.949 578.017 870.771 578.487C872.535 578.943 874.487 578.765 876.564 578.116C882.597 576.23 885.324 571.258 886.05 566.141C886.765 561.106 885.64 555.584 883.705 551.519C880.492 544.772 878.174 537.516 876.188 530.157C874.505 523.921 872.501 518.295 866.562 513.648C862.894 510.776 859.65 507.457 856.428 503.942C855.512 502.942 854.591 501.92 853.661 500.887C851.363 498.335 849.012 495.724 846.546 493.258C841.809 488.522 836.152 484.112 830.75 480.331C820.92 473.45 810.699 467.281 798.604 465.788C789.012 464.604 780.776 463.164 773.325 457.576C772.057 456.624 770.606 456.16 769.276 455.899C767.991 455.645 766.632 455.549 765.454 455.466L765.364 455.46C764.098 455.37 763.028 455.29 762.075 455.1C761.134 454.912 760.504 454.65 760.074 454.323L758.561 456.313L760.074 454.323C758.969 453.483 757.704 452.725 756.577 452.05C756.363 451.921 756.153 451.795 755.95 451.673C754.603 450.857 753.493 450.134 752.645 449.331C752.56 449.25 752.469 449.163 752.377 449.074C752.152 448.859 751.919 448.635 751.732 448.471C751.411 448.19 750.99 447.865 750.411 447.633C749.861 447.412 749.332 447.342 748.901 447.304C748.561 447.274 748.141 447.256 747.683 447.236C747.582 447.231 747.48 447.227 747.377 447.222C744.558 447.094 741.766 446.593 738.849 445.989C738.216 445.858 737.572 445.721 736.92 445.582C734.631 445.094 732.245 444.586 729.847 444.238C728.004 443.97 726.148 443.768 724.351 443.572C723.589 443.489 722.836 443.407 722.101 443.321C719.587 443.03 717.165 442.69 714.756 442.12C714.139 441.974 713.483 441.794 712.795 441.606C710.603 441.007 708.079 440.317 705.427 440.317C704.511 440.317 703.612 440.323 702.722 440.328C700.976 440.339 699.265 440.35 697.53 440.318C696.33 440.296 695.141 440.009 693.718 439.598C693.51 439.538 693.293 439.474 693.07 439.408C691.858 439.05 690.443 438.632 688.98 438.416C686.072 437.987 683.08 437.952 680.208 438.014C679.03 438.04 677.903 438.08 676.802 438.119C675.127 438.178 673.514 438.235 671.881 438.235C666.016 438.235 660.368 437.993 654.552 437.4C650.152 436.951 645.724 436.12 641.166 435.265C640.204 435.085 639.235 434.903 638.26 434.723C632.73 433.706 627.032 432.773 621.331 432.683C619.898 432.66 618.484 432.571 616.972 432.476C615.76 432.4 614.486 432.32 613.088 432.267C610.168 432.155 607.027 432.19 604.205 432.867C602.29 433.327 600.677 434.484 599.453 435.431C599.093 435.71 598.765 435.97 598.46 436.213C597.59 436.903 596.904 437.449 596.171 437.856C593.466 439.359 590.41 440.482 587.248 441.646C586.094 442.07 584.925 442.5 583.755 442.955C575.82 446.041 567.144 446.564 558.325 446.564C557.104 446.564 555.847 446.548 554.571 446.531C551.646 446.493 548.617 446.454 545.665 446.606C542.417 446.772 539.628 447.996 537.212 449.504C535.244 450.732 533.393 452.24 531.728 453.595C531.388 453.872 531.055 454.143 530.731 454.403C528.112 456.51 525.529 458.668 522.965 460.81C521.891 461.707 520.82 462.602 519.751 463.489C519.288 463.873 518.862 464.272 518.491 464.622C518.454 464.657 518.418 464.691 518.383 464.724C518.042 465.046 517.749 465.322 517.449 465.582C516.801 466.143 516.278 466.479 515.724 466.657C511.173 468.12 506.145 469.031 501.13 469.94C500.014 470.142 498.899 470.344 497.79 470.552C496.842 470.729 495.867 470.881 494.876 471.035C489.475 471.876 483.606 472.789 479.207 478.362C474.296 484.582 469.4 489.918 463.487 495.069C462.867 495.608 462.253 496.144 461.643 496.677C457.056 500.68 452.684 504.496 447.872 508.198C446.806 509.018 445.845 509.803 444.92 510.559C443.29 511.89 441.773 513.129 439.999 514.301C439.666 514.521 439.324 514.724 438.927 514.96L438.87 514.993C438.469 515.232 438.004 515.509 437.55 515.82C436.621 516.456 435.609 517.318 434.872 518.644C432.765 522.437 430.082 525.829 427.219 529.326C426.927 529.682 426.634 530.039 426.338 530.398C423.775 533.518 421.102 536.771 418.831 540.34C417.22 542.872 416.983 546.171 417.01 548.936C417.024 550.376 417.117 551.825 417.2 553.133C417.286 554.474 417.361 555.639 417.361 556.643C417.361 557.398 417.139 558.889 416.754 561.025C416.627 561.728 416.485 562.49 416.337 563.285C416.061 564.767 415.762 566.369 415.499 567.933C415.092 570.349 414.739 572.844 414.644 574.99C414.596 576.062 414.609 577.119 414.734 578.073C414.853 578.984 415.103 580.04 415.698 580.934ZM712.507 453.759C712.506 453.76 712.499 453.757 712.487 453.748C712.501 453.754 712.507 453.759 712.507 453.759Z" fill="#D6DCE0" stroke="#D6DCE0" stroke-width="5" stroke-linecap="round" stroke-linejoin="round"/>
<path d="M417.352 568.033C420.052 565.037 424.553 573.426 417.352 593.799C411.592 610.098 417.752 608.979 421.552 606.383M429.053 610.877C441.053 622.861 425.753 648.627 437.153 649.825M437.153 649.825C447.759 650.94 448.498 639.867 458.937 647.728M437.153 649.825C449.633 653.66 460.554 654.619 462.954 654.619M461.454 649.825C474.354 661.51 461.754 677.689 475.854 682.782C488.046 687.186 491.715 676.806 499.855 678.177M461.454 649.825C466.254 650.724 477.294 652.941 483.054 654.619C488.814 656.297 492.254 664.706 493.254 668.7M461.454 649.825C460.555 649.011 459.719 648.317 458.937 647.728M526.855 698.96C519.955 682.782 515.455 686.377 504.055 679.786C502.512 678.894 501.129 678.391 499.855 678.177M542.456 710.645C554.156 701.357 559.856 695.066 573.056 698.96C586.257 702.855 592.257 722.629 603.957 722.929C613.317 723.168 620.258 718.235 622.558 715.738M657.659 710.645C669.059 715.738 672.059 722.929 681.059 722.929C690.059 722.929 692.759 704.054 700.86 702.855C708.96 701.657 718.26 698.062 726.66 702.855C735.06 707.649 747.361 715.439 753.061 713.042C758.761 710.645 757.861 690.272 763.861 688.474C769.861 686.677 779.461 681.583 787.862 681.883C791.714 682.02 796.638 683.796 801.362 685.274M815.162 686.077C820.563 681.883 813.662 666.903 820.262 663.907C823.707 662.343 826.58 658.576 829.563 655.587M815.162 686.077C812.238 688.349 806.94 687.018 801.362 685.274M815.162 686.077C801.362 694.467 792.062 699.56 789.962 709.447M862.864 653.421C866.764 651.623 860.163 633.347 862.864 628.853M862.864 653.421C860.19 654.653 853.148 654.196 846.663 653.208M862.864 653.421C845.197 657.615 847.263 658.993 840.963 667.292M862.864 628.853C865.024 625.258 867.364 620.764 868.264 618.966M862.864 628.853C856.363 630.451 842.883 635.025 840.963 640.538M879.964 610.877C888.364 610.877 891.064 610.278 887.464 602.188C883.864 594.099 881.764 590.803 882.664 586.01M884.464 571.629C891.064 571.629 891.364 568.633 887.464 560.843C884.344 554.611 881.164 549.058 879.964 547.061M876.664 576.123C856.563 588.406 851.763 592.901 850.863 610.877M874.264 590.803C862.504 595.118 858.763 598.992 858.363 600.391M801.362 685.274C800.362 681.147 799.382 671.996 803.462 668.401C807.542 664.806 814.962 659.712 818.162 657.615M633.358 707.949H639.358M543.656 701.357C537.656 688.474 526.255 681.062 499.855 678.177M458.937 647.728C459.354 636.044 461.454 628.553 457.854 622.861C454.974 618.307 443.453 612.974 438.053 610.877M450.353 606.383C451.253 599.592 452.213 584.931 448.853 580.617C445.493 576.302 434.253 569.232 429.053 566.236M429.053 585.71C431.653 588.906 437.753 595.357 441.353 595.597M417.352 558.146C423.953 548.259 424.553 545.863 429.053 538.672C433.553 531.482 438.953 522.194 443.153 518.299C447.353 514.404 451.853 510.21 456.654 505.116C461.454 500.023 470.154 492.234 478.554 487.739M443.153 531.182C446.453 533.579 453.533 539.092 455.454 541.968M432.953 548.559C437.753 550.656 447.653 556.169 448.853 561.442M464.454 541.968C468.254 544.664 475.914 551.675 476.154 558.146C476.394 564.618 478.254 543.666 479.154 532.38M498.055 544.365C498.855 538.472 499.615 524.531 496.255 515.902C500.255 518.399 508.255 526.149 508.255 537.174M539.456 492.833C541.656 493.332 543.056 509.071 543.056 517.7M566.456 515.902C554.756 502.72 549.356 500.622 556.856 486.541M591.357 479.051C596.757 491.035 592.857 506.015 589.857 510.21M514.255 506.914C510.955 521.595 509.155 528.186 514.255 535.077M617.158 501.222C610.257 487.739 609.357 476.055 617.158 472.759C658.859 466.468 650.458 482.047 648.358 501.222M610.857 467.666C605.157 472.759 602.157 472.46 602.157 475.755M588.957 446.094C576.657 444.896 573.956 449.39 566.456 449.69C558.956 449.989 549.056 450.289 546.056 454.184C543.056 458.079 533.455 462.573 527.455 461.974M551.456 463.172C553.756 466.268 558.536 473.119 559.256 475.755M472.854 641.436C468.054 624.958 464.454 608.78 486.354 588.407C508.255 568.033 539.756 549.757 586.557 537.174C623.998 527.107 672.959 529.784 692.759 532.38M461.454 608.48C470.154 586.01 489.054 565.037 511.255 555.15C533.455 545.264 551.456 531.182 595.557 525.49M657.659 518.299C685.739 518.299 708.16 521.695 715.86 523.392M673.859 501.222C666.359 483.245 667.259 470.962 684.059 470.962C700.86 470.962 705.36 479.051 700.86 490.136C697.259 499.005 696.559 503.818 696.659 505.116M613.857 512.906C616.357 512.007 630.058 510.21 664.859 510.21M607.257 442.799C612.957 439.803 615.957 439.803 620.458 441.301C624.958 442.799 627.058 438.904 635.458 438.604C643.858 438.305 652.558 441.301 657.659 441.301C662.759 441.301 672.059 436.208 679.259 437.106C686.459 438.005 691.259 441.301 696.659 441.301C702.06 441.301 708.66 440.102 714.96 441.301C721.26 442.499 725.16 446.095 730.86 446.095C736.56 446.095 746.761 445.495 752.161 447.593C757.561 449.69 761.161 453.585 766.561 453.585C771.961 453.585 774.061 452.686 777.661 457.18C781.262 461.674 788.462 464.071 795.962 464.97C803.462 465.869 807.962 467.666 811.562 470.962C815.162 474.257 822.663 479.351 826.863 481.148C831.063 482.946 840.363 488.039 840.963 491.634C841.563 495.23 854.763 500.323 859.863 507.513C864.964 514.704 866.464 519.498 870.964 522.494C875.464 525.49 876.664 529.684 876.664 533.879M865.564 527.887C846.963 543.166 849.963 538.972 846.663 547.061C843.363 555.151 841.563 559.045 841.563 571.629M840.963 606.682C836.163 583.613 827.463 573.127 810.962 559.045C797.762 547.78 766.261 536.975 752.161 532.98M766.261 556.649C776.061 561.442 797.522 573.007 804.962 580.917M831.963 620.464C835.263 640.538 832.863 649.364 829.563 655.587M829.563 655.587C832.295 652.849 835.121 650.764 838.563 651.623C840.828 652.188 843.687 652.754 846.663 653.208M846.663 653.208C845.343 657.697 843.38 662.464 840.963 667.292M443.453 659.712C447.453 668.233 463.014 690.108 493.254 709.447C531.055 733.62 569.456 749.294 598.557 752.889C627.658 756.485 683.459 760.979 722.46 750.493C761.461 740.006 794.462 721.731 808.862 709.447C819.928 700.007 832.943 683.314 840.963 667.292M526.855 709.447C530.455 714.48 535.355 715.738 537.356 715.738C544.656 716.038 560.216 719.154 564.056 729.221M592.857 727.423C598.557 735.812 603.957 732.516 603.957 744.5M689.759 725.326C683.759 736.411 676.559 736.112 675.959 744.5M753.061 719.334C741.661 727.423 736.56 730.119 732.96 737.31M831.963 501.222C828.863 501.521 822.663 506.795 822.663 511.109M800.762 485.942C797.462 491.634 796.262 501.222 802.562 501.222M768.661 462.872C762.361 476.055 757.561 479.351 753.661 479.351M727.86 501.222C724.56 488.938 721.86 482.646 730.86 474.857C738.06 468.625 736.66 458.079 735.06 453.585M730.86 515.603C736.96 516.701 751.441 519.797 760.561 523.392M780.062 523.392C775.861 501.222 778.561 497.327 785.762 491.634" stroke="black" stroke-width="10" stroke-linecap="round" stroke-linejoin="round"/>
</g>
<defs>
<clipPath id="clip0">
<rect width="1309" height="1297" fill="white"/>
</clipPath>
</defs>
</svg>
