<svg width="2025" height="3391" viewBox="0 0 2025 3391" fill="none" xmlns="http://www.w3.org/2000/svg">
<path opacity="0.2" d="M353.786 1887.83C418.341 1959.3 344.904 1957.36 444.486 1974.94C470.536 2027.04 516.941 2076.48 578.291 2087.64C615.984 2094.49 648.647 2118.29 686.951 2120.42C733.218 2122.99 779.727 2136.58 828.838 2136.58C1001.61 2136.58 1182.81 2071.3 1342.06 2010.41C1469.54 1961.67 1556.31 1862.72 1624.48 1750.43C1642.47 1720.8 1648.42 1677.58 1656.81 1644.02C1667.77 1600.19 1685.18 1554.87 1702.16 1513.36C1715.23 1481.41 1772.81 1401.01 1743.92 1362.49C1707.2 1313.53 1686.81 1244.87 1674.77 1184.68C1661.47 1118.18 1661.29 1047.7 1644.69 981.279C1629.85 921.934 1620.98 866.917 1612.36 806.614C1591.42 660.004 1563.54 537.727 1474.96 415.078C1417.84 335.979 1367.18 293.845 1270.66 293.845C1210.75 293.845 1161.42 376.554 1147.64 431.691C1136.62 475.76 1107.22 514.372 1107.22 560.557C1107.22 619.688 1080.44 666.65 1060.53 720.405C1049.78 749.411 1022.04 781.918 1005.75 807.512C977.589 851.763 954.547 914.391 917.293 951.645C869.834 999.104 802.51 1020.83 750.711 1064.35C714.763 1094.54 680.287 1127.95 638.458 1150.56C576.188 1184.22 515.043 1209.74 449.425 1235.42C409.175 1251.17 396.67 1278.35 379.829 1316.24C366.793 1345.57 366.992 1376.44 343.908 1400.21C288.056 1457.7 256.481 1522.8 258.596 1603.16C259.814 1649.45 274.802 1696.66 291.823 1739.21C311.088 1787.37 318.327 1848.57 353.786 1887.83Z" fill="#48567F"/>
<path d="M845.963 1036.98C854.855 1045.85 861.684 1057.27 870.801 1066.6C882.156 1070.37 891.267 1095.83 896.626 1104.89C904.711 1118.56 919.755 1121.19 934.288 1125.21C948.283 1129.07 963.05 1127.8 977.419 1127.8C999.974 1127.8 1022.95 1125.58 1045.48 1124.22C1066.52 1122.95 1091.43 1124.37 1111.3 1116.44C1129.53 1109.16 1144.29 1097 1161.33 1087.89C1169.36 1083.6 1178.49 1078.29 1182.32 1069.46C1191.56 1048.09 1175.18 1029.52 1179.45 1008.26C1182.47 993.18 1192 983.256 1192 966.916C1192 954.887 1190.27 945.561 1184.83 934.704C1180.21 925.493 1167.49 922.076 1159.36 916.45C1150.95 910.628 1142.94 904.496 1135.51 897.48C1122.03 884.754 1099.57 876.802 1082.78 869.294C1060.66 859.4 1036.98 859.27 1013.47 856.409C988.417 853.36 967.921 848.464 943.434 855.961C936.552 858.068 922.826 861.851 917.43 867.236C908.11 876.536 899.817 886.959 890.529 896.227C887.427 899.322 879.145 902.823 874.926 903.833C864.844 906.248 852.642 912.558 845.245 919.939C840.374 924.8 843.362 939.837 843.362 945.799V961.905C843.362 977.249 840.556 991.863 840.134 1007C839.888 1015.84 839.28 1030.31 845.963 1036.98Z" fill="white"/>
<path d="M1454.26 2939C1024.73 2939 898.831 2889.72 743.899 2852.54C588.966 2815.36 604.917 2712.45 564.823 2677.6C563.676 2676.6 790.837 2782.15 814.075 2778.65C913.545 2763.69 1021.13 2745.22 1116.92 2709.02C1236.92 2663.68 1350.8 2732.97 1442.24 2640.23C1520.28 2561.09 1595.33 2476.21 1655.07 2383.42C1678.35 2347.26 1769.8 2262.34 1821.55 2307.89C1885.11 2363.84 1964 2437.19 1964 2523.58C1964 2637.42 1893.9 2704.81 1840.43 2796.33C1762.27 2930.09 1596.16 2939 1454.26 2939Z" fill="#777772"/>
<path d="M1296.84 1254.47C1291.55 1254.1 1268.15 1253.12 1271.69 1247.84C1224.46 1204.89 1061.74 1139.6 788.704 1222C795.167 1228.82 742.343 1239.05 732.783 1249.28C714.103 1269.27 677.818 1269.64 655.039 1285.61C632.043 1301.74 605.271 1303.78 579.417 1314.16C552.369 1325.03 513.174 1341.66 503.795 1371.41C496.844 1393.45 485.297 1408.98 472.122 1427.79C456.858 1449.57 454.542 1472.92 454.542 1498.73C454.542 1529.1 446.097 1565.96 462.12 1591.88C464.503 1595.73 472.016 1596.07 476.214 1597.07C482.587 1598.58 488.943 1604.13 493.49 1608.46C501.377 1615.96 499.953 1626.46 501.067 1636C505.315 1672.38 533.645 1689.2 551.381 1719.2C557.438 1729.44 563.26 1736.85 571.84 1745.01C574.261 1747.31 592.217 1764.87 589.419 1765.63C574.035 1769.81 556.557 1769.81 541.227 1774.13C518.534 1780.53 495.894 1800.15 475.001 1811.19C460.713 1818.74 461.312 1837.57 451.208 1848.25C445.46 1854.33 439.783 1860.93 435.447 1868.15C432.051 1873.8 421.337 1877.82 416.352 1882.57C405.969 1892.45 392.656 1908.04 378.162 1911.69C345.488 1919.92 320.23 1950.2 301.176 1976C289.834 1991.36 160.333 2234.76 171.907 2252.07C176.865 2259.48 177.424 2266.76 186.759 2269.37C196.667 2272.15 204.8 2279.62 211.915 2286.39C232.082 2305.57 244.166 2332.93 267.533 2349.4C277.059 2356.11 292.099 2367.42 304.662 2367.42C313.263 2367.42 328.798 2369.78 335.578 2375.21C344.313 2382.21 345.319 2399.42 350.581 2408.81C362.031 2429.23 389.985 2447.77 409.836 2459.99L412.649 2461.73C430.24 2472.56 447.815 2483.38 465.909 2493.45C474.943 2498.47 482.703 2506.04 493.49 2507C544.496 2511.52 752.582 2598.67 802.798 2589.92C878.007 2576.82 953.003 2579.5 1029.06 2577.24C1110.06 2574.83 1190.55 2560.96 1271.69 2559.5C1344.89 2558.19 1502.77 2414.46 1575.4 2404.34C1593.8 2401.77 1612.12 2402.47 1630.56 2400.59C1678.89 2395.65 1732.48 2383.89 1775.14 2360.79C1805.29 2344.46 1826.65 2309.91 1850 2286.39C1866.9 2269.36 1870.61 2252.84 1870.61 2230.3C1870.61 2195.24 1852.41 2163.68 1848.79 2129.22C1846.11 2103.79 1705.82 1905.16 1687.53 1887.76C1671.47 1872.47 1660.75 1850.26 1641.76 1838.44C1625.05 1828.05 1606.43 1813.91 1594.78 1798.21C1584.04 1783.73 1561.72 1775.09 1546.59 1765.2C1529.46 1753.99 1507.11 1740.95 1486.28 1737.8C1469.93 1735.33 1453.03 1729.44 1436.42 1729.44C1429.4 1729.44 1411.07 1733.12 1414.75 1725.25C1428.42 1695.98 1452.51 1686.91 1476.88 1667.14C1509.01 1641.08 1531.15 1608.09 1552.5 1573.71C1579.71 1529.9 1558.34 1474.35 1554.02 1427.07C1551.93 1404.23 1536.21 1391.09 1516.28 1379.63C1503.94 1372.52 1496.79 1362.85 1485.67 1354.54C1477.6 1348.51 1474.25 1339.16 1465.36 1333.77C1446.73 1322.49 1427.76 1312.79 1407.77 1303.78C1378.84 1290.74 1348.95 1284.46 1322.3 1266.15L1321.65 1265.7C1314.36 1260.69 1306.29 1255.13 1296.84 1254.47Z" fill="white"/>
<path d="M427.67 2511.83C394.665 2474.94 373.244 2451 327.502 2420.19C312.269 2389.73 280.91 2362.38 312.284 2323.17C320.874 2312.43 309.845 2284.76 312.284 2271.35C315.782 2252.11 343.174 2233.1 351.439 2214.92C364.413 2186.37 423.663 2196.48 445.426 2175.92C484.096 2139.4 579.621 2108.54 630.735 2108.54C713.694 2108.54 788.291 2147.69 868.455 2150.65C963.836 2154.19 1059.92 2167.5 1154.84 2167.5C1204.4 2167.5 1247.88 2178.51 1296.16 2183.88C1334.49 2188.14 1377.09 2210.84 1415.96 2199.32C1492.6 2176.61 1562.35 2161.94 1631.22 2209.62C1682.6 2245.19 1702.31 2309.08 1670.99 2365.44C1659.04 2386.96 1659.92 2423 1651.81 2447.33C1647.03 2461.66 1648.4 2535.4 1639.17 2541.86C1584.49 2580.13 1487.67 2523.49 1437.49 2573.68C1410.31 2600.86 1398.04 2628.74 1367.76 2652.29C1344.7 2670.23 1320.2 2650.67 1296.16 2637.32C1258.73 2616.52 1260.59 2614.65 1215.68 2622.81C1183.63 2628.64 1174.89 2671.2 1144.55 2672.88C1116.9 2674.42 1094.85 2668.66 1068.74 2664.93C1000.89 2655.24 948.263 2681.31 883.43 2681.31C810.599 2681.31 751.22 2647.61 677.063 2647.61C627.821 2647.61 624.68 2640.18 586.748 2613.92C553.945 2591.21 535.5 2570.15 495.965 2559.17C453.643 2547.42 454.813 2542.16 428.58 2512.85L427.67 2511.83Z" fill="#5E5F62"/>
<path d="M421.147 2217.87H351.508C351.508 2231.8 353.419 2244.88 353.419 2258.95V2286.44C353.419 2295.87 386.635 2290.07 392.803 2289.31C417.605 2286.25 440.426 2282.83 465.52 2282.83C510.937 2282.83 555.815 2273.28 601.294 2273.28C645.462 2273.28 688.091 2277.04 731.867 2282.83C776.674 2288.76 821.336 2287.76 866.155 2293.34C977.852 2307.26 1083.02 2349.04 1193.65 2368.07C1284.44 2383.7 1387.88 2389.57 1477.51 2363.08C1529.3 2347.78 1579.28 2322.31 1616.36 2283.04C1626.39 2272.43 1628.87 2266.45 1627.83 2251.94C1626.4 2231.99 1622.68 2212.08 1619.34 2192.39C1617.25 2180.09 1611.57 2168.26 1603.2 2158.84C1595.87 2150.6 1581.13 2150.82 1571.57 2145.15C1546.67 2130.4 1522.76 2111.1 1493.33 2107.04C1479.41 2105.12 1468.98 2097.09 1456.81 2091.12C1447.87 2086.73 1434.57 2093.99 1425.81 2095.58C1410.99 2098.26 1396.02 2097.49 1381.02 2097.49C1348.71 2097.49 1317.34 2102.91 1285.69 2108.95C1260.03 2113.85 1233.57 2122.6 1207.13 2119.99C1177.44 2117.06 1147.32 2121.02 1117.75 2117.23C1077.78 2112.11 1040.08 2093.03 1000.12 2090.27C975.905 2088.59 950.53 2091.52 927.089 2097.91C908.496 2102.98 888.549 2113.97 869.128 2114.69C851.628 2115.33 838.61 2122.66 822.419 2128.06C786.179 2140.14 753.214 2159.06 714.564 2164.79C697.875 2167.26 681.688 2172.75 665.095 2175.83C629.553 2182.42 593.793 2187.85 558.089 2193.45C540.649 2196.19 521.375 2198.05 504.373 2203C495.652 2205.55 489.367 2213.86 480.382 2216.59C462.979 2221.89 439.335 2217.87 421.147 2217.87Z" fill="#5E5F62"/>
<path d="M113.554 2262.37C144.004 2330.88 209.529 2344.09 278.387 2344.09C269.068 2372.04 228.01 2425.8 268.958 2425.8C284.905 2425.8 366.59 2415.5 372.329 2435.58C384.745 2479.04 325.554 2457.51 300.738 2473.3C267.224 2494.62 296.894 2517.1 319.247 2529.52C340.96 2541.58 404.108 2530.25 404.108 2501.23C404.108 2465.54 390.793 2429.08 374.075 2400.66C358.745 2374.6 322.39 2341.68 322.39 2311.26C322.39 2268.17 338.796 2234.9 341.248 2193.22C342.259 2176.04 375.07 2144.62 386.647 2131.76C414.407 2100.92 443.121 2073.31 479.54 2051.79C526.924 2023.79 581.053 1986.85 637.04 1979.85C714.861 1970.12 787.317 1939.29 865.433 1929.21C905.895 1923.99 944.37 1922.93 985.217 1922.93C1009.21 1922.93 1051.62 1923.63 1073.92 1913.5C1092.51 1905.05 1159.79 1889.44 1158.43 1866.35C1158.19 1862.16 1135.76 1836.98 1129.8 1835.27C1106.35 1828.57 1104.8 1807.48 1100.46 1786.73C1094.68 1759.14 1077.94 1698.5 1056.46 1679.17C1040.2 1664.54 959.715 1676.17 944.707 1690.35C926.063 1707.96 909.829 1734.35 881.846 1734.35C858.486 1734.35 820.877 1744.11 812.7 1715.49C806.082 1692.33 797.742 1671.49 773.587 1671.49C750.669 1671.49 724.083 1664.27 708.981 1684.41C693.673 1704.82 696.343 1731.69 685.583 1753.21C679.182 1766.01 657.19 1788.35 646.12 1797.21C634.515 1806.49 621.759 1828.64 605.261 1828.64C576.561 1828.64 575.969 1782.29 567.545 1763.33C561.679 1750.14 511.195 1761.49 501.542 1765.78C486.744 1772.36 492.112 1796.22 492.112 1809.78C492.112 1827.4 494.785 1922.51 466.968 1897.78C446.769 1879.83 368.215 1819.59 342.645 1842.61C331.395 1852.73 345.55 1879.13 350.677 1888.36C360.603 1906.22 360.106 1920.3 360.106 1940.39C360.106 1983.53 301.705 2013.7 281.181 1969.72C266.393 1938.03 258.485 1927.06 221.813 1929.21C214.529 1929.64 238.281 1970.98 240.671 1976.36C252.011 2001.87 242.66 2023.2 240.671 2050.04C238.989 2072.75 200.44 2057.63 187.589 2051.79C165.243 2041.63 158.511 2047.71 135.205 2048.65C116.797 2049.38 133.175 2084.4 137.301 2092.65C148.153 2114.35 176.257 2114.14 193.526 2127.57C208.063 2138.88 225.49 2157.49 232.988 2174.37C241.132 2192.69 231.771 2221.58 227.75 2239.67C226.221 2246.55 184.583 2210.4 177.811 2207.19C162.586 2199.98 121.896 2202.66 106.22 2206.14C94.5708 2208.73 110.379 2255.23 113.554 2262.37Z" fill="#777772"/>
<path d="M1259.03 1793.23C1228.86 1815.85 1239.01 1885.54 1239.01 1917.44C1261.77 1928.82 1318.02 1941.33 1343.61 1943.38C1378.64 1946.18 1407.93 1993.67 1437.38 2009.16C1461.51 2021.86 1488.03 2044.42 1515.01 2049.82C1527.49 2052.31 1547.41 2058.57 1555.05 2070.04C1574.15 2098.7 1643.25 2134.27 1630.64 2174.64C1623.01 2199.06 1626.09 2243.81 1639.83 2265.96C1658.46 2295.96 1654.86 2344.37 1648 2377.91C1645.29 2391.17 1625.16 2452.36 1654.54 2450.64C1668.68 2449.8 1685.69 2434.24 1698.67 2427.76C1715.31 2419.44 1815.74 2435.99 1808.78 2404.67C1804.05 2383.39 1815.61 2344.28 1783.25 2347.88C1764.75 2349.93 1730.38 2362.66 1739.12 2336.44C1746.8 2313.38 1760.46 2290.33 1775.89 2271.27C1794.97 2247.71 1816.36 2237.18 1840.45 2219.79C1848.43 2214.03 1871.5 2207.33 1871.5 2196.09C1871.5 2187.01 1868.63 2159.68 1855.98 2160.13C1834.73 2160.89 1811.99 2181.76 1795.1 2192.41C1776.13 2204.37 1779.57 2200.93 1779.57 2179.75C1779.57 2141.2 1772.67 2095.8 1788.97 2060.24C1799.08 2038.17 1809.38 2028.61 1827.17 2013.04C1836.37 2005 1838.41 2000.63 1838.41 1988.94C1838.41 1960.01 1811.11 1944.57 1788.97 1965.24C1778.3 1975.2 1765.21 1978.45 1753.83 1987.3C1744.3 1994.71 1731.6 2005.69 1718.89 2005.69C1687.5 2005.69 1680.28 1970.42 1680.28 1946.04C1680.28 1912.32 1683.76 1895.62 1717.06 1879.85C1736.99 1870.4 1743.51 1840.12 1720.73 1830C1698.44 1820.09 1680.64 1843.03 1661.9 1848.39C1647.3 1852.56 1631.56 1859.87 1616.13 1858.4C1599.12 1856.78 1593.05 1841.06 1581.2 1831.43C1556.89 1811.68 1558.37 1784.25 1575.28 1757.68C1592.47 1730.66 1532 1735.67 1520.53 1742.97C1507.3 1751.39 1489.92 1809.94 1467.2 1775.86C1452.03 1753.11 1427.86 1791.97 1411.84 1792.41C1401.22 1792.71 1388.32 1794.62 1378.75 1789.55C1371.28 1785.6 1366.83 1772.8 1360.36 1766.67C1352.55 1759.28 1338.65 1767.01 1330.12 1770.35C1308.54 1778.79 1277.82 1779.13 1259.03 1793.23Z" fill="#39393E"/>
<path d="M268.163 2412C224.582 2383.51 233.977 2409 233.977 2427.96C202.803 2427.96 222.369 2458.33 222.369 2484.56C222.369 2527.73 230.896 2541.93 263.197 2574.76C307.523 2619.81 354.965 2662.52 396.441 2710.21C428.968 2747.62 500.341 2798.16 550.099 2811.73C607.89 2827.49 665.552 2826.9 724.999 2826.9C812.181 2826.9 899.616 2831.87 987.072 2831.87L991.904 2831.87C1086.39 2831.88 1177.56 2831.88 1269.84 2807.04C1339.46 2788.3 1408.03 2781.35 1475.63 2754.9C1573.75 2716.51 1615.98 2617.23 1696.88 2556.56C1719.61 2539.51 1706.66 2475.57 1692.19 2489.25C1666.77 2513.26 1643.18 2539.6 1617.7 2563.73C1594.31 2585.89 1582.56 2576.25 1555.91 2583.87C1526.16 2592.37 1488.46 2618.72 1471.49 2645.38C1457.99 2666.61 1441.31 2669.75 1422.94 2686.76C1404.38 2703.95 1371.66 2726.63 1345.7 2727.59C1320.14 2728.54 1299.72 2719.74 1280.32 2702.76C1268.69 2692.59 1228.58 2674.31 1216.59 2692.83C1191.62 2731.43 1150.48 2747.07 1108.45 2762.35C1073.5 2775.06 1072.54 2753.47 1051.62 2732.56C1020.81 2701.75 977.716 2722.63 948.45 2742.49C918.202 2763.01 878.57 2789.22 843.345 2759.87C827.067 2746.3 808.57 2734.28 795.896 2717.38C777.849 2693.32 756.126 2689.13 727.757 2696.7C700.711 2703.91 686.251 2688.93 662.377 2680.97C639.869 2673.47 615.462 2673.06 592.858 2665.52C563.938 2655.88 538.511 2644.28 516.443 2622.21C501.83 2607.6 480.207 2613.09 466.787 2602.35C452.035 2590.55 419.717 2586.75 400.855 2576.14C379.192 2563.96 352.07 2550.17 341.544 2526.49C324.671 2488.53 302.403 2434.39 268.163 2412Z" fill="#A1A2A6"/>
<path d="M102.536 2149.74C102.995 2150.43 103.765 2150.84 104.592 2150.85C105.42 2150.86 106.198 2150.46 106.67 2149.78C122.36 2127.19 122.896 2100.74 123.412 2075.31C123.45 2073.45 123.488 2071.59 123.531 2069.74C124.176 2042.35 126.054 2016.38 146.402 1995.46C152.568 1989.11 157.803 1982.01 162.921 1975.07L163.356 1974.48C168.65 1967.3 173.851 1960.31 180.002 1954.15C187.541 1946.62 195.847 1939.73 204.268 1932.84C204.919 1932.31 205.57 1931.78 206.222 1931.24C213.976 1924.91 221.785 1918.53 228.985 1911.69C240.693 1900.57 257.474 1892.23 273.774 1892.23C279.15 1892.23 283.382 1889.8 286.903 1886.85C288.658 1885.38 290.285 1883.73 291.811 1882.15C292.169 1881.78 292.521 1881.41 292.867 1881.05C294.022 1879.84 295.118 1878.69 296.239 1877.61C300.679 1873.37 305.601 1870.09 310.703 1866.69C311.943 1865.87 313.193 1865.04 314.45 1864.18C320.79 1859.86 327.136 1855.06 332.113 1847.91C334.175 1844.95 336.081 1841.62 337.948 1838.26C338.351 1837.54 338.751 1836.81 339.151 1836.09C340.626 1833.41 342.097 1830.75 343.665 1828.15C347.663 1821.53 352.035 1815.81 357.816 1812.51C365.882 1807.9 376.278 1804.61 387.142 1801.75C391.072 1800.71 395.087 1799.73 399.055 1798.75C405.899 1797.07 412.602 1795.43 418.486 1793.62C423.811 1791.98 429.026 1790.44 434.144 1788.93C465.122 1779.79 492.562 1771.7 519.357 1748.84C524.051 1744.84 528.728 1740.11 533.438 1735.25C534.143 1734.52 534.849 1733.79 535.557 1733.06C539.6 1728.87 543.687 1724.65 547.929 1720.64C557.923 1711.21 568.43 1703.39 580.329 1700.8C594.632 1697.69 608.594 1693.9 622.514 1690.13C626.562 1689.03 630.607 1687.93 634.656 1686.85C647.703 1683.37 660.307 1677.9 672.709 1672.51C676.53 1670.85 680.332 1669.2 684.122 1667.62C700.34 1660.85 716.511 1655.26 733.894 1654.94C745.239 1654.73 756.431 1655.98 767.786 1657.34C768.466 1657.42 769.146 1657.5 769.827 1657.58C780.473 1658.86 791.279 1660.16 802.255 1660.27C814.559 1660.4 826.632 1659.05 838.525 1657.68L839.283 1657.6C850.964 1656.26 862.469 1654.94 874.121 1654.94C876.689 1654.94 879.275 1654.96 881.876 1654.99C895.903 1655.12 910.335 1655.26 924.373 1651.6C927.448 1650.8 930.35 1649.96 933.16 1649.15C941.69 1646.69 949.371 1644.47 958.458 1644.27C969.812 1644.03 981.045 1643.52 992.254 1643.01C1007.79 1642.31 1023.28 1641.61 1038.98 1641.61C1047.17 1641.61 1054.28 1643.93 1061.8 1646.51C1062.13 1646.63 1062.46 1646.75 1062.8 1646.86C1069.94 1649.32 1077.5 1651.93 1086.24 1652.42C1107.52 1653.6 1128.94 1653.96 1150.31 1654.32C1153.97 1654.38 1157.63 1654.44 1161.29 1654.51C1186.32 1654.96 1211.25 1655.6 1235.92 1657.74C1239.14 1658.03 1240.91 1659.07 1241.96 1660.32C1243.07 1661.64 1243.7 1663.54 1243.94 1666.1C1244.18 1668.66 1244 1671.57 1243.75 1674.68C1243.72 1675.08 1243.69 1675.49 1243.66 1675.89C1243.44 1678.56 1243.21 1681.35 1243.26 1683.9C1243.44 1692.02 1246.2 1698 1250.81 1702.24C1255.33 1706.4 1261.39 1708.66 1267.82 1709.89C1274.27 1711.13 1281.32 1711.38 1288.02 1711.33C1291.32 1711.3 1294.55 1711.21 1297.61 1711.11L1297.8 1711.11C1300.92 1711.02 1303.84 1710.93 1306.49 1710.93C1321.57 1710.93 1336.58 1710.26 1351.54 1709.6L1351.6 1709.59C1366.6 1708.93 1381.54 1708.26 1396.55 1708.26C1413.26 1708.26 1428.46 1710.86 1443.46 1718.09C1445.3 1718.98 1446.87 1719.92 1448.38 1720.87C1448.76 1721.12 1449.15 1721.37 1449.55 1721.62C1450.64 1722.32 1451.75 1723.04 1452.87 1723.68C1456.05 1725.5 1459.54 1726.86 1464.66 1726.93C1476.21 1727.07 1489.32 1731.29 1502.75 1736.28C1505.48 1737.29 1508.22 1738.33 1510.97 1739.38C1521.55 1743.41 1532.12 1747.44 1541.67 1749.53C1546.18 1750.52 1550.56 1751.23 1554.79 1751.88C1555.47 1751.98 1556.15 1752.08 1556.82 1752.19C1560.35 1752.72 1563.77 1753.24 1567.16 1753.89C1575.18 1755.41 1582.81 1757.61 1590.44 1762.18C1595.6 1765.28 1597.26 1767.36 1599.1 1769.65L1599.35 1769.97C1601.54 1772.69 1604.03 1775.6 1611.07 1779.89C1616.34 1783.09 1623.45 1785.8 1631.08 1788.4C1634.13 1789.44 1637.26 1790.46 1640.42 1791.49C1645.28 1793.07 1650.22 1794.68 1655.1 1796.43C1663.08 1799.31 1670.56 1802.45 1676.55 1806.23C1682.55 1810.01 1686.79 1814.26 1688.69 1819.23C1699.08 1846.41 1713.95 1861.3 1739.09 1875.9L1740.35 1873.73L1739.1 1875.9L1740.02 1876.43L1741.27 1874.27L1740.02 1876.43C1749.34 1881.84 1754.92 1885.13 1758.36 1889.61C1761.67 1893.92 1763.18 1899.63 1763.18 1910.47C1763.18 1923.6 1766.66 1931.3 1772.83 1937.54C1775.83 1940.57 1779.4 1943.2 1783.29 1945.92C1784.15 1946.52 1785.02 1947.12 1785.91 1947.73C1789.1 1949.94 1792.51 1952.3 1796.15 1955.11C1802.15 1959.74 1804.85 1966.73 1807.64 1974.76C1807.79 1975.19 1807.94 1975.63 1808.09 1976.07C1810.67 1983.53 1813.5 1991.74 1819.75 1998C1821.9 2000.15 1823.83 2001.96 1825.49 2003.52C1826.29 2004.26 1827.02 2004.95 1827.68 2005.59C1829.79 2007.61 1831.25 2009.17 1832.33 2010.84C1834.39 2014.05 1835.29 2018.06 1835.17 2027.45C1835.11 2031.6 1834.02 2038.72 1832.66 2047.61C1832.27 2050.1 1831.87 2052.74 1831.46 2055.49C1829.62 2067.84 1827.75 2082.19 1827.63 2095.34C1827.52 2108.36 1829.1 2120.8 1834.67 2128.9C1837.52 2133.05 1841.42 2136.07 1846.57 2137.4C1851.66 2138.72 1857.75 2138.32 1864.93 2136.07C1884.7 2129.9 1893.92 2113.72 1896.46 2095.86C1898.98 2078.08 1894.98 2058.27 1888.07 2043.74C1875.46 2017.26 1866.42 1988.92 1858.75 1960.48C1852.38 1936.88 1845.18 1917.18 1824.25 1900.8C1809.69 1889.4 1796.91 1876.31 1784.46 1862.72C1780.84 1858.78 1777.25 1854.79 1773.65 1850.79C1764.88 1841.04 1756.04 1831.23 1746.71 1821.9C1728.92 1804.11 1707.55 1787.44 1686.98 1773.04C1649.34 1746.69 1611.3 1723.91 1566.69 1718.4C1529.8 1713.85 1496.45 1708.18 1466.19 1685.49C1462.51 1682.72 1458.09 1681.23 1453.53 1680.33C1449.03 1679.45 1444.19 1679.1 1439.53 1678.78L1439.37 1678.76C1434.6 1678.43 1430.03 1678.1 1425.84 1677.26C1421.67 1676.43 1418.09 1675.12 1415.25 1672.96C1411.35 1670 1406.89 1667.33 1402.56 1664.73C1401.71 1664.22 1400.86 1663.71 1400.03 1663.21C1394.85 1660.07 1389.99 1656.95 1386.13 1653.29C1385.69 1652.88 1385.28 1652.48 1384.89 1652.11C1384.1 1651.35 1383.42 1650.69 1382.82 1650.17C1381.89 1649.35 1380.96 1648.68 1379.78 1648.2C1378.64 1647.74 1377.42 1647.55 1376.01 1647.42C1374.87 1647.32 1373.46 1647.26 1371.71 1647.18C1371.31 1647.17 1370.89 1647.15 1370.45 1647.13C1359.03 1646.61 1347.85 1644.59 1336.57 1642.25C1334.05 1641.73 1331.52 1641.19 1328.98 1640.65C1320.23 1638.78 1311.37 1636.9 1302.41 1635.6C1295.46 1634.59 1288.54 1633.83 1281.69 1633.09C1278.73 1632.76 1275.79 1632.44 1272.86 1632.1C1263.11 1630.97 1253.48 1629.63 1243.82 1627.34C1240.99 1626.67 1238.17 1625.9 1235.33 1625.13C1227.1 1622.89 1218.76 1620.61 1209.62 1620.61C1206.2 1620.61 1202.79 1620.63 1199.4 1620.65C1192.63 1620.7 1185.9 1620.74 1179.15 1620.61C1173.55 1620.51 1168.21 1619.17 1162.67 1617.57C1161.8 1617.32 1160.92 1617.06 1160.03 1616.8C1155.36 1615.42 1150.48 1613.98 1145.4 1613.23C1134.83 1611.67 1123.81 1611.53 1112.9 1611.76C1108.59 1611.86 1104.34 1612.01 1100.13 1612.15C1093.56 1612.39 1087.11 1612.61 1080.75 1612.61C1058.02 1612.61 1036.08 1611.68 1013.46 1609.37C996.236 1607.61 978.875 1604.35 961.359 1601.06C957.684 1600.38 954.002 1599.68 950.313 1599.01C929.105 1595.1 907.716 1591.62 886.455 1591.28C880.935 1591.2 875.118 1590.83 869.069 1590.46C864.385 1590.17 859.562 1589.87 854.629 1589.68C843.547 1589.26 832.289 1589.43 822.435 1591.8C816.686 1593.18 811.533 1596.75 806.868 1600.36C805.713 1601.25 804.591 1602.14 803.493 1603.01C799.998 1605.79 796.733 1608.39 793.364 1610.26C782.451 1616.32 769.945 1620.92 757.629 1625.45C753.3 1627.04 748.995 1628.63 744.791 1630.26C713.008 1642.62 678.557 1644.61 644.529 1644.61C639.639 1644.61 634.702 1644.54 629.739 1644.48C618.614 1644.34 607.365 1644.19 596.26 1644.76C585.401 1645.32 575.863 1649.41 567.182 1654.82C560.041 1659.28 553.345 1664.73 546.951 1669.93C545.614 1671.02 544.29 1672.1 542.978 1673.15C532.972 1681.2 523.131 1689.42 513.303 1697.63C509.163 1701.09 505.027 1704.55 500.881 1707.99C499.296 1709.3 497.805 1710.7 496.379 1712.04C496.236 1712.18 496.095 1712.31 495.954 1712.44C494.665 1713.66 493.428 1714.83 492.15 1715.93C489.331 1718.37 486.479 1720.35 483.049 1721.45C465.074 1727.23 445.188 1730.83 425.9 1734.32C421.659 1735.09 417.447 1735.85 413.29 1736.63C409.263 1737.39 405.261 1738.02 401.307 1738.65C380.602 1741.94 361.201 1745.02 346.17 1764.06C327.091 1788.22 307.985 1809.06 284.871 1829.19C282.498 1831.26 280.141 1833.31 277.796 1835.36C260.195 1850.72 243.226 1865.54 224.554 1879.9C220.819 1882.77 217.272 1885.67 213.769 1888.52C207.295 1893.81 200.972 1898.97 193.89 1903.64C192.466 1904.58 191.016 1905.44 189.531 1906.33L189.269 1906.48C187.712 1907.41 186.112 1908.36 184.584 1909.41C181.506 1911.52 178.587 1914.08 176.493 1917.85C168.055 1933.03 157.38 1946.5 146.377 1959.93C145.254 1961.3 144.128 1962.67 143 1964.05C133.117 1976.08 123.131 1988.23 114.653 2001.55C109.669 2009.39 108.665 2020.19 108.769 2030.69C108.821 2036 109.162 2041.38 109.485 2046.43L109.493 2046.55C109.815 2051.59 110.115 2056.27 110.115 2060.37C110.115 2064.03 109.119 2070.44 107.672 2078.46C107.17 2081.25 106.617 2084.22 106.043 2087.29C104.99 2092.94 103.867 2098.96 102.864 2104.92C101.312 2114.13 100.017 2123.37 99.6712 2131.16C99.4981 2135.06 99.5585 2138.67 99.9648 2141.77C100.365 2144.83 101.13 2147.63 102.536 2149.74Z" fill="#D6DCE0" stroke="#D6DCE0" stroke-width="5" stroke-linecap="round" stroke-linejoin="round"/>
<path d="M669.692 1694.26C657.994 1687.71 644.521 1686.42 643.768 1670.61C642.535 1668.15 631.365 1658.62 631.156 1654.85C630.95 1651.14 631.156 1647.35 631.156 1643.64C631.156 1629.34 640.615 1616.69 640.615 1602.04C640.615 1596.34 644.51 1581.82 648.497 1577.6C652.712 1573.14 658.428 1569.76 663.561 1566.48C673.022 1560.42 683.814 1550.87 694.565 1547.65C713.551 1541.95 725.42 1558.68 743.085 1558.68C760.915 1558.68 781.648 1556.63 797.735 1548.26C814.2 1539.7 826.471 1531.79 836.446 1516.47C863.371 1475.12 917.561 1476.71 961.512 1476.71C986.61 1476.71 1012 1476.16 1037.01 1478.63C1054.67 1480.38 1071.75 1484.85 1089.29 1486.95C1107.99 1489.2 1128.83 1491.34 1147.01 1496.33C1164.71 1501.18 1183.07 1511.8 1198.93 1520.97L1200.08 1521.64C1212.76 1528.97 1222.28 1534.82 1225.48 1549.22C1227.25 1557.19 1227.05 1565.84 1228.98 1573.57C1235.1 1598.03 1257.66 1615.8 1280.66 1624.54C1294.79 1629.92 1311.15 1631 1326.02 1633.13C1330.89 1633.82 1340.39 1632.57 1344.42 1636.02C1349.06 1640 1346.87 1653.22 1346.87 1658.88C1346.87 1666.78 1349.22 1677.02 1344.5 1683.31C1341.31 1687.56 1343.19 1692.91 1337.41 1694.61C1325.72 1698.05 1321.65 1705.07 1321.65 1716.33C1321.65 1729.98 1298.63 1728.94 1288.54 1728.94L1288.02 1728.94C1280.53 1728.94 1273.48 1728.94 1266.12 1730.17C1253.51 1732.27 1240.83 1728.45 1228.81 1734.46C1221.13 1738.3 1222.88 1747.9 1221.45 1755.04C1219.47 1764.94 1217.46 1777.95 1210.07 1785.34C1201.32 1794.09 1177.56 1780.41 1168.73 1776.23C1149.75 1767.27 1126.23 1769.93 1105.76 1769.93C1100.7 1769.93 1094.49 1768.86 1089.91 1771.15C1084.6 1773.81 1081.49 1783.93 1078.08 1788.67C1070.6 1799.08 1056.17 1805.31 1047.34 1793.23C1037.05 1779.14 1015.91 1774.29 999.697 1774.66C982.857 1775.04 966.223 1788.92 950.039 1792.87C938.73 1795.64 927.371 1799.31 915.795 1800.76C912.093 1801.22 899.902 1803.71 896.352 1801.11C886.894 1794.17 879.423 1785.15 870.515 1777.72C863.625 1771.98 853.376 1765.2 843.978 1765.2C836.541 1765.2 829.666 1768.18 822.258 1768.35C816.469 1768.49 813.556 1770.3 808.508 1771.42C802.978 1772.65 797.164 1767.42 792.305 1765.55C786.421 1763.29 777.113 1756.41 773.913 1750.92C770.338 1744.79 769.5 1737.18 763.579 1732.44C754.84 1725.45 747.895 1717.18 735.991 1716.42C722.981 1715.58 709.705 1716.33 696.667 1716.33C691.835 1716.33 687.177 1717.33 685.106 1711.95C681.775 1703.29 677.947 1698.88 669.692 1694.26Z" fill="#5E5F62"/>
<path d="M540.04 1565.32C555.956 1601.12 590.204 1608.03 626.194 1608.03C621.323 1622.64 599.863 1650.73 621.266 1650.73C629.601 1650.73 672.295 1645.35 675.294 1655.85C681.784 1678.56 650.847 1667.3 637.876 1675.56C620.359 1686.7 635.867 1698.45 647.55 1704.94C658.899 1711.25 691.904 1705.32 691.904 1690.16C691.904 1671.5 684.945 1652.45 676.207 1637.59C668.194 1623.97 649.192 1606.77 649.192 1590.87C649.192 1568.35 657.768 1550.96 659.049 1529.18C659.577 1520.2 676.727 1503.78 682.778 1497.06C697.287 1480.94 712.295 1466.51 731.33 1455.26C756.096 1440.63 784.388 1421.32 813.651 1417.66C854.325 1412.58 892.196 1396.47 933.025 1391.2C954.173 1388.47 974.283 1387.91 995.632 1387.91C1008.17 1387.91 1030.34 1388.28 1041.99 1382.99C1051.71 1378.57 1086.88 1370.41 1086.17 1358.35C1086.04 1356.16 1074.32 1342.99 1071.2 1342.1C1058.94 1338.6 1058.14 1327.58 1055.87 1316.73C1052.85 1302.31 1044.09 1270.62 1032.87 1260.52C1024.37 1252.87 982.303 1258.95 974.459 1266.36C964.714 1275.56 956.229 1289.36 941.604 1289.36C929.394 1289.36 909.737 1294.46 905.463 1279.5C902.004 1267.39 897.645 1256.5 885.02 1256.5C873.041 1256.5 859.146 1252.73 851.252 1263.26C843.251 1273.92 844.647 1287.96 839.022 1299.21C835.677 1305.9 824.182 1317.58 818.397 1322.21C812.331 1327.06 805.664 1338.63 797.041 1338.63C782.04 1338.63 781.731 1314.41 777.328 1304.5C774.262 1297.61 747.875 1303.54 742.83 1305.78C735.096 1309.22 737.901 1321.69 737.901 1328.78C737.901 1337.99 739.298 1387.69 724.759 1374.77C714.202 1365.39 673.144 1333.91 659.779 1345.94C653.899 1351.23 661.298 1365.02 663.977 1369.84C669.165 1379.18 668.906 1386.54 668.906 1397.04C668.906 1419.58 638.381 1435.36 627.654 1412.37C619.925 1395.81 615.792 1390.07 596.624 1391.2C592.817 1391.42 605.231 1413.03 606.481 1415.84C612.408 1429.17 607.52 1440.32 606.481 1454.35C605.602 1466.21 585.453 1458.31 578.736 1455.26C567.057 1449.95 563.538 1453.13 551.357 1453.62C541.735 1454 550.296 1472.3 552.452 1476.62C558.124 1487.96 572.813 1487.85 581.839 1494.87C589.437 1500.78 598.546 1510.51 602.465 1519.32C606.722 1528.9 601.829 1544 599.727 1553.45C598.928 1557.05 577.165 1538.16 573.626 1536.48C565.668 1532.71 544.401 1534.11 536.207 1535.93C530.119 1537.29 538.381 1561.59 540.04 1565.32Z" fill="#777772"/>
<path d="M1138.75 1320.13C1122.98 1331.95 1128.28 1368.37 1128.28 1385.04C1140.18 1390.99 1169.58 1397.53 1182.95 1398.6C1201.26 1400.07 1216.57 1424.88 1231.96 1432.98C1244.58 1439.62 1258.44 1451.41 1272.54 1454.23C1279.06 1455.54 1289.47 1458.81 1293.47 1464.8C1303.45 1479.78 1339.57 1498.37 1332.98 1519.47C1328.99 1532.23 1330.6 1555.62 1337.78 1567.19C1347.51 1582.87 1345.64 1608.17 1342.05 1625.7C1340.63 1632.64 1330.11 1664.62 1345.47 1663.71C1352.86 1663.28 1361.75 1655.15 1368.53 1651.75C1377.23 1647.41 1429.72 1656.06 1426.09 1639.69C1423.61 1628.57 1429.65 1608.13 1412.74 1610.01C1403.07 1611.08 1385.11 1617.74 1389.67 1604.03C1393.69 1591.98 1400.83 1579.93 1408.89 1569.97C1418.86 1557.65 1430.05 1552.16 1442.64 1543.06C1446.81 1540.05 1458.87 1536.55 1458.87 1530.68C1458.87 1525.93 1457.36 1511.65 1450.75 1511.89C1439.65 1512.28 1427.76 1523.19 1418.93 1528.76C1409.02 1535.01 1410.82 1533.21 1410.82 1522.14C1410.82 1501.99 1407.21 1478.26 1415.73 1459.68C1421.01 1448.15 1426.4 1443.15 1435.7 1435.01C1440.5 1430.81 1441.57 1428.53 1441.57 1422.41C1441.57 1407.3 1427.3 1399.22 1415.73 1410.03C1410.15 1415.23 1403.31 1416.93 1397.36 1421.56C1392.38 1425.43 1385.75 1431.17 1379.1 1431.17C1362.69 1431.17 1358.92 1412.74 1358.92 1399.99C1358.92 1382.37 1360.74 1373.64 1378.14 1365.4C1388.56 1360.46 1391.97 1344.64 1380.06 1339.35C1368.41 1334.17 1359.11 1346.16 1349.31 1348.96C1341.68 1351.13 1333.46 1354.95 1325.39 1354.19C1316.5 1353.34 1313.33 1345.13 1307.14 1340.09C1294.43 1329.77 1295.2 1315.44 1304.04 1301.55C1313.03 1287.43 1281.42 1290.05 1275.42 1293.86C1268.51 1298.26 1259.43 1328.86 1247.55 1311.05C1239.62 1299.16 1226.99 1319.47 1218.62 1319.7C1213.07 1319.85 1206.32 1320.85 1201.32 1318.21C1197.42 1316.14 1195.09 1309.45 1191.71 1306.25C1187.63 1302.38 1180.36 1306.43 1175.9 1308.17C1164.62 1312.58 1148.57 1312.76 1138.75 1320.13Z" fill="#39393E"/>
<path d="M620.85 1643.52C598.072 1628.63 602.982 1641.95 602.982 1651.86C586.689 1651.86 596.915 1667.74 596.915 1681.44C596.915 1704.01 601.372 1711.43 618.255 1728.59C641.422 1752.13 666.219 1774.45 687.897 1799.38C704.898 1818.93 742.202 1845.34 768.21 1852.43C798.415 1860.67 828.554 1860.36 859.624 1860.36C905.192 1860.36 950.891 1862.96 996.602 1862.96L999.127 1862.96C1048.51 1862.96 1096.17 1862.97 1144.39 1849.98C1180.78 1840.19 1216.62 1836.56 1251.96 1822.73C1303.24 1802.67 1325.31 1750.78 1367.6 1719.07C1379.48 1710.16 1372.71 1676.75 1365.14 1683.89C1351.86 1696.44 1339.53 1710.21 1326.21 1722.82C1313.99 1734.4 1307.85 1729.37 1293.92 1733.34C1278.37 1737.79 1258.66 1751.56 1249.79 1765.5C1242.74 1776.59 1234.02 1778.23 1224.42 1787.12C1214.72 1796.1 1197.61 1807.96 1184.05 1808.46C1170.68 1808.96 1160.01 1804.36 1149.87 1795.48C1143.79 1790.17 1122.83 1780.61 1116.57 1790.29C1103.51 1810.47 1082.01 1818.64 1060.04 1826.63C1041.78 1833.27 1041.27 1821.99 1030.34 1811.06C1014.24 1794.95 991.712 1805.87 976.416 1816.25C960.606 1826.97 939.892 1840.67 921.481 1825.33C912.973 1818.24 903.304 1811.96 896.68 1803.13C887.248 1790.55 875.894 1788.36 861.066 1792.31C846.93 1796.08 839.372 1788.25 826.894 1784.09C815.13 1780.17 802.373 1779.96 790.559 1776.02C775.443 1770.98 762.153 1764.92 750.619 1753.39C742.981 1745.75 731.679 1748.62 724.665 1743C716.955 1736.84 700.063 1734.85 690.204 1729.31C678.882 1722.94 664.706 1715.73 659.204 1703.36C650.386 1683.52 638.746 1655.22 620.85 1643.52Z" fill="#A1A2A6"/>
<path d="M533.288 1507.12C533.747 1507.8 534.517 1508.22 535.345 1508.23C536.172 1508.24 536.95 1507.83 537.422 1507.16C545.837 1495.04 546.121 1480.86 546.385 1467.64C546.405 1466.64 546.425 1465.65 546.448 1464.67C546.785 1450.34 547.787 1437.22 558.064 1426.65C561.345 1423.28 564.123 1419.51 566.786 1415.9L567.031 1415.56C569.804 1411.8 572.472 1408.22 575.614 1405.08C579.507 1401.19 583.805 1397.62 588.209 1394.02C588.55 1393.74 588.893 1393.46 589.235 1393.18C593.281 1389.87 597.397 1386.51 601.194 1382.91C607.15 1377.25 615.64 1373.06 623.782 1373.06C626.985 1373.06 629.461 1371.61 631.411 1369.97C632.38 1369.16 633.267 1368.26 634.069 1367.43C634.265 1367.23 634.453 1367.03 634.637 1366.84C635.236 1366.21 635.784 1365.63 636.349 1365.09C638.586 1362.95 641.051 1361.31 643.708 1359.54C644.365 1359.1 645.034 1358.66 645.714 1358.2C649.055 1355.92 652.523 1353.31 655.253 1349.39C656.368 1347.79 657.39 1346 658.367 1344.24C658.581 1343.86 658.793 1343.47 659.004 1343.09C659.773 1341.7 660.527 1340.33 661.333 1339C663.4 1335.58 665.555 1332.81 668.3 1331.24C672.371 1328.92 677.674 1327.23 683.34 1325.74C685.348 1325.21 687.425 1324.7 689.491 1324.19C693.096 1323.3 696.666 1322.43 699.769 1321.47C702.53 1320.62 705.242 1319.82 707.911 1319.04C724.102 1314.26 738.703 1309.96 752.915 1297.84C755.417 1295.71 757.896 1293.2 760.357 1290.66C760.728 1290.27 761.099 1289.89 761.469 1289.51C763.583 1287.32 765.698 1285.13 767.893 1283.06C773.081 1278.17 778.374 1274.27 784.263 1272.99C791.771 1271.36 799.108 1269.37 806.389 1267.39C808.5 1266.82 810.607 1266.25 812.712 1265.68C819.625 1263.84 826.328 1260.93 832.826 1258.11C834.809 1257.25 836.773 1256.4 838.718 1255.58C847.166 1252.06 855.445 1249.21 864.295 1249.05C870.132 1248.94 875.906 1249.58 881.846 1250.29C882.206 1250.34 882.566 1250.38 882.927 1250.42C888.478 1251.09 894.186 1251.77 899.991 1251.83C906.507 1251.9 912.889 1251.18 919.096 1250.47L919.464 1250.43C925.59 1249.73 931.544 1249.05 937.565 1249.05C938.884 1249.05 940.221 1249.06 941.571 1249.07C948.899 1249.14 956.626 1249.22 964.131 1247.26C965.81 1246.83 967.368 1246.38 968.859 1245.95C973.272 1244.67 977.091 1243.57 981.672 1243.47C987.675 1243.34 993.562 1243.08 999.42 1242.81C1007.5 1242.44 1015.53 1242.08 1023.73 1242.08C1027.79 1242.08 1031.34 1243.23 1035.27 1244.58C1035.45 1244.64 1035.64 1244.71 1035.83 1244.77C1039.54 1246.05 1043.63 1247.46 1048.37 1247.73C1059.52 1248.35 1070.74 1248.54 1081.9 1248.72C1083.82 1248.76 1085.73 1248.79 1087.64 1248.82C1100.72 1249.06 1113.71 1249.39 1126.56 1250.51C1128.02 1250.63 1128.61 1251.08 1128.91 1251.43C1129.27 1251.86 1129.56 1252.57 1129.67 1253.8C1129.78 1255.02 1129.7 1256.44 1129.57 1258.08C1129.56 1258.28 1129.54 1258.49 1129.52 1258.7C1129.41 1260.09 1129.28 1261.62 1129.31 1263.01C1129.41 1267.54 1130.97 1270.99 1133.64 1273.45C1136.23 1275.84 1139.65 1277.08 1143.12 1277.75C1146.6 1278.42 1150.38 1278.54 1153.91 1278.52C1155.64 1278.5 1157.35 1278.45 1158.94 1278.41L1159.04 1278.4C1160.68 1278.35 1162.19 1278.31 1163.55 1278.31C1171.46 1278.31 1179.33 1277.96 1187.14 1277.61L1187.18 1277.61C1195.03 1277.26 1202.81 1276.92 1210.63 1276.92C1219.22 1276.92 1226.98 1278.25 1234.62 1281.93C1235.53 1282.37 1236.3 1282.83 1237.07 1283.32C1237.26 1283.44 1237.45 1283.56 1237.65 1283.69C1238.23 1284.07 1238.85 1284.47 1239.47 1284.82C1241.27 1285.85 1243.28 1286.63 1246.21 1286.67C1252.01 1286.74 1258.68 1288.87 1265.72 1291.48C1267.12 1292 1268.53 1292.54 1269.95 1293.08C1275.49 1295.19 1281.13 1297.34 1286.22 1298.46C1288.61 1298.98 1290.93 1299.36 1293.15 1299.7C1293.51 1299.75 1293.87 1299.81 1294.22 1299.86C1296.06 1300.14 1297.83 1300.41 1299.57 1300.74C1303.69 1301.52 1307.53 1302.63 1311.35 1304.93C1313.87 1306.44 1314.64 1307.41 1315.54 1308.54L1315.69 1308.72C1316.9 1310.23 1318.31 1311.85 1322.13 1314.17C1325 1315.92 1328.83 1317.38 1332.82 1318.74C1334.45 1319.29 1336.1 1319.83 1337.75 1320.36C1340.27 1321.19 1342.82 1322.01 1345.35 1322.93C1349.51 1324.42 1353.32 1326.03 1356.33 1327.93C1359.37 1329.84 1361.34 1331.89 1362.2 1334.14C1367.75 1348.66 1375.74 1356.63 1389.06 1364.37L1390.32 1362.2L1389.06 1364.37L1389.54 1364.64L1390.8 1362.48L1389.54 1364.65C1394.49 1367.52 1397.16 1369.11 1398.78 1371.23C1400.27 1373.16 1401.06 1375.82 1401.06 1381.4C1401.06 1388.53 1402.96 1392.87 1406.45 1396.39C1408.09 1398.06 1410.04 1399.48 1412.08 1400.91C1412.53 1401.23 1413 1401.54 1413.46 1401.87C1415.13 1403.02 1416.88 1404.23 1418.75 1405.68C1421.57 1407.85 1422.89 1411.16 1424.36 1415.39C1424.44 1415.63 1424.53 1415.88 1424.61 1416.13C1425.94 1419.98 1427.5 1424.52 1430.98 1427.99C1432.11 1429.13 1433.15 1430.1 1434.02 1430.92C1434.43 1431.31 1434.81 1431.66 1435.14 1431.98C1436.22 1433.02 1436.91 1433.76 1437.39 1434.51C1438.26 1435.87 1438.75 1437.66 1438.68 1442.53C1438.66 1444.61 1438.1 1448.2 1437.39 1452.82C1437.19 1454.14 1436.98 1455.54 1436.76 1457.02C1435.8 1463.48 1434.81 1471.05 1434.74 1478.01C1434.68 1484.85 1435.5 1491.67 1438.63 1496.24C1440.26 1498.61 1442.53 1500.39 1445.54 1501.16C1448.48 1501.92 1451.9 1501.67 1455.79 1500.45C1466.69 1497.04 1471.72 1488.1 1473.09 1478.46C1474.45 1468.91 1472.3 1458.32 1468.6 1450.54C1462.05 1436.8 1457.35 1422.06 1453.35 1407.23C1450.01 1394.83 1446.16 1384.22 1434.9 1375.41C1427.37 1369.51 1420.75 1362.73 1414.25 1355.64C1412.38 1353.6 1410.51 1351.52 1408.63 1349.44C1404.04 1344.34 1399.39 1339.17 1394.48 1334.27C1385.12 1324.9 1373.89 1316.15 1363.11 1308.6C1343.41 1294.81 1323.33 1282.75 1299.7 1279.84C1280.42 1277.46 1263.28 1274.52 1247.74 1262.86C1245.61 1261.27 1243.11 1260.44 1240.63 1259.95C1238.21 1259.48 1235.62 1259.29 1233.21 1259.12L1233.09 1259.11C1230.58 1258.94 1228.27 1258.77 1226.17 1258.35C1224.08 1257.93 1222.4 1257.3 1221.12 1256.32C1219.02 1254.73 1216.63 1253.29 1214.36 1251.94C1213.92 1251.67 1213.49 1251.41 1213.06 1251.15C1210.35 1249.52 1207.91 1247.94 1206 1246.13C1205.79 1245.93 1205.58 1245.73 1205.39 1245.54C1204.96 1245.13 1204.57 1244.75 1204.23 1244.46C1203.7 1243.99 1203.09 1243.54 1202.3 1243.23C1201.54 1242.92 1200.77 1242.8 1199.99 1242.74C1199.37 1242.68 1198.6 1242.65 1197.68 1242.61C1197.47 1242.6 1197.26 1242.59 1197.04 1242.58C1191.17 1242.31 1185.4 1241.27 1179.52 1240.05C1178.21 1239.78 1176.9 1239.5 1175.58 1239.22C1171 1238.25 1166.31 1237.25 1161.59 1236.56C1157.94 1236.03 1154.28 1235.64 1150.7 1235.24C1149.15 1235.08 1147.62 1234.91 1146.11 1234.73C1141.03 1234.14 1136.05 1233.45 1131.07 1232.27C1129.67 1231.94 1128.25 1231.55 1126.8 1231.15C1122.46 1229.97 1117.87 1228.72 1112.92 1228.72C1111.12 1228.72 1109.33 1228.73 1107.55 1228.74C1104.02 1228.76 1100.53 1228.78 1097.02 1228.72C1094.26 1228.67 1091.6 1228.01 1088.71 1227.18C1088.27 1227.05 1087.82 1226.91 1087.36 1226.78C1084.92 1226.06 1082.28 1225.28 1079.53 1224.88C1073.9 1224.04 1068.06 1223.97 1062.34 1224.09C1060.05 1224.14 1057.82 1224.22 1055.61 1224.3C1052.2 1224.42 1048.87 1224.54 1045.57 1224.54C1033.72 1224.54 1022.29 1224.05 1010.52 1222.85C1001.57 1221.94 992.552 1220.24 983.398 1218.53C981.473 1218.17 979.542 1217.8 977.605 1217.45C966.514 1215.41 955.25 1213.57 944.031 1213.39C941.148 1213.35 938.174 1213.16 935.052 1212.97C932.609 1212.81 930.074 1212.66 927.423 1212.55C921.608 1212.33 915.589 1212.42 910.272 1213.69C906.997 1214.48 904.128 1216.49 901.684 1218.38C901.044 1218.88 900.435 1219.36 899.848 1219.83C898.043 1221.26 896.444 1222.53 894.777 1223.46C889.161 1226.58 882.754 1228.94 876.343 1231.29C874.062 1232.13 871.782 1232.97 869.536 1233.84C853.143 1240.22 835.325 1241.26 817.564 1241.26C815.042 1241.26 812.48 1241.23 809.896 1241.19C804.063 1241.12 798.118 1241.04 792.275 1241.34C786.327 1241.65 781.144 1243.89 776.506 1246.78C772.703 1249.15 769.134 1252.06 765.791 1254.78C765.097 1255.34 764.413 1255.9 763.739 1256.44C758.5 1260.66 753.343 1264.97 748.202 1269.26C746.041 1271.06 743.882 1272.87 741.722 1274.66C740.861 1275.37 740.057 1276.13 739.312 1276.83C739.238 1276.9 739.164 1276.97 739.091 1277.04C738.414 1277.68 737.787 1278.27 737.14 1278.83C735.722 1280.06 734.373 1280.97 732.799 1281.48C723.486 1284.47 713.189 1286.34 703.111 1288.16C700.887 1288.57 698.673 1288.97 696.483 1289.38C694.444 1289.76 692.396 1290.08 690.354 1290.4C679.52 1292.11 668.854 1293.8 660.685 1304.14C650.749 1316.73 640.813 1327.56 628.798 1338.02C627.557 1339.1 626.325 1340.18 625.099 1341.25C615.897 1349.28 607.057 1357 597.329 1364.48C595.317 1366.03 593.438 1367.56 591.598 1369.06C588.249 1371.8 585.029 1374.42 581.372 1376.84C580.652 1377.31 579.917 1377.75 579.134 1378.21L579.005 1378.29C578.193 1378.77 577.326 1379.29 576.491 1379.86C574.8 1381.02 573.111 1382.49 571.893 1384.68C567.54 1392.51 562.023 1399.48 556.273 1406.5C555.686 1407.21 555.097 1407.93 554.506 1408.65C549.347 1414.93 544.08 1421.34 539.608 1428.37L541.717 1429.71L539.608 1428.37C536.8 1432.78 536.291 1438.74 536.346 1444.25C536.373 1447.06 536.554 1449.9 536.723 1452.54L536.725 1452.57C536.895 1455.23 537.049 1457.64 537.049 1459.75C537.049 1461.53 536.553 1464.77 535.791 1468.99C535.532 1470.43 535.244 1471.98 534.944 1473.58C534.392 1476.54 533.802 1479.71 533.276 1482.83C532.463 1487.66 531.776 1492.54 531.592 1496.69C531.5 1498.77 531.529 1500.73 531.754 1502.44C531.973 1504.12 532.406 1505.79 533.288 1507.12Z" fill="#D6DCE0" stroke="#D6DCE0" stroke-width="5" stroke-linecap="round" stroke-linejoin="round"/>
<path d="M920.29 1033.76C915.402 1028.32 912.23 1024.78 905.457 1020.24C903.201 1015.74 898.557 1011.71 903.203 1005.92C904.475 1004.33 902.842 1000.25 903.203 998.269C903.721 995.429 907.777 992.624 909.001 989.94C910.923 985.727 919.696 987.219 922.919 984.185C928.645 978.794 942.791 974.239 950.36 974.239C962.644 974.239 973.69 980.017 985.561 980.455C999.685 980.977 1013.91 982.942 1027.97 982.942C1035.31 982.942 1041.75 984.567 1048.9 985.359C1054.57 985.988 1060.88 989.338 1066.64 987.638C1077.99 984.287 1088.31 982.12 1098.51 989.158C1106.12 994.408 1109.04 1003.84 1104.4 1012.16C1102.63 1015.33 1102.76 1020.65 1101.56 1024.24C1100.85 1026.36 1101.06 1037.24 1099.69 1038.2C1091.59 1043.84 1077.25 1035.49 1069.82 1042.89C1065.8 1046.9 1063.98 1051.02 1059.5 1054.5C1056.08 1057.14 1052.46 1054.26 1048.9 1052.29C1043.35 1049.22 1043.63 1048.94 1036.98 1050.14C1032.23 1051 1030.94 1057.29 1026.44 1057.53C1022.35 1057.76 1019.09 1056.91 1015.22 1056.36C1005.17 1054.93 997.379 1058.78 987.779 1058.78C976.994 1058.78 968.201 1053.8 957.22 1053.8C949.928 1053.8 949.463 1052.71 943.846 1048.83C938.988 1045.48 936.257 1042.37 930.403 1040.75C924.136 1039.02 924.309 1038.24 920.424 1033.91L920.29 1033.76Z" fill="#5E5F62"/>
<path d="M873.775 996.944C878.284 1007.06 887.987 1009.01 898.183 1009.01C896.803 1013.13 890.723 1021.07 896.787 1021.07C899.149 1021.07 911.244 1019.55 912.094 1022.51C913.933 1028.92 905.168 1025.75 901.493 1028.08C896.53 1031.22 900.924 1034.54 904.234 1036.37C907.449 1038.16 916.8 1036.48 916.8 1032.2C916.8 1026.93 914.828 1021.55 912.353 1017.36C910.083 1013.51 904.699 1008.65 904.699 1004.16C904.699 997.8 907.129 992.89 907.492 986.738C907.641 984.202 912.5 979.565 914.214 977.667C918.325 973.114 922.577 969.04 927.97 965.863C934.987 961.731 943.002 956.278 951.293 955.245C962.816 953.81 973.546 949.259 985.113 947.772C991.105 947.001 996.802 946.844 1002.85 946.844C1006.4 946.844 1012.68 946.948 1015.99 945.452C1018.74 944.205 1028.7 941.901 1028.5 938.494C1028.46 937.875 1025.14 934.158 1024.26 933.906C1020.79 932.918 1020.56 929.805 1019.92 926.742C1019.06 922.669 1016.58 913.72 1013.4 910.866C1010.99 908.707 999.074 910.424 996.852 912.516C994.091 915.115 991.687 919.01 987.544 919.01C984.085 919.01 978.515 920.451 977.305 916.227C976.325 912.808 975.089 909.732 971.513 909.732C968.119 909.732 964.182 908.667 961.946 911.64C959.679 914.652 960.074 918.617 958.481 921.794C957.533 923.683 954.277 926.981 952.637 928.288C950.919 929.658 949.03 932.927 946.587 932.927C942.337 932.927 942.249 926.086 941.002 923.288C940.133 921.341 932.658 923.016 931.228 923.649C929.037 924.62 929.832 928.143 929.832 930.144C929.832 932.744 930.228 946.782 926.108 943.133C923.117 940.483 911.485 931.592 907.699 934.989C906.033 936.483 908.129 940.379 908.888 941.741C910.358 944.378 910.284 946.456 910.284 949.421C910.284 955.788 901.636 960.242 898.597 953.751C896.407 949.074 895.236 947.453 889.806 947.772C888.727 947.835 892.244 953.936 892.598 954.73C894.278 958.496 892.893 961.643 892.598 965.606C892.349 968.957 886.641 966.726 884.738 965.863C881.429 964.364 880.432 965.262 876.981 965.399C874.255 965.508 876.68 970.676 877.291 971.894C878.898 975.097 883.06 975.066 885.617 977.048C887.77 978.717 890.35 981.465 891.461 983.955C892.667 986.66 891.28 990.923 890.685 993.594C890.459 994.609 884.293 989.274 883.29 988.8C881.035 987.736 875.01 988.131 872.689 988.646C870.964 989.028 873.305 995.89 873.775 996.944Z" fill="#777772"/>
<path d="M1043.4 927.7C1038.93 931.04 1040.43 941.325 1040.43 946.033C1043.8 947.713 1052.13 949.56 1055.92 949.862C1061.11 950.276 1065.45 957.284 1069.81 959.571C1073.38 961.446 1077.31 964.775 1081.3 965.572C1083.15 965.94 1086.1 966.864 1087.23 968.557C1090.06 972.786 1100.29 978.037 1098.43 983.995C1097.3 987.599 1097.75 994.205 1099.79 997.473C1102.54 1001.9 1102.01 1009.05 1101 1014C1100.59 1015.95 1097.61 1024.99 1101.96 1024.73C1104.06 1024.61 1106.58 1022.31 1108.5 1021.35C1110.96 1020.13 1125.84 1022.57 1124.8 1017.95C1124.1 1014.81 1125.82 1009.03 1121.02 1009.56C1118.29 1009.87 1113.19 1011.75 1114.49 1007.88C1115.63 1004.47 1117.65 1001.07 1119.93 998.257C1122.76 994.78 1125.93 993.227 1129.49 990.659C1130.68 989.809 1134.09 988.821 1134.09 987.161C1134.09 985.822 1133.67 981.788 1131.79 981.854C1128.65 981.966 1125.28 985.046 1122.78 986.618C1119.97 988.383 1120.48 987.875 1120.48 984.749C1120.48 979.06 1119.46 972.359 1121.87 967.11C1123.37 963.854 1124.89 962.442 1127.53 960.144C1128.89 958.957 1129.19 958.313 1129.19 956.586C1129.19 952.317 1125.15 950.038 1121.87 953.089C1120.29 954.558 1118.35 955.038 1116.67 956.345C1115.26 957.439 1113.38 959.059 1111.49 959.059C1106.84 959.059 1105.78 953.854 1105.78 950.254C1105.78 945.277 1106.29 942.812 1111.22 940.485C1114.17 939.091 1115.14 934.622 1111.77 933.128C1108.46 931.665 1105.83 935.051 1103.05 935.841C1100.89 936.457 1098.56 937.536 1096.28 937.319C1093.76 937.08 1092.86 934.76 1091.1 933.339C1087.5 930.423 1087.72 926.375 1090.23 922.454C1092.77 918.465 1083.82 919.205 1082.12 920.283C1080.16 921.525 1077.59 930.167 1074.22 925.137C1071.98 921.779 1068.4 927.514 1066.03 927.58C1064.45 927.623 1062.54 927.905 1061.12 927.157C1060.02 926.574 1059.36 924.685 1058.4 923.78C1057.25 922.689 1055.19 923.831 1053.92 924.323C1050.73 925.57 1046.18 925.62 1043.4 927.7Z" fill="#39393E"/>
<path d="M896.669 1019.03C890.216 1014.82 891.607 1018.59 891.607 1021.39C886.991 1021.39 889.888 1025.87 889.888 1029.74C889.888 1036.11 891.15 1038.21 895.934 1043.05C902.497 1049.7 909.523 1056 915.664 1063.04C920.481 1068.57 931.05 1076.02 938.418 1078.03C946.976 1080.35 955.514 1080.27 964.317 1080.27C977.227 1080.27 990.175 1081 1003.13 1081L1003.84 1081C1017.83 1081 1031.33 1081 1045 1077.34C1055.31 1074.57 1065.46 1073.54 1075.47 1069.64C1090 1063.97 1096.25 1049.32 1108.23 1040.37C1111.6 1037.85 1109.68 1028.41 1107.54 1030.43C1103.77 1033.97 1100.28 1037.86 1096.51 1041.42C1093.04 1044.7 1091.31 1043.27 1087.36 1044.4C1082.95 1045.65 1077.37 1049.54 1074.86 1053.48C1072.86 1056.61 1070.39 1057.07 1067.67 1059.58C1064.92 1062.12 1060.07 1065.47 1056.23 1065.61C1052.45 1065.75 1049.42 1064.45 1046.55 1061.94C1044.83 1060.44 1038.89 1057.74 1037.11 1060.48C1033.41 1066.18 1027.32 1068.48 1021.1 1070.74C1015.92 1072.62 1015.78 1069.43 1012.68 1066.34C1008.12 1061.79 1001.74 1064.88 997.406 1067.81C992.927 1070.84 987.058 1074.71 981.842 1070.37C979.432 1068.37 976.693 1066.6 974.816 1064.1C972.143 1060.55 968.927 1059.93 964.726 1061.05C960.721 1062.11 958.58 1059.9 955.044 1058.73C951.711 1057.62 948.097 1057.56 944.75 1056.45C940.467 1055.03 936.702 1053.31 933.434 1050.06C931.27 1047.9 928.069 1048.71 926.081 1047.12C923.897 1045.38 919.111 1044.82 916.318 1043.26C913.11 1041.46 909.094 1039.42 907.535 1035.93C905.037 1030.32 901.739 1022.33 896.669 1019.03Z" fill="#A1A2A6"/>
<path d="M870.375 981.506C870.834 982.192 871.603 982.608 872.429 982.616C873.255 982.623 874.032 982.223 874.504 981.545C877.215 977.654 877.298 973.112 877.365 969.459C877.37 969.153 877.376 968.855 877.383 968.563C877.479 964.493 877.792 961.469 880.165 959.037C881.181 957.995 882.033 956.842 882.772 955.843C882.802 955.802 882.833 955.761 882.863 955.72C883.658 954.645 884.339 953.74 885.119 952.963C886.151 951.934 887.304 950.978 888.554 949.959C888.653 949.879 888.752 949.798 888.852 949.716C889.989 948.791 891.206 947.8 892.333 946.733C893.774 945.369 895.759 944.444 897.502 944.444C898.996 944.444 900.094 943.753 900.811 943.154C901.163 942.86 901.47 942.548 901.705 942.305C901.773 942.234 901.835 942.17 901.891 942.111C902.051 941.944 902.169 941.821 902.297 941.698C902.808 941.212 903.347 940.853 904.076 940.368C904.275 940.236 904.489 940.093 904.72 939.937C905.708 939.266 906.918 938.379 907.886 936.992C908.258 936.459 908.586 935.886 908.865 935.385C908.931 935.266 908.995 935.15 909.057 935.039C909.272 934.651 909.464 934.304 909.672 933.96C910.222 933.053 910.637 932.605 911 932.398C911.935 931.866 913.242 931.436 914.83 931.019C915.331 930.888 915.886 930.752 916.457 930.612C917.518 930.352 918.633 930.078 919.555 929.796C920.303 929.566 921.05 929.347 921.796 929.129C926.381 927.787 930.909 926.461 935.247 922.774C936.028 922.11 936.783 921.344 937.479 920.629C937.588 920.517 937.695 920.407 937.801 920.297C938.401 919.679 938.968 919.094 939.557 918.54C940.971 917.21 942.174 916.396 943.347 916.141C945.523 915.67 947.661 915.092 949.731 914.532C950.322 914.372 950.908 914.213 951.488 914.059C953.589 913.5 955.661 912.603 957.521 911.797C958.061 911.564 958.583 911.337 959.083 911.129C961.435 910.152 963.521 909.46 965.676 909.42C967.191 909.392 968.713 909.558 970.403 909.76C970.511 909.773 970.619 909.786 970.728 909.799C972.283 909.985 973.991 910.189 975.737 910.208C977.711 910.228 979.626 910.011 981.372 909.812L981.427 909.806C983.199 909.603 984.798 909.421 986.401 909.421C986.741 909.421 987.097 909.425 987.466 909.428C989.533 909.451 991.999 909.477 994.377 908.86C994.973 908.705 995.478 908.56 995.929 908.431C997.088 908.098 997.886 907.869 998.936 907.846C1000.74 907.807 1002.43 907.73 1004.09 907.654C1006.32 907.552 1008.5 907.453 1010.81 907.453C1011.63 907.453 1012.38 907.677 1013.5 908.062C1013.56 908.083 1013.63 908.106 1013.69 908.128C1014.72 908.483 1016.1 908.957 1017.69 909.045C1020.89 909.222 1024.11 909.276 1027.27 909.329C1027.81 909.338 1028.35 909.347 1028.89 909.357C1032.33 909.418 1035.7 909.504 1039.03 909.764C1039.03 909.845 1039.02 909.935 1039.01 910.034C1039.01 910.083 1039.01 910.136 1039 910.193C1038.97 910.575 1038.92 911.113 1038.93 911.61C1038.97 913.317 1039.58 914.777 1040.74 915.842C1041.82 916.831 1043.16 917.275 1044.3 917.494C1045.46 917.716 1046.67 917.751 1047.71 917.743C1048.22 917.739 1048.72 917.724 1049.17 917.711L1049.2 917.71C1049.67 917.696 1050.07 917.685 1050.43 917.685C1052.71 917.685 1054.97 917.584 1057.17 917.487L1057.2 917.485C1059.43 917.387 1061.6 917.291 1063.76 917.291C1066 917.291 1067.92 917.634 1069.79 918.531C1069.95 918.611 1070.11 918.701 1070.3 918.823C1070.33 918.844 1070.37 918.87 1070.42 918.9C1070.59 919.008 1070.83 919.162 1071.05 919.287C1071.76 919.694 1072.63 920.031 1073.82 920.046C1075.12 920.062 1076.74 920.551 1078.75 921.293C1079.11 921.426 1079.48 921.568 1079.87 921.714C1081.45 922.315 1083.21 922.987 1084.8 923.333C1085.54 923.494 1086.24 923.607 1086.87 923.704C1086.98 923.72 1087.08 923.736 1087.19 923.751C1087.71 923.831 1088.17 923.901 1088.63 923.988C1089.69 924.188 1090.55 924.45 1091.38 924.947L1092.66 922.802L1091.38 924.947C1091.68 925.129 1091.81 925.239 1091.87 925.29C1091.93 925.349 1091.96 925.389 1092.13 925.603C1092.31 925.822 1092.57 926.14 1092.97 926.498C1093.36 926.848 1093.82 927.189 1094.42 927.554C1095.42 928.16 1096.68 928.623 1097.81 929.006C1098.32 929.18 1098.8 929.337 1099.27 929.489C1099.96 929.712 1100.62 929.927 1101.33 930.18C1102.47 930.589 1103.4 930.991 1104.09 931.424C1104.8 931.866 1104.99 932.181 1105.03 932.302C1106.78 936.863 1109.37 939.403 1113.42 941.747L1113.42 941.747L1113.56 941.826L1113.56 941.826C1114.26 942.234 1114.73 942.508 1115.1 942.761C1115.45 943.003 1115.59 943.146 1115.65 943.227L1115.65 943.23C1115.71 943.306 1115.92 943.578 1115.92 945.005C1115.92 947.415 1116.6 949.122 1117.97 950.502C1118.56 951.097 1119.23 951.58 1119.81 951.985C1119.96 952.085 1120.1 952.181 1120.23 952.276C1120.7 952.597 1121.15 952.906 1121.64 953.283C1121.95 953.527 1122.19 953.945 1122.63 955.194C1122.65 955.271 1122.68 955.351 1122.71 955.436C1123.07 956.483 1123.64 958.146 1124.93 959.434C1125.27 959.774 1125.61 960.094 1125.87 960.333C1125.97 960.432 1126.06 960.517 1126.13 960.584C1126.42 960.857 1126.48 960.948 1126.5 960.975C1126.51 960.984 1126.52 961.017 1126.53 961.085C1126.56 961.268 1126.59 961.602 1126.58 962.243C1126.58 962.693 1126.45 963.521 1126.26 964.771C1126.2 965.169 1126.13 965.609 1126.06 966.094C1125.78 967.926 1125.49 970.17 1125.47 972.272C1125.45 974.243 1125.66 976.672 1126.89 978.454C1127.57 979.44 1128.56 980.225 1129.87 980.563C1131.13 980.887 1132.45 980.744 1133.75 980.338C1137.7 979.109 1139.44 975.846 1139.9 972.668C1140.34 969.574 1139.65 966.227 1138.47 963.756C1136.68 960.016 1135.38 955.974 1134.26 951.828C1133.29 948.237 1132.07 944.756 1128.41 941.897C1126.39 940.325 1124.59 938.495 1122.77 936.514C1122.26 935.963 1121.75 935.392 1121.22 934.811C1119.91 933.357 1118.54 931.842 1117.12 930.423C1114.36 927.676 1111.09 925.136 1107.99 922.972C1102.38 919.058 1096.38 915.423 1089.22 914.542C1083.77 913.871 1079.34 913.074 1075.35 910.091C1074.45 909.417 1073.45 909.111 1072.61 908.946C1071.81 908.79 1070.98 908.731 1070.32 908.685L1070.25 908.68C1069.52 908.629 1068.98 908.587 1068.52 908.494C1068.06 908.404 1067.88 908.3 1067.82 908.252C1067.14 907.735 1066.36 907.269 1065.72 906.888C1065.6 906.817 1065.48 906.749 1065.38 906.685C1064.61 906.223 1064.07 905.864 1063.68 905.497C1063.65 905.464 1063.6 905.423 1063.56 905.379C1063.42 905.251 1063.26 905.091 1063.13 904.98C1062.9 904.782 1062.56 904.512 1062.07 904.317C1061.61 904.133 1061.19 904.082 1060.91 904.057C1060.69 904.038 1060.42 904.026 1060.16 904.015C1060.1 904.013 1060.05 904.01 1059.99 904.008C1058.48 903.939 1056.96 903.67 1055.31 903.33C1054.96 903.258 1054.61 903.182 1054.24 903.105C1052.93 902.827 1051.53 902.529 1050.13 902.326C1048.91 902.149 1047.81 902.032 1046.77 901.92C1045 901.73 1043.4 901.558 1041.64 901.143C1041.35 901.075 1041.02 900.985 1040.66 900.887C1039.4 900.543 1037.75 900.092 1036.08 900.092C1035.55 900.092 1035.03 900.095 1034.52 900.098C1033.53 900.104 1032.58 900.11 1031.61 900.092C1031.08 900.083 1030.52 899.956 1029.72 899.726C1029.61 899.695 1029.49 899.661 1029.37 899.625C1028.69 899.423 1027.8 899.16 1026.88 899.025C1025.14 898.769 1023.37 898.751 1021.71 898.786C1021.01 898.802 1020.36 898.825 1019.73 898.847C1018.8 898.88 1017.92 898.911 1017 898.911C1013.69 898.911 1010.52 898.776 1007.25 898.443C1004.8 898.194 1002.33 897.733 999.739 897.248C999.188 897.145 998.631 897.041 998.068 896.938C994.917 896.36 991.6 895.816 988.261 895.764C987.448 895.751 986.698 895.703 985.873 895.651C985.191 895.607 984.458 895.561 983.596 895.528C981.914 895.464 980.007 895.478 978.252 895.897L978.834 898.329L978.252 895.897C976.92 896.216 975.845 897.004 975.142 897.545C974.895 897.736 974.686 897.901 974.503 898.046C974.045 898.409 973.746 898.646 973.411 898.831C971.951 899.64 970.326 900.235 968.557 900.884C967.885 901.13 967.193 901.384 966.481 901.66C962.163 903.334 957.397 903.634 952.403 903.634C951.737 903.634 951.039 903.625 950.323 903.616C948.644 903.594 946.861 903.571 945.147 903.659C943.055 903.766 941.291 904.551 939.825 905.463C938.642 906.199 937.525 907.106 936.579 907.874C936.39 908.027 936.208 908.175 936.034 908.315C934.536 909.516 933.054 910.75 931.592 911.967C930.983 912.474 930.377 912.979 929.775 913.477L931.368 915.403L929.775 913.477C929.482 913.719 929.217 913.966 929.006 914.165L928.948 914.22C928.75 914.407 928.601 914.547 928.449 914.678C928.13 914.953 927.96 915.039 927.842 915.078C925.327 915.883 922.553 916.384 919.703 916.899C919.062 917.015 918.417 917.132 917.77 917.253C917.287 917.343 916.77 917.421 916.231 917.503C913.165 917.969 909.342 918.549 906.553 922.071C903.793 925.556 901.053 928.531 897.749 931.399C897.396 931.705 897.046 932.01 896.699 932.312C894.088 934.584 891.627 936.724 888.918 938.801C888.255 939.31 887.687 939.773 887.155 940.206C886.263 940.934 885.472 941.579 884.502 942.217C884.335 942.327 884.16 942.43 883.925 942.569L883.904 942.582C883.678 942.716 883.385 942.889 883.094 943.088C882.491 943.499 881.768 944.102 881.236 945.056C880.089 947.113 878.62 948.97 876.991 950.952C876.826 951.153 876.659 951.356 876.491 951.56C875.037 953.323 873.474 955.219 872.144 957.302C871.043 959.027 870.922 961.184 870.938 962.77C870.946 963.619 871.001 964.468 871.048 965.203L871.048 965.209C871.098 965.98 871.137 966.602 871.137 967.129C871.137 967.44 871.034 968.181 870.809 969.421C870.74 969.806 870.66 970.231 870.576 970.679C870.418 971.526 870.244 972.455 870.093 973.35C869.86 974.73 869.65 976.198 869.593 977.483C869.564 978.126 869.57 978.794 869.652 979.422C869.729 980.006 869.901 980.797 870.375 981.506ZM1039.03 909.074C1039.03 909.074 1039.04 909.078 1039.04 909.087C1039.04 909.079 1039.03 909.074 1039.03 909.074ZM874.641 978.938C874.641 978.938 874.64 978.936 874.639 978.932C874.64 978.936 874.641 978.938 874.641 978.938Z" fill="#D6DCE0" stroke="#D6DCE0" stroke-width="5" stroke-linecap="round" stroke-linejoin="round"/>
<path d="M872.337 973.683C873.872 971.984 876.43 976.743 872.337 988.301C869.063 997.547 872.564 996.913 874.725 995.44M878.988 997.989C885.809 1004.79 877.112 1019.41 883.592 1020.09M883.592 1020.09C889.621 1020.72 890.041 1014.44 895.975 1018.9M883.592 1020.09C890.686 1022.26 896.894 1022.8 898.258 1022.8M897.405 1020.09C904.738 1026.71 897.576 1035.89 905.591 1038.78C912.521 1041.28 914.606 1035.39 919.233 1036.17M897.405 1020.09C900.134 1020.6 906.409 1021.85 909.683 1022.8C912.958 1023.76 914.913 1028.53 915.481 1030.79M897.405 1020.09C896.894 1019.62 896.419 1019.23 895.975 1018.9M934.581 1047.96C930.659 1038.78 928.101 1040.82 921.621 1037.08C920.744 1036.58 919.957 1036.29 919.233 1036.17M943.448 1054.59C950.099 1049.32 953.339 1045.75 960.843 1047.96C968.346 1050.17 971.757 1061.39 978.407 1061.56C983.728 1061.69 987.673 1058.9 988.98 1057.48M1008.93 1054.59C1015.41 1057.48 1017.12 1061.56 1022.23 1061.56C1027.35 1061.56 1028.88 1050.85 1033.49 1050.17C1038.09 1049.49 1043.38 1047.45 1048.15 1050.17C1052.93 1052.89 1059.92 1057.31 1063.16 1055.95C1066.4 1054.59 1065.89 1043.03 1069.3 1042.01C1072.71 1040.99 1078.17 1038.1 1082.94 1038.27C1085.13 1038.35 1087.93 1039.36 1090.62 1040.2M1125.58 1022.13C1127.79 1021.11 1124.04 1010.74 1125.58 1008.19M1125.58 1022.13C1124.06 1022.82 1120.05 1022.56 1116.37 1022M1125.58 1022.13C1115.53 1024.5 1116.71 1025.29 1113.13 1029.99M1125.58 1008.19C1126.8 1006.15 1128.13 1003.6 1128.64 1002.58M1125.58 1008.19C1121.88 1009.09 1114.22 1011.69 1113.13 1014.82M1135.3 997.989C1140.07 997.989 1141.6 997.649 1139.56 993.06C1137.51 988.471 1136.32 986.601 1136.83 983.882M1137.85 975.723C1141.6 975.723 1141.78 974.023 1139.56 969.604C1137.79 966.069 1135.98 962.919 1135.3 961.785M1133.42 978.273C1121.99 985.241 1119.27 987.791 1118.75 997.989M1132.06 986.601C1125.37 989.049 1123.24 991.247 1123.02 992.04M1090.62 1040.2C1093.79 1041.19 1096.8 1041.94 1098.46 1040.65C1101.53 1038.27 1097.61 1029.77 1101.36 1028.07C1103.32 1027.19 1104.95 1025.05 1106.65 1023.35M1090.62 1040.2C1090.05 1037.85 1089.49 1032.66 1091.81 1030.62C1094.13 1028.58 1098.35 1025.69 1100.17 1024.5M995.119 1053.06H998.53M944.131 1049.32C940.72 1042.01 934.24 1037.81 919.233 1036.17M895.975 1018.9C896.212 1012.27 897.405 1008.02 895.359 1004.79C893.722 1002.2 880.07 996.629 877 995.44M891.096 995.44C891.607 991.587 892.153 983.27 890.243 980.822C888.333 978.375 886.548 977.2 883.592 975.5M881 985.241C882.478 987.054 888.197 990.864 890.243 991M872.337 968.074C876.089 962.465 876.43 961.105 878.988 957.026C881.546 952.947 884.615 947.678 887.003 945.468C889.39 943.259 891.948 940.879 894.677 937.989C897.405 935.1 902.351 930.681 907.125 928.131M887.003 952.777C888.879 954.137 892.903 957.264 893.995 958.896M885.5 964.5C888.228 965.69 889.561 966.952 890.243 969.944M899.111 958.896C901.271 960.426 905.625 964.403 905.761 968.074M917.187 944.108C919.097 949.004 918.665 956.913 918.21 960.256M957.091 944.108C950.44 936.63 947.371 935.44 951.634 927.451M971.245 923.202C974.315 930.001 972.098 938.499 970.392 940.879M927.419 939.009C925.543 947.338 924.52 951.077 927.419 954.987M985.911 935.78C981.988 928.131 981.477 921.502 985.911 919.633C1009.61 916.063 1004.84 924.902 1003.65 935.78M969.881 904.505C962.889 903.825 961.354 906.375 957.091 906.545C952.828 906.715 947.2 906.885 945.495 909.094C943.79 911.304 938.333 913.854 934.922 913.514M948.564 914.194C949.872 915.95 952.589 919.837 952.998 921.332M903.885 1015.33C901.157 1005.98 899.111 996.799 911.559 985.241C924.008 973.683 941.914 963.315 968.516 956.176C989.799 950.465 1017.63 951.984 1028.88 953.457M897.405 996.629C902.351 983.882 913.094 971.984 925.713 966.375C938.333 960.766 948.564 952.777 973.632 949.547M1008.93 945.468C1024.89 945.468 1037.64 947.395 1042.02 948.358M1018.14 935.78C1013.88 925.582 1014.39 918.613 1023.94 918.613C1033.49 918.613 1036.05 923.202 1033.49 929.491C1031.44 934.522 1031.04 937.253 1031.1 937.989M980.283 902.636C983.523 900.936 985.228 900.936 987.786 901.786C990.344 902.636 991.538 900.426 996.313 900.256C1001.09 900.086 1006.03 901.786 1008.93 901.786C1011.83 901.786 1017.12 898.896 1021.21 899.406C1025.3 899.916 1028.03 901.786 1031.1 901.786C1034.17 901.786 1037.92 901.106 1041.5 901.786C1045.08 902.466 1047.3 904.505 1050.54 904.505C1053.78 904.505 1059.58 904.165 1062.65 905.355C1065.72 906.545 1067.77 908.755 1070.83 908.755C1073.9 908.755 1075.1 908.245 1077.14 910.794C1079.19 913.344 1083.28 914.704 1087.55 915.213C1091.81 915.723 1094.37 916.743 1096.41 918.613C1098.46 920.483 1102.72 923.372 1105.11 924.392C1107.5 925.412 1112.79 928.301 1113.13 930.341C1113.47 932.38 1120.97 935.27 1123.87 939.349C1126.77 943.429 1127.62 946.148 1130.18 947.848C1132.74 949.548 1133.42 951.927 1133.42 954.307M1127.11 950.907C1116.54 959.576 1118.24 957.196 1116.37 961.785C1114.49 966.375 1113.47 968.584 1113.47 975.723M1113.13 995.61C1110.4 982.522 1105.45 976.573 1096.07 968.584C1088.57 962.193 1070.66 956.063 1062.65 953.797M1070.66 967.225C1076.23 969.944 1088.43 976.505 1092.66 980.992M1108.01 1003.43C1109.89 1014.82 1108.52 1019.82 1106.65 1023.35M1106.65 1023.35C1108.2 1021.8 1109.81 1020.62 1111.76 1021.11C1113.05 1021.43 1114.67 1021.75 1116.37 1022M1116.37 1022C1115.62 1024.55 1114.5 1027.26 1113.13 1029.99M915.481 1053.91C936.968 1067.62 958.796 1076.52 975.338 1078.56C991.879 1080.6 1023.6 1083.14 1045.77 1077.2C1067.94 1071.25 1086.69 1060.88 1094.88 1053.91C1101.17 1048.55 1108.57 1039.08 1113.13 1029.99M934.581 1053.91C936.627 1056.77 939.413 1057.48 940.549 1057.48C944.699 1057.65 953.544 1059.42 955.727 1065.13M972.098 1064.11C975.338 1068.87 978.407 1067 978.407 1073.8M1027.18 1062.92C1023.77 1069.21 1019.68 1069.04 1019.33 1073.8M1063.16 1059.52C1056.68 1064.11 1053.78 1065.64 1051.74 1069.72M1108.01 935.78C1106.25 935.95 1102.72 938.941 1102.72 941.389M1090.28 927.111C1088.4 930.341 1087.72 935.78 1091.3 935.78M1072.03 914.024C1068.45 921.502 1065.72 923.372 1063.5 923.372M1048.84 935.78C1046.96 928.811 1045.43 925.242 1050.54 920.822C1054.63 917.287 1053.84 911.304 1052.93 908.755M1050.54 943.939C1054.01 944.562 1062.24 946.318 1067.42 948.358M1078.51 948.358C1076.12 935.78 1077.66 933.57 1081.75 930.341" stroke="black" stroke-width="7" stroke-linecap="round" stroke-linejoin="round"/>
<path d="M529.764 1495.3C535.232 1489.23 544.346 1506.22 529.764 1547.48C518.098 1580.48 530.574 1578.22 538.27 1572.96M553.461 1582.06C577.765 1606.33 546.777 1658.5 569.866 1660.93M569.866 1660.93C591.346 1663.19 592.842 1640.77 613.985 1656.68M569.866 1660.93C595.142 1668.7 617.258 1670.64 622.119 1670.64M619.081 1660.93C645.207 1684.59 619.689 1717.35 648.245 1727.67C672.938 1736.59 680.368 1715.57 696.853 1718.34M619.081 1660.93C628.802 1662.75 651.162 1667.24 662.828 1670.64C674.494 1674.04 681.461 1691.06 683.486 1699.15M619.081 1660.93C617.261 1659.28 615.568 1657.88 613.985 1656.68M751.536 1760.43C737.562 1727.67 728.448 1734.95 705.359 1721.6C702.235 1719.79 699.433 1718.78 696.853 1718.34M783.131 1784.09C806.827 1765.28 818.372 1752.54 845.106 1760.43C871.84 1768.32 883.992 1808.36 907.688 1808.96C926.645 1809.45 940.701 1799.46 945.359 1794.4M1016.45 1784.09C1039.54 1794.4 1045.61 1808.96 1063.84 1808.96C1082.07 1808.96 1087.54 1770.74 1103.94 1768.32C1120.35 1765.89 1139.18 1758.61 1156.19 1768.32C1173.21 1778.02 1198.12 1793.8 1209.66 1788.94C1221.21 1784.09 1219.38 1742.83 1231.54 1739.19C1243.69 1735.55 1263.13 1725.24 1280.14 1725.85C1287.94 1726.13 1297.92 1729.72 1307.48 1732.71M1335.43 1734.34C1346.37 1725.85 1332.4 1695.51 1345.76 1689.45C1352.74 1686.28 1358.56 1678.65 1364.6 1672.6M1335.43 1734.34C1329.51 1738.94 1318.78 1736.25 1307.48 1732.71M1335.43 1734.34C1307.48 1751.33 1288.65 1761.64 1284.4 1781.66M1432.04 1668.21C1439.94 1664.57 1426.57 1627.56 1432.04 1618.46M1432.04 1668.21C1426.63 1670.71 1412.36 1669.78 1399.23 1667.78M1432.04 1668.21C1396.26 1676.7 1400.45 1679.49 1387.69 1696.3M1432.04 1618.46C1436.42 1611.18 1441.16 1602.08 1442.98 1598.44M1432.04 1618.46C1418.88 1621.7 1391.58 1630.96 1387.69 1642.12M1466.67 1582.06C1483.69 1582.06 1489.16 1580.85 1481.86 1564.47C1474.57 1548.08 1470.32 1541.41 1472.14 1531.7M1475.79 1502.58C1489.16 1502.58 1489.76 1496.51 1481.86 1480.74C1475.55 1468.12 1469.1 1456.88 1466.67 1452.83M1459.99 1511.68C1419.28 1536.56 1409.56 1545.66 1407.74 1582.06M1455.13 1541.41C1431.31 1550.15 1423.74 1557.99 1422.93 1560.83M1307.48 1732.71C1305.46 1724.36 1303.47 1705.83 1311.74 1698.55C1320 1691.27 1335.03 1680.95 1341.51 1676.7M967.232 1778.63H979.384M785.562 1765.28C773.41 1739.19 750.321 1724.18 696.853 1718.34M613.985 1656.68C614.828 1633.02 619.081 1617.85 611.79 1606.33C605.957 1597.11 582.625 1586.31 571.689 1582.06M596.6 1572.96C598.423 1559.21 600.367 1529.52 593.562 1520.78C586.757 1512.05 563.992 1497.73 553.461 1491.66M553.461 1531.1C558.727 1537.57 571.081 1550.63 578.372 1551.12M529.764 1475.28C543.132 1455.26 544.347 1450.41 553.461 1435.85C562.575 1421.28 573.511 1402.48 582.018 1394.59C590.524 1386.7 599.638 1378.21 609.359 1367.89C619.081 1357.58 636.701 1341.81 653.714 1332.71M582.018 1420.68C588.701 1425.53 603.04 1436.69 606.929 1442.52M561.36 1455.87C571.081 1460.11 591.132 1471.28 593.562 1481.95M625.157 1442.52C632.853 1447.98 648.367 1462.18 648.853 1475.28C649.339 1488.39 653.106 1445.96 654.929 1423.1M693.207 1447.37C694.828 1435.44 696.367 1407.21 689.562 1389.74C697.663 1394.79 713.866 1410.49 713.866 1432.81M777.055 1343.02C781.511 1344.03 784.346 1375.9 784.346 1393.38M831.739 1389.74C808.043 1363.04 797.106 1358.79 812.296 1330.28M882.169 1315.11C893.106 1339.38 885.207 1369.72 879.131 1378.21M726.017 1371.54C719.334 1401.26 715.688 1414.61 726.017 1428.56M784.346 1269.46C778.271 1277.35 764.903 1281.74 752.752 1280.53M801.359 1282.96C806.017 1289.23 815.698 1303.1 817.157 1308.44M642.169 1643.94C632.448 1610.57 625.157 1577.81 669.511 1536.56M872.448 1432.81C948.275 1412.43 1047.43 1417.85 1087.54 1423.1M619.081 1577.21C636.701 1531.7 674.98 1489.23 719.942 1469.21C764.903 1449.19 801.359 1420.68 890.675 1409.15M1016.45 1394.59C1073.32 1394.59 1118.73 1401.47 1134.32 1404.9M1103.94 1337.56C1096.65 1355.52 1095.23 1365.27 1095.43 1367.89M927.739 1383.67C932.802 1381.85 960.549 1378.21 1031.03 1378.21M1237 1263.54C1247.94 1263.54 1252.19 1261.72 1259.48 1270.82C1266.78 1279.92 1281.36 1284.78 1296.55 1286.6C1311.74 1288.42 1320.85 1292.06 1328.14 1298.73C1335.43 1305.41 1350.62 1315.72 1359.13 1319.36C1367.64 1323 1386.47 1333.31 1387.69 1340.59C1388.9 1347.87 1415.64 1358.19 1425.97 1372.75C1436.29 1387.31 1439.33 1397.02 1448.45 1403.08C1457.56 1409.15 1459.99 1417.64 1459.99 1426.14M1399.23 1452.83C1392.55 1469.21 1388.9 1477.1 1388.9 1502.58M1387.69 1573.57C1377.97 1526.85 1360.35 1505.62 1326.93 1477.1C1300.19 1454.29 1236.4 1432.41 1207.84 1424.32M1369.46 1601.47C1376.14 1642.12 1371.28 1660 1364.6 1672.6M1364.6 1672.6C1370.13 1667.05 1375.85 1662.83 1382.83 1664.57C1387.41 1665.72 1393.2 1666.86 1399.23 1667.78M1399.23 1667.78C1396.56 1676.87 1392.58 1686.52 1387.69 1696.3M582.625 1680.95C590.727 1698.21 622.24 1742.5 683.486 1781.66C760.043 1830.61 837.815 1862.35 896.751 1869.63C955.688 1876.92 1068.7 1886.02 1147.69 1864.78C1226.67 1843.55 1293.51 1806.54 1322.67 1781.66C1345.09 1762.55 1371.44 1728.75 1387.69 1696.3M751.536 1781.66C758.828 1791.86 768.752 1794.4 772.802 1794.4C787.587 1795.01 819.101 1801.32 826.878 1821.71M885.207 1818.07C896.751 1835.05 907.688 1828.38 907.688 1852.65M1081.46 1813.82C1069.31 1836.27 1054.73 1835.66 1053.51 1852.65M1209.66 1801.68C1186.57 1818.07 1176.24 1823.53 1168.95 1838.09M1354.27 1352.73C1347.99 1353.33 1335.43 1364.01 1335.43 1372.75M1241.26 1282.35C1228.5 1309.05 1218.78 1315.72 1210.88 1315.72M1164.7 1389.13C1177.05 1391.35 1206.38 1397.62 1224.85 1404.9M1264.35 1404.9C1255.84 1360.01 1261.31 1352.12 1275.89 1340.59M1296.55 1346.46C1284.4 1380.03 1286.38 1425.77 1318.5 1417.46C1344.2 1410.81 1350.62 1405.11 1350.62 1403.08M785.562 1462.73C797.952 1457.35 811.081 1452.22 825.002 1447.37L785.562 1462.73Z" stroke="black" stroke-width="10" stroke-linecap="round" stroke-linejoin="round"/>
<path d="M71.3237 2098.54C82.0257 2086.67 99.8624 2119.92 71.3237 2200.68C48.4928 2265.28 72.9092 2260.85 87.9713 2250.55M117.7 2268.37C165.264 2315.87 104.62 2418 149.806 2422.76M149.806 2422.76C191.845 2427.17 194.773 2383.28 236.15 2414.44M149.806 2422.76C199.273 2437.96 242.557 2441.76 252.07 2441.76M246.124 2422.76C297.256 2469.07 247.313 2533.2 303.201 2553.39C351.526 2570.85 366.067 2529.7 398.33 2535.14M246.124 2422.76C265.15 2426.32 308.909 2435.11 331.74 2441.76C354.571 2448.41 368.206 2481.74 372.17 2497.57M246.124 2422.76C242.562 2419.53 239.249 2416.77 236.15 2414.44M505.35 2617.52C478 2553.39 460.164 2567.64 414.978 2541.51C408.863 2537.98 403.379 2535.99 398.33 2535.14M567.184 2663.84C613.559 2627.02 636.152 2602.08 688.473 2617.52C740.794 2632.96 764.576 2711.34 810.951 2712.53C848.052 2713.48 875.56 2693.92 884.676 2684.03M1023.8 2663.84C1068.99 2684.03 1080.88 2712.53 1116.55 2712.53C1152.23 2712.53 1162.93 2637.71 1195.03 2632.96C1227.14 2628.21 1264 2613.96 1297.3 2632.96C1330.59 2651.96 1379.35 2682.84 1401.94 2673.34C1424.53 2663.84 1420.96 2583.08 1444.75 2575.95C1468.53 2568.83 1506.58 2548.64 1539.88 2549.83C1555.14 2550.37 1574.66 2557.41 1593.39 2563.27M1648.08 2566.45C1669.49 2549.83 1642.14 2490.45 1668.3 2478.57C1681.95 2472.37 1693.34 2457.44 1705.16 2445.59M1648.08 2566.45C1636.5 2575.46 1615.49 2570.18 1593.39 2563.27M1648.08 2566.45C1593.39 2599.71 1556.52 2619.9 1548.2 2659.09M1837.15 2437.01C1852.61 2429.88 1826.45 2357.44 1837.15 2339.62M1837.15 2437.01C1826.56 2441.89 1798.64 2440.08 1772.94 2436.16M1837.15 2437.01C1767.13 2453.63 1775.32 2459.09 1750.35 2491.99M1837.15 2339.62C1845.72 2325.37 1854.99 2307.56 1858.56 2300.43M1837.15 2339.62C1811.39 2345.96 1757.96 2364.09 1750.35 2385.94M1904.93 2268.37C1938.23 2268.37 1948.93 2265.99 1934.66 2233.93C1920.39 2201.86 1912.07 2188.8 1915.63 2169.8M1922.77 2112.79C1948.93 2112.79 1950.12 2100.92 1934.66 2070.04C1922.29 2045.34 1909.69 2023.33 1904.93 2015.41M1891.85 2130.61C1812.18 2179.3 1793.16 2197.11 1789.59 2268.37M1882.34 2188.8C1835.73 2205.9 1820.9 2221.26 1819.32 2226.8M1593.39 2563.27C1589.42 2546.91 1585.54 2510.64 1601.71 2496.39C1617.88 2482.13 1647.29 2461.95 1659.98 2453.63M927.484 2653.15H951.266M571.94 2627.02C548.158 2575.95 502.972 2546.57 398.33 2535.14M236.15 2414.44C237.8 2368.13 246.124 2338.44 231.855 2315.87C220.439 2297.82 174.777 2276.68 153.373 2268.37M202.127 2250.55C205.694 2223.64 209.499 2165.52 196.181 2148.42C182.863 2131.32 138.311 2103.29 117.7 2091.42M117.7 2168.61C128.006 2181.28 152.184 2206.85 166.454 2207.8M71.3237 2059.35C97.4852 2020.16 99.8634 2010.66 117.7 1982.16C135.537 1953.66 156.941 1916.84 173.588 1901.4C190.236 1885.96 208.072 1869.34 227.098 1849.15C246.124 1828.96 280.608 1798.08 313.903 1780.27M173.588 1952.47C186.668 1961.97 214.731 1983.82 222.342 1995.22M133.158 2021.35C152.184 2029.66 191.425 2051.51 196.181 2072.42M258.015 1995.22C273.077 2005.91 290.654 2037.67 304.39 2059.35C322.503 2087.94 345.094 2007.5 316.281 1957.22M384.061 1891.9C399.916 1901.8 431.625 1932.52 431.625 1976.22M555.293 1800.46C564.013 1802.44 569.562 1864.82 569.562 1899.03M291.31 2389.5C272.284 2324.19 258.015 2260.06 344.82 2179.3C431.625 2098.54 556.482 2026.1 741.983 1976.22C890.384 1936.32 1084.45 1946.93 1162.93 1957.22M246.124 2258.87C280.608 2169.8 355.522 2086.67 443.516 2047.48C531.51 2008.29 602.857 1952.47 777.656 1929.91M1023.8 1901.4C1135.1 1901.4 1223.97 1914.86 1254.49 1921.59M1571.98 1690.01C1601.71 1693.57 1619.55 1700.7 1633.82 1713.76C1648.08 1726.83 1677.81 1747.02 1694.46 1754.14C1711.11 1761.27 1747.97 1781.46 1750.35 1795.71C1752.73 1809.96 1805.05 1830.15 1825.26 1858.65C1845.48 1887.15 1851.42 1906.15 1869.26 1918.03C1887.1 1929.91 1891.85 1946.53 1891.85 1963.16M1847.86 1939.41C1774.13 1999.97 1786.02 1983.35 1772.94 2015.41C1759.86 2047.48 1752.73 2062.91 1752.73 2112.79M1750.35 2251.74C1731.32 2160.3 1696.84 2118.73 1631.44 2062.92C1579.12 2018.26 1454.26 1975.43 1398.37 1959.6M1454.26 2053.42C1493.1 2072.42 1578.17 2118.26 1607.66 2149.61M1714.68 2306.37C1727.76 2385.94 1718.24 2420.93 1705.16 2445.59M1705.16 2445.59C1715.99 2434.74 1727.19 2426.47 1740.84 2429.88C1749.81 2432.12 1761.14 2434.36 1772.94 2436.16M1772.94 2436.16C1767.71 2453.96 1759.93 2472.85 1750.35 2491.99M174.777 2461.95C190.632 2495.72 252.307 2582.43 372.17 2659.09C521.998 2754.91 674.204 2817.04 789.547 2831.29C904.891 2845.54 1126.07 2863.35 1280.65 2821.79C1435.23 2780.22 1566.04 2707.78 1623.11 2659.09C1666.97 2621.67 1718.56 2555.5 1750.35 2491.99M505.35 2659.09C519.619 2679.04 539.041 2684.03 546.969 2684.03C575.904 2685.21 637.579 2697.56 652.8 2737.47M766.954 2730.34C789.547 2763.59 810.951 2750.53 810.951 2798.03M1151.04 2722.03C1127.25 2765.97 1098.72 2764.78 1096.34 2798.03M1401.94 2698.28C1356.75 2730.34 1336.54 2741.03 1322.27 2769.53M1714.68 1833.71C1702.39 1834.9 1677.81 1855.8 1677.81 1872.9M1591.01 1773.14C1577.93 1795.71 1573.17 1833.71 1598.14 1833.71M1313.94 1890.72C1338.12 1895.07 1395.52 1907.34 1431.67 1921.59M1508.96 1921.59C1492.31 1833.71 1503.01 1818.27 1531.55 1795.71M281.269 1849.15C321.837 1871.41 340.54 1903.63 344.82 1916.97" stroke="black" stroke-width="10" stroke-linecap="round" stroke-linejoin="round"/>
</svg>
