<svg width="1309" height="1297" viewBox="0 0 1309 1297" fill="none" xmlns="http://www.w3.org/2000/svg">
<g clip-path="url(#clip0)">
<path d="M845.136 896C618.58 896 552.175 876.876 470.456 862.448C388.737 848.02 397.15 808.085 376.002 794.559C375.397 794.172 495.214 835.132 507.471 833.775C559.936 827.967 616.679 820.801 667.208 806.754C730.5 789.159 790.566 816.047 838.799 780.057C879.959 749.345 919.544 716.405 951.052 680.398C963.331 666.366 1011.57 633.411 1038.86 651.087C1072.39 672.799 1114 701.262 1114 734.787C1114 778.968 1077.03 805.117 1048.82 840.634C1007.6 892.544 919.981 896 845.136 896Z" fill="#777772"/>
<path d="M600.662 307.921C562.688 307.921 524.876 310.515 487.001 310.515C479.227 310.515 427.93 323.482 420.456 323.482C410.824 323.482 401.933 323.62 392.476 325.499C376.197 328.735 366.93 330.27 352.462 337.747C330.269 349.216 307.991 360.28 287.223 374.2C267.963 387.11 240.054 406.252 228.652 426.648C214.572 451.836 205.166 477.455 205.166 506.471C205.166 532.512 203.355 561.875 211.69 586.727C214.273 594.427 217.979 615.716 226.043 619.723C234.864 624.106 245.554 623.012 253.588 628.944C265.235 637.543 274.987 665.739 282.294 678.942C296.173 704.022 314.324 722.36 333.615 743.636C339.798 750.456 376.105 782.689 366.96 792.914C546.601 883.126 705.34 882.07 882.496 791.473C896.895 768.986 909.142 745.59 927.439 726.058C940.291 712.339 948.527 692.742 964.843 682.832C993.404 665.485 1008.27 647.497 1022.54 617.994C1029.58 603.439 1035.68 597.592 1048.06 588.024C1055.22 582.486 1062.51 577.893 1067.78 571.166C1078.25 557.778 1073.12 521.148 1069.52 505.03C1064.14 480.996 1061.89 453.009 1049.22 432.411C1041.42 419.721 1033.69 407.222 1026.02 394.372C1021.03 386.013 1014.08 370.726 1005.73 364.979C987.324 352.317 971.797 349.281 951.36 342.934C938.079 338.809 923.874 334.969 910.332 331.839C902.083 329.933 896.423 324.063 888.876 320.312C875.207 313.52 849.62 317.562 834.074 315.846C814.054 313.635 796.262 302.575 776.664 298.123C757.233 293.709 733.747 297.547 713.599 297.547C695.52 297.547 680.094 302.107 662.422 302.734C641.757 303.467 621.824 307.921 600.662 307.921Z" fill="white"/>
<path d="M396.598 726.372C382.268 710.356 372.967 699.961 353.107 686.585C346.493 673.358 332.878 661.486 346.5 644.459C350.229 639.797 345.441 627.782 346.5 621.959C348.019 613.606 359.912 605.354 363.5 597.459C369.133 585.066 394.858 589.453 404.307 580.529C421.097 564.672 462.571 551.272 484.764 551.272C520.782 551.272 553.17 568.268 587.976 569.558C629.387 571.091 671.105 576.872 712.318 576.872C733.836 576.872 752.712 581.654 773.676 583.983C790.318 585.832 808.813 595.688 825.689 590.688C858.965 580.828 889.246 574.456 919.148 595.157C941.458 610.602 950.013 638.343 936.418 662.814C931.228 672.156 931.61 687.804 928.088 698.37C926.014 704.591 926.609 736.606 922.602 739.411C898.861 756.029 856.823 731.437 835.035 753.226C823.233 765.028 817.908 777.134 804.762 787.36C794.75 795.147 784.112 786.655 773.676 780.858C757.423 771.828 758.232 771.014 738.73 774.56C724.817 777.089 721.02 795.567 707.848 796.299C695.845 796.966 686.272 794.465 674.934 792.845C645.475 788.637 622.626 799.956 594.477 799.956C562.856 799.956 537.075 785.328 504.878 785.328C483.498 785.328 482.134 782.101 465.665 770.699C451.423 760.839 443.415 751.696 426.25 746.928C407.875 741.824 408.382 739.543 396.993 726.814L396.598 726.372Z" fill="#5E5F62"/>
<path d="M260.216 618.061C273.436 647.808 301.886 653.541 331.783 653.541C327.736 665.68 309.91 689.022 327.689 689.022C334.612 689.022 370.078 684.547 372.569 693.267C377.96 712.136 352.261 702.786 341.486 709.642C326.936 718.902 339.817 728.662 349.523 734.054C358.95 739.292 386.367 734.371 386.367 721.772C386.367 706.274 380.586 690.444 373.328 678.105C366.672 666.79 350.887 652.499 350.887 639.289C350.887 620.58 358.01 606.136 359.075 588.04C359.514 580.578 373.76 566.938 378.786 561.354C390.839 547.962 403.306 535.975 419.118 526.632C439.691 514.475 463.192 498.436 487.501 495.397C521.288 491.174 552.747 477.788 586.663 473.412C604.231 471.145 620.936 470.682 638.67 470.682C649.09 470.682 667.502 470.989 677.183 466.589C685.253 462.92 714.465 456.141 713.876 446.119C713.769 444.3 704.034 433.365 701.443 432.625C691.261 429.716 690.592 420.559 688.706 411.549C686.198 399.567 678.927 373.242 669.602 364.849C662.542 358.495 627.598 363.546 621.082 369.701C612.987 377.345 605.939 388.805 593.789 388.805C583.647 388.805 567.318 393.043 563.768 380.618C560.894 370.561 557.273 361.513 546.786 361.513C536.836 361.513 525.293 358.38 518.735 367.123C512.089 375.984 513.248 387.649 508.577 396.993C505.798 402.551 496.249 412.253 491.443 416.098C486.404 420.129 480.866 429.744 473.703 429.744C461.242 429.744 460.985 409.62 457.328 401.39C454.781 395.66 432.862 400.589 428.671 402.451C422.246 405.307 424.577 415.669 424.577 421.556C424.577 429.206 425.737 470.501 413.66 459.765C404.89 451.97 370.784 425.817 359.681 435.809C354.797 440.205 360.943 451.665 363.169 455.672C367.478 463.429 367.263 469.54 367.263 478.264C367.263 496.993 341.906 510.095 332.996 491C326.575 477.242 323.141 472.475 307.219 473.412C304.057 473.598 314.369 491.546 315.407 493.881C320.331 504.959 316.27 514.218 315.407 525.874C314.677 535.731 297.94 529.168 292.36 526.632C282.658 522.222 279.735 524.862 269.617 525.267C261.624 525.587 268.735 540.789 270.526 544.372C275.238 553.795 287.44 553.703 294.938 559.534C301.249 564.443 308.816 572.527 312.071 579.852C315.607 587.808 311.543 600.35 309.797 608.206C309.133 611.194 291.055 595.498 288.115 594.105C281.504 590.973 263.838 592.137 257.032 593.65C251.974 594.774 258.838 614.96 260.216 618.061Z" fill="#777772"/>
<path d="M757.554 414.369C744.455 424.193 748.861 454.449 748.861 468.298C758.745 473.24 783.164 478.674 794.275 479.563C809.484 480.78 822.204 501.396 834.988 508.124C845.465 513.638 856.979 523.432 868.694 525.775C874.113 526.859 882.759 529.577 886.079 534.557C894.373 546.998 924.374 562.445 918.898 579.971C915.584 590.572 916.921 610.004 922.889 619.619C930.975 632.647 929.415 653.665 926.437 668.226C925.259 673.985 916.52 700.553 929.275 699.803C935.416 699.442 942.8 692.686 948.434 689.869C955.659 686.257 999.265 693.445 996.243 679.846C994.19 670.606 999.208 653.626 985.156 655.188C977.127 656.08 962.201 661.608 965.997 650.22C969.333 640.211 975.262 630.203 981.963 621.925C990.244 611.695 999.533 607.127 1009.99 599.573C1013.45 597.072 1023.47 594.166 1023.47 589.284C1023.47 585.344 1022.23 573.477 1016.73 573.673C1007.51 574.002 997.635 583.063 990.3 587.687C982.064 592.88 983.559 591.385 983.559 582.188C983.559 565.454 980.562 545.741 987.639 530.299C992.03 520.721 996.501 516.569 1004.23 509.809C1008.22 506.316 1009.1 504.421 1009.1 499.343C1009.1 486.784 997.255 480.079 987.639 489.054C983.008 493.377 977.326 494.789 972.383 498.633C968.247 501.851 962.733 506.616 957.216 506.616C943.583 506.616 940.451 491.304 940.451 480.716C940.451 466.075 941.963 458.824 956.417 451.978C965.074 447.877 967.904 434.731 958.014 430.335C948.333 426.032 940.608 435.992 932.469 438.318C926.132 440.128 919.298 443.302 912.6 442.664C905.215 441.961 902.578 435.136 897.432 430.956C886.876 422.379 887.519 410.471 894.86 398.935C902.327 387.202 876.069 389.38 871.089 392.549C865.346 396.204 857.802 421.625 847.938 406.83C841.352 396.95 830.857 413.821 823.901 414.014C819.291 414.142 813.687 414.973 809.531 412.773C806.291 411.057 804.358 405.5 801.548 402.838C798.16 399.628 792.123 402.986 788.421 404.435C779.048 408.102 765.714 408.249 757.554 414.369Z" fill="#39393E"/>
<path d="M327.343 683.03C308.422 670.658 312.501 681.726 312.501 689.959C298.966 689.959 307.461 703.145 307.461 714.531C307.461 733.277 311.163 739.443 325.187 753.697C344.432 773.257 365.031 791.797 383.039 812.506C397.161 828.747 428.149 850.691 449.753 856.583C474.845 863.427 499.88 863.171 525.69 863.171C563.542 863.171 601.504 865.327 639.476 865.327L641.574 865.327C682.595 865.33 722.182 865.333 762.245 854.547C792.473 846.409 822.245 843.395 851.596 831.91C894.198 815.24 912.532 772.134 947.656 745.792C957.525 738.389 951.905 710.631 945.619 716.567C934.582 726.991 924.34 738.428 913.28 748.906C903.123 758.529 898.021 754.344 886.451 757.65C873.534 761.34 857.167 772.782 849.8 784.359C843.936 793.573 836.696 794.94 828.719 802.326C820.661 809.787 806.453 819.635 795.183 820.052C784.084 820.463 775.22 816.644 766.796 809.272C761.746 804.854 744.333 796.916 739.128 804.961C728.284 821.719 710.422 828.509 692.176 835.144C677.001 840.662 676.584 831.289 667.503 822.208C654.125 808.83 635.414 817.898 622.707 826.52C609.574 835.432 592.367 846.811 577.073 834.066C570.006 828.176 561.975 822.957 556.472 815.62C548.636 805.173 539.205 803.353 526.888 806.637C515.145 809.769 508.867 803.265 498.501 799.81C488.729 796.553 478.132 796.374 468.318 793.103C455.762 788.917 444.722 783.88 435.14 774.298C428.796 767.954 419.408 770.336 413.581 765.675C407.176 760.551 393.145 758.903 384.955 754.296C375.55 749.005 363.774 743.02 359.203 732.737C351.878 716.254 342.209 692.75 327.343 683.03Z" fill="#A1A2A6"/>
<path d="M254.255 569.945C254.714 570.633 255.484 571.05 256.312 571.058C257.139 571.066 257.917 570.663 258.389 569.984C265.456 559.807 265.692 547.905 265.91 536.942C265.926 536.108 265.943 535.28 265.962 534.458C266.242 522.547 267.081 511.81 275.492 503.159C278.238 500.335 280.561 497.183 282.768 494.188L282.978 493.904C285.284 490.777 287.482 487.825 290.066 485.241C293.284 482.024 296.839 479.074 300.497 476.081C300.782 475.849 301.067 475.616 301.352 475.383C304.711 472.639 308.141 469.836 311.308 466.828C316.197 462.184 323.15 458.769 329.78 458.769C332.579 458.769 334.73 457.492 336.389 456.101C337.212 455.411 337.962 454.652 338.63 453.958C338.795 453.786 338.954 453.62 339.107 453.459C339.603 452.94 340.05 452.472 340.511 452.031C342.34 450.281 344.35 448.942 346.553 447.474C347.102 447.109 347.663 446.735 348.236 446.345C351.022 444.449 353.956 442.242 356.27 438.919C357.209 437.569 358.067 436.071 358.879 434.609C359.058 434.286 359.235 433.966 359.411 433.648C360.049 432.492 360.67 431.365 361.335 430.264C363.043 427.435 364.788 425.216 366.97 423.969C370.3 422.066 374.659 420.676 379.362 419.437C381.013 419.001 382.731 418.58 384.444 418.159C387.449 417.422 390.438 416.688 393.026 415.891C395.311 415.188 397.559 414.526 399.774 413.873C413.223 409.909 425.445 406.307 437.323 396.175C439.419 394.388 441.491 392.289 443.535 390.18C443.844 389.861 444.152 389.542 444.461 389.223C446.217 387.406 447.966 385.597 449.782 383.883C454.078 379.83 458.404 376.659 463.179 375.621C469.427 374.263 475.536 372.605 481.586 370.964C483.338 370.488 485.085 370.014 486.83 369.549C492.607 368.008 498.215 365.573 503.618 363.227C505.26 362.513 506.884 361.808 508.487 361.139C515.495 358.215 522.311 355.876 529.578 355.741C534.394 355.652 539.164 356.183 544.1 356.773C544.4 356.809 544.701 356.845 545.003 356.881C549.609 357.434 554.372 358.006 559.218 358.057C564.661 358.114 569.988 357.515 575.142 356.924L575.436 356.891C580.533 356.306 585.458 355.742 590.435 355.742C591.523 355.742 592.628 355.753 593.746 355.763C599.832 355.822 606.316 355.885 612.61 354.246C614.03 353.876 615.34 353.499 616.585 353.14C620.234 352.087 623.337 351.192 627.083 351.111C632.094 351.002 636.99 350.78 641.856 350.559C648.557 350.255 655.201 349.954 662.014 349.954C665.303 349.954 668.189 350.882 671.459 352.007C671.616 352.061 671.774 352.115 671.932 352.17C675.006 353.231 678.458 354.423 682.455 354.645C691.724 355.16 701.055 355.317 710.33 355.472C711.919 355.499 713.506 355.526 715.091 355.554C725.955 355.749 736.736 356.027 747.397 356.954C748.521 357.052 748.9 357.384 749.06 357.574C749.277 357.832 749.501 358.329 749.592 359.306C749.683 360.28 749.618 361.429 749.511 362.786C749.497 362.953 749.483 363.125 749.469 363.301C749.375 364.451 749.268 365.746 749.294 366.93C749.378 370.794 750.709 373.773 753.025 375.904C755.26 377.961 758.183 379.016 761.104 379.576C764.041 380.14 767.213 380.246 770.152 380.224C771.597 380.213 773.016 380.171 774.34 380.131L774.428 380.129C775.789 380.088 777.036 380.052 778.161 380.052C784.737 380.052 791.282 379.761 797.767 379.472L797.808 379.47C804.325 379.181 810.783 378.894 817.263 378.894C824.359 378.894 830.738 379.993 837.014 383.019C837.742 383.37 838.373 383.748 839.006 384.149C839.156 384.244 839.313 384.346 839.477 384.451C839.96 384.762 840.491 385.104 841.011 385.401C842.555 386.284 844.301 386.965 846.815 386.997C851.557 387.057 857.034 388.798 862.88 390.968C864.032 391.396 865.201 391.842 866.378 392.29C870.984 394.046 875.704 395.845 879.965 396.779C881.971 397.219 883.909 397.531 885.752 397.814C886.052 397.86 886.347 397.905 886.64 397.949C888.174 398.182 889.629 398.404 891.071 398.678C894.466 399.324 897.6 400.235 900.714 402.103C902.744 403.321 903.353 404.084 904.083 404.998C904.124 405.05 904.165 405.102 904.208 405.154C905.244 406.446 906.447 407.826 909.665 409.785C912.097 411.265 915.317 412.484 918.632 413.613C919.999 414.078 921.37 414.525 922.744 414.972C924.834 415.653 926.932 416.336 929.038 417.093C932.477 418.329 935.608 419.654 938.075 421.209C940.557 422.774 942.11 424.412 942.78 426.164C947.431 438.33 954.141 445.021 965.275 451.486L965.276 451.486L965.675 451.718L966.93 449.556L965.675 451.718C969.814 454.12 971.941 455.403 973.228 457.079C974.376 458.575 975.028 460.667 975.028 465.273C975.028 471.285 976.645 475.006 979.629 478.022C981.027 479.435 982.672 480.639 984.365 481.823C984.746 482.09 985.132 482.357 985.522 482.627C986.904 483.583 988.345 484.581 989.892 485.774C992.12 487.493 993.184 490.12 994.409 493.649C994.48 493.854 994.551 494.062 994.624 494.273C995.721 497.461 997.05 501.321 1000.01 504.277C1000.95 505.224 1001.83 506.044 1002.55 506.728C1002.89 507.046 1003.2 507.334 1003.47 507.592C1004.37 508.456 1004.9 509.041 1005.28 509.619C1005.93 510.64 1006.34 512.017 1006.28 516.047C1006.26 517.741 1005.81 520.685 1005.22 524.513C1005.05 525.615 1004.87 526.79 1004.69 528.029C1003.89 533.398 1003.06 539.711 1003.01 545.529C1002.96 551.215 1003.63 557.006 1006.31 560.912C1007.72 562.961 1009.69 564.501 1012.29 565.174C1014.84 565.831 1017.77 565.601 1021.04 564.577C1030.3 561.682 1034.56 554.076 1035.71 545.964C1036.85 537.933 1035.05 529.053 1031.94 522.529C1026.52 511.143 1022.62 498.931 1019.3 486.616C1016.52 476.298 1013.29 467.365 1003.83 459.96C997.6 455.085 992.116 449.468 986.723 443.585C985.174 441.895 983.625 440.175 982.067 438.444C978.247 434.202 974.372 429.898 970.292 425.819C962.487 418.013 953.137 410.722 944.169 404.444C927.803 392.988 911.044 382.915 891.306 380.478C875.297 378.501 861.159 376.068 848.346 366.459C846.51 365.082 844.363 364.376 842.273 363.964C840.232 363.563 838.055 363.409 836.062 363.268L835.952 363.26C833.862 363.113 831.969 362.974 830.257 362.631C828.556 362.291 827.232 361.784 826.236 361.027C824.475 359.687 822.46 358.48 820.578 357.352C820.214 357.134 819.855 356.919 819.504 356.706C817.256 355.346 815.265 354.059 813.709 352.585C813.541 352.426 813.375 352.267 813.214 352.111C812.854 351.766 812.516 351.441 812.233 351.194C811.768 350.786 811.227 350.378 810.508 350.09C809.818 349.813 809.127 349.713 808.465 349.655C807.938 349.608 807.285 349.58 806.523 349.546C806.352 349.539 806.175 349.531 805.993 349.523C801.154 349.303 796.389 348.444 791.508 347.433C790.431 347.21 789.344 346.979 788.249 346.745C784.439 345.934 780.531 345.101 776.591 344.53C773.548 344.088 770.501 343.756 767.518 343.43C766.238 343.291 764.97 343.152 763.72 343.007C759.507 342.519 755.39 341.944 751.276 340.969C750.141 340.701 748.976 340.383 747.782 340.057C744.165 339.069 740.277 338.008 736.102 338.008C734.597 338.008 733.109 338.017 731.629 338.027C728.703 338.045 725.812 338.063 722.9 338.009C720.663 337.967 718.5 337.434 716.109 336.743C715.745 336.637 715.372 336.528 714.992 336.415C712.968 335.818 710.739 335.161 708.426 334.819C703.716 334.124 698.837 334.064 694.075 334.166C692.163 334.208 690.301 334.274 688.469 334.338C685.644 334.438 682.893 334.535 680.15 334.535C670.321 334.535 660.843 334.13 651.078 333.133C643.663 332.377 636.195 330.976 628.592 329.549C626.992 329.249 625.385 328.947 623.772 328.651C614.557 326.955 605.171 325.423 595.813 325.275C593.419 325.237 590.971 325.084 588.393 324.923C586.364 324.796 584.255 324.664 582.026 324.579C577.188 324.395 572.14 324.462 567.664 325.536C564.848 326.212 562.403 327.937 560.37 329.509C559.825 329.931 559.311 330.339 558.819 330.73C557.329 331.915 556.038 332.941 554.686 333.692C550.052 336.267 544.775 338.207 539.46 340.162C537.559 340.861 535.654 341.562 533.771 342.294C520.231 347.56 505.496 348.427 490.752 348.427C488.669 348.427 486.547 348.399 484.404 348.371C479.552 348.309 474.591 348.245 469.723 348.494C464.685 348.753 460.31 350.65 456.421 353.077C453.238 355.064 450.247 357.498 447.471 359.758C446.896 360.226 446.331 360.686 445.775 361.134C441.42 364.636 437.131 368.219 432.859 371.788C431.064 373.287 429.273 374.784 427.481 376.271C426.754 376.874 426.077 377.507 425.458 378.091C425.397 378.149 425.336 378.206 425.276 378.263C424.712 378.795 424.198 379.281 423.668 379.74C422.509 380.742 421.439 381.465 420.209 381.86C412.502 384.337 403.983 385.88 395.612 387.396C393.762 387.731 391.919 388.065 390.093 388.407C388.423 388.72 386.737 388.986 385.049 389.251C376.047 390.667 366.999 392.09 360.102 400.827C351.861 411.265 343.625 420.245 333.668 428.917C332.637 429.815 331.613 430.709 330.595 431.597C322.95 438.271 315.617 444.672 307.547 450.879C305.854 452.181 304.285 453.463 302.753 454.713C299.984 456.974 297.338 459.133 294.317 461.129C293.728 461.518 293.126 461.875 292.474 462.262L292.367 462.325C291.694 462.725 290.962 463.162 290.256 463.646C288.822 464.628 287.362 465.889 286.306 467.789C282.71 474.261 278.149 480.02 273.373 485.853C272.886 486.448 272.396 487.043 271.905 487.641C267.621 492.855 263.23 498.2 259.5 504.061C257.096 507.839 256.679 512.901 256.724 517.486C256.747 519.835 256.898 522.208 257.038 524.396L257.039 524.415C257.181 526.628 257.308 528.623 257.308 530.357C257.308 531.796 256.905 534.442 256.27 537.962C256.055 539.155 255.817 540.435 255.568 541.767C255.109 544.228 254.617 546.867 254.18 549.464C253.504 553.479 252.93 557.558 252.775 561.031C252.698 562.768 252.722 564.423 252.913 565.883C253.099 567.298 253.469 568.766 254.255 569.945Z" fill="#D6DCE0" stroke="#D6DCE0" stroke-width="5" stroke-linecap="round" stroke-linejoin="round"/>
<path d="M256 549.637C260.5 544.637 268 558.637 256 592.637C246.4 619.837 256.666 617.97 263 613.636M275.5 621.136C295.5 641.136 270 684.136 289 686.136M289 686.136C306.676 687.997 307.908 669.518 325.306 682.636M289 686.136C309.8 692.536 328 694.136 332 694.136M329.5 686.136C351 705.636 330 732.636 353.5 741.136C373.82 748.486 379.934 731.163 393.5 733.451M329.5 686.136C337.5 687.636 355.9 691.336 365.5 694.136C375.1 696.936 380.833 710.97 382.5 717.636M329.5 686.136C328.002 684.778 326.609 683.619 325.306 682.636M438.5 768.136C427 741.136 419.5 747.136 400.5 736.136C397.929 734.648 395.623 733.809 393.5 733.451M464.5 787.636C484 772.136 493.5 761.636 515.5 768.136C537.5 774.636 547.5 807.636 567 808.136C582.6 808.536 594.167 800.303 598 796.136M656.5 787.636C675.5 796.136 680.5 808.136 695.5 808.136C710.5 808.136 715 776.636 728.5 774.636C742 772.636 757.5 766.636 771.5 774.636C785.5 782.636 806 795.636 815.5 791.636C825 787.636 823.5 753.636 833.5 750.636C843.5 747.636 859.5 739.136 873.5 739.636C879.92 739.866 888.127 742.829 896 745.295M919 746.636C928 739.636 916.5 714.636 927.5 709.636C933.241 707.027 938.029 700.74 943 695.752M919 746.636C914.127 750.427 905.296 748.207 896 745.295M919 746.636C896 760.637 880.5 769.137 877 785.637M998.5 692.136C1005 689.136 994 658.636 998.5 651.136M998.5 692.136C994.045 694.193 982.308 693.43 971.5 691.781M998.5 692.136C969.057 699.136 972.5 701.436 962 715.286M998.5 651.136C1002.1 645.136 1006 637.636 1007.5 634.636M998.5 651.136C987.667 653.803 965.2 661.436 962 670.636M1027 621.136C1041 621.136 1045.5 620.136 1039.5 606.636C1033.5 593.136 1030 587.636 1031.5 579.636M1034.5 555.636C1045.5 555.636 1046 550.636 1039.5 537.636C1034.3 527.236 1029 517.97 1027 514.636M1021.5 563.136C988 583.636 980 591.136 978.5 621.136M1017.5 587.636C997.9 594.836 991.667 601.303 991 603.636M896 745.295C894.333 738.409 892.7 723.136 899.5 717.136C906.3 711.136 918.667 702.636 924 699.136M616 783.136H626M466.5 772.136C456.5 750.636 437.5 738.266 393.5 733.451M325.306 682.636C326 663.136 329.5 650.636 323.5 641.136C318.7 633.536 299.5 624.636 290.5 621.136M311 613.636C312.5 602.303 314.1 577.836 308.5 570.636C302.9 563.436 284.167 551.636 275.5 546.636M275.5 579.136C279.833 584.47 290 595.236 296 595.636M256 533.136C267 516.636 268 512.636 275.5 500.636C283 488.636 292 473.136 299 466.636C306 460.136 313.5 453.136 321.5 444.636C329.5 436.136 344 423.136 358 415.636M299 488.136C304.5 492.136 316.3 501.336 319.5 506.136M282 517.136C290 520.636 306.5 529.836 308.5 538.636M334.5 506.136C340.833 510.636 353.6 522.336 354 533.136C354.4 543.936 357.5 508.97 359 490.136M390.5 510.136C391.833 500.303 393.1 477.036 387.5 462.636C394.167 466.803 407.5 479.736 407.5 498.136M459.5 424.136C463.167 424.97 465.5 451.236 465.5 465.636M504.5 462.636C485 440.636 476 437.136 488.5 413.636M546 401.136C555 421.136 548.5 446.136 543.5 453.136M417.5 447.636C412 472.136 409 483.136 417.5 494.636M589 438.136C577.5 415.636 576 396.136 589 390.636C658.5 380.136 644.5 406.137 641 438.136M578.5 382.136C569 390.636 564 390.136 564 395.636M542 346.136C521.5 344.136 517 351.636 504.5 352.136C492 352.636 475.5 353.137 470.5 359.637C465.5 366.137 449.5 373.637 439.5 372.637M479.5 374.637C483.333 379.803 491.3 391.236 492.5 395.636M348.5 672.137C340.5 644.637 334.5 617.636 371 583.637C407.5 549.637 460 519.136 538 498.136C600.4 481.336 682 485.803 715 490.136M329.5 617.137C344 579.637 375.5 544.636 412.5 528.137C449.5 511.637 479.5 488.137 553 478.637M656.5 466.636C703.3 466.636 740.667 472.303 753.5 475.137M683.5 438.136C671 408.137 672.5 387.636 700.5 387.636C728.5 387.636 736 401.137 728.5 419.637C722.5 434.436 721.333 442.47 721.5 444.636M583.5 457.637C587.667 456.136 610.5 453.136 668.5 453.136M572.5 340.637C582 335.637 587 335.637 594.5 338.137C602 340.637 605.5 334.136 619.5 333.636C633.5 333.136 648 338.137 656.5 338.137C665 338.137 680.5 329.636 692.5 331.136C704.5 332.636 712.5 338.137 721.5 338.137C730.5 338.137 741.5 336.136 752 338.137C762.5 340.137 769 346.137 778.5 346.137C788 346.137 805 345.137 814 348.637C823 352.137 829 358.637 838 358.637C847 358.637 850.5 357.137 856.5 364.637C862.5 372.137 874.5 376.137 887 377.637C899.5 379.137 907 382.136 913 387.636C919 393.137 931.5 401.637 938.5 404.637C945.5 407.637 961 416.137 962 422.137C963 428.137 985 436.637 993.5 448.637C1002 460.637 1004.5 468.637 1012 473.637C1019.5 478.637 1021.5 485.637 1021.5 492.637M1003 482.637C972 508.137 977 501.136 971.5 514.636C966 528.137 963 534.636 963 555.636M962 614.137C954 575.637 939.5 558.137 912 534.637C890 515.837 837.5 497.803 814 491.137M837.5 530.637C853.833 538.637 889.6 557.937 902 571.137M947 637.137C952.5 670.636 948.5 685.367 943 695.752M943 695.752C947.554 691.182 952.263 687.702 958 689.136C961.775 690.08 966.54 691.024 971.5 691.781M971.5 691.781C969.3 699.273 966.028 707.229 962 715.286M299.5 702.637C306.167 716.856 332.1 753.363 382.5 785.637C445.5 825.979 509.5 852.137 558 858.137C606.5 864.137 699.5 871.637 764.5 854.137C829.5 836.637 884.5 806.137 908.5 785.637C926.943 769.884 948.633 742.025 962 715.286M438.5 785.637C444.5 794.036 452.667 796.136 456 796.136C468.167 796.637 494.1 801.837 500.5 818.637M548.5 815.637C558 829.637 567 824.137 567 844.137M710 812.137C700 830.637 688 830.137 687 844.137M815.5 802.137C796.5 815.637 788 820.137 782 832.137M947 438.136C941.833 438.637 931.5 447.437 931.5 454.637M895 412.637C889.5 422.137 887.5 438.136 898 438.136M841.5 374.137C831 396.137 823 401.637 816.5 401.637M773.5 438.136C768 417.637 763.5 407.137 778.5 394.137C790.5 383.737 788.167 366.137 785.5 358.637M778.5 462.137C788.667 463.97 812.8 469.136 828 475.137M860.5 475.137C853.5 438.136 858 431.637 870 422.137" stroke="black" stroke-width="10" stroke-linecap="round" stroke-linejoin="round"/>
</g>
<defs>
<clipPath id="clip0">
<rect width="1309" height="1297" fill="white"/>
</clipPath>
</defs>
</svg>
