<svg width="1599" height="3391" viewBox="0 0 1599 3391" fill="none" xmlns="http://www.w3.org/2000/svg">
<g clip-path="url(#clip0)">
<path d="M1244.2 2439.02C1250.7 2430.52 1264.7 2400.02 1274.7 2381.52C1284.7 2363.02 1294.7 2368.52 1300.7 2351.02C1306.7 2333.52 1294.86 2326.25 1300.7 2309.52C1312 2277.18 1315.03 2233.98 1314.7 2224.02C1314.02 2203.14 1332.7 2209.52 1332.2 2190.52C1331.7 2171.52 1314.7 2165.02 1314.7 2153.02C1314.7 2141.02 1313.2 2125.52 1306.2 2090.02C1299.2 2054.52 1317.7 2061.02 1310.7 2039.02C1303.7 2017.02 1284.7 2021.52 1282.2 2005.02C1279.7 1988.52 1264.2 1962.52 1248.7 1939.02C1233.2 1915.52 1266.2 1922.02 1234.2 1872.02C1202.2 1822.02 1198.7 1852.02 1192.7 1848.02C1186.7 1844.02 1164.7 1826.02 1152.7 1809.02C1140.7 1792.02 1155.7 1775.52 1136.2 1747.52C1116.7 1719.52 1093.7 1737.52 1088.7 1737.02C1083.7 1736.52 1054.2 1719.02 1033.2 1710.02C1012.2 1701.02 1035.7 1677.02 1001.2 1659.02C966.705 1641.02 954.705 1665.52 941.705 1665.52C928.705 1665.52 918.705 1658.52 890.205 1655.02C861.705 1651.52 863.205 1610.02 831.205 1611.02C799.205 1612.02 797.705 1649.52 778.705 1649.52C759.705 1649.52 750.205 1648.52 722.205 1649.52C694.205 1650.52 723.205 1622.52 665.205 1629.52C607.205 1636.52 632.205 1665.02 627.205 1677.02C622.205 1689.02 592.205 1697.02 575.205 1705.52C558.205 1714.02 539.705 1690.02 512.705 1697.02C487.705 1705.02 501.705 1748.52 494.205 1758.02C486.705 1767.52 477.705 1770.52 460.205 1785.02C442.705 1799.52 409.705 1775.52 390.705 1792.02C371.705 1808.52 391.205 1849.02 386.205 1863.02C381.205 1877.02 377.411 1888.42 361.205 1895.52C344.659 1902.76 325.717 1887.73 310.205 1922.52C295.908 1954.58 322.205 1977.52 322.205 1989.52C322.205 2001.52 306.205 2030.02 302.205 2049.02C298.205 2068.02 274.705 2064.52 269.205 2086.02C263.705 2107.52 290.705 2114.52 294.205 2128.02C297.705 2141.52 292.205 2180.02 294.205 2198.52C296.205 2217.02 266.705 2202.02 269.205 2240.02C271.704 2278.02 293.205 2266.52 302.205 2274.02C311.205 2281.52 318.205 2324.02 322.205 2341.02C326.205 2358.02 304.205 2371.52 310.205 2390.02C316.205 2408.52 339.205 2404.02 351.705 2410.52C364.205 2417.02 381.705 2461.52 390.705 2478.52C399.705 2495.52 381.705 2519.52 390.705 2532.02C399.705 2544.52 417.705 2538.52 433.705 2538.52C449.705 2538.52 479.705 2571.52 490.705 2583.52C501.705 2595.52 489.205 2625.52 507.705 2641.02C526.205 2656.52 560.205 2633.52 572.205 2633.52C584.205 2633.52 626.205 2658.52 633.705 2668.02C641.205 2677.52 624.705 2716.02 667.705 2716.52C710.705 2717.02 702.205 2689.52 714.205 2685.52C726.205 2681.52 746.205 2688.02 769.205 2685.52C792.205 2683.02 803.705 2725.02 833.205 2725.02C862.705 2725.02 877.205 2677.02 890.205 2675.02C903.205 2673.02 913.705 2671.02 938.205 2670.02C962.705 2669.02 947.705 2696.52 991.705 2685.52C1035.7 2674.52 1014.2 2639.02 1022.2 2637.02C1030.2 2635.02 1045.2 2618.02 1074.7 2607.02C1104.2 2596.02 1115.2 2620.02 1131.2 2607.02C1147.2 2594.02 1130.96 2569.8 1147.7 2559.02C1165.21 2547.75 1194.07 2517.58 1204.7 2500.52C1215.56 2483.1 1220.7 2509.02 1238.7 2489.52C1256.7 2470.02 1237.7 2447.52 1244.2 2439.02ZM1244.2 2439.02C1231 2460.22 1222.37 2471.85 1219.7 2475.02M1287.7 2220.02C1275.77 2270.92 1251.46 2321.71 1234.2 2386.52C1224.01 2424.81 1214.2 2433.52 1172.2 2472.02L1172 2472.2C1097.85 2517.3 1055 2569.44 989.705 2587.52C910.458 2609.45 857.885 2611.41 790.205 2608.52C719.024 2605.48 611.714 2584.66 559.205 2535.52C507.853 2487.46 450.205 2453.52 417.705 2410.02C385.205 2366.52 348.205 2295.02 340.705 2237.52M1282.2 2049.02C1261.7 1989.52 1243.2 1945.52 1207.7 1900.02C1172.2 1854.52 1119.12 1825.14 1048.2 1755.02C1006.61 1713.88 903.297 1682.93 792.205 1682.52C710.681 1682.21 682.705 1701.02 651.205 1705.52C619.705 1710.02 561.947 1738.7 521.705 1771.52C445.121 1833.97 410.815 1849.36 386.205 1908.02M697.705 2641.02C661.205 2633.52 626.205 2615.52 616.205 2612.02M857.705 2675.02C839.705 2689.52 827.705 2689.02 815.705 2682.02C806.105 2676.42 792.705 2675.02 787.205 2675.02M694.205 2668.02C676.205 2675.02 668.705 2670.02 659.205 2653.52M564.205 2612.02C527.705 2617.52 534.205 2590.02 514.705 2573.02M982.205 1665.52C966.205 1668.52 954.205 1686.52 941.705 1682.52M1084.71 2565.22C1039.22 2606.93 941.705 2623.72 857.705 2637.02M722.205 1715.72C659.003 1745.4 602.351 1756.85 512.705 1804.72C440.417 1843.31 411.205 1926.22 386.205 1947.72" stroke="black" stroke-width="10" stroke-linecap="round"/>
<path d="M780.969 863.199L765.969 1507" stroke="black" stroke-width="10" stroke-linecap="round"/>
<path d="M772.468 801.357C770.266 801.329 768.099 801.293 765.968 801.248C669.968 799.248 483.968 788.248 400.968 788.248C317.968 788.248 302.468 787.748 279.968 769.748C257.468 751.748 247.968 694.748 263.968 686.248C425.385 690.813 605.935 691.489 770.968 690.714M772.468 801.357L772.338 791.748M772.468 801.357C846.724 802.301 966.688 795.639 1052.47 791.749M770.968 690.714L771.145 709.748M770.968 690.714C788.995 703.368 837.164 708.853 834.468 687.947C872.76 687.725 882.468 680.447 912.968 689.703C925.374 703.199 979.078 701.096 968.968 687.499C987.968 674.647 1031.16 688.44 1065.97 688.004C1090.35 699.952 1117.42 702.684 1115.47 686.431C1147.97 674.379 1163.81 686.735 1188.47 686.431C1209.97 697.12 1238.11 697.482 1238.47 686.431C1288.72 685.881 1303.07 685.397 1308.47 686.248C1315.05 667.068 1363.61 706.542 1333.47 707.748C1303.33 708.955 1311.76 763.933 1281.97 779.248C1252.18 794.564 1198.47 788.248 1115.47 788.248C1096.42 788.248 1078.77 790.556 1052.47 791.749M772.338 791.748C802.968 788.248 811.517 796.554 822.968 750.748C830.968 718.748 836.106 715.529 860.468 710.248C871.346 707.891 874.468 707.248 885.468 714.248C896.468 721.248 892.968 780.748 931.468 779.248C959.968 779.248 953.968 768.248 968.968 739.248C983.968 710.248 985.468 710.248 1013.97 710.248C1042.47 710.248 1035.47 772.248 1063.97 772.248C1087.47 772.248 1093.97 761.248 1097.97 742.748C1098.47 731.915 1105.87 710.248 1131.47 710.248M772.338 791.748L771.145 709.748M939.968 766.748C946.468 760.248 951.968 730.748 960.468 718.248C967.268 708.248 971.635 704.415 972.968 703.748M794.968 775.248C797.468 772.415 803.568 762.748 807.968 746.748C813.468 726.748 812.968 718.248 817.968 714.248M1164.47 754.748C1173.47 772.248 1177.47 772.248 1196.47 772.248C1215.47 772.248 1217.97 726.248 1231.47 719.248M1199.97 751.248C1210.47 727.748 1206.97 706.248 1226.97 703.748C1246.97 701.248 1258.97 700.248 1263.47 707.748M1008.97 728.248C1022.47 735.748 1034.97 792.495 1052.47 791.749M1063.97 703.748C1069.47 728.248 1069.47 746.748 1069.47 757.248M306.968 703.748C459.768 708.948 680.086 711.915 771.145 709.748" stroke="black" stroke-width="10" stroke-linecap="round"/>
<path d="M406.456 786.477C488.322 786.477 671.781 797.284 766.469 799.249V768.302C699.069 766.543 535.666 776.263 421.251 768.302C377.852 765.355 345.648 767.254 322.469 756.447C299.29 745.641 284.324 737.097 309.969 686.27C307.168 686.194 274.117 686.349 271.328 686.27C255.547 694.621 264.917 750.619 287.11 768.302C309.302 785.986 324.59 786.477 406.456 786.477Z" fill="black" stroke="black" stroke-width="10" stroke-linecap="round"/>
<rect x="275.5" y="3089.91" width="1053.72" height="61.5947" stroke="black" stroke-width="15"/>
<rect x="268" y="3082" width="356.368" height="77" fill="black"/>
<rect x="980.736" y="3082" width="356.368" height="77" fill="black"/>
<path d="M1213.68 2964.7C1197.04 2964.7 1182.09 2975.62 1182.09 2997.72C1182.09 3017.61 1194.57 3032.3 1213.03 3032.3C1220.7 3032.3 1227.72 3028.66 1230.84 3025.54L1232.14 3016.44H1231.88C1226.94 3019.56 1221.48 3022.42 1214.59 3022.42C1203.02 3022.42 1194.96 3014.49 1194.96 2997.98C1194.96 2983.03 1203.41 2976.53 1213.29 2976.53C1219.66 2976.53 1225.77 2978.61 1231.75 2983.03H1232.01L1229.41 2967.82C1225.9 2966 1220.57 2964.7 1213.68 2964.7ZM1273.43 2977.83C1281.62 2977.83 1286.95 2980.43 1286.56 2992.78L1285.26 3031H1299.82L1298.52 2988.49C1298.39 2986.54 1298.26 2984.72 1298 2982.9C1302.03 2979.91 1306.97 2977.83 1311.39 2977.83C1319.58 2977.83 1324.91 2980.43 1324.52 2992.78L1323.35 3031H1337.91L1336.48 2988.49C1335.96 2974.19 1330.24 2964.7 1318.67 2964.7C1311.91 2964.7 1305.8 2969.25 1300.21 2974.06L1296.7 2977.18C1294.1 2969.38 1288.9 2964.7 1280.71 2964.7C1273.95 2964.7 1267.84 2969.25 1262.25 2974.06L1260.17 2975.88L1259.91 2966H1246.39V2966.26L1248.73 2982.9L1247.17 3031H1261.73L1260.43 2982.77C1264.33 2979.78 1269.14 2977.83 1273.43 2977.83Z" fill="black"/>
<path d="M1112.52 3034.8C1137.09 3034.8 1144.5 3017.77 1144.5 3005.03C1144.5 2990.47 1134.75 2978.12 1117.07 2977.73L1144.11 2937.3V2936H1091.2L1088.6 2948.22H1088.86L1124.22 2944.84L1101.73 2984.49V2989.04C1105.11 2988.13 1107.97 2987.87 1111.35 2987.87C1121.62 2987.87 1131.63 2993.98 1131.63 3005.94C1131.63 3015.95 1125.78 3024.14 1113.3 3024.14C1105.11 3024.14 1099.13 3020.76 1089.51 3015.04H1088.47L1091.07 3030.25C1097.96 3033.11 1105.76 3034.8 1112.52 3034.8Z" fill="black"/>
</g>
<defs>
<clipPath id="clip0">
<rect width="1599" height="3391" fill="white"/>
</clipPath>
</defs>
</svg>
