<svg width="1599" height="3391" viewBox="0 0 1599 3391" fill="none" xmlns="http://www.w3.org/2000/svg">
<g clip-path="url(#clip0)">
<path opacity="0.2" d="M140.786 1887.83C205.341 1959.3 131.904 1957.36 231.486 1974.94C257.536 2027.04 303.941 2076.48 365.291 2087.64C402.984 2094.49 435.647 2118.29 473.951 2120.42C520.218 2122.99 566.727 2136.58 615.838 2136.58C788.607 2136.58 969.806 2071.3 1129.06 2010.41C1256.54 1961.67 1343.31 1862.72 1411.48 1750.43C1429.47 1720.8 1435.42 1677.58 1443.81 1644.02C1454.77 1600.19 1472.18 1554.87 1489.16 1513.36C1502.23 1481.41 1559.81 1401.01 1530.92 1362.49C1494.2 1313.53 1473.81 1244.87 1461.77 1184.68C1448.47 1118.18 1448.29 1047.7 1431.69 981.279C1416.85 921.934 1407.98 866.917 1399.36 806.614C1378.42 660.004 1350.54 537.727 1261.96 415.078C1204.84 335.979 1154.18 293.845 1057.66 293.845C997.749 293.845 948.42 376.554 934.635 431.691C923.618 475.76 894.225 514.372 894.225 560.557C894.225 619.688 867.437 666.65 847.528 720.405C836.784 749.411 809.036 781.918 792.748 807.512C764.589 851.763 741.547 914.391 704.293 951.645C656.834 999.104 589.51 1020.83 537.711 1064.35C501.763 1094.54 467.287 1127.95 425.458 1150.56C363.188 1184.22 302.043 1209.74 236.425 1235.42C196.175 1251.17 183.67 1278.35 166.829 1316.24C153.793 1345.57 153.992 1376.44 130.908 1400.21C75.0562 1457.7 43.4812 1522.8 45.5959 1603.16C46.8142 1649.45 61.8024 1696.66 78.8227 1739.21C98.0885 1787.37 105.327 1848.57 140.786 1887.83Z" fill="#48567F"/>
<path d="M1108.66 2606.96C807.962 2606.96 719.827 2572.46 611.366 2546.43C502.905 2520.4 514.071 2448.36 486.003 2423.96C485.2 2423.26 644.225 2497.15 660.493 2494.7C730.127 2484.23 805.439 2471.3 872.503 2445.96C956.507 2414.22 1036.23 2462.72 1100.24 2397.8C1154.87 2342.39 1207.41 2282.97 1249.23 2218.01C1265.53 2192.7 1329.55 2133.25 1365.78 2165.14C1410.28 2204.31 1465.5 2255.65 1465.5 2316.13C1465.5 2395.83 1416.43 2443.01 1378.99 2507.08C1324.28 2600.72 1207.99 2606.96 1108.66 2606.96Z" fill="#777772"/>
<path d="M764.078 763.93C724.382 763.93 684.856 766.525 645.265 766.525C637.139 766.525 583.517 779.502 575.704 779.502C565.635 779.502 556.341 779.64 546.456 781.521C529.439 784.759 519.751 786.295 504.629 793.777C481.43 805.255 458.142 816.327 436.432 830.258C416.299 843.177 387.125 862.333 375.207 882.743C360.489 907.951 350.656 933.588 350.656 962.626C350.656 988.686 348.763 1018.07 357.476 1042.94C360.176 1050.65 364.05 1071.95 372.479 1075.96C381.7 1080.35 392.875 1079.25 401.273 1085.19C413.448 1093.79 423.642 1122.01 431.28 1135.22C445.788 1160.32 464.762 1178.67 484.927 1199.96C491.391 1206.79 529.343 1239.05 519.783 1249.28C501.103 1269.27 464.818 1269.64 442.04 1285.61C419.044 1301.74 392.271 1303.78 366.417 1314.16C339.369 1325.03 300.174 1341.66 290.795 1371.41C283.844 1393.45 272.297 1408.98 259.122 1427.79C243.858 1449.57 241.542 1472.92 241.542 1498.73C241.542 1529.1 233.097 1565.96 249.12 1591.88C251.503 1595.73 259.016 1596.07 263.214 1597.07C269.587 1598.58 275.944 1604.13 280.49 1608.46C288.377 1615.96 286.954 1626.46 288.067 1636C292.316 1672.38 320.645 1689.2 338.381 1719.2C344.438 1729.44 350.26 1736.85 358.84 1745.01C361.262 1747.31 379.217 1764.87 376.42 1765.63C361.035 1769.81 343.557 1769.81 328.227 1774.13C305.534 1780.53 282.895 1800.15 262.001 1811.19C247.713 1818.74 248.312 1837.57 238.208 1848.25C232.46 1854.33 226.783 1860.93 222.447 1868.15C219.051 1873.8 208.337 1877.82 203.352 1882.57C192.969 1892.45 179.656 1908.04 165.163 1911.69C132.488 1919.92 107.23 1950.2 88.1765 1976C76.8336 1991.36 67.8125 2017.24 79.3867 2034.54C84.3443 2041.96 84.9035 2049.24 94.2384 2051.85C104.147 2054.62 112.28 2062.09 119.395 2068.86C139.562 2088.05 151.646 2115.4 175.013 2131.87C184.539 2138.59 199.579 2149.9 212.142 2149.9C220.743 2149.9 236.278 2152.25 243.058 2157.68C251.793 2164.68 252.799 2181.89 258.061 2191.28C269.511 2211.71 297.465 2230.25 317.316 2242.47L320.119 2244.19C337.713 2255.03 355.292 2265.85 373.389 2275.92C382.422 2280.95 390.183 2288.52 400.97 2289.47C451.976 2294 507.454 2287.84 557.67 2279.09C632.88 2265.99 707.876 2268.67 783.93 2266.4C864.929 2264 945.423 2250.13 1026.56 2248.67C1099.77 2247.35 1172.16 2248.27 1244.79 2238.14C1263.19 2235.58 1281.51 2236.28 1299.95 2234.39C1348.28 2229.46 1401.87 2217.7 1444.53 2194.6C1474.68 2178.27 1496.04 2143.72 1519.39 2120.19C1536.29 2103.16 1540 2086.64 1540 2064.1C1540 2029.05 1521.8 1997.49 1518.18 1963.03C1515.5 1937.6 1492.82 1905.16 1474.53 1887.76C1458.47 1872.47 1447.75 1850.26 1428.76 1838.44C1412.05 1828.05 1393.43 1813.91 1381.78 1798.21C1371.04 1783.73 1348.72 1775.09 1333.59 1765.2C1316.46 1753.99 1294.11 1740.95 1273.28 1737.8C1256.93 1735.33 1240.03 1729.44 1223.42 1729.44C1216.4 1729.44 1198.07 1733.12 1201.75 1725.25C1215.42 1695.98 1239.51 1686.91 1263.88 1667.14C1296.01 1641.08 1318.15 1608.09 1339.5 1573.71C1366.71 1529.9 1345.34 1474.35 1341.02 1427.07C1338.93 1404.23 1323.21 1391.09 1303.28 1379.63C1290.94 1372.52 1283.79 1362.85 1272.67 1354.54C1264.6 1348.51 1261.25 1339.16 1252.36 1333.77C1233.73 1322.49 1214.76 1312.79 1194.78 1303.78C1165.84 1290.74 1135.95 1284.46 1109.3 1266.15L1108.65 1265.7C1101.36 1260.69 1093.29 1255.13 1083.84 1254.47C1078.55 1254.1 1055.15 1253.12 1058.69 1247.84C1073.74 1225.33 1086.54 1201.92 1105.67 1182.37C1119.1 1168.64 1127.71 1149.03 1144.76 1139.12C1174.62 1121.76 1190.16 1103.75 1205.08 1074.23C1212.44 1059.66 1218.81 1053.81 1231.75 1044.24C1239.24 1038.7 1246.86 1034.1 1252.36 1027.37C1263.32 1013.97 1257.95 977.313 1254.18 961.184C1248.56 937.131 1246.2 909.124 1232.97 888.511C1224.81 875.811 1216.73 863.303 1208.72 850.445C1203.5 842.079 1196.23 826.781 1187.5 821.03C1168.26 808.359 1152.03 805.32 1130.67 798.968C1116.79 794.84 1101.94 790.998 1087.78 787.866C1079.16 785.957 1073.24 780.084 1065.35 776.33C1051.07 769.533 1024.32 773.578 1008.07 771.86C987.141 769.648 968.543 758.58 948.056 754.125C927.745 749.708 903.194 753.548 882.133 753.548C863.235 753.548 847.11 758.111 828.637 758.739C807.035 759.473 786.199 763.93 764.078 763.93Z" fill="white"/>
<path d="M389.989 2307.91C366.884 2282.08 351.888 2265.32 319.866 2243.76C309.202 2222.43 287.249 2203.28 309.212 2175.83C315.226 2168.31 307.505 2148.94 309.212 2139.55C311.661 2126.08 330.837 2112.78 336.623 2100.05C345.706 2080.06 387.183 2087.14 402.419 2072.75C429.49 2047.18 496.363 2025.58 532.145 2025.58C590.221 2025.58 642.443 2052.98 698.562 2055.06C765.334 2057.53 832.598 2066.85 899.049 2066.85C933.745 2066.85 964.179 2074.56 997.982 2078.32C1024.81 2081.3 1054.64 2097.19 1081.85 2089.13C1135.5 2073.23 1184.32 2062.96 1232.54 2096.34C1268.51 2121.24 1282.3 2165.97 1260.38 2205.43C1252.02 2220.49 1252.63 2245.72 1246.95 2262.76C1243.61 2272.79 1244.57 2324.41 1238.11 2328.93C1199.83 2355.73 1132.05 2316.07 1096.91 2351.21C1077.89 2370.24 1069.3 2389.76 1048.1 2406.24C1031.96 2418.8 1014.81 2405.11 997.982 2395.76C971.775 2381.2 973.079 2379.89 941.636 2385.6C919.202 2389.68 913.08 2419.48 891.842 2420.66C872.489 2421.73 857.053 2417.7 838.772 2415.09C791.273 2408.3 754.432 2426.55 709.045 2426.55C658.06 2426.55 616.491 2402.97 564.577 2402.97C530.105 2402.97 527.906 2397.76 501.352 2379.38C478.388 2363.48 465.476 2348.74 437.799 2341.05C408.171 2332.82 408.99 2329.14 390.626 2308.62L389.989 2307.91Z" fill="#5E5F62"/>
<path d="M385.422 2102.11H336.671C336.671 2111.86 338.009 2121.02 338.009 2130.87V2150.12C338.009 2156.72 361.262 2152.66 365.58 2152.13C382.943 2149.99 398.919 2147.59 416.486 2147.59C448.28 2147.59 479.697 2140.9 511.535 2140.9C542.455 2140.9 572.298 2143.54 602.943 2147.59C634.31 2151.74 665.576 2151.04 696.952 2154.95C775.146 2164.69 848.77 2193.94 926.215 2207.27C989.777 2218.21 1062.19 2222.32 1124.93 2203.78C1161.19 2193.06 1196.18 2175.23 1222.14 2147.74C1229.16 2140.31 1230.89 2136.12 1230.16 2125.97C1229.17 2112 1226.56 2098.06 1224.22 2084.28C1222.76 2075.67 1218.78 2067.38 1212.92 2060.79C1207.79 2055.02 1197.47 2055.17 1190.78 2051.21C1173.35 2040.88 1156.61 2027.37 1136.01 2024.53C1126.26 2023.18 1118.96 2017.56 1110.44 2013.38C1104.18 2010.31 1094.87 2015.39 1088.74 2016.5C1078.37 2018.38 1067.89 2017.84 1057.38 2017.84C1034.76 2017.84 1012.81 2021.63 990.646 2025.86C972.689 2029.29 954.163 2035.42 935.653 2033.59C914.871 2031.54 893.781 2034.31 873.079 2031.66C845.101 2028.08 818.711 2014.72 790.738 2012.78C773.783 2011.61 756.019 2013.66 739.609 2018.14C726.593 2021.69 712.629 2029.38 699.033 2029.88C686.782 2030.33 677.669 2035.46 666.334 2039.24C640.964 2047.7 617.887 2060.95 590.83 2064.95C579.146 2066.68 567.815 2070.53 556.199 2072.68C531.317 2077.3 506.283 2081.1 481.289 2085.02C469.08 2086.94 455.587 2088.24 443.685 2091.71C437.579 2093.49 433.179 2099.31 426.89 2101.22C414.707 2104.93 398.155 2102.11 385.422 2102.11Z" fill="#5E5F62"/>
<path d="M170.09 2133.27C191.407 2181.23 237.278 2190.48 285.483 2190.48C278.959 2210.05 250.216 2247.68 278.882 2247.68C290.046 2247.68 347.229 2240.47 351.247 2254.53C359.939 2284.95 318.502 2269.88 301.129 2280.93C277.668 2295.86 298.438 2311.6 314.086 2320.29C329.287 2328.74 373.494 2320.81 373.494 2300.49C373.494 2275.5 364.173 2249.98 352.469 2230.08C341.737 2211.84 316.287 2188.79 316.287 2167.49C316.287 2137.33 327.772 2114.04 329.488 2084.86C330.196 2072.83 353.166 2050.84 361.27 2041.83C380.704 2020.24 400.805 2000.91 426.301 1985.85C459.472 1966.24 497.365 1940.38 536.559 1935.48C591.038 1928.67 641.761 1907.09 696.446 1900.03C724.772 1896.38 751.707 1895.63 780.302 1895.63C797.101 1895.63 826.79 1896.13 842.398 1889.03C855.411 1883.12 902.512 1872.19 901.562 1856.03C901.389 1853.09 885.693 1835.46 881.515 1834.27C865.098 1829.58 864.019 1814.81 860.979 1800.29C856.935 1780.97 845.211 1738.52 830.175 1724.99C818.792 1714.74 762.449 1722.89 751.942 1732.81C738.891 1745.14 727.526 1763.61 707.937 1763.61C691.583 1763.61 665.255 1770.45 659.531 1750.41C654.898 1734.2 649.059 1719.61 632.149 1719.61C616.106 1719.61 597.494 1714.56 586.921 1728.65C576.205 1742.94 578.074 1761.75 570.541 1776.82C566.061 1785.78 550.665 1801.42 542.916 1807.62C534.791 1814.12 525.862 1829.62 514.312 1829.62C494.221 1829.62 493.806 1797.18 487.909 1783.91C483.802 1774.67 448.461 1782.61 441.703 1785.62C431.344 1790.22 435.102 1806.93 435.102 1816.42C435.102 1828.76 436.973 1895.34 417.5 1878.03C403.359 1865.46 348.367 1823.29 330.466 1839.4C322.591 1846.49 332.5 1864.97 336.089 1871.43C343.038 1883.94 342.69 1893.79 342.69 1907.86C342.69 1938.06 301.806 1959.18 287.439 1928.39C277.086 1906.21 271.55 1898.52 245.878 1900.03C240.778 1900.33 257.406 1929.27 259.079 1933.04C267.018 1950.9 260.471 1965.83 259.079 1984.62C257.902 2000.52 230.916 1989.94 221.919 1985.85C206.276 1978.74 201.563 1982.99 185.248 1983.65C172.361 1984.16 183.826 2008.67 186.715 2014.45C194.312 2029.64 213.986 2029.5 226.075 2038.9C236.252 2046.81 248.451 2059.85 253.701 2071.66C259.402 2084.49 252.849 2104.71 250.034 2117.38C248.963 2122.19 219.815 2096.89 215.074 2094.64C204.415 2089.59 175.931 2091.47 164.956 2093.91C156.801 2095.72 167.868 2128.27 170.09 2133.27Z" fill="#777772"/>
<path d="M971.985 1804.83C950.865 1820.67 957.969 1869.46 957.969 1891.79C973.906 1899.76 1013.28 1908.52 1031.19 1909.95C1055.72 1911.91 1076.23 1945.16 1096.84 1956C1113.73 1964.89 1132.3 1980.69 1151.18 1984.46C1159.92 1986.21 1173.86 1990.59 1179.22 1998.62C1192.59 2018.68 1240.96 2043.59 1232.13 2071.85C1226.79 2088.94 1228.95 2120.28 1238.57 2135.78C1251.61 2156.78 1249.09 2190.67 1244.29 2214.15C1242.39 2223.44 1228.3 2266.28 1248.87 2265.07C1258.77 2264.49 1270.67 2253.59 1279.76 2249.05C1291.41 2243.22 1361.72 2254.81 1356.84 2232.89C1353.53 2217.99 1361.62 2190.61 1338.97 2193.13C1326.02 2194.57 1301.95 2203.48 1308.07 2185.12C1313.45 2168.98 1323.01 2152.84 1333.82 2139.5C1347.17 2123 1362.15 2115.64 1379.01 2103.46C1384.59 2099.42 1400.75 2094.74 1400.75 2086.87C1400.75 2080.51 1398.74 2061.38 1389.88 2061.69C1375.01 2062.23 1359.09 2076.84 1347.26 2084.29C1333.98 2092.66 1336.39 2090.25 1336.39 2075.42C1336.39 2048.44 1331.56 2016.66 1342.97 1991.76C1350.05 1976.31 1357.26 1969.62 1369.71 1958.72C1376.15 1953.09 1377.58 1950.03 1377.58 1941.85C1377.58 1921.59 1358.47 1910.78 1342.97 1925.25C1335.5 1932.23 1326.34 1934.5 1318.37 1940.7C1311.7 1945.89 1302.81 1953.57 1293.92 1953.57C1271.93 1953.57 1266.89 1928.88 1266.89 1911.81C1266.89 1888.2 1269.32 1876.51 1292.63 1865.47C1306.59 1858.86 1311.15 1837.66 1295.2 1830.58C1279.59 1823.64 1267.14 1839.7 1254.01 1843.45C1243.8 1846.37 1232.78 1851.48 1221.98 1850.46C1210.07 1849.32 1205.82 1838.32 1197.52 1831.58C1180.5 1817.75 1181.54 1798.55 1193.37 1779.95C1205.41 1761.03 1163.08 1764.54 1155.05 1769.65C1145.79 1775.54 1133.62 1816.53 1117.72 1792.68C1107.1 1776.75 1090.18 1803.95 1078.96 1804.26C1071.53 1804.47 1062.49 1805.81 1055.79 1802.26C1050.57 1799.49 1047.45 1790.53 1042.92 1786.24C1037.46 1781.06 1027.72 1786.48 1021.75 1788.81C1006.64 1794.73 985.143 1794.96 971.985 1804.83Z" fill="#39393E"/>
<path d="M278.325 2238.02C247.816 2218.07 254.393 2235.92 254.393 2249.2C232.57 2249.2 246.267 2270.46 246.267 2288.81C246.267 2319.04 252.236 2328.98 274.849 2351.97C305.879 2383.51 339.091 2413.4 368.127 2446.79C390.897 2472.98 440.862 2508.36 475.695 2517.86C516.153 2528.89 556.519 2528.48 598.135 2528.48C659.167 2528.48 720.376 2531.96 781.6 2531.96L784.983 2531.96C851.125 2531.96 914.955 2531.97 979.55 2514.58C1028.29 2501.46 1076.29 2496.6 1123.62 2478.08C1192.31 2451.2 1221.87 2381.7 1278.5 2339.22C1294.42 2327.28 1285.35 2282.53 1275.22 2292.1C1257.42 2308.91 1240.91 2327.35 1223.08 2344.24C1206.7 2359.76 1198.47 2353.01 1179.82 2358.34C1158.99 2364.29 1132.6 2382.74 1120.72 2401.41C1111.27 2416.26 1099.59 2418.47 1086.73 2430.38C1073.74 2442.41 1050.83 2458.28 1032.66 2458.96C1014.76 2459.62 1000.47 2453.46 986.888 2441.58C978.746 2434.45 950.67 2421.65 942.277 2434.62C924.793 2461.65 895.993 2472.59 866.574 2483.29C842.105 2492.19 841.433 2477.08 826.791 2462.43C805.22 2440.86 775.051 2455.48 754.563 2469.39C733.388 2483.76 705.643 2502.1 680.984 2481.55C669.588 2472.06 656.639 2463.64 647.767 2451.81C635.133 2434.97 619.926 2432.03 600.066 2437.33C581.132 2442.38 571.009 2431.89 554.296 2426.32C538.539 2421.07 521.453 2420.78 505.629 2415.5C485.384 2408.76 467.583 2400.63 452.135 2385.18C441.905 2374.95 426.767 2378.79 417.373 2371.28C407.045 2363.02 384.421 2360.36 371.217 2352.93C356.051 2344.4 337.065 2334.75 329.695 2318.17C317.884 2291.59 302.295 2253.7 278.325 2238.02Z" fill="#A1A2A6"/>
<path d="M161.753 2054.83C162.212 2055.52 162.982 2055.94 163.809 2055.95C164.637 2055.95 165.414 2055.55 165.886 2054.87C177.005 2038.86 177.383 2020.13 177.741 2002.37C177.767 2001.05 177.794 1999.73 177.824 1998.43C178.276 1979.24 179.603 1961.35 193.623 1946.93C197.976 1942.45 201.667 1937.45 205.242 1932.6L205.558 1932.17C209.268 1927.14 212.877 1922.28 217.137 1918.02C222.386 1912.78 228.173 1907.98 234.07 1903.15C234.526 1902.78 234.983 1902.41 235.441 1902.03C240.865 1897.6 246.353 1893.12 251.414 1888.31C259.507 1880.62 271.079 1874.89 282.253 1874.89C286.263 1874.89 289.392 1873.07 291.925 1870.95C293.187 1869.89 294.349 1868.72 295.42 1867.6C295.676 1867.34 295.925 1867.08 296.169 1866.82C296.974 1865.98 297.727 1865.19 298.498 1864.45C301.554 1861.53 304.932 1859.28 308.497 1856.9C309.371 1856.32 310.256 1855.73 311.15 1855.12C315.606 1852.09 320.143 1848.66 323.708 1843.54C325.175 1841.44 326.526 1839.08 327.833 1836.72C328.118 1836.21 328.399 1835.7 328.68 1835.19C329.712 1833.32 330.733 1831.47 331.822 1829.67C334.606 1825.06 337.585 1821.2 341.458 1818.98C347.014 1815.81 354.209 1813.53 361.808 1811.52C364.53 1810.81 367.327 1810.12 370.1 1809.44C374.909 1808.26 379.643 1807.1 383.779 1805.82C387.493 1804.68 391.135 1803.61 394.714 1802.55C416.4 1796.16 435.772 1790.44 454.66 1774.33C457.977 1771.5 461.273 1768.17 464.57 1764.77C465.065 1764.25 465.56 1763.74 466.056 1763.23C468.887 1760.3 471.735 1757.35 474.69 1754.56C481.664 1747.98 488.895 1742.63 497.017 1740.86C507.051 1738.68 516.849 1736.02 526.597 1733.37C529.428 1732.61 532.255 1731.84 535.083 1731.09C544.276 1728.63 553.171 1724.77 561.863 1721C564.529 1719.84 567.176 1718.69 569.807 1717.59C581.143 1712.86 592.354 1708.99 604.375 1708.77C612.259 1708.63 620.047 1709.49 627.999 1710.45C628.478 1710.5 628.957 1710.56 629.437 1710.62C636.881 1711.51 644.484 1712.42 652.21 1712.5C660.877 1712.59 669.374 1711.64 677.694 1710.69L678.207 1710.63C686.397 1709.69 694.415 1708.77 702.528 1708.77C704.311 1708.77 706.112 1708.79 707.927 1708.81C717.745 1708.9 727.963 1709 737.896 1706.41C740.093 1705.84 742.151 1705.24 744.132 1704.67C750.076 1702.96 755.33 1701.44 761.585 1701.3C769.576 1701.13 777.45 1700.77 785.297 1700.42C796.149 1699.93 806.95 1699.44 817.94 1699.44C823.529 1699.44 828.403 1701.02 833.667 1702.83C833.907 1702.92 834.148 1703 834.391 1703.08C839.374 1704.8 844.757 1706.66 850.984 1707C865.897 1707.83 880.908 1708.09 895.865 1708.34C898.428 1708.38 900.989 1708.42 903.548 1708.47C921.066 1708.78 938.496 1709.23 955.742 1710.73C957.853 1710.92 958.881 1711.58 959.461 1712.27C960.098 1713.03 960.513 1714.19 960.673 1715.91C960.833 1717.63 960.717 1719.6 960.543 1721.78C960.521 1722.06 960.498 1722.34 960.475 1722.63C960.323 1724.49 960.159 1726.49 960.199 1728.31C960.327 1734.18 962.33 1738.57 965.72 1741.69C969.029 1744.73 973.429 1746.35 977.999 1747.23C982.585 1748.11 987.58 1748.28 992.288 1748.25C994.601 1748.23 996.875 1748.16 999.013 1748.1L999.148 1748.09C1001.34 1748.03 1003.37 1747.97 1005.21 1747.97C1015.78 1747.97 1026.31 1747.5 1036.77 1747.04L1036.82 1747.03C1047.33 1746.57 1057.77 1746.1 1068.26 1746.1C1079.87 1746.1 1090.4 1747.9 1100.77 1752.91C1102.02 1753.51 1103.1 1754.15 1104.14 1754.81C1104.4 1754.98 1104.66 1755.15 1104.94 1755.32C1105.71 1755.82 1106.51 1756.34 1107.31 1756.8C1109.63 1758.12 1112.19 1759.12 1115.93 1759.17C1123.87 1759.27 1132.93 1762.17 1142.34 1765.67C1144.24 1766.37 1146.15 1767.1 1148.06 1767.82C1155.47 1770.65 1162.94 1773.5 1169.69 1774.98C1172.87 1775.67 1175.96 1776.17 1178.92 1776.63C1179.4 1776.7 1179.87 1776.77 1180.35 1776.84C1182.82 1777.22 1185.2 1777.58 1187.55 1778.03C1193.12 1779.09 1198.37 1780.6 1203.6 1783.74C1207.11 1785.84 1208.21 1787.22 1209.46 1788.79L1209.64 1789.02C1211.22 1790.98 1213.03 1793.08 1218.04 1796.13C1221.81 1798.42 1226.85 1800.34 1232.2 1802.16C1234.36 1802.9 1236.55 1803.61 1238.77 1804.34C1242.16 1805.44 1245.59 1806.56 1249 1807.78C1254.58 1809.79 1259.75 1811.97 1263.87 1814.57C1268.01 1817.17 1270.82 1820.04 1272.07 1823.3C1279.42 1842.53 1289.96 1853.07 1307.68 1863.36L1308.94 1861.19L1307.68 1863.36L1308.32 1863.73C1314.9 1867.55 1318.65 1869.77 1320.95 1872.77C1323.11 1875.58 1324.17 1879.38 1324.17 1886.91C1324.17 1896.27 1326.66 1901.86 1331.14 1906.39C1333.29 1908.56 1335.84 1910.44 1338.57 1912.34C1339.17 1912.76 1339.79 1913.19 1340.41 1913.62C1342.64 1915.17 1345.01 1916.8 1347.54 1918.75C1351.54 1921.84 1353.37 1926.52 1355.33 1932.16C1355.44 1932.48 1355.55 1932.79 1355.66 1933.11C1357.45 1938.31 1359.49 1944.21 1363.99 1948.72C1365.5 1950.23 1366.87 1951.51 1368.04 1952.61C1368.59 1953.13 1369.1 1953.6 1369.55 1954.04C1371.02 1955.45 1371.99 1956.49 1372.69 1957.59C1374.01 1959.63 1374.65 1962.25 1374.56 1968.8C1374.53 1971.65 1373.77 1976.55 1372.82 1982.76C1372.55 1984.52 1372.27 1986.38 1371.98 1988.32C1370.69 1996.97 1369.37 2007.06 1369.29 2016.33C1369.21 2025.46 1370.31 2034.37 1374.34 2040.25C1376.43 2043.29 1379.31 2045.53 1383.11 2046.51C1386.85 2047.48 1391.26 2047.16 1396.37 2045.57C1410.57 2041.13 1417.16 2029.5 1418.96 2016.8C1420.75 2004.19 1417.92 1990.17 1413.02 1979.89C1404.22 1961.41 1397.91 1941.62 1392.54 1921.72C1388.07 1905.16 1382.98 1891.17 1368.13 1879.55C1357.99 1871.61 1349.08 1862.48 1340.37 1852.98C1337.85 1850.23 1335.34 1847.44 1332.82 1844.64C1326.67 1837.82 1320.47 1830.92 1313.92 1824.38C1301.42 1811.88 1286.42 1800.18 1272 1790.08C1245.64 1771.63 1218.88 1755.59 1187.46 1751.71C1161.64 1748.52 1138.47 1744.57 1117.46 1728.81C1114.75 1726.78 1111.54 1725.7 1108.29 1725.06C1105.09 1724.43 1101.66 1724.19 1098.42 1723.96L1098.29 1723.95C1094.94 1723.72 1091.78 1723.49 1088.91 1722.91C1086.05 1722.34 1083.66 1721.46 1081.8 1720.04C1079.03 1717.94 1075.87 1716.04 1072.84 1714.22C1072.25 1713.87 1071.66 1713.52 1071.08 1713.17C1067.46 1710.97 1064.12 1708.82 1061.48 1706.32C1061.18 1706.04 1060.9 1705.77 1060.63 1705.52C1060.07 1704.98 1059.57 1704.5 1059.14 1704.12C1058.45 1703.52 1057.73 1702.98 1056.8 1702.61C1055.89 1702.25 1054.96 1702.1 1053.94 1702.01C1053.13 1701.94 1052.12 1701.9 1050.89 1701.84C1050.61 1701.83 1050.32 1701.82 1050.02 1701.8C1042.09 1701.44 1034.31 1700.04 1026.42 1698.4C1024.67 1698.04 1022.9 1697.67 1021.13 1697.29C1014.99 1695.98 1008.76 1694.65 1002.46 1693.74C997.583 1693.03 992.715 1692.5 987.917 1691.98C985.847 1691.75 983.79 1691.53 981.751 1691.29C974.94 1690.5 968.232 1689.56 961.512 1687.97C959.578 1687.52 957.635 1686.99 955.67 1686.45C949.883 1684.87 943.904 1683.24 937.397 1683.24C934.992 1683.24 932.602 1683.25 930.221 1683.27C925.492 1683.3 920.796 1683.33 916.082 1683.24C912.261 1683.17 908.609 1682.26 904.737 1681.14C904.133 1680.96 903.522 1680.78 902.903 1680.6C899.636 1679.64 896.163 1678.61 892.551 1678.08C885.084 1676.98 877.32 1676.88 869.668 1677.04C866.633 1677.11 863.646 1677.22 860.698 1677.32C856.114 1677.48 851.622 1677.64 847.182 1677.64C831.29 1677.64 815.956 1676.98 800.151 1675.37C788.126 1674.14 776.009 1671.87 763.748 1669.57C761.173 1669.09 758.591 1668.6 756.003 1668.13C741.152 1665.39 726.125 1662.95 711.174 1662.71C707.311 1662.65 703.281 1662.4 699.071 1662.13C695.795 1661.93 692.411 1661.72 688.911 1661.59C681.139 1661.29 673.173 1661.41 666.17 1663.09C661.976 1664.09 658.258 1666.69 654.988 1669.22C654.157 1669.86 653.358 1670.49 652.581 1671.11C650.147 1673.05 647.929 1674.81 645.63 1676.09C638.045 1680.3 629.372 1683.49 620.766 1686.66C617.725 1687.77 614.692 1688.89 611.718 1690.05C589.606 1698.65 565.607 1700.04 541.801 1700.04C538.399 1700.04 534.954 1699.99 531.486 1699.95C523.687 1699.85 515.771 1699.75 507.972 1700.15C500.199 1700.54 493.398 1703.47 487.257 1707.3C482.214 1710.45 477.482 1714.3 473.006 1717.95C472.073 1718.71 471.151 1719.46 470.24 1720.19C463.23 1725.83 456.332 1731.59 449.45 1737.34C446.553 1739.76 443.659 1742.18 440.761 1744.58C439.631 1745.52 438.572 1746.51 437.573 1747.45C437.474 1747.55 437.376 1747.64 437.278 1747.73C436.373 1748.59 435.519 1749.39 434.637 1750.15C432.698 1751.83 430.791 1753.15 428.527 1753.87C415.995 1757.9 402.135 1760.41 388.634 1762.86C385.661 1763.39 382.704 1763.93 379.784 1764.48C377.006 1765 374.231 1765.44 371.479 1765.87C356.976 1768.17 343.064 1770.37 332.345 1783.95C319.012 1800.84 305.668 1815.39 289.528 1829.44C287.867 1830.89 286.217 1832.33 284.576 1833.76C272.252 1844.52 260.391 1854.88 247.339 1864.92C244.687 1866.96 242.188 1869 239.73 1871C235.219 1874.68 230.846 1878.25 225.917 1881.51C224.935 1882.15 223.935 1882.75 222.892 1883.37L222.711 1883.47C221.623 1884.12 220.483 1884.8 219.391 1885.55C217.185 1887.06 215.039 1888.93 213.495 1891.71C207.624 1902.28 200.19 1911.66 192.488 1921.06C191.702 1922.02 190.913 1922.98 190.123 1923.95C183.208 1932.36 176.188 1940.91 170.227 1950.28C166.61 1955.96 165.918 1963.72 165.99 1971.08C166.027 1974.82 166.268 1978.61 166.493 1982.14L166.498 1982.21C166.724 1985.75 166.933 1989.01 166.933 1991.85C166.933 1994.34 166.25 1998.75 165.234 2004.39C164.885 2006.33 164.498 2008.4 164.097 2010.55C163.358 2014.51 162.57 2018.74 161.867 2022.92C160.78 2029.37 159.867 2035.88 159.622 2041.38C159.5 2044.13 159.541 2046.7 159.833 2048.93C160.12 2051.12 160.676 2053.22 161.753 2054.83Z" fill="#D6DCE0" stroke="#D6DCE0" stroke-width="5" stroke-linecap="round" stroke-linejoin="round"/>
<path d="M456.692 1694.26C444.994 1687.71 431.521 1686.42 430.768 1670.61C429.535 1668.15 418.365 1658.62 418.156 1654.85C417.95 1651.14 418.156 1647.35 418.156 1643.64C418.156 1629.34 427.615 1616.69 427.615 1602.04C427.615 1596.34 431.51 1581.82 435.497 1577.6C439.712 1573.14 445.428 1569.76 450.561 1566.48C460.022 1560.42 470.814 1550.87 481.565 1547.65C500.551 1541.95 512.42 1558.68 530.085 1558.68C547.915 1558.68 568.648 1556.63 584.735 1548.26C601.2 1539.7 613.471 1531.79 623.446 1516.47C650.371 1475.12 704.561 1476.71 748.512 1476.71C773.61 1476.71 799.004 1476.16 824.007 1478.63C841.666 1480.38 858.755 1484.85 876.293 1486.95C894.99 1489.2 915.833 1491.34 934.009 1496.33C951.709 1501.18 970.068 1511.8 985.934 1520.97L987.083 1521.64C999.761 1528.97 1009.28 1534.82 1012.48 1549.22C1014.25 1557.19 1014.05 1565.84 1015.98 1573.57C1022.1 1598.03 1044.66 1615.8 1067.66 1624.54C1081.79 1629.92 1098.15 1631 1113.02 1633.13C1117.89 1633.82 1127.39 1632.57 1131.42 1636.02C1136.06 1640 1133.87 1653.22 1133.87 1658.88C1133.87 1666.78 1136.22 1677.02 1131.5 1683.31C1128.31 1687.56 1130.19 1692.91 1124.41 1694.61C1112.72 1698.05 1108.65 1705.07 1108.65 1716.33C1108.65 1729.98 1085.63 1728.94 1075.54 1728.94L1075.02 1728.94C1067.53 1728.94 1060.48 1728.94 1053.12 1730.17C1040.51 1732.27 1027.83 1728.45 1015.81 1734.46C1008.13 1738.3 1009.88 1747.9 1008.45 1755.04C1006.47 1764.94 1004.46 1777.95 997.067 1785.34C988.325 1794.09 964.561 1780.41 955.729 1776.23C936.752 1767.27 913.231 1769.93 892.758 1769.93C887.705 1769.93 881.493 1768.86 876.906 1771.15C871.598 1773.81 868.487 1783.93 865.082 1788.67C857.602 1799.08 843.174 1805.31 834.341 1793.23C824.045 1779.14 802.906 1774.29 786.697 1774.66C769.857 1775.04 753.223 1788.92 737.039 1792.87C725.73 1795.64 714.371 1799.31 702.795 1800.76C699.093 1801.22 686.902 1803.71 683.352 1801.11C673.894 1794.17 666.423 1785.15 657.515 1777.72C650.625 1771.98 640.376 1765.2 630.978 1765.2C623.541 1765.2 616.666 1768.18 609.258 1768.35C603.469 1768.49 600.556 1770.3 595.508 1771.42C589.978 1772.65 584.164 1767.42 579.305 1765.55C573.421 1763.29 564.113 1756.41 560.913 1750.92C557.338 1744.79 556.5 1737.18 550.579 1732.44C541.84 1725.45 534.895 1717.18 522.991 1716.42C509.981 1715.58 496.705 1716.33 483.667 1716.33C478.835 1716.33 474.177 1717.33 472.106 1711.95C468.775 1703.29 464.947 1698.88 456.692 1694.26Z" fill="#5E5F62"/>
<path d="M327.04 1565.32C342.956 1601.12 377.204 1608.03 413.194 1608.03C408.323 1622.64 386.863 1650.73 408.266 1650.73C416.601 1650.73 459.295 1645.35 462.294 1655.85C468.784 1678.56 437.847 1667.3 424.876 1675.56C407.359 1686.7 422.867 1698.45 434.55 1704.94C445.899 1711.25 478.904 1705.32 478.904 1690.16C478.904 1671.5 471.945 1652.45 463.207 1637.59C455.194 1623.97 436.192 1606.77 436.192 1590.87C436.192 1568.35 444.768 1550.96 446.049 1529.18C446.577 1520.2 463.727 1503.78 469.778 1497.06C484.287 1480.94 499.295 1466.51 518.33 1455.26C543.096 1440.63 571.388 1421.32 600.651 1417.66C641.325 1412.58 679.196 1396.47 720.025 1391.2C741.173 1388.47 761.283 1387.91 782.632 1387.91C795.175 1387.91 817.341 1388.28 828.994 1382.99C838.71 1378.57 873.876 1370.41 873.166 1358.35C873.037 1356.16 861.318 1342.99 858.199 1342.1C845.942 1338.6 845.137 1327.58 842.867 1316.73C839.848 1302.31 831.095 1270.62 819.868 1260.52C811.37 1252.87 769.303 1258.95 761.459 1266.36C751.714 1275.56 743.229 1289.36 728.604 1289.36C716.394 1289.36 696.737 1294.46 692.463 1279.5C689.004 1267.39 684.645 1256.5 672.02 1256.5C660.041 1256.5 646.146 1252.73 638.252 1263.26C630.251 1273.92 631.647 1287.96 626.022 1299.21C622.677 1305.9 611.182 1317.58 605.397 1322.21C599.331 1327.06 592.664 1338.63 584.041 1338.63C569.04 1338.63 568.731 1314.41 564.328 1304.5C561.262 1297.61 534.875 1303.54 529.83 1305.78C522.096 1309.22 524.901 1321.69 524.901 1328.78C524.901 1337.99 526.298 1387.69 511.759 1374.77C501.202 1365.39 460.144 1333.91 446.779 1345.94C440.899 1351.23 448.298 1365.02 450.977 1369.84C456.165 1379.18 455.906 1386.54 455.906 1397.04C455.906 1419.58 425.381 1435.36 414.654 1412.37C406.925 1395.81 402.792 1390.07 383.624 1391.2C379.817 1391.42 392.231 1413.03 393.481 1415.84C399.408 1429.17 394.52 1440.32 393.481 1454.35C392.602 1466.21 372.453 1458.31 365.736 1455.26C354.057 1449.95 350.538 1453.13 338.357 1453.62C328.735 1454 337.296 1472.3 339.452 1476.62C345.124 1487.96 359.813 1487.85 368.839 1494.87C376.437 1500.78 385.546 1510.51 389.465 1519.32C393.722 1528.9 388.829 1544 386.727 1553.45C385.928 1557.05 364.165 1538.16 360.626 1536.48C352.668 1532.71 331.401 1534.11 323.207 1535.93C317.119 1537.29 325.381 1561.59 327.04 1565.32Z" fill="#777772"/>
<path d="M925.746 1320.13C909.978 1331.95 915.282 1368.37 915.282 1385.04C927.18 1390.99 956.577 1397.53 969.952 1398.6C988.261 1400.07 1003.57 1424.88 1018.96 1432.98C1031.58 1439.62 1045.44 1451.41 1059.54 1454.23C1066.06 1455.54 1076.47 1458.81 1080.47 1464.8C1090.45 1479.78 1126.57 1498.37 1119.98 1519.47C1115.99 1532.23 1117.6 1555.62 1124.78 1567.19C1134.51 1582.87 1132.64 1608.17 1129.05 1625.7C1127.63 1632.64 1117.11 1664.62 1132.47 1663.71C1139.86 1663.28 1148.75 1655.15 1155.53 1651.75C1164.23 1647.41 1216.72 1656.06 1213.09 1639.69C1210.61 1628.57 1216.65 1608.13 1199.74 1610.01C1190.07 1611.08 1172.11 1617.74 1176.67 1604.03C1180.69 1591.98 1187.83 1579.93 1195.89 1569.97C1205.86 1557.65 1217.05 1552.16 1229.64 1543.06C1233.81 1540.05 1245.87 1536.55 1245.87 1530.68C1245.87 1525.93 1244.36 1511.65 1237.75 1511.89C1226.65 1512.28 1214.76 1523.19 1205.93 1528.76C1196.02 1535.01 1197.82 1533.21 1197.82 1522.14C1197.82 1501.99 1194.21 1478.26 1202.73 1459.68C1208.01 1448.15 1213.4 1443.15 1222.7 1435.01C1227.5 1430.81 1228.57 1428.53 1228.57 1422.41C1228.57 1407.3 1214.3 1399.22 1202.73 1410.03C1197.15 1415.23 1190.31 1416.93 1184.36 1421.56C1179.38 1425.43 1172.75 1431.17 1166.1 1431.17C1149.69 1431.17 1145.92 1412.74 1145.92 1399.99C1145.92 1382.37 1147.74 1373.64 1165.14 1365.4C1175.56 1360.46 1178.97 1344.64 1167.06 1339.35C1155.41 1334.17 1146.11 1346.16 1136.31 1348.96C1128.68 1351.13 1120.46 1354.95 1112.39 1354.19C1103.5 1353.34 1100.33 1345.13 1094.14 1340.09C1081.43 1329.77 1082.2 1315.44 1091.04 1301.55C1100.03 1287.43 1068.42 1290.05 1062.42 1293.86C1055.51 1298.26 1046.43 1328.86 1034.55 1311.05C1026.62 1299.16 1013.99 1319.47 1005.62 1319.7C1000.07 1319.85 993.321 1320.85 988.318 1318.21C984.418 1316.14 982.09 1309.45 978.708 1306.25C974.628 1302.38 967.361 1306.43 962.905 1308.17C951.622 1312.58 935.57 1312.76 925.746 1320.13Z" fill="#39393E"/>
<path d="M407.85 1643.52C385.072 1628.63 389.982 1641.95 389.982 1651.86C373.689 1651.86 383.915 1667.74 383.915 1681.44C383.915 1704.01 388.372 1711.43 405.255 1728.59C428.422 1752.13 453.219 1774.45 474.897 1799.38C491.898 1818.93 529.202 1845.34 555.21 1852.43C585.415 1860.67 615.554 1860.36 646.624 1860.36C692.192 1860.36 737.891 1862.96 783.602 1862.96L786.127 1862.96C835.51 1862.96 883.166 1862.97 931.394 1849.98C967.783 1840.19 1003.62 1836.56 1038.96 1822.73C1090.24 1802.67 1112.31 1750.78 1154.6 1719.07C1166.48 1710.16 1159.71 1676.75 1152.14 1683.89C1138.86 1696.44 1126.53 1710.21 1113.21 1722.82C1100.99 1734.4 1094.85 1729.37 1080.92 1733.34C1065.37 1737.79 1045.66 1751.56 1036.79 1765.5C1029.74 1776.59 1021.02 1778.23 1011.42 1787.12C1001.72 1796.1 984.613 1807.96 971.045 1808.46C957.684 1808.96 947.015 1804.36 936.873 1795.48C930.794 1790.17 909.832 1780.61 903.566 1790.29C890.512 1810.47 869.009 1818.64 847.044 1826.63C828.776 1833.27 828.274 1821.99 817.342 1811.06C801.237 1794.95 778.712 1805.87 763.416 1816.25C747.606 1826.97 726.892 1840.67 708.481 1825.33C699.973 1818.24 690.304 1811.96 683.68 1803.13C674.248 1790.55 662.894 1788.36 648.066 1792.31C633.93 1796.08 626.372 1788.25 613.894 1784.09C602.13 1780.17 589.373 1779.96 577.559 1776.02C562.443 1770.98 549.153 1764.92 537.619 1753.39C529.981 1745.75 518.679 1748.62 511.665 1743C503.955 1736.84 487.063 1734.85 477.204 1729.31C465.882 1722.94 451.706 1715.73 446.204 1703.36C437.386 1683.52 425.746 1655.22 407.85 1643.52Z" fill="#A1A2A6"/>
<path d="M320.288 1507.12C320.747 1507.8 321.517 1508.22 322.345 1508.23C323.172 1508.24 323.95 1507.83 324.422 1507.16C332.837 1495.04 333.121 1480.86 333.385 1467.64C333.405 1466.64 333.425 1465.65 333.448 1464.67C333.785 1450.34 334.787 1437.22 345.064 1426.65C348.345 1423.28 351.123 1419.51 353.786 1415.9L354.031 1415.56C356.804 1411.8 359.472 1408.22 362.614 1405.08C366.507 1401.19 370.805 1397.62 375.209 1394.02C375.55 1393.74 375.893 1393.46 376.235 1393.18C380.281 1389.87 384.397 1386.51 388.194 1382.91C394.15 1377.25 402.64 1373.06 410.782 1373.06C413.985 1373.06 416.461 1371.61 418.411 1369.97C419.38 1369.16 420.267 1368.26 421.069 1367.43C421.265 1367.23 421.453 1367.03 421.637 1366.84C422.236 1366.21 422.784 1365.63 423.349 1365.09C425.586 1362.95 428.051 1361.31 430.708 1359.54C431.365 1359.1 432.034 1358.66 432.714 1358.2C436.055 1355.92 439.523 1353.31 442.253 1349.39C443.368 1347.79 444.39 1346 445.367 1344.24C445.581 1343.86 445.793 1343.47 446.004 1343.09C446.773 1341.7 447.527 1340.33 448.333 1339C450.4 1335.58 452.555 1332.81 455.3 1331.24C459.371 1328.92 464.674 1327.23 470.34 1325.74C472.348 1325.21 474.425 1324.7 476.491 1324.19C480.096 1323.3 483.666 1322.43 486.769 1321.47C489.53 1320.62 492.242 1319.82 494.911 1319.04C511.102 1314.26 525.703 1309.96 539.915 1297.84C542.417 1295.71 544.896 1293.2 547.357 1290.66C547.728 1290.27 548.099 1289.89 548.469 1289.51C550.583 1287.32 552.698 1285.13 554.893 1283.06C560.081 1278.17 565.374 1274.27 571.263 1272.99C578.771 1271.36 586.108 1269.37 593.389 1267.39C595.5 1266.82 597.607 1266.25 599.712 1265.68C606.625 1263.84 613.328 1260.93 619.826 1258.11C621.809 1257.25 623.773 1256.4 625.718 1255.58C634.166 1252.06 642.445 1249.21 651.295 1249.05C657.132 1248.94 662.906 1249.58 668.846 1250.29C669.206 1250.34 669.566 1250.38 669.927 1250.42C675.478 1251.09 681.186 1251.77 686.991 1251.83C693.507 1251.9 699.889 1251.18 706.096 1250.47L706.464 1250.43C712.59 1249.73 718.544 1249.05 724.565 1249.05C725.884 1249.05 727.221 1249.06 728.571 1249.07C735.899 1249.14 743.626 1249.22 751.131 1247.26C752.81 1246.83 754.368 1246.38 755.859 1245.95C760.272 1244.67 764.091 1243.57 768.672 1243.47C774.675 1243.34 780.562 1243.08 786.42 1242.81C794.502 1242.44 802.53 1242.08 810.734 1242.08C814.788 1242.08 818.336 1243.23 822.269 1244.58C822.454 1244.64 822.64 1244.71 822.827 1244.77C826.535 1246.05 830.63 1247.46 835.369 1247.73C846.517 1248.35 857.738 1248.54 868.905 1248.72C870.818 1248.76 872.729 1248.79 874.638 1248.82C887.716 1249.06 900.711 1249.39 913.563 1250.51C915.016 1250.63 915.611 1251.08 915.911 1251.43C916.268 1251.86 916.555 1252.57 916.669 1253.8C916.783 1255.02 916.701 1256.44 916.572 1258.08C916.555 1258.28 916.538 1258.49 916.521 1258.7C916.407 1260.09 916.282 1261.62 916.313 1263.01C916.411 1267.54 917.966 1270.99 920.639 1273.45C923.232 1275.84 926.646 1277.08 930.116 1277.75C933.602 1278.42 937.381 1278.54 940.909 1278.52C942.642 1278.5 944.346 1278.45 945.941 1278.41L946.044 1278.4C947.682 1278.35 949.19 1278.31 950.554 1278.31C958.459 1278.31 966.327 1277.96 974.138 1277.61L974.183 1277.61C982.026 1277.26 989.811 1276.92 997.625 1276.92C1006.22 1276.92 1013.98 1278.25 1021.62 1281.93C1022.53 1282.37 1023.3 1282.83 1024.07 1283.32C1024.26 1283.44 1024.45 1283.56 1024.65 1283.69C1025.23 1284.07 1025.85 1284.47 1026.47 1284.82C1028.27 1285.85 1030.28 1286.63 1033.21 1286.67C1039.01 1286.74 1045.68 1288.87 1052.72 1291.48C1054.12 1292 1055.53 1292.54 1056.95 1293.08C1062.49 1295.19 1068.13 1297.34 1073.22 1298.46C1075.61 1298.98 1077.93 1299.36 1080.15 1299.7C1080.51 1299.75 1080.87 1299.81 1081.22 1299.86C1083.06 1300.14 1084.83 1300.41 1086.57 1300.74C1090.69 1301.52 1094.53 1302.63 1098.35 1304.93C1100.87 1306.44 1101.64 1307.41 1102.54 1308.54L1102.69 1308.72C1103.9 1310.23 1105.31 1311.85 1109.13 1314.17C1112 1315.92 1115.83 1317.38 1119.82 1318.74C1121.45 1319.29 1123.1 1319.83 1124.75 1320.36C1127.27 1321.19 1129.82 1322.01 1132.35 1322.93C1136.51 1324.42 1140.32 1326.03 1143.33 1327.93C1146.37 1329.84 1148.34 1331.89 1149.2 1334.14C1154.75 1348.66 1162.74 1356.63 1176.06 1364.37L1177.32 1362.2L1176.06 1364.37L1176.54 1364.64L1177.8 1362.48L1176.54 1364.65C1181.49 1367.52 1184.16 1369.11 1185.78 1371.23C1187.27 1373.16 1188.06 1375.82 1188.06 1381.4C1188.06 1388.53 1189.96 1392.87 1193.45 1396.39C1195.09 1398.06 1197.04 1399.48 1199.08 1400.91C1199.53 1401.23 1200 1401.54 1200.46 1401.87C1202.13 1403.02 1203.88 1404.23 1205.75 1405.68C1208.57 1407.85 1209.89 1411.16 1211.36 1415.39C1211.44 1415.63 1211.53 1415.88 1211.61 1416.13C1212.94 1419.98 1214.5 1424.52 1217.98 1427.99C1219.11 1429.13 1220.15 1430.1 1221.02 1430.92C1221.43 1431.31 1221.81 1431.66 1222.14 1431.98C1223.22 1433.02 1223.91 1433.76 1224.39 1434.51C1225.26 1435.87 1225.75 1437.66 1225.68 1442.53C1225.66 1444.61 1225.1 1448.2 1224.39 1452.82C1224.19 1454.14 1223.98 1455.54 1223.76 1457.02C1222.8 1463.48 1221.81 1471.05 1221.74 1478.01C1221.68 1484.85 1222.5 1491.67 1225.63 1496.24C1227.26 1498.61 1229.53 1500.39 1232.54 1501.16C1235.48 1501.92 1238.9 1501.67 1242.79 1500.45C1253.69 1497.04 1258.72 1488.1 1260.09 1478.46C1261.45 1468.91 1259.3 1458.32 1255.6 1450.54C1249.05 1436.8 1244.35 1422.06 1240.35 1407.23C1237.01 1394.83 1233.16 1384.22 1221.9 1375.41C1214.37 1369.51 1207.75 1362.73 1201.25 1355.64C1199.38 1353.6 1197.51 1351.52 1195.63 1349.44C1191.04 1344.34 1186.39 1339.17 1181.48 1334.27C1172.12 1324.9 1160.89 1316.15 1150.11 1308.6C1130.41 1294.81 1110.33 1282.75 1086.7 1279.84C1067.42 1277.46 1050.28 1274.52 1034.74 1262.86C1032.61 1261.27 1030.11 1260.44 1027.63 1259.95C1025.21 1259.48 1022.62 1259.29 1020.21 1259.12L1020.09 1259.11C1017.58 1258.94 1015.27 1258.77 1013.17 1258.35C1011.08 1257.93 1009.4 1257.3 1008.12 1256.32C1006.02 1254.73 1003.63 1253.29 1001.36 1251.94C1000.92 1251.67 1000.49 1251.41 1000.06 1251.15C997.353 1249.52 994.913 1247.94 992.996 1246.13C992.787 1245.93 992.583 1245.73 992.386 1245.54C991.958 1245.13 991.566 1244.75 991.235 1244.46C990.695 1243.99 990.094 1243.54 989.304 1243.23C988.543 1242.92 987.769 1242.8 986.99 1242.74C986.368 1242.68 985.596 1242.65 984.679 1242.61C984.472 1242.6 984.257 1242.59 984.035 1242.58C978.168 1242.31 972.399 1241.27 966.518 1240.05C965.215 1239.78 963.902 1239.5 962.581 1239.22C957.997 1238.25 953.315 1237.25 948.591 1236.56C944.936 1236.03 941.283 1235.64 937.696 1235.24C936.154 1235.08 934.623 1234.91 933.11 1234.73C928.032 1234.14 923.053 1233.45 918.072 1232.27C916.671 1231.94 915.247 1231.55 913.797 1231.15C909.457 1229.97 904.873 1228.72 899.922 1228.72C898.117 1228.72 896.329 1228.73 894.549 1228.74C891.023 1228.76 887.531 1228.78 884.019 1228.72C881.255 1228.67 878.597 1228.01 875.713 1227.18C875.269 1227.05 874.817 1226.91 874.357 1226.78C871.919 1226.06 869.277 1225.28 866.531 1224.88C860.903 1224.04 855.064 1223.97 849.34 1224.09C847.055 1224.14 844.818 1224.22 842.615 1224.3C839.204 1224.42 835.874 1224.54 832.566 1224.54C820.719 1224.54 809.292 1224.05 797.516 1222.85C788.567 1221.94 779.552 1220.24 770.398 1218.53C768.473 1218.17 766.542 1217.8 764.605 1217.45C753.514 1215.41 742.25 1213.57 731.031 1213.39C728.148 1213.35 725.174 1213.16 722.052 1212.97C719.609 1212.81 717.074 1212.66 714.423 1212.55C708.608 1212.33 702.589 1212.42 697.272 1213.69C693.997 1214.48 691.128 1216.49 688.684 1218.38C688.044 1218.88 687.435 1219.36 686.848 1219.83C685.043 1221.26 683.444 1222.53 681.777 1223.46C676.161 1226.58 669.754 1228.94 663.343 1231.29C661.062 1232.13 658.782 1232.97 656.536 1233.84C640.143 1240.22 622.325 1241.26 604.564 1241.26C602.042 1241.26 599.48 1241.23 596.896 1241.19C591.063 1241.12 585.118 1241.04 579.275 1241.34C573.327 1241.65 568.144 1243.89 563.506 1246.78C559.703 1249.15 556.134 1252.06 552.791 1254.78C552.097 1255.34 551.413 1255.9 550.739 1256.44C545.5 1260.66 540.343 1264.97 535.202 1269.26C533.041 1271.06 530.882 1272.87 528.722 1274.66C527.861 1275.37 527.057 1276.13 526.312 1276.83C526.238 1276.9 526.164 1276.97 526.091 1277.04C525.414 1277.68 524.787 1278.27 524.14 1278.83C522.722 1280.06 521.373 1280.97 519.799 1281.48C510.486 1284.47 500.189 1286.34 490.111 1288.16C487.887 1288.57 485.673 1288.97 483.483 1289.38C481.444 1289.76 479.396 1290.08 477.354 1290.4C466.52 1292.11 455.854 1293.8 447.685 1304.14C437.749 1316.73 427.813 1327.56 415.798 1338.02C414.557 1339.1 413.325 1340.18 412.099 1341.25C402.897 1349.28 394.057 1357 384.329 1364.48C382.317 1366.03 380.438 1367.56 378.598 1369.06C375.249 1371.8 372.029 1374.42 368.372 1376.84C367.652 1377.31 366.917 1377.75 366.134 1378.21L366.005 1378.29C365.193 1378.77 364.326 1379.29 363.491 1379.86C361.8 1381.02 360.111 1382.49 358.893 1384.68C354.54 1392.51 349.023 1399.48 343.273 1406.5C342.686 1407.21 342.097 1407.93 341.506 1408.65C336.347 1414.93 331.08 1421.34 326.608 1428.37L328.717 1429.71L326.608 1428.37C323.8 1432.78 323.291 1438.74 323.346 1444.25C323.373 1447.06 323.554 1449.9 323.723 1452.54L323.725 1452.57C323.895 1455.23 324.049 1457.64 324.049 1459.75C324.049 1461.53 323.553 1464.77 322.791 1468.99C322.532 1470.43 322.244 1471.98 321.944 1473.58C321.392 1476.54 320.802 1479.71 320.276 1482.83C319.463 1487.66 318.776 1492.54 318.592 1496.69C318.5 1498.77 318.529 1500.73 318.754 1502.44C318.973 1504.12 319.406 1505.79 320.288 1507.12Z" fill="#D6DCE0" stroke="#D6DCE0" stroke-width="5" stroke-linecap="round" stroke-linejoin="round"/>
<path d="M541.598 1182.37C527.268 1166.36 517.967 1155.96 498.107 1142.59C491.493 1129.36 477.878 1117.49 491.5 1100.46C495.229 1095.8 490.441 1083.78 491.5 1077.96C493.019 1069.61 504.912 1061.35 508.5 1053.46C514.133 1041.07 539.858 1045.45 549.307 1036.53C566.097 1020.67 607.571 1007.27 629.764 1007.27C665.782 1007.27 698.17 1024.27 732.976 1025.56C774.387 1027.09 816.105 1032.87 857.318 1032.87C878.836 1032.87 897.712 1037.65 918.676 1039.98C935.318 1041.83 953.813 1051.69 970.689 1046.69C1003.97 1036.83 1034.25 1030.46 1064.15 1051.16C1086.46 1066.6 1095.01 1094.34 1081.42 1118.81C1076.23 1128.16 1076.61 1143.8 1073.09 1154.37C1071.01 1160.59 1071.61 1192.61 1067.6 1195.41C1043.86 1212.03 1001.82 1187.44 980.035 1209.23C968.233 1221.03 962.908 1233.13 949.762 1243.36C939.75 1251.15 929.112 1242.66 918.676 1236.86C902.423 1227.83 903.232 1227.01 883.73 1230.56C869.817 1233.09 866.02 1251.57 852.848 1252.3C840.845 1252.97 831.272 1250.46 819.934 1248.85C790.475 1244.64 767.626 1255.96 739.477 1255.96C707.856 1255.96 682.075 1241.33 649.878 1241.33C628.498 1241.33 627.134 1238.1 610.665 1226.7C596.423 1216.84 588.415 1207.7 571.25 1202.93C552.875 1197.82 553.382 1195.54 541.993 1182.81L541.598 1182.37Z" fill="#5E5F62"/>
<path d="M405.216 1074.06C418.436 1103.81 446.886 1109.54 476.783 1109.54C472.736 1121.68 454.91 1145.02 472.689 1145.02C479.612 1145.02 515.078 1140.55 517.569 1149.27C522.96 1168.14 497.261 1158.79 486.486 1165.64C471.936 1174.9 484.817 1184.66 494.523 1190.05C503.95 1195.29 531.367 1190.37 531.367 1177.77C531.367 1162.27 525.586 1146.44 518.328 1134.1C511.672 1122.79 495.887 1108.5 495.887 1095.29C495.887 1076.58 503.01 1062.14 504.075 1044.04C504.514 1036.58 518.76 1022.94 523.786 1017.35C535.839 1003.96 548.306 991.975 564.118 982.632C584.691 970.475 608.192 954.436 632.501 951.397C666.288 947.174 697.747 933.788 731.663 929.412C749.231 927.145 765.936 926.682 783.67 926.682C794.09 926.682 812.502 926.989 822.183 922.589C830.253 918.92 859.465 912.141 858.876 902.119C858.769 900.3 849.034 889.365 846.443 888.625C836.261 885.716 835.592 876.559 833.706 867.549C831.198 855.567 823.927 829.242 814.602 820.849C807.542 814.495 772.598 819.546 766.082 825.701C757.987 833.345 750.939 844.805 738.789 844.805C728.647 844.805 712.318 849.043 708.768 836.618C705.894 826.561 702.273 817.513 691.786 817.513C681.836 817.513 670.293 814.38 663.735 823.123C657.089 831.984 658.248 843.649 653.577 852.993C650.798 858.551 641.249 868.253 636.443 872.098C631.404 876.129 625.866 885.744 618.703 885.744C606.242 885.744 605.985 865.62 602.328 857.39C599.781 851.66 577.862 856.589 573.671 858.451C567.246 861.307 569.577 871.669 569.577 877.556C569.577 885.206 570.737 926.501 558.66 915.765C549.89 907.97 515.784 881.817 504.681 891.809C499.797 896.205 505.943 907.665 508.169 911.672C512.478 919.429 512.263 925.54 512.263 934.264C512.263 952.993 486.906 966.095 477.996 947C471.575 933.242 468.141 928.475 452.219 929.412C449.057 929.598 459.369 947.546 460.407 949.881C465.331 960.959 461.27 970.218 460.407 981.874C459.677 991.731 442.94 985.168 437.36 982.632C427.658 978.222 424.735 980.862 414.617 981.267C406.624 981.587 413.735 996.789 415.526 1000.37C420.238 1009.8 432.44 1009.7 439.938 1015.53C446.249 1020.44 453.816 1028.53 457.071 1035.85C460.607 1043.81 456.543 1056.35 454.797 1064.21C454.133 1067.19 436.055 1051.5 433.115 1050.1C426.504 1046.97 408.838 1048.14 402.032 1049.65C396.974 1050.77 403.838 1070.96 405.216 1074.06Z" fill="#777772"/>
<path d="M902.554 870.369C889.455 880.193 893.861 910.449 893.861 924.298C903.745 929.24 928.164 934.674 939.275 935.563C954.484 936.78 967.204 957.396 979.988 964.124C990.465 969.638 1001.98 979.432 1013.69 981.775C1019.11 982.859 1027.76 985.577 1031.08 990.557C1039.37 1003 1069.37 1018.44 1063.9 1035.97C1060.58 1046.57 1061.92 1066 1067.89 1075.62C1075.98 1088.65 1074.42 1109.66 1071.44 1124.23C1070.26 1129.99 1061.52 1156.55 1074.28 1155.8C1080.42 1155.44 1087.8 1148.69 1093.43 1145.87C1100.66 1142.26 1144.27 1149.44 1141.24 1135.85C1139.19 1126.61 1144.21 1109.63 1130.16 1111.19C1122.13 1112.08 1107.2 1117.61 1111 1106.22C1114.33 1096.21 1120.26 1086.2 1126.96 1077.93C1135.24 1067.7 1144.53 1063.13 1154.99 1055.57C1158.45 1053.07 1168.47 1050.17 1168.47 1045.28C1168.47 1041.34 1167.23 1029.48 1161.73 1029.67C1152.51 1030 1142.64 1039.06 1135.3 1043.69C1127.06 1048.88 1128.56 1047.38 1128.56 1038.19C1128.56 1021.45 1125.56 1001.74 1132.64 986.299C1137.03 976.721 1141.5 972.569 1149.23 965.809C1153.22 962.316 1154.1 960.421 1154.1 955.343C1154.1 942.784 1142.26 936.079 1132.64 945.054C1128.01 949.377 1122.33 950.789 1117.38 954.633C1113.25 957.851 1107.73 962.616 1102.22 962.616C1088.58 962.616 1085.45 947.304 1085.45 936.716C1085.45 922.075 1086.96 914.824 1101.42 907.978C1110.07 903.877 1112.9 890.731 1103.01 886.335C1093.33 882.032 1085.61 891.992 1077.47 894.318C1071.13 896.128 1064.3 899.302 1057.6 898.664C1050.21 897.961 1047.58 891.136 1042.43 886.956C1031.88 878.379 1032.52 866.471 1039.86 854.935C1047.33 843.202 1021.07 845.38 1016.09 848.549C1010.35 852.204 1002.8 877.625 992.938 862.83C986.352 852.95 975.857 869.821 968.901 870.014C964.291 870.142 958.687 870.973 954.531 868.773C951.291 867.057 949.358 861.5 946.548 858.838C943.16 855.628 937.123 858.986 933.421 860.435C924.048 864.102 910.714 864.249 902.554 870.369Z" fill="#39393E"/>
<path d="M472.343 1139.03C453.422 1126.66 457.501 1137.73 457.501 1145.96C443.966 1145.96 452.461 1159.14 452.461 1170.53C452.461 1189.28 456.163 1195.44 470.187 1209.7C489.432 1229.26 510.031 1247.8 528.039 1268.51C542.161 1284.75 573.149 1306.69 594.753 1312.58C619.845 1319.43 644.88 1319.17 670.69 1319.17C708.542 1319.17 746.504 1321.33 784.476 1321.33L786.574 1321.33C827.595 1321.33 867.182 1321.33 907.245 1310.55C937.473 1302.41 967.245 1299.4 996.596 1287.91C1039.2 1271.24 1057.53 1228.13 1092.66 1201.79C1102.53 1194.39 1096.91 1166.63 1090.62 1172.57C1079.58 1182.99 1069.34 1194.43 1058.28 1204.91C1048.12 1214.53 1043.02 1210.34 1031.45 1213.65C1018.53 1217.34 1002.17 1228.78 994.8 1240.36C988.936 1249.57 981.696 1250.94 973.719 1258.33C965.661 1265.79 951.453 1275.63 940.183 1276.05C929.084 1276.46 920.22 1272.64 911.796 1265.27C906.746 1260.85 889.333 1252.92 884.128 1260.96C873.284 1277.72 855.422 1284.51 837.176 1291.14C822.001 1296.66 821.584 1287.29 812.503 1278.21C799.125 1264.83 780.414 1273.9 767.707 1282.52C754.574 1291.43 737.367 1302.81 722.073 1290.07C715.006 1284.18 706.975 1278.96 701.472 1271.62C693.636 1261.17 684.205 1259.35 671.888 1262.64C660.145 1265.77 653.867 1259.27 643.501 1255.81C633.729 1252.55 623.132 1252.37 613.318 1249.1C600.762 1244.92 589.722 1239.88 580.14 1230.3C573.796 1223.95 564.408 1226.34 558.581 1221.67C552.176 1216.55 538.145 1214.9 529.955 1210.3C520.55 1205.01 508.774 1199.02 504.203 1188.74C496.878 1172.25 487.209 1148.75 472.343 1139.03Z" fill="#A1A2A6"/>
<path d="M399.255 1025.94C399.714 1026.63 400.484 1027.05 401.312 1027.06C402.139 1027.07 402.917 1026.66 403.389 1025.98C410.456 1015.81 410.692 1003.91 410.91 992.942C410.926 992.108 410.943 991.28 410.962 990.458C411.242 978.547 412.081 967.81 420.492 959.159C423.238 956.335 425.561 953.183 427.768 950.188L427.978 949.904C430.284 946.777 432.482 943.825 435.066 941.241C438.284 938.024 441.839 935.074 445.497 932.081C445.782 931.849 446.067 931.616 446.352 931.383C449.711 928.639 453.141 925.836 456.308 922.828C461.197 918.184 468.15 914.769 474.78 914.769C477.579 914.769 479.73 913.492 481.389 912.101C482.212 911.411 482.962 910.652 483.63 909.958C483.795 909.786 483.954 909.62 484.107 909.459C484.603 908.94 485.05 908.472 485.511 908.031C487.34 906.281 489.35 904.942 491.553 903.474C492.102 903.109 492.663 902.735 493.236 902.345C496.022 900.449 498.956 898.242 501.27 894.919C502.209 893.569 503.067 892.071 503.879 890.609C504.058 890.286 504.235 889.966 504.411 889.648C505.049 888.492 505.67 887.365 506.335 886.264C508.043 883.435 509.788 881.216 511.97 879.969C515.3 878.066 519.659 876.676 524.362 875.437C526.013 875.001 527.731 874.58 529.444 874.159C532.449 873.422 535.438 872.688 538.026 871.891C540.311 871.188 542.559 870.526 544.774 869.873C558.223 865.909 570.445 862.307 582.323 852.175C584.419 850.388 586.491 848.289 588.535 846.18C588.844 845.861 589.152 845.542 589.461 845.223C591.217 843.406 592.966 841.597 594.782 839.883C599.078 835.83 603.404 832.659 608.179 831.621C614.427 830.263 620.536 828.605 626.586 826.964C628.338 826.488 630.085 826.014 631.83 825.549C637.607 824.008 643.215 821.573 648.618 819.227C650.26 818.513 651.884 817.808 653.487 817.139C660.495 814.215 667.311 811.876 674.578 811.741C679.394 811.652 684.164 812.183 689.1 812.773C689.4 812.809 689.701 812.845 690.003 812.881C694.609 813.434 699.372 814.006 704.218 814.057C709.661 814.114 714.988 813.515 720.142 812.924L720.436 812.891C725.533 812.306 730.458 811.742 735.435 811.742C736.523 811.742 737.628 811.753 738.746 811.763C744.832 811.822 751.316 811.885 757.61 810.246C759.03 809.876 760.34 809.499 761.585 809.14C765.234 808.087 768.337 807.192 772.083 807.111C777.094 807.002 781.99 806.78 786.856 806.559C793.557 806.255 800.201 805.954 807.014 805.954C810.303 805.954 813.189 806.882 816.459 808.007C816.616 808.061 816.774 808.115 816.932 808.17C820.006 809.231 823.458 810.423 827.455 810.645C836.724 811.16 846.055 811.317 855.33 811.472C856.919 811.499 858.506 811.526 860.091 811.554C870.955 811.749 881.736 812.027 892.397 812.954C893.521 813.052 893.9 813.384 894.06 813.574C894.277 813.832 894.501 814.329 894.592 815.306C894.683 816.28 894.618 817.429 894.511 818.786C894.497 818.953 894.483 819.125 894.469 819.301C894.375 820.451 894.268 821.746 894.294 822.93C894.378 826.794 895.709 829.773 898.025 831.904C900.26 833.961 903.183 835.016 906.104 835.576C909.041 836.14 912.213 836.246 915.152 836.224C916.597 836.213 918.016 836.171 919.34 836.131L919.428 836.129C920.789 836.088 922.036 836.052 923.161 836.052C929.737 836.052 936.282 835.761 942.767 835.472L942.808 835.47C949.325 835.181 955.783 834.894 962.263 834.894C969.359 834.894 975.738 835.993 982.014 839.019C982.742 839.37 983.373 839.748 984.006 840.149C984.156 840.244 984.313 840.346 984.477 840.451C984.96 840.762 985.491 841.104 986.011 841.401C987.555 842.284 989.301 842.965 991.815 842.997C996.557 843.057 1002.03 844.798 1007.88 846.968C1009.03 847.396 1010.2 847.842 1011.38 848.29C1015.98 850.046 1020.7 851.845 1024.96 852.779C1026.97 853.219 1028.91 853.531 1030.75 853.814C1031.05 853.86 1031.35 853.905 1031.64 853.949C1033.17 854.182 1034.63 854.404 1036.07 854.678C1039.47 855.324 1042.6 856.235 1045.71 858.103C1047.74 859.321 1048.35 860.084 1049.08 860.998C1049.12 861.05 1049.17 861.102 1049.21 861.154C1050.24 862.446 1051.45 863.826 1054.67 865.785C1057.1 867.265 1060.32 868.484 1063.63 869.613C1065 870.078 1066.37 870.525 1067.74 870.972C1069.83 871.653 1071.93 872.336 1074.04 873.093C1077.48 874.329 1080.61 875.654 1083.07 877.209C1085.56 878.774 1087.11 880.412 1087.78 882.164C1092.43 894.33 1099.14 901.021 1110.28 907.486L1110.28 907.486L1110.68 907.718L1111.93 905.556L1110.68 907.718C1114.81 910.12 1116.94 911.403 1118.23 913.079C1119.38 914.575 1120.03 916.667 1120.03 921.273C1120.03 927.285 1121.64 931.006 1124.63 934.022C1126.03 935.435 1127.67 936.639 1129.36 937.823C1129.75 938.09 1130.13 938.357 1130.52 938.627C1131.9 939.583 1133.34 940.581 1134.89 941.774C1137.12 943.493 1138.18 946.12 1139.41 949.649C1139.48 949.854 1139.55 950.062 1139.62 950.273C1140.72 953.461 1142.05 957.321 1145.01 960.277C1145.95 961.224 1146.83 962.044 1147.55 962.728C1147.89 963.046 1148.2 963.334 1148.47 963.592C1149.37 964.456 1149.9 965.041 1150.28 965.619C1150.93 966.64 1151.34 968.017 1151.28 972.047C1151.26 973.741 1150.81 976.685 1150.22 980.513C1150.05 981.615 1149.87 982.79 1149.69 984.029C1148.89 989.398 1148.06 995.711 1148.01 1001.53C1147.96 1007.21 1148.63 1013.01 1151.31 1016.91C1152.72 1018.96 1154.69 1020.5 1157.29 1021.17C1159.84 1021.83 1162.77 1021.6 1166.04 1020.58C1175.3 1017.68 1179.56 1010.08 1180.71 1001.96C1181.85 993.933 1180.05 985.053 1176.94 978.529C1171.52 967.143 1167.62 954.931 1164.3 942.616C1161.52 932.298 1158.29 923.365 1148.83 915.96C1142.6 911.085 1137.12 905.468 1131.72 899.585C1130.17 897.895 1128.62 896.175 1127.07 894.444C1123.25 890.202 1119.37 885.898 1115.29 881.819C1107.49 874.013 1098.14 866.722 1089.17 860.444C1072.8 848.988 1056.04 838.915 1036.31 836.478C1020.3 834.501 1006.16 832.068 993.346 822.459C991.51 821.082 989.363 820.376 987.273 819.964C985.232 819.563 983.055 819.409 981.062 819.268L980.952 819.26C978.862 819.113 976.969 818.974 975.257 818.631C973.556 818.291 972.232 817.784 971.236 817.027C969.475 815.687 967.46 814.48 965.578 813.352C965.214 813.134 964.855 812.919 964.504 812.706C962.256 811.346 960.265 810.059 958.709 808.585C958.541 808.426 958.375 808.267 958.214 808.111C957.854 807.766 957.516 807.441 957.233 807.194C956.768 806.786 956.227 806.378 955.508 806.09C954.818 805.813 954.127 805.713 953.465 805.655C952.938 805.608 952.285 805.58 951.523 805.546C951.352 805.539 951.175 805.531 950.993 805.523C946.154 805.303 941.389 804.444 936.508 803.433C935.431 803.21 934.344 802.979 933.249 802.745C929.439 801.934 925.531 801.101 921.591 800.53C918.548 800.088 915.501 799.756 912.518 799.43C911.238 799.291 909.97 799.152 908.72 799.007C904.507 798.519 900.39 797.944 896.276 796.969C895.141 796.701 893.976 796.383 892.782 796.057C889.165 795.069 885.277 794.008 881.102 794.008C879.597 794.008 878.109 794.017 876.629 794.027C873.703 794.045 870.812 794.063 867.9 794.009C865.663 793.967 863.5 793.434 861.109 792.743C860.745 792.637 860.372 792.528 859.992 792.415C857.968 791.818 855.739 791.161 853.426 790.819C848.716 790.124 843.837 790.064 839.075 790.166C837.163 790.208 835.301 790.274 833.469 790.338C830.644 790.438 827.893 790.535 825.15 790.535C815.321 790.535 805.843 790.13 796.078 789.133C788.663 788.377 781.195 786.976 773.592 785.549C771.992 785.249 770.385 784.947 768.772 784.651C759.557 782.955 750.171 781.423 740.813 781.275C738.419 781.237 735.971 781.084 733.393 780.923C731.364 780.796 729.255 780.664 727.026 780.579C722.188 780.395 717.14 780.462 712.664 781.536C709.848 782.212 707.403 783.937 705.37 785.509C704.825 785.931 704.311 786.339 703.819 786.73C702.329 787.915 701.038 788.941 699.686 789.692C695.052 792.267 689.775 794.207 684.46 796.162C682.559 796.861 680.654 797.562 678.771 798.294C665.231 803.56 650.496 804.427 635.752 804.427C633.669 804.427 631.547 804.399 629.404 804.371C624.552 804.309 619.591 804.245 614.723 804.494C609.685 804.753 605.31 806.65 601.421 809.077C598.238 811.064 595.247 813.498 592.471 815.758C591.896 816.226 591.331 816.686 590.775 817.134C586.42 820.636 582.131 824.219 577.859 827.788C576.064 829.287 574.273 830.784 572.481 832.271C571.754 832.874 571.077 833.507 570.458 834.091C570.397 834.149 570.336 834.206 570.276 834.263C569.712 834.795 569.198 835.281 568.668 835.74C567.509 836.742 566.439 837.465 565.209 837.86C557.502 840.337 548.983 841.88 540.612 843.396C538.762 843.731 536.919 844.065 535.093 844.407C533.423 844.72 531.737 844.986 530.049 845.251C521.047 846.667 511.999 848.09 505.102 856.827C496.861 867.265 488.625 876.245 478.668 884.917C477.637 885.815 476.613 886.709 475.595 887.597C467.95 894.271 460.617 900.672 452.547 906.879C450.854 908.181 449.285 909.463 447.753 910.713C444.984 912.974 442.338 915.133 439.317 917.129C438.728 917.518 438.126 917.875 437.474 918.262L437.367 918.325C436.694 918.725 435.962 919.162 435.256 919.646C433.822 920.628 432.362 921.889 431.306 923.789C427.71 930.261 423.149 936.02 418.373 941.853C417.886 942.448 417.396 943.043 416.905 943.641C412.621 948.855 408.23 954.2 404.5 960.061C402.096 963.839 401.679 968.901 401.724 973.486C401.747 975.835 401.898 978.208 402.038 980.396L402.039 980.415C402.181 982.628 402.308 984.623 402.308 986.357C402.308 987.796 401.905 990.442 401.27 993.962C401.055 995.155 400.817 996.435 400.568 997.767C400.109 1000.23 399.617 1002.87 399.18 1005.46C398.504 1009.48 397.93 1013.56 397.775 1017.03C397.698 1018.77 397.722 1020.42 397.913 1021.88C398.099 1023.3 398.469 1024.77 399.255 1025.94Z" fill="#D6DCE0" stroke="#D6DCE0" stroke-width="5" stroke-linecap="round" stroke-linejoin="round"/>
<path d="M401 1005.64C405.5 1000.64 413 1014.64 401 1048.64C391.4 1075.84 401.666 1073.97 408 1069.64M420.5 1077.14C440.5 1097.14 415 1140.14 434 1142.14M434 1142.14C451.676 1144 452.908 1125.52 470.306 1138.64M434 1142.14C454.8 1148.54 473 1150.14 477 1150.14M474.5 1142.14C496 1161.64 475 1188.64 498.5 1197.14C518.82 1204.49 524.934 1187.16 538.5 1189.45M474.5 1142.14C482.5 1143.64 500.9 1147.34 510.5 1150.14C520.1 1152.94 525.833 1166.97 527.5 1173.64M474.5 1142.14C473.002 1140.78 471.609 1139.62 470.306 1138.64M583.5 1224.14C572 1197.14 564.5 1203.14 545.5 1192.14C542.929 1190.65 540.623 1189.81 538.5 1189.45M609.5 1243.64C629 1228.14 638.5 1217.64 660.5 1224.14C682.5 1230.64 692.5 1263.64 712 1264.14C727.6 1264.54 739.167 1256.3 743 1252.14M801.5 1243.64C820.5 1252.14 825.5 1264.14 840.5 1264.14C855.5 1264.14 860 1232.64 873.5 1230.64C887 1228.64 902.5 1222.64 916.5 1230.64C930.5 1238.64 951 1251.64 960.5 1247.64C970 1243.64 968.5 1209.64 978.5 1206.64C988.5 1203.64 1004.5 1195.14 1018.5 1195.64C1024.92 1195.87 1033.13 1198.83 1041 1201.29M1064 1202.64C1073 1195.64 1061.5 1170.64 1072.5 1165.64C1078.24 1163.03 1083.03 1156.74 1088 1151.75M1064 1202.64C1059.13 1206.43 1050.3 1204.21 1041 1201.29M1064 1202.64C1041 1216.64 1025.5 1225.14 1022 1241.64M1143.5 1148.14C1150 1145.14 1139 1114.64 1143.5 1107.14M1143.5 1148.14C1139.04 1150.19 1127.31 1149.43 1116.5 1147.78M1143.5 1148.14C1114.06 1155.14 1117.5 1157.44 1107 1171.29M1143.5 1107.14C1147.1 1101.14 1151 1093.64 1152.5 1090.64M1143.5 1107.14C1132.67 1109.8 1110.2 1117.44 1107 1126.64M1172 1077.14C1186 1077.14 1190.5 1076.14 1184.5 1062.64C1178.5 1049.14 1175 1043.64 1176.5 1035.64M1179.5 1011.64C1190.5 1011.64 1191 1006.64 1184.5 993.636C1179.3 983.236 1174 973.97 1172 970.636M1166.5 1019.14C1133 1039.64 1125 1047.14 1123.5 1077.14M1162.5 1043.64C1142.9 1050.84 1136.67 1057.3 1136 1059.64M1041 1201.29C1039.33 1194.41 1037.7 1179.14 1044.5 1173.14C1051.3 1167.14 1063.67 1158.64 1069 1155.14M761 1239.14H771M611.5 1228.14C601.5 1206.64 582.5 1194.27 538.5 1189.45M470.306 1138.64C471 1119.14 474.5 1106.64 468.5 1097.14C463.7 1089.54 444.5 1080.64 435.5 1077.14M456 1069.64C457.5 1058.3 459.1 1033.84 453.5 1026.64C447.9 1019.44 429.167 1007.64 420.5 1002.64M420.5 1035.14C424.833 1040.47 435 1051.24 441 1051.64M401 989.136C412 972.636 413 968.636 420.5 956.636C428 944.636 437 929.136 444 922.636C451 916.136 458.5 909.136 466.5 900.636C474.5 892.136 489 879.136 503 871.636M444 944.136C449.5 948.136 461.3 957.336 464.5 962.136M427 973.136C435 976.636 451.5 985.836 453.5 994.636M479.5 962.136C485.833 966.636 498.6 978.336 499 989.136C499.4 999.936 502.5 964.97 504 946.136M535.5 966.136C536.833 956.303 538.1 933.036 532.5 918.636C539.167 922.803 552.5 935.736 552.5 954.136M604.5 880.136C608.167 880.97 610.5 907.236 610.5 921.636M649.5 918.636C630 896.636 621 893.136 633.5 869.636M691 857.136C700 877.136 693.5 902.136 688.5 909.136M562.5 903.636C557 928.136 554 939.136 562.5 950.636M734 894.136C722.5 871.636 721 852.136 734 846.636C803.5 836.136 789.5 862.137 786 894.136M723.5 838.136C714 846.636 709 846.136 709 851.636M687 802.136C666.5 800.136 662 807.636 649.5 808.136C637 808.636 620.5 809.137 615.5 815.637C610.5 822.137 594.5 829.637 584.5 828.637M624.5 830.637C628.333 835.803 636.3 847.236 637.5 851.636M493.5 1128.14C485.5 1100.64 479.5 1073.64 516 1039.64C552.5 1005.64 605 975.136 683 954.136C745.4 937.336 827 941.803 860 946.136M474.5 1073.14C489 1035.64 520.5 1000.64 557.5 984.137C594.5 967.637 624.5 944.137 698 934.637M801.5 922.636C848.3 922.636 885.667 928.303 898.5 931.137M828.5 894.136C816 864.137 817.5 843.636 845.5 843.636C873.5 843.636 881 857.137 873.5 875.637C867.5 890.436 866.333 898.47 866.5 900.636M728.5 913.637C732.667 912.136 755.5 909.136 813.5 909.136M717.5 796.637C727 791.637 732 791.637 739.5 794.137C747 796.637 750.5 790.136 764.5 789.636C778.5 789.136 793 794.137 801.5 794.137C810 794.137 825.5 785.636 837.5 787.136C849.5 788.636 857.5 794.137 866.5 794.137C875.5 794.137 886.5 792.136 897 794.137C907.5 796.137 914 802.137 923.5 802.137C933 802.137 950 801.137 959 804.637C968 808.137 974 814.637 983 814.637C992 814.637 995.5 813.137 1001.5 820.637C1007.5 828.137 1019.5 832.137 1032 833.637C1044.5 835.137 1052 838.136 1058 843.636C1064 849.137 1076.5 857.637 1083.5 860.637C1090.5 863.637 1106 872.137 1107 878.137C1108 884.137 1130 892.637 1138.5 904.637C1147 916.637 1149.5 924.637 1157 929.637C1164.5 934.637 1166.5 941.637 1166.5 948.637M1148 938.637C1117 964.137 1122 957.136 1116.5 970.636C1111 984.137 1108 990.636 1108 1011.64M1107 1070.14C1099 1031.64 1084.5 1014.14 1057 990.637C1035 971.837 982.5 953.803 959 947.137M982.5 986.637C998.833 994.637 1034.6 1013.94 1047 1027.14M1092 1093.14C1097.5 1126.64 1093.5 1141.37 1088 1151.75M1088 1151.75C1092.55 1147.18 1097.26 1143.7 1103 1145.14C1106.77 1146.08 1111.54 1147.02 1116.5 1147.78M1116.5 1147.78C1114.3 1155.27 1111.03 1163.23 1107 1171.29M444.5 1158.64C451.167 1172.86 477.1 1209.36 527.5 1241.64C590.5 1281.98 654.5 1308.14 703 1314.14C751.5 1320.14 844.5 1327.64 909.5 1310.14C974.5 1292.64 1029.5 1262.14 1053.5 1241.64C1071.94 1225.88 1093.63 1198.03 1107 1171.29M583.5 1241.64C589.5 1250.04 597.667 1252.14 601 1252.14C613.167 1252.64 639.1 1257.84 645.5 1274.64M693.5 1271.64C703 1285.64 712 1280.14 712 1300.14M855 1268.14C845 1286.64 833 1286.14 832 1300.14M960.5 1258.14C941.5 1271.64 933 1276.14 927 1288.14M1092 894.136C1086.83 894.637 1076.5 903.437 1076.5 910.637M1040 868.637C1034.5 878.137 1032.5 894.136 1043 894.136M986.5 830.137C976 852.137 968 857.637 961.5 857.637M918.5 894.136C913 873.637 908.5 863.137 923.5 850.137C935.5 839.737 933.167 822.137 930.5 814.637M923.5 918.137C933.667 919.97 957.8 925.136 973 931.137M1005.5 931.137C998.5 894.136 1003 887.637 1015 878.137" stroke="black" stroke-width="10" stroke-linecap="round" stroke-linejoin="round"/>
<path d="M316.764 1495.3C322.232 1489.23 331.346 1506.22 316.764 1547.48C305.098 1580.48 317.574 1578.22 325.27 1572.96M340.461 1582.06C364.765 1606.33 333.777 1658.5 356.866 1660.93M356.866 1660.93C378.346 1663.19 379.842 1640.77 400.985 1656.68M356.866 1660.93C382.142 1668.7 404.258 1670.64 409.119 1670.64M406.081 1660.93C432.207 1684.59 406.689 1717.35 435.245 1727.67C459.938 1736.59 467.368 1715.57 483.853 1718.34M406.081 1660.93C415.802 1662.75 438.162 1667.24 449.828 1670.64C461.494 1674.04 468.461 1691.06 470.486 1699.15M406.081 1660.93C404.261 1659.28 402.568 1657.88 400.985 1656.68M538.536 1760.43C524.562 1727.67 515.448 1734.95 492.359 1721.6C489.235 1719.79 486.433 1718.78 483.853 1718.34M570.131 1784.09C593.827 1765.28 605.372 1752.54 632.106 1760.43C658.84 1768.32 670.992 1808.36 694.688 1808.96C713.645 1809.45 727.701 1799.46 732.359 1794.4M803.447 1784.09C826.536 1794.4 832.612 1808.96 850.84 1808.96C869.067 1808.96 874.536 1770.74 890.941 1768.32C907.346 1765.89 926.181 1758.61 943.194 1768.32C960.207 1778.02 985.118 1793.8 996.662 1788.94C1008.21 1784.09 1006.38 1742.83 1018.54 1739.19C1030.69 1735.55 1050.13 1725.24 1067.14 1725.85C1074.94 1726.13 1084.92 1729.72 1094.48 1732.71M1122.43 1734.34C1133.37 1725.85 1119.4 1695.51 1132.76 1689.45C1139.74 1686.28 1145.56 1678.65 1151.6 1672.6M1122.43 1734.34C1116.51 1738.94 1105.78 1736.25 1094.48 1732.71M1122.43 1734.34C1094.48 1751.33 1075.65 1761.64 1071.4 1781.66M1219.04 1668.21C1226.94 1664.57 1213.57 1627.56 1219.04 1618.46M1219.04 1668.21C1213.63 1670.71 1199.36 1669.78 1186.23 1667.78M1219.04 1668.21C1183.26 1676.7 1187.45 1679.49 1174.69 1696.3M1219.04 1618.46C1223.42 1611.18 1228.16 1602.08 1229.98 1598.44M1219.04 1618.46C1205.88 1621.7 1178.58 1630.96 1174.69 1642.12M1253.67 1582.06C1270.69 1582.06 1276.16 1580.85 1268.86 1564.47C1261.57 1548.08 1257.32 1541.41 1259.14 1531.7M1262.79 1502.58C1276.16 1502.58 1276.76 1496.51 1268.86 1480.74C1262.55 1468.12 1256.1 1456.88 1253.67 1452.83M1246.99 1511.68C1206.28 1536.56 1196.56 1545.66 1194.74 1582.06M1242.13 1541.41C1218.31 1550.15 1210.74 1557.99 1209.93 1560.83M1094.48 1732.71C1092.46 1724.36 1090.47 1705.83 1098.74 1698.55C1107 1691.27 1122.03 1680.95 1128.51 1676.7M754.232 1778.63H766.384M572.562 1765.28C560.41 1739.19 537.321 1724.18 483.853 1718.34M400.985 1656.68C401.828 1633.02 406.081 1617.85 398.79 1606.33C392.957 1597.11 369.625 1586.31 358.689 1582.06M383.6 1572.96C385.423 1559.21 387.367 1529.52 380.562 1520.78C373.757 1512.05 350.992 1497.73 340.461 1491.66M340.461 1531.1C345.727 1537.57 358.081 1550.63 365.372 1551.12M316.764 1475.28C330.132 1455.26 331.347 1450.41 340.461 1435.85C349.575 1421.28 360.511 1402.48 369.018 1394.59C377.524 1386.7 386.638 1378.21 396.359 1367.89C406.081 1357.58 423.701 1341.81 440.714 1332.71M369.018 1420.68C375.701 1425.53 390.04 1436.69 393.929 1442.52M348.36 1455.87C358.081 1460.11 378.132 1471.28 380.562 1481.95M412.157 1442.52C419.853 1447.98 435.367 1462.18 435.853 1475.28C436.339 1488.39 440.106 1445.96 441.929 1423.1M480.207 1447.37C481.828 1435.44 483.367 1407.21 476.562 1389.74C484.663 1394.79 500.866 1410.49 500.866 1432.81M564.055 1343.02C568.511 1344.03 571.346 1375.9 571.346 1393.38M618.739 1389.74C595.043 1363.04 584.106 1358.79 599.296 1330.28M669.169 1315.11C680.106 1339.38 672.207 1369.72 666.131 1378.21M513.017 1371.54C506.334 1401.26 502.688 1414.61 513.017 1428.56M571.346 1269.46C565.271 1277.35 551.903 1281.74 539.752 1280.53M588.359 1282.96C593.017 1289.23 602.698 1303.1 604.157 1308.44M429.169 1643.94C419.448 1610.57 412.157 1577.81 456.511 1536.56M659.448 1432.81C735.275 1412.43 834.435 1417.85 874.536 1423.1M406.081 1577.21C423.701 1531.7 461.98 1489.23 506.942 1469.21C551.903 1449.19 588.359 1420.68 677.675 1409.15M803.447 1394.59C860.318 1394.59 905.726 1401.47 921.321 1404.9M890.941 1337.56C883.65 1355.52 882.232 1365.27 882.435 1367.89M714.739 1383.67C719.802 1381.85 747.549 1378.21 818.03 1378.21M1024 1263.54C1034.94 1263.54 1039.19 1261.72 1046.48 1270.82C1053.78 1279.92 1068.36 1284.78 1083.55 1286.6C1098.74 1288.42 1107.85 1292.06 1115.14 1298.73C1122.43 1305.41 1137.62 1315.72 1146.13 1319.36C1154.64 1323 1173.47 1333.31 1174.69 1340.59C1175.9 1347.87 1202.64 1358.19 1212.97 1372.75C1223.29 1387.31 1226.33 1397.02 1235.45 1403.08C1244.56 1409.15 1246.99 1417.64 1246.99 1426.14M1186.23 1452.83C1179.55 1469.21 1175.9 1477.1 1175.9 1502.58M1174.69 1573.57C1164.97 1526.85 1147.35 1505.62 1113.93 1477.1C1087.19 1454.29 1023.4 1432.41 994.839 1424.32M1156.46 1601.47C1163.14 1642.12 1158.28 1660 1151.6 1672.6M1151.6 1672.6C1157.13 1667.05 1162.85 1662.83 1169.83 1664.57C1174.41 1665.72 1180.2 1666.86 1186.23 1667.78M1186.23 1667.78C1183.56 1676.87 1179.58 1686.52 1174.69 1696.3M369.625 1680.95C377.727 1698.21 409.24 1742.5 470.486 1781.66C547.043 1830.61 624.815 1862.35 683.751 1869.63C742.688 1876.92 855.7 1886.02 934.688 1864.78C1013.67 1843.55 1080.51 1806.54 1109.67 1781.66C1132.09 1762.55 1158.44 1728.75 1174.69 1696.3M538.536 1781.66C545.828 1791.86 555.752 1794.4 559.802 1794.4C574.587 1795.01 606.101 1801.32 613.878 1821.71M672.207 1818.07C683.751 1835.05 694.688 1828.38 694.688 1852.65M868.46 1813.82C856.308 1836.27 841.726 1835.66 840.511 1852.65M996.662 1801.68C973.574 1818.07 963.245 1823.53 955.953 1838.09M1141.27 1352.73C1134.99 1353.33 1122.43 1364.01 1122.43 1372.75M1028.26 1282.35C1015.5 1309.05 1005.78 1315.72 997.877 1315.72M951.7 1389.13C964.055 1391.35 993.381 1397.62 1011.85 1404.9M1051.35 1404.9C1042.84 1360.01 1048.31 1352.12 1062.89 1340.59M1083.55 1346.46C1071.4 1380.03 1073.38 1425.77 1105.5 1417.46C1131.2 1410.81 1137.62 1405.11 1137.62 1403.08M572.562 1462.73C584.952 1457.35 598.081 1452.22 612.002 1447.37L572.562 1462.73Z" stroke="black" stroke-width="10" stroke-linecap="round" stroke-linejoin="round"/>
<path d="M140.527 2018.58C148.019 2010.26 160.506 2033.54 140.527 2090.08C124.544 2135.31 141.637 2132.2 152.181 2125M172.993 2137.47C206.291 2170.72 163.836 2242.22 195.469 2245.55M195.469 2245.55C224.898 2248.64 226.948 2217.92 255.915 2239.73M195.469 2245.55C230.099 2256.19 260.399 2258.85 267.059 2258.85M262.897 2245.55C298.692 2277.97 263.729 2322.87 302.854 2337C336.684 2349.22 346.864 2320.42 369.449 2324.22M262.897 2245.55C276.216 2248.04 306.85 2254.2 322.833 2258.85C338.815 2263.51 348.361 2286.84 351.136 2297.93M262.897 2245.55C260.403 2243.29 258.084 2241.36 255.915 2239.73M444.369 2381.9C425.223 2337 412.736 2346.98 381.103 2328.69C376.823 2326.21 372.984 2324.82 369.449 2324.22M487.656 2414.32C520.121 2388.55 535.938 2371.09 572.565 2381.9C609.192 2392.71 625.841 2447.58 658.306 2448.41C684.279 2449.08 703.536 2435.39 709.918 2428.46M807.313 2414.32C838.946 2428.46 847.271 2448.41 872.244 2448.41C897.217 2448.41 904.709 2396.03 927.185 2392.71C949.661 2389.38 975.467 2379.4 998.775 2392.71C1022.08 2406.01 1056.21 2427.63 1072.03 2420.97C1087.85 2414.32 1085.35 2357.79 1102 2352.8C1118.65 2347.81 1145.28 2333.68 1168.59 2334.51C1179.28 2334.89 1192.95 2339.82 1206.05 2343.92M1244.35 2346.15C1259.33 2334.51 1240.18 2292.94 1258.5 2284.62C1268.05 2280.29 1276.03 2269.83 1284.3 2261.54M1244.35 2346.15C1236.23 2352.45 1221.53 2348.76 1206.05 2343.92M1244.35 2346.15C1206.05 2369.43 1180.25 2383.56 1174.42 2411M1376.7 2255.53C1387.53 2250.54 1369.21 2199.82 1376.7 2187.35M1376.7 2255.53C1369.29 2258.95 1349.75 2257.68 1331.75 2254.93M1376.7 2255.53C1327.68 2267.17 1333.42 2270.99 1315.94 2294.02M1376.7 2187.35C1382.7 2177.37 1389.19 2164.9 1391.69 2159.91M1376.7 2187.35C1358.67 2191.79 1321.26 2204.48 1315.94 2219.78M1424.15 2137.47C1447.46 2137.47 1454.95 2135.8 1444.96 2113.36C1434.97 2090.91 1429.15 2081.76 1431.64 2068.46M1436.64 2028.55C1454.95 2028.55 1455.79 2020.24 1444.96 1998.62C1436.31 1981.33 1427.48 1965.92 1424.15 1960.38M1415 2041.02C1359.22 2075.11 1345.9 2087.58 1343.41 2137.47M1408.34 2081.76C1375.7 2093.74 1365.33 2104.49 1364.22 2108.37M1206.05 2343.92C1203.28 2332.47 1200.56 2307.07 1211.88 2297.1C1223.2 2287.12 1243.79 2272.99 1252.67 2267.17M739.886 2406.84H756.535M490.986 2388.55C474.337 2352.8 442.704 2332.23 369.449 2324.22M255.915 2239.73C257.07 2207.3 262.897 2186.52 252.907 2170.72C244.916 2158.09 212.95 2143.29 197.966 2137.47M232.096 2125C234.594 2106.15 237.258 2065.47 227.934 2053.5C218.611 2041.52 187.422 2021.9 172.993 2013.59M172.993 2067.63C180.208 2076.5 197.134 2094.4 207.123 2095.07M140.527 1991.14C158.842 1963.7 160.506 1957.05 172.993 1937.1C185.48 1917.15 200.464 1891.37 212.118 1880.56C223.772 1869.76 236.259 1858.12 249.578 1843.98C262.897 1829.85 287.038 1808.23 310.346 1795.76M212.118 1916.31C221.275 1922.97 240.92 1938.26 246.248 1946.24M183.815 1964.54C197.134 1970.35 224.604 1985.65 227.934 2000.29M271.221 1946.24C281.765 1953.73 294.07 1975.96 303.686 1991.14C316.366 2011.16 332.181 1954.84 312.011 1919.64M359.46 1873.91C370.559 1880.84 392.758 1902.35 392.758 1932.94M479.332 1809.89C485.436 1811.28 489.321 1854.96 489.321 1878.9M294.53 2222.27C281.21 2176.54 271.221 2131.65 331.989 2075.11C392.758 2018.58 480.164 1967.86 610.025 1932.94C713.914 1905.01 849.768 1912.43 904.709 1919.64M262.897 2130.82C287.038 2068.46 339.481 2010.26 401.082 1982.83C462.683 1955.39 512.629 1916.31 634.998 1900.52M807.313 1880.56C885.23 1880.56 947.441 1889.99 968.807 1894.7M1191.07 1732.57C1211.88 1735.07 1224.37 1740.06 1234.36 1749.2C1244.35 1758.35 1265.16 1772.48 1276.81 1777.47C1288.46 1782.46 1314.27 1796.59 1315.94 1806.57C1317.6 1816.55 1354.23 1830.68 1368.38 1850.63C1382.53 1870.59 1386.69 1883.89 1399.18 1892.2C1411.67 1900.52 1415 1912.16 1415 1923.8M1384.2 1907.17C1332.58 1949.57 1340.91 1937.93 1331.75 1960.38C1322.59 1982.83 1317.6 1993.63 1317.6 2028.55M1315.94 2125.83C1302.62 2061.81 1278.48 2032.71 1232.69 1993.63C1196.06 1962.37 1108.66 1932.39 1069.53 1921.3M1108.66 1986.98C1135.85 2000.29 1195.4 2032.38 1216.04 2054.33M1290.96 2164.07C1300.12 2219.78 1293.46 2244.27 1284.3 2261.54M1284.3 2261.54C1291.88 2253.94 1299.72 2248.15 1309.28 2250.54C1315.56 2252.11 1323.49 2253.68 1331.75 2254.93M1331.75 2254.93C1328.09 2267.39 1322.64 2280.62 1315.94 2294.02M212.95 2272.99C224.049 2296.63 267.225 2357.33 351.136 2411C456.023 2478.08 562.576 2521.57 643.323 2531.55C724.069 2541.53 878.903 2554 987.121 2524.9C1095.34 2495.8 1186.91 2445.09 1226.86 2411C1257.57 2384.8 1293.68 2338.48 1315.94 2294.02M444.369 2411C454.358 2424.97 467.955 2428.46 473.504 2428.46C493.761 2429.29 536.936 2437.94 547.592 2465.87M627.506 2460.88C643.323 2484.16 658.306 2475.02 658.306 2508.27M896.385 2455.06C879.736 2485.82 859.757 2484.99 858.092 2508.27M1072.03 2438.43C1040.4 2460.88 1026.25 2468.37 1016.26 2488.32M1290.96 1833.17C1282.36 1834.01 1265.16 1848.64 1265.16 1860.61M1204.39 1790.77C1195.23 1806.57 1191.9 1833.17 1209.38 1833.17M1010.43 1873.08C1027.36 1876.13 1067.53 1884.72 1092.84 1894.7M1146.95 1894.7C1135.3 1833.17 1142.79 1822.37 1162.77 1806.57M287.5 1843.98C315.9 1859.56 328.993 1882.13 331.989 1891.46" stroke="black" stroke-width="10" stroke-linecap="round" stroke-linejoin="round"/>
</g>
<defs>
<clipPath id="clip0">
<rect width="1599" height="3391" fill="white"/>
</clipPath>
</defs>
</svg>
