<svg width="290" height="211" viewBox="0 0 290 211" fill="none" xmlns="http://www.w3.org/2000/svg">
<path opacity="0.5" d="M160.5 178.624C142.312 177.561 141.407 173.78 123.188 173.78C135.692 173.78 190.482 171.14 202.133 166.72C216.001 161.46 229.438 155.085 240.807 145.438C247.894 139.425 254.334 131.641 256.756 122.559C257.362 120.286 257.736 119.982 260.002 119.982C263.016 119.982 265.406 120.237 268.247 121.373C275.416 124.241 276.131 129.731 275.204 137.039C274.622 141.616 274.232 146.908 272.421 151.158C270.482 155.706 267.429 159.344 263.97 162.804C261.058 165.716 257.232 167.426 253.458 168.885C247.224 171.293 240.793 173.675 234.34 175.429C225.023 177.961 215.963 179.837 206.256 178.624C196.697 177.429 170.217 179.192 160.5 178.624Z" fill="#9E9695"/>
<path d="M31.7183 128.194C32.5905 124.269 50.0783 141.625 50.3994 140.869C62.2666 146.802 75.6713 153.04 88.8301 155.233C100.088 157.109 110.821 160.307 122.345 160.819C135.19 161.39 148.976 161.817 161.708 159.931C179.218 157.337 196.549 153.34 213.964 150.326C223.82 148.62 237.036 139.159 243.094 130.23C246.898 124.625 248.018 113.076 243.617 107.417C240.964 104.007 238.462 100.148 235.995 96.5585C234.241 94.0071 229.939 91.1232 229.939 87.6837C229.939 81.5502 227.08 66.4323 237.665 69.5687C245.293 71.8288 250.731 82.1637 254.916 89.6964C259.979 98.8096 269.406 99.6508 269.406 109.818C269.406 121.26 262.998 129.959 255.832 138.427C250.121 145.176 243.21 151.457 236.047 156.698C226.901 163.39 217.897 156.986 207.387 160.175C194.318 164.14 181.082 170.082 167.189 170.303C159.829 170.42 150.672 171.647 143.488 170.094C137.198 168.734 131.593 168.957 125.425 166.544C114.27 162.179 104.362 168.072 92.4322 166.617C86.9756 165.952 81.9171 165.55 76.562 164.059C69.4984 162.093 63.2586 158.273 56.2022 156.333C48.0424 154.089 43.7107 150.835 38.2439 144.587C34.717 140.556 30.4171 134.05 31.7183 128.194Z" fill="#605857"/>
<path d="M35.9178 119.249C36.327 125.184 41.439 127.45 46.4501 128.918C55.0969 130.84 64.9987 134.18 72.7637 138.242C77.3425 140.637 82.6517 141.524 87.7507 142.11C94.8798 142.929 102.04 144.136 109.23 144.423C123.716 145.003 137.912 149.431 152.464 149.431C163.414 149.431 177.809 149.382 188.136 145.08C193.264 142.943 199.216 142.836 204.573 141.626C210.456 140.298 215.83 137.533 221.598 135.894C230.485 133.368 244.208 133.961 250.018 125.569C253.47 120.583 256.544 115.214 256.544 109.097C256.544 106.881 255.429 103.642 253.402 102.501C249.767 100.457 245.957 98.4957 242.248 96.5962C233.438 92.0835 227.422 92.5409 217.972 95.0423C212.618 96.4594 207.974 98.7914 202.329 99.048C195.577 99.3549 188.716 99.1594 181.955 99.0826C175.895 99.0137 171.078 96.8066 165.31 95.4912C155.094 93.1612 144.564 93.4883 134.162 93.4883C125.382 93.4883 115.841 94.543 107.434 97.2178C100.854 99.3116 95.1044 102.676 88.7176 105.16C79.9367 108.575 71.6458 109.028 62.3695 109.028C53.8509 109.028 46.4098 109.974 38.3695 112.757C35.1235 113.881 35.7003 116.096 35.9178 119.249Z" fill="#605857"/>
<path d="M20.8987 107.22C22.2996 118.077 32.0287 127.035 42.2493 130.643C45.7812 127.111 45.8588 123.075 46.882 118.471C47.3713 116.269 49.4043 113.479 50.8528 111.709C53.8413 108.056 56.4621 104.399 60.1182 101.379C64.1147 98.0775 67.7099 96.2739 72.2898 93.984C76.6582 91.7998 80.6143 89.1831 85.1231 87.2508L85.4608 87.1061C89.7698 85.2589 94.2094 83.3558 98.7047 82.0714C99.8179 81.7533 107.596 78.2532 104.402 76.3741C102.334 75.1577 100.27 74.8583 98.4457 73.4391C96.4258 71.868 96.6288 70.1547 96.0862 67.713C95.4319 64.7684 94.207 61.8462 93.5541 58.908C93.3639 58.0525 84.6017 59.5044 83.4542 60.9797C82.5176 62.184 84.2024 67.5254 84.2024 69.1229C84.2024 72.9532 84.8077 77.6063 82.6485 81.0355C79.8729 85.4439 74.4381 84.3393 70.218 86.2149C68.3445 87.0476 68.3233 88.1716 66.0457 88.1716C62.6481 88.1716 62.9288 87.6511 62.4201 84.3446C62.2182 83.0319 60.7381 82.1838 60.3772 80.9204C60.0516 79.781 59.2266 78.5205 58.5931 77.525C57.1716 75.2912 56.687 72.4681 54.9388 70.3314C53.2543 68.2727 49.1319 69.9431 48.9825 72.6334C48.8386 75.2232 50.5431 76.1193 51.4571 78.4458C53.4798 83.5946 53.2199 91.9335 49.0976 96.0558C47.8974 97.256 42.3773 98.6008 40.9832 97.2067C38.5118 94.7354 37.5878 92.4953 37.5878 88.9485C37.5878 85.9893 37.809 82.1247 34.1924 81.4671C30.5849 80.8112 25.737 82.1844 22.6251 83.7403C19.3048 85.4005 20.3028 87.5771 19.575 90.7613C18.3833 95.9749 20.2304 102.041 20.8987 107.22Z" fill="#362E2D"/>
<path d="M69.0091 147.575C68.6497 145.316 79.0588 146.475 80.6108 146.475C85.4667 147.929 90.4229 149.475 95.3087 151.181C102.237 153.601 110.971 152.583 118.308 153.901C122.439 154.643 126.613 154.225 130.692 154.848C135.485 155.581 140.088 155.826 144.948 155.826C158.685 155.826 172.287 155.464 185.911 154.176C193.476 153.461 200.785 150.983 208.026 148.951C211.093 148.09 214.252 147.268 217.178 146.047C220.682 144.586 225.265 144.764 228.474 142.93C230.148 141.974 238 141.051 238 144C238 146.778 237.715 149.23 236.163 151.67C235.189 153.201 232.381 157.108 230.311 157.446C227.538 157.899 224.288 158.703 221.465 158.577C220.197 158.52 220.961 154.732 220.819 153.901C220.349 151.159 216.504 154.017 215.613 155.154C214.399 156.703 214.601 158.289 214.082 159.921C213.588 161.475 203.093 168.941 203.093 165.452C203.093 162.8 204.575 158.027 200.949 158.027C198.668 158.027 194.58 160.174 193.294 161.755C192.014 163.328 193.004 165.542 192.376 167.347C191.434 170.052 187.013 171.778 183.768 171.778C181.502 171.778 176.943 171.635 175.67 169.578C174.746 168.084 175.707 165.199 175.5 163.527C175.043 159.833 167.882 160.823 165.736 162.977C162.554 166.171 163.103 171.778 157.162 171.778C152.436 171.778 153.378 168.268 152.399 165.3C151.89 163.758 151.79 162.427 149.507 162.427C148.169 162.427 146.136 162.087 144.914 162.549C141.473 163.85 143.345 169.476 141.103 172.328C140.427 173.189 136.714 173.157 135.728 172.603C133.465 171.333 132.517 170.254 131.577 167.805C131.173 166.752 130.899 162.977 129.297 162.977C128.349 162.977 125.509 162.559 124.84 163.099C124.081 163.714 125.272 173.552 122.867 172.756C118.199 171.211 117.319 167.496 114.293 164.627C112.94 163.344 110.857 160.524 108.782 160.257C106.998 160.028 108.169 162.822 108.169 164.077C108.169 165.289 108.984 169.578 107.251 169.578C105.49 169.578 103.142 167.09 102.181 165.972C100.743 164.298 99.8928 162.472 98.0645 161.082C96.833 160.146 89.272 159.02 91.0218 160.777C91.6525 161.41 96.2966 164.985 94.9684 165.666C93.6958 166.319 91.6028 164.579 90.5455 164.199C87.8254 163.222 85.0335 161.143 82.4481 159.799C79.6094 158.323 77.8803 155.494 75.5755 153.504C73.9921 152.136 69.2973 149.387 69.0091 147.575Z" fill="#836B68"/>
<path d="M32.7953 91.7408C32.2202 94.3288 33.1252 97.429 33.1755 99.9929C33.4643 101.148 30.3577 102.474 30.3577 103.75C30.3577 105.813 29.9918 111.004 31.8784 112.472C34.4655 114.484 38.9104 117.224 42.3892 115.871C45.2413 114.762 47.9002 112.81 49.2772 110.056C51.6367 105.337 55.1341 102.851 59.3854 99.7692C63.1367 97.0496 66.5013 93.5034 70.5224 91.2264C74.4599 88.9968 78.6757 87.2694 82.7329 85.2777C89.4668 81.972 97.4165 78.6581 105.052 78.6581C116.464 78.6581 127.827 79.0607 139.245 79.0607C148.232 79.0607 156.492 76.5666 164.829 73.6487C166.814 72.9541 173.046 71.9709 173.26 69.0866C173.474 66.1976 172.97 63.7358 171.851 61.1252C170.805 58.6835 168.876 52.4929 165.612 52.4929C161.622 52.4929 156.375 53.7587 152.932 55.758C149.589 57.6987 150.187 61.4366 147.542 63.8535C146.052 65.2149 142.432 66.762 140.341 66.0899C136.203 64.7598 136.65 58.8346 135.198 55.5343C133.445 51.5513 130.631 52.2509 127.214 53.7005C124.986 54.6456 125.147 56.3087 124.866 58.531C124.503 61.3878 124.193 63.4396 122.629 65.8663C120.826 68.6638 112.496 73.2281 111.067 68.1473C109.924 64.0811 111.343 55.6674 105.23 56.6078C101.618 57.1636 101.517 58.8589 100.601 62.1539C99.8425 64.8853 98.5314 66.5059 96.0615 68.1026C93.8365 69.541 89.1815 72.6401 86.4005 71.0098C82.9148 68.9665 81.505 63.9542 78.864 60.9687C77.9081 59.8881 76.8872 59.2511 75.4424 59.3361C74.694 59.3802 75.0398 61.3477 75.0398 61.8408C75.0398 64.1186 76.3703 77.6476 74.6149 77.4282C70.7348 76.9431 68.8725 71.2003 67.7941 68.1921C67.2417 66.6512 66.0881 64.6636 64.7974 63.6076C63.9569 62.9199 62.7382 64.0787 61.9349 64.3679C58.8875 65.465 57.3304 68.2334 56.1204 71.0993C55.3203 72.9941 54.7899 76.1739 53.0789 77.4058C51.6625 78.4256 49.3901 79.4829 47.667 79.8658C45.7116 80.3003 43.6297 81.5419 42.0314 82.6836C40.3312 83.898 37.968 84.5107 36.4853 85.9934C35.3165 87.1621 33.1414 90.1834 32.7953 91.7408Z" fill="#A69896"/>
<path d="M255.5 76.5C276.572 94.6985 273.333 113.814 257.644 125.5M43.0002 131.5C73.0002 145.5 94.5002 154 152 154C209.5 154 238 138.5 255.5 127C256.238 126.515 256.954 126.015 257.644 125.5M23.5002 86C40.5002 68.5 55.0002 61.5 80.0002 55.5C105 49.5 140 46.5 174.5 49.5M82 62.5L86.0002 79.5M69 66L74.0002 83M58 70L64.0002 87M48 75L55.0002 91.5M39.5002 80.5L47.5002 96.5M34.0002 86L42.0002 101.5M30 93L38.0002 107M20.0002 94C18.5002 102.5 19.0002 110 26.5002 117.5M94.5 60L97.5 76.5M108.5 57.5L111 74M131.5 55.5L132 72M32 125C37 135 38.9998 140 49 147C51.3791 148.665 53.1686 149.812 54.5 150.579M69 158C67.4 156 63.6667 155.167 62 155L58 151.5C58.2342 152.086 57.6457 152.391 54.5 150.579M69 158C71 160.5 75.5 159 78 161C80.5 163 83.5 161.5 87.5 164M69 158C63.4 149.6 62 146.833 62 146.5M87.5 164C91.5 166.5 94.5 164.5 97.5 167C100.5 169.5 103.5 167 107.5 169M87.5 164C83.9 160.4 81 155.167 80 152.5M107.5 169C111.5 171 114 169 118.5 171C123 173 125.5 170.5 128.5 172.5C129.129 172.919 129.802 173.097 130.5 173.129M107.5 169C105.1 165 103.5 160 103 158M54.5 150.579C51.7 146.516 50.3333 143.167 50 142M36 114.5C37.4287 106 43.5 97 68.5 85.5M130.5 173.129C133.133 173.252 136.129 171.314 138.5 172.5C143 174.5 145 171.73 152 172C156 173.5 161 171 163 171C165 171 169.5 172 172 171C174.5 170 180 171 182 169.5C184 168 189 170 191 168.5C193 167 195.567 167.575 198 167C199.636 166.614 202.21 166.415 204 164.5C205.231 163.183 209 165.5 210 163C211.5 160.5 214 162 218 161C222 160 217.5 158 223 158C227.4 158 228.5 156 228.5 155C241 148 253.5 139.5 257.644 125.5M130.5 173.129C128.9 169.026 128.167 164 128 162M194 164L196 158M205.5 160.5L207.5 155M216 157L218.5 151.5M226.5 152.5L228.5 148.5M236 147.5L237.5 144M174 75.5C174.8 76.7 180 77 182.5 77C183.767 77.6335 184.934 77.9158 186 78.0536M207.5 84C205 83 202.5 83 201 81C199.5 79 193.5 80.5 191.5 79C190.133 77.9751 188.3 78.3507 186 78.0536M207.5 84C210 85 212 83.5 215 86C218 88.5 221 86.5 222.5 88.5C223.458 89.7772 225.435 90.2388 227 90.7963M207.5 84C208.333 77 210.7 63 213.5 63M240.5 98.5C237.5 98 237 96 235 96C233 96 230 93.5 229 92C228.639 91.4579 227.885 91.1117 227 90.7963M240.5 98.5C243.5 99 243.5 101.5 245.5 101.5C247.5 101.5 248 105.5 249.5 105.5C251 105.5 251.5 109.5 253 109.5C254.5 109.5 253 114.5 255 114.5M240.5 98.5C242.333 92.5 246.5 80.3 248.5 79.5M255 114.5C257 114.5 252.356 120 255 120C257.644 120 253.5 125.5 255 125.5M255 114.5C257 108.833 261.6 97.5 264 97.5M250.5 107C252.167 100.833 256.1 88.5 258.5 88.5M227 90.7963C228.667 83.8642 231.5 71.9 233.5 71.5M186 78.0536C186 70.8691 187.7 57.5 190.5 57.5M61 97C76 88.5 108 79 146 79M199.5 53.5C215 57.5 228 61 240.5 67.5" stroke="#3E3939" stroke-width="5" stroke-linecap="round" stroke-linejoin="round"/>
<path opacity="0.4" d="M183 120.5C210.637 109.838 175.516 96.5561 140 100C87.5002 103 97.0002 120.5 112 123.5C127 126.5 156.591 130.689 183 120.5Z" fill="#9E9695"/>
<path d="M125.657 118.137C126.973 119.062 128.055 120.219 129.286 121.264C129.867 121.47 130.21 122 130.842 122C131.279 122 132.302 121.967 132.608 121.673C133.796 120.535 133.086 119.001 131.888 118.045C130.92 117.272 130.018 116.536 128.854 116.031C128.62 115.929 126.545 114.988 127.251 114.682C128.181 114.279 129.135 114.046 130.074 113.68C131.152 113.26 132.19 112.739 133.156 112.076C133.693 111.707 134.724 111.332 134.951 110.635C135.25 109.714 134.1 109.451 133.521 109.214C132.494 108.794 130.895 109.122 129.814 109.122C128.652 109.122 127.487 109.306 126.348 109.306C125.352 109.306 124.321 109.573 123.333 109.715C121.661 109.955 119.99 110.119 118.312 110.318C115.149 110.692 112.11 111.69 109.027 112.474C108.335 112.651 107.552 113.212 107.098 113.803C106.742 114.266 107.453 114.693 107.722 114.968C109.384 116.675 111.39 116.297 113.569 116.297C115.701 116.297 117.792 115.952 119.915 115.929C120.845 115.919 122.371 115.635 123.161 116.307C123.934 116.966 124.825 117.552 125.657 118.137Z" fill="#605857"/>
<path d="M144.212 106.85H149.108C149.604 106.85 150.492 108.079 150.36 108.542C150.085 109.503 147.305 109.493 146.66 109.647C145.823 109.847 144.93 110.154 144.072 110.249C143.902 110.268 144.042 110.569 144.142 110.627C144.765 110.983 145.233 111.13 145.975 111.13C146.223 111.13 150.872 111.094 150.737 111.564C150.559 112.188 149.322 112.503 149.36 113.144C149.42 114.176 157.646 113.144 158.27 113.144C158.547 113.144 161.594 112.835 160.872 113.97C160.108 115.17 158.05 115.653 156.759 116.194C154.305 117.223 151.397 117.293 148.828 116.767C147.109 116.415 145.207 115.6 143.667 114.76C142.326 114.029 141.222 113.03 140.044 112.081C139.264 111.453 138.557 111.036 138.435 109.969C138.383 109.509 138.093 107.712 138.687 107.507C139.314 107.291 140.072 107.102 140.736 107.102C141.898 107.102 143.038 106.85 144.212 106.85Z" fill="#605857"/>
<path d="M161.752 110.377C164.426 111.173 166.86 112.594 169.547 113.296C169.836 113.569 171.223 113.371 171.701 113.307C172.923 113.145 172.079 112.661 171.569 112.182C170.909 111.562 170.123 111.285 169.279 110.858C168.982 110.708 166.698 109.697 167.079 109.433C167.672 109.02 172.384 107.376 169.535 107.376C167.565 107.376 165.674 107.811 163.702 107.665C163.123 107.623 161.419 107.727 160.983 107.317C160.934 107.271 162.057 106.874 162.094 106.861C163.835 106.286 165.691 106.043 167.435 105.495C167.805 105.378 170.179 104.349 169.773 104.149C169.086 103.81 167.805 104.084 167.061 104.043C165.515 103.957 163.931 104.181 162.419 104.373L162.418 104.373C161.652 104.47 155.253 105.282 155.447 106.271C155.49 106.492 156.086 106.938 156.272 107.117C156.758 107.587 157.305 108.05 157.89 108.439C158.985 109.167 160.443 109.987 161.752 110.377Z" fill="#605857"/>
</svg>
