<svg width="290" height="211" viewBox="0 0 290 211" fill="none" xmlns="http://www.w3.org/2000/svg">
<path d="M128.861 23.3689C118.125 23.3689 107.435 24.1018 96.7268 24.1018C94.5292 24.1018 80.0266 27.7665 77.9136 27.7665C75.1902 27.7665 72.6767 27.8054 70.0029 28.3366C65.4007 29.251 62.7805 29.6848 58.6904 31.7977C52.416 35.039 46.1176 38.1656 40.246 42.0996C34.8007 45.7478 26.9103 51.1573 23.687 56.9212C19.7063 64.0395 17.047 71.2795 17.047 79.4794C17.047 86.8387 16.5349 95.1367 18.8914 102.16C19.6216 104.336 20.6695 110.352 22.9492 111.484C25.443 112.723 28.4653 112.414 30.7368 114.09C34.0295 116.52 36.7868 124.489 38.8524 128.22C42.7764 135.308 47.9081 140.49 53.362 146.503C55.11 148.43 65.3746 157.539 62.7891 160.428C113.577 185.923 158.456 185.624 208.541 160.021C212.612 153.666 216.074 147.055 221.247 141.535C224.88 137.658 227.209 132.12 231.822 129.319C239.897 124.417 244.1 119.333 248.135 110.996C250.125 106.883 251.849 105.23 255.349 102.526C257.374 100.961 259.435 99.6633 260.923 97.7622C263.885 93.9788 262.434 83.6272 261.415 79.0723C259.896 72.28 259.257 64.371 255.677 58.55C253.471 54.9636 251.287 51.4314 249.119 47.8002C247.708 45.4379 245.742 41.1176 243.38 39.4936C238.178 35.9154 233.788 35.0573 228.01 33.2636C224.255 32.0979 220.239 31.0128 216.411 30.1282C214.078 29.5894 212.478 27.9307 210.344 26.8707C206.48 24.9512 199.246 26.0936 194.851 25.6084C189.191 24.9837 184.161 21.8582 178.62 20.6C173.127 19.3526 166.487 20.4371 160.79 20.4371C155.679 20.4371 151.318 21.7258 146.322 21.903C140.479 22.1103 134.844 23.3689 128.861 23.3689Z" fill="white"/>
<path d="M45.7015 116.888C47.551 119.354 48.8804 121.652 50.2707 124.433C61.2093 122.87 73.8499 130.091 83.2771 124.854C86.5887 123.014 88.9414 119.056 90.5818 115.776C92.3422 112.255 95.3736 108.713 98.4877 106.306C101.256 104.168 106.003 101.714 106.003 97.7993C106.003 94.0928 105.737 90.1737 106.664 86.5567C107.719 82.4417 112.15 79.2107 114.39 75.765C116.282 72.8534 120.229 71.8257 123.318 70.6246C126.192 69.5068 130.524 70.324 133.598 70.324C135.189 70.324 136.376 71.009 137.927 71.2859C141.608 71.9433 145.585 72.3027 149.32 72.4583C155.908 72.7328 164.007 73.5247 170.513 72.3681C173.474 71.8417 176.565 71.8671 179.471 71.2859C183.264 70.5274 186.032 68.1597 189.932 68.1597C196.774 68.1597 203.325 69.7829 210.163 69.7829C213.903 69.7829 217.558 69.4079 221.285 69.2118C223.561 69.092 226.114 68.8074 227.748 67.0775C229.517 65.2048 227.174 60.8935 226.172 59.0476L226.125 58.9611C222.332 51.9751 213.931 52.2344 207.728 49.2215C203.258 47.0505 198.192 45.6843 193.93 43.2094C187.921 39.7206 181.898 37.3176 174.902 37.3176C166.424 37.3176 158.024 37.1601 149.591 37.9789C142.945 38.6241 136.632 40.023 129.931 40.023C124.464 40.023 119.228 40.7904 113.879 41.6463C108.221 42.5516 102.686 42.4648 97.0148 43.8106C88.2635 45.8872 79.9037 48.3707 71.4333 51.2656C65.8274 53.1816 61.6423 57.9977 56.5533 60.8249C51.6775 63.5337 47.1724 67.9282 42.6954 71.2859C40.2098 73.1502 37.9022 76.1351 35.9619 78.5606C30.4764 85.4175 32.4076 97.0596 35.3907 104.683C36.8309 108.364 37.1469 111.047 40.5311 113.491C42.3772 114.824 44.2463 114.948 45.7015 116.888Z" fill="#A69896"/>
<path d="M198.066 189.761C134.081 189.761 115.327 184.351 92.247 180.268C69.1675 176.186 71.5437 164.887 65.571 161.06C65.4001 160.951 99.2392 172.54 102.701 172.156C117.518 170.512 133.544 168.485 147.815 164.51C165.69 159.532 182.654 167.14 196.276 156.957C207.901 148.267 219.081 138.948 227.979 128.76C231.447 124.79 245.07 115.466 252.779 120.467C262.248 126.61 274 134.663 274 144.149C274 156.649 263.558 164.047 255.591 174.096C243.948 188.783 219.204 189.761 198.066 189.761Z" fill="#C7C3C3"/>
<path d="M71.1704 141.741C67.119 137.212 64.4894 134.273 58.8745 130.492C57.0046 126.752 53.1551 123.396 57.0064 118.581C58.0608 117.263 56.7071 113.867 57.0064 112.22C57.4358 109.858 60.7983 107.525 61.8128 105.293C63.4055 101.789 70.6785 103.03 73.3501 100.507C78.097 96.0234 89.8229 92.2349 96.0974 92.2349C106.281 92.2349 115.438 97.0403 125.278 97.4047C136.987 97.8384 148.781 99.4727 160.433 99.4727C166.517 99.4727 171.854 100.825 177.781 101.483C182.486 102.006 187.715 104.792 192.487 103.379C201.895 100.591 210.456 98.7896 218.91 104.643C225.218 109.009 227.637 116.852 223.793 123.771C222.326 126.412 222.434 130.836 221.438 133.824C220.851 135.583 221.02 144.634 219.887 145.427C213.175 150.126 201.289 143.173 195.129 149.333C191.792 152.67 190.287 156.093 186.57 158.983C183.739 161.185 180.732 158.784 177.781 157.145C173.186 154.592 173.415 154.362 167.901 155.365C163.967 156.08 162.894 161.304 159.17 161.511C155.776 161.7 153.07 160.992 149.864 160.534C141.535 159.345 135.075 162.545 127.117 162.545C118.176 162.545 110.887 158.409 101.784 158.409C95.7397 158.409 95.3541 157.497 90.6978 154.273C86.6711 151.485 84.407 148.9 79.5539 147.552C74.3587 146.109 74.5023 145.465 71.2821 141.866L71.1704 141.741Z" fill="#605857"/>
<path d="M32.611 111.118C36.3488 119.528 44.3923 121.149 52.8449 121.149C51.701 124.581 46.6609 131.181 51.6875 131.181C53.645 131.181 63.6721 129.915 64.3765 132.381C65.9007 137.716 58.6349 135.072 55.5885 137.011C51.4745 139.629 55.1166 142.388 57.8605 143.912C60.526 145.393 68.2776 144.002 68.2776 140.44C68.2776 136.058 66.6431 131.583 64.5909 128.094C62.7091 124.895 58.2464 120.854 58.2464 117.12C58.2464 111.83 60.2603 107.746 60.5613 102.63C60.6854 100.52 64.7131 96.6642 66.1342 95.0852C69.5418 91.2989 73.0666 87.9101 77.5372 85.2684C83.3536 81.8314 89.9982 77.2965 96.8709 76.4374C106.424 75.2434 115.318 71.4588 124.907 70.2215C129.874 69.5806 134.597 69.4499 139.611 69.4499C142.557 69.4499 147.762 69.5365 150.499 68.2924C152.781 67.2553 161.04 65.3386 160.874 62.5052C160.843 61.9907 158.091 58.8992 157.358 58.6899C154.48 57.8674 154.291 55.2786 153.757 52.7312C153.048 49.3435 150.993 41.9007 148.356 39.5277C146.36 37.7314 136.48 39.1595 134.638 40.8995C132.349 43.0609 130.357 46.3009 126.922 46.3009C124.054 46.3009 119.437 47.4991 118.434 43.986C117.621 41.1426 116.598 38.5846 113.632 38.5846C110.819 38.5846 107.556 37.6988 105.702 40.1707C103.823 42.6761 104.15 45.974 102.83 48.6158C102.044 50.1871 99.3443 52.9301 97.9855 54.0172C96.5609 55.1569 94.995 57.8754 92.9698 57.8754C89.4468 57.8754 89.3742 52.1858 88.34 49.859C87.62 48.2389 81.4229 49.6324 80.2379 50.1591C78.4215 50.9664 79.0804 53.8961 79.0804 55.5605C79.0804 57.7234 79.4085 69.3985 75.9939 66.3633C73.5144 64.1594 63.8716 56.7651 60.7327 59.5901C59.3517 60.833 61.0894 64.0731 61.7187 65.2059C62.9372 67.3991 62.8762 69.1269 62.8762 71.5933C62.8762 76.8886 55.7072 80.5929 53.1879 75.1943C51.3726 71.3044 50.4019 69.9567 45.9002 70.2215C45.0061 70.2741 47.9217 75.3486 48.2151 76.0088C49.6071 79.1408 48.4592 81.7587 48.2151 85.054C48.0087 87.841 43.2767 85.9854 41.6991 85.2684C38.9561 84.0215 38.1297 84.7681 35.2688 84.8825C33.0091 84.9729 35.0196 89.2711 35.526 90.284C36.8582 92.9483 40.3081 92.9221 42.4279 94.5708C44.2123 95.9587 46.3515 98.2441 47.272 100.315C48.2717 102.565 47.1226 106.111 46.629 108.332C46.4413 109.176 41.3302 104.739 40.4988 104.345C38.6299 103.46 33.6351 103.789 31.7107 104.216C30.2808 104.534 32.2213 110.241 32.611 111.118Z" fill="#A69896"/>
<path d="M173.223 53.5285C169.519 56.306 170.765 64.8604 170.765 68.7758C173.559 70.173 180.463 71.7094 183.605 71.9607C187.905 72.3047 191.501 78.1335 195.115 80.0357C198.078 81.5947 201.333 84.3638 204.645 85.0262C206.177 85.3327 208.622 86.1011 209.56 87.5089C211.905 91.0264 220.388 95.3937 218.839 100.349C217.902 103.346 218.28 108.84 219.968 111.558C222.254 115.242 221.813 121.184 220.971 125.301C220.638 126.929 218.167 134.441 221.773 134.229C223.509 134.127 225.597 132.217 227.19 131.42C229.233 130.399 241.561 132.431 240.707 128.586C240.126 125.974 241.545 121.173 237.572 121.615C235.302 121.867 231.082 123.43 232.155 120.21C233.099 117.38 234.775 114.551 236.669 112.211C239.011 109.318 241.637 108.027 244.594 105.891C245.573 105.184 248.406 104.362 248.406 102.982C248.406 101.868 248.053 98.5127 246.5 98.5682C243.892 98.6613 241.101 101.223 239.027 102.53C236.698 103.999 237.121 103.576 237.121 100.976C237.121 96.2444 236.273 90.671 238.274 86.3052C239.516 83.5971 240.78 82.4234 242.964 80.5122C244.093 79.5244 244.343 78.9888 244.343 77.553C244.343 74.0023 240.993 72.1066 238.274 74.644C236.965 75.8662 235.358 76.2654 233.961 77.3524C232.791 78.262 231.233 79.6094 229.673 79.6094C225.818 79.6094 224.933 75.2803 224.933 72.2867C224.933 68.1472 225.36 66.0973 229.447 64.1615C231.894 63.0022 232.695 59.2853 229.898 58.0425C227.161 56.826 224.977 59.642 222.676 60.2995C220.884 60.8114 218.952 61.7087 217.059 61.5283C214.971 61.3295 214.225 59.4 212.77 58.2181C209.786 55.7931 209.968 52.4264 212.043 49.165C214.154 45.8475 206.73 46.4633 205.322 47.3594C203.698 48.3927 201.566 55.5799 198.777 51.3969C196.915 48.6036 193.947 53.3736 191.981 53.4282C190.677 53.4644 189.093 53.6992 187.918 53.0771C187.002 52.5921 186.455 51.0209 185.661 50.2684C184.703 49.3607 182.996 50.3103 181.95 50.7198C179.3 51.7567 175.53 51.7982 173.223 53.5285Z" fill="#605857"/>
<path d="M51.3564 129.533C46.0143 126.108 47.1659 129.172 47.1659 131.451C43.3447 131.451 45.743 135.101 45.743 138.254C45.743 143.443 46.7882 145.15 50.7477 149.096C56.181 154.511 61.9965 159.644 67.0806 165.377C71.0677 169.873 79.8165 175.948 85.9159 177.579C92.9999 179.474 100.068 179.403 107.355 179.403C118.042 179.403 128.759 180 139.48 180L140.072 180C151.653 180.001 162.83 180.002 174.141 177.016C182.675 174.763 191.08 173.928 199.367 170.749C211.395 166.134 216.571 154.201 226.487 146.908C229.274 144.859 227.687 137.174 225.912 138.817C222.796 141.703 219.904 144.869 216.782 147.77C213.914 150.434 212.474 149.275 209.207 150.191C205.56 151.212 200.94 154.38 198.86 157.585C197.204 160.136 195.16 160.514 192.908 162.559C190.633 164.624 186.622 167.351 183.44 167.466C180.306 167.58 177.804 166.523 175.426 164.482C174 163.259 169.084 161.061 167.614 163.288C164.553 167.928 159.51 169.807 154.358 171.644C150.074 173.172 149.956 170.577 147.392 168.063C143.616 164.359 138.333 166.87 134.745 169.257C131.038 171.724 126.18 174.874 121.862 171.346C119.866 169.715 117.599 168.27 116.045 166.239C113.833 163.347 111.171 162.843 107.693 163.752C104.378 164.619 102.605 162.819 99.6788 161.862C96.9198 160.961 93.928 160.911 91.1573 160.005C87.6123 158.847 84.4954 157.452 81.7904 154.8C79.9991 153.043 77.3486 153.703 75.7036 152.412C73.8953 150.994 69.9338 150.537 67.6217 149.262C64.9663 147.798 61.6417 146.141 60.3513 143.294C58.2831 138.731 55.5535 132.224 51.3564 129.533Z" fill="#836B68"/>
<path d="M48.3564 122.533C43.0143 119.108 44.1659 122.172 44.1659 124.451C40.3447 124.451 42.743 128.101 42.743 131.254C42.743 136.443 43.7882 138.15 47.7477 142.096C53.181 147.511 58.9965 152.644 64.0806 158.377C68.0677 162.873 76.8165 168.948 82.9159 170.579C89.9999 172.474 97.0681 172.403 104.355 172.403C115.042 172.403 125.759 173 136.48 173L137.072 173C148.653 173.001 159.83 173.002 171.141 170.016C179.675 167.763 188.08 166.928 196.367 163.749C208.395 159.134 213.571 147.201 223.487 139.908C226.274 137.859 224.687 130.174 222.912 131.817C219.796 134.703 216.904 137.869 213.782 140.77C210.914 143.434 209.474 142.275 206.207 143.191C202.56 144.212 197.94 147.38 195.86 150.585C194.204 153.136 192.16 153.514 189.908 155.559C187.633 157.624 183.622 160.351 180.44 160.466C177.306 160.58 174.804 159.523 172.426 157.482C171 156.259 166.084 154.061 164.614 156.288C161.553 160.928 156.51 162.807 151.358 164.644C147.074 166.172 146.956 163.577 144.392 161.063C140.616 157.359 135.333 159.87 131.745 162.257C128.038 164.724 123.18 167.874 118.862 164.346C116.866 162.715 114.599 161.27 113.045 159.239C110.833 156.347 108.171 155.843 104.693 156.752C101.378 157.619 99.6053 155.819 96.6788 154.862C93.9198 153.961 90.928 153.911 88.1573 153.005C84.6123 151.847 81.4954 150.452 78.7904 147.8C76.9991 146.043 74.3486 146.703 72.7036 145.412C70.8953 143.994 66.9338 143.537 64.6217 142.262C61.9663 140.798 58.6417 139.141 57.3513 136.294C55.2831 131.731 52.5535 125.224 48.3564 122.533Z" fill="#836B68"/>
<path d="M36.4238 78.1392C31.2444 83.4665 35.5216 91.3517 31.5144 97.122C30.4387 95.5083 32.4963 88.2535 32.4963 86.3214C32.4963 84.2462 31.8859 81.0257 33.0054 79.2665C35.2999 75.6609 38.5049 72.7568 40.6058 68.9751C41.0563 68.1642 41.8721 67.8472 42.6423 67.3386C43.9918 66.4474 45.1473 65.3935 46.4243 64.4112C49.031 62.4061 51.3684 60.3297 53.8429 58.1745C56.6973 55.6884 59.0556 53.116 61.4069 50.1377C63.5137 47.4691 66.3074 47.4745 69.4619 46.883C72.2772 46.3551 75.3467 45.8831 78.0623 45.0102C79.017 44.7033 79.6083 43.9193 80.3533 43.301C82.0739 41.8733 83.7741 40.4302 85.5172 39.0281C87.4014 37.5126 89.3552 35.7392 91.8812 35.6097C93.8426 35.5091 95.8275 35.5915 97.7906 35.5915C101.974 35.5915 106.252 35.3487 110.209 33.8096C112.166 33.0488 114.375 32.3561 116.21 31.3368C117.351 30.7027 118.428 29.4057 119.701 29.1003C122.035 28.5401 125.089 29.0077 127.483 29.0457C132.648 29.1277 137.899 30.7387 143.048 31.264C145.836 31.5485 148.54 31.664 151.339 31.664C153.901 31.664 156.685 31.3613 159.23 31.7368C160.662 31.948 161.949 32.6188 163.412 32.6459C164.66 32.669 165.91 32.6459 167.158 32.6459C168.618 32.6459 169.876 33.1303 171.285 33.4641C173.692 34.0342 176.071 34.1292 178.504 34.4824C181.316 34.8906 184.033 35.7709 186.886 35.9006C188.064 35.9542 187.92 35.9169 188.613 36.5734C189.615 37.5221 191.102 38.1644 192.214 39.0099C193.812 40.2255 196.864 39.3448 198.469 40.5484C202.254 43.3876 206.421 44.0886 210.952 44.648C216.348 45.3141 220.964 48.0712 225.579 51.3014C228.097 53.0637 230.704 55.0987 232.87 57.2654C236.09 60.4847 238.801 64.1453 242.416 66.975C244.904 68.9217 245.766 71.2574 246.544 74.139C247.488 77.6383 248.603 81.1375 250.162 84.4122C251.816 87.8847 252.068 93.8966 247.507 95.3219C240.737 97.4378 244.217 85.006 244.253 82.2849C244.283 79.9574 243.823 80.0006 242.271 78.4483C240.764 76.9416 240.982 74.421 239.343 73.1571C237.031 71.3729 235.416 71.0085 235.416 67.9205C235.416 65.2155 234.668 64.7813 232.42 63.4767L232.307 63.4112C229.267 61.6464 227.498 59.8688 226.252 56.6108C225.184 53.8178 219.055 53.1248 216.597 51.6287C214.938 50.6193 215.476 50.3025 214.062 49.4543C212.104 48.2796 210.159 48.3417 207.983 47.8649C205.086 47.2299 201.424 45.1203 198.469 45.0829C197.337 45.0686 196.961 44.4938 195.996 44.0283C194.103 43.1159 192.189 42.7919 190.104 42.7919C186.404 42.7919 182.739 43.1192 179.049 43.1192C176.404 43.1192 171.675 43.8006 171.594 40.1008C171.565 38.7391 172.235 36.7501 170.413 36.5916C164.332 36.0628 158.135 36.2762 152.03 35.937C149.883 35.8177 148.334 34.6097 146.211 34.6097C142.898 34.6097 139.613 34.8654 136.32 34.9369C134.789 34.9702 133.546 35.4604 132.065 35.8461C130.071 36.3653 128.015 36.2461 125.974 36.2461C123.01 36.2461 120.132 36.9317 117.155 36.9007C114.329 36.8712 111.588 36.1936 108.755 36.2461C104.366 36.3274 100.636 39.0705 96.4996 40.1736C94.2861 40.7638 92.1018 41.3921 89.8447 41.8828C86.7531 42.5548 84.482 45.9226 82.2262 47.8467C78.454 51.0641 74.593 51.8556 69.9528 53.2833C67.6824 53.9819 64.4985 54.4546 62.4433 55.6289C60.8822 56.521 60.1625 58.6666 59.1886 60.0655C58.0334 61.7248 56.2277 62.3237 54.8247 63.6657C54.0848 64.3734 53.3969 65.3749 52.2792 65.3749C50.1812 65.3749 48.0491 66.4424 46.5698 67.8477C44.6738 69.6489 42.4266 71.1908 40.5513 73.0662C39.0037 74.6138 37.946 76.5735 36.4238 78.1392Z" fill="#A69896"/>
<path d="M31.3134 91.6928C32.5866 90.28 34.7087 94.2359 31.3134 103.843C28.5971 111.529 31.502 111.001 33.294 109.777M36.8309 111.896C42.4897 117.547 35.2747 129.697 40.6506 130.263M40.6506 130.263C45.652 130.788 46.0004 125.567 50.9232 129.274M40.6506 130.263C46.5358 132.071 51.6854 132.523 52.8171 132.523M52.1098 130.263C58.1931 135.773 52.2513 143.402 58.9004 145.803C64.6498 147.88 66.3797 142.985 70.2181 143.632M52.1098 130.263C54.3733 130.686 59.5795 131.732 62.2957 132.523C65.012 133.314 66.6342 137.28 67.1057 139.163M52.1098 130.263C51.686 129.879 51.2918 129.551 50.9232 129.274M82.9505 153.433C79.6967 145.803 77.5746 147.499 72.1987 144.391C71.4712 143.97 70.8188 143.733 70.2181 143.632M90.3071 158.943C95.8244 154.563 98.5124 151.596 104.737 153.433C110.962 155.269 113.791 164.594 119.309 164.735C123.723 164.848 126.995 162.522 128.08 161.344M144.632 158.943C150.008 161.344 151.423 164.735 155.667 164.735C159.911 164.735 161.184 155.834 165.004 155.269C168.824 154.704 173.209 153.009 177.17 155.269C181.132 157.53 186.932 161.203 189.62 160.073C192.308 158.943 191.883 149.336 194.713 148.488C197.542 147.64 202.069 145.238 206.031 145.38C207.847 145.444 210.169 146.282 212.397 146.978M218.905 147.358C221.451 145.38 218.197 138.316 221.31 136.903C222.934 136.165 224.289 134.389 225.695 132.98M218.905 147.358C217.526 148.429 215.027 147.801 212.397 146.978M218.905 147.358C212.397 151.314 208.011 153.715 207.021 158.378M241.398 131.958C243.238 131.11 240.125 122.492 241.398 120.373M241.398 131.958C240.138 132.539 236.817 132.323 233.759 131.857M241.398 131.958C233.068 133.936 234.042 134.586 231.071 138.499M241.398 120.373C242.417 118.677 243.521 116.558 243.945 115.711M241.398 120.373C238.333 121.126 231.976 123.283 231.071 125.883M249.462 111.896C253.424 111.896 254.697 111.613 252.999 107.799C251.301 103.984 250.311 102.43 250.736 100.17M251.584 93.3881C254.697 93.3881 254.838 91.9753 252.999 88.302C251.528 85.3634 250.028 82.7449 249.462 81.8031M247.906 95.5074C238.428 101.3 236.164 103.419 235.74 111.896M246.774 102.43C241.229 104.465 239.465 106.292 239.276 106.951M212.397 146.978C211.925 145.033 211.463 140.717 213.387 139.022C215.311 137.327 218.81 134.925 220.319 133.936M133.173 157.671H136.002M90.8729 154.563C88.0435 148.488 82.6676 144.992 70.2181 143.632M50.9232 129.274C51.1195 123.764 52.1098 120.232 50.4121 117.547C49.054 115.4 43.6215 112.885 41.075 111.896M46.8753 109.777C47.2998 106.574 47.7525 99.661 46.168 97.6266C44.5835 95.5921 39.283 92.2579 36.8309 90.8451M36.8309 100.028C38.057 101.535 40.9335 104.578 42.6312 104.691M31.3134 87.0305C34.4259 82.3682 34.7088 81.2379 36.8309 77.8472C38.9529 74.4564 41.4994 70.0767 43.48 68.2401C45.4606 66.4034 47.5827 64.4255 49.8462 62.0237C52.1098 59.6219 56.2125 55.9486 60.1737 53.8294M43.48 74.3152C45.0362 75.4454 48.3749 78.045 49.2804 79.4013M38.67 82.5095C40.9335 83.4984 45.6021 86.098 46.168 88.5846M53.5245 79.4013C55.3165 80.6728 58.9287 83.9788 59.0419 87.0305C59.1551 90.0821 60.0322 80.2019 60.4566 74.8803M69.3693 80.5315C69.7465 77.753 70.1049 71.1787 68.5205 67.1098C70.4067 68.2872 74.1793 71.9416 74.1793 77.1408M88.8923 56.2312C89.9298 56.4666 90.59 63.8886 90.59 67.9575M101.625 67.1098C96.1074 60.8934 93.5609 59.9045 97.0977 53.2643M113.367 49.7322C115.913 55.3835 114.074 62.4475 112.66 64.4255M77.0087 62.8714C75.4526 69.7942 74.6037 72.9023 77.0087 76.1518M125.533 60.187C122.28 53.8294 121.855 48.3194 125.533 46.7653C145.198 43.7984 141.237 51.1451 140.246 60.187M122.563 44.3635C119.875 46.7653 118.46 46.624 118.46 48.1781M112.235 34.1913C106.435 33.6262 105.162 35.7454 101.625 35.8867C98.088 36.0279 93.4194 36.1693 92.0047 38.0059C90.59 39.8426 86.0629 41.9618 83.2335 41.6792M94.5512 42.2443C95.6358 43.7042 97.8899 46.9349 98.2294 48.1781M57.4857 126.307C55.2222 118.536 53.5245 110.907 63.8519 101.3C74.1793 91.6928 89.0338 83.0746 111.103 77.1408C128.759 72.3938 151.847 73.6559 161.184 74.8803M52.1098 110.766C56.2125 100.17 65.1251 90.2799 75.594 85.6177C86.0629 80.9554 94.5512 74.3152 115.347 71.6308M144.632 68.2401C157.874 68.2401 168.446 69.8413 172.078 70.6419M152.272 60.187C148.735 51.7102 149.159 45.9176 157.082 45.9176C165.004 45.9176 167.126 49.7323 165.004 54.9597C163.306 59.1416 162.976 61.4115 163.023 62.0237M123.977 65.697C125.156 65.2732 131.617 64.4255 148.027 64.4255M120.865 32.6372C123.553 31.2244 124.968 31.2244 127.09 31.9308C129.212 32.6372 130.202 30.8006 134.163 30.6593C138.124 30.518 142.227 31.9308 144.632 31.9308C147.037 31.9308 151.423 29.529 154.818 29.9529C158.213 30.3767 160.477 31.9308 163.023 31.9308C165.57 31.9308 168.682 31.3656 171.653 31.9308C174.624 32.496 176.463 34.1914 179.151 34.1914C181.839 34.1914 186.649 33.9088 189.196 34.8978C191.742 35.8867 193.44 37.7234 195.986 37.7234C198.533 37.7234 199.523 37.2996 201.221 39.4188C202.918 41.538 206.314 42.6682 209.85 43.0921C213.387 43.5159 215.509 44.3635 217.207 45.9176C218.905 47.4718 222.441 49.8736 224.422 50.7213C226.403 51.569 230.788 53.9707 231.071 55.6661C231.354 57.3615 237.579 59.7633 239.984 63.154C242.389 66.5448 243.096 68.8053 245.218 70.2181C247.34 71.6309 247.906 73.6088 247.906 75.5868M242.672 72.7612C233.9 79.9665 235.315 77.9884 233.759 81.8031C232.203 85.6177 231.354 87.4542 231.354 93.3881M231.071 109.918C228.808 99.0395 224.705 94.0946 216.924 87.4544C210.699 82.1422 195.845 77.0467 189.196 75.1629M195.845 86.3242C200.466 88.5847 210.586 94.0382 214.095 97.7679M226.827 116.417C228.383 125.883 227.251 130.045 225.695 132.98M225.695 132.98C226.984 131.688 228.316 130.705 229.939 131.11C231.007 131.377 232.356 131.644 233.759 131.857M233.759 131.857C233.137 133.975 232.211 136.223 231.071 138.499M43.6215 134.925C45.5078 138.943 52.8454 149.258 67.1057 158.378C84.9311 169.777 103.039 177.168 116.762 178.863C130.485 180.559 156.799 182.678 175.19 177.733C193.581 172.788 209.143 164.17 215.934 158.378C221.152 153.926 227.289 146.055 231.071 138.499M82.9505 158.378C84.6482 160.751 86.9589 161.344 87.902 161.344C91.3445 161.486 98.6822 162.955 100.493 167.702M114.074 166.854C116.762 170.81 119.309 169.256 119.309 174.908M159.769 165.866C156.94 171.093 153.545 170.952 153.262 174.908M189.62 163.04C184.244 166.854 181.839 168.126 180.141 171.517M226.827 60.187C225.365 60.3284 222.441 62.815 222.441 64.8494M212.114 52.9818C210.558 55.6661 209.992 60.187 212.963 60.187M196.976 42.1031C194.006 48.3195 191.742 49.8736 189.903 49.8736M177.736 60.187C176.18 54.3946 174.907 51.4277 179.151 47.7544C182.546 44.8157 181.886 39.8426 181.132 37.7234M179.151 66.9686C182.028 67.4866 188.856 68.9465 193.157 70.6419M202.352 70.6419C200.372 60.187 201.645 58.3505 205.04 55.6661" stroke="#3E3939" stroke-width="4.7156" stroke-linecap="round" stroke-linejoin="round"/>
</svg>
