<svg width="290" height="211" viewBox="0 0 290 211" fill="none" xmlns="http://www.w3.org/2000/svg">
<path d="M121.937 87.4658H121.847C117.912 87.4658 108.772 89.9605 104.879 89.9605H88.9802C80.5817 89.9605 72.1714 91.6433 63.9938 93.4451C57.7213 94.8272 53.204 98.0235 50.075 103.8C46.3986 110.587 43.1426 117.549 41.2248 125.104C40.0928 129.563 39.8354 134.018 39.8785 138.587C39.9102 141.953 40.9572 144.706 41.8386 147.893C43.4864 153.85 42.5949 160.479 44.7094 166.246C47.0579 172.651 54.0085 179.308 59.7568 182.541C61.8124 183.697 64.6312 184.382 66.8646 185.115C72.0018 186.802 77.4256 188.13 82.7237 189.194C95.0783 191.674 106.858 191.611 119.075 188.679C127.909 186.559 135.88 182.876 143.943 178.779C147.103 177.173 150.231 175.61 153.406 174.067C153.674 173.937 155.939 172.973 155.525 172.642C154.684 171.969 168.759 154.491 168.691 153.496C169.595 152.111 170.278 150.143 170.315 148.487C170.391 145.061 173.34 145.026 175.581 142.785C177.076 141.29 176.061 139.449 175.383 137.795C174.914 136.648 174.948 135.562 174.948 134.35C174.948 132.184 177.693 131.389 177.423 129.361C177.17 127.467 176.161 125.601 174.948 124.173C173.701 122.707 174.592 118.177 174.592 116.254C174.592 114.442 173.335 113.119 171.661 112.413C168.723 111.172 165.422 109.729 164.534 106.354C164.154 104.913 164.236 101.759 162.791 100.83C160.624 99.4368 156.882 97.393 154.317 97.108C148.818 96.4969 145.06 91.2019 140.042 89.4457C134.385 87.4657 127.909 87.4658 121.937 87.4658Z" fill="white"/>
<path d="M101.751 192.862C94.512 191.798 83.2234 186.821 76 186.5C82.6686 182.054 98.5314 177.724 104.987 172.559C108.702 169.587 113.089 168.416 117.112 165.981C122.447 162.752 126.216 159.231 130.304 154.567C136.386 147.628 142.719 140.9 148.51 133.73C152.89 128.306 159.542 122.368 166.147 119.862C170.517 118.205 174.406 115.377 178.592 113.32C182.384 111.456 186.674 110.803 190.468 108.946C203.985 102.331 219.122 97.2702 231.288 88.2159C234.806 85.5985 238.077 82.4936 241.173 79.3976C242.327 78.2441 243.664 76.3031 245.156 75.5573C249.235 73.518 253.496 79.0105 254.899 81.8155C257.492 87.0027 255.397 93.3472 255.397 98.7766C255.397 105.725 251.688 111.583 247.361 116.698C240.726 124.538 232.166 130.459 221.474 130.459C207.41 130.459 192.199 133.126 178.236 130.459C173.86 129.623 166.86 125.476 164.369 130.459C163.363 132.469 162.569 135.304 162.271 137.57C161.707 141.852 160.968 144.783 165.471 145.784C167.167 146.161 169.181 146.535 170.627 147.455C174.175 149.713 176.758 153.387 178.734 157.34C181.776 163.424 177.543 170.601 175.392 176.044C172.485 183.395 163.664 185.373 156.866 188.347C151.206 190.823 145.189 192.513 139.478 194.996C136.123 196.455 129.948 196.382 126.393 195.387C118.537 193.188 109.845 194.053 101.751 192.862Z" fill="#7C5662" fill-opacity="0.17"/>
<path d="M204.811 43H204.738C201.534 43 194.093 45.0005 190.923 45.0005H177.98C171.142 45.0005 164.295 46.3499 157.637 47.7948C152.53 48.903 148.853 51.4661 146.305 56.0982C143.312 61.5407 140.661 67.1234 139.1 73.1815C138.178 76.7573 137.969 80.3293 138.004 83.9935C138.029 86.6929 138.882 88.9002 139.599 91.4555C140.941 96.2327 140.215 101.549 141.937 106.173C143.849 111.309 149.508 116.647 154.187 119.24C155.861 120.167 158.156 120.716 159.974 121.304C164.157 122.656 168.572 123.721 172.886 124.574C182.944 126.563 192.535 126.513 202.481 124.161C209.674 122.461 216.162 119.508 222.727 116.223C225.3 114.935 227.846 113.681 230.432 112.444C230.65 112.34 232.494 111.567 232.157 111.301C231.472 110.762 242.931 96.7463 242.876 95.9486C243.611 94.8382 244.168 93.2602 244.198 91.9319C244.26 89.185 246.661 89.1566 248.486 87.3594C249.702 86.161 248.876 84.6846 248.324 83.3585C247.942 82.439 247.97 81.5676 247.97 80.5959C247.97 78.8593 250.205 78.2218 249.985 76.595C249.779 75.0767 248.958 73.58 247.97 72.4353C246.955 71.2591 247.68 67.6266 247.68 66.0847C247.68 64.6316 246.656 63.5712 245.294 63.0046C242.902 62.0098 240.214 60.8524 239.491 58.1463C239.182 56.9907 239.249 54.4617 238.073 53.7167C236.308 52.5994 233.262 50.9605 231.173 50.7319C226.696 50.2419 223.637 45.996 219.551 44.5877C214.946 42.9999 209.673 43 204.811 43Z" fill="white"/>
<path d="M140.928 38.8381C140.834 38.9062 140.827 38.7823 140.931 38.3984C140.931 38.5158 140.93 38.6648 140.928 38.8381C141.484 38.4344 145.086 31.287 146.716 31.5691C153.885 32.8099 160.799 32.0489 167.928 31.1074C175.036 30.1685 182.243 29.3456 189.384 28.8531C190.839 28.7527 192.252 28.0777 193.73 28.5C194.76 28.7944 195.874 29.6578 196.826 29.8308C201.717 30.7202 206.436 42.7983 211.329 42.7983H216.707C218.846 42.7983 220.469 44.5615 222.193 45.7316C225.598 48.0416 228.875 50.8225 231.917 53.5265C233.166 54.637 234.911 55.3054 236.262 56.3783C238.025 57.7783 239.32 59.513 240.635 61.3214C244.338 66.4131 246.529 72.9518 246.529 79.2199L246.529 79.4458C246.53 84.7722 246.531 91.88 241.884 95.5973C239.9 97.1845 239.135 96.197 237.919 93.8591C235.738 89.6653 233.507 85.5027 231.591 81.1482C229.346 76.0456 225.978 72.203 222.465 68.0028C219.494 64.4509 217.129 60.4705 214.263 56.8672C212.442 54.5779 206.526 46.262 203.643 45.1531C200.585 43.9769 199.841 43.4094 199.841 47C199.841 51.706 203.934 58.8538 206.658 62.8152C208.312 65.2211 209.785 67.1122 212.036 68.9534C217.026 73.0367 222.341 77.5324 225.263 83.3753C227.29 87.4311 230.353 91.7565 232.84 95.7059C234.157 97.7969 233.818 102.325 233.818 104.669C233.818 107.106 231.646 109.502 230.016 111.133C227.998 113.151 224.764 112.786 222.193 113.577C218.583 114.688 218.239 108.042 217.196 105.864C213.802 98.7768 209.3 92.3773 205.843 85.3309C203.908 81.3855 201.804 77.5245 199.841 73.5977C199.106 72.128 196.94 67.2423 194.952 67.2423C193.233 67.2423 193.73 72.1176 193.73 73.3805C193.73 76.6073 196.822 80.6082 198.619 83.1037C204.315 91.0158 206.896 100.945 209.754 110.155C210.479 112.489 211.108 116.79 209.971 119.063C208.697 121.612 203.795 121.019 201.552 121.019H193.485C192.791 121.019 190.989 120.67 190.416 121.128C189.87 121.565 188.911 122.192 188.135 121.97C186.191 121.414 185.572 115.987 185.419 114.609C184.844 109.432 184.164 104.367 183.219 99.2639C182.213 93.8342 179.316 88.7684 177.896 83.4025C176.734 79.0164 176.062 69.7389 175 65.3411C174.453 63.0761 173.522 59 170.752 59C167.656 52.6589 170.752 75.1501 170.752 75.7977C170.752 86.3445 175.667 96.1611 177.705 106.353C178.664 111.145 179.989 115.15 180.041 120.15C180.056 121.566 181.397 128.248 178.086 126.777C176.5 126.072 174.649 125.827 172.952 125.174C167.938 123.246 163.541 120.15 158.639 117.896C152.758 115.19 147.96 111.099 142.18 108.308C137.773 106.181 133.206 102.88 129.904 99.2639C126.037 95.0292 124.309 90.1472 124.309 84.4617C124.309 80.2622 124.175 75.9071 126.645 72.5113C127.323 71.5792 127.655 68.8714 127.975 67.7312C128.543 65.7119 129.585 63.772 130.067 61.756C131.051 57.639 134.001 54.2916 135.933 50.6204C136.933 48.7205 138.19 45.3685 139.953 44.1563C140.774 43.5917 140.909 40.3217 140.928 38.8381Z" fill="#D03F44"/>
<path d="M144.969 37.5695C144.558 35.5147 144.913 33.0346 144.913 30.9619C143.905 33.9847 137.242 41.3223 135.803 44.1208C133.561 48.4806 131.028 52.6584 128.83 57.0547C126.072 62.5715 124.027 69.3821 123.263 75.4996C122.73 79.7591 122.569 86.3399 124.416 90.4017C125.822 93.4958 126.844 93.4792 130.517 93.1853C133.351 92.9586 135.669 92.1295 137.068 89.6425C140.132 84.1962 136.922 77.8177 139.458 72.4629C140.968 69.2748 148.841 70.9194 149.862 73.8688C152.03 80.1318 151.492 87.1657 151.492 93.7195C151.492 97.6781 151.283 102.731 157.172 100.693C160.339 99.5963 159.745 96.3263 159.197 93.7195C158.381 89.8474 159.084 85.2963 159.084 81.3198C159.084 77.2583 162.227 73.1242 163.105 69.1732C163.664 66.6558 163.253 63.1621 164.876 61.0754C166.589 58.8727 169.309 61.2562 170.978 62.3688C172.897 63.6486 173.606 69.5038 174.267 71.4507C178.351 83.4755 182.448 95.7789 185.402 108.116C186.68 113.453 187.229 119.189 188.045 124.592C188.794 129.553 191.996 124.135 192.712 122.09C193.818 118.931 192.669 113.967 191.728 110.955C190.203 106.074 189.705 100.965 188.438 96.0251C186.751 89.4447 185.499 83.0456 184.896 76.2587C184.498 71.7807 183.377 67.8856 183.377 63.3529C183.377 59.6476 183.238 55.7921 180.959 52.7246C177.13 47.5701 168.584 48.733 162.964 48.1415C159.246 47.7502 154.705 47.3387 151.689 45.1049C149.273 43.315 145.607 40.7584 144.969 37.5695Z" fill="#B2292E"/>
<path opacity="0.8" d="M136.139 56.9746C134.149 59.2409 132.823 60.358 130.108 61.7476C127.585 61.7476 125.935 64.2444 124.865 66.3843C123.261 69.5922 121.926 73.2568 121.926 76.8699C121.926 79.2053 122.147 81.511 122.199 83.84C122.207 84.2356 122.128 86.8561 122.638 87.0827C123.437 87.4378 125.252 87.2048 126.017 86.7796C127.979 85.6894 129.414 83.8993 131.472 82.8703C132.808 82.2024 134.01 81.6977 134.533 80.2337C135.072 78.7233 136.089 77.328 137.26 76.2637C138.262 75.3532 140.011 75.1522 141.169 74.4151C142.496 73.5711 143.56 72.2834 144.776 71.2937C146.091 70.2232 147.428 69.4906 148.64 68.2784C149.782 67.1364 150.595 65.5228 151.943 64.5963C153.453 63.5582 154.504 62.237 155.746 60.9294C158.159 58.3894 160.902 56.1677 163.383 53.6865C165.358 51.7111 168.18 50.4031 170.459 48.8074C173.061 46.986 175.499 45.6272 178.369 44.2768C181.781 42.671 184.696 42.1099 188.476 42.1099C192.817 42.1099 197.24 42.1912 201.567 42.5191C204.816 42.7651 208.128 42.7158 211.386 42.6554C212.491 42.635 215.89 42.0563 214.387 40.4735C213.257 39.2847 212.403 37.9767 210.992 37.0793C209.687 36.2487 208.284 35.5485 206.962 34.7458C205.743 34.0061 204.248 33.5719 202.931 33.0487C201.165 32.3469 199.692 31.3069 197.795 30.9274C196.073 30.583 194.338 30.6546 192.552 30.6546C188.441 30.6546 184.432 31.2846 180.43 32.1547C175.293 33.2714 170.287 33.5694 165.353 35.564C159.836 37.7942 156.118 42.2282 151.261 45.5041C148.091 47.6419 145.212 50.2266 141.957 52.2015C139.824 53.4958 137.789 55.0948 136.139 56.9746Z" fill="#FFF0DF"/>
<path opacity="0.8" d="M217.051 49.3637C219.978 48.7408 222.417 48.7136 225.424 48.7136C227.768 50.2763 229.727 52.2973 232.159 53.8104C233.741 54.7949 231.097 55.1424 230.326 55.3836C229.228 55.7266 227.523 56.1672 226.646 56.9569C225.514 57.9757 223.926 58.5879 222.615 59.3622C221.671 59.9201 220.872 60.8494 220.054 61.5856C219.179 62.3735 218.2 62.9595 217.285 63.6919C215.092 65.4462 212.796 66.5299 210.342 67.9045C208.435 68.9724 206.81 70.6284 205.024 71.8961C203.85 72.7291 202.593 73.4447 201.474 74.3535C201.066 74.6855 200.878 74.875 200.369 74.9386C199.272 75.0757 198.768 75.8085 197.99 76.4598C197.188 77.1309 196.319 77.8538 195.415 78.3841C194.437 78.9583 193.433 79.0783 192.542 79.8533C191.225 80.9987 190.384 82.7525 189.616 84.287C188.495 86.5305 187.093 88.6462 185.872 90.84C185.027 92.3576 184.537 93.9777 183.766 95.5207C182.911 97.2298 181.714 98.7901 181.009 100.565C180.257 102.46 179.886 104.776 179.563 106.796L179.553 106.858C179.195 109.092 177.828 111.522 176.927 113.593C176.254 115.137 175.594 116.54 175.288 118.222C175.232 118.532 175.131 119.97 174.742 120.081C174 120.294 173.125 119.517 172.636 119.028C170.649 117.042 168.435 115.295 166.447 113.307C165.031 111.892 164.064 109.915 162.923 108.276C161.988 106.932 161.209 105.415 160.115 104.193C158.747 102.664 157.289 101.278 156.019 99.6553C154.993 98.344 156.888 96.888 157.775 96.0018C158.683 95.0931 159.767 93.869 160.362 92.7123C161.013 91.4473 161.551 90.4432 161.974 89.0457C162.767 86.4312 163.626 84.6999 165.472 82.7008C170.755 76.9777 175.456 70.4859 182.465 66.7343C184.211 65.7999 185.996 64.8985 187.692 63.8739C188.406 63.4428 189.011 62.9624 189.837 62.7557C191.543 62.3293 193.098 61.2546 194.583 60.3634C197.563 58.5753 200.433 56.703 203.659 55.3836C206.439 54.246 209.125 52.824 211.863 51.6261C213.653 50.843 215.107 49.7773 217.051 49.3637Z" fill="#FFF0DF"/>
<path opacity="0.8" d="M231.328 70.2893C233.741 67.028 236.194 62.9758 239.374 60.4313C239.374 61.1865 241.486 63.8943 242.015 64.4236C243.782 66.19 241.481 68.8849 241.094 70.9342C240.915 71.881 241.077 73.3916 240.695 74.2509C240.353 75.0203 239.651 75.4336 239.651 76.3239C239.651 78.1312 240.037 80.469 239.436 82.2049C238.725 84.2588 236.887 84.8195 236.887 87.2414C236.887 89.5255 236.43 91.2427 235.29 93.2606C233.955 95.6231 233.847 97.4658 233.847 100.094C233.847 102.218 233.57 104.282 233.57 106.374C233.57 107.362 233.622 108.366 233.57 109.353C233.545 109.823 231.758 110.41 231.344 110.597C229.05 111.629 226.452 112.146 224.173 113.222C223.209 113.677 222.359 114.344 221.409 114.819C219.817 115.615 218.036 115.433 216.311 115.433C214.546 115.433 214.013 115.112 213.455 113.437C213.057 112.245 213.393 110.465 213.393 109.199C213.393 105.282 213.88 101.726 214.837 97.8978C216.265 92.1851 220.117 88.4063 222.791 83.3565C225.216 78.7752 228.25 74.4509 231.328 70.2893Z" fill="#FFF0DF"/>
<path d="M158.564 24.927C161.654 24.4666 164.624 24.1793 167.5 24.0615C170.421 23.9419 173.244 23.9972 176 24.2237C179.071 24.4763 182.058 24.9416 185 25.6148M245.064 89.427C248.563 84.427 243.064 85.427 246.064 78.927C249.064 72.427 245.064 70.427 243.064 65.427C241.064 60.427 241.564 57.927 220.064 42.927C218.348 41.7303 216.665 40.5877 215.007 39.5M245.064 89.427C241.564 94.427 247.564 98.927 240.064 101.927M245.064 89.427C244.23 83.7603 238.064 68.627 220.064 53.427M240.064 101.927C233.098 104.713 238.208 109.656 232.564 110.346M240.064 101.927C238.643 89.7118 226.715 72.7389 215.921 59.927M220.064 116.427C228.064 116.427 223.064 110.427 231.064 110.427C231.634 110.427 232.13 110.399 232.564 110.346M220.064 116.427C212.064 116.427 215.564 121.927 206.564 121.427C205.612 121.374 204.789 121.38 204.064 121.432M220.064 116.427C217.948 109.334 212.469 94.435 204.5 79.8487M171.064 123.154C180.064 127.028 175.064 123.154 187.564 124.427C198.742 125.565 197.925 121.869 204.064 121.432M204.064 46.927C205.667 48.5306 207.511 50.4532 209.5 52.6211M195.564 65.427C197.164 67.677 198.702 70.013 200.175 72.3968M187.564 125.427C186.19 110.592 181.436 91.2919 177.189 76.5M172.064 59.927C172.767 62.0103 173.598 64.5742 174.505 67.5M204.064 121.432C202.73 113.597 198.664 95.327 193.064 84.927M232.564 110.346C231.564 104.04 227.164 88.927 217.564 78.927M150.564 117.927C148.629 115.799 147.068 115.018 145.563 114.542M148.563 27.927C142.063 30.9271 140.063 36.427 136.063 46.927C132.063 57.427 131.564 54.927 124.564 74.427C117.564 93.927 127.064 94.427 127.564 99.427C127.874 102.531 129.534 103.901 132.063 105.81M145.563 114.542C143.18 113.788 140.935 113.799 137.564 110.427C135.478 108.342 133.609 106.975 132.063 105.81M145.563 114.542C145.163 100.05 146.397 78.7603 147.063 69.927M132.063 105.81C132.063 90.7035 134.73 77.2603 136.063 72.427M161.063 110.427C161.563 99.0079 160.063 84.927 159.563 81.427M200.175 31C198.633 30.2662 197.098 29.5885 195.564 28.9677C194.709 28.6221 193.855 28.294 193 27.9837M207 34.5C208.649 35.4076 207.814 34.9705 209.5 36" stroke="#3E3939" stroke-width="5" stroke-linecap="round" stroke-linejoin="round"/>
<path d="M49.5594 164.314C47.5641 162.675 45.6319 161.642 43.0859 161.05C43.0859 164.266 43.3829 167.081 45.0609 169.554C46.824 172.152 48.7821 174.127 51.2052 176.109C53.9396 178.347 57.4145 179.284 60.7507 180.306C63.3741 181.11 65.6974 182.686 68.2665 183.543C71.3456 184.569 74.6785 185.033 77.8944 185.271C92.1495 186.327 106.818 186.618 120.493 181.897C132.319 177.814 142.643 170.73 153.683 165.11C158.633 162.59 163.513 161.675 166.52 156.497C169.724 150.979 172.178 145.718 173.926 139.6C175.116 135.435 177.84 129.863 176.779 125.501C175.447 120.024 172.652 116.361 170.278 111.43C168.118 106.944 164.12 102.858 160.595 99.3332C157.877 96.6147 154.905 95.0436 151.324 93.6278C148.333 92.4454 145.11 91.9202 142.053 90.9397C139.527 90.1296 136.562 88.764 133.906 88.4984C131.462 88.254 128.727 88.3172 126.281 88.4984C124.597 88.6231 121.671 88.5767 120.219 89.4585C116.956 91.4393 106.717 102.543 113.937 105.752C118.507 107.783 122.418 110.561 127.515 111.896C130.458 112.667 132.495 114.219 135.195 115.407C137.168 116.275 139.527 117.143 141.312 118.37C144.287 120.415 146.639 124.612 147.758 127.97C150.139 135.112 151.838 141.909 147.155 148.213C143.114 153.653 137.821 156.39 132.754 160.803C131.22 162.139 129.758 165.127 127.926 165.768C125.398 166.653 122.74 167.031 120.219 167.963C114.051 170.242 107 171.19 100.634 172.9C94.4832 174.552 90.3091 175.265 83.9015 174.381C78.8696 173.687 73.8481 173.978 68.7603 173.887C65.2011 173.824 59.6863 171.659 56.8831 169.416C54.5347 167.538 51.8904 166.229 49.5594 164.314Z" fill="#7EB657"/>
<path d="M52.8595 146.849C49.3909 149.029 42.454 152.78 42.454 157.375C40.48 156.388 41.2948 150.225 41.6832 149.017C42.8477 145.394 45.4833 141.631 47.5604 138.515C48.5025 137.102 49.1167 134.925 49.6078 133.288C50.1359 131.528 51.2637 130.045 51.7515 128.302C52.3373 126.21 52.3713 123.54 53.3895 121.606C55.9264 116.786 60.3598 113.054 65.4329 111.2C71.6865 108.915 78.1882 105.998 84.9433 105.998C93.3891 105.998 101.365 107.121 109.656 108.503C113.446 109.134 117.118 110.443 120.905 111.2C123.641 111.748 126.304 112.949 128.733 114.235C134.248 117.155 138.302 122.722 143.065 126.592C148.4 130.927 144.775 135.902 144.775 141.55C144.775 144.745 145.323 148.425 144.438 151.522C143.942 153.257 141.917 154.497 140.656 155.665C138.935 157.259 137.137 158.979 135.935 161.012C133.721 164.76 131.305 168.084 128.059 171.081C126.047 172.938 120.745 172.598 118.207 173.2C115.551 173.83 113.223 174.067 110.5 174.067C104.874 174.067 99.2389 174.166 93.6146 174.067C90.7935 174.018 86.8236 173.346 84.7265 171.249C81.438 167.961 87.0854 165.046 87.9783 162.144C89.0398 158.694 91.0293 155.513 87.4483 152.389C83.509 148.953 76.9304 146.649 72.0086 145.5C68.4519 144.67 64.4788 144.894 60.8564 145.115C57.9093 145.295 55.3897 145.259 52.8595 146.849Z" fill="#7C5662"/>
<path d="M61.6978 160.08C56.3087 157.483 50.7483 154.954 44.9787 153.314C44.6348 154.002 42.9738 155.053 42.77 155.97C42.5425 156.994 42.8171 158.113 43.0915 159.101C43.9702 162.264 45.9585 164.125 49.0047 165.392C59.5508 169.776 71.1617 170.113 82.3591 171.319C86.6653 171.783 90.8939 172.96 95.164 173.681C98.75 174.288 102.833 174.188 106.431 173.695C108.991 173.345 111.724 173.497 114.19 172.675C117.113 171.7 119.761 170.055 122.731 169.166C128.427 167.462 135.212 165.948 139.897 162.023C141.487 160.691 143.47 158.943 144.511 157.144C145.886 154.765 146.868 151.748 147.754 149.162C148.365 147.378 148.913 145.596 149.669 143.864C150.398 142.193 151.441 140.553 151.626 138.706C151.919 135.771 151.346 132.63 150.605 129.801C149.92 127.182 148.91 126.893 146.384 126.893C144.862 126.893 143.014 126.579 141.603 127.285C139.015 128.578 137.43 131.733 136.011 134.134C135.327 135.292 134.309 136.14 133.677 137.336C132.767 139.053 131.619 140.29 130.336 141.739C126.865 145.658 122.859 147.907 118.342 150.434C113.875 152.933 109.283 155.051 104.502 156.892C101.911 157.89 99.3194 159.139 96.6738 159.968C93.0967 161.089 89.4061 162.696 85.7281 163.365C81.7429 164.089 77.4312 163.6 73.4124 163.323C69.1955 163.032 65.4983 161.911 61.6978 160.08Z" fill="#69434F"/>
<path d="M134.515 163.213C131.334 165.357 128.092 166.255 127.923 170.486C130.042 169.779 132.323 171.026 134.393 170.389C136.684 169.684 139.145 168.909 141.594 168.734C150.481 168.1 154.68 161.402 161.2 156.693C164.593 154.242 167.164 151.034 169.3 147.474C171.307 144.129 170.124 141.172 170.93 137.647C171.262 136.195 172.547 135.503 172.925 134.144C173.333 132.674 172.21 130.823 171.271 129.765C168.647 126.814 172.161 123.805 172.56 120.814C172.852 118.618 172.005 117.128 170.152 115.948C167.848 114.483 165.669 112.475 164.703 109.818C163.966 107.791 162.565 105.706 160.543 104.807C159.194 104.208 155.735 103.75 154.535 104.71C153.883 105.232 152.719 105.201 152.005 105.878C151.192 106.648 150.451 107.399 149.718 108.213C148.798 109.235 147.744 110.045 146.532 110.718C146.03 110.997 142.748 113.238 142.396 112.008C142.099 110.966 142.628 110.3 143.272 109.575C145.335 107.255 147.545 104.356 148.307 101.305C149.014 98.4787 147.772 95.6526 144.999 97.1206C141.98 98.719 139.642 101.142 137.896 104.029C136.263 106.731 133.765 110.901 134.831 114.1C135.649 116.552 137.18 117.13 139.064 119.013C139.949 119.898 141.768 122.322 143.029 122.322C144.961 122.322 147.032 121.217 148.599 120.132C152.715 117.283 151.123 110.239 155.265 107.872C156.808 106.991 158.025 105.558 160.081 106.145C162.04 106.705 161.48 110.555 161.2 111.813C160.603 114.499 158.634 117.293 157.016 119.5C155.472 121.605 153.63 123.66 152.491 126.019C151.79 127.472 151.731 127.85 150.691 128.89C149.824 129.756 150.691 130.164 150.691 131.079C150.691 133.128 149.416 135.083 149.378 137.209C149.312 140.831 149.215 144.788 148.478 148.35C147.708 152.069 144.97 154.954 142.153 157.326C139.68 159.408 137.209 161.397 134.515 163.213Z" fill="#64874C"/>
<path d="M66.7836 171.712C98.2072 176.591 120.079 174.172 142.347 167.16C161.937 158.993 165.833 150.401 170.259 145.773C171.25 144.738 171.454 143.681 171.253 142.614M168.863 120.233C163.313 124.002 178.282 126.541 170.387 131.632C168.695 132.715 168.078 133.833 168.05 134.971M168.863 120.233C174.908 116.399 168.993 113.658 163.277 112.404C162.027 112.13 161.55 111.681 161.485 111.131M168.863 120.233C163.738 130.2 157.766 135.337 155.421 136.659M150.187 97.5073C160.926 98.5941 145.266 102.201 160.234 104.74C166.302 105.9 161.253 109.162 161.485 111.131M150.187 97.5073C139.449 96.4205 144.932 92.1564 135.317 91.9283M150.187 97.5073C146.833 105.623 143.749 110.979 142.626 112.642M135.317 91.9283C125.702 91.7002 131.814 88.361 119.721 88.4641C107.628 88.5672 117.407 86.2511 105.513 87.841M135.317 91.9283C133.231 97.4534 131.213 102.734 130.035 105.245M90.5789 89.3328C98.3486 86.0558 96.2884 87.6796 99.5 88.1045M161.485 111.131C157.238 120.98 154.282 124.368 152.41 125.459M168.05 134.971C160.83 142.796 154.422 148.058 152.121 149.711M168.05 134.971C167.988 137.472 170.773 140.071 171.253 142.614M171.253 142.614C168.301 146.708 159.703 155.861 148.919 159.724M138.512 161.115C145.239 154.835 157.214 135.41 145.57 123.347C133.926 111.283 119.296 104.159 96.6635 104.662C84.6469 104.929 75.9621 107.073 69.5853 109.646M57.3818 116.47C58.0771 115.977 58.843 115.44 59.6911 114.877M72.6395 94.7574C68.8735 96.7741 65.3037 92.7113 59.5897 99.024M49.7985 165.406C45.0983 162.398 42.3425 159.346 41.7073 154.381M49.7985 165.406C39.916 155.63 45.6963 149.812 48.6011 141.353C51.506 132.894 46.4494 129.029 50.6766 122.916M49.7985 165.406C53.7908 168.101 56.5291 169.215 57.3993 169.435M41.7073 154.381C41.3734 151.771 41.6256 148.632 42.4896 144.692C44.4955 135.546 43.0783 126.453 42.119 123.05C41.2235 112.577 46.1475 115.45 47.8968 109.667C48.7832 105.378 49.9585 103.895 51.4361 103.185M41.7073 154.381C41.9011 162.931 40.515 167.656 50.628 175.385C60.7411 183.113 79.2447 185.684 93.8156 185.25C105.472 184.902 121.579 180.361 128.176 178.134C136.402 175.521 155.603 166.7 166.594 152.317M54.9014 109.235C56.7267 113.834 58.8109 114.582 59.6911 114.877M59.6911 114.877C62.1822 113.224 65.3825 111.342 69.5853 109.646M66.1994 103.185C66.6233 106.357 68.5891 108.484 69.5853 109.646M102.581 114.969C106.15 114.492 106.623 113.756 106.414 113.447M115.074 125.405C116.026 126.489 118.621 126.781 119.8 126.792M121.218 118.531C122.064 118.821 123.883 118.343 124.687 118.067M133.877 133.99C134.511 132.694 136.124 133.185 136.851 133.592M78.5304 123.732C81.3587 123.758 82.5499 122.354 82.792 121.649M61.9234 161.768C62.9538 160.42 64.6654 160.897 65.3925 161.304M84.0975 172.928C85.9739 171.871 87.8529 172.09 88.5579 172.332M81.9114 156.574C83.7093 157.948 84.5546 156.221 84.7525 155.185" stroke="#3E3939" stroke-width="5" stroke-linecap="round" stroke-linejoin="round"/>
<path d="M146 52.0001C146.4 49.2001 150.5 47.8334 152.5 47.5001M167 43.0001C168.6 45.0001 170.667 45.1667 171.5 45.0001M165 32C166.5 32 167.5 31.5001 168 32.0001M187 41.0001C189.8 40.2001 190.833 41.3334 191 42.0001M148 35.5001C150.8 34.3 153 33.6667 153.5 34.5" stroke="#F98B8F" stroke-width="5" stroke-linecap="round"/>
<path d="M190 136C192.8 132.8 194.833 134.667 195.5 136M213.5 127.5C210.5 129 208 126.167 209 125M205.5 141.5C207.5 140.3 210 140 210.5 141.5M256 83.5001C259.2 81.5001 261 82.6667 261.5 83.5001M260 92C259.333 92.1667 258.2 92.8 259 94" stroke="#DDD7D9" stroke-width="5" stroke-linecap="round" stroke-linejoin="round"/>
<path d="M188 135C190.8 131.8 192.833 133.667 193.5 135M211.5 126.5C208.5 128 206 125.167 207 124M203.5 140.5C205.5 139.3 208 139 208.5 140.5M254 82.5001C257.2 80.5001 259 81.6667 259.5 82.5001M258 91C257.333 91.1667 256.2 91.8 257 93" stroke="#D03F44" stroke-width="5" stroke-linecap="round" stroke-linejoin="round"/>
</svg>
