<svg width="290" height="211" viewBox="0 0 290 211" fill="none" xmlns="http://www.w3.org/2000/svg">
<path opacity="0.4" d="M180.573 187.261C171.607 185.317 162.092 186.218 153 186.218C157.429 182.537 164.415 184.012 169.732 182.703C175.741 181.223 181.394 178.965 187.51 177.836C191.571 177.086 195.848 175.129 199.78 173.703C209.143 170.307 218.593 166.521 227.039 160.801C232.114 157.365 236.633 152.463 241.819 149.329C247.272 146.033 257.157 133.515 257.157 126.346C257.157 124.083 256.459 102.174 257.785 102.088C263.254 101.731 268.23 102.293 272.216 106.955C273.794 108.801 274.665 110.098 276.887 111.822C279.849 114.12 279.455 115.621 277.201 118.118C274.906 120.661 274.904 121.385 277.201 123.294C279.755 125.417 273.17 129.176 272.076 129.899C271.251 130.446 267.67 132.114 268.8 133.724C269.38 134.55 270.849 135.043 270.961 136.157C271.245 138.985 268.182 139.645 266.185 140.715C262.816 142.522 259.667 144.301 259.667 148.672C259.667 152.19 259.964 155.875 259.632 159.372C259.233 163.576 247.529 165.556 244.817 167.059C242.76 168.199 245.584 171.716 243.981 173.703C241.164 177.191 234.583 176.982 230.804 178.029C228.785 178.588 217.112 180.397 216.408 183.128C215.772 185.591 215.908 187.428 214.142 189.385C211.203 192.642 207.117 192.132 203.113 191.633L203.057 191.626C195.603 190.697 187.932 188.856 180.573 187.261Z" fill="#B8D9E1"/>
<path d="M55.3878 143.829C61.3301 148.583 71.3967 156.083 78.8941 158.809C102 167.211 148.507 167.876 167.5 164.5C198.152 159.051 198.743 154.494 227.537 143.829C237.147 140.27 249.891 129.19 249.891 118.364C249.891 105.008 248.247 101.509 242.055 90.3641C238.087 83.2208 227.834 72.062 219.701 69.7385C211.585 67.4197 189.798 67.7691 183.981 74.2324C177.317 81.637 184.863 93.7554 180.409 101.772C174.472 112.459 165.895 116.778 154.483 119.862C137.073 124.568 125.052 131.846 106.779 131.846C93.0806 131.846 79.7031 125.343 67.3714 119.862C60.3696 116.75 42.4824 117.652 42.4824 126.661C42.4824 133.244 50.5918 139.993 55.3878 143.829Z" fill="#DCEBEF"/>
<path d="M218.466 51.2035C212.449 51.2035 210.512 65.9122 209.435 69.2657C209.435 71.8383 213.48 76.1206 215.186 77.9264L215.261 78.0055C217.415 80.2862 221.414 81.6976 224.26 83.5084C227.946 85.8542 231.924 87.8714 235.945 89.6586C239.408 91.1976 241.877 97.888 243.228 101.117C244.64 104.489 246.434 107.619 247.89 110.958C248.967 113.429 248.472 116.695 248.472 119.374C248.472 122.501 249.03 126.355 248.149 129.376C246.946 133.501 246.364 135.746 242.387 138.019C241.423 138.57 240.464 140.016 239.409 140.317C236.185 141.238 234.034 145.079 232.611 147.924C231.7 149.747 230.576 160.595 228.079 160.742C223.999 160.982 226.657 152.604 223.677 150.902C221.912 149.893 217.855 152.619 216.426 153.492C213.908 155.03 213.719 157.128 213.481 159.868C213.144 163.736 209.351 169.18 205.485 170.518C201.423 171.924 197.642 170.018 196.746 165.986C196.165 163.374 195.703 163.19 192.991 164.238C189.218 165.696 187.547 165.649 185.546 169.223C158.4 175.836 154.652 183.984 185.837 180.553C191.679 180.553 197.545 179.574 202.572 176.603C208.731 172.964 214.98 168.556 222.382 168.317C229.317 168.093 232.185 161.907 235.945 157.279C239.732 152.618 246.153 150.296 248.796 145.011C251.1 140.403 253.448 136.356 254.752 131.286C255.75 127.404 259.765 124.298 261.161 120.669C262.054 118.348 264.065 116.584 264.204 113.871C264.328 111.449 264.204 108.982 264.204 106.556C264.204 99.2362 263.743 91.8894 260.74 85.3211C259.45 82.4992 257.167 80.8369 255.755 78.2969C255.229 77.3492 254.697 75.7986 253.716 75.2218C250.118 73.1052 246.865 76.0591 244.976 79.0414C243.668 81.107 243.136 85.58 240.186 85.58C237.367 85.58 236.819 84.7244 236.819 82.0517C236.819 75.6838 237.402 69.2778 237.402 62.8566C237.402 61.4256 237.544 52.9273 233.777 56.3179C228.572 61.002 228.388 67.4592 226.202 73.7975C225.448 75.9852 221.204 73.7845 220.311 72.8911C218.903 71.4839 219.34 69.3533 219.34 67.5502C219.34 65.5003 222.781 51.2035 218.466 51.2035Z" fill="#B8D9E1"/>
<path d="M84.7438 47.4756C89.4875 47.4756 95.9484 60.8924 97.3603 64.2976C94.7915 69.4352 87.1117 72.6251 82.6021 75.1617C76.1419 78.7956 69.6432 81.6996 63.0154 85.0135C59.4589 86.7918 55.2875 88.7486 52.1902 91.2828C50.0684 93.0187 48.7383 95.3966 46.8944 97.2406C43.6296 100.505 40.3569 101.086 38.3276 105.652C36.8629 108.947 36.3806 114.691 36.3806 118.268C36.3806 122.764 36.6291 126.566 38.8338 130.534C39.8434 132.351 40.8108 133.83 42.6889 134.934C44.2734 135.866 44.0911 137.369 44.7916 138.945C46.7851 143.43 49.8489 147.914 52.1902 152.262C52.6392 153.096 53.7352 155.378 54.9776 157.611C56.2214 158.547 57.491 159.434 58.8099 160.167C59.2584 160.416 59.7086 160.668 60.1596 160.921C60.1938 160.549 60.2117 160.118 60.2117 159.622C60.2117 156.838 58.8099 154.187 58.8099 151.25C58.8099 147.112 59.6554 149.289 61.0684 151.055C63.6881 154.33 68.4726 155.817 69.3626 160.712C69.6559 162.326 71.3359 166.698 72.8282 167.488C74.4315 168.337 78.4355 168.902 78.4355 166.281C78.4355 163.345 77.0337 161.362 77.0337 158.22C77.0337 153.007 77.6942 155.783 80.5383 157.364C85.281 159.998 85.3697 165.353 88.9493 168.734C93.8674 173.379 92.348 162.997 94.5566 163.127C98.1666 163.339 100.683 168.682 102.111 171.538C103.1 173.516 103.089 175.663 102.968 177.846C102.791 181.026 97.8129 178.219 96.3089 177.885C92.2934 176.992 87.4128 174.963 83.7313 173.29C79.9727 171.581 75.7039 171.422 72.2831 168.734C68.5265 165.782 64.3049 163.252 60.1596 160.921C59.7604 165.263 57.146 161.51 54.9776 157.611C53.3199 156.364 51.7083 155.03 50.0874 153.859C47.6095 152.069 44.5608 150.902 42.3773 148.719C40.3472 146.689 39.9093 144.289 38.3276 142.099C36.1134 139.033 32.9254 136.766 30.4228 134C26.1294 129.254 23.0632 121.775 23.0632 115.075C23.0632 108.505 21.4797 98.4848 24.1535 92.3731C28.1856 83.1571 32.7552 88.5349 39.7294 90.7766C42.3691 91.625 41.287 85.8701 41.287 84.3515C41.287 80.5296 41.1456 76.6825 41.287 72.8643C41.3468 71.251 45.556 71.9182 46.3492 72.5528C48.0783 73.936 52.3784 79.7177 54.254 79.7177C55.3741 79.7177 58.7512 80.33 58.8099 78.861C58.9267 75.9403 58.109 73.1889 58.109 70.2553C58.109 65.73 57.7638 57.7115 61.2631 54.2122C63.2999 52.1753 67.0019 60.9343 67.3767 62.1948C68.0859 64.5803 70.4125 70.8422 73.1787 71.2678C75.8484 71.6785 78.5481 69.3683 79.6816 67.1012C81.4022 63.66 77.8085 47.4756 84.7438 47.4756Z" fill="#B8D9E1"/>
<path d="M71.0536 50.1584C80.2513 49.8178 86.4045 48.0661 93.2599 41.325C90.5689 41.325 83.2322 39.6687 80.2858 39.6687C77.5202 39.6687 73.8989 41.4185 71.4523 42.7359C66.9226 45.1749 60.7832 47.0214 55.7177 48.0728C50.8289 49.0874 47.8282 52.904 44.6759 56.2314C41.1821 59.9193 37.1726 62.8017 32.5605 64.8195C29.4092 66.1982 29.6845 71.7655 27.285 73.8983C26.128 74.9268 25.873 76.6275 24.8006 77.763C23.727 78.8997 22.164 80.4475 22.0401 82.057C21.7995 85.1856 19.9849 89.2883 18.7276 92.1174C17.7805 94.2484 17.6848 98.8807 18.2062 101.227C19.1734 105.579 22.5847 109.172 23.1443 113.649C23.3837 115.564 23.3755 118.213 24.8006 119.722C26.4364 121.454 27.7774 122.689 28.6652 124.997C29.7463 127.808 32.5344 131.87 35.2903 133.402C40.1303 136.09 44.136 139.031 48.5712 142.358C54.9685 147.156 63.3454 148.316 70.6242 150.915C75.4464 152.637 79.3526 156.215 84.2424 157.878C88.0842 159.184 94.7295 159.905 98.6581 158.491C101.982 157.294 94.251 154.503 93.5359 154.228C90.1885 152.94 84.6591 154.206 81.9114 151.958C80.0612 150.444 78.0553 149.159 76.0224 147.879C74.3503 146.826 72.3606 147.076 70.6242 146.345C67.6314 145.085 65.5567 142.325 62.8949 140.272C60.0706 138.093 58.5912 134.202 55.4723 132.42C53.9301 131.539 51.9905 130.894 50.1048 130.794C45.5327 130.554 44.0633 131.429 41.67 127.513C39.4995 123.961 35.3061 123.862 32.5299 121.378C29.9904 119.106 29.1927 115.493 27.1316 112.974C26.2187 111.858 26.3098 108.994 25.9048 107.576C25.4316 105.92 24.7442 103.821 23.9418 102.331C22.0796 98.8727 22.3864 95.8329 24.2792 92.3627C25.4622 90.1939 28.1602 88.968 28.7879 86.5964C29.2088 85.0066 29.4816 83.062 30.1988 81.6276C32.4016 77.2221 34.1559 74.504 38.2962 71.5673C42.815 68.3621 47.1358 66.2323 50.4728 61.783C51.3706 60.586 53.6732 59.3738 54.8589 58.4705C56.5345 57.1938 58.1288 56.0486 59.8584 54.8512C62.5953 52.9564 67.6 50.2863 71.0536 50.1584Z" fill="#78A6B1"/>
<path d="M244.238 67.0619C242.225 65.103 238.772 63.2248 241.736 60.5573C243.418 60.5573 248.833 63.4913 249.964 64.5601C253.735 68.121 256.208 72.5674 259.249 76.7912C262.282 81.004 265.096 84.3392 266.143 89.6894C267.047 94.3115 266.254 99.8236 266.254 104.561C266.254 106.535 266.381 108.603 265.642 110.482C265.031 112.039 262.544 113.631 261.473 114.985C259.918 116.951 259.322 119.1 258.248 121.323C256.807 124.309 255.14 127.294 253.967 130.385C252.446 134.397 250.74 139.218 246.239 140.504C242.958 141.441 237.82 143.119 235.704 145.897C232.511 150.088 228.835 151.569 224.224 153.875C222.483 154.745 220.686 155.919 218.831 156.515C217.452 156.959 216.11 156.469 214.717 157.127C211.003 158.881 208.501 161.749 205.96 164.855C205.023 166 203.614 165.773 202.486 165.021C200.33 163.584 198.232 163.131 195.703 163.131C188.076 163.131 180.732 163.286 173.187 164.521C166.957 165.54 160.525 165.133 154.229 165.133C153.004 165.133 140.059 166.172 143.665 162.353C146.543 159.306 153.402 160.629 157.175 160.629C160.447 160.629 164.257 160.477 167.488 159.879C172.015 159.041 176.997 158.253 181.304 156.627C186.212 154.772 191.258 154.218 196.176 152.373C200.468 150.764 204.861 150.517 209.213 149.121C213.393 147.78 217.342 145.835 221.221 143.895C224 142.506 226.285 140.938 228.838 139.114C232.096 136.787 235.78 136.389 239.012 134.333C243.77 131.305 247.665 128.256 250.242 123.102C251.031 121.525 251.278 119.064 252.494 117.849C253.97 116.372 255.696 115.147 257.192 113.651C259.953 110.889 257.474 109.078 258.359 105.979C259.232 102.925 260.308 99.588 259.721 96.3608C259.203 93.5121 258.188 90.8532 257.359 88.0771C256.671 85.776 256.604 82.7239 255.635 80.5717C254.781 78.6744 253.043 76.9603 251.994 75.0955C251.199 73.6833 250.555 73.0145 249.214 72.2601C247.311 71.19 245.819 68.6006 244.238 67.0619Z" fill="#78A6B1"/>
<path d="M20.0005 96.0001L18.5842 93.94C18.5207 93.9836 18.4592 94.0302 18.4 94.0795L20.0005 96.0001ZM25.0005 84.0001L26.2602 86.1595L25.0005 84.0001ZM35.5005 71.0001L36.3647 73.3459L35.5005 71.0001ZM46.0005 61.0001L46.3383 63.4771L46.0005 61.0001ZM57.0005 53.5001L56.8224 51.0064L57.0005 53.5001ZM70.0005 45.5001L69.8537 43.0044L70.0005 45.5001ZM92.8224 43.4937C94.1996 43.5921 95.3958 42.5554 95.4941 41.1782C95.5925 39.801 94.5558 38.6048 93.1786 38.5064L92.8224 43.4937ZM54.0849 79.6443C54.4407 80.9783 55.8105 81.7714 57.1446 81.4157C58.4787 81.0599 59.2718 79.69 58.9161 78.3559L54.0849 79.6443ZM37.5005 70.0923L36.2623 67.9204L36.2623 67.9204L37.5005 70.0923ZM43.1671 89.3975C43.6628 90.6862 45.1092 91.3291 46.3979 90.8335C47.6866 90.3378 48.3295 88.8913 47.8338 87.6026L43.1671 89.3975ZM35.151 100.854C35.6228 102.152 37.0573 102.821 38.3548 102.35C39.6524 101.878 40.3218 100.443 39.85 99.1457L35.151 100.854ZM23.0005 93.0056L20.8059 91.8082L20.8059 91.8082L23.0005 93.0056ZM31.2221 112.529C31.7903 113.787 33.2711 114.347 34.5294 113.779C35.7878 113.21 36.3472 111.729 35.7789 110.471L31.2221 112.529ZM69.5876 69.7466C69.9491 71.0792 71.3223 71.8665 72.6549 71.5051C73.9874 71.1437 74.7747 69.7704 74.4133 68.4379L69.5876 69.7466ZM22.0005 106.5L23.9527 108.062L23.9527 108.062L22.0005 106.5ZM28.3878 117.5L26.48 115.884L28.3878 117.5ZM35.5005 127L37.8217 127.929L35.5005 127ZM47 136.5L44.5124 136.251L47 136.5ZM60 146L57.5103 145.774L60 146ZM74 154C75.3807 154 76.5 152.881 76.5 151.5C76.5 150.119 75.3807 149 74 149V154ZM34.2814 143.768C35.2577 144.744 36.8406 144.744 37.817 143.768C38.7933 142.792 38.7934 141.209 37.8171 140.232L34.2814 143.768ZM36.0493 129.5L37.7802 127.696L36.0493 129.5ZM47.5 157.5C48.6046 158.329 50.1716 158.105 51 157C51.8284 155.896 51.6046 154.329 50.5 153.5L47.5 157.5ZM49 139.381L50.1937 137.184L49 139.381ZM60.1679 166.358C61.4699 166.817 62.8979 166.134 63.3575 164.832C63.817 163.53 63.134 162.102 61.8321 161.643L60.1679 166.358ZM126 184.5L124.774 186.679C125.714 187.207 126.886 187.074 127.683 186.349C128.48 185.624 128.722 184.469 128.285 183.485L126 184.5ZM85.4926 161.808C85.3867 160.432 84.1849 159.402 82.8083 159.507C81.4316 159.613 80.4015 160.815 80.5074 162.192L85.4926 161.808ZM105.988 167.751C105.85 166.377 104.625 165.375 103.251 165.512C101.877 165.65 100.875 166.875 101.012 168.249L105.988 167.751ZM113.927 161.567C112.583 161.883 111.75 163.229 112.066 164.573C112.383 165.917 113.729 166.75 115.073 166.434L113.927 161.567ZM183 162.5L181.648 160.397L181.648 160.397L183 162.5ZM255 129L257.333 129.898C257.542 129.356 257.555 128.76 257.372 128.21L255 129ZM185.5 161.299L184.707 158.928L185.5 161.299ZM176 180C174.619 180 173.5 181.119 173.5 182.5C173.5 183.881 174.619 185 176 185V180ZM198.553 174.04C197.194 174.287 196.293 175.589 196.54 176.947C196.787 178.306 198.089 179.207 199.447 178.96L198.553 174.04ZM217.146 166.651C215.848 167.122 215.179 168.557 215.651 169.854C216.122 171.152 217.557 171.821 218.854 171.35L217.146 166.651ZM231.882 157.264C230.647 157.881 230.146 159.383 230.764 160.618C231.381 161.853 232.883 162.354 234.118 161.736L231.882 157.264ZM254.239 130.5L252.153 129.123L254.239 130.5ZM245 151L245.461 153.457C245.848 153.385 246.212 153.222 246.524 152.982L245 151ZM261 121L260.342 118.588L261 121ZM266.5 97.0001L268.161 98.8686L268.161 98.8686L266.5 97.0001ZM242 58.5001L242.354 56.0252L242 58.5001ZM229.131 47.5036C227.753 47.431 226.576 48.4899 226.503 49.8687C226.431 51.2475 227.49 52.4241 228.869 52.4966L229.131 47.5036ZM240.92 84.6133C240.154 85.7622 240.464 87.3143 241.613 88.0802C242.762 88.8461 244.314 88.5357 245.08 87.3868L240.92 84.6133ZM248.696 97.5299C248.16 98.8025 248.757 100.268 250.03 100.804C251.302 101.34 252.768 100.743 253.304 99.4702L248.696 97.5299ZM251.974 109.444C251.39 110.695 251.932 112.182 253.183 112.766C254.434 113.349 255.922 112.808 256.505 111.557L251.974 109.444ZM252.053 122.787C251.383 123.995 251.819 125.517 253.027 126.186C254.234 126.856 255.756 126.42 256.426 125.213L252.053 122.787ZM38.5 94.5001C38.5 95.8808 39.6193 97.0001 41 97.0001C42.3807 97.0001 43.5 95.8808 43.5 94.5001H38.5ZM78.4968 71.2927C79.763 70.7422 80.3432 69.2695 79.7927 68.0033C79.2422 66.737 77.7694 66.1569 76.5032 66.7074L78.4968 71.2927ZM179.175 58.8801C178.004 59.6118 177.648 61.1542 178.38 62.325C179.112 63.4959 180.654 63.8518 181.825 63.1201L179.175 58.8801ZM188 44.0001C188 42.6194 186.881 41.5001 185.5 41.5001C184.119 41.5001 183 42.6194 183 44.0001H188ZM196.072 62.1789C194.79 62.6917 194.166 64.1466 194.679 65.4286C195.192 66.7105 196.647 67.3341 197.928 66.8213L196.072 62.1789ZM205 47.5001C205 46.1194 203.881 45.0001 202.5 45.0001C201.119 45.0001 200 46.1194 200 47.5001H205ZM212.024 68.6984C210.753 69.2373 210.159 70.7047 210.698 71.9759C211.237 73.2471 212.705 73.8407 213.976 73.3018L212.024 68.6984ZM221 53.5001C221 52.1194 219.881 51.0001 218.5 51.0001C217.119 51.0001 216 52.1194 216 53.5001H221ZM226.382 77.264C225.147 77.8815 224.646 79.3832 225.264 80.6181C225.881 81.8531 227.383 82.3536 228.618 81.7362L226.382 77.264ZM236.997 61.1136C237.06 59.7343 235.993 58.5653 234.614 58.5026C233.234 58.4399 232.065 59.5073 232.003 60.8865L236.997 61.1136ZM239.334 85.6033C238.838 84.3145 237.392 83.6712 236.103 84.1665C234.814 84.6618 234.171 86.1081 234.666 87.3969L239.334 85.6033ZM251 111.5C251 112.881 252.119 114 253.5 114C254.881 114 256 112.881 256 111.5H251ZM155.562 30.5641C154.217 30.2537 152.874 31.0926 152.564 32.4379C152.254 33.7833 153.092 35.1256 154.438 35.4361L155.562 30.5641ZM204.438 41.9523C205.516 42.8148 207.09 42.64 207.952 41.5618C208.815 40.4837 208.64 38.9104 207.562 38.0479L204.438 41.9523ZM92.3505 62.0861C91.0173 62.445 90.2275 63.8168 90.5864 65.1501C90.9454 66.4833 92.3172 67.2731 93.6504 66.9141L92.3505 62.0861ZM172.947 64.9382C174.294 65.2435 175.633 64.3993 175.938 63.0527C176.243 61.7062 175.399 60.3672 174.053 60.0619L172.947 64.9382ZM88.4211 48.877C88.077 47.5398 86.714 46.7349 85.3769 47.079C84.0397 47.4231 83.2348 48.7861 83.5789 50.1232L88.4211 48.877ZM86.0789 59.8368C86.423 61.1739 87.786 61.9789 89.1231 61.6348C90.4603 61.2906 91.2652 59.9277 90.9211 58.5906L86.0789 59.8368ZM69.0037 77.2074C67.7375 77.7579 67.1573 79.2307 67.7078 80.4969C68.2583 81.7631 69.7311 82.3433 70.9973 81.7928L69.0037 77.2074ZM102.079 72.5244C103.422 72.2049 104.252 70.857 103.932 69.5137C103.613 68.1705 102.265 67.3406 100.921 67.6601L102.079 72.5244ZM152.057 182.235C150.806 181.651 149.318 182.192 148.735 183.443C148.151 184.694 148.692 186.182 149.943 186.766L152.057 182.235ZM125.994 172.334C125.903 170.956 124.711 169.914 123.334 170.006C121.956 170.097 120.914 171.289 121.006 172.666L125.994 172.334ZM70.1473 47.9957C74.2327 47.7554 76.0038 48.1113 77.7044 48.1852C78.5888 48.2237 79.5753 48.183 80.6336 47.7209C81.6243 47.2883 82.4537 46.5824 83.2682 45.7678L79.7327 42.2323C79.0473 42.9177 78.7516 43.0868 78.6329 43.1386C78.5819 43.1609 78.4747 43.214 77.9216 43.1899C76.7472 43.1389 74.2683 42.7447 69.8537 43.0044L70.1473 47.9957ZM83.2682 45.7678C84.6737 44.3624 85.4178 43.8662 86.4004 43.6016C87.5641 43.2883 89.2879 43.2412 92.8224 43.4937L93.1786 38.5064C89.713 38.2589 87.1869 38.2118 85.1005 38.7735C82.8332 39.384 81.3273 40.6377 79.7327 42.2323L83.2682 45.7678ZM46.3383 63.4771C47.915 63.2621 49.2317 62.9606 50.3343 62.5705L48.6667 57.8568C47.9691 58.1036 47.0022 58.3403 45.6627 58.523L46.3383 63.4771ZM50.3343 62.5705C52.1662 61.9224 53.4569 61.0094 54.3243 59.8183C55.1423 58.6951 55.4261 57.4997 55.5907 56.9087C55.7913 56.1882 55.8456 56.2255 55.7908 56.2761C55.7179 56.3434 55.9125 56.0841 57.1786 55.9937L56.8224 51.0064C55.0524 51.1328 53.5277 51.5608 52.3997 52.6019C51.2897 53.6263 50.953 54.9242 50.7739 55.5675C50.5588 56.3401 50.4742 56.6116 50.2825 56.8748C50.1403 57.0701 49.7799 57.463 48.6667 57.8568L50.3343 62.5705ZM47.541 61.7662C47.93 62.2572 48.4792 63.2473 49.1304 64.7295C49.7585 66.1591 50.4093 67.8763 51.039 69.6884C52.2978 73.3108 53.4303 77.1894 54.0849 79.6443L58.9161 78.3559C58.2374 75.8108 57.0698 71.8108 55.762 68.0472C55.1083 66.1663 54.4091 64.3138 53.7081 62.7182C53.0301 61.1752 52.271 59.6848 51.46 58.6612L47.541 61.7662ZM36.3647 73.3459C37.2629 73.015 38.051 72.6561 38.7387 72.2641L36.2623 67.9204C35.8584 68.1507 35.3289 68.399 34.6362 68.6542L36.3647 73.3459ZM38.7387 72.2641C40.6786 71.1582 41.8001 69.7903 42.312 68.1902C42.547 67.456 42.6205 66.7714 42.6527 66.2298C42.6685 65.9631 42.6755 65.7025 42.6815 65.4977C42.688 65.2777 42.6937 65.1125 42.7044 64.9611C42.7412 64.4398 42.8041 64.4884 42.8346 64.4637C43.0842 64.2613 43.9267 63.806 46.3383 63.4771L45.6627 58.523C43.0348 58.8813 41.0416 59.4805 39.6858 60.5798C38.1108 61.8567 37.7985 63.4539 37.7168 64.6082C37.6979 64.8758 37.69 65.1374 37.6837 65.3503C37.6769 65.5784 37.672 65.7568 37.6615 65.9332C37.641 66.2778 37.6043 66.4962 37.5498 66.6666C37.4829 66.8758 37.3087 67.3239 36.2623 67.9204L38.7387 72.2641ZM35.3143 71.305C37.6148 75.4518 41.4879 85.0316 43.1671 89.3975L47.8338 87.6026C46.1797 83.3019 42.1862 73.3853 39.6866 68.8795L35.3143 71.305ZM26.2602 86.1595C29.1581 84.469 30.1815 82.229 30.7831 80.216L25.9925 78.7842C25.5972 80.1068 25.1467 81.0205 23.7408 81.8406L26.2602 86.1595ZM30.7831 80.216C31.3425 78.3441 31.4468 77.3826 32.123 76.2832C32.6688 75.3959 33.7131 74.3228 36.3647 73.3459L34.6362 68.6542C31.1951 69.922 29.1287 71.6078 27.8642 73.6637C26.73 75.5076 26.3244 77.6737 25.9925 78.7842L30.7831 80.216ZM26.4148 81.0354C26.8709 81.6216 27.5335 82.7626 28.3414 84.3909C29.1264 85.973 29.9791 87.8712 30.8273 89.8659C32.523 93.8535 34.1624 98.1358 35.151 100.854L39.85 99.1457C38.8386 96.3644 37.1667 91.9967 35.4286 87.9093C34.5599 85.8665 33.665 83.8709 32.8204 82.1686C31.9988 80.5126 31.1497 78.9786 30.3608 77.9648L26.4148 81.0354ZM21.4168 98.0602C23.1915 96.8401 24.4433 95.5808 25.195 94.2031L20.8059 91.8082C20.5583 92.2619 19.9754 92.9835 18.5842 93.94L21.4168 98.0602ZM25.195 94.2031C26.7914 91.2774 25.6129 88.4973 25.3824 87.564C25.235 86.9675 25.3024 86.8959 25.2859 86.9403C25.2626 87.0029 25.3255 86.7048 26.2602 86.1595L23.7408 81.8406C22.2691 82.6991 21.132 83.7644 20.599 85.1987C20.0728 86.6149 20.3208 87.9231 20.5282 88.763C21.0073 90.7025 21.2352 91.0214 20.8059 91.8082L25.195 94.2031ZM21.3752 94.9053C21.7749 95.2472 22.4684 96.105 23.3953 97.5375C24.2785 98.9025 25.2496 100.591 26.225 102.4C28.1739 106.015 30.073 109.985 31.2221 112.529L35.7789 110.471C34.5946 107.849 32.6437 103.769 30.626 100.027C29.618 98.1578 28.5767 96.3414 27.5932 94.8214C26.6534 93.3689 25.626 91.9618 24.6257 91.106L21.3752 94.9053ZM57.1786 55.9937C60.3345 55.7683 62.2148 54.4534 63.5832 52.8344C64.172 52.1378 64.7049 51.3305 65.0887 50.7878C65.5162 50.1832 65.8767 49.7238 66.2921 49.343L62.9135 45.6572C62.094 46.4084 61.4862 47.2222 61.0061 47.9012C60.4821 48.6423 60.1681 49.1293 59.7645 49.6069C59.1481 50.3361 58.4622 50.8893 56.8224 51.0064L57.1786 55.9937ZM66.2921 49.343C66.9558 48.7346 67.9765 48.1234 70.1473 47.9957L69.8537 43.0044C66.6712 43.1916 64.5202 44.1844 62.9135 45.6572L66.2921 49.343ZM62.3516 48.5873C64.5614 53.1629 68.0917 64.2309 69.5876 69.7466L74.4133 68.4379C72.9093 62.8922 69.2805 51.4373 66.854 46.4129L62.3516 48.5873ZM18.4 94.0795C17.6839 94.6762 17.0766 95.5097 16.9159 96.5992C16.7632 97.6345 17.0737 98.5166 17.3787 99.1201C17.6814 99.7188 18.0875 100.255 18.4223 100.67C18.5973 100.888 18.7799 101.105 18.9476 101.304C19.1209 101.51 19.2808 101.7 19.4374 101.892C20.107 102.714 20.4223 103.247 20.5167 103.66C20.5629 103.861 20.6243 104.218 20.0483 104.938L23.9527 108.062C25.3767 106.282 25.8131 104.389 25.3905 102.544C25.0162 100.909 24.019 99.5992 23.3136 98.7334C23.1264 98.5038 22.9386 98.2812 22.7726 98.0839C22.601 97.8801 22.4525 97.7033 22.317 97.5349C22.0306 97.1792 21.8977 96.9766 21.841 96.8644C21.7867 96.757 21.9174 96.9555 21.8624 97.3287C21.7994 97.7561 21.567 97.9489 21.601 97.9206L18.4 94.0795ZM26.48 115.884C25.82 116.664 25.2625 117.695 25.3044 118.936C25.3464 120.18 25.9731 121.105 26.5535 121.706C27.1215 122.294 27.8135 122.75 28.4106 123.101C29.021 123.459 29.6984 123.802 30.2883 124.102C31.6058 124.774 32.5016 125.264 33.016 125.763C33.2352 125.976 33.2416 126.06 33.2275 126.011C33.2006 125.918 33.2474 125.901 33.1793 126.072L37.8217 127.929C38.2536 126.849 38.3473 125.723 38.0328 124.63C37.7311 123.58 37.1155 122.774 36.4971 122.174C35.3361 121.048 33.6935 120.226 32.5595 119.648C31.9236 119.324 31.3969 119.056 30.9435 118.79C30.4769 118.516 30.2455 118.331 30.1493 118.232C30.0654 118.145 30.2869 118.335 30.3015 118.767C30.316 119.196 30.1088 119.336 30.2956 119.116L26.48 115.884ZM20.0483 104.938C19.3746 105.781 18.8897 106.757 18.7854 107.859C18.6795 108.977 18.9912 109.962 19.4557 110.759L23.7758 108.241C23.7464 108.191 23.7483 108.181 23.7548 108.206C23.7625 108.237 23.7677 108.282 23.7632 108.33C23.7589 108.375 23.7492 108.384 23.7663 108.346C23.785 108.304 23.8352 108.209 23.9527 108.062L20.0483 104.938ZM19.4557 110.759C20.1858 112.012 21.3857 112.955 22.3421 113.629C22.8528 113.989 23.3848 114.332 23.8698 114.643C24.3708 114.965 24.8159 115.249 25.2261 115.53C25.6361 115.812 25.9522 116.052 26.1869 116.263C26.3013 116.366 26.3819 116.449 26.4368 116.513C26.4921 116.577 26.5095 116.608 26.5077 116.605C26.4959 116.584 26.405 116.4 26.4351 116.123C26.4638 115.858 26.5741 115.773 26.48 115.884L30.2956 119.116C30.8561 118.454 31.3005 117.633 31.406 116.662C31.5128 115.677 31.2412 114.814 30.8543 114.133C30.1646 112.92 28.9445 112.019 28.0571 111.409C27.5668 111.072 27.0431 110.739 26.57 110.435C26.0808 110.121 25.6335 109.832 25.2225 109.542C24.3355 108.917 23.923 108.494 23.7758 108.241L19.4557 110.759ZM19.2386 110.274C21.6662 117.73 23.8086 124.464 26.1001 130.071C28.3845 135.66 30.9235 140.41 34.2814 143.768L37.8171 140.232C35.1755 137.591 32.9399 133.59 30.7285 128.179C28.5241 122.786 26.4495 116.27 23.9929 108.726L19.2386 110.274ZM33.1793 126.072C32.8125 126.989 32.6836 127.988 32.9347 128.995C33.1807 129.983 33.7326 130.742 34.3184 131.304L37.7802 127.696C37.7282 127.646 37.7191 127.627 37.729 127.643C37.741 127.662 37.7677 127.711 37.7863 127.786C37.8055 127.863 37.8069 127.929 37.803 127.971C37.7995 128.008 37.7943 127.997 37.8217 127.929L33.1793 126.072ZM34.3184 131.304C35.3626 132.306 36.8141 132.958 38.0119 133.43C38.6502 133.681 39.3167 133.918 39.9456 134.139C40.5888 134.366 41.1923 134.578 41.7699 134.798C42.9743 135.258 43.7874 135.659 44.2611 136.039C44.4759 136.212 44.5283 136.309 44.5297 136.312C44.5297 136.312 44.5274 136.307 44.5244 136.299C44.5213 136.29 44.5184 136.279 44.5162 136.268C44.5114 136.243 44.5141 136.234 44.5124 136.251L49.4876 136.749C49.6985 134.64 48.6028 133.114 47.3925 132.141C46.2619 131.233 44.8068 130.606 43.5535 130.127C42.9023 129.878 42.2295 129.643 41.6084 129.424C40.9729 129.2 40.387 128.991 39.8443 128.778C38.6797 128.319 38.0539 127.959 37.7802 127.696L34.3184 131.304ZM33.6499 130.202C35.6252 136.952 37.4086 142.494 39.4929 146.937C41.5925 151.412 44.0648 154.924 47.5 157.5L50.5 153.5C47.9352 151.576 45.9075 148.838 44.0195 144.813C42.1161 140.756 40.4241 135.548 38.4486 128.798L33.6499 130.202ZM44.5124 136.251C44.2286 139.089 46.2417 140.727 47.8063 141.578L50.1937 137.184C49.7036 136.918 49.5166 136.727 49.4643 136.657C49.4479 136.635 49.463 136.65 49.4762 136.695C49.4901 136.743 49.4856 136.769 49.4876 136.749L44.5124 136.251ZM47.8063 141.578C48.9707 142.21 50.3531 142.683 51.5864 143.08C52.9055 143.503 54.0714 143.844 55.151 144.257C56.2433 144.675 56.9204 145.051 57.2866 145.382C57.5508 145.621 57.518 145.689 57.5103 145.774L62.4897 146.226C62.6677 144.269 61.8208 142.742 60.6424 141.675C59.5659 140.701 58.172 140.059 56.9359 139.587C55.6872 139.109 54.2675 138.689 53.115 138.319C51.8768 137.921 50.9016 137.569 50.1937 137.184L47.8063 141.578ZM46.558 139.916C47.5138 144.274 48.4498 149.991 50.2131 154.84C51.9812 159.701 54.8416 164.478 60.1679 166.358L61.8321 161.643C58.6584 160.523 56.5188 157.549 54.9119 153.131C53.3002 148.699 52.4862 143.607 51.442 138.845L46.558 139.916ZM57.5103 145.774C57.3376 147.673 58.1671 149.198 59.3173 150.273C60.3986 151.283 61.8124 151.961 63.1772 152.437L64.8228 147.715C63.7611 147.345 63.087 146.952 62.731 146.619C62.4439 146.351 62.4866 146.261 62.4897 146.226L57.5103 145.774ZM63.1772 152.437C66.6578 153.65 71.1773 154 74 154V149C71.4044 149 67.5316 148.659 64.8228 147.715L63.1772 152.437ZM61.5975 150.767C62.3009 153.212 62.7192 155.659 63.092 158.063C63.4551 160.406 63.7895 162.826 64.3273 164.939C64.8678 167.062 65.6845 169.193 67.2103 170.876C68.8038 172.634 70.9612 173.678 73.7239 173.985L74.2761 169.015C72.5388 168.822 71.5712 168.242 70.9147 167.518C70.1905 166.719 69.6322 165.51 69.1727 163.705C68.7105 161.89 68.4199 159.793 68.033 157.298C67.6558 154.864 67.1991 152.152 66.4025 149.385L61.5975 150.767ZM73.7239 173.985C78.0317 174.463 80.5984 175.282 82.257 176.111C83.8768 176.921 84.7655 177.801 85.7322 178.768L89.2678 175.232C88.2345 174.199 86.8732 172.829 84.493 171.639C82.1516 170.468 78.9683 169.537 74.2761 169.015L73.7239 173.985ZM85.7322 178.768C86.4342 179.47 87.3101 179.797 87.9738 179.976C88.6733 180.164 89.4401 180.263 90.1759 180.327C91.5713 180.447 93.4843 180.475 95.1209 180.559C98.7508 180.747 102.166 181.25 104.5 183L107.5 179C103.834 176.25 98.9992 175.753 95.3791 175.566C93.3907 175.463 91.9287 175.459 90.6053 175.345C89.9818 175.292 89.5533 175.223 89.2723 175.147C88.9555 175.062 89.0658 175.03 89.2678 175.232L85.7322 178.768ZM104.5 183C108.345 185.884 112.281 185.486 115.442 185.243C118.663 184.995 121.484 184.828 124.774 186.679L127.226 182.321C122.516 179.672 118.337 180.005 115.058 180.257C111.719 180.514 109.655 180.616 107.5 179L104.5 183ZM89.62 175.675C85.974 169.841 85.6585 163.964 85.4926 161.808L80.5074 162.192C80.6748 164.369 81.026 171.359 85.38 178.325L89.62 175.675ZM108.425 180.394C106.85 174.091 106.14 169.278 105.988 167.751L101.012 168.249C101.193 170.055 101.95 175.109 103.575 181.606L108.425 180.394ZM115.073 166.434C118.601 165.604 121.982 166.506 125.891 167.596C129.532 168.61 133.963 169.918 138.341 168.354L136.659 163.646C134.037 164.582 131.218 163.89 127.234 162.779C123.518 161.744 118.899 160.397 113.927 161.567L115.073 166.434ZM138.341 168.354C141.063 167.382 143.888 168.033 147.994 168.773C151.868 169.472 156.554 170.12 161.564 167.762L159.436 163.238C155.946 164.88 152.632 164.529 148.881 163.852C145.362 163.218 140.937 162.118 136.659 163.646L138.341 168.354ZM161.564 167.762C165.13 166.084 168.358 166.361 172.101 166.679C175.736 166.987 180.056 167.365 184.352 164.603L181.648 160.397C178.944 162.135 176.264 162.013 172.524 161.697C168.892 161.389 164.37 160.916 159.436 163.238L161.564 167.762ZM207.661 157.869C209.686 156.069 211.361 155.193 212.781 154.726C214.227 154.251 215.534 154.151 217.031 154.058C218.46 153.968 220.247 153.885 222.06 153.21C223.96 152.503 225.72 151.227 227.452 149.062L223.548 145.938C222.28 147.523 221.228 148.185 220.315 148.524C219.316 148.896 218.29 148.969 216.719 149.067C215.216 149.161 213.335 149.281 211.219 149.977C209.076 150.682 206.814 151.932 204.339 154.132L207.661 157.869ZM227.452 149.062C228.678 147.529 229.879 146.765 231.019 146.324C232.225 145.857 233.458 145.707 234.952 145.549C236.326 145.402 238.125 145.24 239.784 144.52C241.599 143.733 243.115 142.36 244.236 140.118L239.764 137.882C239.135 139.14 238.463 139.643 237.794 139.933C236.969 140.291 235.987 140.41 234.423 140.577C232.979 140.73 231.119 140.924 229.215 141.661C227.246 142.423 225.322 143.721 223.548 145.938L227.452 149.062ZM184.352 164.603C185.003 164.185 185.646 163.886 186.293 163.67L184.707 158.928C183.683 159.271 182.662 159.746 181.648 160.397L184.352 164.603ZM186.293 163.67C187.5 163.267 188.776 163.129 190.268 163.088C191.565 163.053 193.588 163.103 195.236 163.013C199.017 162.805 203.178 161.854 207.661 157.869L204.339 154.132C200.892 157.195 197.9 157.859 194.961 158.02C193.249 158.115 192.022 158.039 190.133 158.09C188.44 158.136 186.596 158.297 184.707 158.928L186.293 163.67ZM183.038 160.866C181.753 168.164 181.052 173.124 179.894 176.389C179.333 177.971 178.766 178.832 178.225 179.306C177.76 179.714 177.132 180 176 180V185C178.118 185 179.99 184.411 181.525 183.063C182.984 181.781 183.917 180.005 184.606 178.06C185.948 174.276 186.747 168.635 187.962 161.733L183.038 160.866ZM203.57 155.413C202.674 159.126 202.13 162.23 201.733 164.797C201.324 167.437 201.097 169.299 200.797 170.832C200.496 172.366 200.204 173.045 199.938 173.393C199.775 173.605 199.502 173.868 198.553 174.04L199.447 178.96C201.248 178.632 202.787 177.895 203.906 176.435C204.921 175.111 205.379 173.446 205.703 171.794C206.028 170.138 206.301 167.97 206.674 165.562C207.057 163.083 207.576 160.124 208.43 156.587L203.57 155.413ZM223.013 147.245C222.69 150.399 221.936 155.222 220.745 159.403C220.148 161.502 219.47 163.334 218.736 164.689C217.943 166.153 217.342 166.579 217.146 166.651L218.854 171.35C220.858 170.621 222.211 168.772 223.133 167.07C224.113 165.26 224.91 163.036 225.555 160.772C226.848 156.229 227.644 151.101 227.987 147.755L223.013 147.245ZM239.536 138.578C239.055 141.382 238.04 145.75 236.582 149.665C235.853 151.624 235.04 153.394 234.173 154.776C233.274 156.208 232.476 156.967 231.882 157.264L234.118 161.736C235.924 160.833 237.326 159.159 238.408 157.434C239.522 155.659 240.472 153.547 241.268 151.41C242.86 147.134 243.945 142.451 244.464 139.423L239.536 138.578ZM244.236 140.118C245.389 137.812 246.94 137.094 249.007 136.401C250.97 135.742 254.272 134.99 256.326 131.877L252.153 129.123C251.261 130.475 250.038 130.781 247.416 131.661C244.898 132.505 241.802 133.805 239.764 137.882L244.236 140.118ZM256.326 131.877C256.718 131.283 257.053 130.625 257.333 129.898L252.667 128.103C252.506 128.521 252.331 128.854 252.153 129.123L256.326 131.877ZM251.755 130.221C251.494 132.545 250.55 136.452 249.03 140.261C247.476 144.157 245.515 147.45 243.476 149.019L246.524 152.982C249.685 150.551 252.053 146.177 253.674 142.114C255.329 137.965 256.405 133.621 256.724 130.779L251.755 130.221ZM257.372 128.21C257.298 127.987 257.285 127.114 258.099 125.926C258.848 124.835 260.077 123.843 261.658 123.412L260.342 118.588C257.523 119.357 255.335 121.115 253.976 123.099C252.682 124.986 251.869 127.513 252.628 129.791L257.372 128.21ZM261.658 123.412C262.642 123.143 263.556 122.695 264.284 121.974C265.03 121.234 265.428 120.357 265.605 119.495C265.918 117.969 265.541 116.315 265.319 115.284C265.041 114.001 264.863 113.179 264.902 112.493C264.929 112.018 265.037 111.813 265.387 111.58L262.613 107.42C260.713 108.687 260.008 110.482 259.91 112.21C259.824 113.727 260.209 115.312 260.431 116.341C260.709 117.623 260.769 118.188 260.707 118.49C260.697 118.542 260.704 118.481 260.763 118.423C260.803 118.384 260.733 118.482 260.342 118.588L261.658 123.412ZM268.161 98.8686C268.998 98.1241 269.65 97.2102 269.925 96.1061C270.202 94.9938 270.029 93.9619 269.697 93.1096C269.1 91.574 267.819 90.2507 266.985 89.3875C266.498 88.8841 266.102 88.4844 265.75 88.0871C265.395 87.6866 265.214 87.4272 265.134 87.2718C265.057 87.1237 265.187 87.293 265.121 87.6386C265.048 88.0192 264.836 88.1228 265 88.0001L262 84.0001C261.164 84.6274 260.436 85.5123 260.209 86.7014C259.989 87.8556 260.326 88.8608 260.694 89.5722C261.059 90.2761 261.562 90.8996 262.006 91.4014C262.453 91.9064 262.97 92.4286 263.39 92.8626C264.368 93.8745 264.869 94.4887 265.037 94.9218C265.089 95.054 265.044 95.0142 265.073 94.8979C265.1 94.79 265.127 94.8761 264.839 95.1316L268.161 98.8686ZM265 88.0001C265.856 87.3583 266.582 86.4501 266.794 85.2402C266.997 84.0788 266.65 83.0641 266.267 82.3365C265.564 80.9998 264.234 79.7332 263.303 78.8303C262.195 77.7556 261.365 76.9445 260.891 76.2091C260.672 75.8694 260.642 75.7081 260.64 75.6932C260.64 75.6932 260.641 75.7023 260.64 75.7189C260.64 75.7359 260.638 75.756 260.633 75.7772C260.623 75.8249 260.609 75.843 260.62 75.8251L256.38 73.1751C255.008 75.3701 255.79 77.5222 256.687 78.9161C257.542 80.2432 258.868 81.4946 259.822 82.4198C260.954 83.5169 261.592 84.1878 261.842 84.6637C261.936 84.8424 261.812 84.7026 261.869 84.3772C261.934 84.0032 262.144 83.8919 262 84.0001L265 88.0001ZM260.62 75.8251C261.155 74.9695 261.466 73.999 261.411 72.9546C261.357 71.9288 260.962 71.0673 260.493 70.3896C259.625 69.136 258.237 68.1534 257.137 67.42C255.867 66.5732 254.811 65.9512 253.831 65.2017C252.849 64.4508 252.458 63.9336 252.341 63.6223L247.659 65.3779C248.292 67.0666 249.651 68.2994 250.794 69.1735C251.939 70.049 253.383 70.927 254.363 71.5802C255.513 72.3468 256.125 72.8642 256.382 73.2356C256.475 73.3704 256.425 73.3526 256.418 73.2174C256.409 73.0636 256.47 73.0307 256.38 73.1751L260.62 75.8251ZM252.451 64.0098C251.911 61.3059 249.005 56.9754 242.354 56.0252L241.646 60.975C246.195 61.6248 247.423 64.3609 247.549 64.9904L252.451 64.0098ZM242.354 56.0252C241.099 55.846 240.514 55.4473 240.119 55.0526C239.587 54.52 239.283 53.9214 238.569 52.7562C237.92 51.6975 237.017 50.3653 235.438 49.3162C233.852 48.2625 231.822 47.6452 229.131 47.5036L228.869 52.4966C230.928 52.605 232.023 53.0502 232.671 53.4809C233.326 53.9162 233.767 54.4902 234.306 55.369C234.779 56.1413 235.507 57.5114 236.584 58.5882C237.798 59.8029 239.401 60.6542 241.646 60.975L242.354 56.0252ZM247.566 63.9275C245.983 70.6574 244.507 75.57 243.316 78.9591C242.1 82.4224 241.234 84.1422 240.92 84.6133L245.08 87.3868C245.766 86.3579 246.8 84.1278 248.034 80.6161C249.293 77.0301 250.817 71.9428 252.434 65.0727L247.566 63.9275ZM256.07 73.9135C253.3 85.3879 249.975 94.4926 248.696 97.5299L253.304 99.4702C254.692 96.1743 258.1 86.8123 260.93 75.0867L256.07 73.9135ZM261.075 85.3938C259.137 93.1458 254.218 104.629 251.974 109.444L256.505 111.557C258.767 106.705 263.863 94.8544 265.925 86.6064L261.075 85.3938ZM265.387 111.58C267.045 110.475 267.893 108.991 268.115 107.344C268.308 105.907 267.996 104.468 267.775 103.463L262.891 104.537C263.135 105.642 263.218 106.245 263.16 106.677C263.137 106.843 263.097 106.94 263.05 107.015C263.002 107.091 262.891 107.235 262.613 107.42L265.387 111.58ZM267.775 103.463C267.486 102.148 267.289 101.31 267.328 100.532C267.358 99.9448 267.522 99.4368 268.161 98.8686L264.839 95.1316C263.103 96.6749 262.424 98.4873 262.334 100.282C262.254 101.887 262.662 103.493 262.891 104.537L267.775 103.463ZM263.147 102.787L252.053 122.787L256.426 125.213L267.519 105.213L263.147 102.787ZM43.5 94.5001C43.5 94.477 43.4584 94.4389 43.6881 94.2212C44.0216 93.9053 44.5486 93.5838 45.4903 93.0457C47.1336 92.1067 49.9026 90.6247 51.2845 87.5154L46.7155 85.4847C46.0974 86.8755 44.8664 87.6435 43.0097 88.7045C42.2014 89.1664 41.1034 89.7824 40.2494 90.5915C39.2916 91.4988 38.5 92.7732 38.5 94.5001H43.5ZM51.2845 87.5154C51.6112 86.7805 51.9126 86.5039 52.1955 86.3146C52.6202 86.0302 53.1074 85.8573 54.227 85.4173C56.4348 84.5495 59.3031 83.2245 62.8792 79.149L59.1208 75.8512C56.1969 79.1836 54.0652 80.1085 52.398 80.7638C51.5801 81.0853 50.411 81.4922 49.4139 82.1597C48.2749 82.9222 47.3888 83.9697 46.7155 85.4847L51.2845 87.5154ZM62.8792 79.149C66.0764 75.5051 66.9377 75.0955 68.1068 74.7376C69.6789 74.2563 72.5825 73.8642 78.4968 71.2927L76.5032 66.7074C70.9175 69.1359 68.8211 69.2899 66.6432 69.9566C64.0623 70.7468 62.4236 72.0872 59.1208 75.8512L62.8792 79.149ZM181.825 63.1201C184.32 61.5607 185.969 59.5681 186.899 56.3898C187.761 53.4443 188 49.4892 188 44.0001H183C183 49.5109 182.739 52.8058 182.101 54.9853C181.531 56.932 180.68 57.9395 179.175 58.8801L181.825 63.1201ZM197.928 66.8213C199.861 66.0484 201.205 64.5599 202.133 62.9548C203.058 61.3559 203.66 59.4922 204.065 57.6674C204.876 54.0187 205 50.0477 205 47.5001H200C200 49.9524 199.874 53.4815 199.185 56.5828C198.84 58.133 198.38 59.4568 197.805 60.4517C197.233 61.4403 196.639 61.9518 196.072 62.1789L197.928 66.8213ZM213.976 73.3018C216.015 72.4371 217.256 70.4331 218.037 68.6986C218.872 66.8463 219.463 64.6571 219.886 62.6009C220.731 58.4968 221 54.4298 221 53.5001H216C216 54.0703 215.769 57.7994 214.989 61.5933C214.599 63.4862 214.097 65.2715 213.478 66.6449C212.807 68.1361 212.235 68.6091 212.024 68.6984L213.976 73.3018ZM228.618 81.7362C231.314 80.388 233.291 77.9449 234.637 74.5452C235.968 71.183 236.741 66.7491 236.997 61.1136L232.003 60.8865C231.759 66.2509 231.032 70.0671 229.988 72.7049C228.959 75.3053 227.686 76.6122 226.382 77.264L228.618 81.7362ZM234.666 87.3969C235.519 89.6159 236.891 90.9536 238.48 91.7719C239.847 92.4756 241.498 92.8047 242.332 93.0362C243.35 93.3187 243.813 93.5663 244.125 93.9199C244.427 94.2626 244.895 95.0688 245.003 97.1315L249.997 96.8687C249.855 94.1813 249.198 92.1133 247.875 90.6131C246.562 89.1238 244.9 88.56 243.668 88.2182C242.252 87.8253 241.528 87.7172 240.77 87.3267C240.234 87.0507 239.731 86.6371 239.334 85.6033L234.666 87.3969ZM245.003 97.1315C245.141 99.751 245.635 101.667 246.441 103.182C247.25 104.702 248.281 105.626 249.002 106.284C249.734 106.952 250.108 107.318 250.4 107.898C250.692 108.478 251 109.495 251 111.5H256C256 109.005 255.62 107.147 254.866 105.649C254.111 104.151 253.079 103.236 252.373 102.591C251.656 101.937 251.219 101.517 250.856 100.834C250.49 100.146 250.109 98.9992 249.997 96.8687L245.003 97.1315ZM154.438 35.4361C158.252 36.3162 160.843 35.7059 162.788 35.3295C163.744 35.1444 164.41 35.0439 165.077 35.0754C165.699 35.1048 166.423 35.2565 167.382 35.7362L169.618 31.264C168.077 30.4937 166.676 30.1454 165.313 30.081C163.997 30.0188 162.818 30.2308 161.837 30.4206C159.907 30.7942 158.248 31.184 155.562 30.5641L154.438 35.4361ZM167.382 35.7362C169.149 36.6196 170.989 36.786 172.63 36.7414C174.193 36.6989 175.939 36.4367 177.259 36.2991C180.159 35.9971 182.099 36.1342 183.732 37.7679L187.268 34.2323C183.901 30.866 179.841 31.0031 176.741 31.3261C175.061 31.501 173.807 31.7075 172.495 31.7432C171.261 31.7767 170.351 31.6306 169.618 31.264L167.382 35.7362ZM183.732 37.7679C185.469 39.5044 187.612 40.2872 189.695 40.6374C191.738 40.9809 193.909 40.9358 195.831 40.8738C197.85 40.8087 199.585 40.7268 201.148 40.879C202.69 41.029 203.728 41.3844 204.438 41.9523L207.562 38.0479C205.772 36.6158 203.622 36.0962 201.633 35.9025C199.665 35.7109 197.525 35.8165 195.669 35.8764C193.716 35.9394 192.012 35.9568 190.524 35.7066C189.075 35.463 188.031 34.9957 187.268 34.2323L183.732 37.7679ZM93.6504 66.9141C106.485 63.4585 136.024 56.5689 172.947 64.9382L174.053 60.0619C135.976 51.4313 105.515 58.5416 92.3505 62.0861L93.6504 66.9141ZM83.5789 50.1232L86.0789 59.8368L90.9211 58.5906L88.4211 48.877L83.5789 50.1232ZM70.9973 81.7928C82.252 76.8994 89.0123 75.6323 102.079 72.5244L100.921 67.6601C87.9877 70.7365 80.749 72.1008 69.0037 77.2074L70.9973 81.7928ZM149.943 186.766C152.23 187.833 154.263 188.085 156.18 187.782C157.988 187.496 159.547 186.725 160.784 186.122C162.103 185.478 163.17 184.962 164.402 184.692C165.569 184.437 166.968 184.391 168.831 184.909L170.169 180.091C167.532 179.359 165.306 179.376 163.333 179.808C161.424 180.226 159.834 181.022 158.591 181.628C157.265 182.275 156.355 182.692 155.398 182.843C154.549 182.978 153.52 182.917 152.057 182.235L149.943 186.766ZM168.831 184.909C174.242 186.412 179.109 184.549 183.066 182.941C187.328 181.21 190.421 179.873 193.539 180.457L194.461 175.543C189.579 174.628 184.922 176.79 181.184 178.309C177.141 179.952 173.758 181.088 170.169 180.091L168.831 184.909ZM193.539 180.457C195.981 180.915 197.984 180.666 199.748 179.92C201.412 179.215 202.729 178.111 203.783 177.238C205.887 175.494 207.675 174 211.5 174V169C205.825 169 202.863 171.506 200.592 173.388C199.458 174.327 198.682 174.941 197.799 175.315C197.016 175.647 196.019 175.835 194.461 175.543L193.539 180.457ZM211.5 174C214.298 174 216.472 173.342 218.267 172.251C220.002 171.196 221.252 169.808 222.257 168.659C224.311 166.31 225.58 164.749 228.705 164.492L228.295 159.509C222.92 159.952 220.439 163.141 218.493 165.367C217.498 166.505 216.685 167.361 215.67 167.978C214.716 168.558 213.452 169 211.5 169V174ZM228.705 164.492C234.049 164.051 236.753 160.927 238.858 158.4C241.001 155.829 242.47 154.018 245.461 153.457L244.539 148.543C239.53 149.482 236.999 152.821 235.017 155.199C232.997 157.623 231.451 159.248 228.295 159.509L228.705 164.492ZM128.285 183.485C126.876 180.315 126.158 174.794 125.994 172.334L121.006 172.666C121.175 175.206 121.924 181.485 123.715 185.515L128.285 183.485Z" fill="#3E3939"/>
</svg>
