<svg width="290" height="211" viewBox="0 0 290 211" fill="none" xmlns="http://www.w3.org/2000/svg">
<path d="M128.46 94H128.396C125.593 94 119.081 95.7835 116.308 95.7835H104.982C98.9992 95.7835 93.0079 96.9866 87.1824 98.2748C82.714 99.2629 79.4959 101.548 77.2669 105.678C74.648 110.53 72.3284 115.508 70.9623 120.909C70.1559 124.097 69.9725 127.282 70.0032 130.548C70.0258 132.955 70.7716 134.923 71.3995 137.201C72.5734 141.46 71.9383 146.2 73.4446 150.323C75.1176 154.902 80.0691 159.661 84.164 161.973C85.6284 162.799 87.6365 163.289 89.2275 163.813C92.8871 165.019 96.7509 165.968 100.525 166.729C109.326 168.502 117.718 168.457 126.421 166.361C132.714 164.845 138.392 162.212 144.136 159.283C146.388 158.135 148.616 157.017 150.878 155.914C151.069 155.821 152.682 155.132 152.387 154.895C151.788 154.414 161.815 141.918 161.767 141.207C162.41 140.217 162.897 138.81 162.923 137.626C162.977 135.177 165.078 135.152 166.675 133.549C167.74 132.481 167.017 131.165 166.534 129.982C166.199 129.162 166.224 128.386 166.224 127.519C166.224 125.971 168.179 125.403 167.987 123.952C167.807 122.598 167.088 121.264 166.224 120.244C165.335 119.195 165.97 115.956 165.97 114.582C165.97 113.286 165.074 112.341 163.882 111.835C161.789 110.949 159.437 109.917 158.805 107.504C158.535 106.474 158.593 104.219 157.563 103.555C156.019 102.559 153.354 101.097 151.527 100.894C147.609 100.457 144.932 96.6711 141.357 95.4155C137.327 93.9999 132.714 94 128.46 94Z" fill="white"/>
<path d="M114.292 168.688C109.15 167.931 101.131 164.394 96 164.166C100.737 161.006 112.005 157.928 116.591 154.258C119.23 152.145 122.346 151.313 125.204 149.582C128.993 147.288 131.67 144.785 134.574 141.47C138.894 136.539 143.393 131.756 147.506 126.66C150.618 122.806 155.343 118.585 160.034 116.804C163.139 115.626 165.902 113.616 168.875 112.154C171.568 110.83 174.616 110.366 177.311 109.046C186.913 104.345 197.665 100.747 206.307 94.3123C208.805 92.452 211.129 90.2452 213.329 88.0448C214.148 87.225 215.098 85.8455 216.158 85.3154C219.055 83.866 222.082 87.7697 223.078 89.7633C224.921 93.45 223.432 97.9593 223.432 101.818C223.432 106.757 220.798 110.92 217.724 114.555C213.011 120.128 206.93 124.335 199.336 124.335C189.345 124.335 178.541 126.231 168.622 124.335C165.514 123.741 160.541 120.794 158.771 124.335C158.057 125.765 157.493 127.779 157.281 129.39C156.881 132.433 156.356 134.517 159.554 135.228C160.76 135.496 162.19 135.762 163.217 136.415C165.737 138.02 167.572 140.632 168.976 143.441C171.137 147.765 168.13 152.866 166.601 156.734C164.537 161.959 158.271 163.365 153.442 165.478C149.422 167.238 145.148 168.439 141.091 170.204C138.708 171.241 134.321 171.19 131.796 170.482C126.216 168.919 120.041 169.534 114.292 168.688Z" fill="#7C5662" fill-opacity="0.17"/>
<path d="M187.722 63H187.67C185.382 63 180.066 64.3979 177.802 64.3979H168.557C163.673 64.3979 158.782 65.3409 154.026 66.3505C150.379 67.125 147.752 68.9161 145.932 72.153C143.794 75.9562 141.901 79.8573 140.786 84.0907C140.127 86.5895 139.978 89.0855 140.003 91.6461C140.021 93.5324 140.63 95.0749 141.142 96.8605C142.101 100.199 141.582 103.914 142.812 107.145C144.178 110.734 148.22 114.464 151.562 116.276C152.758 116.924 154.397 117.307 155.696 117.718C158.683 118.663 161.837 119.408 164.918 120.004C172.103 121.394 178.954 121.358 186.058 119.715C191.195 118.527 195.83 116.463 200.519 114.168C202.357 113.268 204.176 112.392 206.023 111.527C206.179 111.455 207.496 110.914 207.255 110.729C206.766 110.352 214.951 100.558 214.911 100C215.437 99.2243 215.834 98.1216 215.856 97.1933C215.9 95.2738 217.615 95.254 218.918 93.9981C219.787 93.1607 219.197 92.129 218.803 91.2023C218.53 90.5598 218.55 89.9508 218.55 89.2718C218.55 88.0583 220.146 87.6128 219.989 86.476C219.842 85.415 219.255 84.3692 218.55 83.5693C217.825 82.7473 218.343 80.209 218.343 79.1314C218.343 78.1161 217.612 77.3751 216.639 76.9791C214.93 76.284 213.01 75.4752 212.494 73.5842C212.273 72.7767 212.321 71.0094 211.48 70.4888C210.22 69.708 208.044 68.5628 206.552 68.403C203.354 68.0606 201.169 65.0936 198.251 64.1095C194.961 62.9999 191.195 63 187.722 63Z" fill="white"/>
<path d="M141.831 59.4353C141.764 59.4836 141.759 59.3957 141.833 59.1232C141.833 59.2066 141.832 59.3123 141.831 59.4353C142.226 59.1488 144.791 54.0758 145.951 54.276C151.054 55.1567 155.975 54.6166 161.05 53.9483C166.11 53.282 171.24 52.6979 176.323 52.3483C177.359 52.2771 178.364 51.798 179.416 52.0977C180.15 52.3067 180.943 52.9195 181.62 53.0423C185.102 53.6735 188.461 62.2461 191.944 62.2461H195.772C197.294 62.2461 198.45 63.4975 199.677 64.328C202.101 65.9676 204.433 67.9413 206.599 69.8605C207.488 70.6487 208.73 71.1231 209.692 71.8846C210.947 72.8783 211.868 74.1095 212.805 75.3931C215.441 79.0069 217 83.6478 217 88.0966L217 88.257C217.001 92.0375 217.002 97.0823 213.694 99.7207C212.282 100.847 211.737 100.146 210.871 98.4869C209.319 95.5104 207.731 92.5559 206.367 89.4653C204.769 85.8437 202.371 83.1164 199.871 80.1352C197.756 77.6142 196.073 74.7891 194.032 72.2316C192.736 70.6068 188.525 64.7045 186.473 63.9174C184.296 63.0826 183.766 62.6798 183.766 65.2283C183.766 68.5684 186.68 73.6416 188.619 76.4533C189.796 78.1609 190.845 79.5031 192.447 80.8099C195.999 83.708 199.783 86.8989 201.862 91.046C203.306 93.9246 205.486 96.9946 207.256 99.7978C208.193 101.282 207.952 104.496 207.952 106.159C207.952 107.889 206.406 109.59 205.245 110.747C203.809 112.179 201.507 111.921 199.677 112.482C197.108 113.27 196.863 108.554 196.12 107.007C193.704 101.977 190.5 97.4352 188.039 92.434C186.661 89.6337 185.164 86.8933 183.766 84.1063C183.243 83.0631 181.702 79.5954 180.286 79.5954C179.063 79.5954 179.416 83.0557 179.416 83.9521C179.416 86.2423 181.617 89.082 182.896 90.8532C186.951 96.4689 188.788 103.516 190.823 110.053C191.339 111.71 191.787 114.762 190.978 116.376C190.071 118.185 186.581 117.764 184.984 117.764H179.242C178.748 117.764 177.465 117.516 177.058 117.841C176.669 118.151 175.987 118.596 175.434 118.439C174.05 118.045 173.609 114.192 173.5 113.215C173.091 109.54 172.607 105.945 171.934 102.323C171.219 98.4693 169.156 94.8738 168.145 91.0653C167.319 87.9522 166.84 81.3674 166.084 78.2461C165.695 76.6384 165.032 73.7454 163.061 73.7454C160.857 69.2447 163.061 85.2081 163.061 85.6677C163.061 93.1534 166.559 100.121 168.01 107.354C168.692 110.756 169.635 113.598 169.672 117.147C169.683 118.153 170.637 122.895 168.28 121.851C167.152 121.351 165.835 121.177 164.627 120.713C161.057 119.345 157.927 117.147 154.438 115.547C150.251 113.627 146.837 110.723 142.722 108.742C139.585 107.232 136.334 104.89 133.984 102.323C131.231 99.3174 130.001 95.8524 130.001 91.8171C130.001 88.8365 129.906 85.7454 131.664 83.3352C132.146 82.6736 132.383 80.7517 132.611 79.9424C133.015 78.5092 133.756 77.1324 134.1 75.7015C134.8 72.7794 136.9 70.4036 138.275 67.7979C138.987 66.4494 139.882 64.0703 141.137 63.21C141.721 62.8092 141.817 60.4883 141.831 59.4353Z" fill="#D03F44"/>
<path d="M144.701 58.6968C144.409 57.2362 144.661 55.4733 144.661 54C143.944 56.1487 139.202 61.3643 138.178 63.3536C136.582 66.4526 134.78 69.4223 133.216 72.5472C131.253 76.4687 129.798 81.3098 129.254 85.6582C128.875 88.686 128.76 93.3638 130.074 96.2509C131.075 98.4503 131.802 98.4385 134.416 98.2296C136.433 98.0684 138.083 97.4791 139.078 95.7113C141.259 91.84 138.974 87.306 140.779 83.4997C141.854 81.2335 147.456 82.4026 148.183 84.499C149.726 88.9509 149.343 93.9507 149.343 98.6093C149.343 101.423 149.194 105.015 153.385 103.566C155.639 102.787 155.217 100.462 154.826 98.6093C154.246 95.8569 154.746 92.6219 154.746 89.7954C154.746 86.9083 156.983 83.9698 157.607 81.1613C158.005 79.3719 157.713 76.8885 158.868 75.4053C160.087 73.8395 162.022 75.5337 163.21 76.3246C164.576 77.2343 165.081 81.3963 165.551 82.7802C168.457 91.3277 171.373 100.073 173.475 108.842C174.384 112.636 174.776 116.714 175.356 120.554C175.889 124.081 178.168 120.229 178.677 118.775C179.464 116.53 178.647 113.002 177.977 110.861C176.892 107.391 176.537 103.76 175.636 100.248C174.435 95.5707 173.544 91.0221 173.115 86.1979C172.832 83.0148 172.034 80.2461 172.034 77.0242C172.034 74.3904 171.935 71.6498 170.313 69.4694C167.588 65.8054 161.506 66.6321 157.507 66.2116C154.862 65.9334 151.629 65.6409 149.483 64.0531C147.764 62.7808 145.155 60.9635 144.701 58.6968Z" fill="#B2292E"/>
<path opacity="0.8" d="M139.104 72.0675C137.69 73.7089 136.747 74.518 134.817 75.5245C133.023 75.5245 131.85 77.3328 131.09 78.8827C129.95 81.2062 129 83.8603 129 86.4772C129 88.1687 129.157 89.8386 129.194 91.5255C129.2 91.812 129.144 93.71 129.506 93.8741C130.074 94.1313 131.364 93.9626 131.908 93.6546C133.304 92.865 134.323 91.5684 135.786 90.8231C136.736 90.3394 137.591 89.9739 137.962 88.9135C138.346 87.8196 139.069 86.809 139.901 86.0382C140.613 85.3787 141.857 85.2331 142.681 84.6993C143.624 84.088 144.38 83.1553 145.244 82.4385C146.179 81.6631 147.13 81.1325 147.991 80.2545C148.803 79.4274 149.382 78.2587 150.34 77.5877C151.413 76.8359 152.16 75.8789 153.043 74.9318C154.759 73.0922 156.709 71.483 158.473 69.686C159.877 68.2552 161.883 67.3079 163.503 66.1521C165.353 64.833 167.086 63.8488 169.126 62.8707C171.552 61.7077 173.624 61.3013 176.311 61.3013C179.397 61.3013 182.542 61.3602 185.618 61.5976C187.928 61.7759 190.282 61.7401 192.599 61.6964C193.384 61.6816 195.801 61.2625 194.732 60.1161C193.929 59.2551 193.321 58.3077 192.319 57.6577C191.391 57.0562 190.393 56.549 189.453 55.9676C188.587 55.4319 187.524 55.1174 186.588 54.7385C185.332 54.2302 184.285 53.4769 182.936 53.202C181.712 52.9526 180.479 53.0045 179.209 53.0045C176.287 53.0045 173.437 53.4608 170.591 54.091C166.939 54.8998 163.381 55.1156 159.873 56.5603C155.951 58.1755 153.308 61.387 149.855 63.7596C147.601 65.308 145.555 67.1801 143.241 68.6104C141.724 69.5478 140.278 70.706 139.104 72.0675Z" fill="#FFF0DF"/>
<path opacity="0.8" d="M196.047 66.4643C198.102 66.0194 199.814 66 201.925 66C203.57 67.1161 204.945 68.5596 206.652 69.6404C207.763 70.3435 205.907 70.5918 205.365 70.764C204.595 71.009 203.398 71.3237 202.783 71.8877C201.988 72.6155 200.873 73.0527 199.953 73.6058C199.291 74.0042 198.73 74.668 198.155 75.1938C197.541 75.7565 196.854 76.1751 196.212 76.6982C194.672 77.9512 193.061 78.7253 191.338 79.7071C190 80.4698 188.859 81.6526 187.605 82.5581C186.782 83.153 185.899 83.6641 185.114 84.3133C184.827 84.5504 184.695 84.6857 184.338 84.7312C183.568 84.8291 183.214 85.3525 182.668 85.8177C182.105 86.297 181.495 86.8134 180.861 87.1921C180.174 87.6022 179.47 87.6879 178.844 88.2415C177.92 89.0596 177.329 90.3122 176.791 91.4082C176.003 93.0107 175.019 94.5218 174.162 96.0887C173.57 97.1727 173.225 98.3298 172.684 99.4319C172.084 100.653 171.244 101.767 170.749 103.035C170.221 104.388 169.961 106.043 169.734 107.485L169.727 107.53C169.476 109.126 168.517 110.861 167.883 112.34C167.412 113.443 166.948 114.445 166.733 115.646C166.694 115.867 166.623 116.895 166.35 116.974C165.829 117.126 165.215 116.571 164.872 116.222C163.477 114.803 161.923 113.556 160.528 112.136C159.534 111.125 158.855 109.713 158.054 108.542C157.398 107.582 156.851 106.499 156.083 105.626C155.123 104.534 154.099 103.544 153.208 102.385C152.488 101.448 153.818 100.409 154.44 99.7755C155.078 99.1265 155.839 98.2522 156.256 97.426C156.713 96.5225 157.091 95.8053 157.388 94.8072C157.944 92.9398 158.548 91.7031 159.843 90.2753C163.551 86.1876 166.851 81.5508 171.771 78.8713C172.997 78.2038 174.25 77.5601 175.44 76.8282C175.941 76.5203 176.366 76.1772 176.946 76.0296C178.143 75.725 179.234 74.9574 180.277 74.3208C182.369 73.0437 184.383 71.7064 186.647 70.764C188.599 69.9515 190.484 68.9358 192.406 68.0802C193.662 67.5209 194.683 66.7597 196.047 66.4643Z" fill="#FFF0DF"/>
<path opacity="0.8" d="M206.514 81.9877C208.318 79.676 210.153 76.8037 212.532 75C212.532 75.5353 214.111 77.4547 214.507 77.8299C215.828 79.082 214.107 80.9922 213.818 82.4448C213.684 83.116 213.805 84.1867 213.519 84.7958C213.264 85.3412 212.738 85.6342 212.738 86.2652C212.738 87.5463 213.027 89.2034 212.578 90.4338C212.046 91.8897 210.671 92.2871 210.671 94.0039C210.671 95.6229 210.33 96.8401 209.477 98.2705C208.478 99.9451 208.397 101.251 208.397 103.114C208.397 104.62 208.19 106.083 208.19 107.566C208.19 108.266 208.229 108.978 208.19 109.677C208.172 110.011 206.835 110.427 206.525 110.559C204.81 111.29 202.866 111.657 201.162 112.42C200.441 112.742 199.805 113.215 199.094 113.552C197.904 114.116 196.571 113.987 195.281 113.987C193.961 113.987 193.563 113.76 193.145 112.572C192.848 111.727 193.099 110.466 193.099 109.568C193.099 106.792 193.463 104.271 194.179 101.558C195.247 97.5082 198.128 94.8296 200.128 91.2502C201.942 88.0028 204.211 84.9375 206.514 81.9877Z" fill="#FFF0DF"/>
<path d="M154.711 49.658C156.885 49.3312 158.973 49.1273 160.996 49.0437C163.049 48.9588 165.035 48.998 166.973 49.1588C169.133 49.3381 171.233 49.6684 173.302 50.1463M215.538 95.4447C217.999 91.8953 214.132 92.6052 216.241 87.991C218.351 83.3769 215.538 81.9571 214.132 78.4078C212.725 74.8584 213.077 73.0837 197.958 62.4357C196.752 61.5862 195.568 60.7751 194.403 60.003M215.538 95.4447C213.077 98.994 217.296 102.188 212.022 104.318M215.538 95.4447C214.952 91.4221 210.616 80.6794 197.958 69.8894M212.022 104.318C207.124 106.296 210.717 109.804 206.748 110.294M212.022 104.318C211.023 95.6469 202.636 83.5983 195.045 74.5035M197.958 114.611C203.584 114.611 200.068 110.352 205.693 110.352C206.094 110.352 206.444 110.332 206.748 110.294M197.958 114.611C192.333 114.611 194.794 118.515 188.465 118.161C187.796 118.123 187.217 118.127 186.707 118.164M197.958 114.611C196.471 109.576 192.618 98.9997 187.014 88.6453M163.501 119.386C169.83 122.137 166.314 119.386 175.104 120.29C182.965 121.098 182.39 118.474 186.707 118.164M186.707 65.2752C187.835 66.4136 189.132 67.7784 190.53 69.3172M180.73 78.4078C181.855 80.005 182.937 81.6633 183.973 83.3555M175.104 121C174.138 110.469 170.795 96.7685 167.809 86.2682M164.205 74.5035C164.699 75.9824 165.284 77.8024 165.921 79.8794M186.707 118.164C185.769 112.602 182.91 99.6329 178.972 92.2503M206.748 110.294C206.045 105.818 202.951 95.0897 196.2 87.991M149.086 115.676C147.725 114.165 146.628 113.611 145.57 113.273M147.679 51.7877C143.109 53.9173 141.702 57.8216 138.889 65.2752C136.077 72.7288 135.725 70.9542 130.803 84.7966C125.88 98.6391 132.561 98.994 132.912 102.543C133.131 104.747 134.298 105.719 136.077 107.074M145.57 113.273C143.893 112.738 142.315 112.745 139.944 110.352C138.478 108.872 137.163 107.902 136.077 107.074M145.57 113.273C145.289 102.986 146.156 87.8727 146.625 81.6022M136.077 107.074C136.077 96.3508 137.952 86.8079 138.889 83.3769M156.469 110.352C156.821 102.246 155.766 92.2503 155.415 89.7657M183.973 53.9691C182.888 53.4482 181.809 52.9671 180.73 52.5265C180.129 52.2811 179.528 52.0482 178.927 51.8279M188.772 56.4536C189.932 57.0979 189.344 56.7876 190.53 57.5184" stroke="#3E3939" stroke-width="5" stroke-linecap="round" stroke-linejoin="round"/>
<path d="M77.5433 148.725C76.1429 147.566 74.7869 146.835 73 146.417C73 148.69 73.2084 150.681 74.3861 152.429C75.6235 154.267 76.9978 155.663 78.6984 157.065C80.6176 158.647 83.0564 159.31 85.3979 160.033C87.2391 160.601 88.8697 161.716 90.6728 162.322C92.8338 163.047 95.173 163.375 97.43 163.543C107.435 164.29 117.73 164.496 127.327 161.158C135.627 158.271 142.873 153.262 150.622 149.287C154.096 147.505 157.521 146.859 159.631 143.197C161.88 139.295 163.602 135.575 164.829 131.249C165.664 128.303 167.576 124.364 166.831 121.279C165.896 117.406 163.935 114.816 162.269 111.329C160.753 108.156 157.947 105.267 155.473 102.775C153.565 100.853 151.479 99.7417 148.966 98.7406C146.867 97.9044 144.604 97.5331 142.459 96.8397C140.687 96.267 138.605 95.3013 136.741 95.1135C135.026 94.9407 133.106 94.9853 131.389 95.1135C130.208 95.2016 128.154 95.1689 127.135 95.7923C124.845 97.193 117.659 105.045 122.726 107.314C125.933 108.75 128.679 110.715 132.256 111.658C134.322 112.204 135.751 113.301 137.646 114.141C139.031 114.755 140.687 115.368 141.939 116.236C144.027 117.682 145.678 120.65 146.463 123.025C148.134 128.075 149.327 132.881 146.04 137.339C143.204 141.186 139.489 143.121 135.933 146.242C134.856 147.187 133.83 149.3 132.545 149.753C130.77 150.379 128.905 150.645 127.135 151.304C122.806 152.916 117.858 153.586 113.389 154.796C109.073 155.964 106.143 156.468 101.646 155.843C98.1144 155.352 94.5901 155.558 91.0193 155.494C88.5213 155.449 84.6508 153.918 82.6834 152.332C81.0352 151.004 79.1793 150.079 77.5433 148.725Z" fill="#7EB657"/>
<path d="M79.3569 136.388C76.8745 137.956 71.9099 140.655 71.9099 143.96C70.4972 143.25 71.0803 138.817 71.3583 137.948C72.1917 135.341 74.0779 132.634 75.5645 130.393C76.2387 129.376 76.6783 127.81 77.0297 126.632C77.4077 125.366 78.2148 124.299 78.564 123.046C78.9831 121.541 79.0075 119.62 79.7362 118.228C81.5518 114.761 84.7247 112.076 88.3554 110.743C92.831 109.099 97.4841 107 102.319 107C108.363 107 114.071 107.808 120.005 108.802C122.717 109.256 125.345 110.198 128.056 110.743C130.014 111.136 131.92 112.001 133.658 112.926C137.605 115.027 140.506 119.031 143.915 121.815C147.733 124.934 145.139 128.513 145.139 132.576C145.139 134.874 145.531 137.522 144.898 139.75C144.543 140.997 143.094 141.89 142.191 142.73C140.959 143.877 139.672 145.114 138.812 146.577C137.227 149.273 135.499 151.664 133.176 153.82C131.735 155.156 127.941 154.911 126.125 155.345C124.224 155.798 122.558 155.968 120.609 155.968C116.583 155.968 112.55 156.039 108.524 155.968C106.505 155.933 103.664 155.45 102.163 153.941C99.81 151.575 103.852 149.479 104.491 147.391C105.25 144.909 106.674 142.621 104.111 140.373C101.292 137.901 96.584 136.244 93.0615 135.418C90.5161 134.821 87.6726 134.981 85.0801 135.14C82.9709 135.27 81.1677 135.244 79.3569 136.388Z" fill="#7C5662"/>
<path d="M85.4284 145.917C81.622 144.049 77.6947 142.23 73.6197 141.051C73.3768 141.545 72.2036 142.301 72.0597 142.961C71.899 143.697 72.0929 144.502 72.2868 145.213C72.9073 147.488 74.3117 148.826 76.4633 149.737C83.912 152.89 92.1127 153.132 100.021 153.999C103.063 154.333 106.05 155.179 109.066 155.698C111.598 156.134 114.482 156.062 117.024 155.708C118.832 155.457 120.762 155.566 122.503 154.975C124.568 154.274 126.439 153.09 128.536 152.451C132.559 151.226 137.352 150.137 140.661 147.314C141.784 146.356 143.184 145.099 143.919 143.805C144.891 142.094 145.584 139.925 146.21 138.065C146.641 136.782 147.029 135.5 147.562 134.255C148.077 133.053 148.814 131.874 148.945 130.545C149.152 128.435 148.747 126.176 148.224 124.141C147.74 122.258 147.027 122.05 145.242 122.05C144.167 122.05 142.862 121.824 141.865 122.332C140.038 123.262 138.918 125.531 137.916 127.258C137.433 128.091 136.714 128.7 136.267 129.56C135.625 130.795 134.814 131.684 133.907 132.727C131.456 135.545 128.627 137.163 125.436 138.98C122.281 140.777 119.038 142.3 115.661 143.624C113.831 144.342 112.001 145.24 110.132 145.836C107.605 146.642 104.999 147.798 102.401 148.279C99.5863 148.8 96.5409 148.448 93.7024 148.249C90.724 148.04 88.1127 147.234 85.4284 145.917Z" fill="#69434F"/>
<path d="M137.679 147.815C135.421 149.325 133.12 149.957 133 152.936C134.504 152.439 136.123 153.316 137.592 152.868L137.729 152.826C139.315 152.341 141.013 151.823 142.702 151.703C149.01 151.256 151.99 146.541 156.617 143.225C159.026 141.5 160.85 139.241 162.366 136.734C163.791 134.379 162.951 132.298 163.523 129.815C163.759 128.793 164.671 128.306 164.939 127.349C165.229 126.314 164.432 125.011 163.765 124.266C161.903 122.188 164.397 120.07 164.68 117.964C164.888 116.418 164.286 115.369 162.971 114.538C161.336 113.506 159.789 112.093 159.103 110.223C158.58 108.795 157.586 107.327 156.151 106.694C155.194 106.272 152.739 105.95 151.887 106.626C151.424 106.993 150.598 106.972 150.092 107.448C149.514 107.99 148.989 108.519 148.469 109.092C147.816 109.812 147.067 110.382 146.207 110.856C145.851 111.052 143.522 112.63 143.272 111.764C143.061 111.031 143.436 110.562 143.894 110.051C145.358 108.418 146.926 106.377 147.467 104.228C147.969 102.239 147.088 100.249 145.119 101.282C142.977 102.408 141.317 104.114 140.078 106.146C138.919 108.049 137.146 110.985 137.903 113.237C138.483 114.964 139.57 115.37 140.907 116.696C141.535 117.319 142.826 119.026 143.721 119.026C145.093 119.026 146.562 118.248 147.675 117.484C150.596 115.478 149.466 110.519 152.405 108.852C153.5 108.232 154.364 107.223 155.823 107.636C157.214 108.031 156.816 110.741 156.617 111.627C156.194 113.518 154.797 115.485 153.648 117.039C152.552 118.521 151.245 119.968 150.437 121.629C149.939 122.652 149.897 122.918 149.159 123.65C148.544 124.26 149.159 124.547 149.159 125.191C149.159 126.634 148.254 128.01 148.227 129.507C148.18 132.058 148.111 134.843 147.588 137.351C147.042 139.969 145.098 142.001 143.1 143.671C141.344 145.137 139.59 146.537 137.679 147.815Z" fill="#64874C"/>
<path d="M89.4145 153.787C111.706 157.249 127.223 155.533 143.019 150.558C156.917 144.764 159.681 138.669 162.82 135.386C163.523 134.652 163.668 133.902 163.525 133.145M161.83 117.268C157.893 119.942 168.512 121.743 162.911 125.354C161.711 126.123 161.273 126.916 161.253 127.723M161.83 117.268C166.118 114.548 161.922 112.604 157.867 111.714C156.981 111.52 156.642 111.201 156.596 110.811M161.83 117.268C158.194 124.339 153.958 127.983 152.294 128.921M148.581 101.146C156.199 101.917 145.09 104.476 155.709 106.277C160.013 107.1 156.432 109.414 156.596 110.811M148.581 101.146C140.963 100.375 144.853 97.3503 138.032 97.1885M148.581 101.146C146.202 106.904 144.014 110.703 143.217 111.883M138.032 97.1885C131.211 97.0267 135.547 94.6579 126.968 94.731C118.389 94.8042 125.327 93.1611 116.889 94.289M138.032 97.1885C136.552 101.108 135.121 104.854 134.285 106.636M106.295 95.3473C111.807 93.0225 110.345 94.1745 112.624 94.4759M156.596 110.811C153.583 117.798 151.486 120.201 150.158 120.975M161.253 127.723C156.131 133.275 151.586 137.007 149.953 138.18M161.253 127.723C161.209 129.498 163.185 131.341 163.525 133.145M163.525 133.145C161.431 136.049 155.332 142.543 147.682 145.283M140.299 146.27C145.071 141.815 153.566 128.035 145.306 119.477C137.046 110.919 126.667 105.865 110.611 106.222C102.087 106.411 95.9257 107.932 91.4019 109.758M82.7447 114.599C83.238 114.249 83.7813 113.868 84.383 113.469M93.5686 99.1955C90.897 100.626 88.3646 97.744 84.3111 102.222M77.3652 149.314C74.0308 147.18 72.0758 145.015 71.6253 141.493M77.3652 149.314C70.3545 142.378 74.455 138.252 76.5157 132.251C78.5765 126.249 74.9893 123.508 77.9881 119.171M77.3652 149.314C80.1973 151.226 82.1399 152.016 82.7572 152.172M71.6253 141.493C71.3884 139.641 71.5673 137.414 72.1802 134.619C73.6032 128.131 72.5978 121.681 71.9173 119.267C71.282 111.837 74.7751 113.875 76.0161 109.772C76.6449 106.73 77.4787 105.678 78.5269 105.174M71.6253 141.493C71.7627 147.558 70.7794 150.91 77.9536 156.393C85.1279 161.875 98.2544 163.699 108.591 163.391C116.86 163.144 128.287 159.923 132.966 158.343C138.802 156.49 152.423 150.232 160.22 140.028M80.9851 109.466C82.28 112.728 83.7586 113.259 84.383 113.469M84.383 113.469C86.1502 112.296 88.4205 110.961 91.4019 109.758M89 105.174C89.3007 107.424 90.6953 108.933 91.4019 109.758M114.809 113.533C117.341 113.195 117.677 112.673 117.528 112.454M123.672 120.937C124.347 121.706 126.188 121.913 127.024 121.921M128.03 116.06C128.63 116.266 129.921 115.927 130.491 115.731M137.011 127.027C137.461 126.108 138.605 126.456 139.12 126.745M97.7477 119.75C99.7541 119.769 100.599 118.773 100.771 118.273M85.9666 146.733C86.6975 145.776 87.9118 146.115 88.4276 146.404M101.697 154.65C103.028 153.9 104.361 154.056 104.861 154.227M100.146 143.048C101.422 144.023 102.021 142.798 102.162 142.063" stroke="#3E3939" stroke-width="5" stroke-linecap="round" stroke-linejoin="round"/>
<path d="M146 69C146.284 66.9231 149.2 65.9093 150.622 65.6621M160.933 62.3242C162.071 63.8077 163.541 63.9313 164.133 63.8077M159.511 54.1648C160.578 54.1648 161.289 53.794 161.644 54.1648M175.156 60.8407C177.147 60.2473 177.881 61.0879 178 61.5824M147.422 56.761C149.413 55.8709 150.978 55.4011 151.333 56.0192" stroke="#F98B8F" stroke-width="5" stroke-linecap="round"/>
<path d="M177 128C178.906 125.673 180.291 127.03 180.745 128M193 121.818C190.957 122.909 189.255 120.848 189.936 120M187.553 132C188.915 131.127 190.617 130.909 190.957 132M221.936 89.8181C224.115 88.3636 225.34 89.2121 225.681 89.8181M224.66 95.9999C224.206 96.1211 223.434 96.5817 223.979 97.4545" stroke="#DDD7D9" stroke-width="5" stroke-linecap="round" stroke-linejoin="round"/>
<path d="M175 127.333C177.026 125.2 178.496 126.444 178.979 127.333M192 121.667C189.83 122.667 188.021 120.778 188.745 120M186.213 131C187.66 130.2 189.468 130 189.83 131M222.745 92.3333C225.06 91 226.362 91.7778 226.723 92.3333M225.638 97.9999C225.156 98.1111 224.336 98.5333 224.915 99.3333" stroke="#D03F44" stroke-width="5" stroke-linecap="round" stroke-linejoin="round"/>
</svg>
