<svg width="290" height="211" viewBox="0 0 290 211" fill="none" xmlns="http://www.w3.org/2000/svg">
<path opacity="0.2" d="M141.599 177.976C138.776 176.81 135.325 175.694 132.23 175.102C133.936 174.607 142.541 171.698 144.332 171.698C147.45 171.698 149.986 168.696 152.703 167.765C156.289 166.537 159.52 164.315 163.069 162.886C168.343 160.764 173.768 158.873 178.641 156.041C185.948 151.793 193.354 145.924 199.373 140.384C203.812 136.299 206.635 136.299 212.818 136.299L213.036 136.299C218.005 136.299 222.734 137.661 227.827 137.661C235.041 137.661 243.4 136.593 249.687 140.081C252.775 141.795 251.535 143.314 255.586 144.468C258.684 145.352 263.942 145.801 264.174 149.234C264.311 151.273 269.639 151.483 269.639 155.058C269.639 157.493 271.606 159.304 270.81 161.525C269.906 164.049 269.369 164.992 267.383 166.971C266.766 167.586 265.952 169.382 266.69 170.186C268.547 172.211 267.528 173.173 265.302 174.762C261.957 177.148 256.976 177.824 254.024 180.548C251.833 182.572 249.239 183.695 246.391 185.162C241.538 187.662 235.388 185.91 230.212 187.916C225.829 189.614 223.333 192 218.111 192C207.954 192 197.016 191.692 187.662 188.067C178.766 184.619 168.569 187.752 159.599 184.33C153.63 182.053 147.432 180.385 141.599 177.976Z" fill="#70463C"/>
<path d="M28.2807 65.9137C33.8769 67.6638 39.5729 64.4772 44.6701 62.8793C46.3691 62.8793 47.6089 64.7871 49.03 65.7352C50.9847 67.0392 52.3658 67.3764 52.7954 69.8603C53.2403 72.4326 52.9346 75.4497 54.0241 77.8725C54.8532 79.7162 56.0753 80.8154 57.3337 82.3546C58.2633 83.4916 59.6849 84.715 60.9009 85.5476C62.4973 86.6407 63.8037 86.4401 65.7365 86.4401C69.6979 86.4401 73.0311 86.9995 76.9534 87.6697C79.325 88.0749 81.567 88.7148 83.8897 89.2959C85.4144 89.6774 85.9838 92.3112 86.5453 93.5599C87.2471 95.1207 87.4554 95.0076 89.3 95.0076C92.8674 95.0076 96.4032 94.8575 99.962 94.5713C104.048 94.2427 108.016 93.4084 112.011 92.5088C114.823 91.8756 117.279 90.2885 119.938 89.2166C122.064 88.36 123.836 85.6055 126.082 86.0831C130.078 86.9328 134.162 87.5943 138.052 88.8596C143.695 90.695 148.906 94.2863 154.937 94.9283C163.75 95.8666 172.364 94.4584 180.958 92.8459C184.54 92.1737 187.907 89.8827 190.748 87.6895C192.451 86.3747 194.199 85.0415 196.455 85.389C197.894 85.6105 199.744 86.9244 201.113 87.4912C203.333 88.4108 207.031 88.055 209.397 87.7887C212.461 87.4436 214.925 85.7359 217.443 84.0999C218.584 83.3581 222.324 82.5103 222.952 81.4424C223.402 80.6776 223.031 78.7783 223.031 77.9519V73.2516C223.031 72.2097 224.432 71.7917 225.211 71.2287C227.107 69.8587 228.071 66.7154 229.096 64.6642C231.185 60.4816 233.386 54.7593 232.108 50.0082C231.007 45.9148 227.431 46.4582 223.903 46.4582C218.46 46.4582 213.472 45.607 208.049 44.9509C203.808 44.4379 197.667 40.0835 193.423 42.0951C190.492 43.4845 191.662 44.6566 191.085 47.7076C190.709 49.6973 190.688 51.433 190.55 53.4392C190.289 57.2202 187.89 60.9006 186.467 64.3469C184.803 68.3786 182.639 72.4072 181.215 76.5239C180.263 79.2778 182.404 84.3022 179.709 86.0831C177.371 87.6285 174.376 87.5088 171.901 88.8596C170.167 89.806 168.453 90.6907 166.431 90.7239C163.271 90.7757 160.962 90.1354 160.962 86.7971C160.962 82.4296 161.14 78.1076 161.298 73.7474C161.69 62.9763 162.745 52.3282 162.745 41.5199C162.745 39.6152 162.927 39.4589 161.338 38.7633C160.532 38.4104 159.645 37.6733 158.9 37.1767C157.275 36.0925 145.796 33.1139 145.622 34.6778C145.159 38.8541 145.311 43.0338 145.801 47.2515C146.148 50.2389 146.069 53.2708 146.336 56.2752C146.625 59.5289 147.049 62.7011 147.049 65.9732C147.049 70.2224 147.207 74.5076 146.871 78.7452C146.799 79.6592 146.966 85.9244 146.138 85.5476C142.778 84.0196 140.675 82.4051 137.973 80.1929C136.355 78.8682 134.509 78.3011 132.78 77.4362C130.457 76.2739 129.017 72.1985 128.5 69.9396C127.235 64.4121 127.815 58.6352 127.073 53.0425C126.474 48.5299 126.761 43.9031 126.003 39.4375C125.935 39.038 125.52 35.0694 124.933 35.0348C123.491 34.9499 122.098 34.581 120.652 34.4001C118.627 34.1468 106.74 31.2772 106.74 33.7853C106.74 37.9715 107.175 42.2618 107.473 46.4383C107.909 52.5395 110.96 58.5605 112.289 64.4857C113.518 69.9649 116.672 75.1224 119.027 80.1731C119.463 81.1086 119.527 82.1212 119.938 83.0488C120.193 83.6214 121.58 84.2819 120.731 84.5759C117.511 85.6913 114.589 87.1727 111.456 88.5026C110.232 89.0223 108.131 89.2487 106.819 88.8596C105.167 88.3697 104.187 86.4138 103.331 85.0122C100.678 80.6669 99.3458 75.685 97.8415 70.7924C96.6809 67.0176 96.1459 63.0554 94.9481 59.3095C93.709 55.4345 92.0556 51.6462 90.6873 47.8068L90.6234 47.6275C89.2101 43.6592 88.1728 40.7465 83.8303 40.7465C82.4038 40.7465 81.0635 41.1035 79.6289 41.1035C78.7486 41.1035 77.3807 40.8372 76.7751 41.6984C75.0961 44.0861 75.4042 47.5401 76.4976 50.1073C77.4434 52.3278 78.4477 54.5417 79.2721 56.8106C79.8032 58.272 80.7913 59.5337 81.2539 61.0151C81.5069 61.8251 81.5003 62.649 81.9476 63.395C82.8607 64.918 88.917 73.1987 85.2968 74.1044C81.8057 74.9778 79.0863 72.9176 76.4184 71.0106C74.9152 69.9361 73.6197 68.4517 72.2962 67.1631C70.8597 65.7644 68.993 64.3628 67.857 62.7207C64.8941 58.4379 64.568 53.5237 63.398 48.5802C62.7384 45.7931 61.9674 44.2367 59.1371 43.4437C58.8487 43.3628 56.617 42.8997 56.4617 43.4437C56.0277 44.964 56.7986 47.3465 56.7986 48.9571C56.7986 51.8149 56.8371 54.4534 55.7285 57.1478C54.0282 61.2799 52.251 58.2328 50.3974 55.7595C48.6949 53.4878 47.3232 49.0969 44.3133 48.3224C40.9789 47.4644 36.7986 51.558 34.6026 53.6771C33.399 54.8385 32.0459 55.7667 30.8372 56.89C29.62 58.021 27.6541 58.5125 27.0321 60.202C26.3667 62.0095 26.3549 65.3114 28.2807 65.9137Z" fill="#C0B19D"/>
<path d="M83.9606 112.342C79.8952 103.266 74.1697 91.0741 76.0426 80.9999C79.4521 80.9999 82.0266 74.3573 85.8668 76.4923C87.9413 77.6457 88.7626 82.1589 89.9513 84.2738C90.6762 85.5633 92.0504 89.1486 93.8241 89.1486C96.9991 89.1486 100.073 88.8096 103.234 88.6339C105.408 88.513 107.813 88.9476 109.951 88.4825C113.987 87.6043 118.035 85.186 121.902 83.638C125.314 82.2721 128.012 79.2355 131.281 77.5218C132.607 76.8266 134.509 77.1584 135.971 77.1584C139.012 77.1584 141.132 77.9135 143.596 79.7624C147.419 82.6319 151.514 84.742 155.577 87.2108C158.784 89.1593 165.557 88.1272 169.192 88.0586C172.491 87.9963 176.125 85.6522 178.178 83.1232C180.203 80.6297 181.294 76.0532 184.472 76.5832C186.073 76.8503 187.345 78.0113 188.556 79.1265C191.024 81.3982 193.757 83.617 196.726 85.2124C201.87 87.9774 206.499 86.7553 211.975 85.8786C215.292 85.3473 220.411 83.9764 221.596 80.5496C222.053 79.2292 223.058 71.0145 225.408 72.4956C230.498 75.7027 233.171 79.2899 239.75 78.7632C243.078 78.4968 244.9 77.6958 247.072 75.2812C249.284 72.8216 249.764 60.8082 253.063 60.8082C255.767 60.8082 259.652 61.6412 260.929 64.3811C262.113 66.9191 261.475 72.8534 260.808 75.5234C259.986 78.8131 257.855 81.6426 256.633 84.7885C252.986 94.1739 252.731 92.9816 246.648 101.421C241.457 108.623 233.516 113.683 229.069 121.192C224.941 128.164 220.488 144.404 213.427 148.554C207.847 151.834 202.934 155.419 196.998 158.092C193.262 159.774 189.75 161.9 186.015 163.572C178.817 166.795 171.851 170.147 164.109 171.869C162.89 172.14 161.671 172.918 160.479 173.383C158.291 174.234 156.421 174.17 154.064 174.17C151.659 174.17 146.831 175.125 144.957 173.625C143.443 172.412 144.14 169.292 144.14 167.569V138.684C144.14 128.968 144.827 118.943 143.323 109.314C143.147 108.184 141.258 94.2904 136.637 97.9898C134.733 99.5136 134.631 100.421 134.367 103.319C133.813 109.422 134.417 115.704 135.305 121.728C137.145 134.203 136.516 147.124 136.516 159.727C136.516 161.667 137.491 173.324 133.127 171.869C130.882 171.12 129.753 170.063 128.074 168.72C123.873 165.356 122.384 157.807 121.267 152.914C120.007 147.4 119.65 141.586 119.088 135.959C118.686 131.931 117.454 128.061 117.454 123.999C117.454 119.943 117.62 115.869 116.91 111.857C116.444 109.224 113.943 100.788 111.191 99.5643C109.739 98.9186 106.737 99.5037 105.2 99.5037C102.514 99.5037 99.9598 99.8924 97.3036 100.049C95.8312 100.135 97.0739 106.508 97.2733 107.406C98.7286 113.96 100.561 120.298 102.75 126.754C104.063 130.626 105.234 134.736 107.349 138.199C109.312 141.415 112.132 144.998 113.218 148.554C114.042 151.253 114.731 152.836 114.731 155.821V160.03C114.731 162.772 113.397 164.798 113.128 167.357C112.594 172.43 105.372 165.788 104.384 164.057C103.346 162.239 101.313 159.367 101.116 157.396C100.717 153.403 99.5179 148.921 97.8482 145.284C95.5533 140.286 94.1942 134.519 92.4021 129.267C90.3558 123.27 86.54 118.1 83.9606 112.342Z" fill="#925B4E"/>
<path d="M148.591 150.352C144.942 159.315 143.392 167.428 143.392 177.185C143.392 180.711 154.023 179.586 155.692 178.932C159.937 177.27 165.063 175.938 169.545 175.243C175.386 174.338 180.159 171.077 185.648 169.147C197.288 165.054 199.573 156.878 208.491 148.372C216.943 140.31 225.085 130.936 230.841 120.724C233.509 115.992 236.517 111.432 239.223 106.745C241.81 102.264 242.675 96.8224 245.354 92.6104C246.923 90.1431 258.245 71.0685 255.494 71.6804C250.287 72.8383 246.025 76.651 241.02 78.6312C235.962 80.6323 231.606 83.8973 228.603 88.572C225.435 93.5031 220.994 97.4171 217.583 102.241C212.963 108.773 211.173 116.604 207.223 123.442C203.932 129.139 200.364 133.587 194.689 137.033C193.95 137.482 189.994 140.124 188.946 139.286C188.702 139.09 194.092 125.592 194.34 124.879C195.484 121.586 196.126 118.189 197.871 115.133C200.171 111.104 203.358 107.565 205.942 103.716C208.984 99.1856 211.992 94.1672 215.876 90.2806C216.278 89.8776 218.241 89.1156 217.428 89.1156C216.075 89.1156 214.226 89.4483 212.927 89.0768C211.245 88.596 211.156 85.0391 209.046 84.9219C201.827 84.5205 198.447 87.8538 195.077 94.3578C188.212 107.608 182.472 119.961 170.631 129.655C164.227 134.899 159.781 140.854 151.928 144.178C150.107 144.95 149.272 148.681 148.591 150.352Z" fill="#70463C"/>
<path d="M25.8838 64.2408C25.8838 67.0127 40.2871 65.6327 41.3825 65.6327C41.3825 67.1393 44.4359 69.037 45.3565 70.3166C47.0177 72.6254 51.4545 72.9809 52.8189 75.575C54.4193 78.618 52.8995 82.8869 54.0111 86.2243C54.6422 88.119 60.5344 87.108 62.2682 87.108C67.0857 87.108 71.4678 85.803 75.7579 83.7498C79.9547 81.7411 82.1057 77.8561 85.8916 75.3541C87.6864 74.168 88.6073 74.7802 88.8722 76.6355C89.2189 79.0642 89.0808 81.1725 89.8657 83.5288C90.9014 86.6383 92.4796 90.6859 96.2462 91.0629C98.9873 91.3372 107.373 91.4105 103.775 86.9092C103.011 85.9532 101.907 85.2877 101.39 84.1254C100.685 82.5371 99.7934 80.9534 99.006 79.331C98.0279 77.3158 97.068 75.6901 95.8267 73.8959C94.5554 72.0582 93.822 69.0387 92.0514 67.6212C90.5327 66.4054 88.7422 63.0737 88.0994 61.236C86.6449 57.0772 85.0966 52.9494 84.2137 48.532C83.5681 45.3013 82.2246 38.0198 77.9436 37.7943C74.2305 37.5987 73.5722 42.4556 73.5722 45.0411C73.5722 47.8144 73.8527 50.6789 74.4553 53.3926C74.8757 55.286 75.2073 57.2075 76.1553 58.894C77.3078 60.9445 78.5812 62.8713 79.5111 65.0583C80.6461 67.7273 82.6515 73.0472 79.6877 75.3541C77.6887 76.91 73.7525 77.5578 71.5851 76.282C68.6448 74.5511 66.8496 70.217 65.1384 67.4444C63.2447 64.3762 62.2448 60.9019 60.6345 57.6789C60.1325 56.6742 56.0864 52.7738 56.0864 55.5137C56.0864 56.5883 56.8351 62.7025 54.6955 61.0372C52.9535 59.6813 50.2333 58.3196 49.3306 56.287C48.6051 54.6535 46.7134 50.5204 44.5617 50.5204C41.8745 50.5204 39.6847 50.9325 37.4968 52.5089C35.9333 53.6354 35.257 55.6463 33.4124 56.6847C30.4772 58.3369 25.8838 60.3344 25.8838 64.2408Z" fill="#95846C"/>
<path d="M47.8632 103.8C65.1381 126.981 79.0708 150.934 99.4258 164.707M263.501 60C252.309 75.6 220.058 126.84 208.547 142.2C194.157 161.4 183.964 176.4 138.397 176.4C122.669 176.4 110.155 171.968 99.4258 164.707M249.317 53.4C278.096 63 256.512 61.8 242.122 60M249.317 53.4C256.512 50.3999 237.326 49.8 222.936 42.6M249.317 53.4L245.719 62.0573M134.201 72C130.203 78.8 118.372 92.4 103.023 92.4C95.4715 92.4 91.6353 90.2621 89.8327 87.0839M134.201 72C137.198 78.8 147.631 92.4 165.378 92.4C172.549 92.4 178.049 89.4954 180.367 86.4M134.201 72C134.4 90.6 135.16 139.44 136.599 162M218.739 85.2C209.626 90.48 189.36 78.6 180.367 72C181.796 76.0522 183.786 81.8352 180.367 86.4M218.739 85.2C227.853 79.92 223.336 71 219.938 67.2C227.133 73.4 244.281 81.84 250.516 75.6C256.752 69.36 247.518 62.6 242.122 60M218.739 85.2C205.789 106.8 196.156 126.2 192.958 133.2M242.122 60L238.525 69M89.8327 87.0839C87.0556 82.1873 89.1056 74.8214 89.8327 69C84.0369 74.6 70.167 85.68 61.0536 85.2C49.6619 84.6 50.2614 76.8 56.8566 60C60.2142 68.64 62.2527 72.8 62.8522 73.8M89.8327 87.0839C95.0289 99.2559 106.86 130.08 112.616 156M180.367 86.4C169.403 115.613 161.781 147.6 159.982 159.6M99.4258 164.707C85.0362 136.621 67.8487 109.2 61.0536 99M43.067 64.2C34.8807 68.4597 27.0525 68.6036 25.3436 66M59.8544 40.2C68.9678 33.96 70.4467 32.8 70.047 33M70.047 33C71.8217 39.6244 81.5887 41.1479 103.023 27.6M70.047 33C74.3639 51.24 78.241 61 79.64 63.6M103.023 27.6C112.6 37.4117 132.385 37.4842 144.393 27M103.023 27.6C104.622 34.1721 112.136 63.7729 115.014 76.8M144.393 27C152.194 33.9661 160.581 43.8 182.166 34.2M144.393 27C145.832 49.08 145.792 65.4 146.192 71.4M55.6574 61.8C54.2584 59.8 56.0172 62.88 47.8632 45.6C25.7993 52.8 31.4751 54.6 37.071 54.6C26.7299 59.7743 23.9233 63.8361 25.3436 66M184.564 60C189.84 42.24 191.559 37 191.759 36.6C203.15 43 225.334 53.16 222.936 42.6M222.936 42.6L211.544 74.4M25.3436 66C30.8882 74.16 35.0724 81 36.4714 83.4" stroke="#3E3939" stroke-width="5" stroke-linecap="round" stroke-linejoin="round"/>
</svg>
