<svg width="290" height="211" viewBox="0 0 290 211" fill="none" xmlns="http://www.w3.org/2000/svg">
<g clip-path="url(#clip0)">
<path d="M62.0865 156.311C51.4629 157.18 41.1692 160.824 30.5517 161.605C28.6122 161.605 25.3473 161.299 24.3829 163.469C23.2781 165.955 25.7023 170.321 26.7307 172.377C27.6901 174.296 30.5537 175.356 32.4162 176.083C36.7652 177.78 41.4179 178.891 45.8818 180.25C52.8357 182.366 59.9802 183.896 66.9204 186.05C75.5905 188.741 84.343 185.694 93.0229 183.979C95.0272 183.582 96.9683 183.685 98.9846 183.541C102.662 183.278 106.335 182.494 110.01 182.137C121.273 181.043 132.66 181.493 143.962 181.493C163.737 181.493 183.565 184.031 203.372 182.551C207.52 182.242 211.544 181.224 215.663 180.756C217.613 180.534 219.478 180.565 221.418 180.158C225.212 179.361 229.149 179.149 232.881 178.086C235.635 177.302 238.317 175.998 240.983 174.955C244.736 173.489 246.001 170.896 246.001 167.037C246.001 165.461 245.033 164.348 244.551 162.848C243.011 158.055 239.319 157.678 234.814 156.817C223.57 154.669 212.08 154.184 200.656 154.584C192.99 154.853 185.765 157.876 178.075 157.876C172.728 157.876 167.465 159.046 162.123 159.119C154.643 159.221 147.191 159.533 139.704 159.533C131.008 159.533 122.298 159.774 113.624 159.119C109.013 158.771 104.127 158.969 99.5831 158.06C90.7005 156.284 82.1343 156.219 73.0892 156.219C69.4462 156.219 65.7207 156.013 62.0865 156.311Z" fill="white"/>
<path d="M83.2573 170.684C77.3619 171.265 70.339 172.346 67.7785 173.184C65.2181 174.022 61.859 175.219 60.8556 175.664C58.8775 176.542 57.0812 177.738 55.1787 178.629C53.3061 179.506 51.0609 179.988 49.3271 181.071C48.8041 181.398 49.0651 182.505 49.0651 183.009L49.0651 183.026C49.0651 185.071 49.0651 185.334 50.6372 186.652C54.0498 189.513 59.5951 191.274 63.8468 192.931C68.69 194.818 73.0007 194.675 78.1482 194.675C85.1724 194.675 92.1349 193.977 99.1526 193.977C103.542 193.977 108.867 193.235 113.039 194.752C116.837 196.134 120.935 197.108 124.524 198.899C127.353 200.312 129.149 202 132.602 202C134.892 202 137.221 201.763 139.502 201.574C145.952 201.037 152.173 199.667 158.519 198.706C164.088 197.862 169.595 197.163 175.135 196.07C180.966 194.92 186.719 194.1 192.668 193.473C198.927 192.814 205.473 193.28 211.773 193.28H227.122C231.102 193.28 234.67 193.207 238.301 191.535C241.238 190.184 244 188.568 244 185.334C244 182.874 242.01 182.078 240.266 180.412C238.311 178.543 234.25 177.082 231.729 175.839C228.554 174.273 224.925 173.052 221.467 172.079C218.949 171.371 216.128 171.653 213.52 171.653C208.462 171.653 203.706 172.528 198.803 173.319C193.81 174.125 189.544 174.051 184.502 173.223C182.919 172.962 181.315 173.177 179.742 172.874C178.219 172.58 176.814 172.036 175.31 171.73C171.495 170.955 167.787 171.033 164.044 170.103C151.995 167.108 140.515 170.897 128.65 173.358C122.104 174.716 115.851 173.518 109.284 173.397C107.529 173.365 105.523 173.603 104.065 172.525C102.808 171.595 100.153 171.27 98.5849 170.684C97.202 170.167 95.8424 170.258 94.2617 170.258C90.5496 170.258 86.9489 170.32 83.2573 170.684Z" fill="#D2B447"/>
<path d="M129.452 82.8416C134.977 82.8416 139.295 84.6275 144.732 84.6275C146.351 83.548 147.819 82.1465 149.574 81.2342C152.166 79.8865 154.554 80.4547 157.353 80.6786C159.072 80.8162 160.831 80.7597 162.413 81.6113C164.616 82.7975 169.149 85.4895 169.695 88.2192C169.92 89.3429 169.884 92.6013 168.663 93.2793C166.582 94.4357 165.359 95.4991 165.449 97.9227C165.488 98.9841 166.14 100.006 166.52 100.979C167.066 102.372 167.034 103.902 167.592 105.265C168.151 106.631 169.748 106.947 170.767 107.844C171.772 108.73 170.806 111.486 170.806 112.647C170.806 117.404 173.775 121.17 174.339 125.823C174.496 127.125 174.378 128.499 174.378 129.811C174.378 131.275 173.548 132.328 173.168 133.72C172.729 135.329 173.825 138.664 172.374 139.793C170.977 140.879 166.112 140.033 164.536 139.435C161.492 138.281 159.818 137.618 158.087 134.732C156.368 131.868 155.073 128.702 152.65 126.339C151.48 125.198 150.174 124.231 148.959 123.144C143.521 118.278 138.302 115.284 131 113.956C126.535 113.144 121.199 112.865 117.606 116.079C113.295 119.937 107.824 124.967 106.513 130.863C105.858 133.814 105.348 136.817 104.648 139.753C104.243 141.453 104.126 141.92 102.862 141.063L102.847 141.052C101.582 140.193 100.254 139.293 98.7347 138.999C97.7241 138.803 95.8673 138.365 95.2422 137.411C94.1527 135.748 94.4672 131.593 94.3691 129.633C94.2651 127.552 94.0674 125.14 93.119 123.243C92.163 121.331 93.4909 120.933 93.6349 118.917C93.789 116.76 91.9661 115.121 93.1388 113.202C93.8805 111.988 94.9436 110.902 95.5796 109.63C95.9695 108.85 95.9231 107.951 96.3336 107.13C97.9983 103.801 99.7198 100.304 101.076 96.8511C101.313 96.2477 101.969 96.3874 102.505 96.0574C104.951 94.5523 107.745 93.3622 109.807 91.3346C112.834 88.3586 115.746 86.0562 120.166 86.0562C121.714 86.0562 123.646 86.302 125.087 85.6197C126.906 84.7581 127.185 82.8416 129.452 82.8416Z" fill="white"/>
<path d="M119.817 102.257C127.222 99.4141 135.245 101.164 142.774 102.312C143.673 102.912 146.624 103.759 147.5 104.5C150.235 106.814 152.382 109.33 155.455 111.208C157.996 112.761 160.491 114.172 162.541 116.374C164.447 118.421 166.279 120.64 167.79 122.991C169.077 124.993 170.98 127.359 171.34 129.787C171.625 131.709 170.702 132.005 170.166 133.613C169.722 134.945 171.005 136.064 171.312 137.26C171.718 138.839 170.652 139.534 169.434 140.299C168.56 140.848 168.572 143.166 168.439 144.139C168.177 146.065 168.829 147.732 168.881 149.554C168.969 152.641 165.449 151.899 163.093 152.04C160.338 152.204 158.802 152.899 158.328 155.673C157.817 158.668 156.753 160.497 153.466 159.858C151.265 159.43 149.291 159.25 147.042 159.25H124.983C121.408 159.25 117.562 159.202 114.043 158.643C110.508 158.081 110.967 153.924 108.089 152.717C106.989 152.255 105.705 152.749 104.594 152.233C103.54 151.744 103.337 150.964 103.103 149.926C102.448 147.026 100.971 146.201 98.5862 144.868L98.5166 144.829C95.8006 143.312 98.5916 139.433 98.9034 137.232C99.3595 134.013 97.3764 134.43 95.008 133.641C94.2941 133.403 94.4481 132.001 94.5936 131.403C95.3827 128.159 96.9432 125.113 97.895 121.941C98.2821 120.651 98.9384 119.544 99.8841 118.598C101.845 116.637 103.628 114.474 105.465 112.396C109.333 108.019 114.354 104.354 119.817 102.257Z" fill="#C6D0D6"/>
<path d="M115.056 152.869C112.776 154.267 110.543 153.879 107.922 153.879C107.314 154.487 105.704 157.049 106.159 157.869C106.362 158.233 106.285 158.598 106.664 158.89C107.087 159.215 107.481 159.602 107.84 159.993C108.567 160.787 110.413 160.879 111.365 161.024C113.862 161.402 116.444 161.365 118.963 161.477C121.496 161.59 123.892 162.156 126.386 162.498C128.601 162.802 131.778 162.969 133.932 162.302C135.636 161.775 137.216 160.772 139.015 160.601C140.421 160.467 141.871 160.56 143.283 160.56C145.106 160.56 146.947 160.633 148.767 160.519C150.384 160.417 152.136 160.564 153.726 160.271C155.34 159.974 156.983 159.974 158.169 158.745C159.181 157.698 159.91 156.286 159.654 154.807C159.384 153.246 157.173 152.766 155.839 152.766C154.603 152.766 153.32 152.665 152.097 152.869C150.294 153.169 148.556 153.673 146.726 153.838C145.324 153.964 143.885 153.879 142.479 153.879C139.497 153.879 136.458 153.999 133.51 153.467C129.994 152.832 126.831 151.018 123.283 150.395C122.242 150.212 120.831 149.936 119.778 150.271C118.084 150.81 116.557 151.949 115.056 152.869Z" fill="#9EAFB9"/>
<path d="M121.21 119.429C118.268 121.795 118.032 123.029 118.032 126.664C115.776 125.537 119.285 112.829 119.678 111.926C121.284 108.238 126.938 106.627 130.78 106.068C135.929 105.32 141.058 105.742 144.83 109.514C146.887 111.571 148.408 114.786 149.883 117.323C151.223 119.628 152.94 122.889 152.831 125.631C152.75 127.651 148.761 125.491 147.663 124.942C146.048 124.134 144.748 122.957 143.796 121.42C142.473 119.283 139.241 115.945 136.714 115.371C133.113 114.553 128.987 115.668 125.689 117.017C124.007 117.705 122.642 118.277 121.21 119.429Z" fill="#9EAFB9"/>
<path d="M221.988 19.3039C225.836 23.0483 228 26.919 232.226 30.248C231.304 30.248 230.533 30.8491 229.598 30.9737C228.191 31.1612 226.5 31.8172 225.145 32.2094C218.053 34.2624 211.097 38.5311 205.571 43.3104C202.392 46.0601 200.749 49.5906 197.118 51.9402C193.741 54.1255 190.995 57.0228 187.704 59.2167C180.084 64.2967 171.251 67.3022 163.756 72.5929C161.35 74.2916 159.671 75.0961 156.676 74.6523C154.261 74.2946 151.936 73.6211 149.536 73.2402C144.854 72.497 137.069 71.5599 133.532 68.0231C132.225 66.7163 138.815 63.9114 139.808 63.7082C143.833 62.8849 147.849 62.4658 151.812 61.3154C154.316 60.5883 156.953 60.4057 159.343 59.354C161.805 58.2706 163.494 56.1029 165.678 54.6469C167.87 53.1858 170.951 51.508 171.817 48.8021C172.363 47.0966 173.21 45.8767 174.131 44.3695C175.61 41.9499 177.281 39.9402 178.917 37.4853C180.409 35.2473 182.223 34.1291 184.193 32.4055C185.32 31.419 186.593 30.4066 187.821 29.542C189.86 28.1073 191.754 26.1863 193.941 25.0309C197.67 23.0609 201.795 21.7433 205.669 20.0884C210.107 18.1932 217.795 15.2243 221.988 19.3039Z" fill="white"/>
<path d="M235.065 25.6449C238.172 26.8234 240.503 28.3548 243.237 30.195C243.237 33.0787 240.348 38.8337 239.194 41.3964C238.314 43.3519 236.466 44.1881 234.543 44.9177C232.665 45.6299 230.726 44.9367 228.833 45.4393C225.05 46.4444 220.118 49.328 218.328 53.047C217.511 54.7437 216.894 56.4649 215.98 58.0898C214.926 59.9635 212.836 61.2946 211.155 62.5385C208.878 64.2229 206.211 66.9028 203.33 67.4364C201.011 67.8658 198.496 68.6061 196.287 69.4651C193.557 70.527 190.876 72.925 189.766 75.6382C188.113 79.6805 188.461 83.3542 188.708 87.6801C188.877 90.6322 189.494 93.2633 190.288 96.1283C190.715 97.6702 191.727 101.976 190.027 103.069C188.53 104.032 186.088 101.421 185.272 100.548L185.245 100.519C183.572 98.73 182.443 96.4472 181.043 94.4473C179.609 92.3985 177.719 90.7329 176.261 88.68C175.059 86.989 173.796 85.3259 172.551 83.6661C170.734 81.2429 169.034 78.7421 166.958 76.5222C164.79 74.2047 162.503 72.3796 159.611 71.0301C157.89 70.2272 155.864 69.6732 154.003 69.3347C153.347 69.2155 153.139 69.0476 153.51 68.4797C154.919 66.3249 158.918 65.4077 161.35 65.4077C164.184 65.4077 166.754 64.9041 169.363 63.9006C170.687 63.3915 171.546 62.1451 172.812 61.4952C174.316 60.723 175.806 59.8829 177.246 59.0027C178.685 58.1235 179.732 56.9231 180.898 55.7568C182.66 53.9947 184.646 52.4746 186.433 50.743C187.994 49.2309 189.419 47.7965 190.752 46.0769C194 41.5 198 38 202.5 36C206.954 34.0205 211.269 31.5918 216.274 28.7755L216.429 28.6879C218.355 27.1125 220.901 26.1157 223.139 25.1087C224.257 24.6055 225.203 23.9349 226.442 23.9349C228.073 23.9349 229.639 24.1069 231.239 24.1958C232.662 24.2748 233.769 25.1535 235.065 25.6449Z" fill="#A59999"/>
<path d="M153.537 66.9834C147.305 65.7369 140.668 64.5151 134.341 65.8039C132.873 65.8039 122.054 67.8728 124.448 70.4079C126.95 73.0573 131.856 73.7852 134.988 75.4685C140.18 78.2593 146.236 78.5645 151.501 81.0999C155.213 82.8871 158.795 84.9634 162.46 86.8454C165.859 88.5912 168.642 91.2605 172.048 93.0095C173.782 93.8999 175.885 95.8075 176.919 97.4614C177.482 98.363 178.553 99.3185 179.24 100.201C180.376 101.662 180.991 103.381 181.979 104.919C182.462 105.671 182.845 107.392 183.863 107.392H189.116C192.308 107.392 192.883 106.315 192.883 103.435C192.883 101.871 191.978 99.7935 191.437 98.3365C190.504 95.8253 191.945 92.7476 190.5 90.5C187.986 86.5899 190.577 82.5667 186.832 79.654C183.209 76.8358 171.31 73.516 166.569 72.4626C161.966 71.4396 158.065 67.889 153.537 66.9834Z" fill="#7E7373"/>
<path d="M118.53 177.863C113.902 177.063 109.4 177.018 104.713 177.018C103.992 177.979 102.612 179.553 101.874 180.502C101.561 180.904 101.618 182.645 101.874 183.047C102.501 184.033 104.085 185.136 105.135 185.675C107.22 186.745 109.281 187.531 111.586 187.997C114.031 188.492 116.405 188.419 118.894 188.419C122.949 188.419 127.147 188.178 131.187 187.88C133.625 187.7 136.019 187.207 138.448 186.941C140.855 186.679 143.243 186.551 145.556 185.78C148.324 184.857 151.379 184.204 153.802 182.484C155.277 181.437 156.479 179.825 155.597 177.956C155.351 177.437 154.799 177.275 154.295 177.112C153.187 176.754 152.287 176.187 151.257 175.681C149.745 174.939 147.293 175.251 145.673 175.341C143.203 175.478 140.429 176.24 138.096 177.018C135.832 177.772 133.918 178.682 131.48 178.707C129.088 178.732 126.694 178.707 124.301 178.707C122.398 178.707 120.411 178.187 118.53 177.863Z" fill="#AA3C3C"/>
<path d="M106.297 173.781C104.97 175.025 104.078 176.085 103.523 177.833C104.233 177.833 105.5 178.528 106.174 178.77C107.322 179.183 108.644 179.769 109.715 180.351C110.569 180.815 111.376 181.316 112.215 181.828C112.825 182.201 113.576 182.093 114.26 182.093C115.433 182.093 116.609 182.12 117.782 182.084C121.707 181.963 125.563 180.872 129.427 180.257C132.876 179.708 136.559 180.048 140.05 180.048C144.175 180.048 148.398 179.504 152.358 178.306C155.795 177.267 154.481 174.254 153.797 171.698C153.295 169.823 152.331 169.512 150.559 168.981C149.713 168.727 148.819 168.801 147.946 168.801C146.297 168.801 144.65 168.782 143.004 168.886C140.116 169.069 137.307 169.312 134.407 169.312C130.092 169.312 125.816 168.801 121.512 168.801C118.444 168.801 115.371 168.576 112.404 169.52C109.937 170.306 108.143 172.05 106.297 173.781Z" fill="white"/>
<path d="M167.723 117.928C168.16 119.237 169.576 119.945 170.886 119.508C172.196 119.071 172.903 117.655 172.466 116.345L167.723 117.928ZM114.548 92.8608L116.108 94.8138C116.18 94.7562 116.249 94.6947 116.314 94.6295L114.548 92.8608ZM108.472 159.618L107.186 161.763C107.686 162.062 108.275 162.178 108.851 162.089L108.472 159.618ZM123.304 107.587C122.1 108.264 121.673 109.788 122.349 110.992C123.026 112.195 124.55 112.623 125.753 111.946L123.304 107.587ZM149.811 124.719C149.929 126.095 151.14 127.114 152.516 126.996C153.891 126.878 154.911 125.667 154.793 124.292L149.811 124.719ZM120.422 118.691C120.802 117.363 120.034 115.979 118.706 115.6C117.379 115.22 115.995 115.988 115.615 117.316L120.422 118.691ZM148.518 137.016C149.442 135.99 149.36 134.41 148.334 133.485C147.308 132.561 145.727 132.644 144.803 133.669L148.518 137.016ZM134.681 123.897C136.021 123.562 136.836 122.205 136.501 120.865C136.166 119.526 134.809 118.711 133.47 119.046L134.681 123.897ZM135.731 128.714C137.097 128.519 138.047 127.253 137.852 125.886C137.657 124.519 136.391 123.57 135.024 123.765L135.731 128.714ZM128.434 72.4867L128.177 74.9735C128.213 74.9772 128.249 74.9802 128.285 74.9823L128.434 72.4867ZM181.377 103.698L183.536 102.437L183.536 102.437L181.377 103.698ZM180.041 66.754C179.03 65.8141 177.448 65.8721 176.508 66.8836C175.568 67.895 175.626 69.4769 176.638 70.4167L180.041 66.754ZM150.566 61.3452L150.668 63.8431C150.765 63.8391 150.862 63.8295 150.958 63.8142L150.566 61.3452ZM188.663 27.8373L189.967 29.97L188.663 27.8373ZM216.904 19.3318C218.192 18.8338 218.832 17.3862 218.334 16.0984C217.836 14.8106 216.389 14.1703 215.101 14.6682L216.904 19.3318ZM244.582 33.6744C245.651 32.8007 245.809 31.2257 244.936 30.1566C244.062 29.0875 242.487 28.9292 241.418 29.8029L244.582 33.6744ZM118.019 160.485L117.004 162.77L117.004 162.77L118.019 160.485ZM205.245 161.786L204.866 164.257C204.991 164.276 205.118 164.286 205.245 164.286V161.786ZM214.792 160.919L215.334 163.359C215.635 163.292 215.921 163.17 216.178 163L214.792 160.919ZM220 160.919L219.458 163.359L220 160.919ZM229.547 160.919L230.037 163.37L229.547 160.919ZM240.026 164.258C241.391 164.463 242.664 163.522 242.869 162.156C243.073 160.791 242.132 159.518 240.767 159.313L240.026 164.258ZM172.466 136.134C172.903 134.824 172.196 133.408 170.886 132.971C169.576 132.534 168.16 133.242 167.723 134.551L172.466 136.134ZM155.34 77.8822L156.324 75.5842L155.34 77.8822ZM162.672 98.6088C161.703 99.5925 161.715 101.175 162.698 102.144C163.682 103.113 165.265 103.101 166.234 102.117L162.672 98.6088ZM99.5442 87.0677C100.654 86.2464 100.888 84.6809 100.067 83.571C99.2457 82.4611 97.6802 82.227 96.5703 83.0483L99.5442 87.0677ZM81.7149 104.526C81.4539 105.882 82.3414 107.192 83.6972 107.453C85.053 107.714 86.3637 106.827 86.6247 105.471L81.7149 104.526ZM176.714 149.916C175.665 150.814 175.543 152.393 176.441 153.441C177.339 154.49 178.917 154.612 179.966 153.714L176.714 149.916ZM185.579 137.099C185.352 135.737 184.064 134.817 182.702 135.044C181.34 135.272 180.42 136.56 180.647 137.922L185.579 137.099ZM82.2977 95.1819C83.1008 94.0588 82.8414 92.4973 81.7183 91.6942C80.5952 90.8911 79.0337 91.1505 78.2306 92.2736L82.2977 95.1819ZM72.9906 109.767C72.9906 111.148 74.1099 112.267 75.4906 112.267C76.8713 112.267 77.9906 111.148 77.9906 109.767H72.9906ZM124.529 172.623V170.123C124.384 170.123 124.24 170.136 124.097 170.16L124.529 172.623ZM169.305 170.251C167.995 170.687 167.287 172.103 167.723 173.413C168.159 174.723 169.575 175.431 170.885 174.995L169.305 170.251ZM178.34 172.623L176.87 174.646L178.34 172.623ZM188.858 178.15C190.234 178.042 191.263 176.839 191.155 175.463C191.048 174.086 189.845 173.057 188.468 173.165L188.858 178.15ZM159.48 186.253C158.149 185.884 156.772 186.663 156.402 187.994C156.033 189.324 156.812 190.702 158.143 191.071L159.48 186.253ZM171.396 185.194L169.927 187.217L171.396 185.194ZM180.459 186.52C181.191 185.35 180.836 183.807 179.666 183.075C178.495 182.342 176.953 182.698 176.22 183.868L180.459 186.52ZM204.911 182.717C203.543 182.901 202.583 184.16 202.768 185.529C202.952 186.897 204.211 187.856 205.58 187.672L204.911 182.717ZM227.377 185.194L228.347 182.89L228.347 182.89L227.377 185.194ZM238.123 185.194C238.123 183.813 237.003 182.694 235.623 182.694C234.242 182.694 233.123 183.813 233.123 185.194H238.123ZM202.244 166.364C200.942 166.823 200.259 168.251 200.718 169.553C201.177 170.855 202.605 171.538 203.907 171.079L202.244 166.364ZM214.358 168.722L213.912 171.181L214.358 168.722ZM218.999 166.332C217.679 165.926 216.28 166.667 215.874 167.987C215.469 169.307 216.21 170.706 217.53 171.111L218.999 166.332ZM113.916 176.258C112.811 177.085 112.586 178.652 113.414 179.757C114.242 180.862 115.809 181.087 116.914 180.259L113.916 176.258ZM117.067 179.906C118.216 180.671 119.768 180.36 120.534 179.211C121.299 178.061 120.988 176.509 119.839 175.744L117.067 179.906ZM127.919 174.049C126.552 173.854 125.286 174.804 125.091 176.171C124.896 177.538 125.846 178.804 127.213 178.999L127.919 174.049ZM135.433 178.542C136.787 178.272 137.665 176.955 137.395 175.601C137.124 174.247 135.808 173.369 134.454 173.639L135.433 178.542ZM123.226 179.66C121.846 179.66 120.726 180.779 120.726 182.16C120.726 183.54 121.846 184.66 123.226 184.66V179.66ZM126.264 184.66C127.645 184.66 128.764 183.54 128.764 182.16C128.764 180.779 127.645 179.66 126.264 179.66V184.66ZM141.453 175.325C140.072 175.325 138.953 176.444 138.953 177.825C138.953 179.206 140.072 180.325 141.453 180.325V175.325ZM143.189 180.325C144.569 180.325 145.689 179.206 145.689 177.825C145.689 176.444 144.569 175.325 143.189 175.325V180.325ZM91.1777 174.482C92.2044 175.405 93.7851 175.321 94.7082 174.294C95.6313 173.268 95.5472 171.687 94.5205 170.764L91.1777 174.482ZM79.7644 171.504C79.1464 172.739 79.6463 174.241 80.881 174.859C82.1157 175.477 83.6176 174.977 84.2356 173.742L79.7644 171.504ZM61.4951 178.969C61.4089 177.591 60.2219 176.544 58.8439 176.63C57.4659 176.716 56.4187 177.903 56.5049 179.281L61.4951 178.969ZM65.3078 178.616C65.7448 179.926 67.1609 180.633 68.4706 180.196C69.7803 179.759 70.4877 178.343 70.0507 177.033L65.3078 178.616ZM75.071 184.578C73.7732 185.05 73.1034 186.484 73.5747 187.782C74.0461 189.079 75.4803 189.749 76.7781 189.278L75.071 184.578ZM83.3019 186.061L83.9076 188.487L83.3019 186.061ZM85.4059 188.047C86.0239 189.282 87.5258 189.782 88.7605 189.164C89.9952 188.546 90.4951 187.044 89.8771 185.809L85.4059 188.047ZM130.604 83.6566C130.839 83.6566 131.158 83.72 132.011 85.0835C132.318 85.5749 132.835 86.4788 133.37 87.1312C133.932 87.8158 135.005 88.8584 136.68 88.8584V83.8584C137.269 83.8584 137.475 84.2508 137.236 83.9601C136.971 83.6371 136.756 83.2405 136.249 82.4315C135.475 81.1941 133.841 78.6566 130.604 78.6566V83.6566ZM136.68 88.8584C138.095 88.8584 139.151 88.145 139.802 87.5888C140.434 87.0488 141.037 86.3377 141.417 85.9132C141.884 85.3919 142.168 85.1167 142.392 84.9687C142.548 84.8653 142.485 84.9464 142.345 84.9231L143.166 79.991C141.724 79.7509 140.521 80.2114 139.633 80.7988C138.812 81.3417 138.148 82.0689 137.692 82.5772C137.151 83.1821 136.858 83.5277 136.554 83.7869C136.27 84.03 136.349 83.8584 136.68 83.8584V88.8584ZM142.345 84.9231C142.052 84.8744 141.875 84.6297 141.878 84.6372C141.959 84.7908 142.056 85.1123 142.199 85.8557C142.313 86.45 142.474 87.4253 142.777 88.2846C143.091 89.1807 143.686 90.3514 144.942 91.1037L147.512 86.815C147.682 86.9171 147.626 87.004 147.494 86.6268C147.348 86.2127 147.265 85.725 147.109 84.9105C146.98 84.245 146.778 83.2118 146.303 82.3088C145.751 81.2597 144.76 80.2564 143.166 79.991L142.345 84.9231ZM144.942 91.1037C146.343 91.9439 147.771 91.7548 148.764 91.4313C149.692 91.129 150.586 90.5949 151.174 90.2524C151.888 89.8363 152.296 89.6118 152.615 89.5077C152.87 89.4248 152.636 89.5597 152.319 89.3698L154.889 85.0811C153.488 84.2409 152.06 84.43 151.067 84.7535C150.139 85.0558 149.245 85.5898 148.657 85.9324C147.943 86.3485 147.535 86.573 147.215 86.6771C146.961 86.76 147.195 86.6251 147.512 86.815L144.942 91.1037ZM152.319 89.3698C152.27 89.3407 152.177 89.2658 152.099 89.1425C152.029 89.0308 152.019 88.9561 152.024 88.9829C152.05 89.1279 152.044 89.3809 151.981 90.0972C151.898 91.0522 151.489 93.8505 153.779 95.6808L156.901 91.7748C156.894 91.7692 156.917 91.7887 156.936 91.8257C156.952 91.8544 156.94 91.8469 156.927 91.7655C156.89 91.5362 156.903 91.2169 156.963 90.5308C157.009 90.0008 157.111 89.0347 156.947 88.1095C156.752 87.0111 156.172 85.8498 154.889 85.0811L152.319 89.3698ZM153.779 95.6808C154.943 96.611 156.228 96.8013 157.315 96.7059C158.293 96.62 159.222 96.2882 159.795 96.0893C160.515 95.8391 160.811 95.7478 161.011 95.7286C161.059 95.724 160.753 95.7331 160.517 95.4965L164.05 91.959C162.945 90.8554 161.609 90.6478 160.532 90.7516C159.606 90.8407 158.681 91.1829 158.154 91.3662C157.479 91.6008 157.134 91.7025 156.877 91.725C156.782 91.7334 156.768 91.722 156.804 91.731C156.822 91.7356 156.844 91.7433 156.866 91.7542C156.877 91.7594 156.885 91.7643 156.891 91.7684C156.898 91.7725 156.901 91.7749 156.901 91.7748L153.779 95.6808ZM160.517 95.4965C160.316 95.2962 160.262 94.9673 160.279 94.8372C160.28 94.8323 160.271 94.8951 160.211 95.0515C160.151 95.2068 160.064 95.3935 159.939 95.6432C159.739 96.0433 159.312 96.8266 159.064 97.5507C158.805 98.308 158.518 99.5928 159.18 100.916L163.651 98.6776C163.879 99.1335 163.701 99.4429 163.794 99.1707C163.899 98.8653 164.068 98.5648 164.41 97.8812C164.676 97.3515 165.108 96.4689 165.237 95.4902C165.389 94.3305 165.119 93.0263 164.05 91.959L160.517 95.4965ZM159.18 100.916C160.024 102.601 161.716 102.873 162.52 102.928C163.347 102.984 164.372 102.874 164.957 102.832C165.705 102.779 166.182 102.782 166.513 102.852C166.655 102.882 166.709 102.913 166.715 102.917C166.718 102.919 166.715 102.917 166.71 102.912C166.705 102.907 166.706 102.907 166.713 102.918L170.872 100.143C169.983 98.8101 168.706 98.2052 167.547 97.9602C166.467 97.7322 165.372 97.7898 164.601 97.8448C163.667 97.9115 163.227 97.9641 162.86 97.9391C162.471 97.9126 163.241 97.859 163.651 98.6776L159.18 100.916ZM166.713 102.918C166.739 102.957 166.671 102.866 166.653 102.669C166.636 102.47 166.685 102.325 166.705 102.278C166.716 102.253 166.697 102.306 166.574 102.455C166.451 102.604 166.287 102.775 166.05 103.013C165.664 103.398 164.893 104.12 164.37 104.935C163.764 105.879 163.289 107.239 163.818 108.824L168.56 107.242C168.655 107.526 168.505 107.749 168.578 107.636C168.733 107.394 168.993 107.14 169.583 106.55C170.024 106.11 170.839 105.307 171.288 104.278C171.538 103.703 171.702 103.01 171.634 102.231C171.566 101.455 171.281 100.755 170.872 100.143L166.713 102.918ZM163.818 108.824C164.366 110.466 165.644 111.258 166.744 111.616C167.717 111.933 168.81 111.996 169.483 112.044C170.329 112.104 170.755 112.149 171.029 112.239C171.177 112.287 170.875 112.2 170.761 111.859L175.504 110.276C174.956 108.634 173.677 107.843 172.578 107.485C171.604 107.168 170.512 107.105 169.839 107.056C168.993 106.996 168.567 106.951 168.292 106.862C168.144 106.813 168.447 106.9 168.56 107.242L163.818 108.824ZM170.761 111.859C170.748 111.82 170.725 111.707 170.749 111.562C170.77 111.431 170.814 111.371 170.796 111.4C170.707 111.539 170.51 111.738 169.954 112.232C169.534 112.605 168.754 113.273 168.219 114.109C167.583 115.104 167.223 116.427 167.723 117.928L172.466 116.345C172.479 116.383 172.502 116.496 172.478 116.642C172.457 116.773 172.413 116.832 172.431 116.803C172.52 116.665 172.717 116.466 173.273 115.971C173.693 115.599 174.473 114.931 175.008 114.094C175.644 113.1 176.005 111.776 175.504 110.276L170.761 111.859ZM130.604 78.6566C128.829 78.6566 127.628 79.6151 126.885 80.5738C126.231 81.418 125.764 82.487 125.462 83.1373C125.087 83.9432 124.856 84.376 124.629 84.6362C124.542 84.737 124.507 84.7475 124.529 84.7362C124.564 84.7184 124.58 84.7254 124.529 84.7254V89.7254C126.27 89.7254 127.54 88.9082 128.402 87.9181C129.165 87.0404 129.666 85.956 129.996 85.2447C130.399 84.3778 130.61 83.9296 130.838 83.6358C130.977 83.4566 130.86 83.6566 130.604 83.6566V78.6566ZM124.529 84.7254C123.612 84.7254 122.937 84.3089 121.568 83.5011C120.432 82.8305 118.22 81.5132 115.6 82.8214L117.834 87.2945C117.911 87.2564 117.896 87.2622 117.956 87.2768C118.138 87.3214 118.42 87.4491 119.027 87.8069C120.045 88.408 121.974 89.7254 124.529 89.7254V84.7254ZM115.6 82.8214C114.172 83.5349 113.453 84.7211 113.198 85.953C112.99 86.958 113.093 88.0392 113.139 88.6566C113.258 90.2536 113.172 90.7011 112.781 91.0921L116.314 94.6295C118.527 92.4195 118.224 89.6158 118.126 88.2868C118.063 87.4412 118.058 87.1406 118.094 86.9671C118.1 86.9365 118.088 87.0158 118.008 87.1271C117.92 87.2472 117.833 87.295 117.834 87.2945L115.6 82.8214ZM112.987 90.9078C113.418 90.5631 113.809 90.7907 113.378 90.6564C112.819 90.4825 112.415 90.2322 111.31 89.7537C110.438 89.3765 109.139 88.8799 107.692 88.9628C106.063 89.0561 104.611 89.8484 103.462 91.3249L107.407 94.3967C107.776 93.9225 107.952 93.9561 107.978 93.9546C108.185 93.9427 108.567 94.0151 109.323 94.3423C109.845 94.5682 111.015 95.1578 111.893 95.4309C112.899 95.7437 114.592 96.0254 116.108 94.8138L112.987 90.9078ZM103.462 91.3249C102.395 92.6952 101.913 94.1067 101.89 95.5226C101.869 96.8505 102.26 97.9936 102.548 98.7692C102.895 99.7062 103.035 100.021 103.081 100.343C103.092 100.422 103.105 100.334 103.081 100.363L106.92 103.566C107.981 102.294 108.21 100.905 108.032 99.6426C107.888 98.6244 107.431 97.5571 107.236 97.031C106.981 96.3436 106.884 95.9423 106.89 95.604C106.894 95.3537 106.955 94.9771 107.407 94.3967L103.462 91.3249ZM103.081 100.363C103.08 100.363 103.077 100.374 103.024 100.397C102.955 100.428 102.813 100.473 102.553 100.505C101.95 100.577 101.308 100.527 100.248 100.495C99.3881 100.469 98.0538 100.443 96.8388 100.912C95.3546 101.484 94.2754 102.683 93.8811 104.456L98.7618 105.541C98.798 105.378 98.8251 105.397 98.7578 105.476C98.6874 105.558 98.6193 105.584 98.6382 105.577C98.7929 105.517 99.1673 105.464 100.097 105.492C100.828 105.515 102.057 105.6 103.148 105.469C104.321 105.329 105.806 104.901 106.92 103.566L103.081 100.363ZM93.8811 104.456C93.2413 107.331 94.2925 109.348 94.936 110.687C95.5465 111.958 95.8701 112.725 95.6059 114.044L100.509 115.026C101.112 112.011 100.134 109.96 99.4427 108.522C98.7843 107.151 98.5336 106.567 98.7618 105.541L93.8811 104.456ZM95.6059 114.044C95.467 114.738 95.0681 115.099 93.4 115.71C92.7602 115.944 91.6094 116.317 90.7304 116.878C89.6532 117.567 88.6132 118.756 88.6132 120.604H93.6132C93.6132 120.935 93.3328 121.149 93.422 121.092C93.7093 120.909 94.1318 120.767 95.1195 120.405C96.7065 119.824 99.7796 118.667 100.509 115.026L95.6059 114.044ZM88.6132 120.604C88.6132 122.224 89.424 123.491 90.1491 124.354C90.8762 125.218 91.806 126.006 92.525 126.621C93.3248 127.306 93.914 127.819 94.326 128.309C94.7401 128.802 94.6887 128.943 94.6887 128.84H99.6887C99.6887 127.221 98.8779 125.953 98.1528 125.091C97.4256 124.226 96.4959 123.439 95.7769 122.823C94.977 122.138 94.3879 121.625 93.9759 121.136C93.5618 120.643 93.6132 120.501 93.6132 120.604H88.6132ZM94.6887 128.84C94.6887 128.741 94.7605 128.79 94.4735 129.107C94.1259 129.492 93.6936 129.812 92.9395 130.434C92.3213 130.944 91.3962 131.732 90.7976 132.799C90.1016 134.039 89.9166 135.512 90.5085 137.088L95.1896 135.331C95.1404 135.2 95.1574 135.177 95.1534 135.226C95.1494 135.275 95.1335 135.289 95.1582 135.245C95.2512 135.079 95.4924 134.81 96.1218 134.291C96.6153 133.884 97.512 133.202 98.1815 132.462C98.9117 131.654 99.6887 130.458 99.6887 128.84H94.6887ZM90.5085 137.088C91.5708 139.918 93.966 140.909 95.3476 141.493C96.9986 142.191 97.3121 142.405 97.495 142.831L102.09 140.859C100.971 138.251 98.4637 137.382 97.294 136.887C95.8547 136.279 95.4292 135.97 95.1896 135.331L90.5085 137.088ZM97.495 142.831C97.5388 142.933 97.5837 143.104 97.4805 143.543C97.3517 144.093 97.1383 144.554 96.7974 145.474C96.5179 146.227 96.1247 147.374 96.1982 148.635C96.2819 150.07 96.9373 151.362 98.1665 152.414L101.418 148.616C101.244 148.467 101.199 148.381 101.195 148.372C101.194 148.37 101.191 148.372 101.19 148.344C101.182 148.21 101.223 147.921 101.486 147.212C101.687 146.668 102.125 145.639 102.348 144.685C102.598 143.621 102.697 142.274 102.09 140.859L97.495 142.831ZM98.1665 152.414C100.923 154.774 104.061 153.561 105.479 153.005C106.441 152.627 106.782 152.476 107.047 152.431C107.117 152.419 106.923 152.468 106.617 152.362C106.243 152.232 106.001 151.98 105.895 151.802L110.181 149.228C109.749 148.508 109.1 147.93 108.252 147.637C107.47 147.366 106.734 147.412 106.208 147.502C105.279 147.66 104.21 148.132 103.653 148.35C102.034 148.986 101.7 148.857 101.418 148.616L98.1665 152.414ZM105.895 151.802C105.793 151.633 105.918 151.708 105.857 152.471C105.802 153.169 105.647 153.942 105.467 154.957C105.31 155.85 105.117 157.015 105.175 158.088C105.234 159.159 105.588 160.804 107.186 161.763L109.757 157.474C110.271 157.782 110.191 158.235 110.168 157.816C110.145 157.399 110.223 156.776 110.391 155.827C110.537 154.999 110.762 153.876 110.842 152.867C110.917 151.923 110.933 150.481 110.181 149.228L105.895 151.802ZM125.753 111.946C132.112 108.374 137.799 108.449 141.933 110.713C146.09 112.99 149.215 117.776 149.811 124.719L154.793 124.292C154.086 116.063 150.268 109.578 144.335 106.328C138.38 103.066 130.832 103.357 123.304 107.587L125.753 111.946ZM115.615 117.316C111.725 130.92 120.51 141.483 130.215 143.014L130.994 138.075C124.209 137.005 117.37 129.362 120.422 118.691L115.615 117.316ZM130.215 143.014C134.6 143.706 138.101 143.519 141.125 142.402C144.154 141.284 146.43 139.333 148.518 137.016L144.803 133.669C142.985 135.687 141.355 136.988 139.394 137.712C137.427 138.438 134.853 138.684 130.994 138.075L130.215 143.014ZM133.47 119.046C132.06 119.398 130.856 120.201 130.181 121.467C129.525 122.698 129.548 124.036 129.914 125.134C130.624 127.262 132.861 129.124 135.731 128.714L135.024 123.765C134.954 123.775 134.911 123.768 134.885 123.762C134.857 123.756 134.827 123.743 134.796 123.723C134.763 123.701 134.731 123.671 134.704 123.635C134.676 123.598 134.662 123.567 134.657 123.552C134.644 123.512 134.694 123.631 134.593 123.819C134.545 123.909 134.49 123.958 134.47 123.972C134.456 123.982 134.508 123.94 134.681 123.897L133.47 119.046ZM150.464 58.8473C140.212 59.2662 130.19 61.6737 124.704 64.3332C123.332 64.9981 122.083 65.7544 121.178 66.6114C120.372 67.374 119.206 68.8416 119.681 70.7451C120.127 72.536 121.736 73.4245 122.916 73.8823C124.251 74.3998 126.02 74.7506 128.177 74.9735L128.691 70C126.718 69.7962 125.456 69.5043 124.725 69.2207C123.839 68.8773 124.35 68.8062 124.532 69.5366C124.742 70.3795 124.147 70.6855 124.615 70.2428C124.983 69.8947 125.71 69.4023 126.885 68.8324C131.588 66.5525 140.892 64.2427 150.668 63.8431L150.464 58.8473ZM150.958 63.8142C158.868 62.5569 164.183 60.5723 167.963 57.9183C171.798 55.2266 173.836 51.9974 175.439 48.7334C178.576 42.3444 180.092 36.0093 189.967 29.97L187.358 25.7045C175.969 32.6699 173.843 40.64 170.951 46.5294C169.539 49.4046 167.965 51.8079 165.091 53.826C162.162 55.8819 157.669 57.6847 150.174 58.8762L150.958 63.8142ZM189.967 29.97C197.3 25.4852 200.553 24.1996 203.543 23.3632C206.621 22.502 210.031 21.9896 216.904 19.3318L215.101 14.6682C208.521 17.2123 205.703 17.5669 202.196 18.548C198.601 19.5539 194.91 21.086 187.358 25.7045L189.967 29.97ZM179.219 104.959C180.403 106.988 181.574 108.595 182.737 109.768C183.874 110.915 185.187 111.832 186.673 112.114C188.317 112.426 189.798 111.892 190.906 110.852C191.919 109.9 192.567 108.592 192.993 107.271C193.853 104.607 194.094 101.001 193.784 97.0876C193.47 93.1294 192.577 88.6728 191.022 84.2318L186.303 85.8841C187.716 89.9195 188.52 93.9536 188.799 97.4829C189.083 101.057 188.816 103.936 188.235 105.735C187.941 106.646 187.636 107.064 187.483 107.207C187.425 107.262 187.427 107.24 187.495 107.219C187.57 107.196 187.62 107.205 187.606 107.202C187.524 107.186 187.079 107.046 186.288 106.248C185.523 105.477 184.597 104.253 183.536 102.437L179.219 104.959ZM191.022 84.2318C188.832 77.9759 185.281 71.6229 180.041 66.754L176.638 70.4167C181.132 74.5932 184.305 80.1758 186.303 85.8841L191.022 84.2318ZM191.142 84.7372C190.213 77.5534 190.831 73.3228 192.042 70.7908C193.173 68.4287 194.962 67.2547 197.369 66.5461C199.991 65.7742 202.856 65.663 206.274 65.2338C209.449 64.835 213.051 64.1474 215.914 61.873L212.803 57.9581C211.11 59.3038 208.744 59.8843 205.651 60.2727C202.801 60.6306 199.096 60.8255 195.957 61.7495C192.603 62.7369 189.438 64.6486 187.532 68.6329C185.707 72.4474 185.206 77.8238 186.183 85.3787L191.142 84.7372ZM215.914 61.873C218.348 59.9391 219.885 58.2208 220.858 56.5918C221.856 54.9207 222.17 53.4898 222.358 52.3525C222.558 51.1421 222.587 50.7787 222.81 50.3411C222.975 50.0168 223.378 49.4481 224.757 48.6217L222.186 44.333C220.311 45.4573 219.086 46.6387 218.356 48.0686C217.685 49.3851 217.55 50.7799 217.425 51.5363C217.288 52.3659 217.113 53.1105 216.565 54.0282C215.992 54.9881 214.926 56.2719 212.803 57.9581L215.914 61.873ZM224.757 48.6217C226.097 47.8184 227.05 47.5854 227.768 47.5353C228.531 47.4822 229.211 47.6148 230.199 47.8342C231.118 48.0382 232.428 48.3528 233.916 48.2385C235.483 48.118 237.067 47.5513 238.78 46.3661L235.937 42.2537C234.83 43.0192 234.08 43.2111 233.533 43.2532C232.905 43.3014 232.316 43.1825 231.282 42.953C230.318 42.7389 228.99 42.4381 227.421 42.5474C225.806 42.6599 224.101 43.1856 222.186 44.333L224.757 48.6217ZM238.78 46.3661C240.556 45.1385 241.652 43.7309 242.272 42.1726C242.861 40.6923 242.947 39.2334 243.002 38.1493C243.114 35.899 243.146 34.8477 244.582 33.6744L241.418 29.8029C238.08 32.531 238.112 35.8146 238.008 37.8993C237.954 38.9826 237.878 39.6911 237.626 40.3241C237.405 40.8791 236.982 41.5305 235.937 42.2537L238.78 46.3661ZM108.851 162.089C109.633 161.969 111.074 161.849 112.666 161.921C114.286 161.994 115.849 162.257 117.004 162.77L119.033 158.2C117.064 157.326 114.794 157.012 112.891 156.926C110.962 156.839 109.191 156.978 108.092 157.147L108.851 162.089ZM117.004 162.77C119.553 163.902 122.03 163.856 124.107 163.619C125.109 163.505 126.158 163.325 126.99 163.202C127.879 163.07 128.625 162.985 129.302 162.985V157.985C128.243 157.985 127.198 158.117 126.258 158.256C125.258 158.404 124.436 158.549 123.54 158.652C121.819 158.848 120.39 158.803 119.033 158.2L117.004 162.77ZM129.302 162.985C130.948 162.985 132.604 163.088 134.413 163.197C136.198 163.306 138.113 163.419 140.151 163.419V158.419C138.283 158.419 136.509 158.315 134.715 158.207C132.943 158.099 131.128 157.985 129.302 157.985V162.985ZM140.151 163.419C142.204 163.419 144.96 163.191 147.57 163.035C150.279 162.873 152.933 162.777 155.114 162.975L155.566 157.995C152.974 157.76 149.986 157.881 147.271 158.044C144.456 158.213 142.004 158.419 140.151 158.419V163.419ZM155.114 162.975C159.883 163.408 166.597 163.865 171.622 163.408L171.17 158.429C166.648 158.84 160.344 158.429 155.566 157.995L155.114 162.975ZM171.622 163.408C174.127 163.181 176.595 162.871 178.973 162.766C181.38 162.66 183.211 162.8 184.385 163.252L186.181 158.585C183.975 157.737 181.249 157.661 178.752 157.771C176.225 157.883 173.439 158.223 171.17 158.429L171.622 163.408ZM184.385 163.252C185.622 163.728 187.165 163.901 188.576 163.965C190.047 164.031 191.636 163.986 193.095 163.902C194.56 163.818 195.936 163.693 196.987 163.59C197.538 163.536 197.933 163.495 198.288 163.46C198.686 163.422 198.778 163.419 198.736 163.419V158.419C198.477 158.419 198.092 158.456 197.807 158.484C197.479 158.515 196.985 158.566 196.499 158.613C195.474 158.714 194.175 158.832 192.808 158.911C191.435 158.989 190.034 159.025 188.801 158.97C187.509 158.912 186.634 158.76 186.181 158.585L184.385 163.252ZM198.736 163.419C198.705 163.419 198.775 163.419 199.016 163.444C199.225 163.464 199.494 163.496 199.809 163.535C200.439 163.614 201.209 163.72 201.963 163.827C202.715 163.934 203.441 164.042 203.98 164.123C204.249 164.163 204.471 164.197 204.625 164.22C204.703 164.232 204.763 164.241 204.804 164.247C204.824 164.25 204.84 164.253 204.85 164.254C204.855 164.255 204.859 164.256 204.862 164.256C204.863 164.256 204.864 164.256 204.865 164.257C204.865 164.257 204.865 164.257 204.865 164.257C204.865 164.257 204.865 164.257 204.866 164.257C204.866 164.257 204.866 164.257 205.245 161.786C205.625 159.315 205.625 159.315 205.625 159.315C205.625 159.315 205.625 159.315 205.625 159.315C205.624 159.315 205.624 159.315 205.624 159.315C205.623 159.314 205.622 159.314 205.62 159.314C205.618 159.314 205.613 159.313 205.608 159.312C205.597 159.31 205.581 159.308 205.56 159.305C205.517 159.298 205.456 159.289 205.377 159.277C205.219 159.253 204.994 159.219 204.721 159.178C204.175 159.096 203.436 158.987 202.669 158.877C201.904 158.768 201.101 158.657 200.429 158.573C199.837 158.5 199.144 158.419 198.736 158.419V163.419ZM205.245 161.786C205.245 164.286 205.245 164.286 205.246 164.286C205.246 164.286 205.246 164.286 205.246 164.286C205.247 164.286 205.247 164.286 205.248 164.286C205.249 164.286 205.251 164.286 205.252 164.286C205.256 164.286 205.261 164.286 205.268 164.286C205.281 164.286 205.299 164.286 205.322 164.285C205.369 164.285 205.436 164.285 205.521 164.284C205.693 164.282 205.939 164.279 206.245 164.271C206.857 164.257 207.713 164.229 208.697 164.173C210.633 164.063 213.181 163.837 215.334 163.359L214.251 158.478C212.499 158.867 210.273 159.075 208.412 159.181C207.497 159.234 206.698 159.26 206.13 159.273C205.847 159.279 205.622 159.283 205.469 159.284C205.393 159.285 205.335 159.285 205.297 159.286C205.278 159.286 205.264 159.286 205.255 159.286C205.251 159.286 205.248 159.286 205.246 159.286C205.245 159.286 205.245 159.286 205.245 159.286C205.245 159.286 205.245 159.286 205.245 159.286C205.245 159.286 205.245 159.286 205.245 159.286C205.245 159.286 205.245 159.286 205.245 161.786ZM216.178 163C215.962 163.144 215.848 163.152 215.97 163.121C216.056 163.099 216.239 163.063 216.535 163.046C217.123 163.011 218.082 163.054 219.458 163.359L220.542 158.478C218.794 158.09 217.366 157.988 216.24 158.055C215.224 158.115 214.173 158.328 213.407 158.838L216.178 163ZM219.458 163.359C223.834 164.331 227.688 163.84 230.037 163.37L229.057 158.467C227.067 158.865 223.977 159.241 220.542 158.478L219.458 163.359ZM230.037 163.37C230.035 163.371 230.044 163.369 230.065 163.366C230.087 163.363 230.116 163.359 230.156 163.356C230.236 163.348 230.341 163.342 230.474 163.337C230.741 163.329 231.078 163.331 231.479 163.345C232.281 163.374 233.256 163.448 234.298 163.548C236.377 163.749 238.611 164.046 240.026 164.258L240.767 159.313C239.289 159.092 236.966 158.782 234.778 158.571C233.686 158.466 232.6 158.382 231.657 158.349C230.787 158.317 229.808 158.317 229.057 158.467L230.037 163.37ZM156.579 162.656C157.767 161.978 158.564 161.087 159.055 160.056C159.505 159.111 159.635 158.159 159.715 157.572C159.899 156.223 159.958 156.223 160.197 156.064L157.426 151.902C155.06 153.477 154.902 155.861 154.761 156.896C154.679 157.501 154.619 157.741 154.54 157.907C154.502 157.987 154.431 158.125 154.101 158.314L156.579 162.656ZM160.197 156.064C160.571 155.814 161.09 155.779 162.663 156.02C163.287 156.116 164.237 156.277 165.147 156.237C166.146 156.192 167.372 155.901 168.389 154.885L164.856 151.347C165.006 151.197 165.147 151.232 164.925 151.242C164.615 151.255 164.208 151.199 163.422 151.078C162.174 150.887 159.655 150.417 157.426 151.902L160.197 156.064ZM168.389 154.885C169.467 153.808 169.717 152.51 169.588 151.377C169.482 150.447 169.101 149.53 168.896 149.007C168.362 147.642 168.293 147.184 168.487 146.732L163.892 144.761C162.783 147.344 163.799 149.704 164.241 150.831C164.524 151.554 164.604 151.802 164.62 151.943C164.622 151.961 164.608 151.86 164.657 151.7C164.71 151.524 164.801 151.402 164.856 151.347L168.389 154.885ZM168.487 146.732C168.385 146.969 168.106 147.029 168.245 147.005C168.584 146.947 169.029 146.983 169.977 147.049C170.635 147.094 172.004 147.211 173.197 146.711C173.909 146.413 174.59 145.893 175.055 145.085C175.495 144.319 175.632 143.484 175.632 142.712H170.632C170.632 142.916 170.594 142.812 170.72 142.592C170.872 142.328 171.102 142.168 171.264 142.1C171.358 142.06 171.236 142.123 170.321 142.06C169.696 142.017 168.486 141.891 167.401 142.077C166.116 142.297 164.644 143.007 163.892 144.761L168.487 146.732ZM175.632 142.712C175.632 139.54 173.658 137.977 172.838 137.206C172.381 136.776 172.346 136.675 172.347 136.677C172.389 136.785 172.276 136.704 172.466 136.134L167.723 134.551C167.262 135.932 167.203 137.26 167.694 138.507C168.142 139.646 168.948 140.412 169.413 140.849C170.437 141.812 170.632 141.983 170.632 142.712H175.632ZM128.285 74.9823C139.336 75.6414 147.65 77.3079 154.356 80.1803L156.324 75.5842C148.893 72.4007 139.949 70.669 128.583 69.9912L128.285 74.9823ZM154.216 75.6494C151.794 76.8689 146.926 80.8632 143.923 87.9883L148.53 89.9304C151.082 83.8774 155.125 80.7894 156.464 80.1151L154.216 75.6494ZM154.356 80.1803C161.127 83.0807 166.387 87.2663 171.199 93.1361L175.066 89.9663C169.813 83.5589 163.926 78.8406 156.324 75.5842L154.356 80.1803ZM171.199 93.1361C173.947 96.4881 176.556 100.399 179.219 104.959L183.536 102.437C180.79 97.7347 178.033 93.5861 175.066 89.9663L171.199 93.1361ZM171.351 89.7968L162.672 98.6088L166.234 102.117L174.914 93.3055L171.351 89.7968ZM96.5703 83.0483C86.6432 90.3933 82.5446 100.216 81.7149 104.526L86.6247 105.471C87.2415 102.267 90.7231 93.5944 99.5442 87.0677L96.5703 83.0483ZM179.966 153.714C181.925 152.037 183.535 149.329 184.547 146.474C185.569 143.592 186.101 140.227 185.579 137.099L180.647 137.922C180.993 139.995 180.657 142.482 179.835 144.803C179.003 147.15 177.792 148.993 176.714 149.916L179.966 153.714ZM78.2306 92.2736C76.9275 94.096 75.6379 97 74.6785 100.056C73.7111 103.137 72.9906 106.653 72.9906 109.767H77.9906C77.9906 107.332 78.5719 104.346 79.4489 101.553C80.3338 98.7352 81.431 96.394 82.2977 95.1819L78.2306 92.2736ZM124.097 170.16C117.91 171.245 113.108 172.148 109.554 172.963C106.123 173.75 103.494 174.526 101.949 175.482C101.215 175.936 100.075 176.823 99.8696 178.342C99.6544 179.935 100.606 181.07 101.217 181.642C101.887 182.268 102.773 182.814 103.689 183.303C104.635 183.809 105.771 184.334 107.042 184.886L109.034 180.3C107.81 179.769 106.816 179.305 106.044 178.893C105.24 178.464 104.818 178.163 104.633 177.991C104.39 177.763 104.941 178.146 104.825 179.011C104.718 179.802 104.175 179.984 104.579 179.734C105.312 179.281 107.132 178.648 110.672 177.837C114.088 177.053 118.779 176.169 124.96 175.085L124.097 170.16ZM107.042 184.886C112.114 187.089 115.044 187.99 118.366 188.178C119.966 188.268 121.603 188.191 123.506 188.076C125.434 187.959 127.695 187.8 130.693 187.693L130.515 182.696C127.437 182.806 125.088 182.971 123.205 183.085C121.297 183.2 119.924 183.258 118.648 183.186C116.221 183.049 113.943 182.432 109.034 180.3L107.042 184.886ZM130.693 187.693C136.805 187.475 144.329 186.928 149.775 185.918C152.394 185.433 154.932 184.775 156.525 183.777C157.278 183.305 158.475 182.351 158.634 180.733C158.801 179.041 157.729 177.849 156.922 177.19L153.758 181.061C154.144 181.377 153.575 181.092 153.658 180.244C153.734 179.469 154.263 179.294 153.87 179.54C153.172 179.978 151.506 180.512 148.863 181.002C143.785 181.943 136.554 182.48 130.515 182.696L130.693 187.693ZM156.922 177.19C151.991 173.16 147.09 170.123 140.151 170.123V175.123C145.362 175.123 149.141 177.288 153.758 181.061L156.922 177.19ZM140.151 170.123C140.139 170.123 140.127 170.123 140.115 170.123C140.104 170.123 140.092 170.123 140.08 170.123C140.068 170.123 140.056 170.123 140.044 170.123C140.033 170.123 140.021 170.123 140.009 170.123C139.997 170.123 139.986 170.123 139.974 170.123C139.962 170.123 139.95 170.123 139.939 170.123C139.927 170.123 139.915 170.123 139.903 170.123C139.892 170.123 139.88 170.123 139.868 170.123C139.857 170.123 139.845 170.123 139.833 170.123C139.822 170.123 139.81 170.123 139.798 170.123C139.787 170.123 139.775 170.123 139.764 170.123C139.752 170.123 139.74 170.123 139.729 170.123C139.717 170.123 139.706 170.123 139.694 170.123C139.682 170.123 139.671 170.123 139.659 170.123C139.648 170.123 139.636 170.123 139.625 170.123C139.613 170.123 139.602 170.123 139.59 170.123C139.579 170.123 139.567 170.123 139.556 170.123C139.544 170.123 139.533 170.123 139.521 170.123C139.51 170.123 139.498 170.123 139.487 170.123C139.475 170.123 139.464 170.123 139.452 170.123C139.441 170.123 139.43 170.123 139.418 170.123C139.407 170.123 139.395 170.123 139.384 170.123C139.373 170.123 139.361 170.123 139.35 170.123C139.339 170.123 139.327 170.123 139.316 170.123C139.305 170.123 139.293 170.123 139.282 170.123C139.271 170.123 139.259 170.123 139.248 170.123C139.237 170.123 139.225 170.123 139.214 170.123C139.203 170.123 139.192 170.123 139.18 170.123C139.169 170.123 139.158 170.123 139.147 170.123C139.135 170.123 139.124 170.123 139.113 170.123C139.102 170.123 139.091 170.123 139.079 170.123C139.068 170.123 139.057 170.123 139.046 170.123C139.035 170.123 139.023 170.123 139.012 170.123C139.001 170.123 138.99 170.123 138.979 170.123C138.968 170.123 138.957 170.123 138.946 170.123C138.934 170.123 138.923 170.123 138.912 170.123C138.901 170.123 138.89 170.123 138.879 170.123C138.868 170.123 138.857 170.123 138.846 170.123C138.835 170.123 138.824 170.123 138.813 170.123C138.802 170.123 138.791 170.123 138.78 170.123C138.769 170.123 138.758 170.123 138.747 170.123C138.736 170.123 138.725 170.123 138.714 170.123C138.703 170.123 138.692 170.123 138.681 170.123C138.67 170.123 138.659 170.123 138.648 170.123C138.637 170.123 138.626 170.123 138.615 170.123C138.604 170.123 138.593 170.123 138.582 170.123C138.571 170.123 138.56 170.123 138.55 170.123C138.539 170.123 138.528 170.123 138.517 170.123C138.506 170.123 138.495 170.123 138.484 170.123C138.474 170.123 138.463 170.123 138.452 170.123C138.441 170.123 138.43 170.123 138.419 170.123C138.409 170.123 138.398 170.123 138.387 170.123C138.376 170.123 138.365 170.123 138.355 170.123C138.344 170.123 138.333 170.123 138.322 170.123C138.312 170.123 138.301 170.123 138.29 170.123C138.279 170.123 138.269 170.123 138.258 170.123C138.247 170.123 138.237 170.123 138.226 170.123C138.215 170.123 138.204 170.123 138.194 170.123C138.183 170.123 138.172 170.123 138.162 170.123C138.151 170.123 138.14 170.123 138.13 170.123C138.119 170.123 138.108 170.123 138.098 170.123C138.087 170.123 138.077 170.123 138.066 170.123C138.055 170.123 138.045 170.123 138.034 170.123C138.024 170.123 138.013 170.123 138.002 170.123C137.992 170.123 137.981 170.123 137.971 170.123C137.96 170.123 137.95 170.123 137.939 170.123C137.928 170.123 137.918 170.123 137.907 170.123C137.897 170.123 137.886 170.123 137.876 170.123C137.865 170.123 137.855 170.123 137.844 170.123C137.834 170.123 137.823 170.123 137.813 170.123C137.802 170.123 137.792 170.123 137.781 170.123C137.771 170.123 137.76 170.123 137.75 170.123C137.74 170.123 137.729 170.123 137.719 170.123C137.708 170.123 137.698 170.123 137.687 170.123C137.677 170.123 137.667 170.123 137.656 170.123C137.646 170.123 137.635 170.123 137.625 170.123C137.615 170.123 137.604 170.123 137.594 170.123C137.584 170.123 137.573 170.123 137.563 170.123C137.552 170.123 137.542 170.123 137.532 170.123C137.521 170.123 137.511 170.123 137.501 170.123C137.49 170.123 137.48 170.123 137.47 170.123C137.46 170.123 137.449 170.123 137.439 170.123C137.429 170.123 137.418 170.123 137.408 170.123C137.398 170.123 137.388 170.123 137.377 170.123C137.367 170.123 137.357 170.123 137.347 170.123C137.336 170.123 137.326 170.123 137.316 170.123C137.306 170.123 137.295 170.123 137.285 170.123C137.275 170.123 137.265 170.123 137.254 170.123C137.244 170.123 137.234 170.123 137.224 170.123C137.214 170.123 137.204 170.123 137.193 170.123C137.183 170.123 137.173 170.123 137.163 170.123C137.153 170.123 137.143 170.123 137.132 170.123C137.122 170.123 137.112 170.123 137.102 170.123C137.092 170.123 137.082 170.123 137.072 170.123C137.062 170.123 137.051 170.123 137.041 170.123C137.031 170.123 137.021 170.123 137.011 170.123C137.001 170.123 136.991 170.123 136.981 170.123C136.971 170.123 136.961 170.123 136.951 170.123C136.941 170.123 136.93 170.123 136.92 170.123C136.91 170.123 136.9 170.123 136.89 170.123C136.88 170.123 136.87 170.123 136.86 170.123C136.85 170.123 136.84 170.123 136.83 170.123C136.82 170.123 136.81 170.123 136.8 170.123C136.79 170.123 136.78 170.123 136.77 170.123C136.76 170.123 136.75 170.123 136.74 170.123C136.73 170.123 136.72 170.123 136.71 170.123C136.7 170.123 136.691 170.123 136.681 170.123C136.671 170.123 136.661 170.123 136.651 170.123C136.641 170.123 136.631 170.123 136.621 170.123C136.611 170.123 136.601 170.123 136.591 170.123C136.581 170.123 136.571 170.123 136.562 170.123C136.552 170.123 136.542 170.123 136.532 170.123C136.522 170.123 136.512 170.123 136.502 170.123C136.492 170.123 136.483 170.123 136.473 170.123C136.463 170.123 136.453 170.123 136.443 170.123C136.433 170.123 136.424 170.123 136.414 170.123C136.404 170.123 136.394 170.123 136.384 170.123C136.374 170.123 136.365 170.123 136.355 170.123C136.345 170.123 136.335 170.123 136.325 170.123C136.316 170.123 136.306 170.123 136.296 170.123C136.286 170.123 136.276 170.123 136.267 170.123C136.257 170.123 136.247 170.123 136.237 170.123C136.228 170.123 136.218 170.123 136.208 170.123C136.198 170.123 136.189 170.123 136.179 170.123C136.169 170.123 136.159 170.123 136.15 170.123C136.14 170.123 136.13 170.123 136.121 170.123C136.111 170.123 136.101 170.123 136.091 170.123C136.082 170.123 136.072 170.123 136.062 170.123C136.053 170.123 136.043 170.123 136.033 170.123C136.024 170.123 136.014 170.123 136.004 170.123C135.995 170.123 135.985 170.123 135.975 170.123C135.966 170.123 135.956 170.123 135.946 170.123C135.937 170.123 135.927 170.123 135.917 170.123C135.908 170.123 135.898 170.123 135.888 170.123C135.879 170.123 135.869 170.123 135.86 170.123C135.85 170.123 135.84 170.123 135.831 170.123C135.821 170.123 135.811 170.123 135.802 170.123C135.792 170.123 135.783 170.123 135.773 170.123C135.763 170.123 135.754 170.123 135.744 170.123C135.735 170.123 135.725 170.123 135.716 170.123C135.706 170.123 135.696 170.123 135.687 170.123C135.677 170.123 135.668 170.123 135.658 170.123C135.649 170.123 135.639 170.123 135.63 170.123C135.62 170.123 135.61 170.123 135.601 170.123C135.591 170.123 135.582 170.123 135.572 170.123C135.563 170.123 135.553 170.123 135.544 170.123C135.534 170.123 135.525 170.123 135.515 170.123C135.506 170.123 135.496 170.123 135.487 170.123C135.477 170.123 135.468 170.123 135.458 170.123C135.449 170.123 135.439 170.123 135.43 170.123C135.42 170.123 135.411 170.123 135.401 170.123C135.392 170.123 135.382 170.123 135.373 170.123C135.364 170.123 135.354 170.123 135.345 170.123C135.335 170.123 135.326 170.123 135.316 170.123C135.307 170.123 135.297 170.123 135.288 170.123C135.278 170.123 135.269 170.123 135.26 170.123C135.25 170.123 135.241 170.123 135.231 170.123C135.222 170.123 135.213 170.123 135.203 170.123C135.194 170.123 135.184 170.123 135.175 170.123C135.165 170.123 135.156 170.123 135.147 170.123C135.137 170.123 135.128 170.123 135.118 170.123C135.109 170.123 135.1 170.123 135.09 170.123C135.081 170.123 135.072 170.123 135.062 170.123C135.053 170.123 135.043 170.123 135.034 170.123C135.025 170.123 135.015 170.123 135.006 170.123C134.997 170.123 134.987 170.123 134.978 170.123C134.969 170.123 134.959 170.123 134.95 170.123C134.94 170.123 134.931 170.123 134.922 170.123C134.912 170.123 134.903 170.123 134.894 170.123C134.884 170.123 134.875 170.123 134.866 170.123C134.856 170.123 134.847 170.123 134.838 170.123C134.828 170.123 134.819 170.123 134.81 170.123C134.801 170.123 134.791 170.123 134.782 170.123C134.773 170.123 134.763 170.123 134.754 170.123C134.745 170.123 134.735 170.123 134.726 170.123C134.717 170.123 134.708 170.123 134.698 170.123C134.689 170.123 134.68 170.123 134.67 170.123C134.661 170.123 134.652 170.123 134.643 170.123C134.633 170.123 134.624 170.123 134.615 170.123C134.605 170.123 134.596 170.123 134.587 170.123C134.578 170.123 134.568 170.123 134.559 170.123C134.55 170.123 134.541 170.123 134.531 170.123C134.522 170.123 134.513 170.123 134.504 170.123C134.494 170.123 134.485 170.123 134.476 170.123C134.467 170.123 134.457 170.123 134.448 170.123C134.439 170.123 134.43 170.123 134.42 170.123C134.411 170.123 134.402 170.123 134.393 170.123C134.384 170.123 134.374 170.123 134.365 170.123C134.356 170.123 134.347 170.123 134.337 170.123C134.328 170.123 134.319 170.123 134.31 170.123C134.301 170.123 134.291 170.123 134.282 170.123C134.273 170.123 134.264 170.123 134.255 170.123C134.245 170.123 134.236 170.123 134.227 170.123C134.218 170.123 134.209 170.123 134.199 170.123C134.19 170.123 134.181 170.123 134.172 170.123C134.163 170.123 134.153 170.123 134.144 170.123C134.135 170.123 134.126 170.123 134.117 170.123C134.107 170.123 134.098 170.123 134.089 170.123C134.08 170.123 134.071 170.123 134.062 170.123C134.052 170.123 134.043 170.123 134.034 170.123C134.025 170.123 134.016 170.123 134.007 170.123C133.997 170.123 133.988 170.123 133.979 170.123C133.97 170.123 133.961 170.123 133.952 170.123C133.942 170.123 133.933 170.123 133.924 170.123C133.915 170.123 133.906 170.123 133.897 170.123C133.887 170.123 133.878 170.123 133.869 170.123C133.86 170.123 133.851 170.123 133.842 170.123C133.833 170.123 133.823 170.123 133.814 170.123C133.805 170.123 133.796 170.123 133.787 170.123C133.778 170.123 133.769 170.123 133.759 170.123C133.75 170.123 133.741 170.123 133.732 170.123C133.723 170.123 133.714 170.123 133.705 170.123C133.696 170.123 133.686 170.123 133.677 170.123C133.668 170.123 133.659 170.123 133.65 170.123C133.641 170.123 133.632 170.123 133.622 170.123C133.613 170.123 133.604 170.123 133.595 170.123C133.586 170.123 133.577 170.123 133.568 170.123C133.559 170.123 133.55 170.123 133.54 170.123C133.531 170.123 133.522 170.123 133.513 170.123C133.504 170.123 133.495 170.123 133.486 170.123C133.477 170.123 133.467 170.123 133.458 170.123C133.449 170.123 133.44 170.123 133.431 170.123C133.422 170.123 133.413 170.123 133.404 170.123C133.395 170.123 133.385 170.123 133.376 170.123C133.367 170.123 133.358 170.123 133.349 170.123C133.34 170.123 133.331 170.123 133.322 170.123C133.313 170.123 133.304 170.123 133.294 170.123C133.285 170.123 133.276 170.123 133.267 170.123C133.258 170.123 133.249 170.123 133.24 170.123C133.231 170.123 133.222 170.123 133.212 170.123C133.203 170.123 133.194 170.123 133.185 170.123C133.176 170.123 133.167 170.123 133.158 170.123C133.149 170.123 133.14 170.123 133.131 170.123C133.122 170.123 133.112 170.123 133.103 170.123C133.094 170.123 133.085 170.123 133.076 170.123C133.067 170.123 133.058 170.123 133.049 170.123C133.04 170.123 133.031 170.123 133.021 170.123C133.012 170.123 133.003 170.123 132.994 170.123C132.985 170.123 132.976 170.123 132.967 170.123C132.958 170.123 132.949 170.123 132.94 170.123C132.93 170.123 132.921 170.123 132.912 170.123C132.903 170.123 132.894 170.123 132.885 170.123C132.876 170.123 132.867 170.123 132.858 170.123C132.849 170.123 132.839 170.123 132.83 170.123C132.821 170.123 132.812 170.123 132.803 170.123C132.794 170.123 132.785 170.123 132.776 170.123C132.767 170.123 132.758 170.123 132.748 170.123C132.739 170.123 132.73 170.123 132.721 170.123C132.712 170.123 132.703 170.123 132.694 170.123C132.685 170.123 132.676 170.123 132.667 170.123C132.657 170.123 132.648 170.123 132.639 170.123C132.63 170.123 132.621 170.123 132.612 170.123C132.603 170.123 132.594 170.123 132.585 170.123C132.576 170.123 132.566 170.123 132.557 170.123C132.548 170.123 132.539 170.123 132.53 170.123C132.521 170.123 132.512 170.123 132.503 170.123C132.494 170.123 132.484 170.123 132.475 170.123C132.466 170.123 132.457 170.123 132.448 170.123C132.439 170.123 132.43 170.123 132.421 170.123C132.412 170.123 132.402 170.123 132.393 170.123C132.384 170.123 132.375 170.123 132.366 170.123C132.357 170.123 132.348 170.123 132.339 170.123C132.329 170.123 132.32 170.123 132.311 170.123C132.302 170.123 132.293 170.123 132.284 170.123C132.275 170.123 132.266 170.123 132.256 170.123C132.247 170.123 132.238 170.123 132.229 170.123C132.22 170.123 132.211 170.123 132.202 170.123C132.193 170.123 132.183 170.123 132.174 170.123C132.165 170.123 132.156 170.123 132.147 170.123C132.138 170.123 132.129 170.123 132.119 170.123C132.11 170.123 132.101 170.123 132.092 170.123C132.083 170.123 132.074 170.123 132.065 170.123C132.055 170.123 132.046 170.123 132.037 170.123C132.028 170.123 132.019 170.123 132.01 170.123C132 170.123 131.991 170.123 131.982 170.123C131.973 170.123 131.964 170.123 131.955 170.123C131.945 170.123 131.936 170.123 131.927 170.123C131.918 170.123 131.909 170.123 131.9 170.123C131.89 170.123 131.881 170.123 131.872 170.123C131.863 170.123 131.854 170.123 131.845 170.123C131.835 170.123 131.826 170.123 131.817 170.123C131.808 170.123 131.799 170.123 131.789 170.123C131.78 170.123 131.771 170.123 131.762 170.123C131.753 170.123 131.744 170.123 131.734 170.123C131.725 170.123 131.716 170.123 131.707 170.123C131.698 170.123 131.688 170.123 131.679 170.123C131.67 170.123 131.661 170.123 131.652 170.123C131.642 170.123 131.633 170.123 131.624 170.123C131.615 170.123 131.605 170.123 131.596 170.123C131.587 170.123 131.578 170.123 131.569 170.123C131.559 170.123 131.55 170.123 131.541 170.123C131.532 170.123 131.522 170.123 131.513 170.123C131.504 170.123 131.495 170.123 131.485 170.123C131.476 170.123 131.467 170.123 131.458 170.123C131.449 170.123 131.439 170.123 131.43 170.123C131.421 170.123 131.412 170.123 131.402 170.123C131.393 170.123 131.384 170.123 131.374 170.123C131.365 170.123 131.356 170.123 131.347 170.123C131.337 170.123 131.328 170.123 131.319 170.123C131.31 170.123 131.3 170.123 131.291 170.123C131.282 170.123 131.273 170.123 131.263 170.123C131.254 170.123 131.245 170.123 131.235 170.123C131.226 170.123 131.217 170.123 131.207 170.123C131.198 170.123 131.189 170.123 131.18 170.123C131.17 170.123 131.161 170.123 131.152 170.123C131.142 170.123 131.133 170.123 131.124 170.123C131.114 170.123 131.105 170.123 131.096 170.123C131.086 170.123 131.077 170.123 131.068 170.123C131.058 170.123 131.049 170.123 131.04 170.123C131.03 170.123 131.021 170.123 131.012 170.123C131.002 170.123 130.993 170.123 130.984 170.123C130.974 170.123 130.965 170.123 130.956 170.123C130.946 170.123 130.937 170.123 130.928 170.123C130.918 170.123 130.909 170.123 130.9 170.123C130.89 170.123 130.881 170.123 130.871 170.123C130.862 170.123 130.853 170.123 130.843 170.123C130.834 170.123 130.824 170.123 130.815 170.123C130.806 170.123 130.796 170.123 130.787 170.123C130.778 170.123 130.768 170.123 130.759 170.123C130.749 170.123 130.74 170.123 130.73 170.123C130.721 170.123 130.712 170.123 130.702 170.123C130.693 170.123 130.683 170.123 130.674 170.123C130.664 170.123 130.655 170.123 130.646 170.123C130.636 170.123 130.627 170.123 130.617 170.123C130.608 170.123 130.598 170.123 130.589 170.123C130.579 170.123 130.57 170.123 130.561 170.123C130.551 170.123 130.542 170.123 130.532 170.123C130.523 170.123 130.513 170.123 130.504 170.123C130.494 170.123 130.485 170.123 130.475 170.123C130.466 170.123 130.456 170.123 130.447 170.123C130.437 170.123 130.428 170.123 130.418 170.123C130.409 170.123 130.399 170.123 130.39 170.123C130.38 170.123 130.371 170.123 130.361 170.123C130.352 170.123 130.342 170.123 130.333 170.123C130.323 170.123 130.313 170.123 130.304 170.123C130.294 170.123 130.285 170.123 130.275 170.123C130.266 170.123 130.256 170.123 130.247 170.123C130.237 170.123 130.227 170.123 130.218 170.123C130.208 170.123 130.199 170.123 130.189 170.123C130.18 170.123 130.17 170.123 130.16 170.123C130.151 170.123 130.141 170.123 130.132 170.123C130.122 170.123 130.112 170.123 130.103 170.123C130.093 170.123 130.084 170.123 130.074 170.123C130.064 170.123 130.055 170.123 130.045 170.123C130.035 170.123 130.026 170.123 130.016 170.123C130.007 170.123 129.997 170.123 129.987 170.123C129.978 170.123 129.968 170.123 129.958 170.123C129.949 170.123 129.939 170.123 129.929 170.123C129.92 170.123 129.91 170.123 129.9 170.123C129.891 170.123 129.881 170.123 129.871 170.123C129.861 170.123 129.852 170.123 129.842 170.123C129.832 170.123 129.823 170.123 129.813 170.123C129.803 170.123 129.793 170.123 129.784 170.123C129.774 170.123 129.764 170.123 129.755 170.123C129.745 170.123 129.735 170.123 129.725 170.123C129.716 170.123 129.706 170.123 129.696 170.123C129.686 170.123 129.676 170.123 129.667 170.123C129.657 170.123 129.647 170.123 129.637 170.123C129.628 170.123 129.618 170.123 129.608 170.123C129.598 170.123 129.588 170.123 129.579 170.123C129.569 170.123 129.559 170.123 129.549 170.123C129.539 170.123 129.53 170.123 129.52 170.123C129.51 170.123 129.5 170.123 129.49 170.123C129.48 170.123 129.47 170.123 129.461 170.123C129.451 170.123 129.441 170.123 129.431 170.123C129.421 170.123 129.411 170.123 129.401 170.123C129.392 170.123 129.382 170.123 129.372 170.123C129.362 170.123 129.352 170.123 129.342 170.123C129.332 170.123 129.322 170.123 129.312 170.123C129.302 170.123 129.292 170.123 129.283 170.123C129.273 170.123 129.263 170.123 129.253 170.123C129.243 170.123 129.233 170.123 129.223 170.123C129.213 170.123 129.203 170.123 129.193 170.123C129.183 170.123 129.173 170.123 129.163 170.123C129.153 170.123 129.143 170.123 129.133 170.123C129.123 170.123 129.113 170.123 129.103 170.123C129.093 170.123 129.083 170.123 129.073 170.123C129.063 170.123 129.053 170.123 129.043 170.123C129.033 170.123 129.023 170.123 129.013 170.123C129.003 170.123 128.993 170.123 128.983 170.123C128.973 170.123 128.963 170.123 128.952 170.123C128.942 170.123 128.932 170.123 128.922 170.123C128.912 170.123 128.902 170.123 128.892 170.123C128.882 170.123 128.872 170.123 128.862 170.123C128.851 170.123 128.841 170.123 128.831 170.123C128.821 170.123 128.811 170.123 128.801 170.123C128.791 170.123 128.781 170.123 128.77 170.123C128.76 170.123 128.75 170.123 128.74 170.123C128.73 170.123 128.719 170.123 128.709 170.123C128.699 170.123 128.689 170.123 128.679 170.123C128.668 170.123 128.658 170.123 128.648 170.123C128.638 170.123 128.628 170.123 128.617 170.123C128.607 170.123 128.597 170.123 128.587 170.123C128.576 170.123 128.566 170.123 128.556 170.123C128.546 170.123 128.535 170.123 128.525 170.123C128.515 170.123 128.505 170.123 128.494 170.123C128.484 170.123 128.474 170.123 128.463 170.123C128.453 170.123 128.443 170.123 128.432 170.123C128.422 170.123 128.412 170.123 128.401 170.123C128.391 170.123 128.381 170.123 128.37 170.123C128.36 170.123 128.35 170.123 128.339 170.123C128.329 170.123 128.318 170.123 128.308 170.123C128.298 170.123 128.287 170.123 128.277 170.123C128.267 170.123 128.256 170.123 128.246 170.123C128.235 170.123 128.225 170.123 128.214 170.123C128.204 170.123 128.194 170.123 128.183 170.123C128.173 170.123 128.162 170.123 128.152 170.123C128.141 170.123 128.131 170.123 128.12 170.123C128.11 170.123 128.099 170.123 128.089 170.123C128.078 170.123 128.068 170.123 128.057 170.123C128.047 170.123 128.036 170.123 128.026 170.123C128.015 170.123 128.005 170.123 127.994 170.123C127.984 170.123 127.973 170.123 127.962 170.123C127.952 170.123 127.941 170.123 127.931 170.123C127.92 170.123 127.909 170.123 127.899 170.123C127.888 170.123 127.878 170.123 127.867 170.123C127.856 170.123 127.846 170.123 127.835 170.123C127.825 170.123 127.814 170.123 127.803 170.123C127.793 170.123 127.782 170.123 127.771 170.123C127.761 170.123 127.75 170.123 127.739 170.123C127.729 170.123 127.718 170.123 127.707 170.123C127.696 170.123 127.686 170.123 127.675 170.123C127.664 170.123 127.654 170.123 127.643 170.123C127.632 170.123 127.621 170.123 127.611 170.123C127.6 170.123 127.589 170.123 127.578 170.123C127.567 170.123 127.557 170.123 127.546 170.123C127.535 170.123 127.524 170.123 127.513 170.123C127.503 170.123 127.492 170.123 127.481 170.123C127.47 170.123 127.459 170.123 127.449 170.123C127.438 170.123 127.427 170.123 127.416 170.123C127.405 170.123 127.394 170.123 127.383 170.123C127.372 170.123 127.362 170.123 127.351 170.123C127.34 170.123 127.329 170.123 127.318 170.123C127.307 170.123 127.296 170.123 127.285 170.123C127.274 170.123 127.263 170.123 127.252 170.123C127.241 170.123 127.23 170.123 127.219 170.123C127.208 170.123 127.197 170.123 127.186 170.123C127.175 170.123 127.164 170.123 127.153 170.123C127.142 170.123 127.131 170.123 127.12 170.123C127.109 170.123 127.098 170.123 127.087 170.123C127.076 170.123 127.065 170.123 127.054 170.123C127.043 170.123 127.032 170.123 127.021 170.123C127.009 170.123 126.998 170.123 126.987 170.123C126.976 170.123 126.965 170.123 126.954 170.123C126.943 170.123 126.932 170.123 126.92 170.123C126.909 170.123 126.898 170.123 126.887 170.123C126.876 170.123 126.865 170.123 126.853 170.123C126.842 170.123 126.831 170.123 126.82 170.123C126.809 170.123 126.797 170.123 126.786 170.123C126.775 170.123 126.764 170.123 126.752 170.123C126.741 170.123 126.73 170.123 126.719 170.123C126.707 170.123 126.696 170.123 126.685 170.123C126.673 170.123 126.662 170.123 126.651 170.123C126.639 170.123 126.628 170.123 126.617 170.123C126.605 170.123 126.594 170.123 126.583 170.123C126.571 170.123 126.56 170.123 126.549 170.123C126.537 170.123 126.526 170.123 126.514 170.123C126.503 170.123 126.492 170.123 126.48 170.123C126.469 170.123 126.457 170.123 126.446 170.123C126.434 170.123 126.423 170.123 126.411 170.123C126.4 170.123 126.389 170.123 126.377 170.123C126.366 170.123 126.354 170.123 126.343 170.123C126.331 170.123 126.319 170.123 126.308 170.123C126.296 170.123 126.285 170.123 126.273 170.123C126.262 170.123 126.25 170.123 126.239 170.123C126.227 170.123 126.215 170.123 126.204 170.123C126.192 170.123 126.181 170.123 126.169 170.123C126.157 170.123 126.146 170.123 126.134 170.123C126.123 170.123 126.111 170.123 126.099 170.123C126.088 170.123 126.076 170.123 126.064 170.123C126.052 170.123 126.041 170.123 126.029 170.123C126.017 170.123 126.006 170.123 125.994 170.123C125.982 170.123 125.97 170.123 125.959 170.123C125.947 170.123 125.935 170.123 125.923 170.123C125.912 170.123 125.9 170.123 125.888 170.123C125.876 170.123 125.864 170.123 125.853 170.123C125.841 170.123 125.829 170.123 125.817 170.123C125.805 170.123 125.793 170.123 125.781 170.123C125.77 170.123 125.758 170.123 125.746 170.123C125.734 170.123 125.722 170.123 125.71 170.123C125.698 170.123 125.686 170.123 125.674 170.123C125.662 170.123 125.65 170.123 125.638 170.123C125.627 170.123 125.615 170.123 125.603 170.123C125.591 170.123 125.579 170.123 125.567 170.123C125.555 170.123 125.543 170.123 125.531 170.123C125.518 170.123 125.506 170.123 125.494 170.123C125.482 170.123 125.47 170.123 125.458 170.123C125.446 170.123 125.434 170.123 125.422 170.123C125.41 170.123 125.398 170.123 125.386 170.123C125.373 170.123 125.361 170.123 125.349 170.123C125.337 170.123 125.325 170.123 125.313 170.123C125.3 170.123 125.288 170.123 125.276 170.123C125.264 170.123 125.252 170.123 125.239 170.123C125.227 170.123 125.215 170.123 125.203 170.123C125.19 170.123 125.178 170.123 125.166 170.123C125.154 170.123 125.141 170.123 125.129 170.123C125.117 170.123 125.104 170.123 125.092 170.123C125.08 170.123 125.067 170.123 125.055 170.123C125.043 170.123 125.03 170.123 125.018 170.123C125.006 170.123 124.993 170.123 124.981 170.123C124.968 170.123 124.956 170.123 124.943 170.123C124.931 170.123 124.919 170.123 124.906 170.123C124.894 170.123 124.881 170.123 124.869 170.123C124.856 170.123 124.844 170.123 124.831 170.123C124.819 170.123 124.806 170.123 124.794 170.123C124.781 170.123 124.769 170.123 124.756 170.123C124.744 170.123 124.731 170.123 124.718 170.123C124.706 170.123 124.693 170.123 124.681 170.123C124.668 170.123 124.655 170.123 124.643 170.123C124.63 170.123 124.617 170.123 124.605 170.123C124.592 170.123 124.579 170.123 124.567 170.123C124.554 170.123 124.541 170.123 124.529 170.123V175.123C124.541 175.123 124.554 175.123 124.567 175.123C124.579 175.123 124.592 175.123 124.605 175.123C124.617 175.123 124.63 175.123 124.643 175.123C124.655 175.123 124.668 175.123 124.681 175.123C124.693 175.123 124.706 175.123 124.718 175.123C124.731 175.123 124.744 175.123 124.756 175.123C124.769 175.123 124.781 175.123 124.794 175.123C124.806 175.123 124.819 175.123 124.831 175.123C124.844 175.123 124.856 175.123 124.869 175.123C124.881 175.123 124.894 175.123 124.906 175.123C124.919 175.123 124.931 175.123 124.943 175.123C124.956 175.123 124.968 175.123 124.981 175.123C124.993 175.123 125.006 175.123 125.018 175.123C125.03 175.123 125.043 175.123 125.055 175.123C125.067 175.123 125.08 175.123 125.092 175.123C125.104 175.123 125.117 175.123 125.129 175.123C125.141 175.123 125.154 175.123 125.166 175.123C125.178 175.123 125.19 175.123 125.203 175.123C125.215 175.123 125.227 175.123 125.239 175.123C125.252 175.123 125.264 175.123 125.276 175.123C125.288 175.123 125.3 175.123 125.313 175.123C125.325 175.123 125.337 175.123 125.349 175.123C125.361 175.123 125.373 175.123 125.386 175.123C125.398 175.123 125.41 175.123 125.422 175.123C125.434 175.123 125.446 175.123 125.458 175.123C125.47 175.123 125.482 175.123 125.494 175.123C125.506 175.123 125.518 175.123 125.531 175.123C125.543 175.123 125.555 175.123 125.567 175.123C125.579 175.123 125.591 175.123 125.603 175.123C125.615 175.123 125.627 175.123 125.638 175.123C125.65 175.123 125.662 175.123 125.674 175.123C125.686 175.123 125.698 175.123 125.71 175.123C125.722 175.123 125.734 175.123 125.746 175.123C125.758 175.123 125.77 175.123 125.781 175.123C125.793 175.123 125.805 175.123 125.817 175.123C125.829 175.123 125.841 175.123 125.853 175.123C125.864 175.123 125.876 175.123 125.888 175.123C125.9 175.123 125.912 175.123 125.923 175.123C125.935 175.123 125.947 175.123 125.959 175.123C125.97 175.123 125.982 175.123 125.994 175.123C126.006 175.123 126.017 175.123 126.029 175.123C126.041 175.123 126.052 175.123 126.064 175.123C126.076 175.123 126.088 175.123 126.099 175.123C126.111 175.123 126.123 175.123 126.134 175.123C126.146 175.123 126.157 175.123 126.169 175.123C126.181 175.123 126.192 175.123 126.204 175.123C126.215 175.123 126.227 175.123 126.239 175.123C126.25 175.123 126.262 175.123 126.273 175.123C126.285 175.123 126.296 175.123 126.308 175.123C126.319 175.123 126.331 175.123 126.343 175.123C126.354 175.123 126.366 175.123 126.377 175.123C126.389 175.123 126.4 175.123 126.411 175.123C126.423 175.123 126.434 175.123 126.446 175.123C126.457 175.123 126.469 175.123 126.48 175.123C126.492 175.123 126.503 175.123 126.514 175.123C126.526 175.123 126.537 175.123 126.549 175.123C126.56 175.123 126.571 175.123 126.583 175.123C126.594 175.123 126.605 175.123 126.617 175.123C126.628 175.123 126.639 175.123 126.651 175.123C126.662 175.123 126.673 175.123 126.685 175.123C126.696 175.123 126.707 175.123 126.719 175.123C126.73 175.123 126.741 175.123 126.752 175.123C126.764 175.123 126.775 175.123 126.786 175.123C126.797 175.123 126.809 175.123 126.82 175.123C126.831 175.123 126.842 175.123 126.853 175.123C126.865 175.123 126.876 175.123 126.887 175.123C126.898 175.123 126.909 175.123 126.92 175.123C126.932 175.123 126.943 175.123 126.954 175.123C126.965 175.123 126.976 175.123 126.987 175.123C126.998 175.123 127.009 175.123 127.021 175.123C127.032 175.123 127.043 175.123 127.054 175.123C127.065 175.123 127.076 175.123 127.087 175.123C127.098 175.123 127.109 175.123 127.12 175.123C127.131 175.123 127.142 175.123 127.153 175.123C127.164 175.123 127.175 175.123 127.186 175.123C127.197 175.123 127.208 175.123 127.219 175.123C127.23 175.123 127.241 175.123 127.252 175.123C127.263 175.123 127.274 175.123 127.285 175.123C127.296 175.123 127.307 175.123 127.318 175.123C127.329 175.123 127.34 175.123 127.351 175.123C127.362 175.123 127.372 175.123 127.383 175.123C127.394 175.123 127.405 175.123 127.416 175.123C127.427 175.123 127.438 175.123 127.449 175.123C127.459 175.123 127.47 175.123 127.481 175.123C127.492 175.123 127.503 175.123 127.513 175.123C127.524 175.123 127.535 175.123 127.546 175.123C127.557 175.123 127.567 175.123 127.578 175.123C127.589 175.123 127.6 175.123 127.611 175.123C127.621 175.123 127.632 175.123 127.643 175.123C127.654 175.123 127.664 175.123 127.675 175.123C127.686 175.123 127.696 175.123 127.707 175.123C127.718 175.123 127.729 175.123 127.739 175.123C127.75 175.123 127.761 175.123 127.771 175.123C127.782 175.123 127.793 175.123 127.803 175.123C127.814 175.123 127.825 175.123 127.835 175.123C127.846 175.123 127.856 175.123 127.867 175.123C127.878 175.123 127.888 175.123 127.899 175.123C127.909 175.123 127.92 175.123 127.931 175.123C127.941 175.123 127.952 175.123 127.962 175.123C127.973 175.123 127.984 175.123 127.994 175.123C128.005 175.123 128.015 175.123 128.026 175.123C128.036 175.123 128.047 175.123 128.057 175.123C128.068 175.123 128.078 175.123 128.089 175.123C128.099 175.123 128.11 175.123 128.12 175.123C128.131 175.123 128.141 175.123 128.152 175.123C128.162 175.123 128.173 175.123 128.183 175.123C128.194 175.123 128.204 175.123 128.214 175.123C128.225 175.123 128.235 175.123 128.246 175.123C128.256 175.123 128.267 175.123 128.277 175.123C128.287 175.123 128.298 175.123 128.308 175.123C128.318 175.123 128.329 175.123 128.339 175.123C128.35 175.123 128.36 175.123 128.37 175.123C128.381 175.123 128.391 175.123 128.401 175.123C128.412 175.123 128.422 175.123 128.432 175.123C128.443 175.123 128.453 175.123 128.463 175.123C128.474 175.123 128.484 175.123 128.494 175.123C128.505 175.123 128.515 175.123 128.525 175.123C128.535 175.123 128.546 175.123 128.556 175.123C128.566 175.123 128.576 175.123 128.587 175.123C128.597 175.123 128.607 175.123 128.617 175.123C128.628 175.123 128.638 175.123 128.648 175.123C128.658 175.123 128.668 175.123 128.679 175.123C128.689 175.123 128.699 175.123 128.709 175.123C128.719 175.123 128.73 175.123 128.74 175.123C128.75 175.123 128.76 175.123 128.77 175.123C128.781 175.123 128.791 175.123 128.801 175.123C128.811 175.123 128.821 175.123 128.831 175.123C128.841 175.123 128.851 175.123 128.862 175.123C128.872 175.123 128.882 175.123 128.892 175.123C128.902 175.123 128.912 175.123 128.922 175.123C128.932 175.123 128.942 175.123 128.952 175.123C128.963 175.123 128.973 175.123 128.983 175.123C128.993 175.123 129.003 175.123 129.013 175.123C129.023 175.123 129.033 175.123 129.043 175.123C129.053 175.123 129.063 175.123 129.073 175.123C129.083 175.123 129.093 175.123 129.103 175.123C129.113 175.123 129.123 175.123 129.133 175.123C129.143 175.123 129.153 175.123 129.163 175.123C129.173 175.123 129.183 175.123 129.193 175.123C129.203 175.123 129.213 175.123 129.223 175.123C129.233 175.123 129.243 175.123 129.253 175.123C129.263 175.123 129.273 175.123 129.283 175.123C129.292 175.123 129.302 175.123 129.312 175.123C129.322 175.123 129.332 175.123 129.342 175.123C129.352 175.123 129.362 175.123 129.372 175.123C129.382 175.123 129.392 175.123 129.401 175.123C129.411 175.123 129.421 175.123 129.431 175.123C129.441 175.123 129.451 175.123 129.461 175.123C129.47 175.123 129.48 175.123 129.49 175.123C129.5 175.123 129.51 175.123 129.52 175.123C129.53 175.123 129.539 175.123 129.549 175.123C129.559 175.123 129.569 175.123 129.579 175.123C129.588 175.123 129.598 175.123 129.608 175.123C129.618 175.123 129.628 175.123 129.637 175.123C129.647 175.123 129.657 175.123 129.667 175.123C129.676 175.123 129.686 175.123 129.696 175.123C129.706 175.123 129.716 175.123 129.725 175.123C129.735 175.123 129.745 175.123 129.755 175.123C129.764 175.123 129.774 175.123 129.784 175.123C129.793 175.123 129.803 175.123 129.813 175.123C129.823 175.123 129.832 175.123 129.842 175.123C129.852 175.123 129.861 175.123 129.871 175.123C129.881 175.123 129.891 175.123 129.9 175.123C129.91 175.123 129.92 175.123 129.929 175.123C129.939 175.123 129.949 175.123 129.958 175.123C129.968 175.123 129.978 175.123 129.987 175.123C129.997 175.123 130.007 175.123 130.016 175.123C130.026 175.123 130.035 175.123 130.045 175.123C130.055 175.123 130.064 175.123 130.074 175.123C130.084 175.123 130.093 175.123 130.103 175.123C130.112 175.123 130.122 175.123 130.132 175.123C130.141 175.123 130.151 175.123 130.16 175.123C130.17 175.123 130.18 175.123 130.189 175.123C130.199 175.123 130.208 175.123 130.218 175.123C130.227 175.123 130.237 175.123 130.247 175.123C130.256 175.123 130.266 175.123 130.275 175.123C130.285 175.123 130.294 175.123 130.304 175.123C130.313 175.123 130.323 175.123 130.333 175.123C130.342 175.123 130.352 175.123 130.361 175.123C130.371 175.123 130.38 175.123 130.39 175.123C130.399 175.123 130.409 175.123 130.418 175.123C130.428 175.123 130.437 175.123 130.447 175.123C130.456 175.123 130.466 175.123 130.475 175.123C130.485 175.123 130.494 175.123 130.504 175.123C130.513 175.123 130.523 175.123 130.532 175.123C130.542 175.123 130.551 175.123 130.561 175.123C130.57 175.123 130.579 175.123 130.589 175.123C130.598 175.123 130.608 175.123 130.617 175.123C130.627 175.123 130.636 175.123 130.646 175.123C130.655 175.123 130.664 175.123 130.674 175.123C130.683 175.123 130.693 175.123 130.702 175.123C130.712 175.123 130.721 175.123 130.73 175.123C130.74 175.123 130.749 175.123 130.759 175.123C130.768 175.123 130.778 175.123 130.787 175.123C130.796 175.123 130.806 175.123 130.815 175.123C130.824 175.123 130.834 175.123 130.843 175.123C130.853 175.123 130.862 175.123 130.871 175.123C130.881 175.123 130.89 175.123 130.9 175.123C130.909 175.123 130.918 175.123 130.928 175.123C130.937 175.123 130.946 175.123 130.956 175.123C130.965 175.123 130.974 175.123 130.984 175.123C130.993 175.123 131.002 175.123 131.012 175.123C131.021 175.123 131.03 175.123 131.04 175.123C131.049 175.123 131.058 175.123 131.068 175.123C131.077 175.123 131.086 175.123 131.096 175.123C131.105 175.123 131.114 175.123 131.124 175.123C131.133 175.123 131.142 175.123 131.152 175.123C131.161 175.123 131.17 175.123 131.18 175.123C131.189 175.123 131.198 175.123 131.207 175.123C131.217 175.123 131.226 175.123 131.235 175.123C131.245 175.123 131.254 175.123 131.263 175.123C131.273 175.123 131.282 175.123 131.291 175.123C131.3 175.123 131.31 175.123 131.319 175.123C131.328 175.123 131.337 175.123 131.347 175.123C131.356 175.123 131.365 175.123 131.374 175.123C131.384 175.123 131.393 175.123 131.402 175.123C131.412 175.123 131.421 175.123 131.43 175.123C131.439 175.123 131.449 175.123 131.458 175.123C131.467 175.123 131.476 175.123 131.485 175.123C131.495 175.123 131.504 175.123 131.513 175.123C131.522 175.123 131.532 175.123 131.541 175.123C131.55 175.123 131.559 175.123 131.569 175.123C131.578 175.123 131.587 175.123 131.596 175.123C131.605 175.123 131.615 175.123 131.624 175.123C131.633 175.123 131.642 175.123 131.652 175.123C131.661 175.123 131.67 175.123 131.679 175.123C131.688 175.123 131.698 175.123 131.707 175.123C131.716 175.123 131.725 175.123 131.734 175.123C131.744 175.123 131.753 175.123 131.762 175.123C131.771 175.123 131.78 175.123 131.789 175.123C131.799 175.123 131.808 175.123 131.817 175.123C131.826 175.123 131.835 175.123 131.845 175.123C131.854 175.123 131.863 175.123 131.872 175.123C131.881 175.123 131.89 175.123 131.9 175.123C131.909 175.123 131.918 175.123 131.927 175.123C131.936 175.123 131.945 175.123 131.955 175.123C131.964 175.123 131.973 175.123 131.982 175.123C131.991 175.123 132 175.123 132.01 175.123C132.019 175.123 132.028 175.123 132.037 175.123C132.046 175.123 132.055 175.123 132.065 175.123C132.074 175.123 132.083 175.123 132.092 175.123C132.101 175.123 132.11 175.123 132.119 175.123C132.129 175.123 132.138 175.123 132.147 175.123C132.156 175.123 132.165 175.123 132.174 175.123C132.183 175.123 132.193 175.123 132.202 175.123C132.211 175.123 132.22 175.123 132.229 175.123C132.238 175.123 132.247 175.123 132.256 175.123C132.266 175.123 132.275 175.123 132.284 175.123C132.293 175.123 132.302 175.123 132.311 175.123C132.32 175.123 132.329 175.123 132.339 175.123C132.348 175.123 132.357 175.123 132.366 175.123C132.375 175.123 132.384 175.123 132.393 175.123C132.402 175.123 132.412 175.123 132.421 175.123C132.43 175.123 132.439 175.123 132.448 175.123C132.457 175.123 132.466 175.123 132.475 175.123C132.484 175.123 132.494 175.123 132.503 175.123C132.512 175.123 132.521 175.123 132.53 175.123C132.539 175.123 132.548 175.123 132.557 175.123C132.566 175.123 132.576 175.123 132.585 175.123C132.594 175.123 132.603 175.123 132.612 175.123C132.621 175.123 132.63 175.123 132.639 175.123C132.648 175.123 132.657 175.123 132.667 175.123C132.676 175.123 132.685 175.123 132.694 175.123C132.703 175.123 132.712 175.123 132.721 175.123C132.73 175.123 132.739 175.123 132.748 175.123C132.758 175.123 132.767 175.123 132.776 175.123C132.785 175.123 132.794 175.123 132.803 175.123C132.812 175.123 132.821 175.123 132.83 175.123C132.839 175.123 132.849 175.123 132.858 175.123C132.867 175.123 132.876 175.123 132.885 175.123C132.894 175.123 132.903 175.123 132.912 175.123C132.921 175.123 132.93 175.123 132.94 175.123C132.949 175.123 132.958 175.123 132.967 175.123C132.976 175.123 132.985 175.123 132.994 175.123C133.003 175.123 133.012 175.123 133.021 175.123C133.031 175.123 133.04 175.123 133.049 175.123C133.058 175.123 133.067 175.123 133.076 175.123C133.085 175.123 133.094 175.123 133.103 175.123C133.112 175.123 133.122 175.123 133.131 175.123C133.14 175.123 133.149 175.123 133.158 175.123C133.167 175.123 133.176 175.123 133.185 175.123C133.194 175.123 133.203 175.123 133.212 175.123C133.222 175.123 133.231 175.123 133.24 175.123C133.249 175.123 133.258 175.123 133.267 175.123C133.276 175.123 133.285 175.123 133.294 175.123C133.304 175.123 133.313 175.123 133.322 175.123C133.331 175.123 133.34 175.123 133.349 175.123C133.358 175.123 133.367 175.123 133.376 175.123C133.385 175.123 133.395 175.123 133.404 175.123C133.413 175.123 133.422 175.123 133.431 175.123C133.44 175.123 133.449 175.123 133.458 175.123C133.467 175.123 133.477 175.123 133.486 175.123C133.495 175.123 133.504 175.123 133.513 175.123C133.522 175.123 133.531 175.123 133.54 175.123C133.55 175.123 133.559 175.123 133.568 175.123C133.577 175.123 133.586 175.123 133.595 175.123C133.604 175.123 133.613 175.123 133.622 175.123C133.632 175.123 133.641 175.123 133.65 175.123C133.659 175.123 133.668 175.123 133.677 175.123C133.686 175.123 133.696 175.123 133.705 175.123C133.714 175.123 133.723 175.123 133.732 175.123C133.741 175.123 133.75 175.123 133.759 175.123C133.769 175.123 133.778 175.123 133.787 175.123C133.796 175.123 133.805 175.123 133.814 175.123C133.823 175.123 133.833 175.123 133.842 175.123C133.851 175.123 133.86 175.123 133.869 175.123C133.878 175.123 133.887 175.123 133.897 175.123C133.906 175.123 133.915 175.123 133.924 175.123C133.933 175.123 133.942 175.123 133.952 175.123C133.961 175.123 133.97 175.123 133.979 175.123C133.988 175.123 133.997 175.123 134.007 175.123C134.016 175.123 134.025 175.123 134.034 175.123C134.043 175.123 134.052 175.123 134.062 175.123C134.071 175.123 134.08 175.123 134.089 175.123C134.098 175.123 134.107 175.123 134.117 175.123C134.126 175.123 134.135 175.123 134.144 175.123C134.153 175.123 134.163 175.123 134.172 175.123C134.181 175.123 134.19 175.123 134.199 175.123C134.209 175.123 134.218 175.123 134.227 175.123C134.236 175.123 134.245 175.123 134.255 175.123C134.264 175.123 134.273 175.123 134.282 175.123C134.291 175.123 134.301 175.123 134.31 175.123C134.319 175.123 134.328 175.123 134.337 175.123C134.347 175.123 134.356 175.123 134.365 175.123C134.374 175.123 134.384 175.123 134.393 175.123C134.402 175.123 134.411 175.123 134.42 175.123C134.43 175.123 134.439 175.123 134.448 175.123C134.457 175.123 134.467 175.123 134.476 175.123C134.485 175.123 134.494 175.123 134.504 175.123C134.513 175.123 134.522 175.123 134.531 175.123C134.541 175.123 134.55 175.123 134.559 175.123C134.568 175.123 134.578 175.123 134.587 175.123C134.596 175.123 134.605 175.123 134.615 175.123C134.624 175.123 134.633 175.123 134.643 175.123C134.652 175.123 134.661 175.123 134.67 175.123C134.68 175.123 134.689 175.123 134.698 175.123C134.708 175.123 134.717 175.123 134.726 175.123C134.735 175.123 134.745 175.123 134.754 175.123C134.763 175.123 134.773 175.123 134.782 175.123C134.791 175.123 134.801 175.123 134.81 175.123C134.819 175.123 134.828 175.123 134.838 175.123C134.847 175.123 134.856 175.123 134.866 175.123C134.875 175.123 134.884 175.123 134.894 175.123C134.903 175.123 134.912 175.123 134.922 175.123C134.931 175.123 134.94 175.123 134.95 175.123C134.959 175.123 134.969 175.123 134.978 175.123C134.987 175.123 134.997 175.123 135.006 175.123C135.015 175.123 135.025 175.123 135.034 175.123C135.043 175.123 135.053 175.123 135.062 175.123C135.072 175.123 135.081 175.123 135.09 175.123C135.1 175.123 135.109 175.123 135.118 175.123C135.128 175.123 135.137 175.123 135.147 175.123C135.156 175.123 135.165 175.123 135.175 175.123C135.184 175.123 135.194 175.123 135.203 175.123C135.213 175.123 135.222 175.123 135.231 175.123C135.241 175.123 135.25 175.123 135.26 175.123C135.269 175.123 135.278 175.123 135.288 175.123C135.297 175.123 135.307 175.123 135.316 175.123C135.326 175.123 135.335 175.123 135.345 175.123C135.354 175.123 135.364 175.123 135.373 175.123C135.382 175.123 135.392 175.123 135.401 175.123C135.411 175.123 135.42 175.123 135.43 175.123C135.439 175.123 135.449 175.123 135.458 175.123C135.468 175.123 135.477 175.123 135.487 175.123C135.496 175.123 135.506 175.123 135.515 175.123C135.525 175.123 135.534 175.123 135.544 175.123C135.553 175.123 135.563 175.123 135.572 175.123C135.582 175.123 135.591 175.123 135.601 175.123C135.61 175.123 135.62 175.123 135.63 175.123C135.639 175.123 135.649 175.123 135.658 175.123C135.668 175.123 135.677 175.123 135.687 175.123C135.696 175.123 135.706 175.123 135.716 175.123C135.725 175.123 135.735 175.123 135.744 175.123C135.754 175.123 135.763 175.123 135.773 175.123C135.783 175.123 135.792 175.123 135.802 175.123C135.811 175.123 135.821 175.123 135.831 175.123C135.84 175.123 135.85 175.123 135.86 175.123C135.869 175.123 135.879 175.123 135.888 175.123C135.898 175.123 135.908 175.123 135.917 175.123C135.927 175.123 135.937 175.123 135.946 175.123C135.956 175.123 135.966 175.123 135.975 175.123C135.985 175.123 135.995 175.123 136.004 175.123C136.014 175.123 136.024 175.123 136.033 175.123C136.043 175.123 136.053 175.123 136.062 175.123C136.072 175.123 136.082 175.123 136.091 175.123C136.101 175.123 136.111 175.123 136.121 175.123C136.13 175.123 136.14 175.123 136.15 175.123C136.159 175.123 136.169 175.123 136.179 175.123C136.189 175.123 136.198 175.123 136.208 175.123C136.218 175.123 136.228 175.123 136.237 175.123C136.247 175.123 136.257 175.123 136.267 175.123C136.276 175.123 136.286 175.123 136.296 175.123C136.306 175.123 136.316 175.123 136.325 175.123C136.335 175.123 136.345 175.123 136.355 175.123C136.365 175.123 136.374 175.123 136.384 175.123C136.394 175.123 136.404 175.123 136.414 175.123C136.424 175.123 136.433 175.123 136.443 175.123C136.453 175.123 136.463 175.123 136.473 175.123C136.483 175.123 136.492 175.123 136.502 175.123C136.512 175.123 136.522 175.123 136.532 175.123C136.542 175.123 136.552 175.123 136.562 175.123C136.571 175.123 136.581 175.123 136.591 175.123C136.601 175.123 136.611 175.123 136.621 175.123C136.631 175.123 136.641 175.123 136.651 175.123C136.661 175.123 136.671 175.123 136.681 175.123C136.691 175.123 136.7 175.123 136.71 175.123C136.72 175.123 136.73 175.123 136.74 175.123C136.75 175.123 136.76 175.123 136.77 175.123C136.78 175.123 136.79 175.123 136.8 175.123C136.81 175.123 136.82 175.123 136.83 175.123C136.84 175.123 136.85 175.123 136.86 175.123C136.87 175.123 136.88 175.123 136.89 175.123C136.9 175.123 136.91 175.123 136.92 175.123C136.93 175.123 136.941 175.123 136.951 175.123C136.961 175.123 136.971 175.123 136.981 175.123C136.991 175.123 137.001 175.123 137.011 175.123C137.021 175.123 137.031 175.123 137.041 175.123C137.051 175.123 137.062 175.123 137.072 175.123C137.082 175.123 137.092 175.123 137.102 175.123C137.112 175.123 137.122 175.123 137.132 175.123C137.143 175.123 137.153 175.123 137.163 175.123C137.173 175.123 137.183 175.123 137.193 175.123C137.204 175.123 137.214 175.123 137.224 175.123C137.234 175.123 137.244 175.123 137.254 175.123C137.265 175.123 137.275 175.123 137.285 175.123C137.295 175.123 137.306 175.123 137.316 175.123C137.326 175.123 137.336 175.123 137.347 175.123C137.357 175.123 137.367 175.123 137.377 175.123C137.388 175.123 137.398 175.123 137.408 175.123C137.418 175.123 137.429 175.123 137.439 175.123C137.449 175.123 137.46 175.123 137.47 175.123C137.48 175.123 137.49 175.123 137.501 175.123C137.511 175.123 137.521 175.123 137.532 175.123C137.542 175.123 137.552 175.123 137.563 175.123C137.573 175.123 137.584 175.123 137.594 175.123C137.604 175.123 137.615 175.123 137.625 175.123C137.635 175.123 137.646 175.123 137.656 175.123C137.667 175.123 137.677 175.123 137.687 175.123C137.698 175.123 137.708 175.123 137.719 175.123C137.729 175.123 137.74 175.123 137.75 175.123C137.76 175.123 137.771 175.123 137.781 175.123C137.792 175.123 137.802 175.123 137.813 175.123C137.823 175.123 137.834 175.123 137.844 175.123C137.855 175.123 137.865 175.123 137.876 175.123C137.886 175.123 137.897 175.123 137.907 175.123C137.918 175.123 137.928 175.123 137.939 175.123C137.95 175.123 137.96 175.123 137.971 175.123C137.981 175.123 137.992 175.123 138.002 175.123C138.013 175.123 138.024 175.123 138.034 175.123C138.045 175.123 138.055 175.123 138.066 175.123C138.077 175.123 138.087 175.123 138.098 175.123C138.108 175.123 138.119 175.123 138.13 175.123C138.14 175.123 138.151 175.123 138.162 175.123C138.172 175.123 138.183 175.123 138.194 175.123C138.204 175.123 138.215 175.123 138.226 175.123C138.237 175.123 138.247 175.123 138.258 175.123C138.269 175.123 138.279 175.123 138.29 175.123C138.301 175.123 138.312 175.123 138.322 175.123C138.333 175.123 138.344 175.123 138.355 175.123C138.365 175.123 138.376 175.123 138.387 175.123C138.398 175.123 138.409 175.123 138.419 175.123C138.43 175.123 138.441 175.123 138.452 175.123C138.463 175.123 138.474 175.123 138.484 175.123C138.495 175.123 138.506 175.123 138.517 175.123C138.528 175.123 138.539 175.123 138.55 175.123C138.56 175.123 138.571 175.123 138.582 175.123C138.593 175.123 138.604 175.123 138.615 175.123C138.626 175.123 138.637 175.123 138.648 175.123C138.659 175.123 138.67 175.123 138.681 175.123C138.692 175.123 138.703 175.123 138.714 175.123C138.725 175.123 138.736 175.123 138.747 175.123C138.758 175.123 138.769 175.123 138.78 175.123C138.791 175.123 138.802 175.123 138.813 175.123C138.824 175.123 138.835 175.123 138.846 175.123C138.857 175.123 138.868 175.123 138.879 175.123C138.89 175.123 138.901 175.123 138.912 175.123C138.923 175.123 138.934 175.123 138.946 175.123C138.957 175.123 138.968 175.123 138.979 175.123C138.99 175.123 139.001 175.123 139.012 175.123C139.023 175.123 139.035 175.123 139.046 175.123C139.057 175.123 139.068 175.123 139.079 175.123C139.091 175.123 139.102 175.123 139.113 175.123C139.124 175.123 139.135 175.123 139.147 175.123C139.158 175.123 139.169 175.123 139.18 175.123C139.192 175.123 139.203 175.123 139.214 175.123C139.225 175.123 139.237 175.123 139.248 175.123C139.259 175.123 139.271 175.123 139.282 175.123C139.293 175.123 139.305 175.123 139.316 175.123C139.327 175.123 139.339 175.123 139.35 175.123C139.361 175.123 139.373 175.123 139.384 175.123C139.395 175.123 139.407 175.123 139.418 175.123C139.43 175.123 139.441 175.123 139.452 175.123C139.464 175.123 139.475 175.123 139.487 175.123C139.498 175.123 139.51 175.123 139.521 175.123C139.533 175.123 139.544 175.123 139.556 175.123C139.567 175.123 139.579 175.123 139.59 175.123C139.602 175.123 139.613 175.123 139.625 175.123C139.636 175.123 139.648 175.123 139.659 175.123C139.671 175.123 139.682 175.123 139.694 175.123C139.706 175.123 139.717 175.123 139.729 175.123C139.74 175.123 139.752 175.123 139.764 175.123C139.775 175.123 139.787 175.123 139.798 175.123C139.81 175.123 139.822 175.123 139.833 175.123C139.845 175.123 139.857 175.123 139.868 175.123C139.88 175.123 139.892 175.123 139.903 175.123C139.915 175.123 139.927 175.123 139.939 175.123C139.95 175.123 139.962 175.123 139.974 175.123C139.986 175.123 139.997 175.123 140.009 175.123C140.021 175.123 140.033 175.123 140.044 175.123C140.056 175.123 140.068 175.123 140.08 175.123C140.092 175.123 140.104 175.123 140.115 175.123C140.127 175.123 140.139 175.123 140.151 175.123V170.123ZM170.885 174.995C172.361 174.503 173.367 174.002 174.108 173.597C174.547 173.357 174.656 173.287 174.904 173.156C175.09 173.057 175.098 173.068 175.023 173.088C174.641 173.19 174.387 173.019 174.642 173.147C175.02 173.338 175.641 173.752 176.87 174.646L179.809 170.6C178.652 169.76 177.699 169.09 176.897 168.685C175.972 168.218 174.932 167.938 173.736 168.256C173.255 168.385 172.849 168.586 172.562 168.738C172.337 168.857 171.914 169.098 171.709 169.21C171.161 169.51 170.432 169.876 169.305 170.251L170.885 174.995ZM176.87 174.646C181.303 177.866 186.602 178.326 188.858 178.15L188.468 173.165C187.024 173.278 183.014 172.929 179.809 170.6L176.87 174.646ZM158.143 191.071C160.575 191.746 162.623 191.588 164.373 190.851C166.033 190.151 167.211 189.007 168.01 188.209C168.452 187.767 168.735 187.473 169.028 187.216C169.308 186.969 169.443 186.899 169.479 186.884C169.487 186.881 169.467 186.89 169.427 186.895C169.409 186.897 169.391 186.897 169.376 186.897C169.368 186.897 169.362 186.896 169.358 186.896C169.356 186.895 169.354 186.895 169.353 186.895C169.352 186.895 169.352 186.895 169.352 186.895C169.351 186.895 169.351 186.895 169.351 186.895C169.351 186.895 169.351 186.895 169.352 186.895C169.352 186.895 169.352 186.895 169.353 186.895C169.354 186.895 169.356 186.896 169.359 186.897C169.364 186.898 169.372 186.9 169.384 186.904C169.406 186.911 169.441 186.925 169.489 186.947C169.587 186.993 169.732 187.075 169.927 187.217L172.866 183.172C172.07 182.594 171.205 182.153 170.259 181.978C169.27 181.795 168.356 181.934 167.55 182.271C166.793 182.588 166.185 183.057 165.725 183.462C165.276 183.857 164.82 184.328 164.476 184.672C163.702 185.445 163.116 185.954 162.431 186.243C161.835 186.494 160.954 186.662 159.48 186.253L158.143 191.071ZM169.927 187.217C172.231 188.89 174.457 189.478 176.455 189.131C178.393 188.796 179.76 187.638 180.459 186.52L176.22 183.868C176.223 183.863 176.212 183.882 176.18 183.916C176.149 183.948 176.106 183.987 176.052 184.025C175.945 184.1 175.799 184.171 175.602 184.205C175.265 184.263 174.381 184.272 172.866 183.172L169.927 187.217ZM205.58 187.672C209.637 187.124 212.546 186.63 214.738 186.256C216.978 185.874 218.317 185.646 219.403 185.576C221.239 185.456 222.253 185.751 226.408 187.499L228.347 182.89C224.257 181.17 222.233 180.381 219.078 180.586C217.669 180.678 216.024 180.965 213.897 181.328C211.723 181.699 208.881 182.181 204.911 182.717L205.58 187.672ZM226.408 187.499C229.837 188.941 232.434 189.453 234.377 189.135C235.398 188.968 236.355 188.55 237.073 187.795C237.798 187.033 238.123 186.088 238.123 185.194H233.123C233.123 184.879 233.241 184.569 233.45 184.349C233.653 184.136 233.786 184.166 233.57 184.201C233.04 184.288 231.514 184.222 228.347 182.89L226.408 187.499ZM203.907 171.079C205.804 170.41 206.902 169.95 207.519 169.709C208.225 169.432 207.918 169.628 207.524 169.567C207.452 169.556 207.447 169.544 207.737 169.642C207.979 169.724 208.364 169.859 208.873 170.015C209.909 170.332 211.443 170.733 213.912 171.181L214.805 166.262C212.5 165.843 211.159 165.486 210.337 165.234C209.917 165.105 209.628 165.003 209.339 164.906C209.099 164.824 208.707 164.69 208.283 164.625C207.183 164.456 206.307 164.814 205.697 165.052C204.999 165.325 204.035 165.732 202.244 166.364L203.907 171.079ZM213.912 171.181C215.836 171.531 217.204 171.75 218.142 171.868C218.606 171.927 219.007 171.967 219.337 171.981C219.5 171.988 219.688 171.991 219.879 171.98C220.014 171.971 220.387 171.946 220.797 171.785C221.003 171.703 221.431 171.507 221.809 171.069C222.262 170.544 222.506 169.821 222.399 169.061C222.31 168.425 222.006 167.997 221.85 167.805C221.678 167.591 221.505 167.447 221.401 167.366C221.052 167.095 220.657 166.927 220.499 166.86C220.058 166.672 219.49 166.483 218.999 166.332L217.53 171.111C217.978 171.249 218.347 171.378 218.543 171.461C218.704 171.53 218.553 171.485 218.336 171.316C218.265 171.262 218.118 171.141 217.964 170.951C217.827 170.781 217.535 170.374 217.448 169.758C217.344 169.018 217.583 168.313 218.022 167.804C218.385 167.383 218.79 167.201 218.964 167.132C219.165 167.054 219.327 167.022 219.402 167.009C219.487 166.995 219.548 166.991 219.574 166.989C219.622 166.986 219.624 166.989 219.556 166.986C219.423 166.98 219.176 166.959 218.769 166.908C217.964 166.806 216.699 166.606 214.805 166.262L213.912 171.181ZM116.914 180.259C117.07 180.142 117.184 180.091 117.25 180.067C117.315 180.044 117.352 180.042 117.36 180.042C117.371 180.042 117.361 180.044 117.326 180.035C117.309 180.03 117.281 180.021 117.242 180.004C117.206 179.987 117.145 179.957 117.067 179.906L119.839 175.744C118.525 174.869 116.154 174.581 113.916 176.258L116.914 180.259ZM127.213 178.999C130.083 179.409 133.93 178.843 135.433 178.542L134.454 173.639C133.064 173.917 129.91 174.334 127.919 174.049L127.213 178.999ZM123.226 184.66H126.264V179.66H123.226V184.66ZM141.453 180.325H143.189V175.325H141.453V180.325ZM94.5205 170.764C91.7248 168.25 88.4646 167.68 85.7969 168.031C84.4778 168.204 83.2636 168.606 82.268 169.14C81.3541 169.631 80.3158 170.402 79.7644 171.504L84.2356 173.742C84.1182 173.977 84.1105 173.826 84.6341 173.545C85.076 173.308 85.7062 173.086 86.4484 172.988C87.9034 172.797 89.6337 173.094 91.1777 174.482L94.5205 170.764ZM56.5049 179.281C56.6058 180.894 57.3749 183.097 59.6128 183.839C61.8324 184.575 63.9559 183.344 65.5404 181.761L62.0068 178.224C61.4657 178.764 61.1011 178.969 60.9379 179.035C60.7967 179.092 60.9208 179.005 61.1862 179.093C61.4513 179.181 61.5644 179.347 61.5752 179.366C61.5757 179.367 61.5126 179.248 61.4951 178.969L56.5049 179.281ZM65.5404 181.761C66.8653 180.438 67.5191 180.077 67.6578 180.021C67.7308 179.991 67.4055 180.15 66.868 180.034C66.1897 179.886 65.5598 179.371 65.3078 178.616L70.0507 177.033C69.7264 176.062 68.9192 175.362 67.929 175.147C67.0796 174.963 66.3077 175.171 65.7696 175.391C64.6859 175.833 63.4592 176.773 62.0068 178.224L65.5404 181.761ZM76.7781 189.278C78.919 188.5 79.4765 188.608 79.7714 188.648C79.9455 188.671 80.6327 188.799 81.2855 188.818C82.0381 188.839 82.8654 188.747 83.9076 188.487L82.6962 183.636C82.0025 183.809 81.6364 183.825 81.4262 183.82C81.1162 183.811 81.071 183.777 80.4315 183.691C79.099 183.514 77.7036 183.622 75.071 184.578L76.7781 189.278ZM83.9076 188.487C86.0475 187.952 85.8407 188.916 85.4059 188.047L89.8771 185.809C88.8637 183.785 86.111 182.783 82.6962 183.636L83.9076 188.487Z" fill="#3E3939"/>
</g>
<defs>
<clipPath id="clip0">
<rect width="290" height="211" fill="white"/>
</clipPath>
</defs>
</svg>
