<svg width="290" height="211" viewBox="0 0 290 211" fill="none" xmlns="http://www.w3.org/2000/svg">
<path opacity="0.4" d="M104.324 151.913C109.817 149.166 117.332 150.185 123.264 150.185C124.763 150.185 181.424 154.997 182.894 155.274C184.572 155.59 186.194 155.965 187.839 156.426C190.645 157.212 193.76 158.301 195.424 160.891C198.297 165.359 191.793 171.734 188.319 173.518C186.759 174.319 185.499 175.014 183.758 175.342C181.787 175.714 180.53 176.978 178.741 177.575C174.962 178.834 170.713 177.898 166.906 178.799C163.999 179.488 161.654 180.4 158.552 180.432C155.152 180.466 151.75 180.432 148.35 180.432C142.264 180.432 136.322 180.419 130.273 179.663C126.221 179.157 122.88 177.215 118.919 176.135C116.874 175.577 114.655 175.486 112.701 174.598C112.065 174.309 111.901 173.95 111.165 173.95C109.815 173.95 108.582 173.472 107.276 173.182C105.674 172.826 103.935 173.203 102.307 173.062C99.2311 172.794 94.7534 170.816 92.5848 168.765C91.0584 167.321 88.9144 165.881 90.6404 163.772C91.961 162.158 92.9066 159.857 94.4092 158.49C97.3901 155.781 100.751 153.699 104.324 151.913Z" fill="#9DA1A9"/>
<path d="M115.072 55.2958C116.671 52.9183 119.228 45.0725 122.639 45C128.923 45 133.881 47.1635 139.429 49.5201C144.291 51.5853 148.366 46.8173 152.882 45.9542C158.771 44.8286 169.024 45.5688 173.008 50.2232C175.674 53.3371 175.476 57.0219 176.345 60.8203C176.766 62.6569 177.407 64.9543 178.684 66.4454C180.013 67.9981 183.645 67.8511 185.542 68.0525C189.155 68.4362 194.624 68.4507 197.365 71.2166C199.531 73.4017 198.284 78.8501 197.47 81.2612C195.073 88.3644 194.42 97.832 200.098 103.661C202.594 106.223 203.57 108.373 202.673 111.897C201.31 117.251 196.17 121.282 190.639 122.746C185.218 124.181 180.081 123.567 176.555 128.622C175.248 130.496 175.153 132.396 174.559 134.498C173.93 136.719 172.145 138.678 170.512 140.274C168.353 142.383 167.648 142.249 164.705 141.504C161.625 140.725 158.591 139.607 155.483 138.993C152.882 138.479 150.447 137.367 148.178 136.08C146.346 135.04 145.052 133.435 143.212 132.489C140.309 130.995 134.731 132.69 131.625 132.69C127.087 132.69 120.646 131.46 117.016 128.622C110.936 123.868 109.755 115.311 102.985 111.194C100.181 109.489 97.0993 109.006 93.8418 108.532C91.1187 108.136 88.575 109.374 89.0597 106.247C89.6397 102.506 89.4339 99.4802 91.2143 96.0771C92.8159 93.0157 95.0149 90.7117 95.5759 87.1374C96.1162 83.6949 95.2987 82.2381 93.7892 79.3527C93.0748 77.9872 92.1194 76.9513 91.3194 75.6362C90.1981 73.793 90.4786 71.8251 90.4786 69.7601C90.4786 68.2358 90.1531 63.8817 91.5296 62.8293C92.2475 62.2803 94.3408 62.5848 95.2081 62.6284C96.4756 62.6921 98.1329 63.6577 99.3595 63.9844C101.493 64.5526 104.256 64.7655 106.454 64.336C111.13 63.4219 112.788 58.6911 115.072 55.2958Z" fill="white"/>
<path d="M111.187 72.3472C107.753 72.3472 99.5675 71.4438 99.177 75.3498C100.916 77.9577 103.888 82.297 103.153 85.6085C102.468 88.6893 97.1373 88.0242 95.674 90.585C95.2871 91.2621 94.1876 91.8224 93.6445 92.4199C92.1045 94.1138 90.8503 95.992 89.1962 97.591C87.6536 99.0822 85.899 100.66 85.2762 102.762C83.8107 107.708 86.7449 108.071 90.6697 109.379C97.0761 111.514 104.172 111.012 110.437 113.382C114.13 114.78 119.295 115.511 116.191 120.388C113.937 123.931 111.95 128.091 113.467 132.426C115.342 137.782 118.773 135.593 123.448 134.901C126.585 134.436 129.02 131.977 132.205 131.398C134.918 130.904 137.289 129.896 140.101 129.896C143.642 129.896 147.881 131.504 151.11 132.899C154.592 134.403 156.408 138.772 159.756 140.656C163.227 142.608 168.099 143.621 170.488 139.905C172.569 136.668 174.241 133.4 174.241 129.507C174.241 126.619 172.64 124.297 172.74 121.5C172.843 118.619 174.37 114.383 177.744 114.383C179.866 114.383 181.339 115.69 183.332 115.857C186.141 116.091 188.903 115.847 191.645 115.273C195.391 114.489 189.842 111.198 188.503 110.157C186.309 108.45 184.092 106.115 183.777 103.123C183.505 100.542 184.25 98.3339 184.25 95.8673V88.7501C184.25 86.4401 185.131 82.4517 182.971 81.0769C181.348 80.044 179.964 79.3518 178.133 78.7415C176.661 78.2506 174.518 78.2805 173.212 77.5461C169.038 75.198 168.397 72.6882 167.708 68.2048C167.58 67.375 166.062 67.1007 165.623 66.3421C164.796 64.9145 163.915 63.627 163.232 62.0884C162.028 59.3807 157.379 58.7414 154.836 58.8357C152.017 58.94 149.251 61.2044 146.718 61.3378C141.491 61.6129 139.598 59.8054 135.68 57.112C133.413 55.5534 128.453 56.0553 125.7 56.3613C121.648 56.8115 119.991 58.2519 121.585 61.8382C122.586 64.0895 120.886 67.7285 120.084 69.7338C119.048 72.3234 113.24 72.3472 111.187 72.3472Z" fill="#9DA1A9"/>
<path d="M102.879 78.395C99.9873 76.1359 94.1322 75.226 90.636 74C91.5594 75.3851 94.4555 83.7682 95.7669 84.8412C97.6712 86.3992 98.235 87.1943 98.235 89.7935C98.235 91.4554 97.1054 92.5144 95.9943 93.6255C94.2167 95.4031 91.6148 96.9521 90.636 99.3735C90.059 100.801 90.3437 102.622 90.3437 104.131C90.3437 107.555 93.5341 111.226 97.0659 111.292C101.627 111.376 106.101 110.88 110.51 112.233C113.417 113.125 118.39 115.324 119.441 118.598C120.555 122.072 118.109 125.761 118.109 129.218C118.109 133.689 120.039 136.309 124.556 137.141C127.876 137.753 131.904 136.774 134.444 134.527C137.39 131.921 140.537 131.458 144.381 131.458C147.769 131.458 151.09 134.526 153.198 136.898C154.632 138.511 156.396 139.76 157.793 141.396C159.277 143.132 160.575 144.611 162.989 144.611C167.578 144.611 171.586 143.874 174.355 140.097C175.838 138.075 176.387 135.653 177.587 133.52C178.088 132.629 178.019 131.25 178.674 130.517C179.662 129.411 181.028 128.435 182.279 127.659C185.319 125.772 188.947 125.408 192.086 123.746C193.646 122.92 194.401 122.076 194.035 120.287C193.294 116.664 188.601 115.711 185.462 115.676C182.093 115.637 177.847 115.474 175.037 117.722C172.59 119.679 172.101 121.527 172.18 124.444C172.236 126.535 172.982 128.411 172.699 130.582C172.484 132.23 171.802 132.043 170.41 132.043C167.682 132.043 164.574 129.334 162.535 127.805C160.944 126.612 159.357 125.024 157.566 124.152C155.696 123.241 153.347 123.567 151.331 123.567C149.668 123.567 148.099 123.621 146.46 123.924C144.687 124.253 143.688 125.272 142.222 126.165C141.012 126.901 138.92 126.49 137.545 126.49C135.627 126.49 133.628 126.163 131.716 125.97C127.456 125.539 122.422 123.42 121.617 118.631C120.926 114.524 122.315 108.242 118.044 105.739C116.207 104.661 113.715 104.366 111.712 103.547C110.514 103.056 109.313 102.703 108.107 102.231C104.793 100.934 99.7688 100.302 99.6964 95.7364C99.6796 94.6796 99.2108 92.3326 100.151 91.5634C101.456 90.4961 103.205 89.8416 104.6 88.8518C106.228 87.6965 107.143 87.2453 106.987 85.1334C106.902 83.9854 106.663 82.7898 106.126 81.7723C105.381 80.3598 104.113 79.3595 102.879 78.395Z" fill="#757A85"/>
<path d="M129.004 69.6207C125.024 70.7912 122.872 73.3591 120.503 76.488C120.503 77.9775 120.333 79.4186 120.504 80.9597C120.635 82.1371 121.107 82.8552 121.941 83.6746C123.136 84.8486 124.245 86.1767 125.872 86.709C127.779 87.3331 129.196 87.6673 131.213 87.6673C132.768 87.6673 134.16 87.6087 135.676 87.3833C137.929 87.0485 139.892 86.2299 142.188 86.2299C143.852 86.2299 145.239 87.1078 146.784 87.5874C148.41 88.0919 149.792 88.8966 151.096 89.9918C153.021 91.6084 155.11 93.0188 156.881 94.8185C158.916 96.886 159.761 99.5284 161.459 101.792C161.819 102.272 162.296 103.193 162.897 103.407C163.623 103.667 164.696 103.429 165.416 103.283C167.316 102.897 169.226 102.17 170.616 100.781C171.503 99.8933 171.597 98.7463 172 97.6222C172.395 96.5174 172.568 95.6879 172.568 94.5257C172.568 92.2397 172.328 89.9943 171.414 87.8625C170.982 86.8544 170.334 85.9644 169.924 84.9257C169.349 83.4708 168.735 82.1153 167.706 80.9242C165.98 78.9279 164.201 76.9609 161.903 75.6007C160.684 74.8793 159.502 74.2694 158.301 73.5068C155.874 71.9667 153.148 70.9373 150.528 69.7804C148.129 68.7204 145.972 67.4735 143.297 67.3937C140.753 67.3177 138.154 67.5827 135.685 68.1833C133.476 68.7207 131.183 68.9797 129.004 69.6207Z" fill="#757A85"/>
<path d="M119.319 88.1445C119.381 91.0049 122.081 94.9475 124.291 96.5C126.3 98.3547 131.984 103.136 134.618 103.751C136.543 104.2 138.529 104.187 140.45 104.641C142.286 105.075 144.122 105.519 145.974 105.884C148.619 106.405 151.539 106.121 154.199 105.784C156.13 105.539 158.001 105.268 159.877 104.748C161.934 104.178 164.038 103.95 166.13 103.567C167.543 103.307 169.106 102.875 169.989 101.648C170.32 101.189 170.629 98.9337 169.928 98.5333C169.578 98.3333 169.261 97.9377 168.9 97.697C168.293 97.2926 167.632 96.9896 166.951 96.7302C165.528 96.1882 164.168 95.9422 162.654 95.8018C161.425 95.6878 160.272 95.5168 159.232 94.8044C158.412 94.2426 157.869 93.2891 157.161 92.5946C156.271 91.7222 155.144 91.1036 154.06 90.5085L154.03 90.4923C152.494 89.6495 150.963 88.8276 149.434 87.968C147.883 87.0953 146.519 85.9487 144.808 85.3516C142.206 84.444 139.716 84.5127 136.989 84.7224C135.744 84.8182 134.124 84.6535 133.038 85.2442C132.445 85.5665 131.602 85.6072 130.951 85.7199C129.844 85.9114 128.732 86.2206 127.605 86.2416C126.452 86.2632 125.409 86.2449 124.291 85.9654C123.079 85.6626 121.814 85.2749 120.562 85.2749C118.877 85.2749 119.29 86.836 119.319 88.1445Z" fill="white"/>
<path d="M164.454 49.6851C163.184 49.144 161.715 49.7351 161.174 51.0054C160.633 52.2757 161.224 53.7441 162.495 54.2852L164.454 49.6851ZM196.134 80.2355L198.274 78.944L196.134 80.2355ZM190.855 88.7414L189.966 86.4048L190.855 88.7414ZM185.523 95.4317L183.024 95.5065L185.523 95.4317ZM193.392 104.161L192.209 106.363L193.392 104.161ZM175.29 115.569L173.701 113.639L175.29 115.569ZM173.245 124.257L175.546 123.279L173.245 124.257ZM170.283 133.152L169.937 130.676L170.283 133.152ZM149.357 118.61C147.996 118.381 146.706 119.299 146.478 120.661C146.249 122.022 147.167 123.311 148.529 123.54L149.357 118.61ZM153.491 58.4867C154.032 57.2165 153.441 55.7481 152.17 55.207C150.9 54.6659 149.432 55.257 148.891 56.5273L153.491 58.4867ZM142.947 59.3728L142.391 61.8102C142.438 61.8209 142.485 61.8302 142.533 61.8382L142.947 59.3728ZM133.031 51.5642L130.89 52.8557L133.031 51.5642ZM121.122 46.4914L121.673 48.9298L121.122 46.4914ZM118.645 56.1909L116.414 57.319L116.414 57.319L118.645 56.1909ZM106.583 84.5103L109.031 84.0058L106.583 84.5103ZM100.335 91.4082L101.067 93.7985L100.335 91.4082ZM97.1034 98.9938L99.244 97.7023L99.244 97.7023L97.1034 98.9938ZM107.733 106.919C109.079 106.614 109.924 105.276 109.619 103.929C109.314 102.582 107.975 101.738 106.629 102.043L107.733 106.919ZM121.324 105.442C120.17 104.684 118.62 105.004 117.862 106.158C117.104 107.312 117.425 108.862 118.579 109.621L121.324 105.442ZM138.598 122.046L141.098 122.068C141.109 120.876 140.276 119.842 139.109 119.598C137.942 119.355 136.766 119.969 136.298 121.066L138.598 122.046ZM131.837 66.1787C130.49 66.4835 129.646 67.8223 129.951 69.1689C130.255 70.5156 131.594 71.3601 132.941 71.0553L131.837 66.1787ZM170.084 102.093C169.316 103.24 169.625 104.793 170.772 105.56C171.92 106.328 173.473 106.02 174.24 104.872L170.084 102.093ZM122.312 79.1273C123.062 77.968 122.73 76.4203 121.571 75.6705C120.411 74.9206 118.864 75.2527 118.114 76.412L122.312 79.1273ZM133.681 108.329C134.951 108.871 136.419 108.279 136.961 107.009C137.502 105.739 136.911 104.27 135.64 103.729L133.681 108.329ZM102.258 90.7771L103.1 93.1311L103.1 93.1311L102.258 90.7771ZM95.3401 94.7011L97.8373 94.8211L95.3401 94.7011ZM113.214 115.775C114.321 116.6 115.888 116.371 116.713 115.264C117.538 114.157 117.309 112.591 116.202 111.766L113.214 115.775ZM117.585 128.632L115.109 128.282C115.013 128.961 115.2 129.65 115.627 130.187L117.585 128.632ZM133.78 133.357L135.387 135.272L133.78 133.357ZM137.596 127.374L135.238 126.545L137.596 127.374ZM174.794 129.632L172.294 129.645L174.794 129.632ZM181.485 125.417L180.663 127.778L180.67 127.78L181.485 125.417ZM186.351 99.3171L184.148 100.5L186.351 99.3171ZM195.337 95.4481L195.337 92.9481C194.673 92.9481 194.035 93.213 193.566 93.6843L195.337 95.4481ZM127.372 74.5198C126.059 74.9477 125.342 76.3587 125.77 77.6715C126.197 78.9842 127.608 79.7016 128.921 79.2737L127.372 74.5198ZM155.706 83.2408C156.667 84.2318 158.25 84.2558 159.241 83.2944C160.232 82.333 160.256 80.7502 159.294 79.7592L155.706 83.2408ZM142.753 89.3841C144.069 88.9685 144.8 87.5642 144.384 86.2475C143.968 84.9308 142.564 84.2003 141.247 84.6159L142.753 89.3841ZM147 95.4481L147.221 92.958L147 95.4481ZM154 92C154 90.6193 152.881 89.5 151.5 89.5C150.119 89.5 149 90.6193 149 92L154 92ZM162.495 54.2852C165.808 55.6966 167.175 57.0051 167.691 57.9815C168.128 58.8087 168.175 59.8306 167.481 61.4587L172.081 63.4181C173.111 61.0006 173.507 58.2879 172.111 55.6459C170.794 53.153 168.146 51.2576 164.454 49.6851L162.495 54.2852ZM167.481 61.4587C167.135 62.2706 166.618 63.3653 166.324 64.118C165.989 64.9732 165.661 66.0241 165.723 67.2059C165.854 69.7146 167.635 71.6125 170.123 73.5712L173.216 69.6429C170.745 67.6973 170.721 67.0338 170.716 66.9456C170.71 66.8291 170.732 66.5726 170.98 65.9395C171.268 65.2039 171.565 64.6291 172.081 63.4181L167.481 61.4587ZM170.123 73.5712C172.745 75.6362 174.823 76.7875 177.227 77.2213C179.45 77.6225 181.826 77.356 184.623 77.1503L184.257 72.1638C181.074 72.3978 179.543 72.5585 178.115 72.3008C176.868 72.0758 175.552 71.4823 173.216 69.6429L170.123 73.5712ZM184.623 77.1503C187.473 76.9407 189.152 77.1632 190.38 77.7371C191.561 78.2887 192.666 79.3266 193.993 81.527L198.274 78.944C196.691 76.3198 194.94 74.3486 192.496 73.2071C190.101 72.088 187.388 71.9336 184.257 72.1638L184.623 77.1503ZM189.966 86.4048C189.639 86.5294 189.313 86.6418 188.953 86.7661C188.607 86.8855 188.219 87.0196 187.839 87.1679C187.084 87.4629 186.188 87.8776 185.381 88.5765C183.587 90.1285 182.932 92.4235 183.024 95.5065L188.022 95.3569C187.951 92.9934 188.48 92.507 188.653 92.3573C188.828 92.2055 189.111 92.0393 189.659 91.8251C189.931 91.7189 190.226 91.6163 190.585 91.4923C190.93 91.3731 191.331 91.2352 191.745 91.0779L189.966 86.4048ZM192.209 106.363C194.735 107.719 195.867 108.872 196.319 109.744C196.687 110.454 196.753 111.262 196.213 112.532L200.813 114.491C201.78 112.221 201.98 109.799 200.758 107.443C199.62 105.248 197.437 103.495 194.574 101.958L192.209 106.363ZM196.213 112.532C195.738 113.646 194.959 114.319 193.943 114.615C192.869 114.927 191.278 114.882 189.202 113.997L187.242 118.598C190.069 119.802 192.87 120.134 195.339 119.416C197.865 118.681 199.78 116.917 200.813 114.491L196.213 112.532ZM189.202 113.997C186.836 112.99 184.241 111.866 181.715 111.495C179.008 111.097 176.254 111.536 173.701 113.639L176.879 117.498C178.151 116.451 179.411 116.21 180.988 116.442C182.746 116.7 184.704 117.516 187.242 118.598L189.202 113.997ZM169.937 130.676C167.435 131.026 166.143 130.912 165.114 130.473C164.032 130.013 162.869 129.039 160.999 126.783L157.15 129.973C159.107 132.334 160.908 134.117 163.154 135.073C165.453 136.052 167.851 136.016 170.629 135.628L169.937 130.676ZM160.999 126.783C160.106 125.704 159.481 124.817 158.88 123.987C158.302 123.19 157.678 122.341 156.883 121.602C155.148 119.989 152.97 119.217 149.357 118.61L148.529 123.54C151.868 124.102 152.841 124.672 153.478 125.264C153.869 125.627 154.234 126.097 154.829 126.919C155.401 127.709 156.13 128.743 157.15 129.973L160.999 126.783ZM148.891 56.5273C148.933 56.4287 148.963 56.4971 148.677 56.6399C148.376 56.79 147.895 56.9311 147.23 57.0167C145.9 57.1882 144.356 57.0745 143.361 56.9074L142.533 61.8382C143.855 62.0605 145.915 62.2276 147.87 61.9757C148.847 61.8496 149.928 61.603 150.907 61.1148C151.902 60.6193 152.932 59.799 153.491 58.4867L148.891 56.5273ZM143.503 56.9353C142.049 56.6038 137.874 54.7519 135.171 50.2727L130.89 52.8557C134.398 58.669 139.822 61.2245 142.391 61.8102L143.503 56.9353ZM135.171 50.2727C132.916 46.5346 130.097 44.673 127.263 43.9582C124.53 43.2692 122.052 43.7177 120.57 44.0531L121.673 48.9298C122.94 48.6432 124.475 48.4118 126.04 48.8064C127.503 49.1753 129.264 50.161 130.89 52.8557L135.171 50.2727ZM116.414 57.319C117.006 58.4883 117.118 59.1183 117.123 59.4029C117.126 59.5742 117.101 59.6248 117.009 59.7369C116.832 59.9536 116.517 60.2083 115.831 60.683C115.229 61.0992 114.345 61.6831 113.521 62.4285L116.876 66.1358C117.399 65.6625 117.957 65.2919 118.675 64.7954C119.308 64.3573 120.192 63.741 120.877 62.9058C121.647 61.9661 122.147 60.784 122.122 59.3193C122.1 57.9679 121.633 56.5586 120.876 55.0627L116.414 57.319ZM113.521 62.4285C113.099 62.811 112.772 62.9675 112.474 63.0434C112.15 63.1258 111.684 63.1571 110.925 63.0383C109.266 62.7787 107.056 61.9744 103.293 60.6829L101.67 65.4121C105.128 66.5989 107.93 67.6306 110.152 67.9782C111.332 68.1628 112.523 68.1905 113.708 67.8887C114.919 67.5803 115.952 66.972 116.876 66.1358L113.521 62.4285ZM103.293 60.6829C101.403 60.0342 99.8045 59.6372 98.4374 59.5391C97.0368 59.4387 95.713 59.6415 94.5617 60.3671C93.4376 61.0755 92.7949 62.0877 92.3679 62.9376C91.9854 63.6988 91.5878 64.7564 91.2921 65.4507L95.8922 67.4101C96.3504 66.3343 96.5383 65.7743 96.8358 65.1822C97.0887 64.6786 97.2203 64.6017 97.2276 64.5971C97.2319 64.5944 97.2688 64.5697 97.3808 64.5474C97.5033 64.5231 97.7224 64.5007 98.0798 64.5263C98.8208 64.5795 99.95 64.8217 101.67 65.4121L103.293 60.6829ZM91.2921 65.4507C90.1726 68.0788 90.5773 70.8374 92.0817 73.1854C93.5468 75.4721 96.0191 77.351 99.1356 78.6785L101.095 74.0784C98.6072 73.0187 97.0641 71.6935 96.2917 70.488C95.5585 69.3437 95.5038 68.3218 95.8922 67.4101L91.2921 65.4507ZM99.1356 78.6785C101.787 79.8077 102.648 80.6146 103.056 81.2365C103.542 81.9771 103.678 82.7999 104.134 85.0148L109.031 84.0058C108.678 82.291 108.382 80.2415 107.238 78.4953C106.015 76.6305 104.048 75.3363 101.095 74.0784L99.1356 78.6785ZM94.9629 100.285C96.5802 102.966 98.4909 104.937 100.717 106.081C102.985 107.247 105.383 107.451 107.733 106.919L106.629 102.043C105.315 102.34 104.13 102.214 103.003 101.634C101.834 101.033 100.538 99.8462 99.244 97.7023L94.9629 100.285ZM119.809 117.03C118.878 119.217 118.209 121.776 119.714 124.271C121.023 126.44 123.686 127.97 127.167 129.453L129.126 124.853C125.602 123.352 124.385 122.334 123.995 121.688C123.803 121.369 123.618 120.847 124.409 118.989L119.809 117.03ZM127.167 129.453C130.867 131.029 134.099 130.218 136.477 128.554C138.725 126.98 140.193 124.681 140.898 123.025L136.298 121.066C135.855 122.107 134.899 123.555 133.61 124.458C132.449 125.27 131.03 125.664 129.126 124.853L127.167 129.453ZM132.941 71.0553C147.464 67.7681 156.535 73.2819 162.803 78.7767L166.099 75.0168C159.109 68.8898 148.455 62.4171 131.837 66.1787L132.941 71.0553ZM162.803 78.7767C165.971 81.5536 169.304 85.3472 171.053 89.5023C172.758 93.5497 172.937 97.8247 170.084 102.093L174.24 104.872C178.227 98.9093 177.866 92.797 175.662 87.562C173.503 82.4348 169.56 78.0508 166.099 75.0168L162.803 78.7767ZM118.114 76.412C115.031 81.1784 115.623 87.8284 118.367 93.6499C121.162 99.5814 126.42 105.237 133.681 108.329L135.64 103.729C129.592 101.153 125.202 96.4259 122.89 91.5184C120.525 86.501 120.548 81.8556 122.312 79.1273L118.114 76.412ZM91.2921 65.4507C89.2566 70.2293 88.1495 74.3032 88.9167 77.7438C89.7529 81.4936 92.5929 83.7485 96.3755 85.3597L98.3349 80.7596C95.1853 79.418 94.1207 78.1076 93.7969 76.6556C93.4042 74.8945 93.8816 72.1301 95.8922 67.4101L91.2921 65.4507ZM104.134 85.0148C104.449 86.5425 104.225 86.8757 104.163 86.9658C103.994 87.2094 103.433 87.7019 101.416 88.423L103.1 93.1311C105.17 92.3908 107.127 91.4716 108.276 89.8081C109.532 87.9911 109.426 85.9216 109.031 84.0058L104.134 85.0148ZM101.416 88.423C100.886 88.6125 100.285 88.8086 99.6023 89.0178L101.067 93.7985C101.797 93.5749 102.475 93.3544 103.1 93.1311L101.416 88.423ZM96.3755 85.3597C98.6969 86.3485 99.5344 87.4774 99.8432 88.1959C100.176 88.9697 100.043 89.5969 99.958 89.7974L104.558 91.7568C105.149 90.3691 105.338 88.3187 104.437 86.2214C103.512 84.0688 101.559 82.1331 98.3349 80.7596L96.3755 85.3597ZM120.57 44.0531C118.66 44.4853 116.988 45.7901 115.986 47.6268L120.376 50.0206C120.743 49.348 121.269 49.0212 121.673 48.9298L120.57 44.0531ZM115.986 47.6268C114.571 50.2214 114.565 53.6626 116.414 57.319L120.876 55.0627C119.604 52.5467 119.909 50.8769 120.376 50.0206L115.986 47.6268ZM117.486 63.2719C116.464 60.9601 116.805 58.092 117.735 55.3646C118.647 52.6911 119.966 50.6256 120.216 50.2766L116.147 47.3707C115.672 48.036 114.1 50.5321 113.003 53.7504C111.923 56.9148 111.134 61.2688 112.912 65.2925L117.486 63.2719ZM99.6023 89.0178C97.9157 89.5345 96.3929 90.0685 95.2672 90.7711C94.0217 91.5486 92.9308 92.7557 92.843 94.5811L97.8373 94.8211C97.8331 94.9081 97.7948 95.0389 97.7252 95.1389C97.6787 95.2056 97.6904 95.1527 97.9148 95.0126C98.42 94.6973 99.359 94.3217 101.067 93.7985L99.6023 89.0178ZM92.843 94.5811C92.7926 95.6311 93.0995 96.6219 93.4608 97.4703C93.8305 98.3386 94.357 99.281 94.9629 100.285L99.244 97.7023C98.6691 96.7494 98.2898 96.0485 98.061 95.5113C97.8237 94.9541 97.8394 94.7772 97.8373 94.8211L92.843 94.5811ZM93.0621 93.6713C92.1134 95.7698 91.2701 97.3583 90.5597 98.7598C89.8885 100.084 89.2382 101.417 88.9464 102.735C88.618 104.218 88.7414 105.646 89.4367 107.128C90.0685 108.475 91.1364 109.783 92.4848 111.198L96.1042 107.748C94.8365 106.418 94.2377 105.589 93.9634 105.005C93.7526 104.555 93.7304 104.257 93.8282 103.816C93.9625 103.209 94.3101 102.42 95.0195 101.02C95.6897 99.6981 96.6097 97.9618 97.6182 95.731L93.0621 93.6713ZM92.4848 111.198C95.9645 114.848 100.903 114.807 104.557 114.708C106.558 114.654 108.246 114.565 109.81 114.706C111.336 114.843 112.42 115.183 113.214 115.775L116.202 111.766C114.365 110.396 112.236 109.904 110.259 109.726C108.319 109.551 106.214 109.662 104.423 109.71C100.494 109.816 97.8568 109.587 96.1042 107.748L92.4848 111.198ZM115.627 130.187C117.866 133.008 121.184 135.42 124.651 136.617C128.088 137.804 132.205 137.943 135.387 135.272L132.173 131.442C130.87 132.536 128.844 132.776 126.283 131.891C123.752 131.017 121.214 129.184 119.543 127.078L115.627 130.187ZM135.387 135.272C137.538 133.468 139.044 130.794 139.955 128.203L135.238 126.545C134.505 128.629 133.406 130.407 132.173 131.442L135.387 135.272ZM139.955 128.203C140.672 126.164 141.081 124.006 141.098 122.068L136.098 122.024C136.087 123.336 135.799 124.948 135.238 126.545L139.955 128.203ZM136.965 129.793C139.464 130.446 141.521 130.899 143.116 131.284C144.759 131.681 145.918 132.005 146.897 132.422C148.672 133.179 150.123 134.342 152.568 137.712L156.615 134.775C153.923 131.066 151.822 129.086 148.856 127.822C147.465 127.23 145.957 126.826 144.289 126.424C142.572 126.009 140.674 125.594 138.228 124.955L136.965 129.793ZM152.568 137.712C155.514 141.772 159.368 143.926 163.025 144.672C166.57 145.396 170.188 144.831 172.526 143.057L169.505 139.074C168.631 139.736 166.606 140.3 164.025 139.773C161.557 139.27 158.805 137.794 156.615 134.775L152.568 137.712ZM170.944 125.235C171.927 127.549 172.291 128.879 172.294 129.645L177.294 129.619C177.285 127.734 176.514 125.558 175.546 123.279L170.944 125.235ZM172.294 129.645C172.296 129.886 172.257 129.971 172.257 129.972C172.256 129.974 172.257 129.972 172.257 129.973C172.256 129.974 172.243 129.99 172.206 130.019C172.005 130.175 171.412 130.47 169.937 130.676L170.629 135.628C172.357 135.387 174.024 134.943 175.282 133.961C176.724 132.836 177.303 131.275 177.294 129.619L172.294 129.645ZM172.526 143.057C174.695 141.412 176.177 138.694 176.964 136.204C177.369 134.922 177.627 133.589 177.683 132.329C177.737 131.105 177.609 129.758 177.063 128.58L172.526 130.683C172.608 130.86 172.723 131.314 172.688 132.108C172.654 132.865 172.491 133.764 172.196 134.697C171.583 136.638 170.547 138.283 169.505 139.074L172.526 143.057ZM118.579 109.621C120.644 110.977 121.019 111.929 121.102 112.5C121.217 113.279 120.958 114.283 120.19 116.129L124.807 118.048C125.535 116.298 126.389 114.091 126.049 111.774C125.679 109.25 124.033 107.221 121.324 105.442L118.579 109.621ZM120.19 116.129C120.07 116.418 119.943 116.715 119.809 117.03L124.409 118.989C124.542 118.678 124.677 118.361 124.807 118.048L120.19 116.129ZM120.06 128.983C120.221 127.848 120.646 125.886 121.383 123.876C122.136 121.824 123.117 119.991 124.255 118.868L120.743 115.309C118.832 117.195 117.539 119.836 116.689 122.155C115.823 124.517 115.316 126.822 115.109 128.282L120.06 128.983ZM196.113 112.81C194.417 118.611 192.152 121.49 189.972 122.782C187.859 124.034 185.316 124.094 182.301 123.053L180.67 127.78C184.549 129.118 188.735 129.327 192.521 127.083C196.239 124.879 199.04 120.616 200.912 114.213L196.113 112.81ZM173.701 113.639C172.999 114.217 172.143 114.882 171.615 115.332C171.038 115.825 170.361 116.456 169.895 117.291C168.805 119.24 169.388 121.259 170.097 123.145L174.778 121.388C174.049 119.448 174.395 119.487 174.26 119.73C174.257 119.734 174.282 119.689 174.38 119.583C174.481 119.474 174.631 119.332 174.862 119.134C175.406 118.67 175.918 118.29 176.879 117.498L173.701 113.639ZM170.097 123.145C170.33 123.768 170.615 124.462 170.944 125.235L175.546 123.279C175.227 122.531 174.974 121.912 174.778 121.388L170.097 123.145ZM182.307 123.056L173.259 119.906L171.615 124.628L180.663 127.778L182.307 123.056ZM183.024 95.5065C183.081 97.4243 183.382 99.0742 184.148 100.5L188.553 98.1339C188.299 97.6611 188.067 96.8795 188.022 95.3569L183.024 95.5065ZM184.148 100.5C185 102.085 186.262 103.087 187.604 103.904C188.829 104.649 190.548 105.471 192.209 106.363L194.574 101.958C192.549 100.871 191.299 100.299 190.202 99.6321C189.222 99.0358 188.806 98.6056 188.553 98.1339L184.148 100.5ZM186.953 101.744C188.042 101.473 190.015 100.851 191.914 100.101C192.869 99.7244 193.85 99.298 194.716 98.8475C195.529 98.4249 196.446 97.8782 197.109 97.212L193.566 93.6843C193.469 93.7813 193.123 94.0402 192.409 94.4115C191.749 94.755 190.939 95.1108 190.078 95.4505C188.345 96.1345 186.585 96.6832 185.749 96.8907L186.953 101.744ZM193.993 81.527C194.299 82.0335 194.421 82.4132 194.465 82.6761C194.507 82.9285 194.486 83.1223 194.437 83.2895L199.231 84.7105C199.784 82.8443 199.439 80.8738 198.274 78.944L193.993 81.527ZM194.437 83.2895C194.309 83.7194 193.883 84.293 192.941 84.9339C192.035 85.5497 190.935 86.0361 189.966 86.4048L191.745 91.0779C192.846 90.6586 194.37 90.0088 195.753 89.0683C197.099 88.1527 198.626 86.7496 199.231 84.7105L194.437 83.2895ZM195.337 97.9481C196.607 97.9481 197.453 97.2096 197.896 96.6286C198.319 96.0739 198.565 95.4403 198.722 94.9318C199.043 93.8879 199.213 92.5939 199.31 91.349C199.508 88.8093 199.444 85.8243 199.329 83.8547L194.338 84.1453C194.445 85.9917 194.499 88.7308 194.325 90.9612C194.236 92.1013 194.099 92.9538 193.943 93.4602C193.861 93.7268 193.826 93.7193 193.92 93.5969C194.033 93.4481 194.501 92.9481 195.337 92.9481L195.337 97.9481ZM128.921 79.2737C136.17 76.911 147.804 75.096 155.706 83.2408L159.294 79.7592C149.196 69.3499 134.83 72.089 127.372 74.5198L128.921 79.2737ZM141.247 84.6159C139.671 85.1137 138.718 86.4449 138.257 87.6259C137.769 88.8769 137.644 90.3772 138.029 91.8576C138.864 95.071 141.83 97.4983 146.779 97.9383L147.221 92.958C143.769 92.651 143.033 91.2335 142.868 90.5993C142.752 90.1558 142.802 89.7316 142.915 89.4442C143.054 89.0868 143.128 89.2657 142.753 89.3841L141.247 84.6159ZM146.779 97.9383C148.169 98.0619 149.86 97.8151 151.294 96.9275C152.849 95.9656 154 94.2893 154 92L149 92C149 92.2657 148.942 92.3898 148.91 92.4437C148.874 92.5057 148.806 92.5874 148.663 92.676C148.333 92.8805 147.774 93.0071 147.221 92.958L146.779 97.9383Z" fill="#3E3939"/>
</svg>
