<?xml version="1.0" standalone="no"?>
<!DOCTYPE svg PUBLIC "-//W3C//DTD SVG 20010904//EN"
 "http://www.w3.org/TR/2001/REC-SVG-20010904/DTD/svg10.dtd">
<svg version="1.0" xmlns="http://www.w3.org/2000/svg"
 width="700.000000pt" height="700.000000pt" viewBox="0 0 700.000000 700.000000"
 preserveAspectRatio="xMidYMid meet">
<metadata>
Created by potrace 1.11, written by Peter Selinger 2001-2013
</metadata>
<g transform="translate(0.000000,700.000000) scale(0.100000,-0.100000)"
fill="#000000" stroke="none">
<path d="M0 3500 l0 -3500 3500 0 3500 0 0 3500 0 3500 -3500 0 -3500 0 0
-3500z m4087 1810 c138 -201 252 -368 252 -372 1 -5 -64 -8 -143 -8 l-145 0
-223 147 c-123 80 -228 146 -233 146 -6 0 -111 -66 -234 -146 l-223 -147 -145
0 c-84 0 -143 4 -141 9 2 5 116 174 253 375 l250 366 240 -3 240 -2 252 -365z
m-212 -849 c293 -61 520 -172 699 -342 193 -183 315 -421 367 -719 29 -163 29
-439 0 -602 -106 -596 -492 -1019 -1061 -1164 -171 -43 -223 -46 -862 -51
l-618 -5 1 58 c0 33 19 378 42 769 l42 710 -42 645 c-23 355 -42 664 -43 688
l0 43 683 -3 c666 -4 685 -4 792 -27z"/>
<path d="M3060 3977 c0 -19 -12 -219 -26 -443 l-25 -409 26 -495 c14 -272 28
-515 31 -538 l6 -44 276 5 c301 5 351 12 489 67 303 121 492 395 544 788 17
125 6 375 -21 477 -70 273 -255 474 -512 559 -153 51 -205 57 -505 63 l-283 5
0 -35z"/>
</g>
</svg>
