<svg width="1280" height="1280" viewBox="0 0 1280 1280" fill="none" xmlns="http://www.w3.org/2000/svg">
<circle cx="640" cy="640" r="640" fill="#FF8A01"/>
<path d="M337 580.584L340.659 636.99L337 699.416H370.57C403.505 699.416 418.301 681.67 418.301 664.242C418.301 652.358 411.778 640.317 393.163 637.148V635.564C406.687 632.553 414.801 622.571 414.801 609.421C414.801 592.626 400.163 580.584 372.161 580.584H337ZM362.138 636.99L364.525 600.39H370.889C385.844 600.39 391.413 607.995 391.413 615.917C391.413 626.532 384.731 630.494 375.184 632.236V641.426C384.571 642.852 394.436 648.239 394.436 660.439C394.436 672.797 386.799 680.403 373.116 680.403H364.684L362.138 636.99Z" fill="white"/>
<path d="M438.614 699.416H467.252L463.752 636.99L467.252 580.584H438.614L442.273 636.99L438.614 699.416Z" fill="white"/>
<path d="M585.273 699.416H590.205L595.297 580.584H567.295L572.863 656.636L499.677 580.584H494.744L491.562 699.416H519.564L512.882 624.631L585.273 699.416Z" fill="white"/>
<path d="M680.718 579C639.034 579 615.487 601.974 615.487 639.525C615.487 678.184 642.534 701 677.377 701C693.128 701 707.925 696.722 720.016 688.325L722.88 640.317H687.878V641.901L704.584 675.332C698.538 679.452 688.196 681.353 678.491 681.353C652.875 681.353 639.034 662.657 639.034 638.099C639.034 610.53 657.012 600.39 678.491 600.39C696.628 600.39 709.993 606.886 717.789 612.748H719.38L716.039 582.961C709.993 581.377 692.174 579 680.718 579Z" fill="white"/>
<path d="M798.205 701C834.321 701 857.868 669.945 857.868 639.525C857.868 602.132 832.094 579 798.205 579C764.316 579 738.542 602.132 738.542 639.525C738.542 670.738 762.089 701 798.205 701ZM798.205 681.987C777.363 681.67 762.089 663.449 762.089 639.842C762.089 616.234 776.408 600.073 798.205 600.39C820.002 600.231 834.162 615.917 834.321 640C834.321 663.449 818.888 681.829 798.205 681.987Z" fill="white"/>
<path d="M915.157 580.584L920.408 659.33H937.75L943 580.584H915.157ZM928.999 701C936.318 701 942.523 695.771 942.523 687.374C942.523 678.818 936.318 673.748 928.999 673.748C921.999 673.748 915.634 678.818 915.634 687.374C915.634 695.771 921.999 701 928.999 701Z" fill="white"/>
</svg>
