<svg width="800" height="162" viewBox="0 0 800 162" fill="none" xmlns="http://www.w3.org/2000/svg">
<path d="M0 2.1L4.83 76.86L0 159.6H44.31C87.78 159.6 107.31 136.08 107.31 112.98C107.31 97.23 98.7 81.27 74.13 77.07V74.97C91.98 70.98 102.69 57.75 102.69 40.32C102.69 18.06 83.37 2.1 46.41 2.1H0ZM33.18 76.86L36.33 28.35H44.73C64.47 28.35 71.82 38.43 71.82 48.93C71.82 63 63 68.25 50.4 70.56V82.74C62.79 84.63 75.81 91.77 75.81 107.94C75.81 124.32 65.73 134.4 47.67 134.4H36.54L33.18 76.86Z" fill="white"/>
<path d="M134.121 159.6H171.921L167.301 76.86L171.921 2.1H134.121L138.951 76.86L134.121 159.6Z" fill="white"/>
<path d="M327.698 159.6H334.208L340.928 2.1H303.968L311.318 102.9L214.718 2.1H208.208L204.008 159.6H240.968L232.148 60.48L327.698 159.6Z" fill="white"/>
<path d="M453.677 0C398.657 0 367.577 30.45 367.577 80.22C367.577 131.46 403.277 161.7 449.267 161.7C470.057 161.7 489.587 156.03 505.547 144.9L509.327 81.27H463.127V83.37L485.177 127.68C477.197 133.14 463.547 135.66 450.737 135.66C416.927 135.66 398.657 110.88 398.657 78.33C398.657 41.79 422.387 28.35 450.737 28.35C474.677 28.35 492.317 36.96 502.607 44.73H504.707L500.297 5.25001C492.317 3.15 468.797 0 453.677 0Z" fill="white"/>
<path d="M608.749 161.7C656.419 161.7 687.499 120.54 687.499 80.22C687.499 30.66 653.479 0 608.749 0C564.019 0 529.999 30.66 529.999 80.22C529.999 121.59 561.079 161.7 608.749 161.7ZM608.749 136.5C581.239 136.08 561.079 111.93 561.079 80.64C561.079 49.35 579.979 27.93 608.749 28.35C637.519 28.14 656.209 48.93 656.419 80.85C656.419 111.93 636.049 136.29 608.749 136.5Z" fill="white"/>
<path d="M763.115 2.1L770.045 106.47H792.935L799.865 2.1H763.115ZM781.385 161.7C791.045 161.7 799.235 154.77 799.235 143.64C799.235 132.3 791.045 125.58 781.385 125.58C772.145 125.58 763.745 132.3 763.745 143.64C763.745 154.77 772.145 161.7 781.385 161.7Z" fill="white"/>
</svg>
