<svg width="349" height="289" viewBox="0 0 349 289" fill="none" xmlns="http://www.w3.org/2000/svg">
<g clip-path="url(#clip0)">
<rect x="116.931" y="90.4926" width="46" height="137" transform="rotate(-2.71613 116.931 90.4926)" fill="#C5ADA6"/>
<rect x="222.631" y="102.551" width="29" height="126" transform="rotate(1.8036 222.631 102.551)" fill="#C5ADA6"/>
<rect x="249.36" y="138.617" width="35.7588" height="94.3012" transform="rotate(-5.20274 249.36 138.617)" fill="#DCC9C3"/>
<rect x="89.1157" y="144.277" width="27.8948" height="104" transform="rotate(-0.625601 89.1157 144.277)" fill="#C5ADA6"/>
<rect x="-38.179" y="91.8444" width="46" height="139" transform="rotate(-2.71613 -38.179 91.8444)" fill="#C5ADA6"/>
<rect x="35.5803" y="76.1697" width="19" height="154" transform="rotate(-1.66118 35.5803 76.1697)" fill="#C5ADA6"/>
<rect x="66.1252" y="78.8908" width="19" height="154" transform="rotate(-1.68694 66.1252 78.8908)" fill="#F4F1F0"/>
<rect x="20.2261" y="120.109" width="16" height="104" transform="rotate(-2.71613 20.2261 120.109)" fill="#DCC9C3"/>
<rect x="207.797" y="49.2382" width="30" height="176.26" transform="rotate(1.53958 207.797 49.2382)" fill="#F4F1F0"/>
<rect x="93.5161" y="137.247" width="25" height="92" transform="rotate(-0.720025 93.5161 137.247)" stroke="#3E3939" stroke-width="5" stroke-linecap="round" stroke-linejoin="round"/>
<rect x="60.5781" y="84.5916" width="18.0908" height="146.274" transform="rotate(-3.69091 60.5781 84.5916)" stroke="#3E3939" stroke-width="5" stroke-linecap="round" stroke-linejoin="round"/>
<rect x="42.2415" y="69.7005" width="18.0908" height="160.59" transform="rotate(-0.720025 42.2415 69.7005)" stroke="#3E3939" stroke-width="5" stroke-linecap="round" stroke-linejoin="round"/>
<rect x="24.5864" y="130.648" width="18.0908" height="99.5079" transform="rotate(2.25218 24.5864 130.648)" fill="#DCC9C3" stroke="#3E3939" stroke-width="5" stroke-linecap="round" stroke-linejoin="round"/>
<rect x="125.027" y="98.1176" width="45.4924" height="130.2" transform="rotate(0.779827 125.027 98.1176)" stroke="#3E3939" stroke-width="5" stroke-linecap="round" stroke-linejoin="round"/>
<rect x="175.786" y="120.09" width="23.361" height="109.586" transform="rotate(-1.37947 175.786 120.09)" fill="#DCC9C3" stroke="#3E3939" stroke-width="5" stroke-linecap="round" stroke-linejoin="round"/>
<rect x="-19.2202" y="97.4303" width="32.6234" height="134.899" transform="rotate(-1.37947 -19.2202 97.4303)" stroke="#3E3939" stroke-width="5" stroke-linecap="round" stroke-linejoin="round"/>
<rect x="212.303" y="58.9377" width="15.0162" height="170.953" transform="rotate(-0.0423224 212.303 58.9377)" fill="#F4F1F0" stroke="#3E3939" stroke-width="5" stroke-linecap="round" stroke-linejoin="round"/>
<rect x="235.915" y="105.872" width="21.3369" height="121.895" transform="rotate(3.56477 235.915 105.872)" stroke="#3E3939" stroke-width="5" stroke-linecap="round" stroke-linejoin="round"/>
<rect x="255.361" y="143.005" width="39.0126" height="87.3163" transform="rotate(-2.73501 255.361 143.005)" stroke="#3E3939" stroke-width="5" stroke-linecap="round" stroke-linejoin="round"/>
<rect x="-60.8162" y="225.538" width="387.151" height="20.8533" transform="rotate(0.177451 -60.8162 225.538)" fill="#645147" stroke="#3E3939" stroke-width="5" stroke-linecap="round" stroke-linejoin="round"/>
<path opacity="0.5" d="M140.565 124.411L139.67 211.051" stroke="white" stroke-width="8" stroke-linecap="round"/>
<path opacity="0.5" d="M153.26 149.337L152.702 211.433" stroke="white" stroke-width="8" stroke-linecap="round"/>
<path opacity="0.5" d="M270.821 158.711L273.721 216.206" stroke="#A89794" stroke-width="8" stroke-linecap="round"/>
<path opacity="0.5" d="M284.912 173.795L287.077 214.993" stroke="#A89794" stroke-width="8" stroke-linecap="round"/>
<path opacity="0.5" d="M-7.83206 126.565L-6.08539 213.192" stroke="white" stroke-width="6" stroke-linecap="round"/>
<path opacity="0.5" d="M3.62 151.187L4.95551 213.272" stroke="white" stroke-width="6" stroke-linecap="round"/>
<path opacity="0.5" d="M105.362 152.611L105.779 214.16" stroke="#756565" stroke-width="6" stroke-linecap="round"/>
<path opacity="0.5" d="M188.436 141.662L189.993 216.672" stroke="#756565" stroke-width="6" stroke-linecap="round"/>
<path opacity="0.5" d="M244.707 135.488L239.484 215.325" stroke="#756565" stroke-width="6" stroke-linecap="round"/>
<path opacity="0.5" d="M51.9458 155.645L52.7676 215.173" stroke="white" stroke-width="4" stroke-linecap="round"/>
<path opacity="0.5" d="M32.0391 158.091L30.1268 212.743" stroke="#947870" stroke-width="4" stroke-linecap="round"/>
<path opacity="0.5" d="M51.3881 80.5874L51.789 99.5898" stroke="white" stroke-width="4" stroke-linecap="round"/>
<path opacity="0.5" d="M220.137 156.673L220.606 216.205" stroke="#C5ADA6" stroke-width="4" stroke-linecap="round"/>
<path opacity="0.5" d="M220.024 81.6133L220.312 100.618" stroke="#C5ADA6" stroke-width="4" stroke-linecap="round"/>
<path d="M71.2397 119.19L77.7867 214.987" stroke="#C5ADA6" stroke-width="4" stroke-linecap="round"/>
</g>
<defs>
<clipPath id="clip0">
<rect width="349" height="289" fill="white"/>
</clipPath>
</defs>
</svg>
