<svg width="349" height="289" viewBox="0 0 349 289" fill="none" xmlns="http://www.w3.org/2000/svg">
<g clip-path="url(#clip0)">
<rect width="46" height="137" transform="matrix(-0.998436 -0.0559035 -0.0559035 0.998436 234.639 90.5972)" fill="#9B8078"/>
<rect width="29" height="126" transform="matrix(-0.999737 0.0229496 0.0229496 0.999737 128.841 101.753)" fill="#C5ADA6"/>
<rect width="35.7588" height="94.3012" transform="matrix(-0.995071 -0.0991688 -0.0991688 0.995071 101.805 137.591)" fill="#F5E7E3"/>
<rect width="27.8948" height="104" transform="matrix(-0.999811 -0.0194448 -0.0194448 0.999811 261.995 144.617)" fill="#C5ADA6"/>
<rect width="46" height="139" transform="matrix(-0.998436 -0.0559035 -0.0559035 0.998436 389.732 93.2716)" fill="#E5CBC3"/>
<rect width="19" height="154" transform="matrix(-0.999296 -0.0375114 -0.0375114 0.999296 316.109 76.9685)" fill="#C5ADA6"/>
<rect width="19" height="154" transform="matrix(-0.999279 -0.0379608 -0.0379608 0.999279 285.542 79.4291)" fill="#F4F1F0"/>
<rect width="16" height="104" transform="matrix(-0.998436 -0.0559035 -0.0559035 0.998436 331.088 121.037)" fill="#DCC9C3"/>
<rect width="30" height="176.26" transform="matrix(-0.99885 -0.0479435 -0.0479435 0.99885 157.056 50.0515)" fill="#F4F1F0"/>
<rect width="25" height="92" transform="matrix(-0.999777 -0.0210924 -0.0210924 0.999777 257.655 137.55)" stroke="#3E3939" stroke-width="5" stroke-linecap="round" stroke-linejoin="round"/>
<rect width="18.0908" height="146.274" transform="matrix(-0.997341 -0.0728811 -0.0728811 0.997341 291.041 85.1769)" stroke="#3E3939" stroke-width="5" stroke-linecap="round" stroke-linejoin="round"/>
<rect width="18.0908" height="160.59" transform="matrix(-0.999777 -0.0210924 -0.0210924 0.999777 309.504 70.4428)" stroke="#3E3939" stroke-width="5" stroke-linecap="round" stroke-linejoin="round"/>
<rect width="18.0908" height="99.5079" transform="matrix(-0.999526 0.030776 0.030776 0.999526 326.638 131.538)" fill="#B3978E" stroke="#3E3939" stroke-width="5" stroke-linecap="round" stroke-linejoin="round"/>
<rect width="45.4924" height="130.2" transform="matrix(-0.999987 0.00508332 0.00508332 0.999987 226.479 98.1529)" stroke="#3E3939" stroke-width="5" stroke-linecap="round" stroke-linejoin="round"/>
<rect width="23.361" height="109.586" transform="matrix(-0.999469 -0.0325977 -0.0325977 0.999469 175.534 119.691)" fill="#B3978E" stroke="#3E3939" stroke-width="5" stroke-linecap="round" stroke-linejoin="round"/>
<rect width="32.6234" height="134.899" transform="matrix(-0.999469 -0.0325977 -0.0325977 0.999469 370.727 98.6956)" stroke="#3E3939" stroke-width="5" stroke-linecap="round" stroke-linejoin="round"/>
<rect width="15.0162" height="170.953" transform="matrix(-0.997146 -0.0754994 -0.0754994 0.997146 151.837 59.3869)" fill="#E5CBC3" stroke="#3E3939" stroke-width="5" stroke-linecap="round" stroke-linejoin="round"/>
<rect width="21.3369" height="121.895" transform="matrix(-0.998559 0.053664 0.053664 0.998559 115.529 104.961)" stroke="#3E3939" stroke-width="5" stroke-linecap="round" stroke-linejoin="round"/>
<rect width="39.0126" height="87.3163" transform="matrix(-0.998418 -0.0562325 -0.0562325 0.998418 95.7671 141.927)" stroke="#3E3939" stroke-width="5" stroke-linecap="round" stroke-linejoin="round"/>
<rect width="387.151" height="20.8533" transform="matrix(-0.999985 -0.00543008 -0.00543008 0.999985 411.229 227.153)" fill="#645147" stroke="#3E3939" stroke-width="5" stroke-linecap="round" stroke-linejoin="round"/>
<path opacity="0.5" d="M210.717 124.313L210.874 210.957" stroke="white" stroke-width="8" stroke-linecap="round"/>
<path opacity="0.5" d="M197.81 149.13L197.838 211.229" stroke="white" stroke-width="8" stroke-linecap="round"/>
<path opacity="0.5" d="M80.1735 157.501L76.783 214.969" stroke="#A89794" stroke-width="8" stroke-linecap="round"/>
<path opacity="0.5" d="M65.9539 172.464L63.4383 213.642" stroke="#A89794" stroke-width="8" stroke-linecap="round"/>
<path opacity="0.5" d="M359.09 127.732L356.605 214.341" stroke="white" stroke-width="6" stroke-linecap="round"/>
<path opacity="0.5" d="M347.429 152.256L345.564 214.327" stroke="white" stroke-width="6" stroke-linecap="round"/>
<path opacity="0.5" d="M245.679 152.812L244.737 214.355" stroke="#756565" stroke-width="6" stroke-linecap="round"/>
<path opacity="0.5" d="M162.7 141.155L160.505 216.149" stroke="#756565" stroke-width="6" stroke-linecap="round"/>
<path opacity="0.5" d="M106.485 134.502L111.026 214.38" stroke="#756565" stroke-width="6" stroke-linecap="round"/>
<path opacity="0.5" d="M299.067 156.302L297.738 215.82" stroke="white" stroke-width="4" stroke-linecap="round"/>
<path opacity="0.5" d="M318.952 158.917L320.398 213.584" stroke="#947870" stroke-width="4" stroke-linecap="round"/>
<path opacity="0.5" d="M300.264 81.2513L299.702 100.25" stroke="white" stroke-width="4" stroke-linecap="round"/>
<path opacity="0.5" d="M136.724 156.207L132.034 215.556" stroke="#C5ADA6" stroke-width="4" stroke-linecap="round"/>
<path opacity="0.5" d="M142.443 81.4219L140.735 100.352" stroke="#C5ADA6" stroke-width="4" stroke-linecap="round"/>
<path d="M280.084 119.683L272.721 215.421" stroke="#C5ADA6" stroke-width="4" stroke-linecap="round"/>
</g>
<defs>
<clipPath id="clip0">
<rect width="349" height="289" fill="white"/>
</clipPath>
</defs>
</svg>
