<svg width="28" height="28" viewBox="0 0 28 28" fill="none" xmlns="http://www.w3.org/2000/svg">
<g clip-path="url(#clip0)">
<path d="M22.268 20.8135C25.5795 15.0777 23.0528 9.51532 18.2927 6.76708C16.4995 5.73179 14.8382 5.1457 13.7886 5.00603L13 10.4025C13.9163 10.5965 14.7828 10.9427 15.6723 11.4563C17.9546 12.7739 18.9415 15.5821 17.2656 18.485C15.4685 21.5976 12.456 22.7496 9.71729 21.1684C8.05452 20.2084 6.98343 18.7506 6.40603 17.7178L6.08 17.5295L4.89161 20.3408C5.1024 22.2346 6.55379 24.2383 8.57519 25.4054C13.1397 28.0407 18.6737 27.0389 22.268 20.8135Z" fill="#F8F8F8"/>
<path d="M11.7898 15.2764L8.51266 5.09445L8.67292 4.81688L19.1294 2.564L22.7316 4.64376L15.8985 6.99012L14.0075 10.2654L15.3921 17.3562L11.7898 15.2764Z" fill="#F8F8F8"/>
</g>
<defs>
<clipPath id="clip0">
<rect width="28" height="28" fill="white"/>
</clipPath>
</defs>
</svg>
