<svg width="200" height="200" viewBox="0 0 200 200" fill="none" xmlns="http://www.w3.org/2000/svg">
<mask id="mask0" mask-type="alpha" maskUnits="userSpaceOnUse" x="0" y="0" width="200" height="200">
<circle cx="100" cy="100" r="100" fill="#E1D9D7"/>
</mask>
<g mask="url(#mask0)">
<circle cx="100" cy="100" r="100" fill="#E5CBC3"/>
<circle cx="100" cy="100" r="100" fill="url(#paint0_radial)"/>
<path d="M70.5001 31C74.5001 28 75.0001 25.5 82.5001 33C88.5001 39 103.051 54.5 109.551 61C110.812 59.8048 111.902 59 112.5 59C114.5 59 129.5 67.5 129.5 69C129.5 70.5 130.5 81 127.5 81C126.984 81 125.92 80.9852 124.5 80.9734C124.17 81.7942 124.104 82.4611 124.228 83C124.709 85.0732 128.016 85.2505 130 85C130.667 85 132.7 85.4 135.5 87C133.834 88.8513 130.385 90.2228 126.5 91.216C122.273 92.2963 117.529 92.9291 114 93.2448C112.011 93.4227 110.408 93.5 109.5 93.5C106.3 93.5 109.167 90.5 111 89L108 86L124.228 83C124.104 82.4611 124.17 81.7942 124.5 80.9734C125.92 80.9852 126.984 81 127.5 81C130.5 81 129.5 70.5 129.5 69C129.5 67.5 114.5 59 112.5 59C111.902 59 110.812 59.8048 109.551 61C107.305 63.129 104.517 66.4966 103 68.7598L97.5003 63.5C91.0002 57 79.7001 46.2 74.5001 41C68.0001 34.5 68.0001 35.5 70.5001 31Z" fill="#3E3939"/>
<path fill-rule="evenodd" clip-rule="evenodd" d="M81.5 140C82.1275 139.268 82.3357 138.497 82.2623 137.734C82.6144 134.11 80.3636 128.833 74 133.78C75.2103 133.021 76.7689 132.63 78 132.5C79.6002 133.485 82.0549 135.579 82.2623 137.734C82.1718 138.666 81.9091 139.489 81.5 140Z" fill="#3E3939"/>
<path d="M128 168L133.5 165L138 162C137 155.5 132 149.5 123.5 149.5C116.7 149.5 109 149.5 104 149L94.5564 148.5C94.5385 148.845 94.5197 149.179 94.5 149.5C89.6228 149.224 81.9917 148.795 76 148.467L63 154C80.5003 154.5 96 156.5 106.5 157.5C117 158.5 121 158 124.5 161.5C125.667 163.333 128 167.2 128 168Z" fill="#3E3939"/>
<path d="M109.551 61C103.051 54.5 88.5001 39 82.5001 33C75.0001 25.5 74.5001 28 70.5001 31C68.0001 35.5 68.0001 34.5 74.5001 41C79.7001 46.2 91.0002 57 97.5003 63.5L103 68.7598M109.551 61C110.812 59.8048 111.902 59 112.5 59M109.551 61C107.305 63.129 104.517 66.4966 103 68.7598M112.5 59C114.5 59 129.5 67.5 129.5 69C129.5 70.5 130.5 81 127.5 81C126.984 81 125.92 80.9852 124.5 80.9734M112.5 59C110.837 59 105.369 65.2261 103 68.7598M82.5001 124C82.5001 122.833 82.5001 119.5 82.5001 115.5C82.5001 111.5 84.8336 106.167 86.0003 104C89.3336 97.8333 98.5003 85 100.5 83C102.57 80.9301 117.665 80.9168 124.5 80.9734M67.0003 124V111C66.8336 110.333 67.0003 108.5 69.0003 106.5C71.0003 104.5 84.5003 88.3333 93.0003 78M67.0003 124L91 125C92.9464 125 93.9457 128.868 94.4011 133.78M67.0003 124V128.5C66.667 135 66.2003 148 67.0003 148C67.3586 148 71.14 148.201 76 148.467M98.5003 71C99.5003 70 99.5003 70.5 102 70.5C102.169 70.0793 102.521 69.4747 103 68.7598M126 69C119.5 67.5 115.5 68 111.5 69.5M81.5 140C78.5 143.5 76 142.5 73.5 140.5C71.0551 137.077 72.0971 134.974 74 133.78M81.5 140C81.9091 139.489 82.1718 138.666 82.2623 137.734M81.5 140C82.1275 139.268 82.3357 138.497 82.2623 137.734M74 133.78C75.2103 133.021 76.7689 132.63 78 132.5C79.6002 133.485 82.0549 135.579 82.2623 137.734M74 133.78C80.3636 128.833 82.6144 134.11 82.2623 137.734M63 154C61.5 157 61 159.5 61 164C61 168.5 61 169 63 169C64.6 169 84 168.667 93.5 168.5M63 154C80.5003 154.5 96 156.5 106.5 157.5C117 158.5 121 158 124.5 161.5C125.667 163.333 128 167.2 128 168M63 154L76 148.467M108.5 168.5C122.5 168.5 127.333 168.167 128 168M128 168L133.5 165L138 162C137 155.5 132 149.5 123.5 149.5C116.7 149.5 109 149.5 104 149L94.5564 148.5M84 115.5C89.6976 115.5 94.8519 115.5 99.5 115.5M136.5 115.5C135.933 115.5 125.852 115.5 99.5 115.5M99.5 115.5C98.6667 113.833 98.5 110.4 100.5 110M105 83L108 86M111 89C109.167 90.5 106.3 93.5 109.5 93.5C110.408 93.5 112.011 93.4227 114 93.2448M111 89L129.5 86M111 89L108 86M124.5 80.9734C124.17 81.7942 124.104 82.4611 124.228 83M114 93.2448L115.5 106.5C116.333 107.5 116.5 99.1 116.5 93.5M114 93.2448C117.529 92.9291 122.273 92.2963 126.5 91.216M126.5 91.216C130.385 90.2228 133.834 88.8513 135.5 87C132.7 85.4 130.667 85 130 85C128.016 85.2505 124.709 85.0732 124.228 83M126.5 91.216L130 100.5M103 122H128M122 136C125.5 142 115.5 136 111.5 130L110.25 133.25M120 144C115.6 144.4 111.5 138.5 109 136.5M109 136.5L103.5 133.78M109 136.5L110.25 133.25M94.4011 133.78H103.5M94.4011 133.78C94.8447 138.566 94.7722 144.342 94.5564 148.5M103.5 133.78L106 132L110.25 133.25M108 86L124.228 83M94.5564 148.5C94.5385 148.845 94.5197 149.179 94.5 149.5C89.6228 149.224 81.9917 148.795 76 148.467" stroke="#3E3939" stroke-width="5" stroke-linecap="round" stroke-linejoin="round"/>
</g>
<defs>
<radialGradient id="paint0_radial" cx="0" cy="0" r="1" gradientUnits="userSpaceOnUse" gradientTransform="translate(100 100) rotate(90) scale(100)">
<stop stop-color="#F0EEE7"/>
<stop offset="1" stop-color="#CDC7C0"/>
</radialGradient>
</defs>
</svg>
