<svg width="1599" height="3391" viewBox="0 0 1599 3391" fill="none" xmlns="http://www.w3.org/2000/svg">
<path d="M603 464L613.5 491.5M687 498.5L697 525.5M836.5 543.5C841 600.5 828.5 737.5 830.5 796M836.5 498.5L837.5 454M828 995.5C827.833 1058 827.6 1193.6 828 1236C828.5 1289 824.5 1366 824.5 1409.5C824.5 1453 820 1615.5 820 1664.5C820 1703.7 820 1842.17 820 1906.5C838 1904.83 878.8 1901.2 898 1900C922 1898.5 942 1898.5 944 1891.5C946 1884.5 950.5 1869.5 946 1860C941.5 1850.5 940 1852.5 940 1839C940 1825.5 949 1835 949 1797.5C949 1760 944 1755.5 946.5 1731.5C949 1707.5 942.5 1695.5 955 1681.5C967.5 1667.5 988 1646 1007.5 1639.5C1027 1633 1062.5 1614.5 1084.5 1607.5C1106.5 1600.5 1178.5 1577 1202.5 1561C1226.5 1545 1245 1542.5 1260.5 1503.5C1276 1464.5 1287.5 1459.5 1294.5 1437.5C1301.5 1415.5 1318 1391 1318 1366C1318 1341 1327 1322.5 1318 1286.5C1309 1250.5 1298 1235.5 1290.5 1218C1283 1200.5 1248.5 1133 1216 1095C1183.5 1057 1169 1015.5 1158.5 999.5C1148 983.5 1100 895.5 1087 858.5C1074 821.5 1038.5 749 1032 723M1017 668C1019.8 685.2 1023.5 696.5 1025 700M1014.5 635C1012.75 622.504 1011.43 606.517 1011.5 600M1014.5 565C1014.5 547.8 1016.17 534.5 1017 530M982 940.829C972.408 940.164 962.987 939.5 956 939.5C935 939.5 938 937.5 938 927C933 911 1009.5 919.5 1023.5 919.5C1037.5 919.5 1027 933.5 1023.5 939.5C1021.16 943.504 1001.24 942.164 982 940.829ZM982 940.829C978.333 956.72 969.5 989.9 963.5 995.5C956 1002.5 940 995.5 948 1011C956 1026.5 987.5 1030 994 1026C1000.5 1022 981 1014.5 978.5 1006C976 997.5 983.5 955 987.5 944.5M798.5 873.5C801.5 869.5 824.5 859 828 862C831.5 865 828.5 876.5 830.5 884.5C832.5 892.5 834 909.5 850 927C866 944.5 881.5 968.5 885.5 966.5C889.5 964.5 899.5 942 897 937.5C894.5 933 887.5 930 886.5 919.5C885.5 909 887 909 898.5 909C910 909 923.5 907 923 919.5C922.5 932 909.5 952.5 902 972C894.5 991.5 890 1002 879.5 1002.5C869 1003 863 1005 860.5 999.5C858 994 863.5 988 859 982.5C854.5 977 837 961.5 830.5 947C824 932.5 816.5 915.5 816.5 907C816.5 898.5 814.5 895 809.5 893C804.5 891 798.5 889 798.5 884.5C798.5 880 796 875.626 798.5 873.5ZM1048 935C1043.5 950 1055 949.5 1054.5 963.5C1054 977.5 1048.5 1001 1037 1006C1025.5 1011 1016.5 1011.5 1018.5 1020C1020.5 1028.5 1049.5 1027 1054.5 1020C1059.5 1013 1061.5 981.5 1070 985C1078.5 988.5 1098.5 1026 1120 1026C1141.5 1026 1147 1026.5 1147 1011C1147 995.5 1136 998 1136.5 985C1137 972 1133 1006 1126.5 1006C1120 1006 1091 968.5 1091 963.5C1091 958.5 1108.5 946.5 1105.5 935C1102.5 923.5 1097 922.5 1078.5 923.5C1060 924.5 1052.5 920.5 1048 935ZM1071.5 938.5C1080 933.5 1091 932.659 1091 940.829C1091 949 1081.5 954.5 1074.5 953C1067.5 951.5 1071.5 950 1071.5 938.5Z" stroke="black" stroke-width="10" stroke-linecap="round"/>
<path d="M710.501 629.5C703.501 557.5 710.501 557 670.501 527.5C655.502 513 643.001 511 633.001 515.5C622.002 522 622.001 524.5 633.001 585C646.502 664 627.501 709 600.501 786C573.501 863 533.501 920.5 519.501 940C505.501 959.5 477.001 1006 460.001 1024.5C443.001 1043 424.501 1081 406.501 1103C388.501 1125 385.001 1143.5 361.501 1174C338.001 1204.5 330.502 1227 321.002 1247C311.502 1267 309.502 1292.5 313.002 1333C316.502 1373.5 315.502 1373 339.002 1430C362.502 1487 370.002 1490 394.502 1513C419.002 1536 473.502 1563 498.502 1577.5C523.502 1592 578.502 1605 609.002 1619.5C639.502 1634 651.502 1656 661.002 1671.5C670.502 1687 668.502 1710.5 671.502 1723.5C674.502 1736.5 675.502 1764 675.502 1774C675.502 1784 675.502 1788.5 673.002 1800.5C670.502 1812.5 673.502 1818 675.502 1831.5C677.102 1842.3 684.502 1850.33 688.002 1851C696.402 1853.4 697.502 1857 697.502 1872C697.502 1890 688.002 1898 697.502 1903.5C714.502 1922.5 728.002 1914.5 756.502 1914.5C779.302 1914.5 807.002 1910.17 818.002 1908C819.502 1891.67 822.502 1837.1 822.502 1749.5C822.502 1640 821.502 1507.5 821.502 1490C816.002 1490 794.002 1487 778.502 1482C763.002 1477 747.002 1489 716.502 1467.5C686.002 1446 675.002 1451.5 664.502 1437C654.002 1422.5 635.502 1414.5 604.002 1399.5C572.502 1384.5 567.002 1377.5 557.002 1358C547.002 1338.5 544.501 1314.5 532.501 1294.5C520.501 1274.5 525.001 1272 530.001 1251.5C535.001 1231 541.001 1203.5 536.001 1186.5C531.001 1169.5 536.501 1161.5 541.001 1148.5C545.501 1135.5 547.001 1117.5 549.001 1093.5C551.001 1069.5 575.501 1057 580.001 1029.5C584.501 1002 589.001 959.5 635.001 917C681.001 874.5 699.501 807 710.501 760C721.501 713 717.501 701.5 710.501 629.5Z" fill="black"/>
<path d="M1142.5 2374.5C1152.5 2367.5 1149 2362.5 1154 2362.5M1154 2362.5C1159 2362.5 1172.5 2347 1180.5 2353.5C1188.5 2360 1181.5 2365.5 1177 2371.5C1173.4 2376.3 1171.83 2376.17 1171.5 2375.5M1154 2362.5C1156.12 2363.94 1159.35 2366.17 1162.5 2368.45M1171.5 2375.5C1174.27 2378.27 1178.84 2383.04 1182.68 2387.5M1171.5 2375.5C1169.97 2373.97 1166.29 2371.18 1162.5 2368.45M1182.68 2387.5C1185.53 2390.81 1187.98 2393.96 1189 2396C1190.07 2398.14 1191.52 2400.53 1192.67 2403M1182.68 2387.5C1183.81 2385.68 1185.47 2384.67 1188 2384.05M1338.5 2429C1337 2430.5 1331.5 2434.5 1327 2438C1322.5 2441.5 1320.5 2442 1317.5 2436C1314.5 2430 1317 2428 1307.5 2427.5C1300.23 2427.12 1302.33 2427.61 1303.72 2424.5M1303.72 2424.5C1304.14 2423.55 1304.5 2422.26 1304.5 2420.5C1304.5 2413 1300 2414.5 1296.5 2414.5C1295.54 2414.5 1294.05 2414.76 1292.5 2415.01M1303.72 2424.5C1307.81 2420.17 1314.3 2411.5 1307.5 2411.5C1299 2411.5 1296 2415.52 1292.5 2415.01M1292.5 2415.01C1288.4 2415.67 1283.87 2416.22 1287.5 2411.5C1289.16 2409.35 1290.76 2406.65 1291.94 2404M1291.94 2404C1294.33 2398.65 1295.01 2393.5 1291 2393.5C1285.82 2393.5 1286.6 2398.35 1285.62 2390M1291.94 2404C1296.5 2399.5 1305.5 2395 1300 2390C1294.5 2385 1286.71 2397 1285.62 2390M1285.62 2390C1285.47 2388.68 1285.27 2387.04 1285 2385C1283 2370 1241 2333.5 1233.5 2325.5C1226 2317.5 1221 2321 1213 2325C1205 2329 1192.5 2328 1192.5 2326.5C1186 2322.5 1203.5 2323 1207 2323C1210.5 2323 1219.5 2318.5 1222 2315.5C1224.5 2312.5 1227.5 2306.5 1227.5 2311C1227.5 2315.5 1244.5 2329.5 1249 2336.5C1253.5 2343.5 1268 2356 1279 2367C1287.8 2375.8 1286.67 2379.33 1285 2380M1293 2223.5C1303 2222 1324.5 2226 1319.5 2234C1314.5 2242 1311.5 2242.5 1303.5 2239.5C1295.5 2236.5 1284.5 2232.5 1287 2228.5M951.003 2664.5C950.675 2666.59 950.324 2668.91 950 2671.5C949.26 2677.42 947.495 2681.9 945.69 2685.5C942.614 2691.64 939.425 2695.22 941 2699C942.173 2701.82 945.206 2700.87 947.5 2699C949.794 2697.13 954 2694 957.5 2692.5C961 2691 964 2692 968.5 2688.5C958 2684 952.087 2681.66 954.587 2671.5M951.003 2664.5C951.39 2662.04 952.257 2658.39 952.5 2656.5C953.32 2650.11 955.85 2648.05 951.003 2644.5C943.503 2639 939.5 2635 935 2633C944.859 2633 948.98 2635.88 958.995 2642.5C964.997 2647.66 978.4 2659.26 984 2664.34C988.45 2668.34 991.345 2670.14 998.5 2669C1011 2667 1019 2664 1020.5 2661.5C1022 2659 1025.5 2665.5 1010.5 2673.5C999.542 2679.34 993.985 2683.66 989 2683.75C987.161 2683.79 985.587 2683.21 985 2681.5C981.192 2670.41 978.067 2659.74 967.5 2668C965.864 2669.11 964.235 2669.79 963 2670.69C954.2 2675.64 951.669 2668.63 951.003 2664.5ZM994.5 2581C1003 2581 1005.5 2582 1007.5 2588C1009.5 2594 1003.5 2599.5 1005.5 2606.5C1007.5 2613.5 1008.5 2624.5 1015 2628C1021.5 2631.5 1021 2627 1032.5 2632C1041.7 2636 1049 2636.61 1051.5 2636.41M1051.5 2636.41C1054.89 2636.89 1059.72 2637.38 1059.5 2641.5C1059 2651 1061.5 2655 1065 2642.5C1069.72 2625.64 1048.5 2626 1039.5 2626C1030.5 2626 1026.5 2622 1014.5 2619C1002.5 2616 1011.5 2622.5 1012 2598.5C1012.5 2574.5 1006 2575 991 2575C986.5 2573 998 2593 1000.5 2600.5C1003 2608 1010.5 2626 1020.5 2644.5C1030.5 2663 1016 2675.5 1032.5 2665.5C1045.7 2657.5 1046.33 2652.5 1045 2651C1034.5 2650 1029 2654.5 1026 2645.54C1023 2629.58 1027.5 2634.5 1036 2636C1040.81 2636.85 1047.07 2635.77 1051.5 2636.41ZM1139 2577C1140.5 2581 1123.5 2582 1111 2590C1098.5 2598 1085.5 2608.5 1079.5 2606.5C1077.5 2603.5 1087.5 2598.5 1092.5 2595.5C1097.5 2592.5 1117 2583 1123.5 2577C1130 2571 1137.5 2573 1139 2577ZM1139 2577C1143.67 2574 1143.4 2571.4 1137 2573M1108.5 2624C1105.5 2619.5 1082.5 2582 1079.5 2577M1112.64 2548C1111.29 2550.31 1109.9 2552.75 1108.5 2555C1115 2558 1121 2562 1123.5 2572C1126 2582 1130.5 2581.92 1131 2583C1131.5 2584.08 1137.5 2591.5 1139 2599C1140.5 2606.5 1142.5 2607 1151 2599C1159.5 2591 1148.5 2594.5 1141.5 2588C1134.5 2581.5 1134.5 2572 1128.5 2566C1122.5 2560 1125.5 2557 1123.5 2543.5C1121.93 2532.9 1117.58 2539.56 1112.64 2548ZM1112.64 2548C1116 2552.5 1119 2548.23 1125 2565C1131 2581.77 1142.49 2602 1145 2602M1144 2548.5C1133 2548.5 1141.5 2540 1150 2522.5C1152.5 2515 1152.5 2526 1153.5 2534.5C1154.5 2543 1146.5 2548.44 1161 2545C1175.5 2541.56 1169 2543.5 1169 2550.5C1169 2557.5 1173.5 2552.5 1173.5 2562.5C1173.5 2572.5 1174.5 2572 1184 2565C1193.5 2558 1191 2566 1186.5 2573C1182 2580 1172 2579.5 1169 2577C1166 2574.5 1172.5 2564 1166 2562.5C1159.5 2561 1157 2565 1157 2555C1157 2545 1155 2548.5 1144 2548.5ZM1144 2548.5C1141.2 2548.59 1143.5 2539.21 1145 2534.5C1148.5 2543.5 1153.53 2546.5 1161 2553.5C1168.47 2560.5 1171.5 2569.92 1175.5 2574C1179.5 2578.08 1180 2573 1182 2573M1208.5 2535.5C1203.5 2530 1200.5 2517 1193.5 2516.5C1186.5 2516 1178.5 2520 1182 2512.5C1187.5 2502.5 1190 2497.5 1198.5 2502.5C1207 2507.5 1207 2510.5 1208.5 2523.5C1210 2536.5 1221.5 2534.5 1233 2534.5C1244.5 2534.5 1257.5 2530.5 1264 2525C1270.5 2519.5 1256 2542 1238 2543.5C1226.52 2544.46 1219.72 2543.18 1215 2540.7M1208.5 2535.5C1210 2540.33 1212.8 2551.4 1212 2557C1211 2564 1215 2562.5 1221 2557C1227 2551.5 1226 2553 1219 2550.5C1213.4 2548.5 1214 2543.13 1215 2540.7M1208.5 2535.5C1210.31 2537.49 1212.32 2539.29 1215 2540.7M1142 2374.5C1143.5 2382 1149 2369.5 1151.5 2367C1154 2364.5 1164.5 2372.5 1168.5 2379.5C1172.5 2386.5 1184.5 2395 1189 2402C1193.5 2409 1192 2412 1192 2416C1195.86 2412.14 1194.75 2407.45 1192.67 2403M1162.5 2368.45C1166 2359.5 1174.5 2352.14 1178 2359C1181.5 2365.86 1171.5 2370.5 1171.5 2371.5M1188 2384.05C1190.34 2383.48 1193.42 2383.24 1197.5 2383C1206 2382.5 1216 2382 1227.5 2377.5C1224.5 2384.05 1211.5 2384.05 1203.5 2384.05C1195.5 2384.05 1194.19 2381.61 1188 2384.05ZM1188 2384.05C1189.45 2387.87 1192.41 2397 1192.67 2403M1235.5 2486.38C1232.88 2485.12 1231.75 2482.5 1235.5 2477C1241.07 2468.83 1242.78 2473.07 1245.13 2476M1235.5 2486.38C1237.47 2487.31 1240.28 2487.48 1242.51 2487.5M1235.5 2486.38L1240.32 2481.19M1245.13 2476C1245.95 2477.01 1246.84 2477.87 1248 2478C1249.67 2478.19 1251.07 2479.48 1252.83 2481M1245.13 2476L1240.32 2481.19M1242.51 2487.5C1243.26 2487.51 1243.94 2487.5 1244.5 2487.5C1249 2487.5 1254 2486.5 1258.5 2498C1263 2509.5 1269 2512.5 1278 2507.5C1269.5 2506.5 1273.5 2507.5 1267 2498C1260.5 2488.5 1278 2490 1290.5 2487.5C1301.83 2485.23 1297.55 2472.7 1284 2465.16M1242.51 2487.5L1247.67 2484.25M1252.83 2481C1255.81 2483.58 1259.83 2486.81 1268 2486.5C1281 2486 1290 2486.5 1284 2474.5C1278 2462.5 1273 2465 1264 2463C1255 2461 1249.5 2456.5 1252 2452.5C1254.5 2448.5 1263 2452.5 1279.5 2452.5C1296 2452.5 1303.5 2452 1311 2447C1313.1 2445.6 1313.95 2445.89 1313.48 2447M1252.83 2481L1247.67 2484.25M1240.32 2481.19L1247.67 2484.25M1313.48 2447C1312.29 2449.87 1302.44 2458.22 1283 2457.5C1256 2456.5 1262.5 2456 1279.5 2463C1281.09 2463.66 1282.6 2464.38 1284 2465.16M1313.48 2447C1311.5 2450 1301.5 2460.83 1284 2465.16M1381.5 2343C1395 2353 1406 2351 1409 2345C1412 2339 1409 2333 1393.5 2326.5C1386.24 2323 1379 2322.5 1372 2324.5C1365 2326.5 1368 2333 1381.5 2343ZM1381.5 2343C1388.5 2347 1405 2359 1412 2350C1419 2341 1408.23 2336 1397 2326.5C1385.77 2317 1369.5 2318 1364 2322.5C1360 2325.7 1374 2337.5 1381.5 2343ZM882 2503.5C884.5 2496 886 2483 890 2500C893.2 2513.6 901 2539.33 904.5 2550.5C904.667 2552.17 904.5 2554.7 902.5 2551.5C900 2547.5 895 2525.5 892 2515.5C889 2505.5 888 2497.5 882 2503.5ZM937 2473.5C941 2475 934 2477 935.5 2481.5C937 2486 945 2495.5 951 2500C957 2504.5 965.5 2509.5 964.5 2515.5C963.5 2521.5 945.5 2535 939 2533C932.5 2531 957.5 2523.5 955.5 2515.5C953.5 2507.5 947.5 2505 940.5 2499C933.5 2493 926.5 2483.5 928.5 2478.5C930.5 2473.5 933.5 2472 937 2473.5ZM988.5 2458.5C999.5 2459 1016 2464 1016.5 2477.5C1017 2491 1019.5 2518 1007.5 2517.5C995.5 2517 987 2506 984.5 2500C982 2494 975 2482 976.5 2468.5C978 2455 983.5 2458 988.5 2458.5ZM991.5 2468.5C999.5 2468.5 1010 2475.5 1010 2485.5C1010 2495.5 1012.5 2509.5 1003 2508C993.5 2506.5 992.5 2500.5 988.5 2493C984.5 2485.5 978 2468.5 991.5 2468.5ZM1055 2430.5C1054 2435 1051 2437 1046.5 2437C1042 2437 1039 2446.5 1042 2452.5C1045 2458.5 1054 2475.5 1067 2469.5C1080 2463.5 1079 2472 1073.5 2475.5C1068 2479 1054 2479.5 1046.5 2471.5C1039 2463.5 1035 2455.5 1038 2444C1041 2432.5 1045.5 2427.5 1055 2430.5ZM1087 2413C1094 2420.5 1097.5 2432.5 1106 2429C1114.5 2425.5 1129 2420 1129 2413C1129 2406 1107 2387 1112.5 2386.5C1118 2386 1124 2382.5 1126.5 2395C1133.5 2402 1161.96 2426.19 1157 2429C1150.75 2432.55 1152.81 2430.9 1142.5 2423C1132.56 2415.38 1133 2426 1121 2430.5C1109 2435 1107 2439.5 1114 2446C1121 2452.5 1126 2458 1117.5 2462.5C1109 2467 1112.5 2457 1104.5 2448.5C1096.5 2440 1091.5 2445.5 1091 2438.5C1090.5 2431.5 1093.5 2433.5 1091 2429C1088.5 2424.5 1076 2416.5 1080 2416C1083.2 2415.6 1086 2413.83 1087 2413ZM1270 2315.5C1270 2308 1289 2294.5 1285 2287.5C1281 2280.5 1265 2281.5 1254.5 2275C1244 2268.5 1238.5 2269 1242.5 2262.5C1246.5 2256 1260 2240.5 1262.5 2246C1265 2251.5 1245 2255.5 1251 2262.5C1257 2269.5 1271.5 2274.5 1282.5 2273.5C1293.5 2272.5 1302.5 2284 1295.5 2291C1288.5 2298 1277.5 2306 1270 2315.5ZM1277 2228C1278 2222 1286.5 2214.5 1301.5 2217.5C1316.5 2220.5 1332.5 2227 1327.5 2236.5C1322.5 2246 1313 2250.5 1297.5 2248C1282 2245.5 1274.5 2234 1277 2228ZM1077.5 2572C1081.5 2570 1086.5 2565.5 1089.5 2579.5C1092.5 2593.5 1098.5 2597.5 1101 2602C1103.5 2606.5 1121.5 2620 1112 2626C1102.5 2632 1103 2620.5 1095.5 2612.5C1088 2604.5 1090.5 2596.5 1083 2588C1075.5 2579.5 1072 2574.3 1077.5 2572ZM1315 2372.5C1330.5 2380 1331.5 2379 1342.5 2387.5C1353.5 2396 1360 2396.5 1355.5 2404C1351 2411.5 1351.5 2410.5 1358.5 2406C1365.5 2401.5 1369.5 2400.5 1360 2393.5C1350.5 2386.5 1356.5 2384 1368 2382C1379.5 2380 1392.5 2378 1393.5 2372.5C1394.5 2367 1390 2368 1383 2376C1376 2384 1362 2381.5 1351.5 2380C1341 2378.5 1344.5 2372.5 1344 2367C1343.5 2361.5 1344 2355.5 1336.5 2354C1329 2352.5 1315.5 2359.5 1315 2372.5ZM1322 2371C1332 2372.5 1338.5 2383.5 1338.5 2373.5C1338.5 2363.5 1342 2360.5 1334.5 2358C1327 2355.5 1322 2362 1322 2371ZM1368 2304C1372 2304 1387 2280.5 1393.5 2281.5C1400 2282.5 1415.5 2303 1420 2307C1424.5 2311 1412 2322.5 1420 2317.5C1428 2312.5 1442 2298 1434 2301C1426 2304 1422 2304 1414.5 2297.5C1407 2291 1397 2277.5 1397 2270C1397 2262.5 1394 2246.5 1389.5 2264C1385.9 2278 1375 2288.83 1370 2292.5C1366 2296.5 1360 2304.4 1368 2304ZM1414.5 2234C1418 2234 1421.5 2237.5 1418 2249C1414.5 2260.5 1434.5 2256.5 1434 2247.5C1433.5 2238.5 1435 2228.5 1437.5 2230C1440 2231.5 1432 2243 1434 2252C1436 2261 1444.5 2257.5 1451 2262C1457.5 2266.5 1462.5 2267 1458 2278.5C1453.5 2290 1451.5 2291 1453.5 2275C1455.5 2259 1431 2260.5 1425.5 2260.5C1420 2260.5 1409 2263.5 1409 2253.5C1409 2243.5 1411 2234 1414.5 2234Z" stroke="black" stroke-width="7" stroke-linecap="round" stroke-linejoin="round"/>
<path d="M304 2152C290.5 2143.5 223.5 2129 209.5 2126.5C195.5 2124 202 2138 186.5 2138.5C171 2139 174 2129 173 2095C173 2075 173 2072 186.5 2078C200 2084 200 2098.5 204 2106C208 2113.5 263.5 2130.5 304 2152ZM304 2152C326.325 2138.5 339 2141 344 2133.5C349 2126 327 2110.5 324.5 2106C322 2101.5 324.5 2095 335 2095C345.5 2095 358 2113 364 2119C370 2125 377.5 2129.5 378 2135C378.5 2140.5 345 2154.5 324.5 2168C308.1 2178.8 272.333 2196.83 256.5 2204.5C222.9 2220.5 204 2232.17 199 2237.5C191.5 2244.5 202 2265 194 2270.5C188.5 2275.5 184.5 2271 177.5 2256C171.9 2244 174.167 2230 176 2224.5C176 2221.5 189 2228.5 192.5 2224.5C196.931 2220.44 221.816 2203.01 259.5 2179.28M304 2152C288.923 2161 274.939 2169.58 262.323 2177.5M262.323 2177.5C252.382 2163.17 229.9 2135.3 219.5 2138.5C206.5 2142.5 205.5 2144 211 2148C216.5 2152 247 2169.05 259.5 2179.28M262.323 2177.5C261.374 2178.1 260.433 2178.69 259.5 2179.28M632 2735C627.5 2732 623.5 2727.5 621 2715.5C618.5 2703.5 619 2708.5 608 2688.5C597 2668.5 617 2688.5 636.5 2667.5C656 2646.5 625 2643 612 2632.5C599 2622 586 2633 586 2648.5C586 2664 573.5 2666.5 566 2679C558.5 2691.5 552 2696 540 2696C536.5 2696 529.1 2696.6 527.5 2699C525.5 2702 533 2709.5 546.5 2715.5C560 2721.5 569.5 2701 582 2688.5C594.5 2676 597.5 2727.5 599.5 2739C601.5 2750.5 621 2754.5 636.5 2753C645.933 2752.09 643.885 2746.73 639.822 2742M632 2735C647.5 2735 652.5 2727.5 658.5 2712.5M632 2735C633.761 2736.17 637.208 2738.96 639.822 2742M658.5 2712.5C664.5 2697.5 677.5 2678 694.5 2681C711.5 2684 717.5 2685.5 725 2699C732.5 2712.5 732 2728 721 2745.5C710 2763 711.5 2775.5 685 2774.5C658.5 2773.5 662.5 2760 658.5 2748.5C656.929 2743.98 656.052 2739.54 655.779 2735M658.5 2712.5C656.375 2720.7 655.355 2727.97 655.779 2735M639.822 2742C644.234 2741.67 653.601 2739.8 655.779 2735M201.5 2280C197 2286.5 186.5 2286.5 194 2304C201.5 2321.5 238.5 2346.5 251.5 2345.5C264.5 2344.5 274 2337 286.5 2327.5C299 2318 311.5 2308.5 321 2309C330.5 2309.5 343.5 2327.5 355 2327.5C366.5 2327.5 365.5 2326 365.5 2315C365.5 2304 346.5 2274 332 2274C317.5 2274 300.5 2283 281.5 2301.5C262.5 2320 266.5 2323.5 248 2322C229.5 2320.5 205.5 2289.5 201.5 2280ZM339 2348C361 2348 376 2344 375 2358C374 2372 350 2412 360 2417C370 2422 423 2434.5 405.5 2437C388 2439.5 353 2429 328.5 2430.5C304 2432 279.5 2435 279.5 2425C279.5 2415 284 2409.5 302.5 2415C321 2420.5 328.5 2417 328.5 2406.5C328.5 2396 346 2364.5 339 2348ZM418.5 2456.5C432.5 2456.5 427 2457.5 427.5 2485C428 2512.5 421 2510.5 423 2532.5C425 2554.5 428 2587 434 2586C440 2585 465 2573 465 2556.5C465 2540 467.5 2533 477 2539.5C486.5 2546 508 2549.5 486.5 2566C465 2582.5 453.5 2612 429.5 2612.5C405.5 2613 415 2610.5 411.5 2593C408 2575.5 399 2581.5 398.5 2525C398 2468.5 392 2488 393 2475.5C394 2463 403 2453.5 418.5 2456.5ZM510.5 2595C505.833 2592.5 496.5 2586.1 496.5 2580.5C496.5 2573.5 502.5 2566 509 2569.5C515.5 2573 530.5 2586 543.5 2593C556.5 2600 588.5 2615 573.5 2621C558.5 2627 547.5 2614 540 2618.5C534 2622.1 523.167 2632.33 518.5 2637C513.5 2639.83 503.8 2648.3 505 2659.5C506.5 2673.5 504.5 2687.5 495 2676.5C485.5 2665.5 471 2658 477 2653.5C483 2649 486 2654 492 2648.5C496.8 2644.1 507.667 2631.33 512.5 2625.5C514.83 2622.26 527.231 2613.02 525.5 2606.5C523.864 2600.34 513.4 2597.49 510.5 2595ZM605.5 2651C604 2659.5 603.5 2661.5 613.5 2660.5C623.5 2659.5 628.5 2655 621 2648.5C613.5 2642 605.5 2641.5 605.5 2651ZM691.5 2700.5C704.5 2700.5 712.5 2705.5 711 2721.5C709.5 2737.5 714.5 2745 702 2751C689.5 2757 683 2752 677.5 2743.5C672 2735 675.5 2728.5 676.5 2714.5C677.5 2700.5 687.339 2700.3 691.5 2700.5ZM756.5 2709C760 2699 761 2694 779 2696.5C797 2699 800 2703.5 799 2717C798 2730.5 788.5 2730.5 772.5 2741.5C756.5 2752.5 755.5 2762 760.5 2773C765.5 2784 787.5 2803.5 774 2799C760.5 2794.5 745.5 2789 746 2774.5C746.5 2760 752 2758 753.5 2741.5C755 2725 754 2721.5 751 2717C748 2712.5 755.086 2713 756.5 2709ZM776 2712.5C788 2714.5 791 2726 783.5 2731.5C776 2737 771 2735 768 2731.5C765 2728 776 2720.5 776 2712.5ZM795 2776C805.5 2776 811 2772 812 2763C813 2754 833 2721.5 829 2717C825 2712.5 815 2708.5 820 2702.5C825 2696.5 841 2677 843 2688C845 2699 836.5 2714.5 845.5 2718.5C854.5 2722.5 874 2727.5 875 2720C876 2712.5 877 2705 885.5 2696.5C894 2688 904.5 2673.5 895 2710.5C885.5 2747.5 879.5 2740 879.5 2754.5C879.5 2769 884 2770 889.5 2774.5C895 2779 893 2796 882 2794.5C871 2793 863 2792 863.5 2770.5C864 2749 873 2741.5 853.5 2740C834 2738.5 841.5 2738.5 829 2758.5C816.5 2778.5 820 2784 820 2791.5C820 2799 810 2790.5 804.5 2788C799 2785.5 789.5 2776.45 795 2776ZM921.5 2740C933.5 2724.5 941.5 2709.5 954 2717C966.5 2724.5 960.5 2736 958.5 2749.5C956.5 2763 949.5 2784.5 931 2776C912.5 2767.5 907.5 2758.04 921.5 2740ZM933.5 2746.5C933.5 2734 942.5 2725.5 949 2728.5C955.5 2731.5 953.5 2744.5 946.5 2749.5C939.5 2754.5 937.5 2758 933.5 2746.5Z" stroke="black" stroke-width="7" stroke-linecap="round" stroke-linejoin="round"/>
<rect x="240.5" y="3089.91" width="1190.56" height="61.5947" stroke="black" stroke-width="15"/>
<rect x="233" y="3082.41" width="594.861" height="76.5947" fill="black"/>
<path d="M1148.49 3031H1163.96L1162.53 2966H1155.25L1134.32 2985.76V2991.22L1151.35 2984.59L1148.49 3031ZM1214.47 3032.3C1236.31 3032.3 1247.36 3013.84 1247.49 2998.11C1247.49 2977.96 1234.36 2964.7 1214.47 2964.7C1194.58 2964.7 1181.45 2977.96 1181.45 2998.11C1181.32 3014.23 1192.11 3032.3 1214.47 3032.3ZM1214.47 3021.64C1202.12 3021.64 1194.32 3012.02 1194.32 2998.63C1194.32 2985.5 1202.51 2976.79 1214.47 2976.79C1226.43 2976.79 1234.49 2985.37 1234.62 2998.76C1234.62 3012.02 1226.82 3021.64 1214.47 3021.64ZM1318.16 2964.7C1301.52 2964.7 1286.57 2975.62 1286.57 2997.72C1286.57 3017.61 1299.05 3032.3 1317.51 3032.3C1325.18 3032.3 1332.2 3028.66 1335.32 3025.54L1336.62 3016.44H1336.36C1331.42 3019.56 1325.96 3022.42 1319.07 3022.42C1307.5 3022.42 1299.44 3014.49 1299.44 2997.98C1299.44 2983.03 1307.89 2976.53 1317.77 2976.53C1324.14 2976.53 1330.25 2978.61 1336.23 2983.03H1336.49L1333.89 2967.82C1330.38 2966 1325.05 2964.7 1318.16 2964.7ZM1377.91 2977.83C1386.1 2977.83 1391.43 2980.43 1391.04 2992.78L1389.74 3031H1404.3L1403 2988.49C1402.87 2986.54 1402.74 2984.72 1402.48 2982.9C1406.51 2979.91 1411.45 2977.83 1415.87 2977.83C1424.06 2977.83 1429.39 2980.43 1429 2992.78L1427.83 3031H1442.39L1440.96 2988.49C1440.44 2974.19 1434.72 2964.7 1423.15 2964.7C1416.39 2964.7 1410.28 2969.25 1404.69 2974.06L1401.18 2977.18C1398.58 2969.38 1393.38 2964.7 1385.19 2964.7C1378.43 2964.7 1372.32 2969.25 1366.73 2974.06L1364.65 2975.88L1364.39 2966H1350.87V2966.26L1353.21 2982.9L1351.65 3031H1366.21L1364.91 2982.77C1368.81 2979.78 1373.62 2977.83 1377.91 2977.83Z" fill="black"/>
<path d="M472.999 272L477.219 269.319L476.952 268.898L476.606 268.538L472.999 272ZM669.802 448.713C670.748 451.308 673.618 452.644 676.212 451.698C678.806 450.751 680.142 447.881 679.196 445.287L669.802 448.713ZM550.543 445.479C553.293 445.731 555.726 443.706 555.978 440.956C556.23 438.206 554.205 435.773 551.455 435.521L550.543 445.479ZM429.499 395L425.255 397.645L425.255 397.645L429.499 395ZM487.639 247.002C484.878 246.925 482.579 249.101 482.502 251.861C482.425 254.622 484.601 256.921 487.361 256.998L487.639 247.002ZM1239.5 432.5L1237.23 428.044L1237.23 428.044L1239.5 432.5ZM844.208 344L849.207 344.121L849.207 344.121L844.208 344ZM589.671 335.503C586.911 335.409 584.597 337.569 584.503 340.329C584.409 343.089 586.569 345.403 589.329 345.497L589.671 335.503ZM842.783 391L842.652 395.998L847.601 396.128L847.78 391.181L842.783 391ZM664.716 385.508C661.959 385.665 659.851 388.027 660.008 390.784C660.165 393.541 662.527 395.649 665.284 395.492L664.716 385.508ZM1106 478L1102.79 474.166L1102.79 474.166L1106 478ZM1091.17 491L1090.94 495.995L1093.02 496.089L1094.55 494.682L1091.17 491ZM869.5 482.5C866.739 482.5 864.5 484.739 864.5 487.5C864.5 490.261 866.739 492.5 869.5 492.5V482.5ZM904.049 440.135C901.288 440.108 899.028 442.324 899 445.085C898.973 447.846 901.189 450.107 903.951 450.134L904.049 440.135ZM543.045 434.738C540.296 434.476 537.856 436.493 537.595 439.242C537.333 441.991 539.35 444.432 542.099 444.693L543.045 434.738ZM513.963 441.649C516.702 442 519.206 440.064 519.557 437.325C519.908 434.586 517.972 432.081 515.233 431.73L513.963 441.649ZM498.779 429.276C496.059 428.799 493.467 430.618 492.991 433.338C492.514 436.058 494.333 438.649 497.053 439.126L498.779 429.276ZM468.972 432.098C471.575 433.021 474.433 431.659 475.356 429.057C476.279 426.454 474.917 423.596 472.314 422.673L468.972 432.098ZM457.809 416.071C455.421 414.685 452.361 415.498 450.975 417.886C449.589 420.275 450.402 423.334 452.79 424.72L457.809 416.071ZM430.345 404.996C432.03 407.184 435.169 407.592 437.357 405.907C439.545 404.222 439.953 401.083 438.268 398.895L430.345 404.996ZM429.12 384.799C427.704 382.429 424.634 381.655 422.263 383.072C419.893 384.488 419.119 387.558 420.536 389.928L429.12 384.799ZM407.098 362.186C407.944 364.814 410.76 366.259 413.389 365.413C416.018 364.567 417.463 361.75 416.617 359.122L407.098 362.186ZM413.374 342.726C413.126 339.975 410.694 337.948 407.944 338.196C405.194 338.445 403.166 340.876 403.415 343.627L413.374 342.726ZM403.467 313.159C403.317 315.916 405.43 318.273 408.188 318.423C410.945 318.573 413.302 316.459 413.452 313.702L403.467 313.159ZM414.521 297.692C414.755 294.94 412.714 292.52 409.963 292.286C407.211 292.052 404.791 294.093 404.557 296.844L414.521 297.692ZM408.027 272.277C407.428 274.973 409.128 277.644 411.823 278.242C414.519 278.841 417.19 277.142 417.789 274.446L408.027 272.277ZM421.849 261.673C423.004 259.165 421.907 256.195 419.399 255.04C416.891 253.885 413.921 254.982 412.766 257.49L421.849 261.673ZM436.129 241.696C433.381 241.425 430.934 243.433 430.663 246.182C430.392 248.93 432.4 251.377 435.148 251.648L436.129 241.696ZM446.517 256.016C448.886 257.436 451.957 256.666 453.376 254.298C454.796 251.929 454.026 248.858 451.658 247.439L446.517 256.016ZM471.361 263.254C469.381 261.33 466.215 261.376 464.291 263.356C462.367 265.337 462.412 268.502 464.393 270.427L471.361 263.254ZM473.512 281.879C475.068 284.161 478.179 284.749 480.46 283.193C482.742 281.637 483.33 278.527 481.774 276.245L473.512 281.879ZM498.742 297.697C496.856 295.68 493.692 295.573 491.675 297.458C489.657 299.344 489.55 302.508 491.436 304.525L498.742 297.697ZM504.057 316.572C506.161 318.36 509.316 318.103 511.104 315.999C512.892 313.895 512.636 310.739 510.531 308.951L504.057 316.572ZM532.797 324.724C530.428 323.304 527.357 324.072 525.937 326.44C524.517 328.809 525.285 331.88 527.654 333.3L532.797 324.724ZM542.67 341.652C545.12 342.927 548.139 341.974 549.413 339.524C550.688 337.075 549.735 334.056 547.286 332.781L542.67 341.652ZM572.39 344.945C569.881 343.791 566.912 344.888 565.757 347.397C564.603 349.905 565.7 352.874 568.209 354.029L572.39 344.945ZM583.7 361.184C586.187 362.385 589.176 361.343 590.377 358.856C591.578 356.369 590.535 353.38 588.049 352.179L583.7 361.184ZM613.893 366.321C611.552 364.857 608.467 365.567 607.003 367.908C605.538 370.25 606.249 373.335 608.59 374.799L613.893 366.321ZM622.518 384.373C624.718 386.041 627.854 385.611 629.523 383.41C631.192 381.21 630.761 378.074 628.561 376.405L622.518 384.373ZM650.575 396.551C648.734 394.494 645.573 394.318 643.515 396.159C641.457 398.001 641.282 401.162 643.123 403.22L650.575 396.551ZM653.431 416.355C654.99 418.634 658.102 419.217 660.381 417.657C662.659 416.097 663.242 412.985 661.682 410.706L653.431 416.355ZM675.929 436.974C674.853 434.43 671.919 433.241 669.376 434.316C666.833 435.392 665.643 438.326 666.719 440.869L675.929 436.974ZM494.792 257.204C497.552 257.281 499.852 255.105 499.928 252.345C500.005 249.584 497.829 247.284 495.068 247.208L494.792 257.204ZM519.894 247.892C517.134 247.816 514.835 249.993 514.759 252.753C514.684 255.513 516.861 257.812 519.621 257.888L519.894 247.892ZM534.524 258.293C537.284 258.368 539.582 256.191 539.657 253.43C539.732 250.67 537.554 248.371 534.794 248.297L534.524 258.293ZM559.616 248.961C556.855 248.888 554.558 251.067 554.485 253.827C554.412 256.588 556.591 258.884 559.351 258.957L559.616 248.961ZM574.248 259.348C577.009 259.42 579.305 257.24 579.376 254.48C579.448 251.719 577.269 249.423 574.508 249.352L574.248 259.348ZM599.329 249.987C596.569 249.917 594.275 252.099 594.205 254.859C594.136 257.62 596.317 259.914 599.078 259.983L599.329 249.987ZM613.978 260.354C616.739 260.421 619.032 258.238 619.1 255.478C619.167 252.717 616.984 250.424 614.224 250.357L613.978 260.354ZM639.046 250.951C636.286 250.887 633.995 253.073 633.931 255.833C633.866 258.594 636.052 260.884 638.813 260.949L639.046 250.951ZM653.715 261.291C656.476 261.353 658.765 259.166 658.827 256.405C658.889 253.644 656.702 251.356 653.941 251.293L653.715 261.291ZM678.763 251.834C676.002 251.776 673.717 253.967 673.659 256.728C673.601 259.489 675.793 261.774 678.553 261.832L678.763 251.834ZM693.45 262.136C696.211 262.191 698.493 259.997 698.548 257.236C698.603 254.476 696.409 252.193 693.648 252.138L693.45 262.136ZM718.458 252.605C715.697 252.556 713.419 254.755 713.37 257.516C713.321 260.277 715.52 262.554 718.281 262.603L718.458 252.605ZM733.204 262.856C735.965 262.9 738.239 260.698 738.284 257.937C738.328 255.176 736.126 252.902 733.365 252.857L733.204 262.856ZM758.188 253.22C755.427 253.184 753.159 255.393 753.124 258.154C753.088 260.916 755.297 263.183 758.058 263.219L758.188 253.22ZM772.941 263.395C775.702 263.424 777.964 261.209 777.994 258.448C778.023 255.687 775.808 253.425 773.047 253.395L772.941 263.395ZM797.889 253.599C795.127 253.584 792.876 255.81 792.861 258.572C792.846 261.333 795.072 263.584 797.833 263.599L797.889 253.599ZM812.726 263.653C815.487 263.657 817.729 261.421 817.733 258.66C817.737 255.899 815.502 253.657 812.741 253.653L812.726 263.653ZM837.515 253.578C834.753 253.601 832.534 255.858 832.557 258.619C832.58 261.381 834.837 263.6 837.598 263.577L837.515 253.578ZM852.159 263.419C854.92 263.391 857.136 261.129 857.107 258.368C857.079 255.606 854.817 253.391 852.056 253.419L852.159 263.419ZM875.822 253.236C873.061 253.252 870.835 255.503 870.851 258.264C870.867 261.026 873.118 263.252 875.879 263.236L875.822 253.236ZM890.206 263.167C892.967 263.156 895.197 260.908 895.186 258.147C895.175 255.385 892.927 253.156 890.166 253.167L890.206 263.167ZM913.941 253.096C911.179 253.102 908.945 255.345 908.951 258.106C908.957 260.868 911.2 263.102 913.962 263.096L913.941 253.096ZM928.215 263.072C930.977 263.069 933.212 260.827 933.209 258.066C933.205 255.304 930.964 253.069 928.203 253.072L928.215 263.072ZM952.006 253.056C949.244 253.056 947.006 255.295 947.006 258.057C947.007 260.818 949.246 263.056 952.007 263.056L952.006 253.056ZM966.279 263.057C969.041 263.058 971.28 260.821 971.281 258.059C971.282 255.298 969.044 253.058 966.283 253.057L966.279 263.057ZM990.084 253.075C987.323 253.072 985.082 255.308 985.079 258.07C985.076 260.831 987.312 263.072 990.073 263.075L990.084 253.075ZM1004.35 263.093C1007.11 263.097 1009.35 260.862 1009.36 258.1C1009.36 255.339 1007.12 253.097 1004.36 253.093L1004.35 263.093ZM1028.16 253.133C1025.4 253.128 1023.16 255.362 1023.15 258.123C1023.15 260.885 1025.38 263.128 1028.14 263.133L1028.16 253.133ZM1042.42 263.162C1045.18 263.168 1047.42 260.934 1047.43 258.173C1047.44 255.411 1045.2 253.168 1042.44 253.162L1042.42 263.162ZM1066.24 253.217C1063.47 253.21 1061.23 255.443 1061.22 258.204C1061.22 260.966 1063.45 263.21 1066.21 263.217L1066.24 253.217ZM1080.49 263.253C1083.25 263.26 1085.5 261.027 1085.5 258.265C1085.51 255.504 1083.28 253.26 1080.52 253.253L1080.49 263.253ZM1104.31 253.316C1101.55 253.308 1099.31 255.541 1099.3 258.302C1099.29 261.064 1101.53 263.308 1104.29 263.316L1104.31 253.316ZM1118.54 263.355C1121.3 263.362 1123.55 261.13 1123.55 258.368C1123.56 255.607 1121.33 253.362 1118.57 253.355L1118.54 263.355ZM1142.36 253.418C1139.6 253.411 1137.35 255.644 1137.35 258.405C1137.34 261.167 1139.57 263.411 1142.33 263.418L1142.36 253.418ZM1156.63 263.453C1159.39 263.46 1161.64 261.226 1161.64 258.465C1161.65 255.703 1159.42 253.46 1156.66 253.453L1156.63 263.453ZM1180.43 253.496C1177.66 253.493 1175.42 255.73 1175.42 258.491C1175.42 261.253 1177.65 263.493 1180.42 263.496L1180.43 253.496ZM1194.83 263.556C1197.59 263.599 1199.86 261.396 1199.91 258.635C1199.95 255.874 1197.75 253.601 1194.99 253.557L1194.83 263.556ZM1220 254.891C1217.25 254.613 1214.8 256.614 1214.52 259.361C1214.24 262.109 1216.24 264.562 1218.99 264.84L1220 254.891ZM1233.13 266.883C1235.84 267.415 1238.47 265.649 1239 262.939C1239.53 260.229 1237.77 257.602 1235.06 257.07L1233.13 266.883ZM1259.73 265.418C1257.3 264.102 1254.26 265.003 1252.95 267.43C1251.63 269.858 1252.53 272.893 1254.96 274.209L1259.73 265.418ZM1265.54 282.116C1267.47 284.095 1270.64 284.14 1272.62 282.215C1274.59 280.29 1274.64 277.124 1272.71 275.144L1265.54 282.116ZM1285.95 298.371C1285.14 295.731 1282.35 294.248 1279.71 295.059C1277.07 295.87 1275.58 298.667 1276.39 301.307L1285.95 298.371ZM1279.35 314.491C1279.84 317.21 1282.43 319.022 1285.15 318.539C1287.87 318.055 1289.68 315.459 1289.2 312.741L1279.35 314.491ZM1292 335.614C1291.82 332.858 1289.45 330.765 1286.69 330.938C1283.94 331.112 1281.84 333.487 1282.02 336.243L1292 335.614ZM1282.31 349.311C1282.25 352.072 1284.44 354.357 1287.2 354.414C1289.96 354.472 1292.25 352.281 1292.3 349.52L1282.31 349.311ZM1289.85 372.736C1290.39 370.029 1288.64 367.393 1285.93 366.85C1283.22 366.307 1280.59 368.061 1280.05 370.768L1289.85 372.736ZM1276.72 383.144C1275.82 385.756 1277.21 388.601 1279.82 389.499C1282.43 390.398 1285.27 389.009 1286.17 386.398L1276.72 383.144ZM1275.63 407.666C1277.18 405.38 1276.58 402.271 1274.3 400.721C1272.01 399.172 1268.9 399.769 1267.35 402.054L1275.63 407.666ZM1259.41 411.86C1257.49 413.85 1257.55 417.015 1259.54 418.93C1261.53 420.845 1264.7 420.785 1266.61 418.795L1259.41 411.86ZM1247.99 433.516C1250.36 432.095 1251.12 429.024 1249.7 426.656C1248.28 424.288 1245.21 423.52 1242.84 424.94L1247.99 433.516ZM1229.4 431.769C1226.88 432.886 1225.74 435.84 1226.86 438.365C1227.97 440.89 1230.93 442.031 1233.45 440.913L1229.4 431.769ZM1204.41 450.693C1207.09 450.043 1208.74 447.341 1208.09 444.657C1207.44 441.973 1204.74 440.324 1202.05 440.973L1204.41 450.693ZM849.392 336.091C849.453 333.33 847.264 331.043 844.503 330.983C841.742 330.922 839.455 333.111 839.395 335.872L849.392 336.091ZM839.875 309.197C839.837 311.958 842.044 314.228 844.805 314.266C847.566 314.304 849.836 312.096 849.874 309.335L839.875 309.197ZM850.05 293.268C850.072 290.506 847.851 288.25 845.09 288.228C842.328 288.206 840.072 290.427 840.05 293.188L850.05 293.268ZM840.088 266.545C840.107 269.307 842.361 271.53 845.122 271.511C847.884 271.491 850.107 269.237 850.087 266.476L840.088 266.545ZM597.272 345.732C600.033 345.803 602.328 343.623 602.4 340.862C602.471 338.102 600.291 335.806 597.53 335.735L597.272 345.732ZM624.051 336.241C621.29 336.201 619.019 338.406 618.979 341.167C618.938 343.928 621.144 346.2 623.905 346.24L624.051 336.241ZM639.834 346.45C642.595 346.482 644.86 344.271 644.893 341.509C644.926 338.748 642.714 336.483 639.953 336.45L639.834 346.45ZM666.465 336.73C663.704 336.704 661.444 338.921 661.418 341.682C661.391 344.444 663.608 346.704 666.37 346.73L666.465 336.73ZM682.306 346.877C685.067 346.901 687.325 344.683 687.35 341.921C687.375 339.16 685.156 336.902 682.395 336.877L682.306 346.877ZM708.935 337.108C706.174 337.084 703.916 339.304 703.892 342.065C703.868 344.826 706.087 347.084 708.848 347.108L708.935 337.108ZM724.769 347.248C727.53 347.273 729.788 345.054 729.813 342.293C729.838 339.532 727.619 337.273 724.858 337.248L724.769 347.248ZM751.406 337.499C748.645 337.471 746.384 339.687 746.356 342.449C746.328 345.21 748.544 347.471 751.305 347.499L751.406 337.499ZM767.227 347.668C769.988 347.699 772.252 345.486 772.283 342.725C772.314 339.964 770.101 337.7 767.34 337.669L767.227 347.668ZM793.898 338.004C791.137 337.964 788.867 340.171 788.828 342.932C788.788 345.693 790.995 347.963 793.756 348.003L793.898 338.004ZM809.666 348.25C812.427 348.297 814.703 346.096 814.75 343.335C814.797 340.574 812.597 338.298 809.836 338.251L809.666 348.25ZM836.397 338.792C833.637 338.724 831.344 340.907 831.276 343.667C831.208 346.428 833.39 348.721 836.151 348.789L836.397 338.792ZM673.524 395.082C676.282 394.963 678.422 392.63 678.303 389.871C678.184 387.112 675.85 384.972 673.092 385.091L673.524 395.082ZM701.018 384.316C698.256 384.359 696.053 386.632 696.095 389.393C696.138 392.154 698.411 394.358 701.172 394.315L701.018 384.316ZM717.789 394.147C720.55 394.132 722.777 391.882 722.763 389.12C722.748 386.359 720.498 384.132 717.736 384.147L717.789 394.147ZM745.587 384.177C742.825 384.159 740.572 386.383 740.553 389.144C740.535 391.905 742.758 394.159 745.52 394.177L745.587 384.177ZM762.165 394.334C764.926 394.368 767.192 392.156 767.225 389.395C767.258 386.634 765.047 384.368 762.285 384.335L762.165 394.334ZM790.11 384.77C787.349 384.718 785.068 386.914 785.016 389.675C784.964 392.436 787.16 394.716 789.921 394.769L790.11 384.77ZM806.578 395.111C809.339 395.172 811.626 392.984 811.687 390.223C811.748 387.462 809.56 385.175 806.799 385.114L806.578 395.111ZM834.589 385.785C831.828 385.714 829.533 387.894 829.461 390.654C829.39 393.415 831.57 395.71 834.331 395.781L834.589 385.785ZM848.09 382.358C848.184 379.598 846.023 377.285 843.263 377.191C840.503 377.097 838.19 379.258 838.096 382.018L848.09 382.358ZM838.986 352.68C838.913 355.441 841.091 357.738 843.852 357.811C846.612 357.884 848.909 355.706 848.983 352.946L838.986 352.68ZM876.38 492.504C879.142 492.508 881.383 490.272 881.386 487.51C881.39 484.749 879.154 482.508 876.392 482.504L876.38 492.504ZM899.512 482.569C896.75 482.558 894.502 484.787 894.49 487.548C894.479 490.31 896.708 492.558 899.469 492.569L899.512 482.569ZM913.325 492.638C916.087 492.654 918.338 490.428 918.354 487.667C918.37 484.906 916.144 482.654 913.383 482.639L913.325 492.638ZM936.507 482.799C933.746 482.777 931.489 484.997 931.466 487.758C931.444 490.519 933.664 492.776 936.425 492.799L936.507 482.799ZM950.271 492.922C953.032 492.949 955.292 490.732 955.319 487.97C955.345 485.209 953.128 482.949 950.367 482.922L950.271 492.922ZM973.479 483.176C970.718 483.142 968.452 485.353 968.418 488.114C968.384 490.875 970.595 493.141 973.356 493.175L973.479 483.176ZM987.206 493.358C989.967 493.397 992.237 491.191 992.276 488.43C992.315 485.669 990.108 483.398 987.347 483.359L987.206 493.358ZM1010.46 483.726C1007.7 483.677 1005.43 485.876 1005.38 488.637C1005.33 491.398 1007.53 493.676 1010.29 493.724L1010.46 483.726ZM1024.13 493.986C1026.89 494.042 1029.18 491.849 1029.23 489.089C1029.29 486.328 1027.09 484.044 1024.33 483.988L1024.13 493.986ZM1047.46 484.515C1044.7 484.445 1042.4 486.625 1042.33 489.386C1042.26 492.146 1044.44 494.441 1047.2 494.512L1047.46 484.515ZM1061.03 494.896C1063.79 494.978 1066.1 492.808 1066.18 490.048C1066.26 487.288 1064.09 484.983 1061.33 484.9L1061.03 494.896ZM1084.46 485.707C1081.71 485.594 1079.38 487.74 1079.27 490.499C1079.15 493.258 1081.3 495.586 1084.06 495.699L1084.46 485.707ZM1097.25 492.222C1099.3 490.373 1099.46 487.211 1097.61 485.161C1095.76 483.11 1092.6 482.948 1090.55 484.798L1097.25 492.222ZM1099.93 476.579C1097.83 478.369 1097.58 481.524 1099.37 483.627C1101.16 485.73 1104.31 485.983 1106.41 484.193L1099.93 476.579ZM1115.95 476.596C1118.2 474.987 1118.71 471.864 1117.11 469.619C1115.5 467.375 1112.37 466.86 1110.13 468.468L1115.95 476.596ZM1137.64 454.175C1135.03 455.083 1133.65 457.933 1134.56 460.541C1135.47 463.149 1138.32 464.527 1140.93 463.619L1137.64 454.175ZM1157.48 459.155C1160.18 458.595 1161.92 455.95 1161.36 453.245C1160.8 450.541 1158.16 448.803 1155.45 449.362L1157.48 459.155ZM1184.91 444.413C1182.18 444.872 1180.35 447.451 1180.81 450.174C1181.27 452.897 1183.85 454.733 1186.57 454.274L1184.91 444.413ZM911.713 450.211C914.474 450.238 916.734 448.022 916.762 445.261C916.789 442.499 914.573 440.239 911.811 440.212L911.713 450.211ZM937.753 440.466C934.992 440.439 932.731 442.656 932.704 445.417C932.677 448.179 934.894 450.439 937.655 450.466L937.753 440.466ZM953.221 450.618C955.983 450.645 958.243 448.428 958.27 445.667C958.297 442.906 956.08 440.645 953.319 440.618L953.221 450.618ZM979.265 440.87C976.503 440.843 974.243 443.06 974.217 445.821C974.19 448.583 976.407 450.843 979.168 450.869L979.265 440.87ZM994.732 451.019C997.493 451.046 999.753 448.829 999.78 446.067C999.806 443.306 997.589 441.046 994.828 441.02L994.732 451.019ZM1020.77 441.267C1018.01 441.241 1015.75 443.458 1015.72 446.219C1015.69 448.981 1017.91 451.24 1020.67 451.267L1020.77 441.267ZM1036.25 451.414C1039.01 451.44 1041.27 449.222 1041.29 446.461C1041.32 443.7 1039.1 441.44 1036.34 441.414L1036.25 451.414ZM1062.28 441.656C1059.52 441.631 1057.26 443.848 1057.23 446.61C1057.21 449.371 1059.42 451.63 1062.19 451.656L1062.28 441.656ZM1077.76 451.799C1080.52 451.824 1082.78 449.606 1082.8 446.845C1082.83 444.084 1080.61 441.825 1077.85 441.8L1077.76 451.799ZM1103.77 442.034C1101.01 442.009 1098.75 444.228 1098.73 446.989C1098.7 449.751 1100.92 452.009 1103.68 452.034L1103.77 442.034ZM1119.28 452.172C1122.04 452.196 1124.3 449.977 1124.32 447.215C1124.34 444.454 1122.12 442.196 1119.36 442.172L1119.28 452.172ZM1145.31 442.393C1142.54 442.371 1140.29 444.591 1140.26 447.352C1140.24 450.113 1142.46 452.37 1145.22 452.393L1145.31 442.393ZM1160.79 452.519C1163.55 452.541 1165.8 450.32 1165.83 447.559C1165.85 444.797 1163.63 442.541 1160.87 442.519L1160.79 452.519ZM1186.78 442.705C1184.02 442.689 1181.77 444.913 1181.75 447.675C1181.73 450.436 1183.96 452.688 1186.72 452.705L1186.78 442.705ZM551.455 435.521C548.591 435.259 545.789 434.998 543.045 434.738L542.099 444.693C544.857 444.955 547.671 445.216 550.543 445.479L551.455 435.521ZM515.233 431.73C509.407 430.984 503.933 430.179 498.779 429.276L497.053 439.126C502.393 440.062 508.024 440.889 513.963 441.649L515.233 431.73ZM472.314 422.673C467 420.788 462.192 418.614 457.809 416.071L452.79 424.72C457.783 427.617 463.165 430.038 468.972 432.098L472.314 422.673ZM438.268 398.895C436.701 396.86 435.194 394.685 433.742 392.356L425.255 397.645C426.872 400.239 428.566 402.687 430.345 404.996L438.268 398.895ZM433.742 392.356C432.081 389.69 430.543 387.182 429.12 384.799L420.536 389.928C421.999 392.378 423.571 394.942 425.255 397.645L433.742 392.356ZM416.617 359.122C414.948 353.937 413.916 348.712 413.374 342.726L403.415 343.627C404.016 350.271 405.18 356.228 407.098 362.186L416.617 359.122ZM413.452 313.702C413.604 310.903 413.784 307.951 413.988 304.826L404.01 304.175C403.804 307.325 403.622 310.314 403.467 313.159L413.452 313.702ZM413.988 304.826C414.145 302.421 414.321 300.039 414.521 297.692L404.557 296.844C404.351 299.266 404.17 301.714 404.01 304.175L413.988 304.826ZM417.789 274.446C418.892 269.479 420.234 265.179 421.849 261.673L412.766 257.49C410.758 261.849 409.225 266.883 408.027 272.277L417.789 274.446ZM435.148 251.648C438.066 251.936 441.805 253.192 446.517 256.016L451.658 247.439C446.152 244.139 440.984 242.175 436.129 241.696L435.148 251.648ZM464.393 270.427C466.008 271.996 467.674 273.673 469.392 275.463L476.606 268.538C474.813 266.67 473.066 264.91 471.361 263.254L464.393 270.427ZM468.779 274.681C470.359 277.168 471.934 279.565 473.512 281.879L481.774 276.245C480.261 274.027 478.745 271.72 477.219 269.319L468.779 274.681ZM491.436 304.525C495.488 308.861 499.668 312.843 504.057 316.572L510.531 308.951C506.436 305.472 502.534 301.755 498.742 297.697L491.436 304.525ZM527.654 333.3C532.381 336.135 537.369 338.894 542.67 341.652L547.286 332.781C542.126 330.097 537.319 327.436 532.797 324.724L527.654 333.3ZM568.209 354.029C570.72 355.185 573.295 356.359 575.936 357.555L580.061 348.445C577.434 347.256 574.879 346.091 572.39 344.945L568.209 354.029ZM575.936 357.555C578.59 358.756 581.177 359.966 583.7 361.184L588.049 352.179C585.448 350.923 582.786 349.679 580.061 348.445L575.936 357.555ZM608.59 374.799C613.555 377.905 618.189 381.09 622.518 384.373L628.561 376.405C623.975 372.927 619.092 369.573 613.893 366.321L608.59 374.799ZM643.123 403.22C646.872 407.409 650.297 411.777 653.431 416.355L661.682 410.706C658.303 405.77 654.611 401.062 650.575 396.551L643.123 403.22ZM666.719 440.869C667.798 443.421 668.824 446.034 669.802 448.713L679.196 445.287C678.164 442.456 677.076 439.686 675.929 436.974L666.719 440.869ZM487.361 256.998C489.828 257.067 492.305 257.135 494.792 257.204L495.068 247.208C492.582 247.139 490.106 247.07 487.639 247.002L487.361 256.998ZM519.621 257.888C524.565 258.023 529.534 258.158 534.524 258.293L534.794 248.297C529.805 248.162 524.837 248.027 519.894 247.892L519.621 257.888ZM559.351 258.957C564.308 259.089 569.275 259.219 574.248 259.348L574.508 249.352C569.537 249.222 564.571 249.092 559.616 248.961L559.351 258.957ZM599.078 259.983C604.049 260.108 609.018 260.232 613.978 260.354L614.224 250.357C609.265 250.235 604.299 250.111 599.329 249.987L599.078 259.983ZM638.813 260.949C643.799 261.065 648.769 261.179 653.715 261.291L653.941 251.293C648.997 251.182 644.03 251.068 639.046 250.951L638.813 260.949ZM678.553 261.832C683.554 261.937 688.522 262.038 693.45 262.136L693.648 252.138C688.724 252.04 683.76 251.939 678.763 251.834L678.553 261.832ZM718.281 262.603C723.312 262.692 728.289 262.777 733.204 262.856L733.365 252.857C728.455 252.778 723.484 252.694 718.458 252.605L718.281 262.603ZM758.058 263.219C763.107 263.284 768.071 263.343 772.941 263.395L773.047 253.395C768.185 253.344 763.229 253.285 758.188 253.22L758.058 263.219ZM797.833 263.599C802.941 263.627 807.909 263.645 812.726 263.653L812.741 253.653C807.939 253.645 802.984 253.627 797.889 253.599L797.833 263.599ZM837.598 263.577C840.151 263.556 842.64 263.53 845.063 263.5L844.937 253.5C842.529 253.531 840.054 253.556 837.515 253.578L837.598 263.577ZM845.063 263.5C847.328 263.471 849.696 263.444 852.159 263.419L852.056 253.419C849.586 253.445 847.211 253.472 844.937 253.5L845.063 263.5ZM875.879 263.236C880.477 263.21 885.261 263.187 890.206 263.167L890.166 253.167C885.215 253.187 880.426 253.21 875.822 253.236L875.879 263.236ZM913.962 263.096C918.623 263.086 923.38 263.078 928.215 263.072L928.203 253.072C923.364 253.078 918.605 253.086 913.941 253.096L913.962 263.096ZM952.007 263.056C956.721 263.055 961.482 263.056 966.279 263.057L966.283 253.057C961.484 253.056 956.721 253.055 952.006 253.056L952.007 263.056ZM990.073 263.075C994.821 263.08 999.583 263.086 1004.35 263.093L1004.36 253.093C999.596 253.086 994.833 253.08 990.084 253.075L990.073 263.075ZM1028.14 263.133C1032.92 263.142 1037.68 263.152 1042.42 263.162L1042.44 253.162C1037.7 253.152 1032.94 253.142 1028.16 253.133L1028.14 263.133ZM1066.21 263.217C1071.03 263.228 1075.79 263.24 1080.49 263.253L1080.52 253.253C1075.82 253.24 1071.05 253.228 1066.24 253.217L1066.21 263.217ZM1104.29 263.316C1109.15 263.329 1113.91 263.342 1118.54 263.355L1118.57 253.355C1113.93 253.342 1109.18 253.329 1104.31 253.316L1104.29 263.316ZM1142.33 263.418C1147.34 263.431 1152.11 263.443 1156.63 263.453L1156.66 253.453C1152.14 253.443 1147.36 253.431 1142.36 253.418L1142.33 263.418ZM1180.42 263.496C1182.96 263.499 1185.33 263.5 1187.5 263.5V253.5C1185.33 253.5 1182.97 253.499 1180.43 253.496L1180.42 263.496ZM1187.5 263.5C1190 263.5 1192.44 263.518 1194.83 263.556L1194.99 253.557C1192.54 253.518 1190.05 253.5 1187.5 253.5V263.5ZM1218.99 264.84C1224.07 265.355 1228.78 266.03 1233.13 266.883L1235.06 257.07C1230.35 256.147 1225.33 255.431 1220 254.891L1218.99 264.84ZM1254.96 274.209C1259.07 276.436 1262.57 279.055 1265.54 282.116L1272.71 275.144C1268.97 271.298 1264.64 268.084 1259.73 265.418L1254.96 274.209ZM1276.39 301.307C1277.04 303.417 1277.61 305.651 1278.1 308.017L1287.9 305.983C1287.35 303.337 1286.7 300.801 1285.95 298.371L1276.39 301.307ZM1278.1 308.017C1278.54 310.116 1278.96 312.277 1279.35 314.491L1289.2 312.741C1288.79 310.426 1288.35 308.171 1287.9 305.983L1278.1 308.017ZM1282.02 336.243C1282.29 340.544 1282.4 344.916 1282.31 349.311L1292.3 349.52C1292.4 344.819 1292.28 340.167 1292 335.614L1282.02 336.243ZM1280.05 370.768C1279.2 374.966 1278.11 379.104 1276.72 383.144L1286.17 386.398C1287.72 381.903 1288.93 377.332 1289.85 372.736L1280.05 370.768ZM1267.35 402.054C1265.04 405.47 1262.4 408.75 1259.41 411.86L1266.61 418.795C1270.01 415.265 1273 411.541 1275.63 407.666L1267.35 402.054ZM1242.84 424.94C1241.05 426.015 1239.18 427.05 1237.23 428.044L1241.77 436.956C1243.92 435.859 1246 434.711 1247.99 433.516L1242.84 424.94ZM1237.23 428.044C1234.58 429.396 1231.97 430.633 1229.4 431.769L1233.45 440.913C1236.18 439.704 1238.95 438.389 1241.77 436.956L1237.23 428.044ZM1202.05 440.973C1199.18 441.67 1196.34 442.285 1193.53 442.842L1195.47 452.651C1198.4 452.071 1201.37 451.426 1204.41 450.693L1202.05 440.973ZM849.207 344.121C849.273 341.397 849.334 338.72 849.392 336.091L839.395 335.872C839.337 338.493 839.275 341.163 839.21 343.879L849.207 344.121ZM849.874 309.335C849.953 303.636 850.01 298.273 850.05 293.268L840.05 293.188C840.011 298.173 839.953 303.517 839.875 309.197L849.874 309.335ZM850.087 266.476C850.067 263.471 850.037 260.781 849.999 258.421L840.001 258.579C840.037 260.905 840.067 263.565 840.088 266.545L850.087 266.476ZM589.329 345.497C591.748 345.58 594.404 345.658 597.272 345.732L597.53 335.735C594.683 335.662 592.056 335.584 589.671 335.503L589.329 345.497ZM623.905 346.24C628.955 346.314 634.28 346.383 639.834 346.45L639.953 336.45C634.406 336.384 629.09 336.315 624.051 336.241L623.905 346.24ZM666.37 346.73C671.579 346.78 676.9 346.828 682.306 346.877L682.395 336.877C676.991 336.829 671.671 336.78 666.465 336.73L666.37 346.73ZM708.848 347.108C714.131 347.154 719.446 347.2 724.769 347.248L724.858 337.248C719.534 337.201 714.218 337.154 708.935 337.108L708.848 347.108ZM751.305 347.499C756.654 347.553 761.97 347.609 767.227 347.668L767.34 337.669C762.078 337.61 756.759 337.553 751.406 337.499L751.305 347.499ZM793.756 348.003C799.194 348.08 804.508 348.162 809.666 348.25L809.836 338.251C804.668 338.163 799.344 338.081 793.898 338.004L793.756 348.003ZM836.151 348.789C838.873 348.856 841.514 348.926 844.067 348.998L844.35 339.002C841.784 338.929 839.13 338.859 836.397 338.792L836.151 348.789ZM665.284 395.492C667.929 395.341 670.68 395.205 673.524 395.082L673.092 385.091C670.207 385.216 667.411 385.355 664.716 385.508L665.284 395.492ZM701.172 394.315C706.577 394.231 712.134 394.177 717.789 394.147L717.736 384.147C712.051 384.177 706.461 384.232 701.018 384.316L701.172 394.315ZM745.52 394.177C751.072 394.214 756.636 394.268 762.165 394.334L762.285 384.335C756.74 384.269 751.158 384.215 745.587 384.177L745.52 394.177ZM789.921 394.769C795.624 394.877 801.195 394.992 806.578 395.111L806.799 385.114C801.407 384.994 795.825 384.879 790.11 384.77L789.921 394.769ZM834.331 395.781C837.234 395.856 840.013 395.929 842.652 395.998L842.914 386.002C840.275 385.932 837.494 385.86 834.589 385.785L834.331 395.781ZM847.78 391.181C847.888 388.205 847.991 385.264 848.09 382.358L838.096 382.018C837.997 384.916 837.894 387.85 837.786 390.819L847.78 391.181ZM848.983 352.946C849.062 349.953 849.137 347.01 849.207 344.121L839.21 343.879C839.14 346.761 839.066 349.695 838.986 352.68L848.983 352.946ZM869.5 492.5C871.668 492.5 873.965 492.501 876.38 492.504L876.392 482.504C873.973 482.501 871.672 482.5 869.5 482.5V492.5ZM899.469 492.569C903.905 492.588 908.535 492.611 913.325 492.638L913.383 482.639C908.587 482.611 903.952 482.588 899.512 482.569L899.469 492.569ZM936.425 492.799C940.965 492.836 945.587 492.877 950.271 492.922L950.367 482.922C945.678 482.877 941.051 482.836 936.507 482.799L936.425 492.799ZM973.356 493.175C977.956 493.232 982.579 493.293 987.206 493.358L987.347 483.359C982.714 483.294 978.085 483.233 973.479 483.176L973.356 493.175ZM1010.29 493.724C1014.94 493.807 1019.56 493.894 1024.13 493.986L1024.33 483.988C1019.75 483.896 1015.12 483.808 1010.46 483.726L1010.29 493.724ZM1047.2 494.512C1051.92 494.633 1056.54 494.761 1061.03 494.896L1061.33 484.9C1056.82 484.765 1052.19 484.637 1047.46 484.515L1047.2 494.512ZM1084.06 495.699C1086.41 495.795 1088.71 495.893 1090.94 495.995L1091.39 486.005C1089.15 485.903 1086.84 485.803 1084.46 485.707L1084.06 495.699ZM1094.55 494.682C1095.44 493.862 1096.34 493.042 1097.25 492.222L1090.55 484.798C1089.62 485.637 1088.7 486.478 1087.78 487.318L1094.55 494.682ZM1106.41 484.193C1107.34 483.407 1108.27 482.62 1109.21 481.834L1102.79 474.166C1101.83 474.97 1100.88 475.774 1099.93 476.579L1106.41 484.193ZM1109.21 481.834C1111.48 479.932 1113.73 478.191 1115.95 476.596L1110.13 468.468C1107.69 470.213 1105.25 472.107 1102.79 474.166L1109.21 481.834ZM1140.93 463.619C1146.38 461.722 1151.86 460.317 1157.48 459.155L1155.45 449.362C1149.54 450.586 1143.61 452.097 1137.64 454.175L1140.93 463.619ZM1186.57 454.274C1189.49 453.782 1192.45 453.25 1195.47 452.651L1193.53 442.842C1190.62 443.418 1187.76 443.933 1184.91 444.413L1186.57 454.274ZM903.951 450.134C906.515 450.16 909.103 450.185 911.713 450.211L911.811 440.212C909.202 440.186 906.614 440.16 904.049 440.135L903.951 450.134ZM937.655 450.466C942.797 450.516 947.99 450.567 953.221 450.618L953.319 440.618C948.087 440.568 942.894 440.517 937.753 440.466L937.655 450.466ZM979.168 450.869C984.346 450.919 989.539 450.969 994.732 451.019L994.828 441.02C989.635 440.97 984.443 440.92 979.265 440.87L979.168 450.869ZM1020.67 451.267C1025.89 451.316 1031.08 451.365 1036.25 451.414L1036.34 441.414C1031.18 441.366 1025.98 441.316 1020.77 441.267L1020.67 451.267ZM1062.19 451.656C1067.44 451.705 1072.64 451.752 1077.76 451.799L1077.85 441.8C1072.73 441.753 1067.54 441.705 1062.28 441.656L1062.19 451.656ZM1103.68 452.034C1109.02 452.081 1114.22 452.127 1119.28 452.172L1119.36 442.172C1114.31 442.128 1109.11 442.082 1103.77 442.034L1103.68 452.034ZM1145.22 452.393C1150.72 452.439 1155.92 452.481 1160.79 452.519L1160.87 442.519C1156 442.481 1150.8 442.439 1145.31 442.393L1145.22 452.393ZM1186.72 452.705C1189.66 452.723 1192.25 452.737 1194.48 452.747L1194.52 442.747C1192.3 442.737 1189.71 442.723 1186.78 442.705L1186.72 452.705Z" fill="#108DBB"/>
</svg>
