<svg width="1599" height="3391" viewBox="0 0 1599 3391" fill="none" xmlns="http://www.w3.org/2000/svg">
<path d="M603 464L613.5 491.5M687 498.5L697 525.5M836.5 543.5C841 600.5 828.5 737.5 830.5 796M836.5 498.5L837.5 454M828 995.5C827.833 1058 827.6 1193.6 828 1236C828.5 1289 824.5 1366 824.5 1409.5C824.5 1453 820 1615.5 820 1664.5C820 1703.7 820 1842.17 820 1906.5C838 1904.83 878.8 1901.2 898 1900C922 1898.5 942 1898.5 944 1891.5C946 1884.5 950.5 1869.5 946 1860C941.5 1850.5 940 1852.5 940 1839C940 1825.5 949 1835 949 1797.5C949 1760 944 1755.5 946.5 1731.5C949 1707.5 942.5 1695.5 955 1681.5C967.5 1667.5 988 1646 1007.5 1639.5C1027 1633 1062.5 1614.5 1084.5 1607.5C1106.5 1600.5 1178.5 1577 1202.5 1561C1226.5 1545 1245 1542.5 1260.5 1503.5C1276 1464.5 1287.5 1459.5 1294.5 1437.5C1301.5 1415.5 1318 1391 1318 1366C1318 1341 1327 1322.5 1318 1286.5C1309 1250.5 1298 1235.5 1290.5 1218C1283 1200.5 1248.5 1133 1216 1095C1183.5 1057 1169 1015.5 1158.5 999.5C1148 983.5 1100 895.5 1087 858.5C1074 821.5 1038.5 749 1032 723M1017 668C1019.8 685.2 1023.5 696.5 1025 700M1014.5 635C1012.75 622.504 1011.43 606.517 1011.5 600M1014.5 565C1014.5 547.8 1016.17 534.5 1017 530M982 940.829C972.408 940.164 962.987 939.5 956 939.5C935 939.5 938 937.5 938 927C933 911 1009.5 919.5 1023.5 919.5C1037.5 919.5 1027 933.5 1023.5 939.5C1021.16 943.504 1001.24 942.164 982 940.829ZM982 940.829C978.333 956.72 969.5 989.9 963.5 995.5C956 1002.5 940 995.5 948 1011C956 1026.5 987.5 1030 994 1026C1000.5 1022 981 1014.5 978.5 1006C976 997.5 983.5 955 987.5 944.5M798.5 873.5C801.5 869.5 824.5 859 828 862C831.5 865 828.5 876.5 830.5 884.5C832.5 892.5 834 909.5 850 927C866 944.5 881.5 968.5 885.5 966.5C889.5 964.5 899.5 942 897 937.5C894.5 933 887.5 930 886.5 919.5C885.5 909 887 909 898.5 909C910 909 923.5 907 923 919.5C922.5 932 909.5 952.5 902 972C894.5 991.5 890 1002 879.5 1002.5C869 1003 863 1005 860.5 999.5C858 994 863.5 988 859 982.5C854.5 977 837 961.5 830.5 947C824 932.5 816.5 915.5 816.5 907C816.5 898.5 814.5 895 809.5 893C804.5 891 798.5 889 798.5 884.5C798.5 880 796 875.626 798.5 873.5ZM1048 935C1043.5 950 1055 949.5 1054.5 963.5C1054 977.5 1048.5 1001 1037 1006C1025.5 1011 1016.5 1011.5 1018.5 1020C1020.5 1028.5 1049.5 1027 1054.5 1020C1059.5 1013 1061.5 981.5 1070 985C1078.5 988.5 1098.5 1026 1120 1026C1141.5 1026 1147 1026.5 1147 1011C1147 995.5 1136 998 1136.5 985C1137 972 1133 1006 1126.5 1006C1120 1006 1091 968.5 1091 963.5C1091 958.5 1108.5 946.5 1105.5 935C1102.5 923.5 1097 922.5 1078.5 923.5C1060 924.5 1052.5 920.5 1048 935ZM1071.5 938.5C1080 933.5 1091 932.659 1091 940.829C1091 949 1081.5 954.5 1074.5 953C1067.5 951.5 1071.5 950 1071.5 938.5Z" stroke="black" stroke-width="10" stroke-linecap="round"/>
<path d="M710.5 629.5C703.5 557.5 710.5 557 670.5 527.5C655.501 513 643 511 633 515.5C622.001 522 622 524.5 633 585C646.501 664 627.5 709 600.5 786C573.5 863 533.5 920.5 519.5 940C505.5 959.5 477 1006 460 1024.5C443 1043 424.5 1081 406.5 1103C388.5 1125 385 1143.5 361.5 1174C338 1204.5 330.501 1227 321.001 1247C311.501 1267 309.501 1292.5 313.001 1333C316.501 1373.5 315.501 1373 339.001 1430C362.501 1487 370.001 1490 394.501 1513C419.001 1536 473.501 1563 498.501 1577.5C523.501 1592 578.501 1605 609.001 1619.5C639.501 1634 651.501 1656 661.001 1671.5C670.501 1687 668.501 1710.5 671.501 1723.5C674.501 1736.5 675.501 1764 675.501 1774C675.501 1784 675.501 1788.5 673.001 1800.5C670.501 1812.5 673.501 1818 675.501 1831.5C677.101 1842.3 684.501 1850.33 688.001 1851C696.401 1853.4 697.501 1857 697.501 1872C697.501 1890 688.001 1898 697.501 1903.5C714.501 1922.5 728.001 1914.5 756.501 1914.5C779.301 1914.5 807.001 1910.17 818.001 1908C819.501 1891.67 822.501 1837.1 822.501 1749.5C822.501 1640 821.501 1507.5 821.501 1490C816.001 1490 794.001 1487 778.501 1482C763.001 1477 747.001 1489 716.501 1467.5C686.001 1446 675.001 1451.5 664.501 1437C654.001 1422.5 635.501 1414.5 604.001 1399.5C572.501 1384.5 567.001 1377.5 557.001 1358C547.001 1338.5 544.5 1314.5 532.5 1294.5C520.5 1274.5 525 1272 530 1251.5C535 1231 541 1203.5 536 1186.5C531 1169.5 536.5 1161.5 541 1148.5C545.5 1135.5 547 1117.5 549 1093.5C551 1069.5 575.5 1057 580 1029.5C584.5 1002 589 959.5 635 917C681 874.5 699.5 807 710.5 760C721.5 713 717.5 701.5 710.5 629.5Z" fill="black"/>
<path d="M1142.5 2374.5C1152.5 2367.5 1149 2362.5 1154 2362.5M1154 2362.5C1159 2362.5 1172.5 2347 1180.5 2353.5C1188.5 2360 1181.5 2365.5 1177 2371.5C1173.4 2376.3 1171.83 2376.17 1171.5 2375.5M1154 2362.5C1156.12 2363.94 1159.35 2366.17 1162.5 2368.45M1171.5 2375.5C1174.27 2378.27 1178.84 2383.04 1182.68 2387.5M1171.5 2375.5C1169.97 2373.97 1166.29 2371.18 1162.5 2368.45M1182.68 2387.5C1185.53 2390.81 1187.98 2393.96 1189 2396C1190.07 2398.14 1191.52 2400.53 1192.67 2403M1182.68 2387.5C1183.81 2385.68 1185.47 2384.67 1188 2384.05M1338.5 2429C1337 2430.5 1331.5 2434.5 1327 2438C1322.5 2441.5 1320.5 2442 1317.5 2436C1314.5 2430 1317 2428 1307.5 2427.5C1300.23 2427.12 1302.33 2427.61 1303.72 2424.5M1303.72 2424.5C1304.14 2423.55 1304.5 2422.26 1304.5 2420.5C1304.5 2413 1300 2414.5 1296.5 2414.5C1295.54 2414.5 1294.05 2414.76 1292.5 2415.01M1303.72 2424.5C1307.81 2420.17 1314.3 2411.5 1307.5 2411.5C1299 2411.5 1296 2415.52 1292.5 2415.01M1292.5 2415.01C1288.4 2415.67 1283.87 2416.22 1287.5 2411.5C1289.16 2409.35 1290.76 2406.65 1291.94 2404M1291.94 2404C1294.33 2398.65 1295.01 2393.5 1291 2393.5C1285.82 2393.5 1286.6 2398.35 1285.62 2390M1291.94 2404C1296.5 2399.5 1305.5 2395 1300 2390C1294.5 2385 1286.71 2397 1285.62 2390M1285.62 2390C1285.47 2388.68 1285.27 2387.04 1285 2385C1283 2370 1241 2333.5 1233.5 2325.5C1226 2317.5 1221 2321 1213 2325C1205 2329 1192.5 2328 1192.5 2326.5C1186 2322.5 1203.5 2323 1207 2323C1210.5 2323 1219.5 2318.5 1222 2315.5C1224.5 2312.5 1227.5 2306.5 1227.5 2311C1227.5 2315.5 1244.5 2329.5 1249 2336.5C1253.5 2343.5 1268 2356 1279 2367C1287.8 2375.8 1286.67 2379.33 1285 2380M1293 2223.5C1303 2222 1324.5 2226 1319.5 2234C1314.5 2242 1311.5 2242.5 1303.5 2239.5C1295.5 2236.5 1284.5 2232.5 1287 2228.5M951.003 2664.5C950.675 2666.59 950.324 2668.91 950 2671.5C949.26 2677.42 947.495 2681.9 945.69 2685.5C942.614 2691.64 939.425 2695.22 941 2699C942.173 2701.82 945.206 2700.87 947.5 2699C949.794 2697.13 954 2694 957.5 2692.5C961 2691 964 2692 968.5 2688.5C958 2684 952.087 2681.66 954.587 2671.5M951.003 2664.5C951.39 2662.04 952.257 2658.39 952.5 2656.5C953.32 2650.11 955.85 2648.05 951.003 2644.5C943.503 2639 939.5 2635 935 2633C944.859 2633 948.98 2635.88 958.995 2642.5C964.997 2647.66 978.4 2659.26 984 2664.34C988.45 2668.34 991.345 2670.14 998.5 2669C1011 2667 1019 2664 1020.5 2661.5C1022 2659 1025.5 2665.5 1010.5 2673.5C999.542 2679.34 993.985 2683.66 989 2683.75C987.161 2683.79 985.587 2683.21 985 2681.5C981.192 2670.41 978.067 2659.74 967.5 2668C965.864 2669.11 964.235 2669.79 963 2670.69C954.2 2675.64 951.669 2668.63 951.003 2664.5ZM994.5 2581C1003 2581 1005.5 2582 1007.5 2588C1009.5 2594 1003.5 2599.5 1005.5 2606.5C1007.5 2613.5 1008.5 2624.5 1015 2628C1021.5 2631.5 1021 2627 1032.5 2632C1041.7 2636 1049 2636.61 1051.5 2636.41M1051.5 2636.41C1054.89 2636.89 1059.72 2637.38 1059.5 2641.5C1059 2651 1061.5 2655 1065 2642.5C1069.72 2625.64 1048.5 2626 1039.5 2626C1030.5 2626 1026.5 2622 1014.5 2619C1002.5 2616 1011.5 2622.5 1012 2598.5C1012.5 2574.5 1006 2575 991 2575C986.5 2573 998 2593 1000.5 2600.5C1003 2608 1010.5 2626 1020.5 2644.5C1030.5 2663 1016 2675.5 1032.5 2665.5C1045.7 2657.5 1046.33 2652.5 1045 2651C1034.5 2650 1029 2654.5 1026 2645.54C1023 2629.58 1027.5 2634.5 1036 2636C1040.81 2636.85 1047.07 2635.77 1051.5 2636.41ZM1139 2577C1140.5 2581 1123.5 2582 1111 2590C1098.5 2598 1085.5 2608.5 1079.5 2606.5C1077.5 2603.5 1087.5 2598.5 1092.5 2595.5C1097.5 2592.5 1117 2583 1123.5 2577C1130 2571 1137.5 2573 1139 2577ZM1139 2577C1143.67 2574 1143.4 2571.4 1137 2573M1108.5 2624C1105.5 2619.5 1082.5 2582 1079.5 2577M1112.64 2548C1111.29 2550.31 1109.9 2552.75 1108.5 2555C1115 2558 1121 2562 1123.5 2572C1126 2582 1130.5 2581.92 1131 2583C1131.5 2584.08 1137.5 2591.5 1139 2599C1140.5 2606.5 1142.5 2607 1151 2599C1159.5 2591 1148.5 2594.5 1141.5 2588C1134.5 2581.5 1134.5 2572 1128.5 2566C1122.5 2560 1125.5 2557 1123.5 2543.5C1121.93 2532.9 1117.58 2539.56 1112.64 2548ZM1112.64 2548C1116 2552.5 1119 2548.23 1125 2565C1131 2581.77 1142.49 2602 1145 2602M1144 2548.5C1133 2548.5 1141.5 2540 1150 2522.5C1152.5 2515 1152.5 2526 1153.5 2534.5C1154.5 2543 1146.5 2548.44 1161 2545C1175.5 2541.56 1169 2543.5 1169 2550.5C1169 2557.5 1173.5 2552.5 1173.5 2562.5C1173.5 2572.5 1174.5 2572 1184 2565C1193.5 2558 1191 2566 1186.5 2573C1182 2580 1172 2579.5 1169 2577C1166 2574.5 1172.5 2564 1166 2562.5C1159.5 2561 1157 2565 1157 2555C1157 2545 1155 2548.5 1144 2548.5ZM1144 2548.5C1141.2 2548.59 1143.5 2539.21 1145 2534.5C1148.5 2543.5 1153.53 2546.5 1161 2553.5C1168.47 2560.5 1171.5 2569.92 1175.5 2574C1179.5 2578.08 1180 2573 1182 2573M1208.5 2535.5C1203.5 2530 1200.5 2517 1193.5 2516.5C1186.5 2516 1178.5 2520 1182 2512.5C1187.5 2502.5 1190 2497.5 1198.5 2502.5C1207 2507.5 1207 2510.5 1208.5 2523.5C1210 2536.5 1221.5 2534.5 1233 2534.5C1244.5 2534.5 1257.5 2530.5 1264 2525C1270.5 2519.5 1256 2542 1238 2543.5C1226.52 2544.46 1219.72 2543.18 1215 2540.7M1208.5 2535.5C1210 2540.33 1212.8 2551.4 1212 2557C1211 2564 1215 2562.5 1221 2557C1227 2551.5 1226 2553 1219 2550.5C1213.4 2548.5 1214 2543.13 1215 2540.7M1208.5 2535.5C1210.31 2537.49 1212.32 2539.29 1215 2540.7M1142 2374.5C1143.5 2382 1149 2369.5 1151.5 2367C1154 2364.5 1164.5 2372.5 1168.5 2379.5C1172.5 2386.5 1184.5 2395 1189 2402C1193.5 2409 1192 2412 1192 2416C1195.86 2412.14 1194.75 2407.45 1192.67 2403M1162.5 2368.45C1166 2359.5 1174.5 2352.14 1178 2359C1181.5 2365.86 1171.5 2370.5 1171.5 2371.5M1188 2384.05C1190.34 2383.48 1193.42 2383.24 1197.5 2383C1206 2382.5 1216 2382 1227.5 2377.5C1224.5 2384.05 1211.5 2384.05 1203.5 2384.05C1195.5 2384.05 1194.19 2381.61 1188 2384.05ZM1188 2384.05C1189.45 2387.87 1192.41 2397 1192.67 2403M1235.5 2486.38C1232.88 2485.12 1231.75 2482.5 1235.5 2477C1241.07 2468.83 1242.78 2473.07 1245.13 2476M1235.5 2486.38C1237.47 2487.31 1240.28 2487.48 1242.51 2487.5M1235.5 2486.38L1240.32 2481.19M1245.13 2476C1245.95 2477.01 1246.84 2477.87 1248 2478C1249.67 2478.19 1251.07 2479.48 1252.83 2481M1245.13 2476L1240.32 2481.19M1242.51 2487.5C1243.26 2487.51 1243.94 2487.5 1244.5 2487.5C1249 2487.5 1254 2486.5 1258.5 2498C1263 2509.5 1269 2512.5 1278 2507.5C1269.5 2506.5 1273.5 2507.5 1267 2498C1260.5 2488.5 1278 2490 1290.5 2487.5C1301.83 2485.23 1297.55 2472.7 1284 2465.16M1242.51 2487.5L1247.67 2484.25M1252.83 2481C1255.81 2483.58 1259.83 2486.81 1268 2486.5C1281 2486 1290 2486.5 1284 2474.5C1278 2462.5 1273 2465 1264 2463C1255 2461 1249.5 2456.5 1252 2452.5C1254.5 2448.5 1263 2452.5 1279.5 2452.5C1296 2452.5 1303.5 2452 1311 2447C1313.1 2445.6 1313.95 2445.89 1313.48 2447M1252.83 2481L1247.67 2484.25M1240.32 2481.19L1247.67 2484.25M1313.48 2447C1312.29 2449.87 1302.44 2458.22 1283 2457.5C1256 2456.5 1262.5 2456 1279.5 2463C1281.09 2463.66 1282.6 2464.38 1284 2465.16M1313.48 2447C1311.5 2450 1301.5 2460.83 1284 2465.16M1381.5 2343C1395 2353 1406 2351 1409 2345C1412 2339 1409 2333 1393.5 2326.5C1386.24 2323 1379 2322.5 1372 2324.5C1365 2326.5 1368 2333 1381.5 2343ZM1381.5 2343C1388.5 2347 1405 2359 1412 2350C1419 2341 1408.23 2336 1397 2326.5C1385.77 2317 1369.5 2318 1364 2322.5C1360 2325.7 1374 2337.5 1381.5 2343ZM882 2503.5C884.5 2496 886 2483 890 2500C893.2 2513.6 901 2539.33 904.5 2550.5C904.667 2552.17 904.5 2554.7 902.5 2551.5C900 2547.5 895 2525.5 892 2515.5C889 2505.5 888 2497.5 882 2503.5ZM937 2473.5C941 2475 934 2477 935.5 2481.5C937 2486 945 2495.5 951 2500C957 2504.5 965.5 2509.5 964.5 2515.5C963.5 2521.5 945.5 2535 939 2533C932.5 2531 957.5 2523.5 955.5 2515.5C953.5 2507.5 947.5 2505 940.5 2499C933.5 2493 926.5 2483.5 928.5 2478.5C930.5 2473.5 933.5 2472 937 2473.5ZM988.5 2458.5C999.5 2459 1016 2464 1016.5 2477.5C1017 2491 1019.5 2518 1007.5 2517.5C995.5 2517 987 2506 984.5 2500C982 2494 975 2482 976.5 2468.5C978 2455 983.5 2458 988.5 2458.5ZM991.5 2468.5C999.5 2468.5 1010 2475.5 1010 2485.5C1010 2495.5 1012.5 2509.5 1003 2508C993.5 2506.5 992.5 2500.5 988.5 2493C984.5 2485.5 978 2468.5 991.5 2468.5ZM1055 2430.5C1054 2435 1051 2437 1046.5 2437C1042 2437 1039 2446.5 1042 2452.5C1045 2458.5 1054 2475.5 1067 2469.5C1080 2463.5 1079 2472 1073.5 2475.5C1068 2479 1054 2479.5 1046.5 2471.5C1039 2463.5 1035 2455.5 1038 2444C1041 2432.5 1045.5 2427.5 1055 2430.5ZM1087 2413C1094 2420.5 1097.5 2432.5 1106 2429C1114.5 2425.5 1129 2420 1129 2413C1129 2406 1107 2387 1112.5 2386.5C1118 2386 1124 2382.5 1126.5 2395C1133.5 2402 1161.96 2426.19 1157 2429C1150.75 2432.55 1152.81 2430.9 1142.5 2423C1132.56 2415.38 1133 2426 1121 2430.5C1109 2435 1107 2439.5 1114 2446C1121 2452.5 1126 2458 1117.5 2462.5C1109 2467 1112.5 2457 1104.5 2448.5C1096.5 2440 1091.5 2445.5 1091 2438.5C1090.5 2431.5 1093.5 2433.5 1091 2429C1088.5 2424.5 1076 2416.5 1080 2416C1083.2 2415.6 1086 2413.83 1087 2413ZM1270 2315.5C1270 2308 1289 2294.5 1285 2287.5C1281 2280.5 1265 2281.5 1254.5 2275C1244 2268.5 1238.5 2269 1242.5 2262.5C1246.5 2256 1260 2240.5 1262.5 2246C1265 2251.5 1245 2255.5 1251 2262.5C1257 2269.5 1271.5 2274.5 1282.5 2273.5C1293.5 2272.5 1302.5 2284 1295.5 2291C1288.5 2298 1277.5 2306 1270 2315.5ZM1277 2228C1278 2222 1286.5 2214.5 1301.5 2217.5C1316.5 2220.5 1332.5 2227 1327.5 2236.5C1322.5 2246 1313 2250.5 1297.5 2248C1282 2245.5 1274.5 2234 1277 2228ZM1077.5 2572C1081.5 2570 1086.5 2565.5 1089.5 2579.5C1092.5 2593.5 1098.5 2597.5 1101 2602C1103.5 2606.5 1121.5 2620 1112 2626C1102.5 2632 1103 2620.5 1095.5 2612.5C1088 2604.5 1090.5 2596.5 1083 2588C1075.5 2579.5 1072 2574.3 1077.5 2572ZM1315 2372.5C1330.5 2380 1331.5 2379 1342.5 2387.5C1353.5 2396 1360 2396.5 1355.5 2404C1351 2411.5 1351.5 2410.5 1358.5 2406C1365.5 2401.5 1369.5 2400.5 1360 2393.5C1350.5 2386.5 1356.5 2384 1368 2382C1379.5 2380 1392.5 2378 1393.5 2372.5C1394.5 2367 1390 2368 1383 2376C1376 2384 1362 2381.5 1351.5 2380C1341 2378.5 1344.5 2372.5 1344 2367C1343.5 2361.5 1344 2355.5 1336.5 2354C1329 2352.5 1315.5 2359.5 1315 2372.5ZM1322 2371C1332 2372.5 1338.5 2383.5 1338.5 2373.5C1338.5 2363.5 1342 2360.5 1334.5 2358C1327 2355.5 1322 2362 1322 2371ZM1368 2304C1372 2304 1387 2280.5 1393.5 2281.5C1400 2282.5 1415.5 2303 1420 2307C1424.5 2311 1412 2322.5 1420 2317.5C1428 2312.5 1442 2298 1434 2301C1426 2304 1422 2304 1414.5 2297.5C1407 2291 1397 2277.5 1397 2270C1397 2262.5 1394 2246.5 1389.5 2264C1385.9 2278 1375 2288.83 1370 2292.5C1366 2296.5 1360 2304.4 1368 2304ZM1414.5 2234C1418 2234 1421.5 2237.5 1418 2249C1414.5 2260.5 1434.5 2256.5 1434 2247.5C1433.5 2238.5 1435 2228.5 1437.5 2230C1440 2231.5 1432 2243 1434 2252C1436 2261 1444.5 2257.5 1451 2262C1457.5 2266.5 1462.5 2267 1458 2278.5C1453.5 2290 1451.5 2291 1453.5 2275C1455.5 2259 1431 2260.5 1425.5 2260.5C1420 2260.5 1409 2263.5 1409 2253.5C1409 2243.5 1411 2234 1414.5 2234Z" stroke="black" stroke-width="7" stroke-linecap="round" stroke-linejoin="round"/>
<path d="M304 2152C290.5 2143.5 223.5 2129 209.5 2126.5C195.5 2124 202 2138 186.5 2138.5C171 2139 174 2129 173 2095C173 2075 173 2072 186.5 2078C200 2084 200 2098.5 204 2106C208 2113.5 263.5 2130.5 304 2152ZM304 2152C326.325 2138.5 339 2141 344 2133.5C349 2126 327 2110.5 324.5 2106C322 2101.5 324.5 2095 335 2095C345.5 2095 358 2113 364 2119C370 2125 377.5 2129.5 378 2135C378.5 2140.5 345 2154.5 324.5 2168C308.1 2178.8 272.333 2196.83 256.5 2204.5C222.9 2220.5 204 2232.17 199 2237.5C191.5 2244.5 202 2265 194 2270.5C188.5 2275.5 184.5 2271 177.5 2256C171.9 2244 174.167 2230 176 2224.5C176 2221.5 189 2228.5 192.5 2224.5C196.931 2220.44 221.816 2203.01 259.5 2179.28M304 2152C288.923 2161 274.939 2169.58 262.323 2177.5M262.323 2177.5C252.382 2163.17 229.9 2135.3 219.5 2138.5C206.5 2142.5 205.5 2144 211 2148C216.5 2152 247 2169.05 259.5 2179.28M262.323 2177.5C261.374 2178.1 260.433 2178.69 259.5 2179.28M632 2735C627.5 2732 623.5 2727.5 621 2715.5C618.5 2703.5 619 2708.5 608 2688.5C597 2668.5 617 2688.5 636.5 2667.5C656 2646.5 625 2643 612 2632.5C599 2622 586 2633 586 2648.5C586 2664 573.5 2666.5 566 2679C558.5 2691.5 552 2696 540 2696C536.5 2696 529.1 2696.6 527.5 2699C525.5 2702 533 2709.5 546.5 2715.5C560 2721.5 569.5 2701 582 2688.5C594.5 2676 597.5 2727.5 599.5 2739C601.5 2750.5 621 2754.5 636.5 2753C645.933 2752.09 643.885 2746.73 639.822 2742M632 2735C647.5 2735 652.5 2727.5 658.5 2712.5M632 2735C633.761 2736.17 637.208 2738.96 639.822 2742M658.5 2712.5C664.5 2697.5 677.5 2678 694.5 2681C711.5 2684 717.5 2685.5 725 2699C732.5 2712.5 732 2728 721 2745.5C710 2763 711.5 2775.5 685 2774.5C658.5 2773.5 662.5 2760 658.5 2748.5C656.929 2743.98 656.052 2739.54 655.779 2735M658.5 2712.5C656.375 2720.7 655.355 2727.97 655.779 2735M639.822 2742C644.234 2741.67 653.601 2739.8 655.779 2735M201.5 2280C197 2286.5 186.5 2286.5 194 2304C201.5 2321.5 238.5 2346.5 251.5 2345.5C264.5 2344.5 274 2337 286.5 2327.5C299 2318 311.5 2308.5 321 2309C330.5 2309.5 343.5 2327.5 355 2327.5C366.5 2327.5 365.5 2326 365.5 2315C365.5 2304 346.5 2274 332 2274C317.5 2274 300.5 2283 281.5 2301.5C262.5 2320 266.5 2323.5 248 2322C229.5 2320.5 205.5 2289.5 201.5 2280ZM339 2348C361 2348 376 2344 375 2358C374 2372 350 2412 360 2417C370 2422 423 2434.5 405.5 2437C388 2439.5 353 2429 328.5 2430.5C304 2432 279.5 2435 279.5 2425C279.5 2415 284 2409.5 302.5 2415C321 2420.5 328.5 2417 328.5 2406.5C328.5 2396 346 2364.5 339 2348ZM418.5 2456.5C432.5 2456.5 427 2457.5 427.5 2485C428 2512.5 421 2510.5 423 2532.5C425 2554.5 428 2587 434 2586C440 2585 465 2573 465 2556.5C465 2540 467.5 2533 477 2539.5C486.5 2546 508 2549.5 486.5 2566C465 2582.5 453.5 2612 429.5 2612.5C405.5 2613 415 2610.5 411.5 2593C408 2575.5 399 2581.5 398.5 2525C398 2468.5 392 2488 393 2475.5C394 2463 403 2453.5 418.5 2456.5ZM510.5 2595C505.833 2592.5 496.5 2586.1 496.5 2580.5C496.5 2573.5 502.5 2566 509 2569.5C515.5 2573 530.5 2586 543.5 2593C556.5 2600 588.5 2615 573.5 2621C558.5 2627 547.5 2614 540 2618.5C534 2622.1 523.167 2632.33 518.5 2637C513.5 2639.83 503.8 2648.3 505 2659.5C506.5 2673.5 504.5 2687.5 495 2676.5C485.5 2665.5 471 2658 477 2653.5C483 2649 486 2654 492 2648.5C496.8 2644.1 507.667 2631.33 512.5 2625.5C514.83 2622.26 527.231 2613.02 525.5 2606.5C523.864 2600.34 513.4 2597.49 510.5 2595ZM605.5 2651C604 2659.5 603.5 2661.5 613.5 2660.5C623.5 2659.5 628.5 2655 621 2648.5C613.5 2642 605.5 2641.5 605.5 2651ZM691.5 2700.5C704.5 2700.5 712.5 2705.5 711 2721.5C709.5 2737.5 714.5 2745 702 2751C689.5 2757 683 2752 677.5 2743.5C672 2735 675.5 2728.5 676.5 2714.5C677.5 2700.5 687.339 2700.3 691.5 2700.5ZM756.5 2709C760 2699 761 2694 779 2696.5C797 2699 800 2703.5 799 2717C798 2730.5 788.5 2730.5 772.5 2741.5C756.5 2752.5 755.5 2762 760.5 2773C765.5 2784 787.5 2803.5 774 2799C760.5 2794.5 745.5 2789 746 2774.5C746.5 2760 752 2758 753.5 2741.5C755 2725 754 2721.5 751 2717C748 2712.5 755.086 2713 756.5 2709ZM776 2712.5C788 2714.5 791 2726 783.5 2731.5C776 2737 771 2735 768 2731.5C765 2728 776 2720.5 776 2712.5ZM795 2776C805.5 2776 811 2772 812 2763C813 2754 833 2721.5 829 2717C825 2712.5 815 2708.5 820 2702.5C825 2696.5 841 2677 843 2688C845 2699 836.5 2714.5 845.5 2718.5C854.5 2722.5 874 2727.5 875 2720C876 2712.5 877 2705 885.5 2696.5C894 2688 904.5 2673.5 895 2710.5C885.5 2747.5 879.5 2740 879.5 2754.5C879.5 2769 884 2770 889.5 2774.5C895 2779 893 2796 882 2794.5C871 2793 863 2792 863.5 2770.5C864 2749 873 2741.5 853.5 2740C834 2738.5 841.5 2738.5 829 2758.5C816.5 2778.5 820 2784 820 2791.5C820 2799 810 2790.5 804.5 2788C799 2785.5 789.5 2776.45 795 2776ZM921.5 2740C933.5 2724.5 941.5 2709.5 954 2717C966.5 2724.5 960.5 2736 958.5 2749.5C956.5 2763 949.5 2784.5 931 2776C912.5 2767.5 907.5 2758.04 921.5 2740ZM933.5 2746.5C933.5 2734 942.5 2725.5 949 2728.5C955.5 2731.5 953.5 2744.5 946.5 2749.5C939.5 2754.5 937.5 2758 933.5 2746.5Z" stroke="black" stroke-width="7" stroke-linecap="round" stroke-linejoin="round"/>
<rect x="240.5" y="3089.91" width="1190.56" height="61.5947" stroke="black" stroke-width="15"/>
<rect x="233" y="3082.41" width="594.861" height="76.5947" fill="black"/>
<path d="M1148.49 3031H1163.96L1162.53 2966H1155.25L1134.32 2985.76V2991.22L1151.35 2984.59L1148.49 3031ZM1214.47 3032.3C1236.31 3032.3 1247.36 3013.84 1247.49 2998.11C1247.49 2977.96 1234.36 2964.7 1214.47 2964.7C1194.58 2964.7 1181.45 2977.96 1181.45 2998.11C1181.32 3014.23 1192.11 3032.3 1214.47 3032.3ZM1214.47 3021.64C1202.12 3021.64 1194.32 3012.02 1194.32 2998.63C1194.32 2985.5 1202.51 2976.79 1214.47 2976.79C1226.43 2976.79 1234.49 2985.37 1234.62 2998.76C1234.62 3012.02 1226.82 3021.64 1214.47 3021.64ZM1318.16 2964.7C1301.52 2964.7 1286.57 2975.62 1286.57 2997.72C1286.57 3017.61 1299.05 3032.3 1317.51 3032.3C1325.18 3032.3 1332.2 3028.66 1335.32 3025.54L1336.62 3016.44H1336.36C1331.42 3019.56 1325.96 3022.42 1319.07 3022.42C1307.5 3022.42 1299.44 3014.49 1299.44 2997.98C1299.44 2983.03 1307.89 2976.53 1317.77 2976.53C1324.14 2976.53 1330.25 2978.61 1336.23 2983.03H1336.49L1333.89 2967.82C1330.38 2966 1325.05 2964.7 1318.16 2964.7ZM1377.91 2977.83C1386.1 2977.83 1391.43 2980.43 1391.04 2992.78L1389.74 3031H1404.3L1403 2988.49C1402.87 2986.54 1402.74 2984.72 1402.48 2982.9C1406.51 2979.91 1411.45 2977.83 1415.87 2977.83C1424.06 2977.83 1429.39 2980.43 1429 2992.78L1427.83 3031H1442.39L1440.96 2988.49C1440.44 2974.19 1434.72 2964.7 1423.15 2964.7C1416.39 2964.7 1410.28 2969.25 1404.69 2974.06L1401.18 2977.18C1398.58 2969.38 1393.38 2964.7 1385.19 2964.7C1378.43 2964.7 1372.32 2969.25 1366.73 2974.06L1364.65 2975.88L1364.39 2966H1350.87V2966.26L1353.21 2982.9L1351.65 3031H1366.21L1364.91 2982.77C1368.81 2979.78 1373.62 2977.83 1377.91 2977.83Z" fill="black"/>
</svg>
