<svg width="1935" height="3691" viewBox="0 0 1935 3691" fill="none" xmlns="http://www.w3.org/2000/svg">
<g clip-path="url(#clip0)">
<path fill-rule="evenodd" clip-rule="evenodd" d="M897.909 246.834C858.313 282.809 819.376 319.363 784.619 360.44C767.759 380.366 757.34 404.034 746.901 427.749C736.735 450.844 726.549 473.983 710.375 493.751C652.466 564.529 602.801 633.366 569.681 718.534C557.71 749.317 545.463 780.017 533.211 810.732C520.946 841.479 508.675 872.242 496.667 903.119C479.527 947.193 481.744 999.466 483.842 1048.93C484.518 1064.87 485.182 1080.51 485.182 1095.5C485.182 1116.84 487.016 1138.14 488.856 1159.5C490.708 1180.99 492.565 1202.55 492.565 1224.3C492.565 1273.75 477.383 1319.77 462.069 1366.19C458.649 1376.56 455.222 1386.95 451.956 1397.4C430.132 1467.23 377.328 1493.63 319.623 1522.48C306.056 1529.26 292.217 1536.18 278.447 1543.83C268.092 1549.59 258.379 1556.53 249.343 1564.43C246.624 1540.57 242.883 1517.03 237.77 1494.02C232.832 1471.8 231.955 1451.63 231.079 1431.47C230.238 1412.11 229.396 1392.74 224.961 1371.55C214.558 1321.85 218.985 1259.57 222.692 1207.41C223.016 1202.86 223.334 1198.38 223.636 1194C226.428 1153.51 225.496 1111.94 224.565 1070.47C224.101 1049.78 223.637 1029.11 223.637 1008.62C223.637 970.159 227.603 932.001 231.574 893.802C235.554 855.523 239.537 817.205 239.537 778.505C239.537 723.613 243.529 669.064 247.512 614.628C251.479 560.417 255.437 506.318 255.437 452.105V301.493C255.437 254.269 277.948 239 349.5 239C430.855 240.808 480.496 244.555 559.311 259.975C584.112 264.828 611.46 263.717 637.989 262.639C649.09 262.187 660.047 261.742 670.614 261.742C715.993 261.742 760.388 257.77 804.798 253.796C835.716 251.029 866.641 248.262 897.909 246.834ZM1700.87 1738.18C1691.89 1746.18 1682.09 1753.41 1673.91 1757.95C1648.52 1772.06 1622.36 1792.15 1609.1 1818.66C1587.27 1862.32 1535.98 1884.03 1488.48 1904.15C1469.05 1912.37 1450.25 1920.33 1434.36 1929.41C1426.2 1934.07 1425.65 1942.12 1425.11 1949.88C1424.72 1955.41 1424.35 1960.79 1421.23 1964.69C1414.04 1973.67 1399.94 1983.9 1389.65 1988.48C1378 1993.65 1367.19 2004.94 1356.3 2016.3C1343.16 2030 1329.92 2043.82 1314.99 2047.13C1234.63 2064.99 1147.56 2077.08 1064.78 2077.08C1035.99 2077.08 1031.55 2134.29 1031.55 2154.6C1031.55 2196.22 1006.39 2264.37 983.151 2298.17L981.672 2300.32C952.824 2342.3 932.134 2372.41 879.783 2372.41C832.187 2372.41 779.778 2348.24 732.446 2326.41C717.806 2319.65 703.652 2313.12 690.276 2307.6C674.426 2301.06 658.375 2295.31 642.45 2289.6C583.186 2268.36 525.676 2247.75 486.822 2189.47C464.112 2155.41 432.567 2129.71 400.978 2103.99C375.928 2083.58 350.85 2063.16 330.13 2038.52C316.521 2022.34 302.747 2007.03 289.114 1991.89C277.869 1979.4 266.72 1967.01 255.839 1954.33C255.941 2050.33 254.217 2145.78 241.304 2241.34C228.643 2335.03 229.791 2430.58 230.933 2525.53C231.26 2552.77 231.587 2579.96 231.587 2607.05C231.587 2617.63 231.577 2628.22 231.567 2638.79C231.475 2736.1 231.383 2833.07 239.095 2929.47C240.419 2946.02 241.823 2962.62 243.229 2979.26C249.305 3051.13 255.437 3123.66 255.437 3195.36C255.437 3204.4 255.134 3214.99 254.803 3226.56C253.08 3286.73 250.592 3373.59 286 3409C315.624 3438.62 359.6 3444.43 402.66 3450.11C418.839 3452.24 434.889 3454.36 450 3457.72C525.619 3474.52 592.238 3469.27 663.196 3463.67C700.353 3460.74 738.699 3457.72 780.15 3457.72C1005.15 3457.72 1229.22 3454.77 1454.15 3449.77C1573.62 3447.11 1654.67 3372.08 1654.67 3247.48C1654.67 3239.2 1654.65 3230.91 1654.64 3222.62C1654.5 3156.55 1654.36 3090.18 1663.06 3024.88C1673.32 2947.96 1672.26 2868.65 1671.21 2789.92C1670.89 2765.98 1670.57 2742.1 1670.57 2718.35C1670.57 2626.37 1672.56 2534.59 1674.55 2442.86C1676.54 2351.24 1678.52 2259.68 1678.52 2168.02C1678.52 2106.29 1684.2 2042.15 1689.93 1977.37C1697 1897.52 1704.15 1816.69 1700.87 1738.18Z" fill="#EFEBE3"/>
<path d="M760.721 1524.73C760.721 1571.33 771.231 1579.76 741.31 1616.94C730.907 1637.74 687.929 1650.17 687.929 1619.36C687.929 1571.79 688.374 1507.74 673.37 1462.72C664.145 1435.05 681.002 1312.33 673.37 1283.5C677.801 1279.96 696.337 1137.4 697.5 1131C700.537 1114.29 701.098 1096.04 704.914 1079.35C714.441 1037.67 717.046 988.974 717.046 946.164C717.046 917.383 707.834 868.241 719.472 842.636C723.747 833.231 720.032 823.402 722.168 813.789C723.815 806.376 732.715 801.196 736.457 794.647C741.851 785.207 753.023 775.385 760.721 767.687C815.18 713.228 851.89 648.909 911.16 598.106C934.379 578.204 960.48 563.532 982.874 543.377C1003.08 525.194 1035.15 488.925 1061.6 481.368C1129.35 462.011 1196.55 440.417 1265.42 424.212C1308.79 414.006 1365.89 423.134 1410.46 423.134C1464.13 423.134 1514.52 434.048 1567.37 437.693C1662.3 444.24 1709.67 494.566 1721.86 585.974C1736.38 694.912 1729.62 815.651 1689.77 918.125C1660.63 993.074 1577.42 929.887 1532.32 907.341C1499.2 890.777 1479.88 874.449 1442.55 874.449C1407.59 874.449 1377.78 872.382 1345.22 886.851C1331.73 892.848 1309.26 889.008 1294.54 889.008C1261.33 889.008 1230.36 892.19 1197.75 898.714C1166.77 904.909 1138.7 919.066 1108.51 927.831C1076.95 936.993 1047.51 944.579 1017.92 959.374C963.213 986.729 890.967 1015.18 872.337 1079.35C842.273 1182.9 878.808 1295.92 855.082 1400.98C845.95 1441.43 828.477 1466.2 794.422 1488.34C775.255 1500.79 760.721 1499.86 760.721 1524.73Z" fill="#F3DDC8"/>
<path d="M468.273 2905.61C442.068 2926.57 407.901 2917.5 379.659 2905.61C341.376 2876.9 308.303 2856.15 256.927 2856.15C224.079 2856.15 179.408 2864.62 163.275 2829.13C147.632 2794.71 173.035 2728.96 179.991 2695.18C194.703 2623.72 223.785 2548.29 256.011 2482.92C289.189 2415.61 307.668 2337.55 326.078 2264.93C339.939 2210.26 381.787 2171.83 406.449 2122.51C434.059 2067.29 460.152 2004.86 500.101 1957.64C514.408 1940.73 530.919 1913.2 554.597 1909.1C563.263 1907.6 587.929 1904.01 593.981 1914.6C620.342 1960.73 716.06 1961.35 697.937 2031.83C693.36 2049.63 693.049 2057.11 680.534 2068.93C668.022 2080.74 658.261 2095.13 651.683 2111.06C629.302 2165.24 601.94 2216.69 579.556 2270.88C546.784 2350.23 524.23 2437.62 520.022 2523.9C518.268 2559.84 519.862 2595.84 525.975 2631.29C532.713 2670.37 528.486 2713.54 528.036 2753.11C527.674 2784.91 526.207 2833.28 506.512 2860.27L505.77 2861.29C495.954 2874.74 480.68 2895.68 468.273 2905.61Z" fill="#79511B"/>
<path d="M1586.69 840.36C1722.97 869.604 1612.65 967.084 1550.99 1002.83C1550.99 995.245 1536.72 971.633 1479.61 937.84C1408.22 895.599 1450.4 811.116 1586.69 840.36Z" fill="#EBDCC1"/>
<path d="M1680.79 905.345C1745.69 1015.82 1648.34 1051.56 1599.67 1093.81C1591.02 1081.89 1567.87 1045.72 1544.51 996.326C1586.69 915.093 1615.89 794.868 1680.79 905.345Z" fill="#C2AC85"/>
<path d="M759.683 1337.86C759.683 1373.23 766.425 1415.18 748.638 1447.2C742.324 1434.57 726.548 1391.5 726.548 1377C726.548 1352.11 724.339 1327.49 724.339 1302.39C724.339 1267.94 716.244 1232.55 705.686 1199.92C702.259 1189.32 697.896 1173.88 688.504 1166.66C680.647 1160.61 673.663 1151.2 669.114 1142.36C662.882 1130.24 661.274 1116.59 658.069 1103.46C650.009 1070.41 645.234 1031.98 644.815 998.037C644.477 970.663 652.338 947.154 661.26 921.458C677.135 875.738 688.651 828.541 704.827 782.904C715.514 752.751 732.939 726.246 749.866 699.33C764.498 676.062 778.13 650.865 796.009 629.869C831.407 588.301 877.862 546.799 923.886 517.455C955.37 497.382 990.571 465.567 1030.16 468.734C1051.89 470.472 1046.37 491.19 1043.54 506.287C1033.85 557.997 1001.41 600.21 964.998 636.619C933.835 667.782 903.385 699.202 871.852 729.765C842.296 758.412 804.712 781.569 780.055 814.444C768.735 829.537 768.772 853.68 765.206 871.51C761.458 890.25 762 908.991 758.702 927.839C754.247 953.294 753.504 979.301 748.638 1004.91C742.495 1037.25 737.593 1068.27 737.593 1101.25C737.593 1143.37 748.638 1184.47 748.638 1226.79C748.638 1242.51 747.027 1259.05 748.761 1274.65C749.566 1281.89 753.78 1289.64 755.265 1296.99C758.029 1310.65 759.683 1323.91 759.683 1337.86Z" fill="white"/>
<path d="M1002.89 1889.18C980.757 1910.45 957.621 1900.65 935.907 1882.37C922.859 1878.32 922.125 1857.12 931.644 1850.06C956.028 1831.98 981.501 1811.75 1009.66 1800.56C1044.99 1786.51 1087.53 1792.63 1121.36 1775.91C1163.01 1755.33 1209.01 1749.39 1252.48 1734.84C1282.96 1724.64 1316.57 1726.34 1346.61 1714C1361.2 1708.01 1375.83 1701.51 1390.02 1694.55C1403.38 1688 1414.68 1677.59 1427.86 1670.65C1465.61 1650.76 1498.38 1631.6 1523.88 1596.04C1534.66 1581.02 1548.97 1565.77 1557.63 1549.62C1564.04 1537.68 1579.16 1531.4 1585.71 1519.72C1589.61 1512.79 1598.79 1508.13 1603.91 1501.41C1613.53 1488.78 1619.17 1480.42 1622.54 1464.15C1624.89 1452.8 1629.67 1443.06 1634.91 1432.64C1638.86 1424.77 1639.26 1410.7 1650 1408.94C1669.82 1405.68 1671.53 1416.07 1685.71 1425.47C1694.52 1431.32 1709.64 1451.35 1705.57 1463.48C1701.93 1474.32 1675.01 1485.01 1665.12 1486.63C1649.34 1489.22 1632.98 1490.69 1618.43 1496.53C1608.22 1500.63 1600.29 1514.52 1592.65 1522.12C1582.95 1531.79 1574.81 1543.54 1566.84 1554.66C1550.42 1577.55 1530.54 1605.4 1522.15 1632.49C1516.02 1652.25 1535.68 1659.86 1538.62 1677.73C1540.45 1688.88 1547.55 1707.63 1541.67 1717.84C1533.73 1731.62 1525.8 1744.84 1507.79 1748.3C1467.43 1756.06 1428.46 1732.54 1389.01 1728.26C1378.35 1727.1 1368.13 1724.03 1357.5 1722.95C1341.02 1721.28 1326.33 1723.88 1309.92 1726.58C1291.37 1729.63 1273.41 1731.46 1256.49 1740.08L1256.44 1740.11C1250.78 1742.98 1215.04 1761.19 1218.36 1768.62C1225.51 1784.63 1236.78 1792.72 1249.42 1803.86C1258.83 1812.15 1279.59 1858.03 1265.09 1866.53C1247.49 1876.85 1230.19 1896.92 1209.73 1898.55C1196.51 1899.61 1175.01 1897.1 1162.52 1893.34C1127.9 1882.91 1096.41 1865.88 1063.76 1850.88C1055.23 1846.96 1046.32 1843.54 1036.8 1844.57C1010.09 1847.45 1017.26 1875.37 1002.89 1889.18Z" fill="#F3DDC8"/>
<path d="M739.314 1445.74C731.611 1451.6 743.668 1491.46 744.723 1497.88C765.384 1501.19 784.33 1504.01 805.867 1500.47C832.036 1496.17 873.313 1485.23 888.652 1461.76C910.018 1429.06 938.503 1403.62 952.347 1365.61C967.055 1325.22 965.405 1283.82 958.455 1241.52L943.509 1150.57C940.613 1132.94 940.541 1115.31 937.988 1097.74C936.841 1089.86 934.369 1082.28 936.615 1074.44C948.649 1032.48 983.561 986.8 1021.77 965.807C1038.44 956.652 1054.17 947.967 1069.41 936.382C1078.53 929.448 1084.64 918.51 1093.86 911.117C1121.39 889.059 1178.01 881.879 1211.98 881.345C1233.17 881.011 1253.87 879.01 1275.16 881.322C1293.9 883.358 1311.72 888.315 1330.34 890.338C1388.16 880.835 1397.24 892.182 1462.59 850.518C1527.93 808.853 1662.3 775.555 1611.7 728.387C1568.39 671.688 1535.97 631.444 1461.94 643.611C1447.7 645.952 1436.27 654.152 1422.12 656.478C1406.85 658.987 1382.5 661.654 1369.08 669.057C1352.11 678.417 1339.44 692.03 1321.16 699.934C1307.81 705.706 1293.92 707.876 1280.48 712.941C1249.88 724.471 1217.98 731.114 1185.71 736.417C1151.11 742.104 1103.96 741.492 1073.81 761.305C1058.17 771.582 1042.23 781.356 1026.23 791.073C1019.21 795.336 1002.65 800.609 997.554 806.671C983.413 823.494 966.11 837.48 953.265 855.388C942.604 870.25 926.506 883.137 909.462 889.978C890.448 897.609 857.196 909.364 844.133 925.998C836.168 936.142 838.837 958.952 833.501 971.29C828.187 983.576 827.111 997.219 819.072 1008.43C811.909 1018.41 811.017 1031 803.884 1040.95C797.127 1050.37 794.374 1050.36 796.406 1062.72C798.437 1075.08 801.9 1075.34 798.059 1087.73C794.686 1098.61 778.756 1109.09 780.65 1120.62C783.304 1136.77 792.234 1152.67 795.145 1170.38L801.747 1210.56C803.665 1222.23 793.898 1239.39 804.141 1248.62C808.394 1252.45 817.743 1269.46 818.743 1275.54L822.789 1300.16C824.766 1312.19 826.476 1324.77 824.957 1336.85C823.262 1350.34 829.883 1363.66 827.489 1376.82C825.466 1387.94 825.366 1398.13 822.464 1409.25C821.011 1414.83 820.879 1426.88 818.374 1431.34C809.61 1446.95 783.315 1434.65 770.991 1436.67C760.623 1438.38 747.86 1439.25 739.314 1445.74Z" fill="#E8C09D"/>
<path d="M973.442 1858.09C965.098 1864.64 963.244 1873.38 963.159 1883.51C957.399 1881.72 955.823 1873.6 955.053 1868.91C954.317 1864.44 954.601 1862.79 956.279 1858.62C958.389 1853.38 957.174 1847.09 956.295 1841.74C953.755 1826.28 961.642 1806.04 972.221 1795.08C1004.6 1761.55 1050.65 1748.78 1094.82 1739.91C1147 1729.42 1200.07 1721.96 1251.51 1708.13C1278.32 1700.92 1304.28 1693.81 1331.69 1689.3C1340.65 1687.83 1348.82 1684.09 1357.35 1681.02C1373.46 1675.22 1389.53 1668.74 1404.78 1660.92C1428.99 1648.5 1454.42 1633.78 1476.3 1617.56C1509.95 1592.62 1542.57 1568.12 1569.81 1535.94C1583.78 1519.45 1597.13 1502.42 1607.49 1483.49C1611.28 1476.58 1615 1469.94 1618.02 1462.66C1620.95 1455.61 1625.61 1449.72 1627.88 1442.38C1632.11 1428.74 1636.38 1418.79 1645.97 1408.13C1653.61 1399.64 1687.41 1408.77 1677.46 1419.51C1672.7 1424.66 1671.16 1433.25 1667.29 1439.08C1659.45 1450.92 1647.71 1464.21 1650.18 1479.27C1651.52 1487.41 1654.48 1496.9 1643.85 1498.65C1637.91 1499.63 1632.23 1501.76 1626.6 1503.89L1625.98 1504.12C1620.26 1506.28 1615.11 1509.94 1609.44 1512.3C1607.17 1513.24 1600.87 1513.63 1599.28 1515.36C1597.61 1517.19 1597.24 1521.85 1596.28 1524.11C1592.04 1534.09 1584.49 1542.01 1580.04 1551.84C1576.73 1559.16 1571.89 1564.86 1566.47 1570.76C1561.03 1576.67 1555.76 1582.9 1550.64 1589.1C1542.27 1599.25 1532.01 1608.94 1525.76 1620.6C1520.11 1631.14 1519.76 1644.31 1521.65 1655.8C1522.67 1662 1521.73 1660.93 1516.95 1662.34C1509.59 1664.52 1502.72 1668.47 1495.69 1671.49C1485.17 1675.99 1475.9 1679.69 1466.37 1686.08C1451.33 1696.16 1444.29 1707.18 1441.17 1724.93C1440.38 1729.47 1444.22 1733.48 1438.69 1734.54C1432.48 1735.73 1420.26 1741.99 1414.24 1738.56C1405.61 1733.64 1393.93 1730.56 1384.45 1727.46C1376.23 1724.78 1367.97 1722.47 1359.81 1719.58C1355.53 1718.06 1351.43 1717.52 1347.01 1718.83C1329.11 1724.12 1311.98 1731.05 1294.01 1736.36C1284.41 1739.2 1275.96 1744.3 1268.28 1750.74C1261.66 1756.29 1244.44 1768.17 1243.9 1777.97C1243.67 1782.11 1247.91 1787.85 1242.56 1787.59C1238.16 1787.36 1233.67 1789.03 1229.26 1789.26C1223.52 1789.57 1217.59 1789.09 1211.84 1788.95C1187.07 1788.36 1161.7 1798.2 1139.61 1808.31C1125.35 1814.84 1112.07 1826.47 1099.85 1836.17C1091.72 1842.62 1085 1849.98 1074.27 1849.51C1064.29 1849.08 1055.31 1844.48 1045.63 1843.11C1040.54 1842.4 1035.69 1841.02 1030.5 1840.21C1021 1838.72 1012.47 1839.65 1003.07 1841.54C993.546 1843.45 981.004 1852.14 973.442 1858.09Z" fill="#DEA87F"/>
<path d="M1308.39 931.083C1330.63 906.377 1313.08 892.807 1341.54 900.241C1348.82 876.725 1510.15 979.272 1525.09 993.341C1581.98 1046.91 1602.48 1170.84 1541.93 1229.41C1527.58 1243.28 1506.26 1256.46 1498.48 1275.64C1489.07 1298.81 1486.43 1323.69 1475.37 1346.78L1474.98 1347.6C1441.29 1417.96 1410.91 1481.43 1352.96 1535.53C1305.5 1579.85 1245.93 1643.4 1178.33 1656.4C1115.84 1668.41 1061.11 1709.53 1012.04 1748.22C951.922 1795.6 910.509 1860.75 852.994 1910.18C826.912 1932.59 800.621 1960.56 778.618 1986.89C762.803 2005.81 756.759 2023.58 731.154 2027.79C705.438 2032.02 697.532 2019.97 682.547 1999.25C671.336 1983.76 652.724 1972.23 643.502 1956.02C636.476 1943.68 629.286 1932.73 618.684 1923.01C596.051 1902.25 571.67 1888.88 556.084 1861.39C546.591 1844.64 594.31 1827.3 602.346 1820.11C626.968 1798.09 676.264 1776.04 689.948 1745.8C706.198 1709.88 717.577 1706.44 756.577 1700.03C775.465 1696.93 783.394 1660.19 787.052 1642.52C791.427 1621.38 798.422 1595.92 805.796 1576.09C817.709 1544.06 840.69 1528 867.935 1509.96C909.273 1482.58 950.654 1454.91 988.505 1422.8C1013.04 1401.99 1046.67 1380.41 1067.39 1356.19C1079.89 1341.59 1101.85 1330.91 1116.15 1316.22C1137.24 1294.55 1154.96 1268.78 1175.06 1246.04C1215.49 1200.31 1252.01 1154.1 1275.22 1097.18C1286.56 1069.4 1277.77 1043.26 1273 1014.23C1265.74 970.07 1279.05 963.677 1308.39 931.083Z" fill="#EBDCC1"/>
<path d="M669.8 2032.74C690.302 2055.11 686.509 2084.7 686.722 2113.6C725.261 2125.56 803.377 2193.81 833.628 2151.64C861.617 2112.62 824.96 2061.72 845.109 2024.65C851.869 2012.22 852.015 1995.1 859.651 1980.44C871.978 1956.79 876.978 1930.19 886.584 1905.47C898.022 1876.03 912.999 1861.17 936.195 1840.22C985.997 1795.25 1030.66 1788.69 1096.41 1777.89C1150.11 1769.06 1204.17 1762.83 1255.44 1743.75C1294.36 1729.27 1336.62 1725.05 1372.33 1703.08C1437.3 1663.13 1497.93 1619.27 1559.82 1574.45C1589.01 1553.31 1592.3 1541.05 1600.54 1503.75C1609.49 1463.25 1626.49 1427.3 1637.05 1387.57C1655.09 1319.7 1694.08 1226.19 1652.76 1162.43C1626.54 1121.98 1601.01 1081.64 1571 1043.14C1564.38 1034.63 1555.41 1080.44 1553.22 1087.51C1530.5 1160.81 1498.63 1230.04 1475.98 1303.13C1458.86 1358.36 1410.5 1378.74 1380.74 1420.24C1353.25 1458.56 1308.7 1490.55 1268.56 1513.95C1246.09 1527.05 1232.07 1548.05 1206.92 1556.81C1183.53 1564.95 1162.1 1570.72 1137.54 1574.76C1064.39 1586.78 1043.79 1583.39 1002.71 1647.83C984.449 1676.48 966.067 1726.51 929.812 1739.45C907.93 1747.26 888.432 1740.21 879.928 1767.65C874.079 1786.52 871.545 1796.85 856.189 1811.19C848.936 1817.96 838.494 1828.05 832.256 1835.85C827.165 1842.21 818.522 1839.95 814.193 1845.36C797.471 1866.26 801.11 1884.45 792.893 1905.96C783.36 1930.91 772.08 1951.08 756.604 1972.65C737.152 1999.77 705.104 2012.39 671.366 2017.93C654.079 2020.77 661.755 2023.96 669.8 2032.74Z" fill="#C2AC85"/>
<path d="M515.056 1753.6C490.964 1746.12 461.796 1755.37 437.783 1759.32C451.987 1763.72 461.009 1798.67 463.071 1811.21C464.189 1818.02 470.793 1856.26 466.945 1858.4C454.936 1865.05 435.923 1845.35 427.742 1837.98C419.573 1830.62 409.154 1826.35 401.554 1818.37C393.672 1810.1 391.207 1800.33 386.964 1790.03C382.489 1779.16 379.016 1766.81 378.557 1754.92C377.634 1731.02 392.252 1708.96 413.998 1699.57C452.258 1683.03 491.55 1714.15 530.488 1707.75C560.28 1702.85 584.971 1681.9 613.34 1671.77C630.098 1665.79 648.553 1663.72 663.603 1653.73C676.53 1645.15 687.771 1631.84 701.152 1624.42C715.837 1616.28 727.362 1606.47 737.347 1592.55C747.847 1577.91 749.936 1567.25 754.356 1550.62C757.583 1538.48 765.644 1507.28 774.936 1499.26C790.991 1485.41 795.732 1516.54 796.147 1527.3C796.653 1540.4 795.2 1557.37 789.032 1568.99C781.502 1583.18 764.336 1594.06 753.404 1606.21C743.054 1617.71 738.848 1630.98 731.067 1644.04C721.65 1659.84 706.558 1672.77 690.328 1681.32C677.566 1688.04 663.852 1693 651.543 1700.27C642.856 1705.41 633.049 1705.42 624.536 1709.68C594.92 1724.5 583.427 1754.94 549.555 1760.51C539.151 1762.22 525.181 1756.75 515.056 1753.6Z" fill="#EBDCC1"/>
<path d="M1012.65 1118.45C997.576 1140.9 982.686 1163.32 965.235 1184.01C960.356 1154.33 941.513 1095.99 952.084 1066.79C961.384 1041.1 963.726 1021.25 983.633 1001.12C994.033 990.599 1001.8 977.796 1013.22 968.276C1022.08 960.893 1032.15 955.662 1041.67 949.214C1062.61 935.026 1085.6 925.829 1108.38 914.917C1126.26 906.35 1148.69 899.003 1168.18 895.8C1194.34 891.501 1221.55 884.434 1248.06 883.805C1263.56 883.437 1278.67 885.521 1293.18 891.114C1300.72 894.02 1313.35 895.147 1318.69 901.647C1322.94 906.827 1322.7 916.439 1323.75 922.791C1324.89 929.744 1324.06 940.319 1321.6 946.93C1320.19 950.718 1307.76 948.3 1304.59 948.82C1287.21 951.676 1270.08 946.336 1252.69 949.194C1221.55 954.311 1191.69 970.257 1164.18 984.95L1163.94 985.075C1121.2 1007.9 1086.56 1041.19 1048.46 1070.43C1032.88 1082.39 1023.42 1102.42 1012.65 1118.45Z" fill="#EFEBE3"/>
<path d="M875.576 1472.86C875.803 1472.78 876.029 1472.69 876.255 1472.6C878.414 1469.28 882.969 1461.62 884.424 1460.04C890.105 1453.9 893.669 1446.12 898.242 1439.2C902.757 1432.37 907.804 1423.48 914.167 1418.21C928.097 1406.69 935.007 1391.66 938.617 1373.8C945.04 1342.03 943.241 1307.61 943.539 1275.36C943.803 1246.74 940.744 1217.74 940.305 1189.02C939.924 1164.05 941.164 1139.17 939.383 1114.28C937.707 1090.86 939.956 1066.03 942.748 1042.78C944.247 1030.3 948.885 1012.37 956.33 1001.99C970.835 981.765 998.434 966.518 1019.7 954.935C1038.92 944.466 1056.68 930.401 1077.3 922.736C1090.85 917.697 1105.47 916.28 1119.67 913.945L1120.11 913.872C1132.8 911.787 1144.88 909.803 1156.29 903.461C1166.6 897.731 1170.56 889.14 1182.82 887.126C1195.1 885.107 1200.55 895.036 1202.16 904.853C1203.82 914.948 1190.58 921.102 1183.72 925.339C1164.12 937.46 1143.97 948.833 1124.62 961.338C1108.82 971.552 1084.49 986.165 1076 1003.73C1070.46 1015.2 1063.96 1024.89 1055.5 1034.5C1045.93 1045.37 1035.32 1054.88 1025.97 1065.95C1021.47 1071.28 1022.09 1080.78 1020.37 1087.37C1017.18 1099.58 1018.28 1113.36 1019.28 1125.77L1019.28 1125.81C1020.59 1142.2 1017.57 1160.18 1015.83 1176.41C1012.96 1203.18 1017.46 1232.04 1012.8 1258.6C1009.85 1275.41 1007.78 1295.11 1001.94 1311.03C993.508 1334.03 978.429 1354.89 965.468 1375.48C954.908 1392.25 942.019 1408.74 929.654 1424.19C914.371 1443.29 899.703 1463.37 876.255 1472.6C875.142 1474.31 874.665 1474.88 875.576 1472.86Z" fill="#C2AC85"/>
<path d="M669.532 1871.63C588.336 1792.14 526.178 1752.82 487.94 1732.19M476.135 1855.87C459.018 1824.84 441.853 1789.02 537.376 1858.76C613.794 1914.55 710.644 2018.58 737.378 2051.09M846.444 2156.58C860.627 2134.8 861.742 2126.38 850.614 2094.09C839.486 2061.79 850.008 2034.05 876.071 2000.12C902.133 1966.19 905.77 1969.76 907.782 1931.3C909.794 1892.85 931.202 1873.39 943.082 1861.24M890.69 1902.68C851.559 1831.08 720.566 1695.71 619.185 1667.79M487.94 1732.19C467.949 1721.4 454.495 1715.72 448.278 1712.09C430.167 1701.49 388.418 1727.19 383.957 1760.87C383.664 1763.08 383.669 1765.5 383.971 1768.14M487.94 1732.19C540.867 1729.02 546.855 1727.75 574.179 1699.81C601.502 1671.87 607.466 1668.2 645.821 1662.95C684.175 1657.7 700.783 1638.29 720.978 1617.64M788.16 2090.01C807.629 2116.21 821.379 2139.18 827.267 2159.21C841.137 2206.4 767.157 2171.53 675.954 2099.27M552.82 1842.97C485.081 1790.92 382.165 1714.18 383.971 1768.14M383.971 1768.14C386.856 1793.29 411.301 1830.89 468.876 1896.01M962.089 1841.8C969.731 1837.87 977.153 1828.02 979.909 1823.58M979.909 1823.58C986.722 1824.71 1002.24 1824.53 1009.83 1814.83M979.909 1823.58C988.007 1793.47 969.314 1725.23 903.878 1663.55M1009.83 1814.83C1019.31 1802.71 1044.54 1806.02 1058.78 1789.04C1067.21 1792.55 1082.8 1791.16 1089.93 1783.87M1009.83 1814.83C1027.48 1779.8 1016.13 1725.89 956.658 1660.53M1089.93 1783.87C1095.94 1785.01 1112.74 1784.81 1121.04 1773.91C1131.85 1774.98 1152.29 1778.35 1173.55 1744.47C1194.81 1710.6 1167.58 1629.26 1110.39 1551.86C1058.51 1481.65 1007.88 1438.11 931.366 1396.45M1089.93 1783.87C1110.13 1763.22 1127.7 1720.99 1072.86 1638.77C1018.02 1556.54 952.682 1504.46 920.073 1484.43M1197.72 1761C1227.61 1749.85 1263.4 1727.82 1256.83 1671.45C1250.26 1615.08 1209.84 1535.09 1150.37 1469.74M1267.18 1745.78C1360.55 1720.68 1471.68 1672.55 1535.83 1606.96C1599.98 1541.36 1654.17 1439.86 1662.53 1317.27C1667.94 1238.07 1656.37 1165.08 1607.36 1089.81M1133.91 909.112C1202.88 885.492 1370.61 863.125 1489.72 962.613C1542.42 1006.63 1580.51 1048.56 1607.36 1089.81M1607.36 1089.81C1683.5 1016.8 1709.62 987.674 1700.65 931.336M748.205 1580.1C748.108 1570.49 754.436 1563.21 757.612 1560.77C756.755 1555.18 757.18 1541.81 765.733 1533.06C763.188 1518.68 769.031 1503 778.559 1495.68M1039.52 952.242C1021.59 965.539 982.237 998.59 942.419 1041.86M1423.24 1629.88C1416.19 1525.49 1365.83 1411.99 1233.7 1282.63C1127.99 1179.14 1014.35 1153.48 970.743 1153.59" stroke="#3E3939" stroke-width="10" stroke-linecap="round" stroke-linejoin="round"/>
<path d="M1143.73 986.92C1145.12 985.834 1146.25 984.973 1147.16 984.286M1164.42 933.923C1165.78 934.181 1169.71 935.8 1173.09 937.023C1176.46 938.245 1177.21 939.263 1173.54 943.822C1169.87 948.38 1167.96 947.726 1169.48 953.851C1170.64 958.542 1170.58 957.01 1168.09 957.548M1168.09 957.548C1167.33 957.712 1166.34 958.07 1165.1 958.86C1159.77 962.229 1161.72 964.35 1162.41 966.524C1162.6 967.121 1163.08 967.927 1163.57 968.778M1168.09 957.548C1164.21 956.952 1156.77 956.816 1158.11 961.04C1159.79 966.319 1163.24 966.374 1163.57 968.778M1163.57 968.778C1164.84 971.028 1166.13 973.596 1162.06 973.462C1160.2 973.4 1157.97 973.619 1155.86 974.075M1155.86 974.075C1151.58 974.995 1147.79 976.881 1148.58 979.375C1149.6 982.594 1152.9 979.926 1147.16 984.286M1155.86 974.075C1151.76 973.263 1146.78 969.695 1144.32 975.357C1141.85 981.019 1151.92 980.468 1147.16 984.286M1140.18 989.166C1139.37 988.431 1136.64 989.314 1132.12 998.733M1408.24 1068.8C1409.78 1068.07 1411.5 1067.24 1413.41 1066.28C1417.76 1064.08 1421.29 1063.16 1424.2 1062.67C1429.17 1061.82 1432.35 1062.19 1434.72 1059.52C1436.49 1057.52 1435.22 1056.06 1433.44 1055.48C1431.65 1054.89 1428.6 1053.69 1426.85 1052.19C1425.09 1050.69 1425.21 1048.37 1421.83 1047.15C1420.71 1055.7 1420.21 1060.42 1412.5 1063.43M1408.24 1068.8C1406.41 1069.67 1403.65 1070.77 1402.26 1071.47C1397.56 1073.83 1395.6 1073.18 1394.03 1077.79C1391.6 1084.92 1389.55 1089.2 1389.02 1092.89C1387.07 1086.77 1388.3 1082.92 1391.03 1073.72C1393.51 1067.67 1399.1 1054.14 1401.61 1048.38C1403.57 1043.82 1404.28 1041.21 1402.05 1037.28C1398.17 1030.41 1394.45 1026.79 1392.38 1026.98C1390.31 1027.18 1394.24 1022.08 1402.88 1027.8C1409.2 1031.98 1413.36 1033.5 1414.41 1036.55C1414.8 1037.68 1414.7 1038.92 1413.6 1040.05C1406.47 1047.4 1399.51 1054.13 1407.47 1056.98C1408.58 1057.5 1409.38 1058.21 1410.27 1058.57C1415.52 1061.81 1411.04 1066.53 1408.24 1068.8ZM1340.33 1079.3C1338.65 1074.02 1338.87 1072.02 1342.73 1068.08C1346.6 1064.14 1351.69 1065.4 1356.27 1061.01C1360.85 1056.62 1368.47 1051.06 1369.67 1045.45C1370.87 1039.84 1367.77 1042.17 1369.06 1032.78C1370.08 1025.27 1369.07 1020.47 1368.44 1019M1368.44 1019C1368.11 1016.68 1367.5 1013.46 1370.47 1011.75C1377.32 1007.79 1379.67 1004.44 1370.1 1007.88C1357.19 1012.52 1361.63 1025.54 1363.41 1031.13C1365.19 1036.72 1363.14 1041 1363.38 1049.8C1363.61 1058.61 1366.45 1050.09 1349.31 1060.57C1332.16 1071.04 1333.8 1074.85 1336.76 1084.17C1336.23 1087.86 1348.16 1071.73 1353 1066.81C1357.83 1061.89 1369.14 1049.14 1380.31 1034.62C1391.47 1020.1 1403.22 1023.49 1392.85 1017.73C1384.57 1013.13 1380.89 1014.98 1380.09 1016.48C1381.45 1023.45 1385.73 1024.85 1379.96 1030.74C1369.21 1039.77 1371.82 1034.77 1371.21 1028.81C1370.86 1025.44 1368.86 1022.04 1368.44 1019ZM1308.95 991.344C1311.5 988.616 1315.57 998.725 1323.72 1002.9C1331.87 1007.07 1341.9 1010.42 1341.66 1015.05C1339.92 1017.64 1334.4 1013.67 1331.28 1011.91C1328.16 1010.16 1317.56 1002.31 1312.02 1000.97C1306.47 999.63 1306.41 994.073 1308.95 991.344ZM1308.95 991.344C1305.9 989.794 1304.11 991.127 1306.51 994.384M1348.37 989.173C1345.76 993.058 1323.66 1024.19 1320.7 1028.3M1293.56 1020.74C1295.46 1020.55 1297.47 1020.32 1299.35 1020.17C1300.2 1014.79 1301.85 1009.26 1308.46 1003.22C1315.07 997.173 1314.13 994.413 1314.8 993.618C1315.46 992.823 1319.55 985.762 1324.58 981.461C1329.62 977.16 1329.58 975.693 1322.21 974.007C1314.85 972.322 1319.51 977.582 1316.28 984.85C1313.04 992.118 1306.29 996.386 1303.21 1002.81C1300.14 1009.23 1297.41 1008.71 1288.22 1016.02C1281 1021.76 1286.59 1021.46 1293.56 1020.74ZM1293.56 1020.74C1296.09 1016.64 1292.47 1016.69 1303.19 1005.43C1313.92 994.172 1326.03 977.947 1325.53 976.386M1287.72 1001.04C1289.89 1007.88 1282.18 1006.41 1268.07 1009C1262.24 1010.81 1270.06 1005.87 1275.9 1001.43C1281.74 996.992 1287.18 999.517 1281.88 992.056C1276.57 984.596 1279.23 987.761 1284.2 984.617C1289.18 981.472 1284.74 980.923 1291.84 976.43C1298.95 971.938 1298.39 971.541 1291.54 968.786C1284.7 966.03 1290.87 963.989 1296.73 963.639C1302.59 963.289 1304.21 969.725 1303.03 972.711C1301.85 975.698 1293.1 976.378 1293.32 981.089C1293.54 985.8 1296.88 985.556 1289.77 990.048C1282.67 994.541 1285.55 994.211 1287.72 1001.04ZM1287.72 1001.04C1288.34 1002.74 1281.22 1005.53 1277.58 1006.71C1283.28 1000.49 1284.42 996.023 1287.92 988.238C1291.41 980.452 1297.5 974.341 1299.62 970.022C1301.73 965.702 1298.02 967.676 1297.62 966.434M1265.75 966.821C1262.83 972.398 1254.19 980.102 1255.21 984.674C1256.24 989.246 1260.66 992.418 1254.64 993.614C1246.45 994.69 1242.41 995.384 1244.28 987.858C1246.15 980.332 1248.29 978.985 1257.22 972.213C1266.16 965.441 1262.47 959.196 1260.2 952.054C1257.93 944.911 1252.52 938.633 1247.33 937.067C1242.14 935.501 1260.99 934.398 1265.61 944.905C1268.55 951.605 1268.99 956.405 1268.16 960.45M1265.75 966.821C1268.89 963.718 1276.2 957.007 1280.33 954.989C1285.5 952.465 1283.65 950.654 1278.55 949.399C1273.46 948.143 1274.73 948.09 1274.33 953.561C1274.02 957.938 1270.08 959.977 1268.16 960.45M1265.75 966.821C1266.81 964.801 1267.69 962.747 1268.16 960.45M1225.52 972.121C1225.15 974.313 1223.51 976.191 1218.86 976.333C1211.96 976.544 1214.63 973.577 1216.25 970.799M1225.52 972.121C1225.8 970.477 1225.36 968.657 1224.93 967.26M1225.52 972.121L1220.88 971.46M1216.25 970.799C1216.81 969.837 1217.24 968.897 1217.1 968.12C1216.9 966.998 1217.54 965.55 1218.28 963.772M1216.25 970.799L1220.88 971.46M1224.93 967.26C1224.79 966.794 1224.65 966.375 1224.54 966.026C1223.65 963.231 1221.95 960.575 1229.24 952.613C1236.52 944.652 1237.46 939.577 1232.13 936.233C1233.1 941.962 1233.02 939.028 1227.56 947.334C1222.09 955.639 1219.7 944.096 1215.46 937.455C1211.61 931.437 1203.55 939.722 1200.87 951.526M1224.93 967.26L1221.61 965.516M1218.28 963.772C1219.52 960.765 1221.03 956.811 1219.19 951.879C1216.27 944.029 1214.85 938.215 1207.51 947.332C1200.17 956.45 1202.93 958.433 1203.29 964.921C1203.64 971.41 1201.53 976.847 1198.2 977.092C1194.86 977.336 1196.02 970.259 1192.77 960.011C1189.51 949.763 1187.67 945.329 1182.64 942.917C1181.23 942.242 1181.27 941.588 1182.15 941.375M1218.28 963.772L1221.61 965.516M1220.88 971.46L1221.61 965.516M1182.15 941.375C1184.42 940.827 1192.3 943.192 1195.63 955.591C1200.25 972.81 1198.61 968.997 1200.23 955.294C1200.38 954.008 1200.6 952.749 1200.87 951.526M1182.15 941.375C1184.67 941.259 1194.34 942.605 1200.87 951.526M1094.84 945.851C1099.27 932.974 1095.78 936.646 1090.92 937.478C1086.07 938.311 1082.4 942.869 1080.84 955.417C1079.79 961.496 1080.77 956.614 1083.57 960.063C1086.37 963.513 1090.4 958.729 1094.84 945.851ZM1094.84 945.851C1096.3 939.707 1101.66 933.673 1093.88 933.369C1086.11 933.064 1084.68 941.997 1080.15 953.243M1094.84 945.851C1092.41 952.981 1086.79 966.978 1083.73 965.931M1317.55 1031.79C1315.34 1030.2 1311.15 1029.12 1320.5 1020.97C1329.86 1012.81 1331.51 1007.29 1334.22 1003.72C1336.92 1000.14 1342.96 982.896 1349.1 986.101C1355.23 989.306 1346.97 994.162 1342.76 1002.41C1338.56 1010.67 1332.38 1012.71 1327.83 1021.18C1323.27 1029.66 1320.26 1034.17 1317.55 1031.79ZM1128.92 973.902C1131.19 960.906 1130.28 960.734 1134.15 950.083C1138.02 939.432 1137.09 935.17 1143.3 934.596C1149.52 934.021 1148.71 934.16 1144.13 931.834C1139.55 929.508 1138.05 927.473 1134.96 936.518C1131.86 945.563 1128.9 942.96 1125.21 936.715C1121.52 930.471 1117.53 923.295 1113.42 925.145C1109.32 926.995 1110.92 929.341 1117.98 930.094C1125.05 930.848 1126.04 940.667 1127.04 947.862C1128.05 955.058 1123.1 955.58 1119.29 958.361C1115.48 961.142 1111.12 963.527 1111.54 968.86C1111.95 974.192 1119.59 979.432 1128.92 973.902ZM1126.48 970.228C1125.57 963.343 1132.1 954.364 1124.99 958.857C1117.89 963.349 1115.07 962.523 1114.77 968.305C1114.48 974.086 1120.08 974.272 1126.48 970.228ZM1069.8 971.758C1069.01 969.273 1049.35 970.514 1048.78 966.028C1048.2 961.541 1057.48 959.543 1059.43 954.95C1061.38 950.358 1072.02 952.956 1066.89 950.233C1061.76 947.511 1048.74 950.132 1052.45 953.753C1056.16 957.375 1059.23 947.824 1056.09 955.402C1052.96 962.981 1045.24 965.651 1039.92 969.02C1034.59 972.39 1023.81 981.441 1037.13 976.374C1047.79 972.32 1057.64 974.224 1061.23 975.682C1064.86 976.369 1071.66 976.547 1069.8 971.758Z" stroke="#3E3939" stroke-width="7" stroke-linecap="round" stroke-linejoin="round"/>
<path d="M1176.36 1056.57C1168.98 1053.31 1165.94 1058.01 1164.89 1054.71M1164.89 1054.71C1163.84 1051.41 1149.3 1049.89 1152.53 1041.51C1155.76 1033.13 1161.38 1035.12 1166.86 1035.23C1171.24 1035.31 1171.46 1036.41 1171.03 1036.95M1164.89 1054.71C1165.53 1052.62 1166.54 1049.42 1167.6 1046.25M1171.03 1036.95C1172.54 1033.79 1175.18 1028.5 1177.74 1023.84M1171.03 1036.95C1170.2 1038.69 1168.86 1042.45 1167.6 1046.25M1177.74 1023.84C1179.65 1020.38 1181.51 1017.26 1182.83 1015.61C1184.23 1013.88 1185.73 1011.78 1187.35 1009.84M1177.74 1023.84C1176.13 1023.96 1175.02 1023.35 1174.03 1021.97M1120.27 1019.9C1115.81 1028.67 1119.5 1030.3 1124.2 1033.67C1128.9 1037.04 1130.76 1045.76 1129.63 1046.48C1127.98 1052.68 1124.68 1040.89 1123.95 1038.58C1123.21 1036.27 1117.93 1032.48 1115.14 1032.26C1112.35 1032.04 1107.19 1032.93 1110.59 1030.78C1113.98 1028.63 1120.98 1010.73 1125.33 1004.41M1030.78 1029.32C1027.55 1023.44 1026.06 1007.34 1033.15 1006.82C1040.24 1006.3 1041.25 1008.04 1040.66 1014.75C1040.07 1021.46 1039.36 1030.63 1035.82 1030.89M1176.47 1056.9C1181.81 1052.33 1171.22 1054.66 1168.81 1054.21C1166.4 1053.75 1170.23 1043 1174.68 1037.02C1179.13 1031.04 1183.02 1019.06 1187.36 1012.75C1191.7 1006.43 1194.28 1005.99 1197.3 1004.08C1193.58 1003.38 1190.27 1006.35 1187.35 1009.84M1167.6 1046.25C1160.11 1048.22 1152.76 1046.12 1157.21 1040.54C1161.66 1034.95 1167.26 1039.34 1168.01 1038.86M1174.03 1021.97C1173.1 1020.7 1172.28 1018.79 1171.24 1016.21C1169.08 1010.83 1166.6 1004.47 1160.79 999.03C1166.37 997.882 1169.09 1006.46 1170.77 1011.74C1172.45 1017.02 1170.88 1019.06 1174.03 1021.97ZM1174.03 1021.97C1176.6 1019.2 1182.87 1012.88 1187.35 1009.84M1328.41 1166.92C1322.23 1168.85 1312.1 1174.07 1324.09 1163.31C1333.69 1154.71 1351.48 1137.27 1359.17 1129.63C1360.4 1128.73 1362.34 1127.63 1360.35 1130.48C1357.85 1134.04 1342.29 1147.84 1335.37 1154.59C1328.45 1161.35 1322.62 1165.83 1328.41 1166.92ZM1294.22 1144.94C1294.52 1141.59 1297.49 1145.25 1300.58 1142.11C1303.66 1138.98 1309.15 1129.16 1311.29 1123.05C1313.43 1116.94 1315.42 1108.94 1320.16 1106.74C1324.9 1104.54 1338.87 1109.97 1338.72 1115.22C1338.58 1120.46 1327.67 1107.54 1322.05 1112.68C1316.43 1117.82 1315.8 1122.97 1312.74 1130.46C1309.68 1137.94 1303.98 1147.1 1299.78 1148.17C1295.59 1149.23 1293.82 1147.97 1294.22 1144.94ZM1272.09 1118.11C1270.16 1110.61 1270.47 1097.33 1280.56 1090.56C1290.65 1083.78 1310.51 1069.24 1312.65 1077.4C1314.79 1085.56 1308.27 1096.42 1304.26 1100.94C1300.26 1105.45 1292.67 1115.8 1282.16 1121.26C1271.65 1126.71 1272.76 1121.65 1272.09 1118.11ZM1279.01 1111.36C1277.33 1106.08 1280.41 1095.8 1287.96 1091.03C1295.51 1086.26 1305.56 1077.92 1306.42 1084.91C1307.28 1091.89 1302.96 1095.42 1298.14 1101.64C1293.31 1107.86 1281.84 1120.27 1279.01 1111.36ZM1237 1087.59C1240.61 1086.1 1242.75 1087.12 1243.69 1090.09C1244.63 1093.06 1252.44 1090.51 1256.34 1085.66C1260.24 1080.82 1271.18 1066.76 1263.92 1061.05C1256.67 1055.33 1263.29 1051.93 1267.09 1053.89C1270.89 1055.85 1274.2 1064.85 1269.74 1073.62C1265.27 1082.39 1260.07 1088.85 1250.76 1092.36C1241.45 1095.87 1236.73 1095.29 1237 1087.59ZM1217.07 1074.82C1221.27 1066.62 1229.59 1058.58 1225.16 1054.64C1220.74 1050.7 1213.54 1043.75 1208.26 1047.1C1202.97 1050.44 1193.25 1074.03 1191.72 1070.64C1190.18 1067.25 1186.28 1064.96 1195.19 1057.34C1199.01 1049.38 1211.3 1019.05 1214.46 1020.98C1218.45 1023.41 1216.78 1022.83 1212.98 1033.41C1209.31 1043.62 1217.23 1038.25 1223.15 1044.02C1229.06 1049.79 1232.88 1048.97 1236.32 1041.24C1239.76 1033.52 1242.86 1027.59 1248.04 1031.05C1253.22 1034.52 1244.94 1036.98 1240.2 1046.32C1235.46 1055.66 1240.66 1056.33 1235.48 1060C1230.3 1063.68 1231.19 1060.74 1228.31 1064.54C1225.44 1068.34 1222.02 1080.41 1220.81 1078.01C1219.83 1076.09 1217.91 1075.08 1217.07 1074.82ZM1105.06 1000.58C1099.4 1004.16 1085.22 998.063 1080.78 1004.05C1076.33 1010.03 1080.45 1020.11 1077.74 1030.14C1075.04 1040.18 1076.57 1043.57 1070.82 1044.03C1065.08 1044.5 1050.54 1042.99 1054.17 1038.71C1057.8 1034.43 1065.01 1045.73 1069.04 1038.42C1073.07 1031.12 1073.8 1019.16 1070.73 1012.38C1067.67 1005.6 1074.46 994.166 1081.22 995.444C1087.97 996.722 1096.32 1000.16 1105.06 1000.58ZM1037.54 1037.73C1032.8 1039.94 1025.35 1037.91 1024.47 1026.57C1023.59 1015.24 1025.14 1001.58 1033.36 1000.34C1041.58 999.107 1046.97 1003.23 1048.34 1014.65C1049.7 1026.08 1042.59 1036.52 1037.54 1037.73Z" stroke="#3E3939" stroke-width="7" stroke-linecap="round" stroke-linejoin="round"/>
<path d="M701.746 1620.45C672.53 1513.93 674.206 1399.4 671.548 1311.95C669.421 1241.99 701.266 1104.93 704.129 1098.6M997.701 517.174C976.261 547.064 949.627 563.159 912.019 601.565C874.412 639.971 800.602 725.34 778.225 749.524C755.848 773.708 717.303 806.409 719.531 873.422C721.759 940.435 713.598 979.861 712.076 1024.05C710.699 1064.07 698.052 1093.92 706.107 1162.72M706.107 1162.72C706.949 1169.91 708.017 1177.53 709.348 1185.63C723.41 1271.2 712.398 1311.1 718.023 1345.33C723.648 1379.56 729.78 1399.05 733.491 1439.46C737.203 1479.86 783.209 1510.38 827.418 1494.33C890.646 1469.29 930.636 1427.56 955.549 1329.72C980.462 1231.88 960.583 1200 944.292 1047.41C941.011 1027.44 930.115 1014.59 901.644 1001.69M706.107 1162.72C728.482 1123.89 750.352 1114.44 769.371 1105.45M744.727 1080.21C774.408 1061.27 782.765 1062.24 788.467 1061.3M747.078 1308.33C778.477 1285.59 851.702 1250.12 866.271 1320.96C880.841 1391.8 873.225 1398.92 827.572 1424C791.049 1444.06 774.004 1448.42 770.046 1448.1C759.762 1444.91 737.701 1425.88 731.732 1375.3M931.549 1878.56C972.829 1898.14 991.341 1903.89 1016.57 1879.24C1033.92 1862.29 1034.64 1845.3 1030.94 1832.93M1024.3 1819.38C1026.67 1822.65 1029.26 1827.31 1030.94 1832.93M1030.94 1832.93C1068.39 1856.07 1108.27 1867.1 1135.8 1874.29C1163.33 1881.48 1199.85 1907.71 1240.27 1886.41C1280.69 1865.12 1277.41 1845.16 1270.34 1819.95C1264.68 1799.79 1235.44 1779.79 1221.52 1772.31M1372.66 1729.9C1435.34 1737.17 1491.31 1774.85 1527.47 1745.47C1563.63 1716.09 1581.75 1683.82 1519.15 1641.37M1613.03 1499.97C1677.62 1501.08 1694.73 1498.26 1706.68 1464.08C1718.63 1429.89 1665.98 1394.6 1645.09 1392.17M1024 873.186C1039.15 894.131 1038.75 933.258 1036.65 950.203M1423.01 860.339C1471.48 852.374 1471.98 837.643 1509.05 831.552" stroke="#3E3939" stroke-width="10" stroke-linecap="round" stroke-linejoin="round"/>
<path d="M534.518 1924.58C253.608 2104.24 148.771 2608.52 151.3 2777.67C153.828 2946.82 198.197 2755.53 266.505 2841.72C334.812 2927.9 479.239 3016.01 477.865 2853.88C476.492 2691.76 491.369 2342.96 688.232 2047.24M439.598 2445.27C456.856 2316.62 515.869 2179.09 556.301 2123.04" stroke="#3E3939" stroke-width="10" stroke-linecap="round" stroke-linejoin="round"/>
<path d="M1599.27 1217.96C1597.94 1224.23 1595.16 1224.11 1590.72 1227.92C1586.28 1231.73 1585.08 1234.64 1582.03 1243.41C1578.98 1252.18 1573.09 1241.62 1562.06 1244.37C1550.67 1246.99 1557.51 1261.33 1560.12 1273.18C1562.73 1285.03 1571.82 1277.29 1575.97 1272.56C1580.13 1267.84 1589.6 1263.86 1595.12 1260.48C1600.64 1257.1 1605.75 1252.16 1612.96 1256.46C1615.08 1257.71 1617.17 1261.16 1619.45 1258.67C1621.72 1256.19 1621.92 1248.07 1616.75 1241.79C1611.41 1235.25 1598.98 1249.03 1591.85 1249.76C1584.72 1250.49 1606.36 1233.61 1611.61 1231.13C1616.85 1228.64 1612.92 1215.06 1606.79 1209C1603.23 1205.36 1600.86 1206.81 1600.07 1211.29L1599.27 1217.96ZM1599.07 1218.08C1591.92 1209.01 1585.28 1210.53 1577.77 1213.31L1599.07 1218.08ZM1599.07 1218.08C1599.09 1215.89 1599.66 1213.72 1599.88 1211.41L1599.07 1218.08ZM1577.77 1213.31C1571.34 1216.52 1557.12 1221.59 1550.6 1211.77C1544.08 1201.95 1543.49 1198.32 1546.48 1188.12C1549.28 1178.05 1559.33 1171.9 1569.38 1169.75C1579.43 1167.6 1587.63 1163.3 1596.75 1175.17C1605.7 1186.77 1600.79 1191.59 1596.35 1199.4C1594.4 1202.41 1592.98 1203.64 1590.71 1206.12L1577.77 1213.31ZM1577.77 1213.31C1582.07 1211.04 1586.37 1208.78 1590.35 1205.98L1577.77 1213.31ZM1600.04 1211.68C1597.19 1208.33 1594.07 1205.88 1590.35 1205.98L1600.04 1211.68ZM1584.69 1332.65C1585.85 1338.12 1585.92 1345.34 1584 1347.97C1581.66 1351.22 1576.1 1354.98 1573.97 1347.93C1572.04 1340.75 1572.58 1326.98 1569.57 1319.37C1566.56 1311.76 1559.26 1290.43 1566.8 1291.26C1574.34 1292.1 1573.55 1304.58 1580.25 1304.47C1585.44 1304.56 1590.73 1301.69 1596.39 1300.77C1600.94 1299.8 1606.24 1294.74 1607.55 1290.67C1608.97 1285.44 1617.15 1275.34 1616.51 1282.28C1615.86 1289.22 1619.85 1300.22 1616.31 1302.39C1612.76 1304.56 1613.3 1298.78 1608.96 1301.44C1605.61 1303.49 1600.06 1307.25 1594.97 1310C1592.25 1311.3 1583.9 1313.14 1582.92 1317.74C1581.34 1322.71 1583.77 1328.48 1584.69 1332.65ZM1569.69 1266.24C1572.43 1262.74 1574.63 1261.03 1569.92 1257.73C1565.21 1254.44 1561.93 1255.72 1562.99 1262.34C1564.04 1268.96 1566.55 1269.97 1569.69 1266.24ZM1560.24 1204.06C1552.41 1194.31 1557.09 1189.99 1561.99 1185.17C1566.71 1180.47 1571.76 1174.11 1579.28 1177.13C1586.61 1180.28 1587.41 1185.6 1585.89 1191.99C1584.37 1198.37 1576.18 1200.48 1572.49 1204.19C1568.8 1207.9 1562.76 1206.87 1560.24 1204.06ZM1538.48 1168.31C1532.28 1171.01 1529.27 1171.4 1523.95 1162.66C1518.79 1154.19 1519.33 1148.41 1525.51 1143.9C1531.69 1139.39 1538.78 1143.04 1547.22 1146.24C1555.66 1149.43 1563.58 1144.22 1566.1 1139.04C1568.63 1133.86 1569.35 1114.16 1573.18 1120.9C1577.01 1127.64 1578.28 1139.95 1573.02 1144.62C1567.75 1149.3 1559.88 1151.94 1554.92 1155.34C1549.96 1158.74 1546.07 1162.57 1544.53 1167.15C1542.63 1171.58 1540.81 1167.25 1538.48 1168.31ZM1532.62 1157.36C1528.63 1150.35 1533.25 1144.61 1538.01 1145.33C1542.78 1146.05 1544.95 1148.72 1544.19 1152.82C1543.28 1156.65 1534.9 1154.87 1532.62 1157.36ZM1554.34 1119.71C1548.82 1115.09 1547.06 1113.99 1541.19 1117.22C1535.67 1120.6 1517.06 1122.9 1514.5 1128.47C1511.94 1134.04 1515.27 1138.18 1510.88 1139.41C1506.65 1140.91 1492.64 1139.67 1495.13 1134.87C1497.62 1130.08 1509.09 1126.69 1507.64 1120.31C1506.19 1113.93 1503.31 1102.98 1496.98 1105.03C1490.5 1106.82 1491.84 1110.36 1480.93 1109.76C1469.83 1109.29 1475.59 1103.22 1484.71 1099.09C1493.83 1094.96 1504.67 1092.33 1510.69 1087.55C1516.71 1082.78 1515.52 1079.5 1516.62 1073.75C1517.71 1067.99 1523.32 1061.65 1528.78 1068.85C1534.24 1076.04 1530.39 1083.49 1524.96 1087.9C1519.34 1092.43 1508.47 1095.46 1514.72 1106.17C1521.16 1116.76 1524.8 1111.63 1532.72 1110.41C1540.63 1109.2 1546.62 1104.81 1551.45 1100.76C1556.29 1096.71 1555.29 1107.5 1556.02 1109.6C1556.92 1111.96 1557.45 1122.17 1554.34 1119.71ZM1488.98 1073.22C1481.46 1074.19 1468.09 1078.01 1465.73 1067.46C1463.37 1056.91 1473.02 1055 1478.61 1050.85C1484.2 1046.71 1496.42 1039.23 1501.27 1052.98C1505.76 1066.58 1497.85 1071.79 1488.98 1073.22ZM1486.47 1064.21C1484.72 1067.11 1474.29 1071.31 1472.68 1064.66C1471.07 1058.01 1478.14 1055.86 1482.91 1056.58C1488.03 1057.44 1489.91 1059.2 1486.47 1064.21Z" stroke="#3E3939" stroke-width="7" stroke-linecap="round" stroke-linejoin="round"/>
<g style="mix-blend-mode:multiply" opacity="0.3">
<path d="M611.284 1933.1C579.38 1935.36 560.739 1973.82 548.055 1999.5C541.91 2012.12 522.59 2058.66 514.249 2070.56C503.04 2086.55 496.196 2102.18 486.704 2118.79C474.151 2140.76 472.514 2164.51 474.966 2189.69C476.018 2200.51 501.127 2187.93 504.546 2184.71C521 2169.22 530.888 2153.65 543.986 2135.35C575.301 2091.6 604.53 2042.51 626.309 1993.07C636.025 1971.01 644.523 1930.74 611.284 1933.1Z" fill="black"/>
</g>
<path d="M330.999 2082.29C365.301 2033.03 409.286 1986.59 451.069 1943.68C468.218 1917.96 504.416 1910.46 533.236 1913.66C538.324 1914.23 578.604 1922.81 559.519 1933.72C553.051 1937.42 549.351 1947.86 545.132 1953.64C533.841 1969.11 523.372 1986.4 520.787 2005.79C518.776 2020.87 504.95 2036.02 498.239 2049.78C484.225 2078.51 461.699 2103.25 440.336 2126.71L439.726 2127.38C411.055 2158.87 374.648 2204.32 369.316 2247.87C367.094 2266.02 373.185 2264.03 387.714 2264.88C397.863 2265.48 383.887 2288.84 382.734 2292.41C378.667 2304.98 378.861 2317.17 378.861 2330.17C378.861 2358.34 380.169 2386.9 377.478 2414.97C375.766 2432.82 378.072 2457.5 370.284 2473.76C350.657 2514.74 333.81 2556.07 319.103 2599.08C310.139 2625.3 304.374 2652.9 292.82 2678.21C275.403 2716.36 250.598 2767 211.898 2787.49C203.859 2791.74 180.835 2797.79 172.75 2789.7C164.966 2781.92 161.17 2763.12 158.502 2753.04C154.392 2737.52 149.597 2727.15 149.788 2710.58C149.995 2692.54 155.373 2673.67 158.641 2655.94C171.211 2587.7 190.974 2520.37 206.503 2452.73C214.939 2415.98 226.527 2379.18 229.327 2341.38C231.321 2314.46 241.047 2286.3 251.875 2261.84C266.512 2228.77 273.903 2193.28 288.117 2160.3C300.211 2132.24 313.519 2107.39 330.999 2082.29Z" fill="#917C61"/>
<g style="mix-blend-mode:multiply" opacity="0.2">
<path d="M307.712 2434.08C307.712 2414.47 318.702 2400.52 322.364 2381.85C327.806 2392.73 330.901 2393.19 341.9 2398.4C347.76 2401.17 350.369 2405.84 351.533 2412.24C353.018 2420.41 361.176 2424 361.437 2433.13C361.714 2442.84 358.631 2450.37 356.553 2459.72C354.654 2468.27 345.17 2457.85 340.815 2455.11C331.521 2449.26 307.712 2448.27 307.712 2434.08Z" fill="black"/>
</g>
<g style="mix-blend-mode:multiply" opacity="0.2">
<path d="M414.27 2586.94C414.27 2572.93 415.165 2559.81 420.408 2546.71C420.408 2543.82 420.873 2542.19 422.6 2540.08C423.856 2538.54 424.069 2536.42 425.279 2534.87C427.061 2532.58 429.151 2530.61 430.93 2528.29C434.838 2523.2 440.097 2516.5 446.909 2515.33C452.036 2514.45 458.144 2514.88 463.326 2515.19C473.722 2515.8 484.687 2530.74 489.682 2538.91C501.351 2558.01 501.053 2577.69 500.009 2599.61C499.374 2612.95 497.103 2626.38 488.415 2637.02C482.715 2644.01 476.108 2650.96 466.542 2650.96C457.792 2650.96 450.141 2644.53 442.768 2640.53C434.999 2636.32 427.039 2631.64 421.967 2624.16C414.435 2613.06 414.27 2599.88 414.27 2586.94Z" fill="black"/>
</g>
<g style="mix-blend-mode:multiply" opacity="0.2">
<path d="M176.943 2585.47C181.628 2597.57 186.757 2609.43 189.032 2622.25C189.032 2628.37 194.9 2633.56 199.998 2627.61C205.427 2621.27 216.858 2617.59 224.78 2617.59C231.82 2617.59 229.7 2627.9 230.651 2633.13C232.57 2643.68 238.612 2648.32 242.567 2657.31C248.345 2670.44 250.042 2674.19 264.673 2672.34C267.229 2672.01 284.309 2674.05 285.482 2672.68C296.318 2660.04 312.07 2643.48 299.989 2625.62C298.46 2623.36 288.273 2617.92 288.85 2615.69C290.127 2610.77 296.422 2605.88 299.384 2602.05C303.262 2597.03 313.043 2583.43 305.17 2577.53C299.261 2573.09 290.617 2577.57 284.187 2574.94C274.912 2571.14 286.624 2548.43 275.811 2546.27C264.657 2544.04 244.45 2544.43 234.192 2550.07C226.05 2554.55 223.253 2562.53 213.209 2561.29C207.778 2560.62 170.024 2549.41 169.085 2558.79C168.23 2567.34 174.006 2577.88 176.943 2585.47Z" fill="black"/>
</g>
<g style="mix-blend-mode:multiply" opacity="0.2">
<path d="M515.075 2219.13C514.56 2242.29 516.401 2263.62 524.401 2285.27C524.401 2291.31 527.785 2296.61 529.063 2302.37C530.864 2310.47 536.987 2309.08 543.656 2307.03C550.471 2304.93 549.793 2294.86 553.241 2289.84C562.102 2276.96 564.812 2264.18 564.812 2248.74C564.812 2229.55 569.964 2200.3 559.458 2183.38C555.152 2176.44 541.262 2175.84 535.626 2181.48C526.517 2190.59 515.366 2206.02 515.075 2219.13Z" fill="black"/>
</g>
<path d="M460.406 1950.48C473.876 1933.53 487.951 1919.5 501.009 1901.35C506.502 1897.98 513.299 1891.62 518.38 1899C522.372 1904.8 516.136 1926.83 513.139 1934.33C505.837 1952.6 499.565 1967.08 490.146 1983.47C478.073 2004.49 466.03 2026.88 453.23 2046.46C438.238 2069.4 422.501 2088.76 408.629 2114.29C379.927 2167.11 353.361 2230.64 320.186 2275.49C311.589 2287.11 308.143 2279.4 311.033 2264.74C316.415 2237.43 325.597 2211.77 333.939 2185.86C345.233 2150.77 361.397 2113.51 377.691 2083.81C391.512 2058.61 407.284 2037.29 421.065 2012.28C433.142 1990.35 446.319 1968.21 460.406 1950.48Z" fill="#F1F1F1"/>
<path d="M439.041 2306.04C455.979 2269.66 471.062 2233.23 493.108 2199.54C498.042 2192 504.313 2192.92 511.985 2196.98C518.989 2200.68 510.194 2222.29 509.887 2227.97C508.829 2247.55 496.134 2265.79 495.205 2286.23C494.735 2296.58 485.343 2308.36 480.523 2317C461.069 2351.87 458.827 2396.48 453.257 2435.15C443.798 2500.82 440.138 2567.15 423.427 2631.61C422.096 2636.74 415.882 2664.51 405.482 2660.51C395.873 2656.81 390.464 2626.62 388.703 2618.56C382.555 2590.43 386.385 2559.4 387.77 2530.93C389.876 2487.66 396.46 2447.89 405.016 2405.55C411.999 2371.01 424.186 2337.95 439.041 2306.04Z" fill="#F1F1F1"/>
</g>
<defs>
<clipPath id="clip0">
<rect width="1935" height="3691" fill="white"/>
</clipPath>
</defs>
</svg>
