<svg width="290" height="290" viewBox="0 0 290 290" fill="none" xmlns="http://www.w3.org/2000/svg">
<path d="M18 138.5C18 113.373 39.6999 91.1917 72.805 77.9364C72.6997 78.3017 72.594 78.6656 72.4869 79.0272C70.6293 85.2964 70.4933 92.0011 70.3602 98.5671C70.3226 100.42 70.2852 102.261 70.2095 104.079C70.1316 105.948 70.0192 107.804 69.9071 109.656C69.706 112.977 69.5056 116.287 69.5056 119.648C69.5056 125.684 67.18 130.869 60.5616 130.869C59.4136 130.869 58.1791 130.793 56.9157 130.716C54.2257 130.551 51.4046 130.378 49.0089 130.911C46.2646 131.52 46.3569 138.287 46.3938 140.984C46.3973 141.241 46.4003 141.461 46.4003 141.635C46.4003 143.015 46.4175 144.388 46.4347 145.755C46.5203 152.574 46.6041 159.244 44.5369 165.858C44.057 167.394 43.4994 168.902 42.9413 170.411C42.0634 172.784 41.1841 175.162 40.6032 177.659C40.5128 178.048 40.416 178.419 40.3227 178.776C40.2157 179.185 40.1133 179.577 40.0304 179.959C26.1305 168.157 18 153.88 18 138.5Z" fill="#EFEBE3"/>
<path d="M144.5 212C132.413 212 120.722 211.015 109.652 209.176C112.691 205.663 115.031 201.247 116.461 197.783C116.826 196.901 117.202 195.885 117.603 194.8C119.34 190.107 121.557 184.112 125.447 181.924C131.279 178.644 134.774 182.677 138.437 186.905C138.565 187.053 138.693 187.201 138.821 187.349C150.121 200.354 164.168 189.06 174.142 179.73C177.649 176.449 182.215 170.985 184.121 166.479C186.161 161.657 194.143 158.032 198.614 156.045C204.507 153.426 209.783 150.58 214.804 146.563C217.683 144.259 220.53 141.949 222.878 139.068C224.482 137.099 225.39 134.858 226.303 132.605C226.891 131.153 227.481 129.695 228.261 128.302C230.584 124.154 232.539 118.927 233.644 114.306C234.662 110.051 236.828 106.035 238.979 102.048C240.36 99.4883 241.735 96.9403 242.795 94.3479C243.022 93.7933 243.223 93.2322 243.398 92.6662C260.673 105.233 271 121.166 271 138.5C271 179.093 214.364 212 144.5 212Z" fill="#EFEBE3"/>
<path d="M83.2428 180.644C75.2628 180.644 67.036 181.025 58.9818 181.025C58.6105 181.584 57.1262 183.391 57.0864 184.07C57.0163 185.266 57.0864 186.489 57.0864 187.686C57.0864 195.256 55.4472 203.512 51.5687 210.08C46.6347 218.436 41.5442 227.229 41.5442 237.211C41.5442 241.504 41.9233 245.771 41.9233 250.047C41.9233 251.576 42.0895 254.631 43.1447 255.926C44.0263 257.008 44.212 258.42 44.7453 259.774C45.7498 262.326 46.9864 265.341 48.5571 267.62C49.9736 269.674 51.265 272.852 53.7589 273.815C56.7253 274.961 59.4318 276.565 62.7515 276.565C67.9917 276.565 73.4098 276.942 78.6096 276.268C82.8084 275.724 86.7048 274.732 90.8454 273.9C92.4273 273.582 93.9815 273.024 95.5628 272.779C97.0422 272.551 98.6738 273.131 99.9222 271.997C103.773 268.499 104.471 262.413 104.471 257.554C104.471 250.6 104.985 243.268 103.713 236.429C102.042 227.449 99.0654 217.977 94.236 210.165C90.2032 203.641 90.1272 196.406 89.3922 188.934C88.9608 184.548 88.5484 180.644 83.2428 180.644Z" fill="#94AE8E"/>
<path d="M76.1634 195.443C75.9685 191.429 76.606 187.477 76.6513 183.475C77.1762 182.421 80.7981 182.971 81.7255 182.971C83.8867 182.971 85.4187 183.401 87.4408 183.923C88.6665 184.239 88.8927 184.095 89.3227 185.477C89.569 186.268 89.684 187.444 89.6991 188.262C89.7612 191.628 90.3291 194.879 90.8143 198.2C91.2361 201.088 91.2011 203.793 92.515 206.403C94.1481 209.646 95.3439 213.054 97.1151 216.243C98.6345 218.978 100.66 221.371 102.231 224.053C103.449 226.132 104.21 228.25 104.949 230.534C106.522 235.392 106.762 240.122 106.762 245.203C106.762 248.255 106.621 250.881 105.632 253.783C104.761 256.341 103.663 258.798 102.747 261.328C101.181 265.651 100.979 270.392 98.2861 274.177C96.8342 276.218 94.6846 277.62 92.5707 278.978C90.96 280.013 88.7549 280.376 87.0505 279.16C85.2736 277.892 85.1826 274.888 85.1826 272.987C85.1826 267.794 85.6385 262.601 86.3256 257.464C86.7399 254.368 86.9649 251.228 87.9566 248.24C88.7886 245.734 90.0578 243.363 90.8979 240.864C91.74 238.358 91.4555 235.61 91.4555 233.011C91.4555 230.157 90.7721 227.166 90.187 224.375C89.5229 221.208 88.4461 217.788 88.1936 214.577C88.1079 213.487 86.0889 212.559 85.308 211.945C84.3912 211.225 83.2436 210.481 82.6734 209.426C82.0246 208.226 81.4626 207.122 80.666 206.011C79.5998 204.524 78.2712 203.122 77.655 201.364C77.0031 199.503 76.2595 197.421 76.1634 195.443Z" fill="#5C7C55"/>
<path d="M67.4066 152.411C69.2886 155.56 72.1108 158.236 75.5857 159.492C77.2693 158.647 80.422 158.925 82.4086 158.759C91.6495 157.985 98.7717 152.662 106.883 148.807C114.359 145.254 122.222 142.461 129.251 138.017C135.165 134.278 141.408 131.178 147.529 127.793C155.405 123.438 163.861 120.734 172.003 117.004C179.918 113.377 187.435 108.716 195.017 104.433C205.727 98.3842 215.156 90.7943 222.142 80.5911C223.706 78.3073 224.409 75.624 224.667 72.9022C225.097 68.3662 225.943 63.7614 226.169 59.2213C226.187 58.8697 226.516 56.3368 225.981 56.1834C225.561 56.0628 225.102 56.2637 224.688 56.0786C222.946 55.3016 220.498 55.8757 218.678 56.0786C206.511 57.4361 194.311 59.9554 182.331 62.5734C173.452 64.5138 164.592 67.0521 156.396 71.0585C153.276 72.5835 150.174 74.5694 146.923 75.7934C138.593 78.93 131.735 84.3969 124.034 88.5943C119.121 91.2727 114.748 97.3949 113.31 102.778C112.656 105.226 111.719 107.587 110.973 110.006C110.446 111.715 110.628 113.252 109.387 114.636C108.019 116.162 106.453 117.737 105.444 119.539C103.066 123.783 100.207 127.691 97.7444 131.963C95.8259 135.29 91.339 135.99 88.2091 137.619C87.1873 138.151 86.303 138.792 85.3505 139.421C84.1968 140.183 82.2031 140.15 80.8645 140.427C77.6741 141.086 74.8564 142.235 71.83 143.444C69.8345 144.241 64.5486 145.926 64.6941 148.556C64.7598 149.743 66.794 151.385 67.4066 152.411Z" fill="white"/>
<path d="M192.276 51.4846C195.747 48.6935 193.725 46.512 197.319 48.1177C198.791 45.1586 217.858 62.27 219.524 64.4608C225.87 72.8024 225.888 89.6811 216.626 96.1258C214.432 97.6527 211.333 98.9353 209.89 101.309C208.146 104.176 207.257 107.417 205.298 110.237L205.228 110.338C199.257 118.932 193.87 126.685 185.049 132.595C177.825 137.437 168.585 144.565 159.381 144.815C150.875 145.046 142.76 149.305 135.445 153.365C126.484 158.338 119.605 166.073 110.943 171.373C107.015 173.776 102.939 176.912 99.4641 179.923C96.9665 182.087 95.7835 184.311 92.3131 184.311C88.8277 184.311 88.0455 182.541 86.5171 179.469C85.3737 177.17 83.1675 175.236 82.3018 172.886C81.6423 171.096 80.9309 169.488 79.7426 167.968C77.2059 164.723 74.2781 162.42 72.8174 158.434C71.9278 156.007 78.6013 154.748 79.8178 153.97C83.545 151.586 90.5288 149.738 92.9906 146.026C95.9141 141.618 97.4902 141.41 102.776 141.41C105.336 141.41 107.179 136.713 108.045 134.449C109.081 131.742 110.556 128.519 111.959 126.051C114.226 122.063 117.608 120.434 121.594 118.636C127.643 115.907 133.705 113.14 139.396 109.707C143.085 107.483 147.991 105.355 151.252 102.595C153.218 100.931 156.347 99.9937 158.553 98.3579C161.807 95.9453 164.704 92.914 167.85 90.3376C174.177 85.1551 179.998 79.8247 184.297 72.7838C186.395 69.3466 185.802 65.6903 185.802 61.7369C185.802 55.7244 187.697 55.1667 192.276 51.4846Z" fill="#EBDCC1"/>
<path d="M89.8249 183.631C92.0453 187.044 90.903 190.885 90.3046 194.72C95.1313 197.146 98.2437 207.897 103.151 202.965C107.69 198.401 103.957 190.855 107.42 186.379C108.581 184.878 108.972 182.611 110.297 180.834C112.437 177.966 113.674 174.549 115.478 171.481C117.626 167.827 119.925 166.183 123.44 163.911C130.988 159.034 137.024 159.138 145.936 159.138C153.215 159.138 160.484 159.49 167.664 158.078C173.113 157.006 178.782 157.367 183.972 155.233C193.413 151.351 202.364 146.857 211.504 142.263C215.816 140.097 216.515 138.543 218.411 133.778C220.471 128.602 223.495 124.207 225.75 119.169C229.602 110.564 236.776 99.0158 232.705 89.6619C230.122 83.7272 227.628 77.8227 224.503 72.0638C223.813 70.7923 221.636 76.6698 221.193 77.5602C216.606 86.7832 210.898 95.2677 206.324 104.464C202.867 111.414 196.043 113.062 191.215 117.915C186.756 122.397 180.184 125.668 174.379 127.896C171.129 129.143 168.823 131.621 165.314 132.235C162.051 132.805 159.097 133.103 155.769 133.103C145.855 133.103 143.209 132.204 136.391 139.853C133.359 143.253 129.848 149.486 124.783 150.411C121.726 150.97 119.306 149.611 117.588 153.063C116.407 155.438 115.849 156.752 113.511 158.319C112.407 159.059 110.81 160.169 109.818 161.067C109.008 161.799 107.916 161.312 107.228 161.935C104.568 164.341 104.653 166.832 103.103 169.504C101.303 172.605 99.3773 175.033 96.8672 177.556C93.7119 180.728 94.9253 181.702 90.3525 181.702C88.0096 181.702 88.9536 182.291 89.8249 183.631Z" fill="#C2AC85"/>
<path d="M69.7397 143.25C66.7225 141.734 62.6726 142.324 59.418 142.324C61.1968 143.218 61.6298 148.047 61.6298 149.755C61.6298 150.682 61.6718 155.897 61.1178 156.096C59.3886 156.716 57.3067 153.69 56.387 152.534C55.4685 151.38 54.1859 150.588 53.356 149.364C52.4953 148.095 52.3817 146.747 52.0453 145.288C51.6904 143.75 51.4998 142.037 51.6971 140.45C52.0938 137.261 54.5011 134.656 57.5748 133.883C62.9827 132.524 67.4932 137.507 72.7707 137.507C76.8086 137.507 80.5216 135.267 84.4851 134.542C86.8264 134.114 89.3068 134.242 91.5097 133.245C93.4017 132.389 95.1739 130.87 97.1006 130.178C99.2151 129.419 100.949 128.368 102.569 126.74C104.272 125.028 104.779 123.661 105.723 121.553C106.412 120.013 108.152 116.052 109.552 115.192C111.972 113.705 111.922 117.935 111.744 119.37C111.526 121.119 110.967 123.337 109.9 124.743C108.599 126.46 106.098 127.53 104.391 128.902C102.776 130.201 101.933 131.869 100.623 133.431C99.0376 135.321 96.7655 136.706 94.4383 137.486C92.6082 138.099 90.691 138.457 88.9088 139.153C87.6509 139.645 86.3563 139.433 85.1405 139.812C80.9107 141.132 78.7337 144.917 74.1429 144.917C72.7327 144.917 71.0078 143.887 69.7397 143.25Z" fill="#EBDCC1"/>
<path d="M86.1674 132.071C87.7285 133.156 90.5344 132.631 92.2665 132.631C94.5731 131.473 98.6401 130.889 100.599 128.922C102.466 127.047 104.28 124.3 105.044 121.742C105.465 120.334 106.691 119.076 107.428 117.795C108.362 116.173 109.222 114.385 109.855 112.62C111.031 109.34 111.121 105.876 111.788 102.528C112.25 100.207 111.475 97.5947 112.174 95.3473C113.106 92.3524 117.567 93.3602 119.263 90.7111C120.714 88.4451 121.932 84.6403 124.136 85.0829C127.842 85.827 131.506 86.2086 135.175 87.3902C137.551 88.1554 139.929 89.3913 142.047 90.7111C145.842 93.0763 150.796 95.8997 152.269 100.501C153.216 103.457 154.067 107.098 154.116 110.205C154.148 112.223 154.213 114.292 154.095 116.307C153.948 118.808 152.818 121.399 152.269 123.833C150.96 129.647 150.3 135.745 148.146 141.343C145.933 147.094 143.019 152.72 141.059 158.551C139.129 164.294 138.153 170.85 141.961 175.716C143.251 177.365 144.527 178.754 146.364 179.792C148.353 180.915 149.767 180.102 151.775 179.598C153.766 179.098 155.46 177.383 157.402 176.665C159.136 176.023 161.303 174.657 162.792 173.56C165.074 171.88 166.639 169.415 168.011 167.004C169.304 164.733 171.326 162.849 172.478 160.535C174.045 157.387 175.29 154.066 176.73 150.853C178.099 147.798 179.506 144.214 181.562 141.559C183.404 139.181 184.551 136.42 185.428 133.559C186.809 129.052 189.327 124.327 191.484 120.146C197.648 108.194 205.288 98.0857 215.215 89.1153C219.382 85.3492 222.119 80.8129 225.33 76.3495C228.709 71.6509 229.911 65.8218 233.147 61.0391C235.578 57.4456 239.546 55.6335 239.546 51.1197C239.546 47.0768 242.899 44.158 244.958 40.9416C251.546 30.6523 234.982 26.8342 228.293 25.3077C225.322 24.6296 221.864 24.1197 218.822 23.9708C216.131 23.8389 213.518 24.0752 210.855 23.561C205.796 22.5842 200.761 21.1397 195.807 19.7182L195.672 19.6795C189.006 17.7672 182.356 15.8145 175.764 13.6632C170.155 11.8328 164.915 9.07101 159.185 7.4528C155.72 6.47443 151.987 6.87057 148.404 6.87057C146.601 6.87057 145.683 8.25228 144.066 8.42317C139.449 8.91114 136.408 14.9394 132.77 17.2644C128.093 20.2524 122.238 23.2098 118.939 27.917C115.79 32.4101 112.152 36.4967 109.06 41.0709C107.742 43.0225 105.084 44.6476 103.262 46.0738C98.641 49.6902 95.0561 53.5231 91.8799 58.4946C88.7046 63.4646 87.3696 70.056 86.2533 75.7888C85.4879 79.7192 85.519 83.6222 85.2869 87.5843C85.1399 90.0931 84.1773 92.8519 83.4614 95.2395C81.9319 100.341 78.8113 105.894 78.7368 111.283C78.6834 115.141 78.4243 119.958 79.5958 123.618C79.9582 124.75 82.1042 128.108 82.989 128.664C84.24 129.449 84.9155 131.2 86.1674 132.071Z" fill="white"/>
<path d="M149.889 93.2459V104.401C148.39 101.391 145.048 99.3182 142.968 96.6323C142.113 95.5293 140.624 94.916 139.793 93.8435C138.715 92.4506 137.864 91.2625 136.377 90.2359C134.311 88.8096 132.226 86.0749 129.456 86.0749C127.392 86.0749 124.526 86.2818 123.13 88.0669C121.554 90.0808 120.44 92.2695 119.118 94.4411C117.175 97.6335 113.234 100.169 112.02 103.825C110.198 109.316 109.45 115.095 106.84 120.336C105.523 122.982 104.416 125.361 102.3 127.485C101.206 128.583 99.8082 129.22 98.5305 130.075C96.7178 131.288 94.8909 133.035 92.7555 133.638C90.2582 134.343 85.4428 134.857 84.6219 131.89C84.2167 130.425 83.4054 127.733 84.6219 126.511C86.9123 124.212 89.5586 122.529 91.5652 119.938C94.6274 115.985 92.3783 111.146 95.2242 107.19C97.849 103.54 100.184 99.1552 100.294 94.5296C100.34 92.5828 101.718 90.8817 102.19 89.0407C102.598 87.444 103.273 85.7617 104.041 84.3043C105.666 81.222 108.537 79.9319 111.403 78.417C114.369 76.8497 118.392 76.912 121.719 76.912C127.761 76.912 134.392 77.0558 139.97 79.7007C142.759 81.0231 148.888 82.5245 149.095 86.4733C149.214 88.7448 149.889 90.9548 149.889 93.2459Z" fill="#F3DDC8"/>
<path d="M62.0347 163.07C64.1561 162.677 65.1445 162.199 67.3211 162.199C67.8126 161.216 71.0344 161.47 71.9391 161.47C72.9249 161.47 74.684 161.071 75.3419 162.057C75.8904 162.88 76.2295 163.764 76.8002 164.579C77.8512 166.081 78.7613 167.765 79.7168 169.329C81.327 171.964 83.3458 174.243 84.6792 177.046C85.4847 178.739 85.7069 182.199 82.9981 182.251C77.8234 182.351 72.6832 181.751 67.5743 180.965C66.1725 180.749 66.0966 178.751 65.6805 177.734C65.0593 176.216 63.0835 175.915 62.6019 174.17C62.1629 172.578 61.9392 170.774 61.8524 169.126C61.8143 168.402 60.1122 167.571 59.7662 166.848C59.3379 165.952 59.4687 165.042 59.6751 164.113C59.849 163.331 61.4542 163.178 62.0347 163.07Z" fill="#F4D0C4"/>
<path d="M66.0373 165.076C67.909 164.619 69.6521 164.048 71.3117 163.04C72.2616 163.04 74.2044 163.366 75.1527 163.462C76.3046 163.577 76.7232 163.75 77.584 164.615C78.0253 165.058 78.3378 165.531 78.6611 166.062C79.1358 166.842 79.8364 167.461 80.4509 168.129C81.5134 169.285 82.63 170.323 83.6346 171.541C84.3253 172.378 84.8959 173.295 85.6145 174.109C86.8748 175.538 87.7053 177.144 87.7053 179.04C87.7053 179.743 87.9072 181.336 86.9925 181.616C86.4986 181.768 86.0108 181.378 85.567 181.219C84.0098 180.658 82.9825 178.213 81.2825 178.213C80.1354 178.213 78.6895 178.143 78.2255 179.437C78.1097 179.76 77.9964 180.932 77.6157 180.932C77.1669 180.932 76.6269 180.491 76.3327 180.185C75.8983 179.733 75.5366 179.194 75.2319 178.65C74.9163 178.087 74.2783 177.839 73.8856 177.346C73.2646 176.567 72.9039 174.813 71.6602 174.777C70.0668 174.732 69.4765 175.667 68.7458 176.956C67.9519 178.357 66.8053 180.998 64.7622 180.28C63.6136 179.877 63.7033 178.607 63.4 177.632C63.1365 176.786 63.1782 176.023 62.7269 175.207C62.4333 174.676 61.2792 174.062 60.7311 174.062C59.7773 174.062 55.9092 177.404 55.3141 176.209C54.7282 175.032 55.3432 172.066 56.7713 171.748L56.7857 171.744C58.1783 171.434 58.795 171.296 60.0817 171.597C61.9462 172.032 63.8103 172.44 65.7046 172.773C68.0181 173.181 70.2596 173.357 72.5947 173.211C73.7739 173.137 74.9047 173.019 76.0793 172.925C77.1165 172.841 77.876 172.589 78.8353 172.233C79.8828 171.843 77.6238 170.813 77.2989 170.682C76.6013 170.402 75.8045 170.494 75.0814 170.269C73.8636 169.889 72.7696 169.09 71.4543 169.052C70.0732 169.012 68.5867 168.769 67.2094 168.591C65.7396 168.4 64.0589 168.376 62.9011 167.342C62.1421 166.665 62.5137 166.246 63.2575 165.831C64.0378 165.396 65.1721 165.287 66.0373 165.076Z" fill="#BE684C"/>
<path d="M152.631 171.045C151.272 173.5 148.311 174.535 146.562 176.681C147.448 177.571 151.091 177.602 152.328 177.489C154.99 177.246 157.172 175.237 159.671 174.609C161.151 174.238 162.951 173.184 164.314 172.507C165.493 171.922 166.307 171.178 167.333 170.405C168.007 169.898 168.852 169.797 169.518 169.262C172.08 167.204 173.363 165.721 173.873 162.391C174.404 158.922 175.85 155.396 177.332 152.245C178.722 149.29 180.065 146.308 181.505 143.378C181.935 142.501 182.669 141.401 182.885 140.422C183.625 137.079 185.337 133.768 186.769 130.672C187.961 128.097 189.56 125.457 191.094 123.07C194.729 117.412 196.071 110.881 200.774 105.809C204.586 101.697 207.207 96.6794 210.97 92.524C212.851 90.4462 215.368 88.8286 217.084 86.6128C218.332 85.002 219.457 83.3303 220.817 81.8138C222.137 80.3409 222.838 78.337 224.124 76.8016C226.31 74.1923 228.114 70.9996 229.601 67.9501C230.888 65.3117 232.747 62.9932 233.895 60.287C235.299 56.9773 236.731 53.8799 238.599 50.8109C239.939 48.6092 241.675 46.6792 242.968 44.4427C244.767 41.3328 247.976 36.2386 246.246 32.4376C245.37 30.5132 243.46 29.9392 241.482 29.4211C234.896 27.6961 227.695 23.903 220.847 25.521C218.92 25.9762 216.531 26.6222 214.96 27.9128C210.521 31.5595 207.838 36.3277 204.749 41.0453C201.986 45.2639 200.063 49.4566 198.452 54.2235C196.992 58.5441 194.309 62.2915 192.717 66.579C191.491 69.8817 189.988 72.9477 187.953 75.8265L187.865 75.9505C186.479 77.911 185.084 79.8824 184.448 82.2404C184.242 83.0047 184.25 83.1027 183.856 83.6116C183.405 84.1948 183.482 84.8208 182.825 85.3636C181.983 86.0584 181.052 86.6653 180.154 87.2832C178.488 88.4297 177.564 89.4607 177.013 91.427C176.357 93.77 175.861 96.1118 175.572 98.5265C175.356 100.338 175.338 102.175 175.087 103.981C174.904 105.291 174.489 106.535 174.434 107.865C174.35 109.899 174.201 110.535 172.568 111.689C171.887 112.171 171.724 113.081 171.293 113.761C169.686 116.298 169.269 119.976 168.942 122.933C168.63 125.749 168.684 128.579 168.684 131.434C168.684 135.999 167.927 140.022 166.499 144.323C165.448 147.49 163.816 150.411 162.342 153.372C161.911 154.237 161.161 155.127 161.052 156.114C161.018 156.422 161.171 156.994 160.9 157.211C160.428 157.591 159.871 157.909 159.459 158.369C158.865 159.032 158.852 160.363 158.852 161.188C158.852 161.804 157.619 161.852 157.153 162.147C155.397 163.257 152.661 165.333 152.085 167.358C151.778 168.435 152.844 168.274 152.844 169.155C152.844 169.824 152.947 170.473 152.631 171.045Z" fill="#F3DDC8"/>
<path d="M87.5655 160.77C79.0291 148.676 71.9941 142.181 67.5837 138.642M63.2016 154.239C61.7334 149.858 60.3705 144.861 70.9655 156.037C79.4415 164.978 86.8871 176.804 89.5505 181.6L94.969 191.559M103.57 201.461C105.889 198.996 106.227 197.942 105.554 193.538C104.881 189.135 106.871 185.82 110.992 182.074C115.112 178.327 115.495 178.869 116.645 173.982C117.795 169.094 120.985 167.095 122.786 165.814M115.124 169.91C111.783 159.81 98.1771 139.384 85.8618 133.438M67.5837 138.642C65.2778 136.792 63.6894 135.75 62.9788 135.138C60.9091 133.356 54.9736 135.681 53.6211 139.899C53.5322 140.176 53.4766 140.487 53.4541 140.832M67.5837 138.642C74.425 139.47 75.2202 139.446 79.3629 136.498C83.5057 133.55 84.3536 133.218 89.38 133.438C94.4064 133.658 96.9807 131.555 100.043 129.376M94.969 181.6C96.8501 185.415 101.35 198.753 101.637 201.461C102.127 206.074 97.1584 203.999 90.9154 198.246M73.307 154.371C65.854 146.112 54.4764 133.865 53.4541 140.832M53.4541 140.832C53.2261 144.322 56.3979 150.078 62.9778 160.771M125.668 163.763C126.736 163.436 127.914 162.345 128.37 161.84M128.37 161.84C129.215 162.143 131.204 162.481 132.398 161.414M128.37 161.84C130.104 158.164 129.299 148.972 122.364 139.531M132.398 161.414C133.892 160.08 137.042 161.093 139.257 159.246C139.629 159.487 140.144 159.664 140.7 159.751M132.398 161.414C135.469 157.33 135.27 150.148 129.183 140.374M129.269 103.694C138.799 110.935 144.682 117.426 149.809 126.976M128.595 116.922C132.299 120.254 139.445 128.46 144.548 140.29C145.149 141.684 145.635 142.984 146.019 144.196M104.396 125.193C104.607 123.958 105.585 123.171 106.048 122.932C106.068 122.194 106.433 120.488 107.73 119.565C107.738 117.66 108.85 115.784 110.238 115.068C110.119 112.982 112.364 110.029 115.365 110.063C117.765 110.09 121.365 112.303 122.865 113.405M113.198 106.994C113.205 105.47 114.117 104.079 114.573 103.574C114.586 102.57 114.885 100.259 115.978 99.0476C116.294 97.1952 118.323 90.8687 120.537 89.0218C122.751 87.1748 126.683 85.4615 135.106 88.9608M121.784 85.4216C122.053 84.7818 122.415 83.9961 122.865 83.0997M189.558 147.318C190.183 141.746 189.91 135.806 188.406 129.376M175.952 157.409C186.228 155.67 197.012 152.321 204.487 147.001C214.214 140.079 223.5 128.316 227.416 112.78C229.947 102.743 230.163 93.1073 225.644 82.3047C237.076 74.7112 241.091 71.5824 241.253 64.1437C241.324 60.8789 240.079 57.8185 238.117 55.2255" stroke="#3E3939" stroke-width="5" stroke-linecap="round" stroke-linejoin="round"/>
<path d="M225.628 99.8381C224.63 98.5245 223.679 98.7262 222.601 99.105M225.628 99.8381L222.601 99.105M225.628 99.8381C225.636 99.525 225.723 99.2166 225.759 98.8867L225.628 99.8381ZM222.601 99.105C221.676 99.548 219.635 100.238 218.729 98.8196C217.823 97.4008 217.747 96.8798 218.198 95.4309C218.621 93.9988 220.07 93.1441 221.508 92.8606C222.947 92.5771 224.127 91.9832 225.399 93.7005C226.649 95.3795 225.937 96.0566 225.285 97.1615C224.999 97.5872 224.794 97.7595 224.464 98.1088L222.601 99.105ZM222.601 99.105C223.22 98.7912 223.839 98.4775 224.413 98.0873M222.601 99.105L224.413 98.0873M224.413 98.0873C224.945 98.082 225.383 98.4401 225.781 98.9249L224.413 98.0873ZM225.656 99.8214C225.452 100.713 225.056 100.69 224.414 101.223C223.771 101.757 223.593 102.171 223.137 103.416C222.682 104.662 221.866 103.138 220.286 103.505C218.654 103.851 219.596 105.917 219.94 107.617C220.285 109.316 221.599 108.232 222.203 107.566C222.807 106.901 224.169 106.355 224.964 105.886C225.759 105.417 226.499 104.723 227.518 105.355C227.817 105.539 228.107 106.036 228.438 105.686C228.768 105.337 228.816 104.178 228.093 103.268C227.347 102.32 225.541 104.26 224.522 104.347C223.503 104.434 226.63 102.074 227.385 101.732C228.14 101.389 227.61 99.4394 226.751 98.5583C226.251 98.0305 225.911 98.2317 225.787 98.8699L225.656 99.8214ZM223.303 116.172C223.456 116.956 223.448 117.989 223.169 118.359C222.826 118.819 222.025 119.343 221.738 118.33C221.479 117.3 221.589 115.333 221.178 114.238C220.767 113.144 219.776 110.079 220.85 110.216C221.924 110.354 221.781 112.134 222.737 112.136C223.478 112.161 224.238 111.764 225.048 111.646C225.699 111.519 226.468 110.808 226.664 110.229C226.879 109.486 228.071 108.063 227.962 109.052C227.853 110.042 228.396 111.624 227.885 111.925C227.374 112.227 227.465 111.402 226.84 111.771C226.357 112.056 225.556 112.58 224.824 112.961C224.432 113.14 223.237 113.383 223.086 114.038C222.849 114.743 223.182 115.575 223.303 116.172ZM221.322 106.647C221.721 106.154 222.039 105.915 221.375 105.433C220.711 104.951 220.241 105.126 220.375 106.074C220.51 107.023 220.865 107.173 221.322 106.647ZM220.122 97.7403C219.029 96.3288 219.707 95.7234 220.418 95.0463C221.102 94.3859 221.837 93.4889 222.903 93.9396C223.941 94.407 224.043 95.1694 223.81 96.0778C223.578 96.9863 222.405 97.2671 221.87 97.7887C221.334 98.3103 220.476 98.1486 220.122 97.7403ZM217.104 92.5805C216.213 92.9519 215.783 93.0001 215.045 91.7389C214.33 90.5158 214.421 89.6911 215.313 89.0617C216.205 88.4322 217.208 88.9713 218.404 89.4482C219.6 89.925 220.742 89.1997 221.115 88.4655C221.487 87.7314 221.637 84.918 222.168 85.8903C222.698 86.8626 222.85 88.6239 222.087 89.2796C221.325 89.9353 220.197 90.2925 219.481 90.7665C218.765 91.2404 218.201 91.7788 217.97 92.4291C217.689 93.058 217.439 92.4344 217.104 92.5805ZM216.295 91.0015C215.742 89.991 216.415 89.1825 217.093 89.2965C217.771 89.4106 218.074 89.7975 217.956 90.3808C217.817 90.9259 216.625 90.6522 216.295 91.0015Z" stroke="#3E3939" stroke-width="3" stroke-linecap="round" stroke-linejoin="round"/>
<path d="M248.838 31.7867C247.67 34.0006 245.232 38.8525 243.339 43.2667M243.339 43.2667C242.915 44.257 242.518 45.2253 242.168 46.1368C239.787 52.3551 226.924 74.3585 221.684 82.0118C216.444 89.6652 206.917 99.7102 201.676 104.972C196.436 110.234 191.196 124.584 187.385 131.28C183.574 137.977 176.429 156.632 174.047 161.894C173.348 163.437 171.731 165.286 169.759 167.141C166.355 170.345 161.893 173.571 159.279 175.287C153.082 179.176 147.83 177.69 144.035 174.685M243.339 43.2667C250.267 38.4834 259.794 35.1351 262.176 35.1351M114.976 77.2285C117.415 79.9225 119.516 80.7348 125.456 83.4468M104.496 95.4052C108.549 95.4052 111.376 95.0974 114.976 92.8234M125.456 83.4468C131.117 86.0317 140.571 90.4803 144.988 94.4485C149.751 99.2319 151.657 106.407 150.704 120.279C149.751 134.15 146.417 143.717 144.035 150.892C140.224 159.502 137.842 168.112 141.653 172.417C142.366 173.222 143.162 173.994 144.035 174.685M125.456 83.4468C120.92 88.2083 117.723 91.0882 114.976 92.8234M114.976 92.8234C111.641 100.189 111.165 105.929 111.165 111.19M84.9642 133.194C79.724 124.105 78.2949 123.149 80.2004 111.19C81.7248 101.624 85.5992 87.7518 87.3459 82.0118C88.4575 73.2424 91.7286 54.7468 95.9207 50.9201C98.4053 48.652 101.64 46.1689 105.37 43.2667M119.263 31.7867C114.253 36.3143 109.507 40.0482 105.37 43.2667M105.37 43.2667C104.496 37.5267 108.306 35.6134 123.074 24.1334C134.888 14.9494 146.417 7.55112 150.704 5M155.468 158.545C160.041 160.459 163.725 160.937 164.995 160.937M144.035 174.685C144.035 170.025 144.511 168.112 147.846 170.025C150.513 171.556 156.579 172.258 159.279 172.417M150.704 86.3168C149.561 79.8115 148.322 78.8229 147.846 79.1418M167.377 115.495C170.426 115.495 177.54 118.365 178.81 118.844M97.3498 125.54C101.637 123.627 104.178 121.873 106.401 120.279" stroke="#3E3939" stroke-width="5" stroke-linecap="round" stroke-linejoin="round"/>
<path d="M71.1492 161.415C64.0062 160.66 53.0064 162.884 53.1344 166.677M83.0586 171.939C77.0245 173.214 63.1461 174.617 55.9051 170.025C53.9969 168.815 53.1686 167.69 53.1344 166.677M53.1344 166.677C51.1413 171.939 49.2358 174.809 51.6177 176.244C52.5474 176.804 53.3319 176.927 53.9996 177.039M87.346 182.462C85.4405 181.027 83.0586 184.375 80.6767 182.462C78.2949 180.549 74.9602 184.854 72.5783 182.94C70.1964 181.027 65.9091 183.897 64.0035 181.984C62.098 180.07 57.3343 181.984 56.3815 179.114C55.8006 177.364 55.0427 177.214 53.9996 177.039M53.9996 177.039C52.5705 198.247 51.1414 202.074 43.5194 212.119C35.8973 222.164 29.7044 234.6 34.9446 267.605M102.114 269.997C104.97 245.803 109.857 237.651 96.3971 212.119C87.2277 194.725 88.9339 187.883 89.7279 186.767M96.3971 230.295C98.3971 243.683 95.266 250.748 93.3684 263.779" stroke="#3E3939" stroke-width="5" stroke-linecap="round" stroke-linejoin="round"/>
<path d="M73.0547 270.475C68.9797 272.826 68.1829 277.898 70.4935 280.91C71.7417 282.163 74.0633 282.697 75.6665 283.254C80.0644 284.782 89.2301 284.386 89.2301 277.996C89.2301 275.209 87.5227 273.883 85.4133 272.358C84.2946 271.55 82.8065 270.377 82.1329 269.16C81.1436 267.371 81.6369 265.07 81.7859 263.142C82.7345 250.865 91.1097 240.559 93.2045 228.523C93.9469 224.258 93.8287 218.918 91.927 214.952C90.4155 211.8 86.1064 211.072 83.0161 211.072C78.2385 211.072 72.847 211.53 68.9479 214.635C65.9133 217.052 65.5506 220.084 65.6674 223.836C65.7197 225.518 66.9308 227.06 67.6861 228.508C68.87 230.777 70.1197 233.014 71.3294 235.27C73.698 239.687 76.1274 245.057 76.6759 250.124C77.1875 254.85 76.2588 259.482 75.4615 264.108C74.9628 267.001 74.4162 267.83 73.0547 270.475Z" fill="#D4E2D1"/>
</svg>
