<svg width="290" height="290" viewBox="0 0 290 290" fill="none" xmlns="http://www.w3.org/2000/svg">
<g clip-path="url(#clip0)">
<path d="M105.275 227.253C109.755 222.196 114.255 217.732 119.625 213.59C122.888 208.697 136.49 207.423 141.686 207.423C149.555 207.423 156.937 208.493 164.689 209.736C170.19 210.618 177.16 210.182 181.695 214.019C187.984 219.339 191.106 229.523 193.561 237.06C194.773 240.783 194.956 241.711 197.502 244.598C200.04 247.478 202.396 250.427 204.441 253.678C227.187 277.855 184 286.5 127.5 287C70.9998 287.5 69.1675 270.958 81 256.5C85.7523 250.228 84.8055 251.468 89.554 245.198C94.3353 238.884 100.016 233.189 105.275 227.253Z" fill="white"/>
<path d="M146.267 244.96C144.71 236.591 143.171 218.046 141.705 209.549C136.45 206.922 126.758 205.716 120.695 207.448C119.374 207.825 114.856 212.626 113.611 213.87C110.244 217.237 109.459 221.075 107.128 224.914C97.683 240.467 91.9143 258.243 82.2756 273.769C74.0512 284.452 129.819 288.5 129.819 284.092C130.054 279.872 128.403 280.242 132.1 275.929C136.277 271.057 143.88 269.044 139.004 263.085C136.069 259.499 138.909 258.7 142.245 255.883C146.827 252.015 147.256 250.27 146.267 244.96Z" fill="#F8F7F3"/>
<path d="M148.319 231.166C150.072 221.651 162.181 223.724 169.279 223.724C170.267 225.7 164.197 225.661 165.798 227.205C169.786 231.05 170.464 232.806 171.649 238.053C173.265 245.207 173.923 252.455 176.463 259.416C179.166 266.822 184.934 274.547 185.832 282.335C118.165 292.17 131 277.5 132.647 265.951C133.792 252.598 145.89 244.351 148.319 231.166Z" fill="#EBDCC1"/>
<path d="M188.03 224.015C183.991 218.967 181.289 220.943 176.438 220.943C171.318 219.236 143.397 217.998 143.397 224.015C143.397 232.138 158.193 240.262 159.905 247.961C161.237 253.957 157.217 260.717 160.603 266.811C162.379 270.007 163.098 273.39 165.281 276.515C168.5 283 224.28 275.695 208.14 260.597C201.767 248.763 196.46 234.551 188.03 224.015Z" fill="#C2AC85"/>
<path d="M127.991 212.133V221.074C127.991 222.286 127.557 228.631 128.092 229.761C128.642 230.922 129.725 231.57 130.505 232.529C133.57 236.301 137.357 239.127 140.793 242.563C143.244 245.014 145.91 247.135 149.48 247.135C151.192 247.135 153.264 246.47 154.611 245.382C158.547 242.203 146.339 231.84 145.795 227.415C144.671 218.282 158.058 216.771 159.538 207.764C160.64 201.063 162.052 194.285 163.907 187.748C167.738 174.248 177.246 162.007 185.447 150.815C189.182 145.719 192.56 138.194 198.935 135.803C201.799 134.729 204.964 134.175 207.902 133.289C210.255 132.579 211.778 130.95 213.718 129.656C216.442 127.84 212.944 126.105 212.118 124.957C209.981 121.989 206.687 121.363 203.456 120.233C200.179 119.086 196.756 118.258 193.372 117.388C191.398 116.88 189.4 116.789 187.429 116.27C185.764 115.832 183.858 115 182.12 115C170.63 115 159.105 115.457 147.651 115.457C141.07 115.457 134.341 117.23 128.092 119.115C126.151 119.7 121.132 121.106 121.132 123.687C121.132 127.119 123.415 127.166 126.594 127.802C131.502 128.784 136.342 128.716 141.351 128.716C148.869 128.716 156.663 128.368 164.111 129.402C166.328 129.71 172.729 129.682 169.394 132.831C166.809 135.273 161.827 135.936 158.395 136.464C155.275 136.944 152.067 137.403 148.921 137.403H131.496C128.666 137.403 124.665 136.623 121.844 137.429C121.099 137.642 120.675 142.259 120.675 142.89C120.675 144.21 119.849 149.806 121.132 150.561C122.151 151.16 122.664 151.577 123.876 151.577C125.105 151.577 124.609 152.301 125.019 153.203C125.347 153.925 124.873 155.667 125.476 156.149C125.757 156.374 126.119 158.033 126.162 158.435C126.336 160.086 127.474 161.806 127.889 163.465L127.991 163.872C128.51 165.949 129.027 168.018 129.566 170.094C130.791 174.821 130.734 180.904 130.734 185.767C130.734 188.564 130.533 191.35 129.134 193.869C127.146 197.448 126.527 200.888 126.619 204.919C126.676 207.427 127.991 209.629 127.991 212.133Z" fill="#EBDCC1"/>
<path d="M176.784 208.025C174.556 213.755 175.564 218.245 175.564 224.251C174.492 226.397 170.795 228.793 168.777 229.978C164.697 232.374 160.201 233.231 155.52 232.736C149.076 232.053 148.341 224.664 147.195 219.426C146.075 214.304 147.337 209.198 148.733 204.313C149.825 200.491 147.53 191.471 151.968 188.936C155.094 187.149 156.663 182.675 157.906 179.497C159.497 175.433 162.14 171.433 162.705 167.195C162.901 165.727 163.321 159.215 164.349 158.392C165.137 157.762 165.8 157.026 166.974 156.961C168.716 156.864 169.507 155.237 170.527 153.991C172.624 151.427 174.935 149.292 176.757 146.488C178.569 143.701 182.012 142.689 185.056 141.927C188.288 141.119 191.423 139.797 194.654 139.091C200.018 137.917 204.751 136.097 209.926 134.318C212.176 133.545 216.656 132.747 218.993 133.682C221.02 134.492 220.474 137.317 220.425 139.091C220.341 142.107 216.99 143.954 214.725 145.242C210.592 147.59 206.283 149.393 202.131 151.684C200.468 152.602 197.2 154.052 196.086 155.635C192.859 160.221 195.037 165.395 194.044 170.456C192.999 175.786 190.935 179.979 188.079 184.481C186.404 187.121 184.612 190.125 183.704 193.151C183.195 194.847 181.15 195.634 180.337 197.261C179.489 198.956 180.303 200.695 179.754 202.404C179.13 204.346 177.539 206.084 176.784 208.025Z" fill="#C2AC85"/>
<path d="M123.419 128.325C145.191 124.354 167.6 126.737 188.996 129.802C186.316 131.142 181.061 134.232 178.066 135.342C172.458 137.419 167.115 137.213 161.034 137.213C150.473 137.213 139.983 137.887 129.404 137.887C126.033 137.887 122.792 137.213 119.447 137.213C117.18 137.213 114.858 137.485 112.71 136.689C110.3 135.797 108.918 133.271 107.17 131.524C105.351 129.705 106.907 129.802 108.667 129.802C113.883 129.802 118.204 128.325 123.419 128.325Z" fill="#9E8559"/>
<path d="M152.165 154.863C178.085 154.863 194.494 151.341 204.021 148.592M77.8642 136.584C79.0251 142.417 80.1861 143.973 87.1518 147.473C94.1175 150.974 96.8263 157.196 97.9873 166.919C99.1482 176.643 97.9873 176.643 103.792 183.254C109.597 189.866 109.21 196.478 109.21 200.367M111.145 185.199C128.946 190.644 171.901 191.811 192.888 180.143M204.021 148.592C209.001 147.155 212.101 145.929 213.695 145.529C218.339 144.362 221.048 133.472 216.404 127.249C216.099 126.841 215.712 126.445 215.243 126.063M204.021 148.592C195.894 157.585 195.12 158.752 195.12 167.697C195.12 176.643 194.733 178.198 189.315 185.199C183.897 192.199 184.284 198.033 184.284 204.645M97.9873 138.139C90.6346 136.972 84.728 135.417 80.573 133.083C67.4156 125.694 103.792 117.137 144.425 117.137C185.282 117.864 208.572 120.628 215.243 126.063M175.771 140.862C195.12 138.528 224.144 134.6 215.243 126.063M109.21 206.59C108.591 208.456 108.952 211.257 109.21 212.423C107.92 213.331 105.417 215.846 105.727 218.646C106.114 222.146 101.47 225.647 101.857 230.703C99.9222 231.481 97.6003 234.203 97.6003 236.537M97.6003 236.537C96.4394 237.314 93.7305 240.037 94.1175 243.148C92.1826 244.704 88.3127 247.426 90.2476 256.372C92.1825 265.317 109.597 274.262 131.268 277.762C152.939 281.263 169.192 279.707 191.25 272.706M97.6003 236.537C97.6003 243.148 101.47 252.871 123.528 257.538C145.586 262.205 164.548 260.261 173.062 258.316M185.832 215.146C187.38 216.702 187.509 218.905 187.38 219.813C188.412 220.591 190.476 222.846 190.476 225.647C193.185 227.591 194.733 231.092 194.346 233.814C197.442 235.759 199.377 241.981 196.281 246.26C193.804 249.682 186.993 252.612 183.897 253.649M202.86 246.26C205.027 247.815 206.084 250.538 206.342 251.704C207.761 252.742 210.754 255.516 211.373 258.316M123.5 127.5L114 128.5C94.9999 130.528 110.5 135.5 120.432 136.584C129.978 137.621 154.409 138.917 175.771 135.806C202.473 131.916 193.572 129.834 185.832 127.5L178 126.5M84 256C81 259.5 77.5 264 77.5 268" stroke="#3E3939" stroke-width="5" stroke-linecap="round" stroke-linejoin="round"/>
<path d="M179.348 123.096C177.372 125.703 175.41 128.323 173.435 130.93C168.206 134.667 148.194 135.191 142.601 134.667C131.377 133.615 128.555 134.955 128.555 131.18C127.5 129.982 126.52 128.756 125.67 127.405C121.28 120.429 114.884 114.316 112.989 106.001C112.152 102.33 111.245 98.6994 110.353 95.0328C109.248 90.4877 109 86.2562 109 81.6068L109 81.5953C109 78.7899 109 76.0105 110.425 73.4871C112.342 70.0908 114.988 67.6431 117.816 65.0291C122.03 61.1333 125.882 57.4092 130.621 54.1672C132.377 52.9658 134.184 51.9293 133.613 49.5198C133.112 47.4053 132.453 45.9784 133.061 43.7505C133.695 41.4252 136.54 39.6132 138.172 37.9812C140.524 35.6302 142.814 36.0581 146.008 36.0581C148.894 36.0581 151.062 36.264 153.684 37.5182C155.707 38.4854 156.379 41.6961 156.694 43.6792C157.049 45.9163 157.614 48.3001 158.707 50.3032C159.408 51.5885 161.86 52.0575 163.017 52.7427C165.412 54.1621 168.026 55.396 170.586 56.4998C173.206 57.6301 175.933 59.2868 178.28 60.9158C180.057 62.1498 181.966 63.0779 183.943 63.9429C184.691 64.27 185.718 64.3388 186.401 64.7264C188.018 65.6441 189.162 68.1128 190.141 69.6053C191.589 71.8127 193.095 73.9626 194.451 76.2293C196.713 80.0094 196.661 83.8472 196.499 88.1417C196.289 93.7098 194.612 99.3775 191.851 104.185C189.941 107.51 188.347 110.92 185.795 113.801C183.259 116.664 181.627 120.088 179.348 123.096Z" fill="white"/>
<path d="M152.122 52.1257C153.138 54.3919 155.279 56.1222 157.198 57.6025C160.642 57.6025 162.959 57.8176 165.709 60.0671C167.963 61.9117 172.432 61.7216 173.966 64.1326C175.324 66.2665 176.949 68.0824 177.863 70.4731C178.42 71.93 179.472 73.4113 180.412 74.665C184.927 80.6851 185.734 88.8426 185.236 96.3197C185.022 99.5197 183.848 103.223 182.413 106.094C180.695 109.529 180.208 113.32 179.001 116.942C177.904 120.231 176.95 123.543 174.429 126.063C172.59 127.903 170.494 129.315 168.953 131.456C167.929 132.878 166.212 133.901 164.971 135.142C164.42 135.693 162.754 136.848 161.938 136.848C157.807 136.848 153.732 135.825 149.615 135.711C148.261 135.673 146.335 136.026 145.529 134.573C144.624 132.945 143.997 131.286 142.959 129.728C140.783 126.464 137.237 123.683 136.155 119.786C134.714 114.6 133.316 109.495 132.468 104.156C131.472 97.8768 130.067 91.1024 130.678 84.6919C130.93 82.0416 131.954 79.1028 132.742 76.5819C133.232 75.0153 133.777 72.8069 134.659 71.4211C135.54 70.0365 136.225 68.509 137.018 67.0817C137.59 66.0525 138.534 65.3602 139.083 64.4275C140.251 62.4407 140.329 60.2119 141.463 58.1713C142.232 56.7876 142.315 55.1678 143.169 53.7266C143.892 52.5071 144.677 51.2496 145.36 50.0192C146.12 48.6513 148.972 48.3757 150.373 48.966C151.597 49.4813 151.639 51.0493 152.122 52.1257Z" fill="#EBDCC1"/>
<path d="M151.529 126.488C149.624 128.096 149.445 128.821 149.856 131.029C158.186 133.451 167.039 132.038 170.424 131.029C172.306 126.965 174.106 122.847 176.462 119.051C178.536 115.71 181.051 111.845 182.052 108.022C182.874 104.887 182.751 101.773 182.751 98.5647C182.751 92.2986 183.184 85.9831 181.952 79.8247C180.644 73.285 177.176 66.9663 172.219 62.4821C167.93 58.6025 164.051 55.4702 158.043 55.4702C155.52 55.4702 152.861 58.6967 154.099 61.3093C157.299 68.0629 161.121 74.5641 163.434 81.7711C164.374 84.703 164.197 88.7964 163.858 91.8523C163.592 94.2427 161.9 95.2678 160.538 97.0176C160.246 97.3929 161.084 98.6865 161.212 99.2634C161.563 100.842 161.782 102.298 161.612 104.005C161.345 106.666 160.95 110.056 158.941 112.065C157.929 113.077 156.789 113.061 156.695 114.759C156.597 116.514 157.283 116.36 155.746 118.153C154.01 120.179 150.849 121.016 152.876 123.493C154.096 124.984 152.916 125.316 151.529 126.488Z" fill="#C2AC85"/>
<g style="mix-blend-mode:multiply">
<path d="M127.658 128.51C124.954 129.552 126.527 132.517 128.043 134.032C128.456 134.858 131.051 135.866 131.823 136.252C133.349 137.016 134.513 137.575 136.299 137.674C137.919 137.764 139.439 138.161 141.088 138.161C142.911 138.161 144.703 138.105 146.519 138.005C150.003 137.811 153.25 137.49 156.629 136.509C158.89 135.853 161.136 135.099 163.445 134.619C164.894 134.319 166.452 133.78 167.931 133.711C169.339 133.646 170.604 133.465 171.967 133.124C172.925 132.885 174.465 132.672 175.197 131.941C176.023 131.115 176.222 129.971 176.765 128.987C177.34 127.945 177.887 126.859 178.151 125.693C178.501 124.143 178.397 122.168 177.738 120.739C177.205 119.586 174.502 119.901 173.472 120.033C171.321 120.31 169.119 120.626 167.014 121.152C165.74 121.471 164.514 121.942 163.252 122.308C162.257 122.597 161.17 122.778 160.207 123.134C159.036 123.566 157.87 123.542 156.647 123.666C155.479 123.784 154.317 124.083 153.143 124.125C151.887 124.169 150.667 124.596 149.418 124.62C148.559 124.636 147.679 124.455 146.776 124.455C143.876 124.455 140.723 123.869 137.841 124.326C136.173 124.591 134.348 125.46 132.868 126.235C131.185 127.116 129.429 127.827 127.658 128.51Z" fill="#C2AC85"/>
</g>
<path d="M151.836 43.7912C150.61 45.9594 150.1 48.6671 150.054 51.1219L145.891 51.1219C143.351 51.1219 140.158 51.7241 137.737 50.9678C133.953 49.7854 134.225 43.6073 135.253 40.4685C137.448 33.7632 144.023 32.9777 149.9 34.9362C150.644 35.1843 153.398 36.0721 153.446 36.9402C153.511 38.1056 153.235 39.2537 153.069 40.4C152.853 41.8873 152.536 42.5525 151.836 43.7912Z" fill="#9E8559"/>
<path d="M170.09 134.531C170.573 134.208 171.699 133.076 171.538 131.782C166 135.017 158.5 137 151.5 137M179.583 120.14C180.309 118.907 181.027 117.608 181.722 116.259M115.065 72.1157C116.415 69.4243 119.044 65.5093 122.788 61.8455M159.149 52.8824C167.464 54.7387 173.088 58.932 177.974 64.6775C185.536 73.5709 188.593 84.0814 188.593 92.8131C188.593 100.186 185.495 108.943 181.722 116.259M159.149 52.8824C159.471 42.8482 159.149 45.2241 159.149 41.015C159.149 36.8059 153.044 35.7139 148.564 35.5C144.084 35.2861 137.429 36.1044 137.429 39.612M159.149 52.8824C153.825 56.4482 144.355 58.5528 137.429 53.0165C131.517 54.6793 126.58 58.1335 122.788 61.8455M137.429 49.4779C137.034 46.834 137.429 44.5225 137.429 39.612M129.623 135.017C128.336 134.209 127.775 132.268 129.062 130.489M126.327 130.489C125.426 129.842 124.986 128.71 124.879 128.225C124.289 127.794 123.045 126.64 122.788 125.476C121.822 124.506 118.926 120.625 118.765 118.523C121.565 124 132 125.476 133 125.476M117.156 116.259C115.494 113.564 111.976 106.299 111.203 98.796M111.203 98.796C110.431 91.2931 111.096 84.0275 111.525 81.3325M111.203 98.796C113.721 109 132.128 114 148.564 113.5M137.429 39.612C139.094 41.3658 144.5 42.5 148.564 42M181.722 116.259C176 122 169.5 124.476 162.5 125.476M122.788 61.8455C121 68 133.358 69 137.429 69" stroke="#3E3939" stroke-width="5" stroke-linecap="round" stroke-linejoin="round"/>
<path d="M130.285 98.581C129.871 98.1154 130.04 97.9037 129.998 97.3342C129.956 96.7648 129.797 96.5021 129.286 95.7566C128.775 95.011 129.942 95.1566 130.362 94.129C130.814 93.0815 129.297 92.7926 128.219 92.3151C127.141 91.8377 127.223 92.999 127.354 93.5987C127.484 94.1984 127.25 95.1741 127.196 95.8032C127.143 96.4323 127.235 97.1193 126.482 97.4393C126.263 97.5336 125.873 97.5 125.936 97.8223C125.999 98.1446 126.623 98.6283 127.413 98.583C128.233 98.5404 127.87 96.7664 128.224 96.1631C128.577 95.5598 128.652 98.2369 128.544 98.7934C128.436 99.35 129.726 99.823 130.553 99.6905C131.043 99.6194 131.066 99.3498 130.761 99.0294L130.285 98.581ZM130.287 98.5586C131.409 98.5193 131.673 97.9082 131.888 97.1572L130.287 98.5586ZM130.287 98.5586C130.458 98.6864 130.594 98.8566 130.763 99.0069L130.287 98.5586ZM131.888 97.1572C132.007 96.4658 132.43 95.0537 133.574 95.1068C134.718 95.1599 135.037 95.3231 135.662 96.1464C136.289 96.9472 136.192 98.0931 135.781 99.0084C135.371 99.9237 135.234 100.817 133.78 100.851C132.356 100.887 132.262 100.222 131.906 99.4221C131.783 99.0946 131.768 98.9123 131.705 98.59L131.888 97.1572ZM131.888 97.1572C131.817 97.6264 131.747 98.0957 131.737 98.5701L131.888 97.1572ZM130.733 99.0043C131.159 98.973 131.53 98.8692 131.737 98.5701L130.733 99.0043ZM122.149 90.82C121.654 90.5963 121.084 90.1852 120.989 89.8828C120.869 89.5104 120.895 88.8563 121.57 89.0954C122.243 89.3569 123.29 90.1939 124.059 90.3958C124.828 90.5977 126.918 91.2527 126.419 91.7982C125.919 92.3437 124.988 91.562 124.61 92.0953C124.303 92.499 124.223 93.0806 123.969 93.5793C123.783 93.9933 123.874 94.7027 124.117 95.0405C124.445 95.4534 124.763 96.6804 124.258 96.2295C123.752 95.7786 122.661 95.4585 122.695 95.054C122.729 94.6496 123.151 95.0253 123.193 94.531C123.226 94.1491 123.251 93.4949 123.329 92.9358C123.384 92.6463 123.721 91.8831 123.417 91.5401C123.12 91.1298 122.527 90.9883 122.149 90.82ZM128.211 93.4688C128.327 93.8861 128.334 94.1583 128.863 93.9775C129.392 93.7967 129.481 93.4648 128.902 93.166C128.323 92.8673 128.099 93.0065 128.211 93.4688ZM133.622 96.3105C134.836 96.2565 134.905 96.8734 134.999 97.5379C135.096 98.1799 135.303 98.9446 134.632 99.3623C133.964 99.7574 133.501 99.5139 133.089 99.0258C132.677 98.5378 132.984 97.772 132.906 97.2674C132.828 96.7628 133.257 96.3469 133.622 96.3105ZM137.674 96.6589C137.82 96.015 137.963 95.7558 138.953 95.8409C139.913 95.9235 140.335 96.2992 140.332 97.0458C140.329 97.7925 139.634 98.1401 138.898 98.62C138.162 99.0999 138.113 100.024 138.373 100.521C138.633 101.019 140.134 102.212 139.385 102.125C138.637 102.038 137.601 101.428 137.538 100.744C137.475 100.059 137.722 99.2884 137.742 98.7017C137.762 98.1149 137.686 97.5878 137.416 97.2025C137.179 96.7973 137.623 96.9035 137.674 96.6589ZM138.869 96.8295C139.647 96.9191 139.83 97.6138 139.499 97.9475C139.168 98.2812 138.834 98.2977 138.557 98.0023C138.31 97.7094 138.932 97.1518 138.869 96.8295ZM140.564 100.71C141.243 100.542 141.431 100.467 141.517 99.8184C141.57 99.1893 142.462 97.5911 142.174 97.0685C141.886 96.5458 141.37 96.5693 141.526 96.1527C141.653 95.7336 142.557 94.7023 142.789 95.1749C143.02 95.6475 142.625 96.7451 143.208 96.9989C143.791 97.2527 144.814 97.6576 145.018 97.0414C145.252 96.4278 144.897 96.3294 145.572 95.5048C146.249 94.6576 146.392 95.4621 146.19 96.4179C145.987 97.3737 145.569 98.3789 145.596 99.1281C145.623 99.8773 145.947 99.9731 146.335 100.391C146.723 100.809 146.896 101.616 146.018 101.631C145.14 101.646 144.779 100.914 144.746 100.232C144.716 99.5277 145.106 98.4974 143.907 98.3718C142.707 98.2685 142.899 98.8509 142.538 99.5441C142.176 100.237 142.175 100.961 142.213 101.576C142.252 102.19 141.465 101.489 141.259 101.426C141.022 101.36 140.192 100.814 140.564 100.71ZM147.969 98.2457C148.326 97.5975 148.797 96.3253 149.759 96.7475C150.721 97.1697 150.314 98.04 150.317 98.7192C150.319 99.3984 150.201 100.791 148.845 100.381C147.521 99.95 147.57 99.0262 147.969 98.2457ZM148.818 98.5677C148.693 98.2627 148.965 97.1997 149.578 97.4561C150.191 97.7125 149.951 98.3936 149.621 98.7273C149.258 99.0808 149.012 99.1276 148.818 98.5677Z" stroke="#3E3939" stroke-width="2" stroke-linecap="round" stroke-linejoin="round"/>
<path d="M175.763 83.1669C175.742 83.3229 175.724 83.4478 175.709 83.5477M177.737 87.8235C177.634 87.8918 177.285 88.0334 176.995 88.1657C176.706 88.298 176.595 88.28 176.545 87.7618C176.495 87.2436 176.657 87.1661 176.181 86.8714C175.816 86.6457 175.915 86.7391 176.04 86.5502M176.04 86.5502C176.078 86.4925 176.118 86.4083 176.148 86.2804C176.277 85.7347 176.022 85.7214 175.843 85.6263C175.794 85.6001 175.714 85.5789 175.63 85.5548M176.04 86.5502C176.323 86.3462 176.803 85.892 176.456 85.7071C176.022 85.4759 175.8 85.6872 175.63 85.5548M175.63 85.5548C175.41 85.4911 175.169 85.4077 175.436 85.1632C175.557 85.0517 175.685 84.8988 175.791 84.7382M175.791 84.7382C176.005 84.4136 176.128 84.0578 175.923 83.9486C175.659 83.8077 175.616 84.1821 175.709 83.5477M175.791 84.7382C176.101 84.5348 176.637 84.4521 176.443 83.9387C176.248 83.4253 175.644 84.0866 175.709 83.5477M175.849 82.8031C175.946 82.7999 176.064 82.5736 175.766 81.694M153.924 94.4228C153.871 94.5658 153.813 94.7249 153.752 94.9049C153.613 95.3154 153.446 95.5934 153.292 95.8064C153.03 96.1693 152.805 96.3433 152.821 96.6612C152.832 96.898 153.003 96.9119 153.152 96.838C153.302 96.7641 153.57 96.6509 153.774 96.637C153.979 96.623 154.114 96.7773 154.404 96.645C153.946 96.032 153.684 95.701 153.986 95.0296M153.924 94.4228C153.986 94.254 154.093 94.0125 154.138 93.8814C154.289 93.4387 154.454 93.358 154.267 92.9675C153.979 92.3633 153.844 91.9634 153.649 91.6955C154.151 91.9636 154.312 92.2849 154.709 93.0393C154.927 93.5782 155.411 94.7864 155.61 95.3084C155.768 95.7206 155.885 95.9306 156.269 96.0419C156.941 96.2362 157.401 96.2355 157.521 96.0943C157.64 95.9532 157.707 96.5214 156.804 96.6956C156.145 96.8229 155.787 96.9855 155.531 96.8571C155.437 96.8097 155.367 96.7247 155.366 96.5843C155.362 95.6735 155.386 94.8127 154.705 95.1261C154.603 95.1622 154.508 95.1673 154.429 95.1995C153.895 95.3205 153.887 94.7412 153.924 94.4228ZM157.577 89.5296C158.011 89.7608 158.121 89.9015 158.12 90.3925C158.119 90.8835 157.718 91.1205 157.7 91.6843C157.682 92.248 157.544 93.0757 157.815 93.5071C158.087 93.9385 158.139 93.5975 158.639 94.2741C159.04 94.8153 159.402 95.0578 159.533 95.1115M159.533 95.1115C159.698 95.239 159.935 95.4056 159.854 95.6995C159.665 96.3772 159.724 96.7363 160.117 95.9219C160.647 94.8235 159.559 94.2725 159.1 94.0278C158.64 93.7831 158.505 93.3832 157.945 92.8386C157.384 92.294 157.731 93.0117 158.169 91.2789C158.607 89.5461 158.267 89.4057 157.502 88.9978C157.306 88.7299 157.549 90.498 157.548 91.1117C157.547 91.7255 157.62 93.2392 157.813 94.8573C158.005 96.4754 157.05 96.9907 158.064 96.7117C158.875 96.4885 158.993 96.1419 158.951 95.9965C158.432 95.6382 158.074 95.8161 158.075 95.0824C158.196 93.8393 158.341 94.32 158.749 94.6603C158.98 94.853 159.318 94.9449 159.533 95.1115ZM165.017 93.1679C165.025 93.4998 164.141 93.1103 163.365 93.3525C162.59 93.5947 161.747 94.0053 161.475 93.6966C161.425 93.4239 162.021 93.332 162.327 93.2497C162.634 93.1673 163.792 93.0063 164.226 92.7465C164.661 92.4866 165.009 92.8361 165.017 93.1679ZM165.017 93.1679C165.307 93.0765 165.338 92.8801 164.984 92.8225M162.654 95.7586C162.578 95.3496 162.049 91.9954 161.982 91.55M164.171 90.341C164.062 90.4721 163.949 90.6116 163.839 90.7377C164.119 91.1327 164.357 91.587 164.312 92.3826C164.268 93.1783 164.499 93.295 164.506 93.387C164.513 93.479 164.692 94.1823 164.639 94.7688C164.587 95.3553 164.68 95.4461 165.251 95.0951C165.822 94.7441 165.201 94.6997 164.956 94.0364C164.71 93.373 164.873 92.6817 164.67 92.082C164.467 91.4822 164.672 91.3455 164.802 90.3088C164.904 89.4946 164.568 89.8615 164.171 90.341ZM164.171 90.341C164.265 90.7597 164.491 90.5309 164.509 91.914C164.527 93.2972 164.766 95.0819 164.894 95.1503M165.762 91.2301C165.201 90.9309 165.78 90.5436 166.514 89.5013C166.771 89.0235 166.582 89.824 166.487 90.4697C166.392 91.1154 165.89 91.2937 166.689 91.4377C167.488 91.5816 167.123 91.5461 167.003 92.0554C166.882 92.5648 167.198 92.3233 167.026 93.051C166.854 93.7787 166.914 93.7695 167.519 93.5184C168.124 93.2674 167.859 93.7815 167.509 94.1685C167.159 94.5555 166.658 94.2472 166.548 93.9837C166.437 93.7202 166.949 93.1329 166.644 92.847C166.338 92.5611 166.141 92.7842 166.313 92.0566C166.485 91.3289 166.323 91.5292 165.762 91.2301ZM165.762 91.2301C165.617 91.1607 165.896 90.5401 166.053 90.2385C166.077 90.9886 166.282 91.3436 166.543 92.0562C166.804 92.7687 166.797 93.5362 166.931 93.9422C167.065 94.3482 167.177 93.9918 167.279 94.0462M169.275 92.038C169.115 91.5019 169.185 90.4743 168.837 90.2476C168.488 90.0209 168.011 90.0944 168.319 89.6438C168.771 89.0657 168.984 88.7698 169.332 89.3648C169.68 89.9598 169.628 90.1781 169.482 91.1648C169.335 92.1516 169.956 92.3188 170.542 92.6315C171.129 92.9442 171.861 93.0067 172.287 92.7832C172.713 92.5597 171.587 93.8027 170.643 93.4224C170.041 93.1798 169.716 92.9017 169.518 92.5929M169.275 92.038C169.269 92.4305 169.222 93.312 169.085 93.6977C168.913 94.1799 169.143 94.1795 169.544 93.9424C169.944 93.7054 169.868 93.7873 169.553 93.4151C169.302 93.1173 169.425 92.7429 169.518 92.5929M169.275 92.038C169.334 92.2323 169.405 92.4176 169.518 92.5929M171.497 89.1976C171.384 89.0353 171.372 88.8137 171.658 88.5154C172.082 88.0724 172.097 88.4275 172.166 88.7046M171.497 89.1976C171.581 89.3194 171.722 89.4078 171.835 89.4702M171.497 89.1976L171.831 88.9511M172.166 88.7046C172.19 88.8006 172.221 88.8872 172.278 88.9281C172.36 88.9871 172.409 89.119 172.473 89.2777M172.166 88.7046L171.831 88.9511M171.835 89.4702C171.873 89.491 171.908 89.5089 171.936 89.5242C172.166 89.6466 172.438 89.7098 172.47 90.6689C172.502 91.6281 172.757 92.0096 173.302 91.8905C172.885 91.5866 173.072 91.7681 172.904 90.9001C172.735 90.0321 173.602 90.6171 174.283 90.7751C174.9 90.9182 174.897 89.8902 174.335 88.973M171.835 89.4702L172.154 89.374M172.473 89.2777C172.581 89.5461 172.73 89.8912 173.152 90.0905C173.824 90.4076 174.275 90.6887 174.175 89.6524C174.075 88.616 173.777 88.662 173.352 88.2717C172.927 87.8814 172.724 87.4044 172.92 87.1813C173.117 86.9582 173.481 87.4804 174.323 87.9291C175.165 88.3778 175.556 88.5454 176.025 88.3855C176.156 88.3407 176.194 88.3845 176.151 88.453M172.473 89.2777L172.154 89.374M171.831 88.9511L172.154 89.374M176.151 88.453C176.041 88.6292 175.395 88.9692 174.416 88.3881C173.056 87.5812 173.396 87.7215 174.143 88.6932C174.213 88.7843 174.277 88.8781 174.335 88.973M176.151 88.453C175.998 88.6174 175.302 89.1334 174.335 88.973M181.407 82.7349C181.924 83.8296 181.918 83.3787 182.174 83.0236C182.431 82.6686 182.381 82.1504 181.702 81.256C181.391 80.804 181.632 81.1752 181.241 81.1304C180.849 81.0855 180.891 81.6401 181.407 82.7349ZM181.407 82.7349C181.696 83.2163 181.73 83.9336 182.242 83.4691C182.753 83.0045 182.29 82.3479 181.88 81.3511M181.407 82.7349C181.119 82.1307 180.608 80.8914 180.867 80.7673M161.966 91.1317C162.204 91.095 162.536 90.9035 162.449 92.0038C162.362 93.1041 162.599 93.5583 162.649 93.9538C162.699 94.3492 163.386 95.821 162.798 95.9993C162.21 96.1776 162.433 95.3543 162.188 94.5683C161.943 93.7822 162.208 93.268 161.971 92.4456C161.735 91.6231 161.646 91.1494 161.966 91.1317ZM177.508 83.0731C178.17 84.0404 178.238 83.9948 178.654 84.9125C179.069 85.8301 179.392 86.0432 179.033 86.4666C178.675 86.89 178.718 86.8308 179.152 86.6937C179.586 86.5566 179.808 86.5926 179.443 85.8249C179.079 85.0572 179.428 85.0385 180.049 85.2057C180.67 85.3728 181.367 85.5808 181.513 85.2078C181.658 84.8348 181.412 84.7852 180.917 85.177C180.423 85.5687 179.751 85.0061 179.241 84.6114C178.732 84.2168 179.013 83.8753 179.082 83.4615C179.151 83.0477 179.28 82.6247 178.923 82.3116C178.566 81.9985 177.757 82.1408 177.508 83.0731ZM177.891 83.1544C178.376 83.5354 178.518 84.5126 178.69 83.785C178.862 83.0573 179.092 82.9342 178.752 82.5483C178.413 82.1624 178.046 82.4995 177.891 83.1544ZM181.389 79.5299C181.593 79.6386 182.762 78.3365 183.076 78.586C183.39 78.8356 182.927 79.5396 183.088 79.9531C183.248 80.3665 182.413 80.8634 182.907 80.7171C183.401 80.5708 184.064 79.5941 183.604 79.5949C183.144 79.5956 183.542 80.3937 183.271 79.7168C183 79.0398 183.323 78.3902 183.452 77.8444C183.581 77.2986 183.703 76.0528 183.173 77.2039C182.749 78.1247 182.006 78.6166 181.688 78.7474C181.416 78.9297 180.974 79.3414 181.389 79.5299Z" stroke="#3E3939" stroke-width="2" stroke-linecap="round" stroke-linejoin="round"/>
<path d="M169.379 80.7709C170.048 80.5186 169.95 80.0308 170.221 80.1753M170.221 80.1753C170.492 80.3198 171.507 79.5113 171.822 80.2451C172.137 80.9789 171.657 81.202 171.304 81.5359C171.021 81.803 170.938 81.7475 170.932 81.6863M170.221 80.1753C170.31 80.3478 170.444 80.6139 170.573 80.881M170.932 81.6863C171.032 81.981 171.193 82.4813 171.319 82.9373M170.932 81.6863C170.877 81.5239 170.729 81.2018 170.573 80.881M171.319 82.9373C171.413 83.2756 171.489 83.5896 171.507 83.7772C171.526 83.9736 171.561 84.2006 171.578 84.4247M171.319 82.9373C171.414 82.8294 171.522 82.7994 171.671 82.8245M175.206 79.6115C174.946 78.7761 174.611 78.9023 174.104 78.9804C173.597 79.0586 172.938 78.62 172.965 78.504C172.686 78.0069 173.626 78.5513 173.815 78.6524C174.005 78.7535 174.575 78.6656 174.765 78.5059C174.956 78.3462 175.228 77.9689 175.146 78.3169C175.064 78.6648 175.73 80.2387 175.846 80.91M180.294 73.4434C180.863 73.6164 181.956 74.547 181.539 75.0212C181.122 75.4953 180.95 75.4473 180.571 74.9841C180.192 74.5209 179.669 73.8937 179.877 73.6567M169.351 80.7565C169.296 81.3798 169.822 80.5721 170.003 80.451C170.184 80.33 170.608 81.252 170.697 81.9089C170.786 82.5658 171.281 83.5699 171.397 84.2412C171.513 84.9126 171.377 85.1012 171.304 85.4105C171.584 85.2235 171.61 84.829 171.578 84.4247M170.573 80.881C170.926 80.2901 171.522 79.9663 171.586 80.5982C171.65 81.2301 171.024 81.2996 171.005 81.377M171.671 82.8245C171.808 82.8478 171.979 82.9181 172.205 83.0176C172.675 83.2246 173.226 83.4749 173.932 83.4592C173.649 83.8793 172.945 83.5036 172.511 83.2725C172.077 83.0413 172.051 82.8142 171.671 82.8245ZM171.671 82.8245C171.68 83.1615 171.674 83.9532 171.578 84.4247M152.902 83.2184C153.174 82.7107 153.493 81.7488 153.399 83.179C153.324 84.3231 153.277 86.5384 153.263 87.5031C153.242 87.6368 153.187 87.8279 153.137 87.5226C153.074 87.1411 153.205 85.2953 153.225 84.4353C153.245 83.5754 153.336 82.9278 152.902 83.2184ZM156.431 82.4879C156.62 82.7195 156.204 82.6719 156.203 83.0632C156.203 83.4546 156.463 84.4204 156.706 84.9417C156.949 85.4631 157.319 86.0954 157.155 86.5304C156.991 86.9655 155.769 87.4893 155.453 87.1468C155.137 86.8043 156.629 86.9468 156.667 86.2704C156.705 85.5939 156.425 85.2272 156.155 84.561C155.885 83.8947 155.679 82.9578 155.879 82.629C156.078 82.3001 156.268 82.2708 156.431 82.4879ZM159.497 82.8163C160.084 83.1728 160.887 84.0363 160.668 85.0946C160.448 86.153 160.091 88.3132 159.449 87.9277C158.808 87.5423 158.548 86.446 158.522 85.9098C158.496 85.3736 158.336 84.2434 158.663 83.2428C158.991 82.2422 159.235 82.6329 159.497 82.8163ZM159.477 83.6762C159.91 83.9074 160.352 84.7521 160.169 85.5254C159.987 86.2987 159.867 87.4536 159.379 87.063C158.891 86.6725 158.947 86.1797 158.867 85.4841C158.787 84.7885 158.745 83.2861 159.477 83.6762ZM163.613 82.5728C163.476 82.8918 163.277 82.9598 163.033 82.8298C162.789 82.6997 162.453 83.3476 162.506 83.8983C162.559 84.449 162.737 86.0237 163.551 85.9354C164.366 85.8471 164.156 86.4755 163.794 86.5872C163.432 86.6989 162.664 86.333 162.403 85.4976C162.143 84.6622 162.072 83.928 162.445 83.1254C162.817 82.3228 163.152 82.0662 163.613 82.5728ZM165.667 82.1442C165.91 82.9265 165.88 83.9556 166.405 83.9306C166.93 83.9055 167.816 83.8993 167.944 83.358C168.072 82.8167 167.226 80.7117 167.533 80.8319C167.84 80.9522 168.23 80.8549 168.137 81.8938C168.389 82.6374 169.49 85.3302 169.17 85.4044C168.766 85.4979 168.908 85.4305 168.493 84.5214C168.093 83.6445 167.923 84.4788 167.191 84.48C166.458 84.4812 166.267 84.7714 166.528 85.4763C166.789 86.1813 166.96 86.7511 166.417 86.8534C165.874 86.9557 166.246 86.2836 165.968 85.3951C165.689 84.5066 165.318 84.7875 165.418 84.2317C165.519 83.676 165.645 83.9173 165.592 83.4971C165.538 83.0769 165.007 82.097 165.233 82.1739C165.413 82.2355 165.598 82.1798 165.667 82.1442ZM177.368 79.893C177.504 79.313 178.781 78.8182 178.692 78.1613C178.603 77.5044 177.717 77.1193 177.267 76.3133C176.816 75.5072 176.509 75.3869 176.844 74.9999C177.18 74.6128 178.195 73.8044 178.23 74.3019C178.265 74.7995 177.108 74.5308 177.305 75.2455C177.503 75.9602 178.197 76.7659 178.812 77.0064C179.426 77.247 179.704 78.3963 179.197 78.7353C178.69 79.0744 177.948 79.3751 177.368 79.893ZM179.344 73.329C179.508 72.8939 180.106 72.5596 180.864 73.2251C181.623 73.8905 182.371 74.8555 181.927 75.4457C181.482 76.0358 180.885 76.1092 180.091 75.468C179.296 74.8268 179.099 73.7207 179.344 73.329Z" stroke="#3E3939" stroke-width="2" stroke-linecap="round" stroke-linejoin="round"/>
</g>
<defs>
<clipPath id="clip0">
<rect width="290" height="290" fill="white"/>
</clipPath>
</defs>
</svg>
