<svg width="290" height="290" viewBox="0 0 290 290" fill="none" xmlns="http://www.w3.org/2000/svg">
<g clip-path="url(#clip0)">
<path d="M55.0257 210.74C60.3313 209.09 65.399 207.865 70.9415 207.238C75.3209 205.184 85.435 210.08 89.0911 212.293C94.6282 215.644 99.367 219.54 104.293 223.716C107.788 226.679 112.878 229.34 114.435 233.972C116.595 240.393 114.455 248.889 112.972 255.238C112.24 258.374 111.974 259.105 112.535 262.22C113.095 265.328 113.497 268.407 113.552 271.565C119.261 298.264 85.1906 285.955 45.2208 262.246C5.25111 238.538 11.0063 226.117 25.4893 220.983C31.5042 218.593 30.3098 219.063 36.3215 216.672C42.3746 214.266 48.7967 212.678 55.0257 210.74Z" fill="white"/>
<path d="M76.3297 240.657C78.7979 234.104 85.6117 220.4 88.1994 213.797C85.6204 209.71 79.3135 204.734 74.3097 203.371C73.22 203.074 67.996 204.528 66.5905 204.873C62.7874 205.808 60.6005 208.175 57.3256 209.883C44.0561 216.805 32.4271 226.857 19.0327 233.677C8.69605 237.692 46.214 264.29 48.0912 261.188C50.0531 258.319 48.7346 257.876 53.1724 256.416C58.1862 254.766 64.3933 256.587 63.4997 250.318C62.9618 246.544 65.3002 247.192 68.8478 246.63C73.7187 245.86 74.7636 244.814 76.3297 240.657Z" fill="#F8F7F3"/>
<path d="M83.6474 231.824C88.9333 225.875 96.5707 232.491 101.565 235.514C101.419 237.325 97.1646 234.712 97.6338 236.48C98.8028 240.884 98.5319 242.408 97.1311 246.605C95.2216 252.327 92.5978 257.708 91.421 263.688C90.1689 270.05 90.9378 277.942 88.2537 283.805C36.4505 261.909 51.7292 257.052 57.8064 249.627C64.2984 240.718 76.3234 240.067 83.6474 231.824Z" fill="#EBDCC1"/>
<path d="M114.636 243.703C113.943 238.431 111.201 238.671 107.788 236.605C104.911 233.224 85.7919 220.463 83.2299 224.696C79.7707 230.412 86.7224 242.429 84.6477 248.576C83.032 253.363 77.3242 256.407 77.1118 262.137C77.0004 265.142 76.066 267.829 76.2712 270.958C75.7745 276.892 118.136 295.505 113.208 278.009C113.763 266.968 116.081 254.707 114.636 243.703Z" fill="#C2AC85"/>
<path d="M77.4486 209.774L73.641 216.066C73.1247 216.919 70.1177 221.199 70.0131 222.222C69.9056 223.273 70.392 224.19 70.532 225.198C71.0822 229.156 72.5436 232.758 73.4981 236.639C74.1792 239.408 75.1521 242.035 77.6638 243.555C78.8687 244.284 80.6096 244.699 82.0206 244.507C86.1446 243.946 81.9673 231.456 83.4685 228.11C86.5669 221.205 96.6305 225.843 101.508 220.135C105.136 215.889 109.017 211.721 113.106 207.911C121.551 200.043 133.454 195.478 143.991 191.096C148.789 189.1 154.371 185.244 159.875 186.276C162.347 186.74 164.81 187.698 167.255 188.325C169.213 188.828 170.978 188.33 172.895 188.246C175.585 188.129 173.862 185.418 173.77 184.258C173.53 181.259 171.478 179.416 169.687 177.245C167.869 175.043 165.813 173.002 163.803 170.949C162.629 169.751 161.262 168.836 160.096 167.631C159.111 166.614 158.125 165.217 156.901 164.477C148.817 159.584 140.512 154.998 132.452 150.12C127.821 147.317 122.332 145.7 117.132 144.365C115.517 143.95 111.387 142.802 110.288 144.618C108.826 147.033 110.412 148.038 112.378 149.839C115.414 152.62 118.849 154.634 122.373 156.767C127.663 159.969 133.296 163.043 138.096 166.942C139.525 168.103 144.041 170.809 140.353 171.605C137.494 172.222 133.706 170.567 131.067 169.477C128.667 168.486 126.214 167.443 124 166.104L111.739 158.683C109.747 157.478 107.265 155.225 104.936 154.591C104.322 154.423 102.057 157.492 101.788 157.936C101.226 158.865 98.2617 162.451 98.8432 163.528C99.3047 164.383 99.4881 164.895 100.341 165.411C101.206 165.935 100.549 166.233 100.453 167.042C100.376 167.69 99.3008 168.714 99.5199 169.31C99.622 169.588 99.1706 170.909 99.0289 171.211C98.4484 172.446 98.5172 174.141 98.1025 175.485L98.0008 175.815C97.4815 177.498 96.9644 179.174 96.4589 180.864C95.3083 184.712 92.6779 188.968 90.607 192.39C89.4158 194.358 88.0882 196.233 86.0304 197.41C83.1074 199.082 81.2077 201.238 79.5555 204.114C78.5275 205.903 78.5148 208.013 77.4486 209.774Z" fill="#EBDCC1"/>
<path d="M113.532 227.663C109.524 230.745 108.321 234.335 105.764 238.561C104.095 239.614 100.474 239.726 98.5487 239.7C94.6574 239.649 91.1291 238.338 88.0462 235.995C83.8022 232.771 86.4318 227.258 87.8561 223.084C89.249 219.003 92.3119 215.948 95.3739 213.105C97.7701 210.881 99.9966 203.557 104.199 203.662C107.159 203.736 110.169 201.256 112.397 199.549C115.247 197.367 118.81 195.678 121.013 192.936C121.776 191.987 124.844 187.584 125.918 187.443C126.741 187.335 127.521 187.099 128.375 187.553C129.642 188.226 130.891 187.419 132.139 186.976C134.707 186.066 137.243 185.547 139.719 184.35C142.18 183.161 145.034 183.914 147.5 184.675C150.119 185.483 152.888 185.888 155.462 186.766C159.736 188.225 163.842 188.96 168.241 189.912C170.153 190.325 173.646 191.672 174.892 193.325C175.973 194.759 174.386 196.514 173.596 197.741C172.253 199.827 169.108 199.701 166.966 199.642C163.058 199.534 159.258 198.968 155.36 198.812C153.799 198.749 150.882 198.378 149.424 199.017C145.2 200.87 144.53 205.438 141.676 208.577C138.671 211.882 135.433 213.954 131.506 215.906C129.203 217.05 126.663 218.4 124.735 220.143C123.655 221.12 121.881 220.803 120.616 221.601C119.297 222.433 119.13 224.003 118.015 224.972C116.749 226.072 114.889 226.618 113.532 227.663Z" fill="#C2AC85"/>
<path d="M109.922 148.856C126.933 155.333 141.686 166.552 155.437 177.821C152.98 177.622 147.967 177.559 145.386 177.064C140.556 176.138 136.884 173.718 132.605 171.128C125.173 166.631 117.505 162.638 110.061 158.133C107.689 156.697 105.695 154.843 103.342 153.418C101.746 152.453 99.9968 151.655 98.8239 150.18C97.5085 148.526 97.611 146.161 97.1255 144.186C96.6203 142.132 97.6742 142.863 98.9123 143.612C102.582 145.833 106.252 146.635 109.922 148.856Z" fill="#9E8559"/>
<path d="M118.848 179.771C137.087 190.809 150.133 195.318 158.007 197.441M74.3498 135.267C72.6824 139.866 72.8368 141.456 76.2477 146.885C79.6585 152.314 78.9147 157.847 75.591 165.183C72.2673 172.519 71.4504 172.024 72.7193 179.149C73.9883 186.273 70.9004 190.761 69.2441 193.497M77.065 183.648C87.2723 195.06 117.001 214.174 136.738 214.901M158.007 197.441C162.124 198.551 164.827 199.008 166.119 199.405C169.884 200.562 176.427 194.053 175.81 187.697C175.769 187.279 175.665 186.836 175.498 186.368M158.007 197.441C148.459 200.309 147.417 200.8 143.608 207.094C139.799 213.389 138.864 214.319 132.07 216.937C125.277 219.556 123.065 223.826 120.249 228.479M87.8472 144.931C83.1702 140.979 79.6765 137.369 77.7465 133.958C71.635 123.155 100.875 132.625 129.467 149.929C157.907 167.839 173.119 179.702 175.498 186.368M141.421 179.971C156.03 186.569 178.126 196.165 175.498 186.368M66.5942 197.876C65.3635 198.926 64.4251 201.05 64.1098 201.981C62.8157 202.07 59.9837 202.774 59.0091 204.877C57.7908 207.504 53.0325 207.99 51.1517 211.712C49.4589 211.436 46.6657 212.363 45.672 214.005M45.672 214.005C44.5238 214.058 41.4583 214.82 40.4056 217.174C38.3816 217.445 34.4992 217.712 32.0514 224.831C29.6036 231.949 38.0479 245.659 51.8063 257.351C65.5647 269.043 77.664 274.87 96.1666 279.337M45.672 214.005C42.8564 218.657 41.4388 227.147 54.9727 239.824C68.5065 252.502 82.6776 259.209 89.4964 261.466M116.867 236.527C117.293 238.281 116.446 239.886 115.968 240.47C116.363 241.457 116.855 243.923 115.662 245.893C116.74 248.415 116.339 251.538 114.907 253.288C116.258 255.975 114.969 261.178 110.969 262.87C107.769 264.223 101.728 263.385 99.1084 262.796M115.598 265.671C116.461 267.689 116.045 270.055 115.73 270.986C116.287 272.32 117.211 275.547 116.455 277.781M110.33 148.309L103.219 144.967C88.9861 138.304 97.7757 148.403 104.303 153.395C110.578 158.19 127.218 169.506 143.574 176.414C164.019 185.048 158.643 179.792 154.191 174.854L149.105 170.815M27.8134 221.909C24.2119 223.094 19.8328 224.77 18.1294 227.584" stroke="#3E3939" stroke-width="5" stroke-linecap="round" stroke-linejoin="round"/>
<path d="M151.504 168.993C149.003 169.987 146.506 170.995 144.007 171.988C138.736 172.391 124.431 164.237 120.719 161.487C113.269 155.966 110.712 155.707 112.32 153.051C112.087 151.759 111.92 150.479 111.897 149.166C111.779 142.388 109.882 135.363 112.089 128.706C113.064 125.766 113.972 122.825 114.906 119.865C116.063 116.196 117.691 113.113 119.671 109.841L119.676 109.833C120.87 107.859 122.054 105.903 124.131 104.734C126.927 103.161 129.831 102.565 132.934 101.93C137.558 100.984 141.854 100.003 146.57 99.7404C148.317 99.6429 150.03 99.6829 150.654 97.7443C151.202 96.0432 151.346 94.7585 152.723 93.4496C154.159 92.0835 156.933 92.0199 158.776 91.5667C161.432 90.9137 162.861 92.1901 165.109 93.5506C167.14 94.7796 168.577 95.8474 169.889 97.8469C170.9 99.3887 170.006 101.934 169.383 103.464C168.68 105.189 168.062 107.107 167.978 108.982C167.924 110.185 169.45 111.559 169.972 112.534C171.053 114.553 172.367 116.534 173.698 118.401C175.061 120.312 176.274 122.639 177.231 124.785C177.956 126.41 178.904 127.876 179.927 129.327C180.314 129.875 181.008 130.361 181.323 130.925C182.07 132.259 181.824 134.483 181.877 135.95C181.956 138.12 182.1 140.274 182.089 142.447C182.071 146.07 180.4 148.748 178.457 151.701C175.938 155.53 172.345 158.804 168.354 161.011C165.594 162.537 163.021 164.258 159.999 165.198C156.995 166.133 154.388 167.847 151.504 168.993Z" fill="white"/>
<path d="M162.568 107.46C162.318 109.487 163.088 111.617 163.808 113.476C166.231 114.942 167.77 116.08 168.747 118.834C169.548 121.092 172.773 122.861 172.826 125.211C172.873 127.291 173.243 129.261 172.868 131.332C172.64 132.595 172.749 134.085 172.876 135.367C173.49 141.526 170.584 147.61 167.049 152.659C165.536 154.82 163.133 156.926 160.901 158.335C158.229 160.021 156.271 162.481 153.879 164.515C151.707 166.363 149.625 168.287 146.779 168.987C144.701 169.498 142.625 169.599 140.628 170.449C139.302 171.014 137.659 171.003 136.257 171.347C135.634 171.501 133.97 171.604 133.396 171.256C130.489 169.497 128.057 167.042 125.209 165.208C124.272 164.605 122.767 164.033 122.818 162.667C122.875 161.136 123.14 159.702 123.073 158.164C122.932 154.94 121.622 151.473 122.52 148.27C123.714 144.008 124.904 139.82 126.582 135.702C128.554 130.859 130.451 125.494 133.611 121.244C134.917 119.486 136.889 117.854 138.517 116.416C139.528 115.522 140.853 114.2 142.063 113.601C143.273 113.002 144.406 112.219 145.572 111.552C146.412 111.071 147.371 110.986 148.154 110.564C149.823 109.663 150.827 108.128 152.494 107.175C153.624 106.529 154.372 105.424 155.587 104.774C156.615 104.224 157.702 103.673 158.707 103.098C159.825 102.459 161.949 103.48 162.684 104.492C163.325 105.376 162.687 106.497 162.568 107.46Z" fill="#EBDCC1"/>
<path d="M130.484 159.533C128.458 159.853 128.024 160.288 127.373 162.016C132.203 167.267 139.034 170.044 141.846 170.775C144.9 168.717 147.921 166.585 151.195 164.918C154.077 163.45 157.493 161.801 159.826 159.538C161.739 157.682 162.978 155.439 164.345 153.181C167.013 148.772 170.007 144.512 171.763 139.654C173.628 134.495 173.878 128.572 172.299 123.306C170.934 118.749 169.538 114.893 165.31 112.335C163.535 111.26 160.29 112.399 160.049 114.764C159.424 120.879 159.346 127.081 157.903 133.137C157.317 135.601 155.449 138.406 153.909 140.412C152.704 141.981 151.076 141.981 149.373 142.633C149.008 142.773 149.047 144.04 148.891 144.5C148.466 145.76 148 146.878 147.153 148.006C145.832 149.766 144.111 151.983 141.842 152.541C140.698 152.822 139.903 152.325 139.113 153.48C138.298 154.673 138.846 154.857 137.001 155.464C134.916 156.15 132.336 155.393 132.707 158C132.931 159.569 131.959 159.299 130.484 159.533Z" fill="#C2AC85"/>
<g style="mix-blend-mode:multiply">
<path d="M112.826 150.79C110.48 150.372 110.324 153.128 110.745 154.84C110.684 155.597 112.08 157.412 112.459 158.012C113.208 159.199 113.789 160.088 115.004 160.919C116.105 161.672 117.006 162.598 118.166 163.301C119.449 164.077 120.734 164.801 122.054 165.504C124.588 166.851 127.009 168.008 129.805 168.757C131.675 169.258 133.577 169.684 135.406 170.329C136.553 170.735 137.879 171.019 138.949 171.601C139.968 172.155 140.935 172.566 142.04 172.907C142.815 173.146 143.99 173.652 144.816 173.449C145.749 173.22 146.376 172.5 147.178 172.038C148.025 171.55 148.873 171.019 149.555 170.311C150.461 169.369 151.23 167.936 151.374 166.649C151.491 165.611 149.454 164.681 148.673 164.336C147.042 163.614 145.357 162.899 143.652 162.373C142.62 162.055 141.557 161.864 140.513 161.584C139.69 161.364 138.848 161.028 138.018 160.868C137.011 160.674 136.201 160.161 135.287 159.727C134.415 159.313 133.47 159.028 132.626 158.557C131.723 158.054 130.683 157.835 129.794 157.32C129.183 156.965 128.641 156.463 128.005 156.079C125.964 154.843 123.996 153.089 121.772 152.183C120.486 151.659 118.832 151.493 117.461 151.408C115.901 151.312 114.363 151.064 112.826 150.79Z" fill="#C2AC85"/>
</g>
<path d="M165.916 101.473C164.13 102.477 162.619 104.165 161.541 105.873L158.611 104.1C156.824 103.019 154.32 102.082 152.939 100.519C150.78 98.0757 153.603 93.8446 155.662 92.0735C160.062 88.2899 165.024 90.5373 168.325 94.4181C168.743 94.9096 170.302 96.707 169.967 97.3383C169.516 98.186 168.833 98.8766 168.228 99.6123C167.443 100.567 166.936 100.9 165.916 101.473Z" fill="#9E8559"/>
<path d="M140.119 173.097C140.597 173.075 141.871 172.758 142.309 171.78C137.034 171.698 130.912 169.899 125.987 166.918M152.927 167.013C153.963 166.455 155.022 165.846 156.085 165.194M127.98 105.745C130.077 104.427 133.594 102.791 137.788 101.807M167.191 110.985C172.252 115.832 174.423 121.178 175.414 127.301C176.948 136.78 174.623 145.477 170.905 151.621C167.765 156.809 161.856 161.652 156.085 165.194M167.191 110.985C171.691 104.062 170.452 105.596 172.245 102.635C174.037 99.6728 170.207 96.3045 167.145 94.246C164.083 92.1876 159.052 89.9294 157.559 92.3975M167.191 110.985C161.926 111.227 154.366 108.675 151.85 101.83C146.982 100.482 142.037 100.811 137.788 101.807M153.357 99.3398C154.205 97.3113 155.467 95.8529 157.559 92.3975M111.437 156.206C110.876 155.089 111.308 153.485 112.971 152.781M111.047 151.616C110.688 150.778 110.861 149.794 110.992 149.407C110.76 148.852 110.376 147.511 110.691 146.582C110.424 145.488 110.039 141.524 110.821 139.976C110.459 145.023 117.173 150.505 117.877 150.931M110.653 137.698C110.631 135.094 111.249 128.483 113.901 122.875M113.901 122.875C116.553 117.266 120.115 112.437 121.564 110.723M113.901 122.875C111.327 131.127 122.15 142.484 133.928 149.132M157.559 92.3975C157.983 94.3405 161.304 97.441 164.377 98.8198M156.085 165.194C149.614 166.796 143.986 165.771 138.635 163.493M137.788 101.807C133.909 105.377 142.179 111.343 145.044 113.077" stroke="#3E3939" stroke-width="5" stroke-linecap="round" stroke-linejoin="round"/>
<path d="M127.419 130.85C127.327 130.346 127.536 130.269 127.749 129.85C127.961 129.431 127.961 129.179 127.919 128.437C127.877 127.695 128.636 128.294 129.369 127.75C130.133 127.205 129.189 126.356 128.634 125.561C128.079 124.766 127.642 125.618 127.478 126.095C127.315 126.573 126.734 127.16 126.429 127.58C126.123 127.999 125.896 128.522 125.23 128.427C125.035 128.4 124.775 128.21 124.682 128.464C124.589 128.717 124.823 129.323 125.398 129.628C125.993 129.947 126.493 128.544 126.999 128.27C127.504 127.996 126.417 129.912 126.104 130.258C125.791 130.603 126.497 131.485 127.136 131.745C127.511 131.903 127.642 131.723 127.563 131.368L127.419 130.85ZM127.43 130.835C128.237 131.285 128.682 130.967 129.153 130.53L127.43 130.835ZM127.43 130.835C127.496 130.997 127.52 131.175 127.574 131.353L127.43 130.835ZM129.153 130.53C129.532 130.095 130.431 129.281 131.213 129.805C131.996 130.33 132.15 130.581 132.24 131.426C132.34 132.257 131.783 133.022 131.105 133.491C130.426 133.96 129.95 134.531 128.912 133.935C127.895 133.354 128.111 132.846 128.202 132.132C128.255 131.849 128.322 131.714 128.415 131.461L129.153 130.53ZM129.153 130.53C128.904 130.83 128.655 131.131 128.446 131.46L129.153 130.53ZM127.554 131.338C127.867 131.497 128.173 131.583 128.446 131.46L127.554 131.338ZM124.999 121.923C124.746 121.555 124.52 121.024 124.582 120.77C124.657 120.457 124.953 120.008 125.326 120.463C125.689 120.934 126.069 121.969 126.524 122.439C126.979 122.908 128.171 124.259 127.587 124.43C127.003 124.601 126.681 123.655 126.188 123.869C125.8 124.023 125.496 124.398 125.105 124.641C124.798 124.852 124.56 125.39 124.587 125.732C124.642 126.162 124.343 127.161 124.18 126.628C124.016 126.095 123.384 125.405 123.581 125.136C123.777 124.866 123.914 125.309 124.154 124.98C124.339 124.725 124.636 124.275 124.929 123.915C125.091 123.735 125.653 123.341 125.585 122.971C125.551 122.555 125.194 122.203 124.999 121.923ZM128.137 126.369C128.041 126.712 127.93 126.907 128.379 127.005C128.829 127.103 129.033 126.907 128.752 126.45C128.472 125.993 128.255 125.996 128.137 126.369ZM130.735 130.673C131.612 131.152 131.397 131.615 131.181 132.123C130.975 132.616 130.795 133.242 130.146 133.251C129.507 133.244 129.285 132.876 129.203 132.357C129.121 131.838 129.663 131.43 129.823 131.041C129.983 130.653 130.462 130.543 130.735 130.673ZM133.437 132.644C133.814 132.253 134.025 132.131 134.686 132.613C135.326 133.08 135.463 133.524 135.143 134.048C134.822 134.572 134.186 134.521 133.463 134.545C132.741 134.569 132.313 135.198 132.284 135.659C132.255 136.12 132.803 137.599 132.314 137.219C131.824 136.839 131.355 135.968 131.602 135.46C131.849 134.952 132.351 134.515 132.615 134.11C132.879 133.706 133.05 133.302 133.024 132.916C133.03 132.53 133.297 132.794 133.437 132.644ZM134.205 133.273C134.715 133.667 134.548 134.234 134.173 134.328C133.798 134.422 133.556 134.291 133.487 133.965C133.438 133.654 134.113 133.526 134.205 133.273ZM133.746 136.725C134.295 136.896 134.459 136.924 134.796 136.503C135.101 136.083 136.409 135.339 136.429 134.848C136.449 134.358 136.076 134.155 136.364 133.928C136.631 133.687 137.706 133.346 137.668 133.777C137.63 134.209 136.884 134.813 137.186 135.239C137.488 135.666 138.036 136.387 138.442 136.04C138.868 135.708 138.66 135.488 139.486 135.195C140.323 134.887 140.081 135.514 139.532 136.1C138.983 136.687 138.26 137.216 137.96 137.755C137.66 138.293 137.848 138.499 137.942 138.958C138.037 139.418 137.815 140.059 137.191 139.696C136.567 139.333 136.625 138.663 136.892 138.17C137.17 137.661 137.884 137.102 137.094 136.503C136.293 135.919 136.18 136.411 135.631 136.745C135.081 137.079 134.772 137.588 134.538 138.037C134.303 138.485 134.048 137.657 133.93 137.525C133.791 137.378 133.44 136.64 133.746 136.725ZM140.006 138.144C140.533 137.84 141.406 137.146 141.903 137.852C142.4 138.559 141.743 138.998 141.456 139.477C141.169 139.956 140.492 140.886 139.713 140.02C138.965 139.153 139.392 138.524 140.006 138.144ZM140.466 138.733C140.508 138.465 141.152 137.832 141.474 138.274C141.796 138.715 141.338 139.093 140.963 139.187C140.557 139.281 140.364 139.209 140.466 138.733Z" stroke="#3E3939" stroke-width="2" stroke-linecap="round" stroke-linejoin="round"/>
<path d="M165.985 139.37C165.903 139.471 165.838 139.551 165.785 139.615M165.39 143.487C165.289 143.492 164.983 143.443 164.723 143.412C164.463 143.382 164.393 143.322 164.578 142.936C164.764 142.551 164.911 142.565 164.701 142.155C164.541 141.841 164.571 141.949 164.738 141.869M164.738 141.869C164.79 141.844 164.854 141.802 164.93 141.725C165.253 141.396 165.079 141.278 164.994 141.135C164.97 141.096 164.923 141.046 164.874 140.994M164.738 141.869C165.025 141.846 165.556 141.73 165.39 141.453C165.184 141.105 164.937 141.159 164.874 140.994M164.874 140.994C164.747 140.855 164.613 140.694 164.904 140.635C165.037 140.609 165.192 140.556 165.335 140.488M165.335 140.488C165.624 140.35 165.862 140.152 165.765 139.988C165.639 139.777 165.449 140.022 165.785 139.615M165.335 140.488C165.64 140.477 166.053 140.647 166.134 140.203C166.216 139.758 165.509 139.967 165.785 139.615M166.2 139.151C166.269 139.19 166.449 139.081 166.614 138.335M145.824 137.99C145.726 138.068 145.618 138.156 145.498 138.256C145.225 138.486 144.989 138.61 144.79 138.695C144.451 138.838 144.219 138.865 144.095 139.096C144.002 139.267 144.116 139.35 144.253 139.361C144.389 139.373 144.626 139.407 144.776 139.484C144.925 139.562 144.955 139.728 145.216 139.758C145.154 139.132 145.111 138.788 145.609 138.444M145.824 137.99C145.939 137.898 146.117 137.773 146.205 137.7C146.5 137.453 146.65 137.466 146.685 137.112C146.74 136.565 146.815 136.225 146.792 135.954C147.031 136.357 147.008 136.651 146.966 137.351C146.889 137.823 146.716 138.88 146.633 139.331C146.569 139.689 146.562 139.886 146.785 140.128C147.175 140.551 147.499 140.746 147.643 140.698C147.787 140.65 147.592 141.078 146.883 140.816C146.365 140.625 146.044 140.587 145.918 140.388C145.872 140.314 145.859 140.224 145.918 140.125C146.304 139.483 146.687 138.887 146.074 138.818C145.987 138.8 145.918 138.763 145.849 138.752C145.422 138.61 145.662 138.198 145.824 137.99ZM150.478 136.103C150.685 136.45 150.703 136.596 150.493 136.941C150.283 137.286 149.9 137.282 149.647 137.671C149.394 138.06 148.945 138.584 148.952 139.003C148.96 139.422 149.141 139.204 149.205 139.894C149.257 140.445 149.408 140.77 149.478 140.863M149.478 140.863C149.539 141.023 149.636 141.242 149.453 141.414C149.031 141.81 148.92 142.088 149.543 141.682C150.384 141.135 149.853 140.284 149.634 139.916C149.415 139.549 149.49 139.21 149.328 138.588C149.165 137.966 149.104 138.619 150.15 137.586C151.196 136.553 151.016 136.309 150.652 135.696C150.628 135.425 150.047 136.772 149.784 137.204C149.522 137.635 148.929 138.731 148.375 139.952C147.821 141.172 146.93 141.129 147.762 141.364C148.428 141.552 148.659 141.359 148.691 141.238C148.479 140.765 148.151 140.738 148.464 140.222C149.079 139.399 148.976 139.799 149.118 140.212C149.199 140.446 149.397 140.655 149.478 140.863ZM154.164 141.831C154.028 142.068 153.572 141.417 152.923 141.258C152.275 141.098 151.506 141.028 151.447 140.695C151.527 140.482 151.986 140.671 152.237 140.743C152.487 140.816 153.371 141.196 153.787 141.198C154.204 141.2 154.3 141.594 154.164 141.831ZM154.164 141.831C154.407 141.89 154.512 141.765 154.288 141.574M151.398 142.648C151.519 142.328 152.575 139.742 152.717 139.4M154.773 139.482C154.64 139.528 154.501 139.578 154.37 139.62C154.399 140.017 154.373 140.438 154.003 140.979C153.633 141.52 153.746 141.7 153.711 141.768C153.677 141.836 153.503 142.406 153.217 142.797C152.93 143.187 152.957 143.291 153.508 143.287C154.06 143.283 153.641 142.988 153.751 142.416C153.861 141.845 154.27 141.428 154.383 140.92C154.495 140.411 154.697 140.402 155.23 139.728C155.649 139.198 155.256 139.313 154.773 139.482ZM154.773 139.482C154.66 139.816 154.917 139.752 154.341 140.733C153.764 141.714 153.172 143.071 153.233 143.174M155.513 140.785C155.246 140.335 155.819 140.31 156.779 139.889C157.163 139.662 156.689 140.145 156.348 140.559C156.006 140.972 155.577 140.884 156.078 141.326C156.578 141.767 156.337 141.587 156.035 141.894C155.734 142.201 156.058 142.166 155.628 142.605C155.197 143.043 155.243 143.062 155.775 143.143C156.308 143.224 155.902 143.473 155.492 143.597C155.081 143.72 154.859 143.289 154.894 143.057C154.928 142.825 155.539 142.63 155.445 142.298C155.352 141.967 155.119 142.04 155.55 141.601C155.98 141.162 155.781 141.234 155.513 140.785ZM155.513 140.785C155.441 140.675 155.902 140.356 156.141 140.211C155.838 140.749 155.831 141.086 155.711 141.699C155.592 142.311 155.26 142.848 155.181 143.191C155.102 143.534 155.333 143.331 155.382 143.413M157.642 142.85C157.757 142.404 158.244 141.711 158.095 141.403C157.947 141.095 157.58 140.944 157.988 140.758C158.553 140.543 158.829 140.426 158.82 140.993C158.811 141.56 158.682 141.691 158.159 142.323C157.635 142.955 158.001 143.337 158.281 143.807C158.56 144.277 159.049 144.632 159.444 144.657C159.839 144.681 158.517 145.076 158.014 144.406C157.694 143.979 157.584 143.645 157.576 143.343M157.642 142.85C157.47 143.123 157.061 143.723 156.801 143.936C156.475 144.203 156.637 144.3 157.02 144.304C157.402 144.308 157.313 144.333 157.251 143.937C157.201 143.62 157.447 143.409 157.576 143.343M157.642 142.85C157.6 143.011 157.571 143.172 157.576 143.343M160.414 141.797C160.404 141.635 160.49 141.474 160.818 141.385C161.306 141.254 161.164 141.51 161.096 141.735M160.414 141.797C160.422 141.918 160.483 142.041 160.536 142.133M160.414 141.797L160.755 141.766M161.096 141.735C161.072 141.813 161.056 141.887 161.079 141.94C161.112 142.017 161.09 142.13 161.067 142.269M161.096 141.735L160.755 141.766M160.536 142.133C160.554 142.164 160.571 142.191 160.585 142.214C160.694 142.398 160.859 142.558 160.473 143.247C160.087 143.935 160.104 144.312 160.538 144.46C160.374 144.069 160.428 144.277 160.68 143.594C160.931 142.912 161.292 143.692 161.703 144.093C162.076 144.457 162.512 143.732 162.507 142.848M160.536 142.133L160.802 142.201M161.067 142.269C161.029 142.504 160.987 142.81 161.199 143.13C161.537 143.639 161.734 144.029 162.105 143.257C162.476 142.486 162.247 142.391 162.114 141.935C161.982 141.48 162.042 141.058 162.275 140.984C162.508 140.911 162.542 141.434 162.943 142.108C163.345 142.782 163.549 143.067 163.946 143.154C164.058 143.178 164.066 143.225 164.007 143.255M161.067 142.269L160.802 142.201M160.755 141.766L160.802 142.201M164.007 143.255C163.854 143.332 163.255 143.296 162.813 142.47C162.2 141.323 162.379 141.567 162.491 142.569C162.502 142.663 162.507 142.756 162.507 142.848M164.007 143.255C163.829 143.306 163.12 143.372 162.507 142.848M170.14 141.47C170.038 142.46 170.226 142.14 170.557 142C170.889 141.859 171.074 141.473 170.977 140.554C170.951 140.104 170.963 140.468 170.706 140.27C170.45 140.072 170.243 140.479 170.14 141.47ZM170.14 141.47C170.138 141.931 169.857 142.451 170.415 142.342C170.973 142.233 170.926 141.573 171.062 140.697M170.14 141.47C170.195 140.922 170.363 139.832 170.598 139.855M152.884 139.099C153.068 139.175 153.383 139.182 152.853 139.919C152.323 140.656 152.296 141.076 152.163 141.376C152.03 141.676 151.886 143.003 151.397 142.879C150.908 142.754 151.415 142.27 151.577 141.612C151.74 140.954 152.145 140.705 152.329 140.026C152.513 139.347 152.651 138.975 152.884 139.099ZM167.253 140.047C167.307 141.01 167.374 141.007 167.275 141.829C167.177 142.652 167.313 142.939 166.881 143.085C166.448 143.23 166.503 143.207 166.867 143.295C167.231 143.384 167.372 143.503 167.442 142.808C167.513 142.112 167.766 142.248 168.132 142.63C168.498 143.012 168.9 143.455 169.161 143.255C169.423 143.054 169.27 142.914 168.755 142.979C168.241 143.045 168.008 142.363 167.817 141.868C167.626 141.373 167.97 141.253 168.195 140.991C168.42 140.729 168.69 140.486 168.572 140.114C168.455 139.742 167.825 139.497 167.253 140.047ZM167.488 140.268C167.666 140.742 167.35 141.49 167.781 141.052C168.212 140.613 168.426 140.624 168.351 140.208C168.277 139.792 167.875 139.873 167.488 140.268ZM171.492 139.207C171.589 139.37 172.966 138.952 173.081 139.261C173.196 139.571 172.57 139.868 172.507 140.228C172.444 140.587 171.645 140.581 172.055 140.689C172.465 140.796 173.347 140.391 173.023 140.196C172.699 140.001 172.639 140.731 172.737 140.14C172.835 139.548 173.339 139.229 173.662 138.899C173.985 138.57 174.601 137.745 173.738 138.33C173.047 138.797 172.316 138.827 172.036 138.784C171.767 138.796 171.28 138.897 171.492 139.207Z" stroke="#3E3939" stroke-width="2" stroke-linecap="round" stroke-linejoin="round"/>
<path d="M103.456 130.149C105.01 131.225 102.736 127.602 104.459 127.602C106.755 126.454 104.003 127.073 105.952 125.124C107.811 123.266 108.766 122.704 109.526 120.169C109.945 118.775 113.678 116.979 114.412 115.71C115.34 114.103 118.26 110.23 118.89 108.481C120.06 105.231 128.291 104.191 128.954 100.873C129.414 98.5725 128.643 95.9842 129.339 93.7571C130.267 90.7893 134.706 91.788 136.394 89.1627C137.838 86.9171 139.05 83.1467 141.244 83.5853C144.931 84.3227 148.578 84.7009 152.229 85.8718C154.594 86.6301 156.961 87.8548 159.069 89.1627C162.846 91.5066 167.776 94.3045 169.242 98.8644C170.184 101.794 171.031 105.402 171.08 108.481C171.112 110.48 171.176 112.531 171.059 114.528C170.913 117.006 169.788 119.574 169.242 121.986C167.94 127.747 167.282 133.79 165.139 139.338C162.936 145.037 160.036 150.612 158.086 156.391C156.165 162.082 155.194 168.579 158.983 173.401C160.267 175.035 161.537 176.412 163.365 177.44C165.345 178.553 166.751 177.747 168.751 177.247C170.732 176.752 172.417 175.053 174.35 174.341C176.076 173.705 178.232 172.351 179.715 171.264C181.985 169.599 183.543 167.156 184.909 164.768C186.195 162.517 188.207 160.65 189.354 158.357C190.914 155.238 192.153 151.946 193.586 148.762C194.948 145.735 196.348 142.183 198.395 139.552C200.228 137.195 201.37 134.459 202.242 131.624C203.616 127.158 206.123 122.476 208.269 118.332C214.404 106.487 222.008 96.4707 231.886 87.5814C236.034 83.8492 238.758 79.3538 241.953 74.9307C245.316 70.2745 246.513 64.498 249.733 59.7585C252.152 56.1974 256.102 54.4016 256.102 49.9285C256.102 45.9221 259.439 43.0296 261.488 39.8422C268.044 29.6457 251.56 25.8622 244.903 24.3494C241.945 23.6774 238.504 23.1721 235.477 23.0245C232.799 22.8939 230.198 23.128 227.548 22.6185C222.513 21.6504 217.502 20.219 212.571 18.8103L212.437 18.772C205.803 16.8769 199.185 14.9419 192.624 12.8099C187.042 10.996 181.827 8.25918 176.124 6.65557C172.677 5.68603 168.961 6.0786 165.395 6.0786C163.601 6.0786 162.687 7.44784 161.078 7.61719C156.483 8.10076 153.457 14.0746 149.836 16.3786C145.182 19.3397 139.355 22.2704 136.071 26.9351C132.938 31.3877 129.316 35.4375 126.24 39.9704C124.927 41.9044 122.283 43.5148 120.469 44.9281C115.87 48.5119 112.302 52.3103 109.141 57.2369C105.981 62.162 104.653 68.694 103.542 74.3751C102.78 78.27 102.811 82.1378 102.58 86.0641C102.434 88.5503 101.476 91.2842 100.763 93.6503C99.241 98.7055 96.1354 104.209 96.0612 109.549C96.0081 113.372 95.7502 118.146 96.9161 121.772C97.2767 122.894 99.4125 126.223 100.293 126.773C101.538 127.551 102.21 129.287 103.456 130.149Z" fill="white"/>
<path d="M167 91.286V102.408C165.499 99.4073 162.153 97.3403 160.069 94.6623C159.214 93.5625 157.723 92.9511 156.891 91.8818C155.81 90.493 154.959 89.3084 153.47 88.2848C151.401 86.8628 149.313 84.1362 146.539 84.1362C144.472 84.1362 141.603 84.3425 140.204 86.1222C138.626 88.1302 137.51 90.3125 136.187 92.4776C134.241 95.6606 128.752 98.2745 127.536 101.92C125.711 107.394 121.334 104.759 118.72 109.985C117.401 112.622 115.709 113.422 114.018 116.377C112.327 119.332 111.318 121.274 110.513 123.356C109.708 125.439 109.376 126.949 108.596 129.815C107.816 132.682 102.465 132.774 101.643 129.815C101.238 128.355 100.425 125.671 101.643 124.453C103.937 122.16 106.587 120.482 108.596 117.899C111.663 113.958 109.41 109.133 112.26 105.188C114.889 101.55 117.227 97.1777 117.337 92.5659C117.383 90.6249 118.763 88.9287 119.235 87.0932C119.645 85.5012 120.32 83.8239 121.089 82.3708C122.717 79.2976 125.591 78.0113 128.461 76.5009C131.431 74.9382 135.46 75.0003 138.791 75.0003C144.842 75.0003 151.482 75.1437 157.067 77.7808C159.86 79.0993 165.998 80.5963 166.205 84.5334C166.325 86.7982 167 89.0016 167 91.286Z" fill="#F3DDC8"/>
<path d="M169.998 168.569C168.655 171.002 165.729 172.027 164 174.154C164.875 175.035 168.475 175.066 169.698 174.954C172.329 174.713 174.484 172.723 176.955 172.101C178.417 171.733 180.195 170.688 181.543 170.018C182.707 169.439 183.512 168.701 184.527 167.935C185.192 167.433 186.028 167.333 186.686 166.803C189.217 164.764 190.485 163.295 190.989 159.996C191.514 156.559 192.943 153.065 194.408 149.943C195.781 147.015 197.109 144.061 198.531 141.158C198.956 140.289 199.681 139.199 199.895 138.23C200.626 134.917 202.318 131.637 203.734 128.569C204.911 126.018 206.491 123.402 208.007 121.037C211.6 115.431 212.926 108.961 217.573 103.936C221.34 99.862 223.931 94.8906 227.649 90.7735C229.508 88.7149 231.995 87.1122 233.691 84.9169C234.924 83.321 236.037 81.6647 237.38 80.1623C238.685 78.7029 239.377 76.7176 240.648 75.1963C242.809 72.6111 244.591 69.4479 246.061 66.4265C247.333 63.8125 249.17 61.5154 250.305 58.8341C251.692 55.5551 253.107 52.4863 254.953 49.4455C256.277 47.2642 257.993 45.3521 259.271 43.1362C261.048 40.055 264.22 35.0078 262.51 31.2419C261.644 29.3353 259.756 28.7666 257.801 28.2533C251.294 26.5442 244.178 22.7861 237.41 24.3892C235.506 24.8402 233.145 25.4803 231.592 26.759C227.206 30.372 224.554 35.0961 221.501 39.7702C218.771 43.9498 216.871 48.1038 215.279 52.8267C213.836 57.1073 211.185 60.8202 209.611 65.0681C208.399 68.3403 206.915 71.378 204.903 74.2302C203.505 76.2132 202.081 78.1994 201.44 80.5849C201.236 81.3421 201.244 81.4392 200.855 81.9434C200.408 82.5212 200.485 83.1414 199.835 83.6792C199.004 84.3676 198.084 84.9689 197.196 85.5811C195.55 86.717 194.637 87.7385 194.093 89.6867C193.444 92.008 192.953 94.3282 192.668 96.7206C192.454 98.5153 192.437 100.335 192.188 102.124C192.008 103.423 191.598 104.655 191.544 105.973C191.46 107.988 191.313 108.619 189.699 109.762C189.026 110.239 188.866 111.141 188.44 111.815C186.851 114.328 186.439 117.972 186.116 120.902C185.808 123.692 185.861 126.496 185.861 129.324C185.861 133.847 185.113 137.833 183.702 142.094C182.663 145.232 181.051 148.126 179.594 151.06C179.168 151.916 178.427 152.798 178.319 153.777C178.285 154.081 178.437 154.648 178.169 154.863C177.702 155.239 177.152 155.555 176.745 156.011C176.158 156.667 176.145 157.986 176.145 158.803C176.145 159.414 174.927 159.462 174.466 159.754C172.731 160.854 170.027 162.91 169.458 164.916C169.155 165.984 170.207 165.824 170.207 166.697C170.207 167.36 170.31 168.003 169.998 168.569Z" fill="#F3DDC8"/>
<path d="M264.791 30.534C263.636 32.727 261.221 37.533 259.347 41.9057M259.347 41.9057C258.926 42.8866 258.533 43.8457 258.187 44.7486C255.829 50.9083 243.092 72.704 237.903 80.2852C232.714 87.8663 223.279 97.8165 218.09 103.029C212.901 108.241 207.712 122.455 203.938 129.089C200.164 135.722 193.088 154.201 190.729 159.413C190.037 160.942 188.436 162.773 186.484 164.611C183.112 167.785 178.695 170.98 176.106 172.68C169.97 176.532 164.769 175.061 161.01 172.084M259.347 41.9057C266.207 37.1675 275.641 33.8507 278 33.8507M132.234 75.547C134.65 78.2155 136.731 79.0202 142.613 81.7066M121.856 93.5521C125.87 93.5521 128.669 93.2473 132.234 90.9947M142.613 81.7066C148.219 84.2671 157.58 88.6737 161.954 92.6045C166.671 97.3427 168.558 104.45 167.614 118.191C166.671 131.932 163.369 141.408 161.01 148.515C157.237 157.044 154.878 165.573 158.652 169.837C159.357 170.635 160.146 171.399 161.01 172.084M142.613 81.7066C138.121 86.4232 134.955 89.2759 132.234 90.9947M132.234 90.9947C128.932 98.2904 128.966 103.056 128.966 104.542M102.515 130.984C97.3263 121.981 95.9111 121.034 97.798 109.188C99.3076 99.7118 103.144 85.971 104.874 80.2852C105.975 71.5984 109.214 53.2774 113.365 49.4868C115.825 47.2402 119.028 44.7805 122.722 41.9057M136.48 30.534C131.519 35.0188 126.819 38.7175 122.722 41.9057M122.722 41.9057C121.856 36.2198 125.63 34.3245 140.254 22.9528C151.953 13.8555 163.369 6.52704 167.614 4M172.332 156.096C176.86 157.992 180.508 158.466 181.766 158.466M161.01 172.084C161.01 167.468 161.482 165.573 164.784 167.468C167.426 168.984 173.433 169.679 176.106 169.837M167.614 84.5496C166.482 78.1056 165.256 77.1264 164.784 77.4422M184.125 113.453C187.144 113.453 194.189 116.296 195.447 116.769M114.78 123.403C119.026 121.508 121.542 119.77 123.743 118.191" stroke="#3E3939" stroke-width="5" stroke-linecap="round" stroke-linejoin="round"/>
<path d="M162.512 134.965C163.091 135.073 163.23 134.688 163.359 134.905M163.359 134.905C163.488 135.122 164.547 134.985 164.456 135.636C164.365 136.286 163.932 136.239 163.541 136.323C163.229 136.391 163.194 136.317 163.216 136.271M163.359 134.905C163.348 135.064 163.329 135.308 163.306 135.551M163.216 136.271C163.161 136.521 163.061 136.941 162.956 137.316M163.216 136.271C163.247 136.133 163.279 135.843 163.306 135.551M162.956 137.316C162.878 137.594 162.797 137.847 162.73 137.987C162.66 138.133 162.587 138.308 162.504 138.473M162.956 137.316C163.068 137.281 163.157 137.306 163.251 137.386M167.107 136.631C167.279 135.932 166.99 135.879 166.6 135.718C166.21 135.557 165.933 134.968 166.002 134.898C166.017 134.429 166.446 135.212 166.537 135.364C166.627 135.516 167.066 135.697 167.268 135.665C167.469 135.634 167.822 135.485 167.616 135.694C167.41 135.904 167.208 137.295 167.004 137.817M173.314 134.458C173.641 134.822 174.013 135.942 173.518 136.098C173.022 136.254 172.922 136.147 172.852 135.66C172.783 135.172 172.682 134.508 172.93 134.43M162.5 134.944C162.195 135.358 162.909 135.014 163.088 135.006C163.267 134.998 163.172 135.827 162.955 136.327C162.738 136.828 162.659 137.745 162.455 138.267C162.251 138.789 162.075 138.864 161.892 139.05C162.168 139.038 162.354 138.771 162.504 138.473M163.306 135.551C163.806 135.286 164.363 135.312 164.139 135.784C163.916 136.256 163.445 136.038 163.399 136.085M163.251 137.386C163.337 137.461 163.428 137.584 163.545 137.75C163.787 138.096 164.068 138.506 164.572 138.796C164.194 138.971 163.858 138.407 163.651 138.059C163.445 137.712 163.523 137.541 163.251 137.386ZM163.251 137.386C163.114 137.627 162.772 138.182 162.504 138.473M149.876 129.671C150.284 129.429 150.918 128.888 150.243 129.855C149.703 130.628 148.727 132.167 148.306 132.84C148.234 132.925 148.114 133.036 148.208 132.799C148.327 132.504 149.205 131.261 149.585 130.665C149.965 130.068 150.306 129.651 149.876 129.671ZM152.67 130.66C152.705 130.903 152.433 130.693 152.266 130.968C152.098 131.243 151.87 132.033 151.819 132.503C151.768 132.974 151.759 133.576 151.458 133.813C151.158 134.049 150.075 133.897 149.998 133.522C149.922 133.146 150.911 133.882 151.226 133.422C151.54 132.962 151.5 132.585 151.594 132.001C151.687 131.417 151.941 130.67 152.222 130.524C152.503 130.377 152.649 130.438 152.67 130.66ZM154.688 132.196C154.949 132.697 155.147 133.647 154.542 134.298C153.937 134.949 152.765 136.317 152.478 135.773C152.191 135.229 152.475 134.346 152.685 133.958C152.895 133.57 153.263 132.706 153.92 132.142C154.577 131.577 154.582 131.956 154.688 132.196ZM154.308 132.793C154.514 133.14 154.465 133.923 154.007 134.389C153.55 134.855 152.973 135.617 152.797 135.134C152.62 134.652 152.869 134.329 153.109 133.805C153.349 133.282 153.959 132.207 154.308 132.793ZM157.688 133.778C157.456 133.944 157.287 133.907 157.171 133.712C157.055 133.516 156.542 133.829 156.345 134.239C156.148 134.649 155.602 135.833 156.213 136.118C156.823 136.402 156.408 136.755 156.106 136.68C155.804 136.604 155.419 136.02 155.592 135.321C155.764 134.622 156.027 134.075 156.631 133.669C157.235 133.263 157.58 133.225 157.688 133.778ZM159.316 134.351C159.154 135.005 158.695 135.716 159.074 135.922C159.454 136.128 160.081 136.501 160.401 136.175C160.722 135.848 161.023 134.007 161.188 134.222C161.353 134.438 161.668 134.535 161.161 135.227C161.021 135.857 160.649 138.221 160.392 138.137C160.068 138.031 160.197 138.044 160.292 137.227C160.384 136.44 159.91 136.955 159.393 136.644C158.877 136.332 158.62 136.455 158.503 137.062C158.386 137.67 158.264 138.143 157.838 137.984C157.413 137.825 157.961 137.51 158.143 136.767C158.325 136.023 157.945 136.062 158.252 135.714C158.56 135.366 158.545 135.589 158.687 135.271C158.828 134.953 158.871 134.037 158.998 134.187C159.099 134.307 159.252 134.346 159.316 134.351ZM168.508 137.75C168.851 137.4 169.96 137.595 170.177 137.095C170.394 136.595 169.935 135.947 169.961 135.188C169.988 134.429 169.822 134.213 170.223 134.084C170.624 133.954 171.683 133.818 171.496 134.183C171.308 134.548 170.608 133.866 170.443 134.453C170.278 135.04 170.423 135.903 170.753 136.334C171.083 136.765 170.79 137.692 170.288 137.714C169.787 137.737 169.137 137.632 168.508 137.75ZM172.694 133.973C172.995 133.736 173.558 133.756 173.808 134.547C174.058 135.338 174.174 136.336 173.61 136.562C173.046 136.788 172.594 136.585 172.308 135.796C172.022 135.006 172.355 134.144 172.694 133.973Z" stroke="#3E3939" stroke-width="2" stroke-linecap="round" stroke-linejoin="round"/>
</g>
<defs>
<clipPath id="clip0">
<rect width="290" height="290" fill="white"/>
</clipPath>
</defs>
</svg>
