<svg width="290" height="290" viewBox="0 0 290 290" fill="none" xmlns="http://www.w3.org/2000/svg">
<ellipse opacity="0.3" cx="144.5" cy="138.5" rx="126.5" ry="73.5" fill="#EBDCC1"/>
<path d="M116.51 128.254C119.161 125.261 121.824 122.619 125.002 120.167C126.932 117.271 134.982 116.517 138.057 116.517C142.713 116.517 147.082 117.15 151.669 117.886C154.925 118.408 159.049 118.15 161.733 120.421C165.455 123.57 167.303 129.597 168.755 134.059C169.472 136.262 169.581 136.811 171.087 138.52C172.59 140.225 173.983 141.971 175.194 143.894C181.443 153.825 190.546 162.527 193.243 174.365C194.434 179.592 195.725 184.76 196.995 189.98C198.568 196.45 198.921 202.474 198.921 209.094V209.11C198.921 213.104 198.921 217.061 196.893 220.653C194.164 225.488 190.398 228.973 186.373 232.694C180.374 238.24 174.892 243.542 168.147 248.157C165.647 249.868 163.076 251.343 163.888 254.773C164.601 257.784 165.539 259.815 164.674 262.987C163.771 266.297 159.722 268.877 157.398 271.2C154.052 274.547 150.792 273.938 146.245 273.938C142.137 273.938 139.052 273.645 135.319 271.859C132.44 270.482 131.483 265.911 131.035 263.088C130.529 259.903 129.726 256.51 128.17 253.658C127.172 251.828 123.682 251.161 122.036 250.185C118.626 248.165 114.905 246.408 111.262 244.836C107.532 243.227 103.651 240.869 100.311 238.55C97.7815 236.793 95.0647 235.472 92.25 234.24C91.1857 233.775 89.7241 233.677 88.7518 233.125C86.4498 231.818 84.8217 228.304 83.4284 226.179C81.3678 223.037 79.2242 219.976 77.2938 216.749C74.0745 211.368 74.1479 205.904 74.3786 199.79C74.6777 191.863 77.0643 183.795 80.9948 176.95C83.7132 172.216 85.9817 167.362 89.6137 163.261C93.2237 159.186 95.5466 154.311 98.7902 150.029C101.603 146.317 104.396 142.587 107.206 138.875C110.036 135.138 113.397 131.768 116.51 128.254Z" fill="white"/>
<path d="M140.768 138.735C139.846 133.781 138.935 122.805 138.068 117.775C134.959 116.22 129.223 115.507 125.635 116.532C124.853 116.755 122.179 119.597 121.443 120.333C119.45 122.326 118.986 124.597 117.606 126.869C112.017 136.075 108.603 146.596 102.899 155.786C99.9465 160.543 96.3669 166.046 94.9416 171.488C93.7726 175.952 93.9469 180.384 93.9469 184.952C93.9469 193.872 93.3303 202.863 95.0837 211.631C96.9457 220.941 101.882 229.936 108.938 236.32C115.043 241.843 120.564 246.302 129.116 246.302C132.706 246.302 136.491 241.709 134.729 237.99C130.175 228.375 124.734 219.12 121.443 208.86C120.104 204.686 120.355 198.858 120.839 194.508C121.217 191.105 123.626 189.645 125.564 187.154C125.979 186.62 124.787 184.778 124.604 183.957C124.105 181.71 123.793 179.637 124.036 177.207C124.415 173.418 124.977 168.593 127.837 165.733C129.278 164.292 130.9 164.315 131.034 161.896C131.173 159.399 130.197 159.618 132.384 157.065C134.856 154.181 139.355 152.99 136.47 149.463C134.733 147.34 136.413 146.867 138.388 145.2C141.099 142.911 141.353 141.878 140.768 138.735Z" fill="#F8F7F3"/>
<path d="M141.982 130.57C143.019 124.938 150.185 126.166 154.386 126.166C154.97 127.335 151.378 127.312 152.326 128.226C154.686 130.502 155.087 131.541 155.788 134.647C156.744 138.881 157.134 143.171 158.637 147.291C160.236 151.675 163.65 156.247 164.181 160.857C164.674 165.126 164.228 166.069 161.486 168.812C158.407 171.89 157.703 175.139 159.338 179.024C160.884 182.695 157.441 187.122 157.191 190.682C156.988 193.569 156.947 196.683 158.177 199.361C159.25 201.696 160.547 203.788 161.398 206.242C162.831 210.372 163.803 214.868 164.554 219.171C164.881 221.045 165.584 223.964 164.861 225.877C163.176 230.338 162.766 236.063 164.817 240.538C165.955 243.022 166.22 245.287 166.22 247.967C166.22 249.997 163.173 249.696 161.705 250.225C156.573 252.072 161.088 260.336 162.669 263.351C164.598 267.027 163.732 274.2 158.33 274.484C157.024 274.553 155.693 274.484 154.386 274.484C153.092 274.484 152.221 273.614 151.011 273.082C148.915 272.159 145.382 270.209 145.313 267.603C145.247 265.109 145.313 262.604 145.313 260.108C145.313 258.314 145.707 256.444 145.707 254.586C145.707 253.288 147.626 250.121 147.198 249.326C146.383 247.812 144.016 246.209 142.946 244.724C140.906 241.891 128.366 240.076 127.117 236.616C126.346 234.48 126.515 231.848 126.328 229.603C126.158 227.559 125.884 225.425 125.846 223.379C125.785 220.07 125.04 216.75 124.465 213.496C122.687 203.42 125.101 194.051 126.854 184.174C127.221 182.102 128.213 180.091 128.213 177.972C128.213 175.377 128.538 172.768 128.629 170.17C128.815 164.863 132.254 156.454 132.708 151.159C133.385 143.255 140.544 138.374 141.982 130.57Z" fill="#EBDCC1"/>
<path d="M165.482 126.337C163.092 123.35 161.493 124.519 158.622 124.519C155.592 123.509 140.771 123.562 140.771 127.123C140.771 131.93 141.205 135.954 142.218 140.511C143.006 144.06 140.627 148.061 142.631 151.668C143.682 153.56 144.107 155.562 145.399 157.412C146.862 159.506 149.363 161.702 150.275 164.106C151.86 168.284 143.252 175.525 141.68 179.106C138.65 186.009 146.576 187.56 147.713 193.734C148.8 199.632 144.49 205.422 144.49 211.379C144.49 217.099 150.223 218.61 151.102 223.445C151.8 227.285 150.627 230.11 148.375 233.114C146.415 235.727 140.327 244.814 145.234 247.412C149.524 249.683 158.598 249.454 163.085 248.155C166.695 247.111 169.588 244.377 172.755 242.618C174.907 241.423 177.384 240.682 179.449 239.354C182.359 237.483 183.781 233.851 186.474 231.792C189.309 229.623 192.091 228.946 193.953 225.635C195.891 222.19 196.179 218.564 197.3 214.85C198.645 210.394 201.019 205.022 201.019 200.387C201.019 193.676 199.589 187.184 196.887 181.007C193.97 174.339 193.842 167.409 189.862 161.544C186.324 156.33 180.367 153.532 177.383 147.99C173.611 140.986 170.471 132.574 165.482 126.337Z" fill="#C2AC85"/>
<path d="M137.951 262.929C139.695 259.842 140.421 255.987 140.486 252.493H146.412C150.027 252.493 154.573 251.635 158.018 252.712C163.405 254.395 163.016 263.191 161.554 267.659C158.43 277.205 149.071 278.323 140.706 275.535C139.647 275.182 135.727 273.918 135.659 272.682C135.566 271.023 135.958 269.389 136.195 267.757C136.502 265.639 136.954 264.692 137.951 262.929Z" fill="#9E8559"/>
<path d="M147.53 91.5681C162.362 91.5681 171.751 89.5595 177.202 87.9918M167.016 75.3759C171.445 76.7068 176.316 78.4813 161.037 80.6994C148.814 82.4739 134.834 81.7345 129.372 81.143M105.014 81.143C105.678 84.4702 106.342 85.3574 110.328 87.3537C114.314 89.35 115.864 92.899 116.528 98.4442C117.193 103.99 116.528 103.99 119.85 107.76C123.172 111.531 122.95 115.302 122.95 117.52M124.057 108.869C134.243 111.975 158.823 112.64 170.832 105.986M177.202 87.9918C180.052 87.1722 181.826 86.4731 182.738 86.2447C185.395 85.5792 186.945 79.3685 184.288 75.8196C184.114 75.5864 183.892 75.361 183.624 75.143M177.202 87.9918C172.552 93.1208 172.109 93.7862 172.109 98.8879C172.109 103.99 171.888 104.877 168.788 108.869C165.688 112.862 165.909 116.189 165.909 119.96M116.528 82.0303C112.321 81.3648 108.941 80.4776 106.564 79.1467C99.0349 74.9323 119.85 70.0525 143.101 70.0525C166.48 70.467 179.807 72.0432 183.624 75.143M161.037 83.5829C172.109 82.2521 188.717 80.0118 183.624 75.143M122.95 121.069C122.596 122.134 122.803 123.731 122.95 124.396M122.95 124.396C122.212 124.914 120.78 126.348 120.957 127.945M122.95 124.396C124.943 127.945 132.915 132.603 144.651 132.381M120.957 127.945C121.179 129.941 118.521 131.938 118.743 134.821C117.636 135.265 116.307 136.817 116.307 138.148M120.957 127.945C122.507 132.825 128.486 136.817 140.001 137.483M116.307 138.148C115.643 138.592 114.093 140.145 114.314 141.919C113.207 142.806 110.993 144.359 112.1 149.461C113.207 154.562 123.172 159.664 135.572 161.66C147.973 163.657 157.273 162.769 169.895 158.777M116.307 138.148C116.307 141.919 118.521 147.464 131.143 150.126C143.765 152.788 154.616 151.679 159.487 150.57M108.335 150.126C106.564 153.897 105.235 159.22 110.993 163.878C116.75 168.536 127.822 172.307 139.337 172.973M103.242 157.889C96.8206 168.758 90.8418 183.398 90.8418 195.375C90.8418 207.353 95.0491 221.771 105.457 233.971C112.18 241.852 119.921 247.604 131.365 250.151M192.039 223.767C187.757 232.27 174.146 249.675 153.951 251.272C145.016 251.978 137.635 251.546 131.365 250.151M131.365 250.151C130.922 263.915 131.143 269.017 137.122 273.453C143.101 277.889 152.18 276.115 157.716 272.122C162.145 268.928 161.923 259.257 161.259 254.821M166.795 125.949C167.68 126.836 167.754 128.093 167.68 128.61C168.271 129.054 169.452 130.341 169.452 131.938C171.002 133.047 171.888 135.043 171.666 136.596C173.438 137.705 174.545 141.254 172.773 143.694C171.356 145.646 167.459 147.317 165.688 147.908M176.538 143.694C177.778 144.581 178.383 146.134 178.531 146.799C179.343 147.39 181.055 148.973 181.41 150.57C182.738 151.901 186.724 157.224 186.945 160.108C187.167 162.991 186.281 167.206 178.531 172.085M189.16 163.213C191.448 166.91 196.29 176.876 197.353 187.168C198.416 197.46 197.501 207.427 196.91 211.124M99.2564 182.954C109.443 192.048 124.5 198.037 148.637 198.037C167.946 198.037 180.893 190.052 184.953 186.059" stroke="#3E3939" stroke-width="5" stroke-linecap="round" stroke-linejoin="round"/>
<path d="M117.058 240.027C116.448 239.343 116.697 239.033 116.635 238.197C116.573 237.361 116.339 236.976 115.587 235.882C114.834 234.788 116.552 235.001 117.17 233.493C117.836 231.956 115.602 231.532 114.015 230.831C112.428 230.13 112.549 231.835 112.741 232.715C112.933 233.595 112.588 235.027 112.509 235.95C112.43 236.873 112.567 237.881 111.458 238.351C111.135 238.489 110.561 238.44 110.654 238.913C110.747 239.386 111.666 240.096 112.829 240.03C114.036 239.967 113.501 237.364 114.022 236.478C114.543 235.593 114.652 239.522 114.494 240.338C114.335 241.155 116.234 241.849 117.453 241.655C118.174 241.551 118.208 241.155 117.758 240.685L117.058 240.027ZM117.06 239.994C118.712 239.936 119.1 239.039 119.417 237.937L117.06 239.994ZM117.06 239.994C117.311 240.181 117.513 240.431 117.761 240.652L117.06 239.994ZM119.417 237.937C119.593 236.923 120.215 234.85 121.9 234.928C123.585 235.006 124.054 235.246 124.975 236.454C125.898 237.629 125.754 239.311 125.15 240.654C124.546 241.997 124.345 243.308 122.204 243.357C120.107 243.41 119.968 242.435 119.445 241.261C119.263 240.78 119.242 240.513 119.149 240.04L119.417 237.937ZM119.417 237.937C119.314 238.626 119.211 239.314 119.196 240.011L119.417 237.937ZM117.717 240.648C118.344 240.602 118.891 240.45 119.196 240.011L117.717 240.648ZM105.077 228.637C104.348 228.309 103.51 227.705 103.369 227.262C103.194 226.715 103.231 225.755 104.225 226.106C105.216 226.49 106.758 227.718 107.89 228.014C109.022 228.311 112.1 229.272 111.364 230.073C110.628 230.873 109.257 229.726 108.701 230.509C108.25 231.101 108.132 231.954 107.758 232.686C107.484 233.294 107.617 234.335 107.975 234.831C108.458 235.437 108.927 237.237 108.183 236.576C107.438 235.914 105.831 235.444 105.882 234.851C105.932 234.257 106.553 234.809 106.615 234.083C106.663 233.523 106.7 232.563 106.815 231.742C106.896 231.317 107.392 230.197 106.945 229.694C106.507 229.092 105.635 228.884 105.077 228.637ZM114.004 232.524C114.174 233.137 114.184 233.536 114.964 233.271C115.743 233.005 115.874 232.518 115.021 232.08C114.168 231.641 113.839 231.846 114.004 232.524ZM121.972 236.695C123.759 236.615 123.86 237.521 123.999 238.496C124.141 239.438 124.446 240.56 123.459 241.173C122.474 241.753 121.793 241.396 121.186 240.679C120.58 239.963 121.032 238.839 120.917 238.099C120.802 237.358 121.433 236.748 121.972 236.695ZM127.937 237.206C128.151 236.261 128.362 235.88 129.82 236.005C131.234 236.127 131.855 236.678 131.85 237.774C131.846 238.869 130.823 239.38 129.739 240.084C128.655 240.788 128.584 242.144 128.966 242.874C129.349 243.605 131.559 245.355 130.457 245.227C129.355 245.1 127.829 244.205 127.737 243.201C127.644 242.196 128.008 241.065 128.037 240.204C128.066 239.343 127.954 238.569 127.557 238.004C127.208 237.409 127.862 237.565 127.937 237.206ZM129.696 237.456C130.842 237.588 131.111 238.607 130.625 239.097C130.138 239.587 129.646 239.611 129.238 239.177C128.874 238.748 129.789 237.929 129.696 237.456ZM132.192 243.151C133.193 242.904 133.469 242.795 133.595 241.843C133.674 240.919 134.987 238.574 134.563 237.807C134.139 237.04 133.379 237.074 133.609 236.463C133.795 235.848 135.127 234.334 135.468 235.028C135.809 235.722 135.227 237.332 136.085 237.705C136.943 238.077 138.451 238.672 138.751 237.767C139.095 236.867 138.573 236.722 139.566 235.512C140.563 234.269 140.774 235.449 140.476 236.852C140.178 238.255 139.562 239.73 139.602 240.83C139.641 241.929 140.119 242.07 140.69 242.683C141.261 243.297 141.516 244.481 140.223 244.503C138.93 244.525 138.399 243.45 138.351 242.449C138.305 241.416 138.88 239.904 137.115 239.72C135.347 239.568 135.63 240.423 135.098 241.44C134.566 242.457 134.565 243.52 134.621 244.422C134.678 245.323 133.519 244.294 133.215 244.202C132.868 244.105 131.645 243.303 132.192 243.151ZM143.095 239.535C143.622 238.583 144.315 236.716 145.731 237.336C147.147 237.955 146.549 239.233 146.553 240.229C146.557 241.226 146.382 243.271 144.386 242.668C142.437 242.036 142.508 240.68 143.095 239.535ZM144.346 240.007C144.162 239.56 144.562 238 145.465 238.376C146.367 238.752 146.015 239.752 145.528 240.241C144.994 240.76 144.632 240.829 144.346 240.007Z" stroke="#3E3939" stroke-width="3" stroke-linecap="round" stroke-linejoin="round"/>
<path d="M184.021 217.406C183.99 217.635 183.963 217.818 183.941 217.965M186.926 224.24C186.776 224.34 186.262 224.548 185.835 224.742C185.408 224.936 185.246 224.91 185.172 224.149C185.098 223.389 185.337 223.275 184.636 222.842C184.099 222.511 184.245 222.648 184.428 222.371M184.428 222.371C184.484 222.286 184.543 222.163 184.588 221.975C184.777 221.174 184.401 221.155 184.138 221.015C184.066 220.977 183.948 220.945 183.825 220.91M184.428 222.371C184.845 222.072 185.551 221.405 185.041 221.134C184.402 220.794 184.075 221.104 183.825 220.91M183.825 220.91C183.501 220.817 183.147 220.694 183.538 220.336C183.717 220.172 183.906 219.947 184.061 219.712M184.061 219.712C184.376 219.235 184.558 218.713 184.257 218.553C183.867 218.346 183.804 218.896 183.941 217.965M184.061 219.712C184.518 219.413 185.308 219.292 185.021 218.538C184.734 217.785 183.846 218.755 183.941 217.965M184.147 216.872C184.289 216.867 184.464 216.535 184.025 215.244M151.864 233.924C151.786 234.134 151.701 234.368 151.611 234.632C151.406 235.234 151.16 235.642 150.934 235.955C150.547 236.488 150.217 236.743 150.24 237.21C150.257 237.557 150.508 237.577 150.728 237.469C150.948 237.361 151.343 237.194 151.644 237.174C151.944 237.153 152.144 237.38 152.571 237.186C151.896 236.286 151.511 235.8 151.956 234.815M151.864 233.924C151.955 233.677 152.112 233.322 152.179 233.13C152.402 232.48 152.644 232.362 152.37 231.789C151.945 230.902 151.746 230.315 151.459 229.922C152.199 230.315 152.436 230.787 153.021 231.894C153.341 232.685 154.054 234.458 154.346 235.224C154.579 235.829 154.751 236.137 155.318 236.301C156.307 236.586 156.984 236.585 157.16 236.378C157.336 236.17 157.434 237.004 156.105 237.26C155.134 237.447 154.608 237.685 154.231 237.497C154.092 237.427 153.988 237.303 153.987 237.097C153.982 235.76 154.017 234.497 153.014 234.957C152.863 235.01 152.724 235.017 152.608 235.064C151.822 235.242 151.809 234.392 151.864 233.924ZM157.243 226.743C157.881 227.083 158.044 227.289 158.042 228.01C158.041 228.73 157.451 229.078 157.424 229.906C157.397 230.733 157.194 231.947 157.594 232.581C157.994 233.214 158.07 232.713 158.807 233.706C159.397 234.5 159.93 234.856 160.123 234.935M160.123 234.935C160.366 235.122 160.716 235.367 160.595 235.798C160.317 236.793 160.404 237.32 160.983 236.124C161.764 234.513 160.161 233.704 159.485 233.345C158.809 232.986 158.61 232.399 157.784 231.6C156.959 230.8 157.47 231.854 158.115 229.311C158.759 226.768 158.259 226.562 157.132 225.963C156.844 225.57 157.202 228.165 157.2 229.065C157.199 229.966 157.307 232.187 157.59 234.562C157.873 236.937 156.468 237.693 157.96 237.284C159.154 236.956 159.328 236.447 159.266 236.234C158.502 235.708 157.975 235.969 157.977 234.892C158.155 233.068 158.369 233.774 158.969 234.273C159.309 234.556 159.806 234.691 160.123 234.935ZM168.198 232.083C168.209 232.57 166.907 231.998 165.766 232.354C164.625 232.709 163.383 233.312 162.983 232.859C162.908 232.459 163.786 232.324 164.237 232.203C164.689 232.082 166.394 231.846 167.034 231.464C167.674 231.083 168.186 231.596 168.198 232.083ZM168.198 232.083C168.624 231.949 168.67 231.66 168.149 231.576M164.718 235.885C164.607 235.285 163.828 230.362 163.729 229.708M166.952 227.934C166.792 228.127 166.625 228.331 166.464 228.516C166.876 229.096 167.225 229.763 167.16 230.93C167.095 232.098 167.435 232.269 167.445 232.404C167.456 232.539 167.719 233.571 167.642 234.432C167.564 235.293 167.702 235.426 168.543 234.911C169.384 234.396 168.469 234.331 168.108 233.357C167.746 232.384 167.986 231.369 167.688 230.489C167.389 229.609 167.69 229.408 167.881 227.887C168.031 226.692 167.536 227.231 166.952 227.934ZM166.952 227.934C167.09 228.549 167.423 228.213 167.45 230.243C167.477 232.273 167.828 234.892 168.016 234.992M169.294 229.239C168.468 228.8 169.322 228.231 170.403 226.702C170.78 226.001 170.502 227.175 170.362 228.123C170.222 229.071 169.484 229.332 170.66 229.544C171.836 229.755 171.299 229.703 171.122 230.45C170.945 231.198 171.409 230.843 171.156 231.911C170.903 232.979 170.991 232.966 171.882 232.597C172.772 232.229 172.382 232.983 171.867 233.551C171.352 234.119 170.613 233.667 170.451 233.28C170.289 232.893 171.043 232.032 170.593 231.612C170.142 231.192 169.854 231.52 170.106 230.452C170.359 229.384 170.121 229.678 169.294 229.239ZM169.294 229.239C169.082 229.137 169.492 228.226 169.724 227.784C169.759 228.885 170.061 229.406 170.445 230.451C170.829 231.497 170.818 232.623 171.015 233.219C171.213 233.815 171.379 233.292 171.529 233.372M174.468 230.425C174.232 229.638 174.335 228.13 173.822 227.797C173.309 227.464 172.607 227.572 173.059 226.911C173.725 226.063 174.04 225.628 174.552 226.502C175.064 227.375 174.988 227.695 174.772 229.143C174.555 230.591 175.47 230.837 176.334 231.296C177.197 231.755 178.275 231.846 178.902 231.518C179.53 231.19 177.871 233.014 176.481 232.456C175.595 232.1 175.117 231.692 174.825 231.239M174.468 230.425C174.458 231.001 174.389 232.294 174.187 232.86C173.935 233.568 174.273 233.567 174.863 233.22C175.453 232.872 175.34 232.992 174.877 232.446C174.507 232.009 174.688 231.459 174.825 231.239M174.468 230.425C174.554 230.71 174.659 230.982 174.825 231.239M177.739 226.256C177.573 226.018 177.555 225.693 177.976 225.255C178.601 224.605 178.622 225.126 178.725 225.533M177.739 226.256C177.863 226.435 178.07 226.565 178.237 226.656M177.739 226.256L178.232 225.894M178.725 225.533C178.76 225.674 178.806 225.801 178.889 225.861C179.01 225.947 179.083 226.141 179.176 226.374M178.725 225.533L178.232 225.894M178.237 226.656C178.293 226.687 178.344 226.713 178.386 226.736C178.724 226.915 179.125 227.008 179.172 228.415C179.219 229.823 179.594 230.383 180.397 230.208C179.783 229.762 180.059 230.029 179.811 228.755C179.563 227.481 180.839 228.339 181.841 228.571C182.749 228.781 182.745 227.273 181.918 225.927M178.237 226.656L178.707 226.515M179.176 226.374C179.335 226.768 179.555 227.274 180.177 227.567C181.166 228.032 181.829 228.444 181.682 226.924C181.535 225.403 181.096 225.47 180.471 224.897C179.845 224.325 179.546 223.625 179.835 223.297C180.124 222.97 180.661 223.736 181.9 224.395C183.14 225.053 183.716 225.299 184.406 225.064C184.599 224.999 184.655 225.063 184.592 225.163M179.176 226.374L178.707 226.515M178.232 225.894L178.707 226.515M184.592 225.163C184.43 225.422 183.479 225.921 182.037 225.068C180.034 223.884 180.535 224.09 181.635 225.516C181.738 225.65 181.832 225.787 181.918 225.927M184.592 225.163C184.367 225.405 183.342 226.162 181.918 225.927M192.332 216.772C193.093 218.378 193.084 217.717 193.461 217.196C193.838 216.675 193.764 215.914 192.765 214.601C192.308 213.938 192.662 214.483 192.086 214.417C191.51 214.351 191.57 215.165 192.332 216.772ZM192.332 216.772C192.756 217.478 192.806 218.531 193.56 217.849C194.313 217.167 193.631 216.204 193.027 214.741M192.332 216.772C191.907 215.885 191.154 214.066 191.536 213.884M163.705 229.095C164.056 229.041 164.545 228.76 164.417 230.374C164.288 231.989 164.637 232.656 164.711 233.236C164.785 233.816 165.796 235.976 164.931 236.238C164.065 236.5 164.394 235.292 164.033 234.138C163.672 232.984 164.062 232.23 163.713 231.023C163.365 229.816 163.234 229.121 163.705 229.095ZM186.59 217.268C187.565 218.688 187.665 218.621 188.277 219.968C188.888 221.314 189.363 221.627 188.836 222.248C188.308 222.87 188.371 222.783 189.01 222.582C189.65 222.38 189.976 222.433 189.439 221.307C188.903 220.18 189.417 220.152 190.331 220.398C191.245 220.643 192.273 220.948 192.487 220.401C192.701 219.854 192.338 219.781 191.61 220.356C190.881 220.931 189.893 220.105 189.142 219.526C188.392 218.947 188.806 218.445 188.908 217.838C189.009 217.231 189.199 216.61 188.673 216.151C188.148 215.691 186.957 215.9 186.59 217.268ZM187.154 217.387C187.867 217.947 188.077 219.381 188.33 218.313C188.583 217.245 188.922 217.064 188.422 216.498C187.922 215.932 187.382 216.426 187.154 217.387ZM192.304 212.068C192.604 212.228 194.326 210.317 194.788 210.683C195.251 211.049 194.569 212.083 194.805 212.689C195.042 213.296 193.812 214.025 194.54 213.811C195.267 213.596 196.243 212.163 195.566 212.164C194.889 212.165 195.474 213.336 195.075 212.343C194.676 211.349 195.153 210.396 195.342 209.595C195.532 208.794 195.711 206.965 194.931 208.655C194.306 210.006 193.213 210.728 192.745 210.92C192.343 211.188 191.693 211.792 192.304 212.068Z" stroke="#3E3939" stroke-width="3" stroke-linecap="round" stroke-linejoin="round"/>
<path d="M174.619 213.89C175.606 213.519 175.461 212.804 175.86 213.016M175.86 213.016C176.259 213.228 177.753 212.041 178.217 213.118C178.681 214.195 177.974 214.522 177.454 215.012C177.038 215.404 176.916 215.323 176.907 215.233M175.86 213.016C175.99 213.269 176.188 213.659 176.379 214.051M176.907 215.233C177.054 215.666 177.291 216.4 177.477 217.069M176.907 215.233C176.827 214.995 176.608 214.522 176.379 214.051M177.477 217.069C177.616 217.565 177.727 218.026 177.753 218.302C177.781 218.59 177.833 218.923 177.858 219.252M177.477 217.069C177.616 216.911 177.776 216.867 177.995 216.904M183.2 212.188C182.817 210.962 182.324 211.147 181.577 211.262C180.831 211.377 179.86 210.733 179.901 210.563C179.489 209.833 180.873 210.632 181.152 210.781C181.432 210.929 182.271 210.8 182.551 210.566C182.831 210.331 183.232 209.778 183.111 210.288C182.99 210.799 183.971 213.109 184.142 214.094M190.691 203.136C191.53 203.39 193.139 204.756 192.525 205.452C191.91 206.147 191.657 206.077 191.1 205.397C190.542 204.717 189.771 203.797 190.078 203.449M174.58 213.868C174.498 214.783 175.273 213.598 175.539 213.42C175.806 213.243 176.429 214.596 176.56 215.56C176.692 216.524 177.421 217.997 177.592 218.983C177.763 219.968 177.563 220.245 177.455 220.699C177.867 220.424 177.905 219.845 177.858 219.252M176.379 214.051C176.898 213.184 177.775 212.709 177.87 213.636C177.965 214.564 177.042 214.666 177.015 214.779M177.995 216.904C178.197 216.938 178.449 217.041 178.781 217.187C179.473 217.491 180.285 217.858 181.324 217.835C180.908 218.451 179.87 217.9 179.232 217.561C178.593 217.222 178.554 216.888 177.995 216.904ZM177.995 216.904C178.008 217.398 177.999 218.56 177.858 219.252M150.358 217.482C150.759 216.736 151.229 215.325 151.091 217.424C150.981 219.103 150.912 222.354 150.891 223.77C150.859 223.966 150.778 224.246 150.704 223.798C150.612 223.238 150.805 220.53 150.834 219.267C150.863 218.005 150.999 217.055 150.358 217.482ZM155.555 216.41C155.834 216.749 155.221 216.68 155.22 217.254C155.219 217.828 155.602 219.245 155.96 220.011C156.318 220.776 156.862 221.704 156.621 222.342C156.38 222.981 154.58 223.749 154.115 223.247C153.65 222.744 155.847 222.953 155.903 221.96C155.958 220.968 155.546 220.43 155.149 219.452C154.751 218.474 154.448 217.099 154.742 216.616C155.036 216.134 155.316 216.091 155.555 216.41ZM160.069 216.891C160.934 217.415 162.116 218.682 161.793 220.235C161.47 221.788 160.944 224.958 160 224.393C159.055 223.827 158.672 222.218 158.634 221.431C158.596 220.644 158.36 218.986 158.842 217.517C159.325 216.049 159.683 216.622 160.069 216.891ZM160.04 218.153C160.678 218.493 161.328 219.732 161.059 220.867C160.791 222.002 160.614 223.697 159.896 223.124C159.178 222.551 159.259 221.827 159.142 220.807C159.024 219.786 158.962 217.581 160.04 218.153ZM166.13 216.534C165.929 217.002 165.636 217.102 165.277 216.911C164.917 216.72 164.423 217.671 164.501 218.479C164.579 219.287 164.84 221.598 166.039 221.469C167.238 221.339 166.93 222.261 166.397 222.425C165.864 222.589 164.733 222.052 164.349 220.826C163.966 219.6 163.861 218.523 164.41 217.345C164.958 216.167 165.452 215.791 166.13 216.534ZM169.154 215.905C169.512 217.053 169.468 218.563 170.241 218.527C171.014 218.49 172.319 218.481 172.507 217.686C172.695 216.892 171.45 213.803 171.902 213.979C172.355 214.156 172.928 214.013 172.791 215.538C173.162 216.629 174.783 220.581 174.312 220.69C173.717 220.827 173.926 220.728 173.316 219.394C172.727 218.107 172.477 219.331 171.398 219.333C170.319 219.335 170.039 219.761 170.423 220.795C170.807 221.83 171.058 222.666 170.258 222.816C169.459 222.966 170.007 221.98 169.597 220.676C169.187 219.372 168.64 219.784 168.788 218.969C168.937 218.153 169.122 218.507 169.044 217.891C168.965 217.274 168.182 215.836 168.515 215.949C168.781 216.039 169.052 215.957 169.154 215.905ZM186.383 212.601C186.584 211.75 188.464 211.024 188.333 210.06C188.201 209.096 186.897 208.531 186.234 207.348C185.571 206.165 185.118 205.988 185.612 205.42C186.106 204.852 187.6 203.666 187.652 204.396C187.704 205.126 186 204.732 186.291 205.781C186.581 206.83 187.604 208.012 188.509 208.365C189.414 208.718 189.824 210.405 189.077 210.902C188.33 211.4 187.237 211.841 186.383 212.601ZM189.293 202.968C189.534 202.33 190.415 201.839 191.531 202.816C192.648 203.792 193.75 205.209 193.096 206.075C192.441 206.941 191.562 207.048 190.392 206.107C189.222 205.166 188.933 203.543 189.293 202.968Z" stroke="#3E3939" stroke-width="3" stroke-linecap="round" stroke-linejoin="round"/>
<path d="M62.0105 76.3567C62.0105 72.4789 63.6946 69.0064 63.8067 65.1405C64.4931 66.5133 65.7952 65.0084 66.042 64.3422C67.5805 60.188 70.9739 57.0871 72.0692 52.7667C72.9231 49.3986 73.7743 45.9035 75.482 42.8478C75.8886 42.1201 76.6492 38.6255 77.817 38.5568C78.8763 38.4945 79.0437 39.9326 79.4336 40.7123C79.9443 41.7337 80.8315 43.1312 81.0701 44.2049C81.8596 47.7576 83.3284 51.1438 84.6425 54.523C84.8721 55.1134 86.9942 60.6176 87.1572 60.2509C88.1512 58.0143 89.3745 56.4729 90.5899 54.5629C92.595 51.4121 95.547 49.6304 98.2737 47.3582C99.3717 46.4431 101.173 46.9144 102.165 46.021C102.773 45.4741 104.178 45.1848 104.959 44.6639C107.386 43.046 110.694 42.189 113.382 41.0715C117.739 39.26 122.138 36.5037 126.673 35.2439C131.695 33.8489 136.468 33.804 141.682 33.8867C142.735 33.9035 145.101 34.0536 145.713 35.1241C146.039 35.6936 148.629 35.3237 149.126 35.3237C153.992 35.3237 159.228 35.0911 163.875 36.7806C172.561 39.9393 180.483 45.6142 189.54 47.8172C192.196 48.4631 197.19 48.3539 199.878 47.458C202.377 46.6251 204.845 44.9516 207.522 44.6839C211.43 44.2931 216.666 44.3539 219.876 46.7994C223.313 49.4184 223.986 53.9421 225.803 57.5765C227.435 60.8407 227.991 66.9013 226.662 70.2696C225.461 73.3123 222.826 75.4336 221.073 78.1529C219.543 80.5279 217.159 82.3872 215.326 84.5394C213.03 87.2338 209.969 89.3915 207.183 91.5446C205.668 92.715 204.64 94.5439 203.112 95.6758C198.685 98.9545 196.971 104.387 192.255 107.531C188.829 109.814 185.183 112.026 181.657 114.157C178.607 115.999 175.461 116.864 172.297 118.388C167.993 120.46 163.133 121.371 158.454 122.248L158.286 122.279C156.6 122.596 155.06 123.374 153.337 123.617C151.219 123.914 148.9 123.692 146.791 123.617C140.773 123.402 134.795 122.522 128.809 121.88C123.707 121.334 117.86 120.817 113.761 117.23C110.199 114.114 105.609 112.941 101.886 110.045C98.2658 107.23 94.1825 105.318 90.3904 102.861C86.7364 100.492 81.8302 99.8697 77.5376 99.1884C75.562 98.8748 73.199 97.7461 71.4904 96.7336C69.6469 95.6411 66.8418 94.6344 65.4432 92.9815C63.2548 90.3952 62.0105 86.2919 62.0105 82.9228V76.3567Z" fill="white"/>
<path d="M80.9986 83.7462C74.5725 83.7462 67.4062 81.6779 61 81.5711C61.7963 83.96 61.9508 86.4781 62.9032 88.912C64.0617 91.8727 65.497 92.6962 68.069 94.3497C74.7235 98.6275 83.8013 99.2687 91.2094 101.691C95.5148 103.098 98.7371 106.099 102.629 108.246C106.221 110.228 109.935 111.93 113.746 113.412C118.083 115.099 121.392 118.658 125.709 120.3C128.853 121.495 132.003 121.266 135.315 121.266C138.826 121.266 142.548 121.639 145.949 120.602C152.471 118.613 159.197 117.243 165.978 116.886C171.416 116.6 178.524 115.199 183.137 112.264C191.905 106.684 198.502 100.241 204.132 91.3589C207.828 85.5269 212.009 81.8244 217.303 77.4928C219.927 75.3466 222.838 73.4462 225.188 70.9978C226.592 69.5348 228.952 68.1892 229.508 66.1039C229.889 64.6757 229.181 63.3205 229.055 61.935C228.827 59.4282 229.099 57.1105 228.179 54.6847C226.736 50.8812 222.831 44.7909 219.207 42.752C215.615 40.7316 208.022 45.0372 204.978 46.4678C200.443 48.5985 197.427 51.5177 192.471 48.8241C187.095 45.9022 181.585 43.1957 176.219 40.2145C169.569 36.5202 161.917 35.5365 154.558 34.0215C148.316 32.7364 140.303 33.3402 133.986 34.1424C128.208 34.8761 123.96 36.5214 118.64 39.1571C113.358 41.7736 108.05 44.2408 102.81 46.9511C101.816 47.4654 101.569 48.1212 101.813 49.2168C102.142 50.6999 104.801 52.507 105.861 53.567C107.384 55.0903 109.603 55.033 111.027 56.9807C112.919 59.5705 112.658 61.5173 112.658 64.7143C112.658 69.0855 109.765 80.1455 104.23 80.9971C100.542 81.5645 96.3017 80.4836 92.5386 80.4836C90.0347 80.4836 86.9825 79.8392 84.9258 81.5711C83.6866 82.6146 82.5454 83.7462 80.9986 83.7462Z" fill="#F3884A"/>
<path d="M134.122 55.9332C138.789 46.5994 147.322 45.966 156.674 45.966C156.674 43.0748 154.094 41.4187 151.3 41.4187C143.629 41.4187 135.763 41.2898 128.587 44.5191C124.506 46.3555 121.489 49.3428 117.839 51.7764C114.837 53.7773 112.426 56.7478 111.707 60.3427C110.626 65.7445 112.382 71.9201 115.335 76.3501C119.957 83.2824 128.424 89.432 137.222 87.6724C138.815 87.3539 144.65 85.1353 143.653 82.9414C142.532 80.4768 140.019 79.4797 137.75 78.1185C133.588 75.6209 131.044 71.0528 131.044 66.3139C131.044 62.3616 132.353 59.4707 134.122 55.9332Z" fill="#AF4017"/>
<path d="M63.4172 88.5397C63.4172 90.7405 64.0782 91.6269 66.0622 92.885C69.3976 93.9968 73.6596 97.9739 76.4531 100.043C79.323 102.169 82.977 102.473 86.2563 103.654C89.2112 104.718 91.9862 106.661 94.779 108.083C97.3673 109.401 99.1248 112.73 101.874 113.583C103.115 113.968 108.077 114.164 108.718 112.722C109.289 111.438 108.218 109.753 108.004 108.524C107.46 105.397 106.682 101.798 105.275 98.9307C102.315 92.9005 96.3435 87.9729 89.4891 87.9729C86.8647 87.9729 84.7934 87.6329 82.3099 86.9233C79.4678 86.1113 76.7259 86.7115 73.7872 86.8184C72.2424 86.8746 63.4172 85.7108 63.4172 88.5397Z" fill="#AF4017"/>
<path d="M161.054 115.887C161.447 118.807 164.051 118.097 166.588 117.299C169.582 114.827 176.531 113.645 180.413 112.042C184.986 110.154 189.296 106.39 192.108 103.255C194.463 100.631 195.351 97.7413 197.849 95.1159C199.322 93.5677 201.51 92.9788 203.406 91.8602C205.531 90.607 206.14 85.2391 208.437 84.291C210.129 83.592 210.801 82.112 212.332 81.3687C213.752 80.6788 214.036 78.6787 214.921 77.5835C216.229 75.9625 219.786 75.6046 221.642 74.5828C226.872 71.7038 227.446 66.9396 226.772 62.07C226.219 58.071 224.01 50.5865 218.317 49.2434C216.999 48.9323 214.469 48.6868 214.469 50.0475C214.469 51.4083 216.378 51.9569 217.367 52.7736C219.508 54.5418 220.967 56.8886 220.882 59.4027C220.699 64.8382 215.939 65.0924 211.049 67.1692C208.042 68.4462 205.099 70.5948 201.549 70.6995C195.692 70.8722 195.401 74.8533 192.999 78.5445C191.666 80.5921 191.19 82.479 189.484 84.291C188.16 85.6959 186.076 86.3331 184.781 87.7232C182.633 90.029 178.844 91.4699 176.254 93.45C173.311 95.7002 170.15 97.6129 166.683 99.2946C163.851 100.668 161.885 102.018 161.885 104.766C161.885 106.724 162.839 108.791 162.218 110.788C161.637 112.653 160.775 113.817 161.054 115.887Z" fill="#AF4017"/>
<path d="M174.846 62.791C174.846 54.6157 167.128 45.5202 158.846 45.0514C158.443 44.2458 154.694 42.0181 156.681 41.3025C158.603 40.6107 161.706 41.2252 163.715 41.2252C170.741 41.2252 177.234 42.3382 183.194 46.3654L183.244 46.3992C185.424 47.872 187.941 49.5733 190.576 49.5733C195.646 49.5733 199.019 46.8852 203.794 45.6311C204.674 45.3999 209.996 44.6147 210.596 45.7471C211.064 46.6312 210.594 48.5977 210.325 49.4187C209.593 51.6573 208.269 52.7169 206.074 53.4767C203.871 54.2393 202.45 55.2876 200.508 56.4527C197.31 58.3719 194.822 59.769 193.281 63.1388C192.596 64.6386 192.055 65.933 191.04 67.2742C188.855 70.1592 185.434 72.7098 183.696 75.8541C181.623 79.6051 177.746 81.5741 173.455 81.5741C170.804 81.5741 168.933 81.1321 168.933 78.0957C168.933 75.4944 169.455 74.8583 171.29 72.9555C173.976 70.1706 174.846 66.5443 174.846 62.791Z" fill="white"/>
<path d="M66.0796 44.9695C64.4108 49.7375 68.2151 60.1396 71.8728 63.9048C72.8357 67.7564 76.2419 68.6404 79.7246 68.118C85.2053 67.2959 86.1921 62.6958 87.2891 58.0638C87.8461 55.7124 87.3849 52.7775 87.3849 50.3556C87.3849 47.4362 87.4291 44.5131 87.3849 41.5941C87.3163 37.069 87.2246 31.9538 86.2837 27.5183C85.4406 23.5437 85.0056 18.9736 83.3154 15.2857C81.493 11.3097 74.3504 12.989 72.9979 16.746C71.1618 21.8462 74.0233 27.384 71.2503 32.4257C70.2429 34.2574 69.6214 36.2064 68.9523 38.147C68.5011 39.4554 68.3208 40.8357 67.7553 42.1208C67.3067 43.1404 66.4505 43.9097 66.0796 44.9695Z" fill="#F7D8B4"/>
<path d="M121.266 100.82C114.543 97.8788 107.68 95.0927 100.909 92.2068C101.863 93.6377 99.9955 100.638 100.998 102.285C102.506 104.763 103.977 107.196 105.305 109.788C105.713 110.586 105.875 111.6 106.725 111.986C113.035 114.854 119.236 117.762 125.883 119.978C136.537 123.529 146.293 119.119 156.673 116.537C161.098 115.436 165.873 115.267 169.992 113.207C172.185 112.11 175.202 110.467 176.341 108.19C177.821 105.23 176.726 102.48 174.831 99.8876C173.056 97.4577 168.026 97.8009 165.463 97.8009C162.181 97.8009 159.244 97.8258 156.051 98.6889C154.653 99.0666 153.513 100.068 152.189 100.598C150.568 101.246 148.883 101.732 147.26 102.396C140.712 105.075 133.739 103.356 127.193 101.486C125.149 100.902 123.245 101.686 121.266 100.82Z" fill="#AF4017"/>
<path d="M183.27 59.4711C184.474 57.5004 186.86 58.0793 188.837 58.0793C188.837 58.9959 190.053 58.8599 190.743 58.8962C191.955 58.96 193.658 59.4766 194.435 60.3939C195.667 61.8506 195.232 64.6725 194.495 66.3092C193.509 68.501 190.342 69.2458 188.837 71.1805C186.902 73.6685 186.731 78.5841 182.423 77.2471C179.346 76.2922 180.004 72.9114 180.184 70.3031C180.363 67.6888 181.016 65.5902 181.908 63.1625C182.344 61.9752 182.605 60.559 183.27 59.4711Z" fill="#F7D8B4"/>
<path d="M76.3419 79.5525C87.8419 79.5525 90.8419 83.5525 96.8419 88.0525C102.842 92.5525 120.842 104.052 145.842 104.052C170.842 104.052 185.042 94.6525 193.842 88.0525C202.642 81.4525 205.008 72.2192 206.342 68.0525M84.8419 64.0525C85.8419 54.5525 77.3419 38.5525 76.3419 22.0525C75.907 31.6187 73.9596 49.126 69.8419 61.0913M77.3418 58.5525C77.3418 59.4886 77.4976 62.645 78.0037 66.0525M69.8419 70.0525C72.8419 73.0525 78.3419 73.5525 84.3419 70.0525M69.342 79.5525C65.842 79.5525 64.8419 78.0525 62.8419 72.0525C62.4765 70.9563 62.2613 69.9603 62.1933 69.0525M62.1933 69.0525C61.842 78.5525 59.3419 89.0525 67.8419 95.0525C75.835 100.695 82.0595 99.2626 89.8418 103.23M62.1933 69.0525C62.0165 66.694 62.8328 64.9305 64.5887 63.5525M195.842 105.052C178.842 120.552 162.342 124.552 140.342 124.552C118.342 124.552 99.8418 109.052 91.3418 104.052C90.835 103.754 90.3353 103.481 89.8418 103.23M86.8418 89.5525C88.8418 93.1525 89.6751 99.6705 89.8418 103.23M123.342 38.5525C108.342 42.0525 103.342 45.5525 91.3418 54.5525C88.8418 56.9208 92.3418 58.5525 96.8419 58.0525C101.342 57.5525 99.3418 64.0525 98.8418 67.0525C98.3418 70.0525 100.342 72.0525 102.342 76.5525C104.342 81.0525 98.8418 78.5525 89.8418 73.5525M133.842 36.0525C137.342 40.5525 137.842 40.5525 143.342 40.5525C144.634 40.5525 147.388 37.8382 146.342 36.0525M140.342 34.5525C144.057 34.3756 145.769 35.0749 146.342 36.0525M146.342 36.0525C163.342 36.0525 177.842 38.5525 195.842 50.0525M203.342 94.0525C203.842 88.5525 216.342 84.0525 224.842 73.5525C231.082 65.8442 229.238 55.1718 223.662 49.0525M203.342 65.5525C208.342 57.0525 214.842 53.5525 217.842 58.0525C220.842 62.5525 217.842 66.5525 214.342 66.5525M190.842 65.5525C196.842 57.0525 207.982 45.0525 223.662 49.0525M223.662 49.0525C221.642 46.8362 219.134 45.2172 216.342 44.5525C205.842 42.0525 196.842 49.0525 186.342 57.0525C179.342 49.0525 169.842 44.5525 153.842 42.5525M128.842 44.5525C115.342 49.0525 104.342 58.5525 110.842 72.0525C117.342 85.5525 136.842 88.0525 143.342 88.0525C158.842 88.0525 166.342 87.0525 178.342 79.5525M143.842 58.5525C141.342 58.5525 143.342 61.5525 147.342 61.5525C150.542 61.5525 153.842 58.5525 150.342 58.5525M66.8418 42.5525L67.3418 38.0525M83.8418 31.0525L84.8419 28.0525" stroke="#3E3939" stroke-width="5" stroke-linecap="round" stroke-linejoin="round"/>
</svg>
