<svg width="290" height="290" viewBox="0 0 290 290" fill="none" xmlns="http://www.w3.org/2000/svg">
<g clip-path="url(#clip0)">
<path opacity="0.3" fill-rule="evenodd" clip-rule="evenodd" d="M131.549 65.3804C67.7688 69.1489 18 100.447 18 138.5C18 161.936 36.8785 182.81 66.2817 196.269C66.3192 196.217 66.3572 196.165 66.3959 196.111C67.0076 195.27 67.616 194.455 68.2137 193.654C71.8636 188.761 75.1151 184.403 76.2744 178.027C76.5723 176.388 77.1045 174.811 77.6402 173.223C78.2748 171.342 78.9144 169.446 79.1753 167.417C79.2479 166.852 79.2664 166.202 79.2857 165.529C79.3237 164.198 79.3643 162.777 79.8286 161.746C80.6369 159.949 81.9572 158.503 83.2699 157.066C83.8274 156.455 84.3836 155.846 84.8986 155.212C86.2211 153.584 89.6968 154.358 91.6567 154.795L91.7717 154.82C93.2428 155.147 94.6643 155.646 96.083 156.144C97.6173 156.683 99.1483 157.221 100.736 157.538C102.307 157.852 103.848 158.299 105.385 158.745C108.177 159.554 110.957 160.36 113.881 160.36C120.057 160.36 121.878 151.869 121.878 147.215C121.878 133.392 122.442 119.09 125.667 105.584L125.789 105.072C127.438 98.1711 129.068 91.3467 129.77 84.2592C129.988 82.0573 130.139 79.8357 130.289 77.6109C130.567 73.5133 130.845 69.4051 131.547 65.3906C131.548 65.3872 131.548 65.3838 131.549 65.3804Z" fill="#EBDCC1"/>
<path d="M88.3324 203.01C82.9679 203.01 77.691 202.679 72.3083 202.679C72.3083 204.443 72.9691 206.869 72.9691 208.633C72.9691 211.455 73.5882 213.544 74.2907 216.24C75.4003 220.498 78.3283 225.184 82.8993 226.328C88.2421 227.665 93.0176 227.3 98.4094 227.154C100.443 227.099 102.052 226.072 103.953 225.501C105.38 225.072 107.578 224.132 108.468 222.836C110.646 219.664 113.642 216.772 112.433 212.62C111.398 209.069 108.872 198.15 103.696 199.445C98.469 200.753 93.8986 203.01 88.3324 203.01Z" fill="#E1E0CD"/>
<path d="M165.099 198.262C161.55 200.705 158.568 198.82 155.976 195.793C154.261 194.935 154.642 191.98 156.121 191.218C159.91 189.267 163.899 187.044 168.055 186.134C173.268 184.993 179.021 186.809 184.088 185.263C190.325 183.359 196.833 183.583 203.185 182.558C207.639 181.839 212.256 182.839 216.697 181.813C218.855 181.315 221.029 180.748 223.154 180.107C225.153 179.503 226.955 178.318 228.939 177.656C234.621 175.76 239.596 173.85 243.938 169.504C245.773 167.667 248.102 165.879 249.669 163.839C250.829 162.33 253.066 161.804 254.24 160.335C254.937 159.463 256.316 159.026 257.178 158.211C258.797 156.68 259.769 155.65 260.606 153.472C261.19 151.952 262.074 150.711 263.036 149.387C263.763 148.386 264.138 146.446 265.666 146.446C268.485 146.446 268.486 147.924 270.236 149.55C271.323 150.561 272.962 153.682 272.122 155.269C271.371 156.689 267.399 157.557 265.992 157.557C263.747 157.557 261.447 157.388 259.3 157.866C257.791 158.201 256.377 159.945 255.147 160.825C253.582 161.944 252.188 163.387 250.83 164.747C248.034 167.545 244.648 170.952 242.868 174.515C241.57 177.114 244.12 178.616 244.12 181.16C244.12 182.746 244.677 185.507 243.63 186.788C242.216 188.517 240.817 190.168 238.243 190.238C232.477 190.394 227.613 186.247 222.247 184.754C220.796 184.351 219.451 183.694 218.003 183.302C215.758 182.695 213.664 182.721 211.329 182.721C208.69 182.721 206.161 182.565 203.621 183.375L203.613 183.377C202.765 183.647 197.4 185.356 197.69 186.461C198.316 188.843 199.693 190.22 201.19 192.053C202.304 193.416 204.136 200.247 201.934 201.095C199.261 202.124 196.409 204.512 193.537 204.272C191.682 204.117 188.761 203.28 187.117 202.475C182.559 200.241 178.584 197.163 174.403 194.341C173.311 193.604 172.154 192.927 170.812 192.852C167.046 192.643 167.404 196.676 165.099 198.262Z" fill="#F3DDC8"/>
<path d="M138.683 130.803C137.483 131.439 138.246 137.238 138.246 138.152C141.032 139.082 143.592 139.904 146.656 139.904C150.379 139.904 156.345 139.328 159.005 136.424C162.708 132.38 167.233 129.502 170.016 124.549C172.972 119.288 173.686 113.512 173.686 107.491V94.546C173.686 92.0377 174.078 89.5919 174.124 87.0998C174.145 85.9809 173.975 84.8736 174.464 83.8391C177.086 78.2979 182.962 72.7622 188.733 70.7233C191.25 69.8341 193.626 68.9887 196.001 67.7302C197.422 66.9771 198.517 65.6002 199.963 64.7859C204.278 62.3559 212.285 62.6505 217.003 63.3502C219.944 63.7864 222.858 63.9807 225.753 64.7859C228.304 65.495 230.658 66.5878 233.192 67.2922C240.078 69.2072 245.313 73.6837 250.231 78.6074C255.419 83.8005 260.189 90.1227 264.038 96.3466C265.758 99.1283 267.784 101.651 270.917 98.8287C272.151 97.7173 273.456 96.8751 274.612 95.641C275.795 94.3775 277.537 93.7595 278.793 92.5019C279.422 91.8721 280.094 90.9454 280.883 90.5066C283.595 88.9985 282.634 85.0508 282.634 82.3304C282.634 79.5144 282.738 76.6754 282.634 73.8623C282.537 71.2532 281.758 68.5422 281.758 65.8809C281.758 60.8402 278.025 55.3391 275.852 51.2563C271.143 42.4121 267.569 36.0964 257.038 36.0964C255.011 36.0964 253.241 36.9724 251.228 36.9724C249.056 36.9724 245.623 36.7875 243.595 37.5078C241.032 38.4185 238.967 40.0166 236.254 40.6955C234.274 41.1912 232.3 41.1757 230.323 41.5715C225.823 42.4726 221.252 42.6665 216.662 42.6665C211.74 42.6665 205.223 41.5078 200.595 43.5669C198.195 44.6349 195.765 45.6266 193.327 46.6086C192.257 47.0394 189.844 47.3931 189 48.1173C186.659 50.1266 183.943 51.6708 181.757 53.86C179.942 55.6769 177.418 57.0962 174.902 57.6561C172.094 58.2806 167.221 59.1523 165.033 61.1601C163.699 62.3844 163.549 65.6065 162.529 67.1949C161.513 68.7765 161.054 70.6427 159.685 72.013C158.466 73.2337 158.056 74.9583 156.841 76.174C155.691 77.3256 155.31 77.2614 155.31 79.0211C155.31 80.7805 155.783 80.8954 154.969 82.5251C154.255 83.9565 151.809 85.0455 151.809 86.6862C151.809 88.985 152.685 91.3914 152.685 93.9133V99.6317C152.685 101.292 150.941 103.448 152.15 104.961C152.652 105.589 153.56 108.159 153.56 109.024V112.529C153.56 114.241 153.51 116.024 153.025 117.663C152.483 119.494 153.097 121.491 152.466 123.26C151.933 124.754 151.687 126.164 151.032 127.64C150.703 128.379 150.411 130.047 149.962 130.608C148.393 132.572 145.031 130.268 143.277 130.268C141.803 130.268 140.015 130.097 138.683 130.803Z" fill="#F3DDC8"/>
<path d="M110.551 207.233C110.825 210.935 108.968 213.109 105.07 213.109C93.2057 214.817 72.1314 218.499 81.1471 225.305C82.5551 226.418 84.7683 227.923 86.5866 228.125C88.8205 228.374 90.9292 228.861 93.2057 228.861C96.1817 228.861 98.9799 228.602 101.823 227.722C103.563 227.184 105.084 226.352 106.624 225.361C107.754 224.634 109.123 224.62 110.301 223.972C114.055 221.905 117.525 217.942 120.334 214.817C123.186 211.645 119.113 207.053 117.559 204.357C115.943 201.555 114.36 199.193 111.87 197.106C110.237 195.737 109.092 194.143 107.804 192.466L107.79 192.448C105.476 189.438 102.531 185.604 98.3261 185.604C96.6629 185.604 93.6306 186.904 95.5786 188.855C96.8392 190.116 99.1051 191.428 100.81 191.855C102.073 192.171 103.166 193.057 104.446 193.341C105.208 193.511 105.32 193.77 105.32 194.606C105.32 196.609 106.795 198.088 107.679 199.856C108.758 202.016 110.37 204.777 110.551 207.233Z" fill="#C4C3A6"/>
<path d="M161.728 193.281C160.423 194 159.967 195.169 159.725 196.57C158.968 196.192 158.934 195.03 158.934 194.363C158.934 193.726 159.011 193.505 159.338 192.965C159.75 192.286 159.725 191.387 159.725 190.626C159.725 188.425 161.278 185.8 162.993 184.522C168.241 180.613 174.911 179.892 181.23 179.668C188.697 179.403 196.217 179.577 203.658 178.832C207.535 178.444 211.293 178.05 215.193 178.05C216.468 178.05 217.685 177.718 218.935 177.487C221.299 177.049 223.673 176.517 225.963 175.781C229.599 174.611 233.456 173.151 236.856 171.401C242.085 168.71 247.162 166.058 251.668 162.22C253.977 160.253 256.215 158.196 258.081 155.809C258.762 154.938 259.429 154.102 260.013 153.162C260.579 152.251 261.359 151.541 261.841 150.576C262.737 148.782 263.554 147.5 265.126 146.241C266.377 145.239 270.851 147.273 269.229 148.536C268.453 149.14 268.043 150.296 267.375 151.016C266.019 152.478 264.09 154.053 264.09 156.196C264.09 157.355 264.284 158.737 262.772 158.737C261.926 158.737 261.092 158.905 260.264 159.071L260.171 159.089C259.331 159.258 258.533 159.647 257.694 159.845C257.358 159.925 256.477 159.835 256.218 160.039C255.945 160.254 255.788 160.891 255.603 161.182C254.788 162.469 253.562 163.395 252.722 164.656C252.096 165.595 251.297 166.275 250.411 166.969C249.524 167.664 248.652 168.407 247.802 169.15C246.412 170.366 244.769 171.475 243.638 172.949C242.616 174.28 242.268 176.098 242.268 177.733C242.268 178.616 242.162 178.447 241.468 178.533C240.399 178.667 239.358 179.058 238.315 179.316C236.755 179.701 235.387 180.002 233.922 180.67C231.609 181.725 230.383 183.092 229.547 185.481C229.334 186.092 229.775 186.735 228.985 186.756C228.097 186.779 226.262 187.369 225.506 186.756C224.422 185.878 222.876 185.185 221.632 184.54C220.556 183.981 219.463 183.472 218.399 182.887C217.84 182.579 217.285 182.41 216.642 182.491C214.043 182.816 211.513 183.387 208.903 183.713C207.507 183.888 206.222 184.403 205.011 185.12C203.967 185.739 201.313 186.992 201.014 188.339C200.888 188.907 201.344 189.8 200.61 189.641C200.005 189.51 199.345 189.638 198.73 189.57C197.927 189.482 197.116 189.281 196.323 189.131C192.906 188.484 189.167 189.27 185.877 190.168C183.754 190.748 181.65 192.058 179.737 193.123C178.463 193.832 177.365 194.699 175.889 194.39C174.517 194.102 173.378 193.26 172.068 192.851C171.379 192.635 170.739 192.334 170.038 192.103C168.756 191.681 167.554 191.616 166.208 191.663C164.846 191.711 162.91 192.63 161.728 193.281Z" fill="#E2C2A4"/>
<path d="M229.225 72.4392C232.868 69.5216 230.746 67.2413 234.518 68.9197C236.063 65.8267 256.075 83.7131 257.825 86.0031C264.485 94.7225 264.503 112.366 254.783 119.102C252.48 120.698 249.227 122.039 247.712 124.52C245.882 127.517 244.949 130.905 242.893 133.853L242.819 133.958C236.552 142.941 230.898 151.045 221.64 157.224C214.057 162.284 204.359 169.736 194.699 169.997C185.771 170.239 177.253 174.691 169.575 178.934C160.17 184.132 152.951 192.218 143.859 197.758C139.736 200.27 135.458 203.547 131.811 206.695C129.189 208.957 127.947 211.282 124.305 211.282C120.647 211.282 119.826 209.432 118.222 206.22C117.021 203.817 114.706 201.795 113.797 199.339C113.105 197.468 112.358 195.788 111.111 194.199C108.449 190.806 105.376 188.399 103.842 184.233C102.909 181.696 109.913 180.38 111.19 179.567C115.102 177.075 122.432 175.142 125.016 171.262C128.084 166.655 129.739 166.438 135.287 166.438C137.974 166.438 139.908 161.528 140.817 159.162C141.904 156.332 143.453 152.963 144.925 150.383C147.305 146.214 150.854 144.511 155.038 142.632C161.387 139.78 167.749 136.887 173.723 133.299C177.595 130.973 182.744 128.75 186.166 125.865C188.23 124.125 191.515 123.145 193.83 121.436C197.245 118.914 200.286 115.745 203.587 113.052C210.229 107.635 216.339 102.063 220.85 94.703C223.052 91.1102 222.43 87.2883 222.43 83.1559C222.43 76.871 224.419 76.288 229.225 72.4392Z" fill="#EBDCC1"/>
<path d="M115.693 210.571C118.024 214.139 116.825 218.154 116.197 222.162C121.263 224.698 130.529 235.936 135.68 230.78C140.445 226.01 136.526 218.122 140.16 213.443C141.38 211.874 141.79 209.505 143.181 207.648C145.427 204.65 146.725 201.078 148.618 197.871C150.873 194.051 153.285 192.333 156.975 189.958C164.897 184.86 171.233 184.969 180.586 184.969C188.226 184.969 195.856 185.336 203.392 183.86C209.112 182.74 215.062 183.117 220.509 180.886C230.418 176.829 239.813 172.131 249.407 167.329C253.932 165.065 254.666 163.44 256.656 158.459C258.818 153.05 261.991 148.455 264.359 143.189C268.402 134.194 275.932 122.123 271.659 112.346C268.948 106.142 266.33 99.9701 263.05 93.9504C262.326 92.6212 260.041 98.7649 259.576 99.6957C254.761 109.336 248.771 118.205 243.97 127.818C240.341 135.083 233.179 136.806 228.111 141.879C223.431 146.563 216.533 149.982 210.44 152.311C207.029 153.615 204.609 156.205 200.925 156.847C197.501 157.443 194.401 157.754 190.907 157.754C180.502 157.754 177.725 156.814 170.568 164.81C167.386 168.364 163.701 174.879 158.385 175.847C155.176 176.431 152.636 175.01 150.833 178.619C149.594 181.1 149.007 182.475 146.554 184.112C145.395 184.885 143.719 186.046 142.677 186.985C141.827 187.75 140.682 187.241 139.959 187.892C137.167 190.407 137.257 193.011 135.629 195.804C133.741 199.045 131.719 201.583 129.085 204.221C125.773 207.536 121.046 208.555 116.247 208.555C113.788 208.555 114.779 209.171 115.693 210.571Z" fill="#C2AC85"/>
<path d="M100.612 168.361C97.4451 166.776 93.1944 167.393 89.7784 167.393C91.6455 168.327 92.0999 173.376 92.0999 175.161C92.0999 176.129 92.1441 181.581 91.5625 181.789C89.7476 182.438 87.5624 179.274 86.5971 178.066C85.6331 176.86 84.2869 176.031 83.4158 174.752C82.5124 173.426 82.3933 172.016 82.0401 170.492C81.6676 168.883 81.4676 167.094 81.6747 165.435C82.091 162.101 84.6178 159.378 87.8438 158.57C93.5199 157.15 98.2541 162.358 103.793 162.358C108.031 162.358 111.929 160.016 116.089 159.259C118.546 158.812 121.149 158.945 123.462 157.903C125.447 157.009 127.308 155.42 129.33 154.697C131.549 153.904 133.369 152.805 135.069 151.104C136.856 149.314 137.388 147.885 138.379 145.681C139.102 144.072 140.929 139.931 142.399 139.032C144.938 137.478 144.886 141.9 144.699 143.4C144.471 145.227 143.883 147.546 142.764 149.016C141.398 150.811 138.773 151.929 136.982 153.363C135.287 154.721 134.402 156.464 133.027 158.097C131.363 160.073 128.978 161.521 126.535 162.336C124.615 162.977 122.602 163.351 120.732 164.079C119.411 164.593 118.053 164.371 116.777 164.768C112.337 166.147 110.052 170.104 105.234 170.104C103.753 170.104 101.943 169.027 100.612 168.361Z" fill="#EBDCC1"/>
<path d="M183.995 91.6714C181.396 94.4392 178.823 97.2064 175.935 99.6774C175.935 95.4521 174.653 86.9374 176.782 83.1316C178.654 79.7837 179.431 77.0852 182.646 74.7488C184.326 73.5282 185.693 71.9307 187.492 70.8714C188.887 70.0499 190.402 69.5546 191.867 68.8777C195.091 67.3884 198.485 66.6375 201.887 65.6439C204.559 64.8638 207.834 64.3567 210.606 64.3567C214.327 64.3567 218.257 63.997 221.944 64.5137C224.099 64.8157 226.146 65.4489 228.028 66.5544C229.006 67.129 230.73 67.5728 231.321 68.5952C231.792 69.41 231.541 70.7366 231.541 71.6406C231.541 72.6304 231.185 74.077 230.694 74.9372C230.413 75.4301 228.745 74.8116 228.295 74.8116C225.823 74.8116 223.571 73.6814 221.097 73.6814C216.668 73.6814 212.168 75.2111 208.023 76.6206L207.987 76.6326C201.548 78.8219 195.991 82.6474 190.048 85.8317C187.617 87.1339 185.851 89.6947 183.995 91.6714Z" fill="#EFEBE3"/>
<path d="M156.941 137.666C156.974 137.659 157.007 137.652 157.041 137.645C157.415 137.233 158.221 136.275 158.458 136.091C159.385 135.369 160.055 134.372 160.846 133.517C161.627 132.672 162.529 131.556 163.53 130.971C165.722 129.691 167.021 127.766 167.928 125.373C169.54 121.117 170.075 116.305 170.85 111.843C171.538 107.882 171.775 103.793 172.367 99.8031C172.883 96.3333 173.621 92.9144 173.941 89.4232C174.242 86.14 175.119 82.7497 176.034 79.5919C176.526 77.8964 177.577 75.5161 178.844 74.2472C181.314 71.7751 185.484 70.2906 188.693 69.1698C191.594 68.1568 194.374 66.612 197.404 66.0192C199.396 65.6296 201.453 65.7661 203.474 65.7661L203.537 65.7661C205.342 65.7661 207.06 65.7662 208.785 65.1472C210.343 64.5879 211.087 63.4875 212.831 63.4875C214.578 63.4875 215.107 64.9876 215.107 66.3849C215.107 67.8218 213.132 68.3729 212.086 68.8041C209.095 70.0373 206.045 71.1545 203.08 72.4469C200.659 73.5025 196.957 74.9735 195.381 77.2149C194.353 78.6778 193.232 79.8725 191.841 81.0124C190.267 82.301 188.583 83.3765 187.035 84.6974C186.29 85.3343 186.159 86.6642 185.771 87.5385C185.052 89.1582 184.891 91.0937 184.746 92.8362L184.745 92.841C184.554 95.1434 183.726 97.5658 183.116 99.775C182.108 103.42 182.075 107.522 180.825 111.097C180.035 113.359 179.299 116.042 178.128 118.116C176.436 121.112 173.873 123.659 171.609 126.217C169.764 128.301 167.604 130.292 165.539 132.152C162.987 134.451 160.499 136.9 157.041 137.645C156.847 137.857 156.769 137.924 156.941 137.666Z" fill="#C2AC85"/>
<path d="M119.323 188.237C109.885 175.371 102.171 168.506 97.3435 164.776M92.893 181.648C91.2282 176.958 89.6661 171.602 101.31 183.443C110.625 192.916 121.673 209.539 124.636 214.654M137.342 231.758C139.802 229.062 140.149 227.921 139.342 223.192C138.536 218.463 140.625 214.858 145.007 210.749C149.39 206.641 149.812 207.217 150.966 201.934C152.12 196.651 155.529 194.441 157.451 193.028M149.25 197.578C145.46 186.764 130.396 165.019 116.989 158.84M97.3435 164.776C94.8199 162.826 93.0856 161.733 92.3071 161.087C90.0397 159.206 83.6717 161.817 82.2873 166.383C82.1963 166.683 82.1418 167.018 82.1237 167.39M97.3435 164.776C104.747 165.543 105.605 165.503 110.026 162.253C114.447 159.004 115.356 158.631 120.788 158.777C126.221 158.923 128.963 156.611 132.23 154.209M130.784 221.204C132.885 225.278 134.266 228.775 134.626 231.685C135.473 238.541 126.019 232.023 115.031 219.932M103.809 181.606C95.6106 172.85 83.1019 159.871 82.1237 167.39M82.1237 167.39C81.9509 170.941 84.4811 176.709 90.9739 187.046M160.526 190.767C161.674 190.396 162.926 189.2 163.409 188.648M163.409 188.648C164.327 188.959 166.481 189.287 167.752 188.116M163.409 188.648C165.216 184.659 164.18 174.777 156.52 164.737M167.752 188.116C169.341 186.652 172.762 187.686 175.12 185.657C176.208 186.335 178.399 186.498 179.552 185.651M167.752 188.116C170.994 183.663 170.65 175.934 163.9 165.521M179.552 185.651C180.36 185.944 182.691 186.3 184.088 184.978C185.561 185.373 188.316 186.305 192.032 182.095C195.748 177.885 193.828 165.991 187.668 153.963C182.079 143.05 176.057 135.863 166.407 128.347M179.552 185.651C182.82 183.249 186.216 177.796 180.491 165.151C174.766 152.507 166.901 143.801 162.84 140.282M195.004 184.936C199.398 184.071 204.857 181.833 205.23 173.871C205.603 165.91 201.825 153.904 195.075 143.492M204.972 184.409C218.476 183.056 234.965 178.918 245.344 171.288C255.723 163.659 265.539 150.825 269.488 134.026C272.04 123.174 272.099 112.795 267.023 101.246M205.555 65.4206C215.647 63.7182 239.389 64.4386 253.623 80.9395C259.921 88.2401 264.243 94.9189 267.023 101.246M267.023 101.246C279.232 92.8628 283.512 89.4211 283.552 81.4091M136.856 149.626C137.061 148.293 138.104 147.428 138.599 147.162C138.608 146.368 138.971 144.524 140.355 143.506C140.33 141.455 141.496 139.415 142.982 138.619M191.5 69.2481C188.714 70.6825 182.51 74.3665 176.01 79.4561M229.227 171.901C230.626 157.272 226.234 140.396 210.876 119.459C198.59 102.709 183.432 96.5646 177.39 95.5863" stroke="#3E3939" stroke-width="5" stroke-linecap="round" stroke-linejoin="round"/>
<path d="M25.8743 230.918C26.6008 227.282 25.89 223.544 25.89 219.878C26.1862 220.471 28.6994 221.309 29.2784 221.857C30.2444 222.77 31.9928 223.721 33.2315 224.134C34.9473 224.706 36.1697 226.493 37.6081 227.494C39.8039 229.024 42.2735 230.101 44.8084 230.902C51.1175 232.897 59.3901 231 64.8563 235.299C66.6355 236.699 66.4928 239.252 66.2054 241.298C65.6627 245.161 65.4892 249.39 63.7112 252.95C62.9733 254.427 61.9364 255.946 60.6208 256.97C59.5762 257.784 58.3977 258.005 57.2481 258.619C53.8275 260.445 51.1818 261.474 47.1928 261.43C43.0301 261.384 38.3689 259.793 34.4237 258.541C30.847 257.405 27.3203 256.069 24.7449 253.233C23.9212 252.326 23.0585 251.451 22.2193 250.563C21.5811 249.888 20.1971 248.787 19.9917 247.862C19.6306 246.235 19.9004 243.852 20.5879 242.366C22.3629 238.528 25.0292 235.148 25.8743 230.918Z" fill="#E1E0CD"/>
<path d="M38.5988 241.575C34.274 244.874 32.2739 250.976 32.2739 256.087C35.1856 257.544 38.4833 258.265 41.74 258.382C45.0979 258.502 48.3919 258.764 51.7578 258.764C54.7277 258.764 56.554 255.443 59.0165 254.175C61.8544 252.714 62.8369 250.2 62.8369 247.078C62.8369 243.498 63.067 239.024 59.5684 236.795C58.0376 235.82 54.3763 236.627 52.7341 237.05C50.3479 237.664 48.1931 238.413 45.6452 238.792C43.1905 239.157 40.5989 240.05 38.5988 241.575Z" fill="#C4C3A6"/>
<path d="M60.6461 228.95C55.9934 223.985 49.8502 218.721 45.2458 217.327C40.6414 215.932 25.4379 212.103 23.4191 214.294C21.4003 216.484 12.0359 237.37 15.9947 241.583C19.9534 245.795 23.967 255.421 31.941 256.249C39.9149 257.076 53.2761 261.653 56.5709 252.944C61.06 242.041 62.4413 238.558 62.5707 238.179M37.3245 234.926C32.9964 244.614 31.2576 250.196 30.9291 251.777M25.8666 217.353C29.0618 221.588 33.0904 228.41 38.9758 230.095C45.0515 231.835 55.6433 233.784 61.8449 233.803M41.5979 222.424C38.5623 222.019 38.4552 223.252 40.9181 224.413C43.3809 225.574 48.2419 225.726 45.7735 223.22C43.8862 221.304 38.5764 220.12 37.9037 221.159M24.569 225.794C23.0293 228.441 24.5337 230.543 25.1164 228.838C25.6991 227.134 26.3998 222.296 22.9532 225.876M26.8345 240.535C28.5684 237.32 28.9138 241.884 27.86 243.108C26.8062 244.333 22.625 244.488 24.2759 239.658M43.7535 239.348C46.423 238.042 46.8736 241.369 45.0637 242.019C43.2539 242.668 39.3643 241.969 40.6194 239.227M44.3345 250.655C44.7441 246.67 47.7262 245.524 47.2956 248.496C46.5946 253.334 42.989 252.733 42.7259 249.787M53.9047 241.239C55.296 241.504 56.4646 241.926 54.5562 243.049C52.1707 244.453 51.2413 241.598 52.3929 240.087C53.3141 238.879 54.3025 238.836 54.6816 238.966" stroke="#3E3939" stroke-width="5" stroke-linecap="round" stroke-linejoin="round"/>
<path d="M103.062 185.422C99.0853 185.422 93.5619 186.384 89.2925 188.603C85.023 190.822 71.4664 198.704 71.5482 201.683C71.6301 204.662 79.488 226.162 85.2599 226.412C91.0319 226.662 100.618 230.75 106.905 225.771C111.831 221.869 119.96 216.812 121.797 210.912M95.8916 206.74C99.5481 216.702 102.195 221.914 103.062 223.275M75.4338 202.163C80.6746 202.963 88.3165 205.033 93.7058 202.127C99.2693 199.127 103.959 196.774 108.413 192.454M90.2347 194.802C87.7785 196.633 88.5614 197.591 91.1346 196.701C93.7078 195.811 97.2945 192.524 93.7796 192.454C91.0922 192.401 86.4643 195.263 86.707 196.477M80.3908 209.115C81.1334 212.085 83.6765 212.539 82.9051 210.912C82.1338 209.284 79.2622 205.33 79.2904 210.302M92.291 218.086C91.2913 214.573 94.7208 217.6 94.8202 219.213C94.9196 220.826 92.0333 223.859 89.8478 219.247M103.579 205.414C104.58 202.614 107.223 204.681 106.379 206.411C105.536 208.141 102.264 210.358 101.25 207.517M111.879 213.105C109.394 209.965 110.73 207.061 112.494 209.49C115.365 213.443 112.365 215.533 110.122 213.607M112.166 199.675C113.348 198.892 114.478 198.378 113.895 200.516C113.166 203.188 110.51 201.793 110.281 199.907C110.098 198.397 110.776 197.676 111.138 197.505" stroke="#3E3939" stroke-width="5" stroke-linecap="round" stroke-linejoin="round"/>
<path d="M267.355 120.105C267.15 121.069 266.722 121.051 266.038 121.637C265.353 122.224 265.168 122.672 264.699 124.022C264.229 125.371 263.321 123.745 261.621 124.169C259.866 124.571 260.92 126.779 261.322 128.602C261.725 130.425 263.125 129.234 263.765 128.507C264.406 127.78 265.866 127.167 266.716 126.648C267.566 126.128 268.353 125.367 269.465 126.03C269.791 126.222 270.114 126.752 270.464 126.37C270.815 125.988 270.846 124.739 270.048 123.772C269.226 122.765 267.31 124.887 266.211 124.999C265.113 125.111 268.447 122.513 269.256 122.131C270.065 121.748 269.458 119.659 268.514 118.726C267.965 118.167 267.6 118.389 267.479 119.079L267.355 120.105ZM267.324 120.124C266.223 118.728 265.199 118.962 264.042 119.39L267.324 120.124ZM267.324 120.124C267.327 119.787 267.415 119.453 267.449 119.097L267.324 120.124ZM264.042 119.39C263.051 119.884 260.86 120.664 259.855 119.153C258.851 117.642 258.76 117.082 259.221 115.514C259.652 113.964 261.2 113.018 262.749 112.686C264.297 112.355 265.562 111.694 266.966 113.52C268.346 115.305 267.59 116.047 266.905 117.248C266.604 117.712 266.386 117.901 266.035 118.283L264.042 119.39ZM264.042 119.39C264.705 119.041 265.367 118.692 265.98 118.261L264.042 119.39ZM267.473 119.138C267.035 118.623 266.554 118.246 265.98 118.261L267.473 119.138ZM265.108 137.753C265.287 138.594 265.298 139.706 265.003 140.11C264.641 140.611 263.786 141.19 263.457 140.104C263.159 139 263.242 136.88 262.779 135.709C262.315 134.539 261.19 131.256 262.352 131.385C263.514 131.513 263.392 133.433 264.424 133.417C265.225 133.431 266.039 132.99 266.911 132.848C267.612 132.699 268.429 131.92 268.631 131.293C268.849 130.489 270.111 128.935 270.011 130.002C269.912 131.07 270.527 132.763 269.981 133.097C269.434 133.431 269.517 132.542 268.849 132.95C268.333 133.265 267.477 133.844 266.693 134.268C266.273 134.468 264.987 134.751 264.835 135.459C264.592 136.223 264.968 137.112 265.108 137.753ZM262.797 127.533C263.219 126.996 263.558 126.732 262.833 126.225C262.107 125.718 261.602 125.915 261.764 126.934C261.927 127.953 262.313 128.108 262.797 127.533ZM261.34 117.965C260.134 116.465 260.855 115.801 261.611 115.059C262.337 114.336 263.116 113.357 264.275 113.823C265.404 114.307 265.528 115.126 265.293 116.108C265.058 117.091 263.797 117.414 263.228 117.986C262.66 118.557 261.73 118.399 261.34 117.965ZM257.988 112.465C257.032 112.881 256.569 112.941 255.749 111.596C254.954 110.292 255.037 109.403 255.99 108.709C256.942 108.015 258.035 108.577 259.335 109.069C260.635 109.56 261.855 108.759 262.244 107.961C262.634 107.164 262.744 104.132 263.335 105.17C263.925 106.207 264.121 108.1 263.31 108.82C262.498 109.54 261.286 109.945 260.522 110.468C259.757 110.992 259.158 111.582 258.92 112.286C258.628 112.968 258.346 112.301 257.988 112.465ZM257.085 110.779C256.47 109.701 257.182 108.819 257.916 108.929C258.65 109.04 258.984 109.451 258.868 110.081C258.727 110.67 257.436 110.397 257.085 110.779ZM260.431 104.987C259.581 104.276 259.311 104.106 258.405 104.603C257.555 105.123 254.687 105.478 254.292 106.335C253.898 107.191 254.411 107.828 253.735 108.018C253.083 108.248 250.925 108.057 251.309 107.32C251.692 106.582 253.459 106.061 253.235 105.079C253.012 104.097 252.568 102.411 251.593 102.727C250.594 103.002 250.801 103.547 249.12 103.456C247.409 103.384 248.298 102.449 249.703 101.814C251.108 101.179 252.778 100.773 253.705 100.038C254.633 99.3035 254.451 98.7996 254.619 97.9137C254.788 97.0277 255.652 96.0521 256.494 97.1595C257.335 98.2668 256.742 99.4126 255.905 100.092C255.038 100.789 253.363 101.254 254.326 102.903C255.319 104.532 255.88 103.742 257.1 103.556C258.32 103.369 259.242 102.694 259.987 102.071C260.733 101.447 260.578 103.108 260.691 103.43C260.829 103.793 260.911 105.365 260.431 104.987ZM250.36 97.8325C249.201 97.9819 247.142 98.5694 246.778 96.9464C246.414 95.3235 247.901 95.0292 248.763 94.3909C249.624 93.7526 251.507 92.6019 252.254 94.7174C252.947 96.8108 251.727 97.6125 250.36 97.8325ZM249.974 96.4467C249.704 96.8917 248.097 97.5382 247.849 96.5155C247.6 95.4928 248.691 95.1619 249.425 95.2724C250.214 95.4051 250.504 95.6753 249.974 96.4467Z" stroke="#3E3939" stroke-width="3" stroke-linecap="round" stroke-linejoin="round"/>
<path d="M205.145 76.4275C205.363 76.3088 205.539 76.2152 205.68 76.1406M209.218 69.5542C209.4 69.6209 209.907 69.9347 210.347 70.181C210.787 70.4274 210.868 70.5855 210.255 71.1337C209.643 71.6819 209.393 71.5476 209.464 72.4311C209.519 73.1077 209.545 72.8939 209.188 72.9118M209.188 72.9118C209.079 72.9173 208.934 72.9445 208.743 73.0254C207.929 73.371 208.151 73.7095 208.197 74.0265C208.21 74.1136 208.258 74.2362 208.306 74.3652M209.188 72.9118C208.663 72.7407 207.636 72.5525 207.726 73.1684C207.838 73.9383 208.315 74.0246 208.306 74.3652M208.306 74.3652C208.431 74.7061 208.551 75.0912 207.99 74.98C207.735 74.9292 207.42 74.9086 207.117 74.9236M207.117 74.9236C206.504 74.9537 205.936 75.1288 205.989 75.4924C206.057 75.9619 206.574 75.667 205.68 76.1406M207.117 74.9236C206.568 74.7177 205.96 74.1099 205.49 74.8385C205.019 75.5671 206.426 75.7199 205.68 76.1406M204.602 76.6579C204.507 76.5377 204.108 76.5979 203.269 77.8005M239.92 93.8001C240.151 93.7336 240.407 93.6585 240.694 93.5683C241.346 93.3627 241.856 93.3161 242.271 93.3136C242.979 93.3094 243.41 93.4332 243.8 93.1163C244.09 92.8803 243.948 92.6491 243.714 92.5276C243.48 92.406 243.085 92.1692 242.876 91.9213C242.666 91.6734 242.735 91.3556 242.296 91.1093C241.946 92.2677 241.77 92.9111 240.633 93.1529M239.92 93.8001C239.647 93.8786 239.24 93.9679 239.031 94.0331C238.326 94.2533 238.069 94.1188 237.747 94.7217C237.249 95.6545 236.867 96.2014 236.709 96.7011C236.579 95.8081 236.837 95.3024 237.424 94.0899C237.906 93.3084 238.988 91.5601 239.466 90.8187C239.842 90.2313 240 89.8859 239.781 89.2906C239.399 88.2506 238.967 87.6642 238.676 87.6435C238.384 87.6229 239.044 87.0063 240.111 87.9963C240.891 88.7196 241.433 89.0242 241.509 89.4712C241.537 89.6361 241.495 89.8054 241.317 89.9374C240.162 90.7935 239.046 91.5678 240.082 92.1445C240.224 92.2417 240.319 92.3579 240.434 92.4282C241.088 92.9971 240.359 93.5496 239.92 93.8001ZM230.275 93.708C230.162 92.9381 230.238 92.6656 230.863 92.208C231.489 91.7503 232.165 92.0404 232.899 91.5366C233.633 91.0329 234.815 90.4354 235.109 89.6854C235.404 88.9354 234.921 89.188 235.313 87.916C235.626 86.8984 235.595 86.2093 235.54 85.9919M235.54 85.9919C235.548 85.6622 235.537 85.2029 235.988 85.0327C237.026 84.6402 237.428 84.2294 236.024 84.4884C234.13 84.8377 234.449 86.7433 234.568 87.5585C234.687 88.3736 234.306 88.9203 234.138 90.1454C233.971 91.3706 234.558 90.2559 231.944 91.3165C229.331 92.3772 229.471 92.9429 229.669 94.3015C229.511 94.8013 231.532 92.838 232.314 92.266C233.095 91.694 234.951 90.1852 236.829 88.4269C238.706 86.6686 240.256 87.406 238.952 86.3723C237.908 85.5453 237.357 85.7184 237.211 85.9083C237.241 86.9054 237.803 87.1962 236.869 87.8809C235.175 88.8882 235.65 88.2537 235.701 87.4147C235.729 86.9396 235.53 86.4224 235.54 85.9919ZM227.931 80.8041C228.345 80.4839 228.679 81.9776 229.713 82.7412C230.747 83.5047 232.059 84.1984 231.921 84.834C231.622 85.1534 230.947 84.478 230.555 84.1634C230.163 83.8488 228.873 82.5203 228.136 82.208C227.398 81.8958 227.516 81.1243 227.931 80.8041ZM227.931 80.8041C227.543 80.5197 227.264 80.6636 227.523 81.1696M233.439 81.4009C232.99 81.88 229.22 85.6913 228.717 86.1934M225.129 84.5278C225.397 84.5439 225.681 84.5579 225.944 84.5805C226.184 83.8535 226.539 83.1257 227.592 82.4384C228.646 81.7512 228.578 81.3472 228.688 81.2522C228.799 81.1573 229.526 80.2718 230.321 79.7903C231.115 79.3088 231.143 79.1047 230.162 78.7034C229.181 78.3022 229.706 79.1372 229.093 80.0708C228.479 81.0043 227.447 81.4421 226.875 82.262C226.302 83.082 225.937 82.9485 224.496 83.7517C223.366 84.3825 224.147 84.469 225.129 84.5278ZM225.129 84.5278C225.573 84.0163 225.07 83.9412 226.812 82.6251C228.554 81.3091 230.6 79.3362 230.567 79.1086M224.769 81.6645C224.914 82.6609 223.878 82.2827 221.865 82.3192C221.017 82.4383 222.212 81.9315 223.122 81.4492C224.033 80.9669 224.729 81.4408 224.164 80.286C223.599 79.1312 223.895 79.6305 224.656 79.308C225.416 78.9854 224.813 78.8082 225.9 78.3474C226.986 77.8866 226.918 77.8191 226.033 77.2811C225.147 76.7432 226.049 76.601 226.869 76.6861C227.688 76.7711 227.766 77.6999 227.534 78.0868C227.302 78.4737 226.076 78.3689 225.999 79.0267C225.922 79.6846 226.389 79.7267 225.303 80.1875C224.217 80.6483 224.623 80.6682 224.769 81.6645ZM224.769 81.6645C224.816 81.9139 223.766 82.1381 223.235 82.2191C224.166 81.4873 224.426 80.8936 225.087 79.8943C225.749 78.895 226.732 78.1868 227.123 77.6363C227.513 77.0858 226.954 77.2748 226.928 77.0936M222.504 76.4214C221.973 77.1277 220.6 77.9985 220.639 78.6556C220.677 79.3127 221.217 79.853 220.356 79.8816C219.197 79.8442 218.621 79.8482 219.052 78.8479C219.482 77.8476 219.808 77.7093 221.201 76.9744C222.593 76.2395 222.224 75.29 222.072 74.2484C221.92 73.2068 221.314 72.2136 220.63 71.8783C219.947 71.543 222.583 71.8195 222.984 73.3808C223.239 74.3764 223.19 75.0515 222.983 75.5932M222.504 76.4214C223.009 76.0628 224.175 75.2993 224.794 75.1137C225.567 74.8817 225.351 74.5885 224.675 74.2985C223.998 74.0085 224.174 74.0299 223.995 74.7792C223.852 75.3785 223.261 75.5716 222.983 75.5932M222.504 76.4214C222.697 76.1655 222.865 75.9009 222.983 75.5932M216.811 76.2396C216.71 76.535 216.44 76.7578 215.793 76.6716C214.832 76.5435 215.27 76.1933 215.557 75.8451M216.811 76.2396C216.887 76.0181 216.868 75.7558 216.841 75.5525M216.811 76.2396L216.184 76.0424M215.557 75.8451C215.656 75.7245 215.737 75.6041 215.736 75.4933C215.734 75.3333 215.856 75.1473 215.998 74.9176M215.557 75.8451L216.184 76.0424M216.841 75.5525C216.832 75.4847 216.822 75.4235 216.814 75.3726C216.755 74.965 216.58 74.5582 217.77 73.6207C218.96 72.6831 219.206 72.0014 218.544 71.4166C218.548 72.2326 218.604 71.8242 217.658 72.8508C216.712 73.8773 216.643 72.2231 216.207 71.2061C215.811 70.2845 214.506 71.2491 213.866 72.8241M216.841 75.5525L216.419 75.235M215.998 74.9176C216.239 74.5291 216.537 74.0155 216.395 73.2901C216.169 72.1357 216.105 71.2974 214.88 72.3939C213.656 73.4903 213.994 73.828 213.895 74.7353C213.797 75.6427 213.381 76.3482 212.913 76.3061C212.446 76.264 212.768 75.3097 212.55 73.8152C212.332 72.3207 212.178 71.6644 211.536 71.2155C211.356 71.0899 211.376 71.0001 211.503 70.9907M215.998 74.9176L216.419 75.235M216.184 76.0424L216.419 75.235M211.503 70.9907C211.831 70.9665 212.868 71.4737 213.047 73.2678C213.295 75.7595 213.155 75.1937 213.691 73.3314C213.741 73.1567 213.8 72.9871 213.866 72.8241M211.503 70.9907C211.855 71.032 213.164 71.4388 213.866 72.8241M199.307 69.6223C200.215 67.9388 199.647 68.3681 198.956 68.3728C198.265 68.3776 197.652 68.9258 197.151 70.6293C196.867 71.4478 197.113 70.7934 197.423 71.3353C197.733 71.8772 198.399 71.3059 199.307 69.6223ZM199.307 69.6223C199.649 68.804 200.53 68.09 199.459 67.8707C198.389 67.6514 197.988 68.8569 197.105 70.3122M199.307 69.6223C198.809 70.5551 197.712 72.3669 197.312 72.1521M228.2 86.6049C227.93 86.3348 227.375 86.0893 228.856 85.1724C230.338 84.2556 230.693 83.5278 231.149 83.094C231.604 82.6602 232.833 80.4077 233.61 80.9917C234.388 81.5757 233.132 82.0603 232.362 83.1083C231.592 84.1563 230.69 84.2985 229.866 85.3695C229.041 86.4405 228.523 86.9972 228.2 86.6049ZM203.391 74.2863C204 72.5367 203.879 72.4922 204.657 71.1042C205.435 69.7162 205.403 69.1044 206.277 69.1664C207.151 69.2284 207.036 69.2292 206.455 68.8025C205.873 68.3758 205.712 68.0596 205.077 69.2426C204.442 70.4257 204.091 69.9974 203.722 69.048C203.353 68.0985 202.964 67.0132 202.353 67.176C201.743 67.3389 201.911 67.7004 202.872 67.9658C203.834 68.2312 203.747 69.6145 203.723 70.6346C203.699 71.6548 203.001 71.6143 202.41 71.913C201.819 72.2117 201.161 72.4429 201.097 73.1914C201.033 73.9398 201.972 74.84 203.391 74.2863ZM203.135 73.7214C203.166 72.7465 204.275 71.6508 203.189 72.1116C202.102 72.5725 201.73 72.3937 201.558 73.1882C201.385 73.9827 202.157 74.1361 203.135 73.7214ZM195.249 72.6423C195.196 72.28 192.445 72.0042 192.468 71.3694C192.491 70.7346 193.821 70.6688 194.196 70.0769C194.571 69.485 195.985 70.0872 195.336 69.593C194.687 69.0988 192.825 69.1657 193.256 69.7521C193.688 70.3384 194.33 69.0847 193.723 70.0635C193.116 71.0424 191.987 71.2367 191.173 71.5823C190.358 71.9279 188.659 72.937 190.62 72.5381C192.188 72.2191 193.509 72.7071 193.973 72.9911C194.461 73.169 195.398 73.3485 195.249 72.6423Z" stroke="#3E3939" stroke-width="3" stroke-linecap="round" stroke-linejoin="round"/>
<path d="M208.08 86.8224C207.131 86.2027 206.603 86.7844 206.533 86.3031M206.533 86.3031C206.463 85.8219 204.484 85.2815 205.122 84.1931C205.76 83.1048 206.493 83.5092 207.249 83.6485C207.854 83.76 207.86 83.9173 207.788 83.9821M206.533 86.3031C206.669 86.0287 206.882 85.6086 207.101 85.1936M207.788 83.9821C208.069 83.5791 208.555 82.9064 209.016 82.3183M207.788 83.9821C207.633 84.204 207.363 84.6951 207.101 85.1936M209.016 82.3183C209.359 81.882 209.687 81.4922 209.909 81.2937C210.141 81.086 210.397 80.8291 210.665 80.5973M209.016 82.3183C208.791 82.2984 208.651 82.1878 208.544 81.975M201.145 80.4628C200.327 81.5764 200.802 81.8863 201.376 82.4605C201.95 83.0346 202.01 84.2868 201.837 84.3602C201.466 85.1818 201.278 83.4728 201.229 83.1359C201.18 82.7991 200.534 82.1531 200.153 82.0594C199.771 81.9657 199.036 81.9707 199.556 81.7504C200.075 81.53 201.453 79.2081 202.198 78.4321M188.535 79.7305C188.222 78.8414 188.381 76.5761 189.375 76.6656C190.369 76.7551 190.469 77.0194 190.235 77.9363C190.001 78.8533 189.693 80.108 189.197 80.0632M208.087 86.8706C208.932 86.3589 207.411 86.4416 207.088 86.3234C206.764 86.2052 207.54 84.8028 208.292 84.0749C209.044 83.3471 209.857 81.7758 210.602 80.9999C211.346 80.2239 211.714 80.2214 212.176 80.0255C211.676 79.843 211.15 80.1792 210.665 80.5973M207.101 85.1936C206.018 85.295 205.049 84.8374 205.792 84.1644C206.535 83.4914 207.211 84.2269 207.326 84.1779M208.544 81.975C208.445 81.7781 208.374 81.4936 208.289 81.1122C208.112 80.3185 207.914 79.3804 207.233 78.4938C208.031 78.4617 208.214 79.713 208.326 80.483C208.439 81.2531 208.175 81.4991 208.544 81.975ZM208.544 81.975C208.964 81.6487 209.976 80.9163 210.665 80.5973M226.63 105.58C225.729 105.706 224.207 106.199 226.113 104.981C227.638 104.007 230.499 101.996 231.739 101.112C231.929 101.015 232.224 100.907 231.883 101.256C231.456 101.692 228.987 103.251 227.874 104.03C226.762 104.808 225.853 105.296 226.63 105.58ZM222.394 101.755C222.511 101.296 222.84 101.872 223.339 101.507C223.837 101.143 224.821 99.9074 225.257 99.1095C225.692 98.3116 226.15 97.2486 226.856 97.051C227.563 96.8535 229.374 97.925 229.235 98.6486C229.095 99.3722 227.878 97.3331 226.983 97.9173C226.087 98.5016 225.883 99.2016 225.289 100.169C224.694 101.137 223.696 102.276 223.091 102.328C222.485 102.38 222.27 102.165 222.394 101.755ZM219.939 97.5322C219.843 96.4489 220.188 94.6159 221.739 93.9066C223.291 93.1974 226.373 91.6346 226.483 92.8141C226.594 93.9937 225.444 95.3505 224.786 95.885C224.129 96.4194 222.842 97.6809 221.262 98.1976C219.683 98.7143 219.951 98.0381 219.939 97.5322ZM221.052 96.7537C220.939 95.9837 221.6 94.6302 222.754 94.1405C223.909 93.6508 225.49 92.7246 225.45 93.7125C225.41 94.7004 224.732 95.0904 223.922 95.8427C223.112 96.595 221.241 98.0532 221.052 96.7537ZM215.773 92.5024C216.307 92.3783 216.58 92.5691 216.643 93.0023C216.706 93.4354 217.845 93.259 218.495 92.6764C219.146 92.0938 220.982 90.395 220.107 89.4375C219.232 88.48 220.227 88.16 220.708 88.518C221.189 88.876 221.444 90.1991 220.626 91.3128C219.807 92.4265 218.94 93.2033 217.57 93.4777C216.201 93.752 215.56 93.5638 215.773 92.5024ZM213.304 90.2792C214.071 89.2382 215.407 88.3136 214.884 87.6669C214.36 87.0201 213.522 85.8937 212.714 86.2365C211.906 86.5793 210.021 89.6274 209.886 89.1224C209.751 88.6175 209.263 88.2114 210.671 87.3586C211.381 86.342 213.773 82.4182 214.168 82.7578C214.665 83.1861 214.446 83.0678 213.679 84.4474C212.938 85.7779 214.158 85.2149 214.846 86.1496C215.534 87.0843 216.082 87.0564 216.734 86.0643C217.386 85.0722 217.951 84.3216 218.59 84.9194C219.228 85.5172 218.025 85.67 217.156 86.8563C216.287 88.0426 216.992 88.2546 216.191 88.6455C215.39 89.0364 215.579 88.6497 215.095 89.1107C214.61 89.5717 213.862 91.1666 213.748 90.8061C213.657 90.5177 213.414 90.3347 213.304 90.2792ZM199.479 77.4391C198.613 77.8064 196.788 76.6387 196.036 77.3665C195.284 78.0943 195.624 79.5854 195.021 80.9144C194.418 82.2434 194.553 82.7483 193.746 82.6816C192.94 82.6149 190.961 82.0745 191.561 81.5645C192.161 81.0545 192.903 82.7837 193.627 81.8634C194.351 80.9431 194.724 79.3025 194.455 78.2927C194.185 77.2829 195.386 75.8534 196.292 76.1844C197.199 76.5154 198.277 77.1825 199.479 77.4391ZM189.279 81.0503C188.573 81.2478 187.587 80.7969 187.723 79.2062C187.859 77.6155 188.385 75.7571 189.551 75.7731C190.718 75.7892 191.371 76.4832 191.3 78.0976C191.229 79.712 190.007 80.9971 189.279 81.0503Z" stroke="#3E3939" stroke-width="3" stroke-linecap="round" stroke-linejoin="round"/>
<path d="M129.503 154.16C127.88 138.732 130.719 122.898 132.342 110.718C133.639 100.974 141.17 82.7038 141.711 81.8918M195.61 8C191.96 11.654 187.904 13.278 181.821 17.744C175.737 22.21 163.57 32.3599 159.92 35.2019C156.27 38.0439 150.187 41.6979 148.97 51.0359C147.753 60.3739 145.725 65.6519 144.509 71.7419C143.407 77.2556 140.976 81.1053 140.525 90.8238M140.525 90.8238C140.478 91.8395 140.453 92.9193 140.453 94.0718C140.453 106.252 138.02 111.53 138.02 116.402C138.02 121.274 138.425 124.116 138.02 129.8C137.614 135.484 143.292 140.762 149.781 139.544C159.109 137.514 165.598 132.642 171.276 119.65C176.954 106.658 174.926 101.786 176.143 80.2678C176.143 77.4258 174.926 75.3958 171.276 72.9599M140.525 90.8238C144.509 85.9518 147.753 85.1398 150.592 84.3278M147.753 80.2678C152.295 78.319 153.431 78.6438 154.242 78.6438M142.886 111.936C147.753 109.5 158.703 106.252 159.109 116.402C159.515 126.552 158.298 127.364 151.403 129.8C145.888 131.749 143.427 131.965 142.886 131.83C141.534 131.153 138.912 128.013 139.236 120.868M155.459 195.166C160.731 198.82 163.165 200.038 167.22 197.196C170.009 195.242 170.497 192.904 170.266 191.106M169.654 189.076C169.907 189.583 170.161 190.289 170.266 191.106M170.266 191.106C174.926 195.166 180.198 197.602 183.848 199.226C187.499 200.85 191.96 205.316 198.043 203.286C204.127 201.256 204.127 198.414 203.721 194.76C203.397 191.836 199.801 188.399 198.043 187.046M219.944 184.61C228.461 187.046 235.355 193.542 241.033 190.294C246.711 187.046 249.956 182.986 242.25 175.678M258.473 158.22C267.395 159.844 269.828 159.844 272.262 155.378C274.695 150.912 268.206 144.822 265.367 144.01M191.149 57.9379C192.771 61.1859 191.825 66.5992 191.149 68.8999M246.711 65.2459C253.606 65.2459 254.011 63.2159 259.284 63.2159" stroke="#3E3939" stroke-width="5" stroke-linecap="round" stroke-linejoin="round"/>
</g>
<defs>
<clipPath id="clip0">
<rect width="290" height="290" fill="white"/>
</clipPath>
</defs>
</svg>
