<svg width="290" height="290" viewBox="0 0 290 290" fill="none" xmlns="http://www.w3.org/2000/svg">
<path d="M118.647 100.898C121.45 97.7342 124.266 94.9413 127.626 92.3498C129.667 89.2883 138.178 88.491 141.429 88.491C146.353 88.491 150.972 89.1602 155.822 89.938C159.264 90.4899 163.625 90.217 166.463 92.6178C170.397 95.9465 172.351 102.318 173.887 107.035C174.645 109.364 174.76 109.944 176.353 111.751C177.941 113.553 179.415 115.398 180.695 117.432C187.302 127.93 196.926 137.129 199.778 149.643C201.037 155.169 202.402 160.632 203.745 166.15C205.409 172.99 205.782 179.358 205.782 186.355V186.372C205.782 190.594 205.782 194.777 203.638 198.575C200.752 203.686 196.77 207.37 192.515 211.303C186.172 217.166 180.376 222.771 173.244 227.65C170.601 229.458 167.882 231.018 168.741 234.644C169.495 237.826 170.486 239.973 169.572 243.326C168.617 246.826 164.336 249.553 161.879 252.009C158.341 255.547 154.894 254.903 150.086 254.903C145.743 254.903 142.482 254.593 138.535 252.705C135.491 251.25 134.479 246.418 134.005 243.433C133.47 240.067 132.621 236.479 130.976 233.465C129.921 231.531 126.231 230.825 124.49 229.794C120.885 227.657 116.951 225.8 113.099 224.139C109.155 222.438 105.051 219.945 101.52 217.494C98.8457 215.636 95.9733 214.24 92.9973 212.938C91.8719 212.446 90.3266 212.342 89.2986 211.759C86.8647 210.378 85.1433 206.663 83.6701 204.416C81.4914 201.095 79.2249 197.859 77.1839 194.448C73.7801 188.759 73.8577 182.983 74.1016 176.52C74.4179 168.141 76.9413 159.611 81.0971 152.376C83.9713 147.372 86.3697 142.24 90.2099 137.905C94.0267 133.597 96.4828 128.443 99.9123 123.917C102.886 119.993 105.84 116.05 108.811 112.126C111.802 108.176 115.356 104.613 118.647 100.898Z" fill="white"/>
<path d="M144.296 111.978C143.321 106.741 142.358 95.1381 141.441 89.8211C138.153 88.1775 132.089 87.4231 128.295 88.5068C127.469 88.7428 124.642 91.7464 123.863 92.525C121.756 94.6314 121.265 97.033 119.806 99.4348C113.897 109.166 110.287 120.288 104.257 130.003C101.135 135.032 97.35 140.849 95.843 146.602C94.607 151.32 94.7914 156.005 94.7914 160.834C94.7914 170.264 94.1393 179.769 95.9933 189.037C97.962 198.879 103.182 208.388 110.642 215.136C117.096 220.975 122.934 225.689 131.976 225.689C135.772 225.689 139.773 220.833 137.911 216.901C133.095 206.738 127.343 196.954 123.863 186.108C122.447 181.695 122.713 175.535 123.224 170.936C123.624 167.339 126.171 165.796 128.22 163.163C128.659 162.598 127.399 160.651 127.206 159.783C126.678 157.407 126.348 155.216 126.605 152.648C127.006 148.642 127.6 143.541 130.624 140.518C132.148 138.995 133.862 139.019 134.004 136.462C134.151 133.822 133.118 134.053 135.432 131.355C138.045 128.307 142.802 127.047 139.751 123.319C137.915 121.075 139.691 120.575 141.779 118.812C144.646 116.392 144.914 115.3 144.296 111.978Z" fill="#F8F7F3"/>
<path d="M145.579 103.347C146.676 97.3932 154.253 98.6906 158.694 98.6906C159.312 99.927 155.514 99.9025 156.516 100.868C159.011 103.274 159.435 104.373 160.177 107.656C161.188 112.132 161.6 116.667 163.189 121.023C164.88 125.657 168.489 130.49 169.051 135.363C169.572 139.876 169.101 140.873 166.201 143.772C162.946 147.027 162.201 150.461 163.931 154.568C165.565 158.449 161.924 163.129 161.66 166.892C161.446 169.944 161.402 173.235 162.702 176.066C163.837 178.535 165.209 180.746 166.109 183.34C167.623 187.707 168.651 192.459 169.445 197.008C169.791 198.989 170.534 202.074 169.77 204.097C167.988 208.812 167.555 214.865 169.723 219.595C170.927 222.221 171.206 224.615 171.206 227.449C171.206 229.595 167.985 229.277 166.433 229.835C161.007 231.788 165.78 240.524 167.452 243.712C169.491 247.598 168.576 255.18 162.865 255.48C161.483 255.553 160.077 255.48 158.694 255.48C157.326 255.48 156.405 254.56 155.126 253.997C152.909 253.022 149.174 250.961 149.101 248.206C149.032 245.569 149.101 242.921 149.101 240.283C149.101 238.386 149.518 236.41 149.518 234.445C149.518 233.074 151.547 229.725 151.094 228.885C150.232 227.285 147.73 225.59 146.599 224.02C144.442 221.025 131.184 219.107 129.862 215.449C129.047 213.191 129.226 210.408 129.028 208.036C128.848 205.875 128.559 203.619 128.519 201.456C128.454 197.959 127.666 194.449 127.059 191.008C125.179 180.357 127.731 170.453 129.584 160.012C129.973 157.822 131.021 155.696 131.021 153.456C131.021 150.712 131.365 147.955 131.461 145.209C131.658 139.599 135.294 130.709 135.773 125.111C136.49 116.756 144.059 111.596 145.579 103.347Z" fill="#EBDCC1"/>
<path d="M170.426 98.8723C167.899 95.7138 166.208 96.9503 163.174 96.9503C159.97 95.8826 142.5 95.108 142.5 98.8723C142.5 103.955 151.758 109.038 152.828 113.855C153.662 117.607 151.147 121.837 153.265 125.65C154.377 127.649 154.827 129.766 156.193 131.721C157.739 133.936 153.384 136.256 154.348 138.798C156.024 143.215 153.301 149.215 151.639 153C148.435 160.297 150.437 163.591 151.639 170.118C152.788 176.353 148.231 182.474 148.231 188.771C148.231 194.818 154.292 196.414 155.222 201.526C155.96 205.586 154.72 208.572 152.338 211.747C150.266 214.51 143.829 224.115 149.018 226.861C153.553 229.262 163.148 229.021 167.892 227.648C171.709 226.543 174.768 223.654 178.116 221.794C180.391 220.53 183.01 219.747 185.194 218.343C188.27 216.366 189.774 212.527 192.621 210.35C195.619 208.057 198.56 207.341 200.529 203.841C202.578 200.199 202.882 196.366 204.068 192.44C205.49 187.73 208 182.051 208 177.151C208 170.056 206.488 163.194 203.631 156.664C200.546 149.615 200.411 142.289 196.204 136.09C192.463 130.578 186.164 127.62 183.009 121.762C179.021 114.357 175.701 105.465 170.426 98.8723Z" fill="#C2AC85"/>
<path d="M136.053 100.218C133.872 100.429 132.587 102.077 130.669 102.958C131.53 103.289 131.173 106.32 131.968 106.878C133.604 108.027 135.014 109.479 136.569 110.76C138.537 112.381 141.354 113.319 142.407 115.844C142.81 116.81 142.807 117.888 142.907 118.923C143.037 120.266 143.303 121.672 143.202 123.019C142.88 127.354 142.335 131.575 141.152 135.771C140.411 138.398 139.809 140.924 139.49 143.621C139.22 145.906 139.608 148.163 139.253 150.437C138.944 152.41 138.423 154.307 138.206 156.299C138.02 158.003 138.08 159.688 138.094 161.399C138.119 164.307 135.463 166.647 136.053 169.5C136.231 170.359 139.285 172.067 139.456 172.924C139.606 173.683 141.697 173.722 142.23 173.799C143.892 174.038 144.687 172.73 145.924 171.895C147.104 171.098 146.896 169.018 146.842 167.827C146.757 165.954 146.506 164.026 146.495 162.155C146.475 158.747 146.248 155.366 146.114 151.958C146.023 149.658 145.864 147.351 145.95 145.047C146.056 142.194 146.492 139.301 146.216 136.447C146.047 134.695 146.533 132.79 146.896 131.08C147.113 130.062 147.101 129.01 147.326 127.989C147.56 126.926 148.015 125.946 148.234 124.864C148.668 122.725 149.281 120.672 149.478 118.489C149.612 117.001 149.942 115.46 149.337 114.019C148.707 112.518 147.951 111.009 147.053 109.645C146.12 108.227 143.452 106.842 142.407 105.5C140.457 102.994 139.441 99.8899 136.053 100.218Z" fill="#9E8559"/>
<path d="M132.86 91.4377V97.0321C132.86 97.7907 132.589 101.76 132.924 102.468C133.268 103.194 133.945 103.599 134.433 104.2C136.351 106.56 138.721 108.328 140.87 110.478C142.404 112.012 144.072 113.338 146.306 113.338C147.377 113.338 148.673 112.922 149.516 112.242C151.979 110.252 144.341 103.769 144 101C143.297 95.2854 151.673 94.3402 152.599 88.7041C153.288 84.5116 154.172 80.2707 155.333 76.1804C157.73 67.7339 163.679 60.0745 168.81 53.0718C171.147 49.8831 173.261 45.1748 177.249 43.679C179.041 43.0072 181.022 42.66 182.86 42.1056C184.333 41.6614 185.285 40.6423 186.499 39.8329C188.204 38.6966 186.015 37.6108 185.498 36.8927C184.161 35.0354 182.1 34.644 180.078 33.9366C178.028 33.2189 175.886 32.7009 173.769 32.1565C172.533 31.8388 171.283 31.7819 170.05 31.4573C169.008 31.1832 167.816 30.6626 166.728 30.6626C159.539 30.6626 152.328 30.9487 145.161 30.9487C141.043 30.9487 136.834 32.0581 132.924 33.2373C131.709 33.6036 128.569 34.4834 128.569 36.098C128.569 38.2453 129.997 38.2749 131.986 38.6727C135.057 39.2869 138.086 39.2449 141.22 39.2449C145.924 39.2449 150.8 39.0268 155.46 39.674C156.848 39.8667 160.852 39.849 158.766 41.8195C157.148 43.3473 154.031 43.7619 151.884 44.0923C149.932 44.3926 147.924 44.6803 145.956 44.6803H135.053C133.282 44.6803 130.779 44.1918 129.014 44.6962C128.548 44.8293 128.283 47.7185 128.283 48.1132C128.283 48.9393 127.766 52.4406 128.569 52.9129C129.206 53.2877 129.527 53.5486 130.285 53.5486C131.055 53.5486 130.744 54.0014 131.001 54.5658C131.206 55.0174 130.909 56.1073 131.287 56.4094C131.463 56.5502 131.689 57.5877 131.716 57.8398C131.824 58.8723 132.537 59.9485 132.797 60.9866L132.86 61.2412C133.185 62.5412 133.509 63.8355 133.845 65.1347C134.612 68.0922 134.577 71.8981 134.577 74.9407C134.577 76.691 134.451 78.4342 133.575 80.0106C132.331 82.2498 131.945 84.4018 132.002 86.9241C132.038 88.4935 132.86 89.8712 132.86 91.4377Z" fill="#EBDCC1"/>
<path d="M163.39 88.8678C161.996 92.4526 162.627 95.2624 162.627 99.0204C161.956 100.363 159.643 101.862 158.38 102.604C155.827 104.103 153.014 104.639 150.085 104.329C146.053 103.902 145.593 99.2785 144.876 96.0012C144.175 92.7961 144.965 89.6014 145.838 86.5453C146.522 84.1538 145.086 78.5101 147.862 76.9236C149.818 75.8059 150.8 73.0063 151.578 71.0178C152.573 68.4751 154.227 65.9724 154.581 63.3204C154.703 62.4022 154.966 58.3275 155.609 57.8128C156.102 57.4185 156.517 56.9578 157.252 56.917C158.341 56.8565 158.837 55.8386 159.475 55.059C160.787 53.455 162.233 52.1186 163.373 50.3643C164.506 48.6209 166.661 47.9872 168.566 47.5109C170.588 47.0054 172.549 46.1781 174.571 45.7359C177.927 45.0017 180.888 43.8628 184.126 42.7498C185.534 42.2658 188.338 41.7668 189.8 42.3517C191.068 42.8589 190.726 44.626 190.696 45.7359C190.643 47.6231 188.546 48.7791 187.129 49.5846C184.543 51.0538 181.847 52.1822 179.249 53.6157C178.209 54.1898 176.164 55.0971 175.467 56.0875C173.447 58.9569 174.81 62.1942 174.189 65.3609C173.535 68.6958 172.244 71.3198 170.457 74.1366C169.409 75.7885 168.288 77.6676 167.72 79.5613C167.401 80.6226 166.122 81.1147 165.613 82.1326C165.082 83.1932 165.592 84.2812 165.248 85.3509C164.857 86.5655 163.862 87.6534 163.39 88.8678Z" fill="#C2AC85"/>
<path d="M166.875 94.7994C168.082 94.1325 169.728 93.0452 170.037 91.6373C169.447 91.6373 167.592 91.2578 167.001 91.2578C166.327 91.2578 165.72 91.5108 165.048 91.5108C162.373 91.5108 159.857 92.3026 157.213 92.5789C152.972 93.022 148.712 93.8324 144.627 95.0805C141.973 95.8916 139.229 96.2315 136.525 96.8162C135.432 97.0525 134.323 97.1894 133.229 97.4276C132.578 97.5695 131.904 97.8142 131.234 97.8351C129.281 97.8961 127.168 97.5854 125.464 96.5703C124.271 95.8595 123.089 95.1987 121.663 95.1789C120.959 95.1691 120.18 95.1279 119.702 95.7551C119.058 96.6006 118.844 98.3946 119.442 99.3249C120.13 100.394 121.777 100.167 122.815 99.8027C124.547 99.1957 125.942 99.1 127.727 99.1C128.296 99.1 128.863 99.0252 129.393 99.2546C130.385 99.6847 130.973 100.375 131.775 101.054C132.344 101.535 133.034 102.157 133.721 102.438C134.212 102.639 134.641 102.402 135.127 102.389C136.531 102.35 137.839 101.981 139.202 101.63C142.014 100.905 144.993 100.501 147.86 100.049C151.706 99.4413 155.459 98.5514 159.201 97.4627C160.765 97.0079 162.353 96.8403 163.895 96.247C164.91 95.8567 165.924 95.3249 166.875 94.7994Z" fill="#9E8559"/>
<path d="M130 39C143.622 36.5152 157.643 38.0061 171.031 39.9239C169.354 40.7625 166.066 42.6961 164.192 43.3902C160.683 44.6897 157.34 44.5612 153.535 44.5612C146.927 44.5612 140.364 44.9828 133.745 44.9828C131.635 44.9828 129.607 44.5612 127.515 44.5612C126.096 44.5612 124.643 44.7312 123.299 44.2333C121.791 43.675 120.926 42.0949 119.833 41.0013C118.695 39.8635 119.669 39.9239 120.77 39.9239C124.033 39.9239 126.737 39 130 39Z" fill="#9E8559"/>
<path d="M141.317 243.265C143.162 240.002 143.928 235.927 143.998 232.233H150.263C154.085 232.233 158.891 231.327 162.535 232.465C168.23 234.244 167.819 243.542 166.273 248.266C162.97 258.357 153.074 259.539 144.23 256.591C143.11 256.218 138.966 254.882 138.893 253.575C138.796 251.821 139.21 250.094 139.461 248.369C139.786 246.13 140.263 245.129 141.317 243.265Z" fill="#9E8559"/>
<path d="M147.986 55.6045C164.204 55.6045 174.471 53.4008 180.432 51.681M169.293 37.8403C174.136 39.3004 179.463 41.2471 162.756 43.6806C149.39 45.6274 134.104 44.8162 128.131 44.1673M101.496 44.1673C102.223 47.8175 102.949 48.7908 107.308 50.981C111.666 53.1711 113.361 57.0646 114.087 63.1482C114.814 69.2319 114.087 69.2319 117.719 73.3688C121.351 77.5056 121.109 81.6425 121.109 84.076M122.32 74.5855C133.458 77.9923 160.335 78.7224 173.466 71.422M180.432 51.681C183.548 50.7818 185.487 50.0149 186.485 49.7642C189.39 49.0342 191.085 42.2205 188.18 38.327C187.989 38.0712 187.747 37.8239 187.453 37.5848M180.432 51.681C175.347 57.3079 174.862 58.038 174.862 63.6349C174.862 69.2319 174.62 70.2053 171.23 74.5855C167.841 78.9657 168.083 82.6159 168.083 86.7528M114.087 45.1407C109.487 44.4106 105.791 43.4372 103.191 41.9772C94.9589 37.3536 117.719 32 143.143 32C168.707 32.4547 183.279 34.184 187.453 37.5848M162.756 46.8441C174.862 45.384 193.022 42.9262 187.453 37.5848M121.109 87.9695C120.722 89.1375 120.948 90.8896 121.109 91.6197C120.302 92.1875 118.736 93.7611 118.93 95.5132C119.172 97.7033 116.267 99.8934 116.509 103.057C115.298 103.544 113.845 105.247 113.845 106.707M113.845 106.707C113.119 107.194 111.424 108.897 111.666 110.844C110.455 111.817 108.034 113.521 109.245 119.118C110.455 124.715 121.351 130.312 134.911 132.502C148.47 134.692 158.64 133.718 172.441 129.338M113.845 106.707C113.845 110.844 116.267 116.928 130.068 119.848C143.87 122.768 155.734 121.551 161.061 120.334M105.128 119.848C103.191 123.985 101.739 129.825 108.034 134.935C114.329 140.045 126.436 144.182 139.027 144.912M99.5594 128.365C92.5376 140.289 86 156.35 86 169.49C86 182.631 90.6005 198.448 101.981 211.832C109.333 220.479 117.797 226.79 130.31 229.583M196.654 200.638C191.973 209.967 177.09 229.061 155.008 230.813C145.237 231.589 137.166 231.114 130.31 229.583M130.31 229.583C129.826 244.684 130.068 250.281 136.606 255.148C143.143 260.015 153.071 258.068 159.124 253.688C163.967 250.184 163.724 239.574 162.998 234.707M169.051 93.3231C170.02 94.2965 170.101 95.6754 170.02 96.2432C170.666 96.7299 171.957 98.1413 171.957 99.8934C173.652 101.11 174.62 103.3 174.378 105.004C176.315 106.22 177.526 110.114 175.589 112.791C174.039 114.932 169.778 116.765 167.841 117.414M179.705 112.791C181.061 113.764 181.723 115.468 181.884 116.198C182.772 116.846 184.645 118.582 185.032 120.334C186.485 121.795 190.843 127.635 191.085 130.798C191.327 133.962 190.359 138.585 181.884 143.939M193.507 134.205C196.009 138.261 201.303 149.195 202.466 160.486C203.628 171.778 202.627 182.712 201.981 186.768M95.201 155.863C106.339 165.84 122.804 172.41 149.196 172.41C170.31 172.41 184.467 163.65 188.906 159.27" stroke="#3E3939" stroke-width="5" stroke-linecap="round" stroke-linejoin="round"/>
<path d="M114.666 218.477C114 217.727 114.272 217.386 114.204 216.469C114.136 215.552 113.88 215.129 113.057 213.929C112.235 212.729 114.113 212.963 114.789 211.309C115.517 209.622 113.074 209.157 111.339 208.388C109.603 207.62 109.736 209.489 109.946 210.455C110.156 211.42 109.779 212.991 109.693 214.004C109.606 215.017 109.756 216.123 108.544 216.638C108.19 216.79 107.562 216.736 107.664 217.255C107.765 217.774 108.77 218.553 110.042 218.48C111.362 218.411 110.777 215.555 111.347 214.584C111.916 213.612 112.036 217.923 111.862 218.819C111.689 219.715 113.766 220.476 115.098 220.263C115.886 220.148 115.923 219.714 115.432 219.198L114.666 218.477ZM114.669 218.44C116.475 218.377 116.9 217.393 117.246 216.184L114.669 218.44ZM114.669 218.44C114.944 218.646 115.164 218.92 115.435 219.162L114.669 218.44ZM117.246 216.184C117.438 215.071 118.119 212.797 119.961 212.883C121.803 212.968 122.316 213.231 123.323 214.557C124.333 215.846 124.175 217.691 123.515 219.165C122.854 220.638 122.634 222.077 120.293 222.131C118 222.189 117.848 221.119 117.276 219.831C117.078 219.304 117.054 219.01 116.952 218.491L117.246 216.184ZM117.246 216.184C117.133 216.94 117.02 217.695 117.004 218.459L117.246 216.184ZM115.387 219.158C116.072 219.108 116.671 218.941 117.004 218.459L115.387 219.158ZM101.566 205.981C100.769 205.621 99.8518 204.959 99.6986 204.472C99.5062 203.873 99.5472 202.819 100.634 203.204C101.718 203.625 103.404 204.973 104.642 205.298C105.879 205.623 109.245 206.678 108.441 207.556C107.636 208.434 106.137 207.176 105.528 208.034C105.035 208.684 104.906 209.621 104.497 210.424C104.197 211.09 104.343 212.232 104.735 212.776C105.263 213.441 105.776 215.416 104.962 214.691C104.147 213.965 102.39 213.449 102.446 212.798C102.501 212.147 103.18 212.752 103.247 211.956C103.3 211.341 103.341 210.288 103.466 209.388C103.554 208.921 104.097 207.693 103.609 207.141C103.129 206.48 102.175 206.252 101.566 205.981ZM111.327 210.246C111.513 210.918 111.524 211.356 112.377 211.065C113.229 210.774 113.372 210.239 112.439 209.758C111.507 209.277 111.147 209.501 111.327 210.246ZM120.039 214.821C121.994 214.734 122.104 215.727 122.256 216.797C122.411 217.831 122.745 219.062 121.665 219.734C120.589 220.371 119.843 219.979 119.18 219.193C118.517 218.407 119.011 217.174 118.886 216.362C118.76 215.549 119.45 214.88 120.039 214.821ZM126.562 215.382C126.797 214.345 127.027 213.928 128.621 214.065C130.168 214.198 130.846 214.803 130.841 216.005C130.836 217.207 129.718 217.767 128.533 218.539C127.347 219.312 127.269 220.799 127.688 221.601C128.106 222.402 130.523 224.322 129.318 224.182C128.113 224.042 126.444 223.061 126.343 221.959C126.242 220.857 126.64 219.616 126.672 218.671C126.704 217.726 126.581 216.878 126.147 216.257C125.765 215.605 126.48 215.776 126.562 215.382ZM128.486 215.657C129.739 215.801 130.033 216.919 129.501 217.457C128.968 217.994 128.431 218.02 127.984 217.545C127.587 217.073 128.588 216.176 128.486 215.657ZM131.215 221.904C132.309 221.634 132.611 221.514 132.749 220.469C132.835 219.456 134.271 216.883 133.807 216.041C133.344 215.2 132.513 215.238 132.765 214.567C132.968 213.892 134.424 212.232 134.797 212.993C135.17 213.753 134.533 215.521 135.472 215.929C136.41 216.338 138.058 216.99 138.386 215.998C138.762 215.01 138.192 214.851 139.278 213.524C140.368 212.16 140.598 213.455 140.273 214.994C139.947 216.533 139.274 218.151 139.317 219.357C139.36 220.564 139.883 220.718 140.507 221.391C141.131 222.064 141.41 223.363 139.996 223.388C138.583 223.412 138.002 222.232 137.949 221.135C137.9 220.001 138.527 218.342 136.598 218.14C134.665 217.973 134.975 218.911 134.393 220.027C133.811 221.143 133.809 222.309 133.871 223.298C133.933 224.287 132.666 223.158 132.334 223.057C131.954 222.951 130.617 222.071 131.215 221.904ZM143.137 217.937C143.713 216.893 144.471 214.845 146.02 215.525C147.568 216.204 146.913 217.606 146.918 218.699C146.922 219.793 146.731 222.035 144.548 221.374C142.417 220.681 142.495 219.193 143.137 217.937ZM144.505 218.455C144.303 217.964 144.741 216.253 145.728 216.665C146.715 217.078 146.329 218.175 145.797 218.712C145.213 219.281 144.817 219.357 144.505 218.455Z" stroke="#3E3939" stroke-width="3" stroke-linecap="round" stroke-linejoin="round"/>
<path d="M187.887 193.66C187.853 193.911 187.824 194.112 187.8 194.273M191.065 201.157C190.9 201.267 190.338 201.495 189.871 201.708C189.405 201.921 189.227 201.892 189.146 201.057C189.066 200.223 189.326 200.098 188.56 199.624C187.973 199.26 188.132 199.411 188.332 199.107M188.332 199.107C188.394 199.014 188.459 198.878 188.507 198.672C188.715 197.794 188.304 197.772 188.016 197.619C187.937 197.577 187.808 197.543 187.673 197.504M188.332 199.107C188.789 198.778 189.561 198.047 189.003 197.749C188.304 197.377 187.947 197.717 187.673 197.504M187.673 197.504C187.319 197.401 186.932 197.267 187.36 196.874C187.555 196.694 187.761 196.448 187.932 196.189M187.932 196.189C188.276 195.667 188.475 195.094 188.145 194.918C187.719 194.691 187.65 195.294 187.8 194.273M187.932 196.189C188.431 195.862 189.295 195.729 188.981 194.902C188.668 194.075 187.696 195.14 187.8 194.273M188.026 193.074C188.181 193.069 188.372 192.704 187.893 191.288M152.725 211.782C152.64 212.012 152.548 212.268 152.449 212.558C152.225 213.219 151.956 213.667 151.708 214.01C151.286 214.594 150.925 214.874 150.949 215.386C150.968 215.767 151.243 215.789 151.483 215.67C151.723 215.552 152.155 215.369 152.484 215.347C152.813 215.324 153.032 215.573 153.498 215.36C152.76 214.373 152.34 213.84 152.826 212.759M152.725 211.782C152.825 211.51 152.997 211.121 153.069 210.91C153.313 210.197 153.578 210.067 153.278 209.439C152.814 208.466 152.596 207.822 152.282 207.391C153.092 207.822 153.351 208.34 153.99 209.554C154.34 210.422 155.12 212.367 155.44 213.208C155.694 213.871 155.882 214.21 156.502 214.389C157.584 214.702 158.324 214.7 158.516 214.473C158.708 214.246 158.816 215.161 157.363 215.441C156.301 215.646 155.726 215.908 155.313 215.701C155.161 215.625 155.048 215.488 155.047 215.262C155.041 213.796 155.08 212.41 153.983 212.914C153.818 212.972 153.666 212.981 153.539 213.032C152.68 213.227 152.666 212.295 152.725 211.782ZM158.607 203.904C159.305 204.276 159.483 204.502 159.481 205.293C159.479 206.083 158.835 206.465 158.805 207.373C158.776 208.28 158.554 209.613 158.991 210.308C159.428 211.002 159.511 210.453 160.318 211.542C160.963 212.414 161.545 212.804 161.756 212.891M161.756 212.891C162.021 213.096 162.404 213.364 162.272 213.838C161.969 214.929 162.063 215.507 162.696 214.195C163.55 212.427 161.798 211.54 161.058 211.146C160.319 210.752 160.101 210.108 159.199 209.231C158.296 208.354 158.856 209.51 159.56 206.72C160.265 203.93 159.718 203.704 158.486 203.048C158.171 202.616 158.563 205.463 158.561 206.451C158.558 207.439 158.677 209.876 158.986 212.481C159.296 215.087 157.759 215.916 159.391 215.467C160.696 215.108 160.887 214.55 160.819 214.316C159.984 213.739 159.408 214.025 159.409 212.844C159.604 210.842 159.838 211.616 160.494 212.164C160.866 212.475 161.41 212.623 161.756 212.891ZM170.586 209.762C170.598 210.296 169.175 209.669 167.927 210.059C166.679 210.449 165.321 211.11 164.883 210.613C164.802 210.174 165.761 210.026 166.255 209.893C166.749 209.761 168.613 209.501 169.313 209.083C170.013 208.665 170.573 209.227 170.586 209.762ZM170.586 209.762C171.052 209.614 171.102 209.298 170.532 209.205M166.781 213.933C166.659 213.274 165.807 207.874 165.699 207.157M169.223 205.21C169.048 205.421 168.866 205.646 168.689 205.849C169.14 206.485 169.522 207.216 169.451 208.497C169.38 209.778 169.752 209.966 169.763 210.114C169.774 210.262 170.062 211.395 169.977 212.339C169.893 213.283 170.044 213.429 170.963 212.864C171.882 212.299 170.882 212.228 170.487 211.16C170.092 210.092 170.355 208.979 170.028 208.013C169.701 207.047 170.03 206.827 170.239 205.158C170.404 203.847 169.862 204.438 169.223 205.21ZM169.223 205.21C169.374 205.884 169.739 205.516 169.768 207.743C169.797 209.97 170.181 212.843 170.387 212.953M171.785 206.641C170.881 206.16 171.815 205.536 172.997 203.858C173.409 203.089 173.105 204.378 172.952 205.417C172.799 206.457 171.992 206.744 173.278 206.976C174.564 207.208 173.976 207.15 173.783 207.97C173.589 208.79 174.097 208.402 173.82 209.573C173.544 210.745 173.64 210.73 174.614 210.326C175.588 209.922 175.161 210.749 174.598 211.373C174.035 211.996 173.227 211.499 173.05 211.075C172.873 210.651 173.697 209.705 173.204 209.245C172.712 208.785 172.396 209.144 172.673 207.972C172.949 206.801 172.688 207.123 171.785 206.641ZM171.785 206.641C171.552 206.53 172.001 205.531 172.254 205.045C172.293 206.253 172.623 206.824 173.043 207.972C173.463 209.119 173.451 210.354 173.667 211.008C173.882 211.662 174.064 211.088 174.228 211.176M177.442 207.942C177.183 207.079 177.296 205.425 176.735 205.06C176.174 204.695 175.407 204.813 175.901 204.088C176.63 203.157 176.973 202.68 177.533 203.638C178.093 204.596 178.01 204.948 177.774 206.536C177.537 208.125 178.537 208.394 179.482 208.898C180.426 209.401 181.605 209.502 182.291 209.142C182.977 208.782 181.163 210.784 179.644 210.171C178.674 209.781 178.151 209.333 177.832 208.836M177.442 207.942C177.431 208.574 177.355 209.993 177.135 210.614C176.859 211.391 177.229 211.39 177.874 211.008C178.519 210.627 178.395 210.759 177.889 210.159C177.485 209.68 177.683 209.077 177.832 208.836M177.442 207.942C177.536 208.255 177.651 208.553 177.832 208.836M181.018 203.369C180.837 203.108 180.817 202.751 181.277 202.271C181.961 201.558 181.984 202.129 182.096 202.575M181.018 203.369C181.154 203.565 181.38 203.708 181.563 203.808M181.018 203.369L181.557 202.972M182.096 202.575C182.135 202.73 182.185 202.869 182.276 202.935C182.409 203.03 182.488 203.243 182.59 203.498M182.096 202.575L181.557 202.972M181.563 203.808C181.624 203.841 181.68 203.87 181.726 203.895C182.096 204.092 182.534 204.194 182.586 205.738C182.637 207.282 183.047 207.897 183.924 207.705C183.254 207.215 183.555 207.508 183.284 206.11C183.013 204.713 184.408 205.655 185.504 205.909C186.497 206.139 186.493 204.484 185.588 203.008M181.563 203.808L182.077 203.653M182.59 203.498C182.764 203.93 183.004 204.486 183.684 204.807C184.766 205.317 185.491 205.77 185.33 204.101C185.169 202.433 184.689 202.507 184.005 201.878C183.322 201.25 182.994 200.482 183.31 200.123C183.626 199.764 184.214 200.604 185.569 201.327C186.924 202.049 187.554 202.319 188.308 202.062C188.519 201.99 188.581 202.06 188.512 202.17M182.59 203.498L182.077 203.653M181.557 202.972L182.077 203.653M188.512 202.17C188.335 202.454 187.295 203.001 185.718 202.066C183.528 200.767 184.076 200.993 185.278 202.557C185.391 202.704 185.495 202.855 185.588 203.008M188.512 202.17C188.266 202.435 187.145 203.266 185.588 203.008M196.975 192.964C197.807 194.727 197.797 194 198.21 193.429C198.622 192.857 198.542 192.023 197.448 190.583C196.949 189.855 197.337 190.453 196.706 190.381C196.076 190.308 196.143 191.201 196.975 192.964ZM196.975 192.964C197.439 193.739 197.494 194.894 198.318 194.146C199.142 193.398 198.396 192.341 197.736 190.736M196.975 192.964C196.511 191.991 195.688 189.996 196.105 189.796M165.673 206.483C166.057 206.424 166.592 206.116 166.451 207.887C166.31 209.659 166.692 210.39 166.773 211.027C166.854 211.663 167.959 214.033 167.013 214.32C166.067 214.607 166.426 213.282 166.031 212.016C165.636 210.75 166.063 209.923 165.682 208.598C165.301 207.274 165.158 206.512 165.673 206.483ZM190.697 193.509C191.763 195.066 191.873 194.992 192.541 196.47C193.209 197.947 193.729 198.29 193.152 198.972C192.575 199.654 192.644 199.559 193.343 199.338C194.043 199.117 194.399 199.175 193.812 197.939C193.226 196.703 193.788 196.673 194.787 196.942C195.787 197.211 196.91 197.546 197.145 196.945C197.379 196.345 196.982 196.265 196.185 196.896C195.389 197.527 194.308 196.621 193.488 195.985C192.667 195.35 193.12 194.8 193.231 194.134C193.342 193.468 193.549 192.787 192.975 192.282C192.4 191.778 191.098 192.007 190.697 193.509ZM191.314 193.639C192.093 194.253 192.323 195.826 192.6 194.655C192.876 193.483 193.247 193.285 192.7 192.664C192.153 192.042 191.563 192.585 191.314 193.639ZM196.945 187.804C197.273 187.979 199.155 185.882 199.661 186.284C200.168 186.686 199.421 187.819 199.68 188.485C199.939 189.151 198.594 189.951 199.389 189.715C200.185 189.48 201.251 187.907 200.511 187.908C199.771 187.91 200.411 189.195 199.975 188.105C199.539 187.015 200.06 185.969 200.267 185.09C200.474 184.211 200.671 182.206 199.817 184.059C199.134 185.541 197.939 186.333 197.427 186.544C196.988 186.837 196.277 187.5 196.945 187.804Z" stroke="#3E3939" stroke-width="5" stroke-linecap="round" stroke-linejoin="round"/>
<path d="M177.608 189.802C178.686 189.396 178.528 188.611 178.964 188.843M178.964 188.843C179.4 189.076 181.034 187.774 181.542 188.956C182.049 190.137 181.276 190.496 180.707 191.034C180.252 191.464 180.119 191.374 180.109 191.276M178.964 188.843C179.107 189.121 179.323 189.549 179.531 189.979M180.109 191.276C180.27 191.75 180.528 192.556 180.732 193.29M180.109 191.276C180.021 191.015 179.781 190.496 179.531 189.979M180.732 193.29C180.884 193.835 181.005 194.34 181.034 194.642C181.065 194.959 181.121 195.324 181.149 195.685M180.732 193.29C180.885 193.116 181.059 193.068 181.298 193.109M186.99 187.935C186.571 186.59 186.032 186.794 185.216 186.919C184.4 187.045 183.338 186.339 183.382 186.152C182.933 185.352 184.445 186.228 184.751 186.391C185.056 186.554 185.974 186.413 186.281 186.155C186.587 185.898 187.025 185.291 186.893 185.851C186.761 186.411 187.833 188.945 188.02 190.026M195.182 178.005C196.099 178.283 197.858 179.781 197.186 180.545C196.514 181.308 196.238 181.231 195.628 180.485C195.018 179.739 194.175 178.73 194.511 178.348M177.564 189.779C177.474 190.782 178.322 189.482 178.614 189.287C178.905 189.092 179.587 190.577 179.73 191.634C179.873 192.692 180.671 194.309 180.858 195.389C181.045 196.47 180.826 196.774 180.708 197.272C181.159 196.971 181.2 196.336 181.149 195.685M179.531 189.979C180.1 189.028 181.058 188.507 181.162 189.524C181.265 190.542 180.256 190.653 180.227 190.778M181.298 193.109C181.519 193.146 181.795 193.259 182.158 193.419C182.915 193.753 183.802 194.156 184.938 194.13C184.484 194.807 183.349 194.202 182.651 193.83C181.953 193.458 181.91 193.092 181.298 193.109ZM181.298 193.109C181.312 193.651 181.303 194.926 181.149 195.685M151.079 193.743C151.518 192.925 152.031 191.377 151.88 193.679C151.76 195.521 151.684 199.088 151.661 200.641C151.627 200.856 151.538 201.164 151.458 200.673C151.357 200.058 151.567 197.087 151.599 195.702C151.631 194.317 151.779 193.275 151.079 193.743ZM156.761 192.567C157.066 192.939 156.397 192.863 156.395 193.493C156.394 194.123 156.813 195.678 157.204 196.517C157.596 197.357 158.191 198.375 157.927 199.075C157.663 199.776 155.696 200.619 155.187 200.068C154.679 199.516 157.081 199.746 157.142 198.656C157.202 197.567 156.752 196.977 156.317 195.904C155.883 194.832 155.551 193.323 155.872 192.794C156.194 192.264 156.5 192.217 156.761 192.567ZM161.697 193.095C162.643 193.669 163.936 195.059 163.583 196.764C163.23 198.468 162.654 201.945 161.621 201.325C160.589 200.704 160.17 198.939 160.128 198.076C160.086 197.213 159.828 195.393 160.356 193.782C160.884 192.171 161.276 192.8 161.697 193.095ZM161.665 194.48C162.363 194.852 163.074 196.212 162.78 197.457C162.486 198.702 162.293 200.561 161.508 199.933C160.723 199.304 160.812 198.51 160.683 197.391C160.555 196.271 160.487 193.852 161.665 194.48ZM168.324 192.703C168.105 193.217 167.784 193.326 167.392 193.117C166.999 192.908 166.458 193.951 166.543 194.837C166.629 195.724 166.915 198.259 168.226 198.117C169.537 197.975 169.199 198.987 168.617 199.167C168.034 199.346 166.797 198.757 166.377 197.412C165.958 196.067 165.844 194.885 166.444 193.593C167.044 192.301 167.583 191.888 168.324 192.703ZM171.632 192.013C172.022 193.273 171.975 194.93 172.82 194.889C173.665 194.849 175.092 194.839 175.298 193.967C175.503 193.096 174.142 189.707 174.636 189.9C175.131 190.094 175.758 189.937 175.609 191.61C176.014 192.807 177.787 197.143 177.271 197.262C176.621 197.413 176.85 197.304 176.182 195.841C175.538 194.429 175.265 195.772 174.085 195.774C172.905 195.776 172.599 196.243 173.019 197.378C173.438 198.513 173.713 199.43 172.839 199.595C171.965 199.76 172.564 198.678 172.116 197.247C171.667 195.817 171.069 196.269 171.231 195.374C171.394 194.479 171.597 194.868 171.511 194.191C171.425 193.515 170.569 191.937 170.933 192.061C171.224 192.16 171.52 192.07 171.632 192.013ZM190.47 188.389C190.691 187.455 192.746 186.658 192.602 185.601C192.459 184.543 191.033 183.923 190.308 182.625C189.582 181.327 189.087 181.134 189.628 180.511C190.168 179.887 191.802 178.586 191.858 179.387C191.915 180.188 190.052 179.755 190.37 180.906C190.688 182.057 191.806 183.354 192.796 183.741C193.785 184.128 194.233 185.979 193.416 186.525C192.599 187.071 191.404 187.555 190.47 188.389ZM193.653 177.82C193.917 177.12 194.879 176.582 196.1 177.653C197.321 178.724 198.526 180.278 197.811 181.228C197.095 182.178 196.134 182.297 194.854 181.264C193.575 180.232 193.258 178.451 193.653 177.82Z" stroke="#3E3939" stroke-width="3" stroke-linecap="round" stroke-linejoin="round"/>
<path d="M129.5 98C115.5 102 107.833 109.167 106.5 109.5C102 120.833 94.6061 146 94.606 167C102.106 174 120.606 178 135 178C134.5 164.667 141.5 125.6 145.5 116C141.1 110 131.202 100.667 129.5 98Z" fill="white"/>
<path d="M119.635 86C116.079 88.0741 121.879 95.9259 129.5 98M129.5 98C140.17 94.3704 177.049 90.1481 169.936 87.5556M129.5 98C115.5 102 107.833 109.167 106.5 109.5C102 120.833 94.6061 146 94.606 167C102.106 174 120.606 178 135 178C134.5 164.667 141.5 125.6 145.5 116C141.1 110 131.202 100.667 129.5 98Z" stroke="#3E3939" stroke-width="5" stroke-linecap="round" stroke-linejoin="round"/>
</svg>
