<svg width="28" height="28" viewBox="0 0 28 28" fill="none" xmlns="http://www.w3.org/2000/svg">
<path fill-rule="evenodd" clip-rule="evenodd" d="M18.9518 2.22397C19.504 3.18055 19.1763 4.40373 18.2197 4.95602L16.1609 6.1447C20.6157 6.93019 24 10.8199 24 15.5C24 20.7467 19.7467 25 14.5 25C9.25329 25 5 20.7467 5 15.5C5 14.3954 5.89543 13.5 7 13.5C8.10457 13.5 9 14.3954 9 15.5C9 18.5376 11.4624 21 14.5 21C17.5376 21 20 18.5376 20 15.5C20 12.7408 17.9682 10.4562 15.3192 10.0606L16.3715 12.2568C16.8487 13.2529 16.4282 14.4473 15.432 14.9246C14.4359 15.4019 13.2415 14.9813 12.7642 13.9852L9.62426 7.43208C9.17267 6.48961 9.52284 5.35835 10.4279 4.83582L16.2197 1.49192C17.1763 0.939631 18.3995 1.26738 18.9518 2.22397Z" fill="white" fill-opacity="0.5"/>
</svg>
