<svg width="290" height="211" viewBox="0 0 290 211" fill="none" xmlns="http://www.w3.org/2000/svg">
<g clip-path="url(#clip0)">
<ellipse opacity="0.4" cx="142.5" cy="113" rx="107.5" ry="71" fill="#FFE3AF"/>
<path d="M167.551 86.2412C171.233 84.2781 171.201 83.9751 179.562 82.6295C187.923 81.2839 188.32 85.1416 188.353 85.7944C188.586 90.3891 187.916 95.2182 186.753 99.6458C183.204 113.156 176.13 125.788 165.349 134.944C159.615 139.814 152.475 143.785 144.848 140.827C139.879 138.9 138.899 133.988 138.899 129.247C138.899 121.583 141.281 114.397 145.149 107.782C150.262 99.0392 158.571 91.0301 167.551 86.2412Z" fill="#4B3827"/>
<path d="M123.19 136.016C123.743 139.892 128.216 143.502 131.411 144.874C136.76 144.874 136.127 138.882 136.127 134.835C136.127 127.062 141.178 118.622 144.381 111.805C147.001 106.228 149.517 99.8365 153.944 95.4024C155.308 94.0365 157.573 92.2138 155.451 90.0878C154.226 88.8606 151.05 87.5946 149.392 87.5946C147.047 87.5946 145.8 85.1877 143.496 84.6749C140.753 84.0642 138.066 87.6744 137.044 89.6286C135.208 93.1397 131.784 96.1952 129.183 99.2735C127.428 101.351 126.329 103.886 124.926 106.196C124.279 107.26 123.62 110.608 122.862 111.215C120.19 113.356 120.799 120.232 120.799 123.353C120.799 125.679 120.87 127.627 121.356 129.816C121.838 131.989 122.854 133.662 123.19 136.016Z" fill="#A67242"/>
<path d="M120.84 83.633C124.796 86.7658 128.583 88.2241 133.062 90.3993C131.856 92.8145 129.037 99.5434 127.028 101.556C126.238 102.347 125.262 102.86 124.476 103.648C123.797 104.327 123.722 105.28 123.058 105.946C121.618 107.388 118.941 108.118 118.211 110.13C117.642 111.696 116.924 114.572 114.962 114.572C113.584 114.572 111.868 114.014 111.146 112.712C110.305 111.195 107.91 110.622 106.582 109.458C104.559 107.685 102.3 106.486 100.394 104.577C96.7759 100.953 98.4396 93.1717 98.7443 88.7465C99.2862 80.8762 104.094 75.7135 110.579 71.5468C112.489 70.3196 115.204 75.7231 116.122 77.3575C117.324 79.4976 118.914 82.1077 120.84 83.633Z" fill="#CF8C55"/>
<path d="M89.1614 67.6872C95.3884 69.4755 101.741 71.2999 108.266 71.92C109.242 71.92 110.814 71.9949 110.133 73.3633C109.433 74.77 107.737 76.195 106.668 77.3886C102.762 81.7504 102.304 87.4485 99.9718 92.4473C99.0853 94.3478 96.2256 98.081 93.7241 98.7017C91.226 99.3216 87.8335 98.1133 85.5015 97.4669C79.1922 95.7178 73.4809 93.318 67.3867 91.1002C64.7035 90.1237 62.1679 88.7237 59.4693 87.7966C57.3704 87.0755 55.4371 85.241 53.4729 84.1883C51.067 82.8988 48.2846 82.237 45.8967 80.8686C42.9592 79.1853 40.9779 76.6416 38.6795 74.2774C34.7842 70.2707 29.8491 65.5325 29.0924 59.9564C28.6926 57.0096 27.7998 54.4919 27.7998 51.4888V44.208C27.7998 40.2031 31.0652 36.1192 32.324 32.3086C33.6764 28.2147 36.0239 25.1868 39.3617 22.2053L39.4216 22.1517C42.0959 19.7627 44.7831 17.3621 48.8769 17.3621C50.1537 17.3621 50.744 17.1078 50.744 18.3724C50.744 19.4406 50.0977 20.4191 50.0977 21.4676C50.0977 24.3115 49.8015 27.4131 50.4927 30.1917C51.5302 34.3622 51.7557 39.4789 54.4424 43.1817C56.0951 45.4593 57.7501 47.7755 59.1821 50.1738C61.4954 54.0484 67.3362 57.2316 71.3903 59.4111C74.1811 60.9115 76.5927 62.8722 79.4333 64.3024C82.4691 65.8308 85.5384 66.6469 88.8229 67.59L89.1614 67.6872Z" fill="#CF8C55"/>
<path d="M59.599 9.63537C65.2888 9.48599 70.2387 11.8638 75.7164 13.5111C78.2944 14.7295 79.3841 18.1971 81.8672 19.4324C86.7709 21.8718 89.8873 25.8489 93.3715 29.7408C94.828 31.3677 95.2245 34.1095 96.1906 36.0119C97.6872 38.9589 99.3456 41.1284 101.857 43.5481C104.657 46.245 107.293 49.0235 109.546 52.1609C111.594 55.014 114.619 56.9057 116.693 59.7239C120.088 64.3361 124.214 68.1608 127.77 72.6431C130.116 75.5988 132.476 76.7845 135.915 78.2144C138.52 79.298 138.062 82.4369 136.712 84.351C135.693 85.7961 133.799 85.7697 132.384 86.7734C130.182 88.3338 128.135 90.3241 125.179 90.0301C122.98 89.8112 120.693 88.1134 118.801 87.1502C115.245 85.3408 113.028 82.2743 111.197 79.0219C109.549 76.0931 109.577 72.1317 104.933 72.1317C99.1022 72.1317 93.1488 72.4378 87.3346 72.1048C77.0537 71.5158 67.325 64.1933 59.8837 58.0283C52.84 52.1926 46.5 41.423 46.5 32.4053C46.5 23.2047 46.8389 9.97039 59.599 9.63537Z" fill="#D99E68"/>
<path d="M117.589 102.941C119.272 104.241 121.786 103.853 123.78 103.853C123.78 106.162 121.661 111.481 118.612 111.563C115.675 111.643 113.292 110.277 110.468 109.887C106.561 109.347 102.333 106.804 99.5356 104.002C97.1129 101.576 96.3377 98.9356 96.3377 95.5662C96.3377 93.5574 95.786 90.6458 97.007 88.8434C98.2667 86.984 103.405 88.0598 104.853 89.1041C107.608 91.091 110.82 93.7991 112.736 96.6277C114.197 98.7836 115.491 101.32 117.589 102.941Z" fill="#A67242"/>
<path d="M84.4339 85.1527C89.1034 85.5933 93.8999 85.299 98.591 85.299C98.591 86.7808 98.7933 89.2755 98.7933 90.7573C98.7933 92.5215 98.6184 93.9567 98.0742 95.6416C97.7488 96.6491 96.7117 98.5292 95.5574 98.8265C94.38 99.1298 92.8456 98.8083 91.7147 98.4664C89.7452 97.8709 87.6477 97.468 85.6474 96.9471C80.7715 95.6773 76.3351 93.5273 71.715 91.5788C68.1016 90.0549 64.4448 88.8082 61.1308 86.672C53.7309 81.9019 46.2367 75.8451 42.2771 67.7763C42.1508 67.5189 41.2363 65.2956 41.4794 65.4579C41.9365 65.7632 42.3937 66.0812 42.7827 66.4708C44.1985 67.8889 45.9406 69.4354 47.7153 70.3535C50.2088 71.6434 52.6461 72.9744 55.1309 74.2699C56.4436 74.9544 57.5479 76.0328 58.7938 76.8359C60.4528 77.9053 62.0494 78.7848 63.9173 79.4356C70.7118 81.8028 77.1519 84.4656 84.4339 85.1527Z" fill="#A67242"/>
<path d="M66.5757 23.8373C71.5416 18.9055 81.4708 24.0212 86.789 25.7872C90.4107 27.6265 94.2041 33.8565 96.7263 36.8841C102.697 44.0507 109.77 50.2731 115.443 57.7302C117.719 60.7217 120.503 61.364 123.884 62.3181C126.608 63.0865 129.759 64.9581 132.128 66.5619C136.281 69.374 134.824 79.2115 128.966 77.8022C125.445 76.9551 122.836 75.239 119.622 73.7878C118.721 73.3811 118.728 70.4996 118.521 69.6587C118.141 68.1151 117.408 66.5792 116.516 65.2715C113.1 60.259 107.9 57.3842 102.231 55.465C90.9523 51.6463 77.5593 49.0729 68.6083 40.7551C64.5056 36.9426 61.9397 28.4414 66.5757 23.8373Z" fill="#FFE3AF"/>
<path d="M136.285 67.2533C138.286 67.2724 140.056 67.8712 141.99 68.2923C141.99 70.3581 142.751 73.0544 143.95 74.8007C147.154 79.469 152.804 76.7414 157.248 75.5656C161.004 74.5717 165.252 75.0461 169.105 75.0461C172.343 75.0461 175.786 74.4015 178.571 76.215C180.382 77.3942 182.813 78.6176 182.043 81.1504C181.408 83.2416 178.976 83.2189 177.26 83.8634C171.463 86.041 166.401 82.9455 160.663 82.3771C155.678 81.8833 150.89 83.3584 145.938 83.3584C144.533 83.3584 142.826 82.6109 141.587 82.0018C138.96 80.7113 135.625 80.0805 133.317 78.3075C130.419 76.0807 128.613 70.9318 131.617 68.0326C132.805 66.8856 134.774 67.2389 136.285 67.2533Z" fill="white"/>
<path d="M188.394 82.8302C196.38 88.899 191.988 108.162 178.585 125.856C165.182 143.55 147.843 152.974 139.857 146.905M188.394 82.8302C180.409 76.7614 163.07 86.1852 149.667 103.879C136.264 121.573 131.872 140.836 139.857 146.905M188.394 82.8302C175.905 71.7539 166.642 68.7683 148.91 77.6091M139.857 146.905C124.829 145.266 120.714 127.392 118.756 123.792M148.91 77.6091C143.308 81.2224 130.68 91.6602 124.985 104.505M148.91 77.6091C144.91 68.1081 135.057 61.6229 128.651 59.4466C126.636 52.688 118.489 36.0406 102.015 23.5203C81.4216 7.86994 55.7805 9.82029 42.8152 26.9361C29.8499 44.0519 34.5623 66.9958 56.4699 83.6451C73.996 96.9646 92.0971 99.1957 98.9568 98.6464M98.9568 98.6464C99.6599 103.147 108.418 112.674 115.829 114.652M98.9568 98.6464C96.3248 81.7958 103.536 75.3687 115.829 66.9216" stroke="#3E3939" stroke-width="5" stroke-linecap="round" stroke-linejoin="round"/>
<path d="M151 173.5C151 183.717 170.252 192 194 192C205.922 192 216.711 189.913 224.5 186.541M178 156.323C182.946 155.47 188.345 155 194 155C217.748 155 237 163.283 237 173.5C237 175.787 236.035 177.978 234.271 180" stroke="#3E3939" stroke-width="5" stroke-linecap="round" stroke-linejoin="round"/>
<ellipse rx="5.85565" ry="3.58399" transform="matrix(1 0 0.00455182 0.99999 216.789 175.483)" fill="#3E3939"/>
<ellipse rx="5.85565" ry="3.58399" transform="matrix(1 0 0.00455182 0.99999 197.349 181.767)" fill="#3E3939"/>
<ellipse rx="5.85565" ry="3.58399" transform="matrix(1 0 0.00455182 0.99999 176.211 177.615)" fill="#3E3939"/>
<ellipse rx="4.84936" ry="2.96954" transform="matrix(1 0 0.000992176 0.999999 177.412 166.61)" fill="#3E3939"/>
<ellipse rx="4.85057" ry="2.96883" transform="matrix(1 0 0.00455182 0.99999 192.984 164.506)" fill="#3E3939"/>
<ellipse rx="4.85057" ry="2.96883" transform="matrix(1 0 0.00455182 0.99999 209.556 166.041)" fill="#3E3939"/>
<ellipse rx="5.5046" ry="3.30259" transform="matrix(0.694988 -0.719021 0.717887 0.69616 151.696 129.37)" fill="#A67242"/>
<ellipse rx="5.5046" ry="3.30259" transform="matrix(0.694988 -0.719021 0.717887 0.69616 158.265 111.343)" fill="#A67242"/>
<ellipse rx="5.5046" ry="3.30259" transform="matrix(0.694988 -0.719021 0.717887 0.69616 173.417 97.9279)" fill="#A67242"/>
<ellipse rx="4.56043" ry="2.73533" transform="matrix(0.629017 -0.777392 0.776387 0.630257 180.752 105.018)" fill="#A67242"/>
<ellipse rx="4.55978" ry="2.73572" transform="matrix(0.694988 -0.719021 0.717887 0.69616 173.353 117.808)" fill="#A67242"/>
<ellipse rx="4.55978" ry="2.73572" transform="matrix(0.694988 -0.719021 0.717887 0.69616 162.728 129.295)" fill="#A67242"/>
</g>
<defs>
<clipPath id="clip0">
<rect width="290" height="211" fill="white"/>
</clipPath>
</defs>
</svg>
