<svg width="290" height="211" viewBox="0 0 290 211" fill="none" xmlns="http://www.w3.org/2000/svg">
<g clip-path="url(#clip0)">
<ellipse opacity="0.4" cx="144" cy="105.5" rx="90" ry="58.5" fill="#B3C0A2"/>
<rect opacity="0.7" x="88.3091" y="75.6318" width="38" height="76" transform="rotate(12.6782 88.3091 75.6318)" fill="#ABBA97"/>
<rect opacity="0.7" x="40.0156" y="125.405" width="14.1105" height="43.3529" transform="rotate(156.87 40.0156 125.405)" fill="#BFB6B2"/>
<rect opacity="0.7" x="80.6592" y="23.642" width="14.8329" height="43.1765" transform="rotate(91.181 80.6592 23.642)" fill="#BFB6B2"/>
<rect opacity="0.7" x="58.5771" y="80.2184" width="50" height="70" transform="rotate(12.6782 58.5771 80.2184)" fill="#ABBA97"/>
<rect opacity="0.7" x="47.8457" y="77.8041" width="34" height="68" transform="rotate(12.6782 47.8457 77.8041)" fill="#ABBA97"/>
<rect opacity="0.7" x="38.9434" y="62.7007" width="22" height="97.4574" transform="rotate(6.89019 38.9434 62.7007)" fill="#63744E"/>
<rect opacity="0.7" x="24.5815" y="139.195" width="74" height="18" transform="rotate(21.5531 24.5815 139.195)" fill="#8FA179"/>
<rect opacity="0.7" x="56.5259" y="157.684" width="65.0022" height="18" transform="rotate(2.01586 56.5259 157.684)" fill="#8FA179"/>
<rect opacity="0.7" x="33.6816" y="140.217" width="32.0347" height="18" transform="rotate(28.4058 33.6816 140.217)" fill="#8FA179"/>
<rect x="182.333" y="101.908" width="12" height="81.8472" transform="rotate(55.335 182.333 101.908)" fill="#ABBA97"/>
<rect x="229.02" y="97.7018" width="15.2936" height="41.2318" transform="rotate(89.3675 229.02 97.7018)" fill="#817069"/>
<rect opacity="0.3" x="221.523" y="73.8248" width="21.6713" height="41.2318" transform="rotate(64.8552 221.523 73.8248)" fill="#817069"/>
<rect opacity="0.3" x="232.414" y="87.7867" width="13.774" height="41.2318" transform="rotate(81.5641 232.414 87.7867)" fill="#817069"/>
<ellipse opacity="0.8" cx="239.407" cy="94.248" rx="19.5" ry="30" transform="rotate(12.6782 239.407 94.248)" fill="#BFB6B2"/>
<ellipse cx="94.319" cy="69.421" rx="48.5" ry="8.37846" transform="rotate(12.6782 94.319 69.421)" fill="white"/>
<ellipse cx="93.9065" cy="71.2536" rx="48.5" ry="6.5" transform="rotate(12.6782 93.9065 71.2536)" fill="#C5CDBB"/>
<ellipse cx="99.2234" cy="70.3998" rx="25.5" ry="5.5" transform="rotate(12.6782 99.2234 70.3998)" fill="#808F6D"/>
<rect opacity="0.7" x="102.182" y="66.4529" width="22" height="8.40854" transform="rotate(16.2267 102.182 66.4529)" fill="#63744E"/>
<rect opacity="0.7" x="134.489" y="71.0613" width="14.1105" height="30.0938" transform="rotate(156.87 134.489 71.0613)" fill="#BFB6B2"/>
<rect opacity="0.7" x="28.9316" y="145.553" width="22" height="14.0021" transform="rotate(6.89019 28.9316 145.553)" fill="#63744E"/>
<rect opacity="0.7" x="105.995" y="147.373" width="17.0953" height="14.0021" transform="rotate(-6.17931 105.995 147.373)" fill="#63744E"/>
<rect opacity="0.7" x="130.041" y="86.0449" width="9.44798" height="40.14" transform="rotate(11.5554 130.041 86.0449)" fill="#63744E"/>
<rect x="121.798" y="83.1655" width="10.3476" height="46" transform="rotate(12.6782 121.798 83.1655)" fill="white"/>
<rect x="226.27" y="64.2426" width="10.3476" height="42.2897" transform="rotate(63.9882 226.27 64.2426)" fill="white"/>
<rect x="159.006" y="106" width="10.3476" height="42.2897" transform="rotate(63.9882 159.006 106)" fill="white"/>
<ellipse cx="245.366" cy="89.2903" rx="21.5649" ry="33.0212" transform="rotate(4.14515 245.366 89.2903)" stroke="#3E3939" stroke-width="5" stroke-linecap="round"/>
<path d="M220.431 71.5292L197.773 87.9568C187.589 95.7505 180.402 107.898 198.212 106.506C207.923 105.746 230.38 117.671 240.908 121.748" stroke="#3E3939" stroke-width="5" stroke-linecap="round"/>
<path d="M189.968 106.701L123.958 151.813L119.13 173.277C113.699 176.155 96.1054 180.397 69.1784 174.34C42.2513 168.282 28.82 157.061 25.4702 152.207C25.4702 152.207 44.345 68.3043 46.2105 60.0115C48.0761 51.7188 74.8932 54.164 95.1861 58.7291C115.479 63.2942 141.626 73.2762 139.87 81.0811C138.114 88.886 130.103 124.496 130.103 124.496L178.541 100.543" stroke="#3E3939" stroke-width="5" stroke-linecap="round" stroke-linejoin="round"/>
<path d="M36.0674 143.829C41.9381 147.2 57.7359 154.853 73.9608 158.503C90.1858 162.153 110.744 162.678 118.995 162.484" stroke="#3E3939" stroke-width="5" stroke-linecap="round" stroke-linejoin="round"/>
<path d="M53.6255 65.7795C59.4962 69.1502 75.294 76.804 91.519 80.454C107.744 84.1039 128.302 84.6287 136.553 84.4349" stroke="#3E3939" stroke-width="5" stroke-linecap="round" stroke-linejoin="round"/>
<path d="M123.296 72.7402C129.661 44.4473 94.9899 29.9851 59.9044 28.7548C24.819 27.5244 7.04165 106.55 30.5542 115.939" stroke="#3E3939" stroke-width="5" stroke-linecap="round" stroke-linejoin="round"/>
<ellipse rx="5.31096" ry="3.92872" transform="matrix(-0.186142 0.982523 -0.917734 -0.397196 250.536 90.437)" fill="#3E3939"/>
<ellipse rx="4.24877" ry="3.14298" transform="matrix(-0.186142 0.982523 -0.917734 -0.397196 252.584 75.5143)" fill="#3E3939"/>
<ellipse rx="5.31096" ry="3.92872" transform="matrix(-0.186142 0.982523 -0.917734 -0.397196 243.07 80.4303)" fill="#3E3939"/>
<ellipse rx="5.31096" ry="3.92872" transform="matrix(-0.186142 0.982523 -0.917734 -0.397196 241.546 96.7087)" fill="#3E3939"/>
<ellipse rx="3.71767" ry="2.35723" transform="matrix(-0.186142 0.982523 -0.917734 -0.397196 257.789 85.107)" fill="#3E3939"/>
<ellipse rx="3.71767" ry="2.35723" transform="matrix(-0.186142 0.982523 -0.917734 -0.397196 257.254 96.1671)" fill="#3E3939"/>
<ellipse rx="4.77986" ry="3.14298" transform="matrix(-0.186142 0.982523 -0.917734 -0.397196 250.228 104.419)" fill="#3E3939"/>
</g>
<defs>
<clipPath id="clip0">
<rect width="290" height="211" fill="white"/>
</clipPath>
</defs>
</svg>
