<svg width="254" height="373" viewBox="0 0 254 373" fill="none" xmlns="http://www.w3.org/2000/svg">
<g clip-path="url(#clip0)">
<ellipse opacity="0.4" cx="124.5" cy="196.5" rx="84.5" ry="89.5" fill="#DDDADF"/>
<path d="M62.3645 309.306C48.8399 302.782 34.2976 294.962 22.2402 286C9.85866 292.195 12.1715 306.012 12.1715 321.124C12.1715 339.331 5.61441 363.01 22.2404 367.5C38.8663 371.99 42.7437 365.279 57 367.5C71.2563 369.721 81.7571 369.059 92.6451 369.059C98.4469 369.059 106.962 370.861 112.001 367.5C120 361.5 130.235 357.241 124.368 332.121C122.931 328.316 119.878 318.498 114.772 318.498C107.808 318.498 100.226 319.455 93.448 317.759C83.08 315.166 72.2228 314.063 62.3645 309.306Z" fill="#8C8394"/>
<path d="M40.2957 275.889C26.1412 273.783 20.2018 269.409 9.62455 265.718C-1.87292 270.616 2.11621 309.755 5.64556 318.777C7.53002 327.179 16.1349 329.85 20.2018 330.135C29.9262 332.084 40.1125 331.999 50.0442 331.999C86.469 331.999 122.797 328.948 159.168 328.948C174.395 328.948 191.226 328.026 206.219 325.897C216.171 324.484 226.994 323.037 237.855 321.109C248.701 319.32 242.36 307.852 244.862 292.644C247.365 277.436 248.866 260.449 242.36 262.113C237.348 263.363 232.267 264.556 227.01 265.718C206.763 270.19 189.305 276.031 168.817 278.94C145.07 282.312 123.165 283.178 98.9857 283.178C79.7571 283.178 59.2154 278.704 40.2957 275.889Z" fill="#6D4E4F"/>
<path d="M44.6136 361.588C27.5171 357.7 28.3104 344.52 28.3104 330.026C28.3104 323.5 48.7776 332.641 50.6388 333.038C63.138 335.897 76.0705 334.989 88.9159 334.989C115.703 334.989 142.339 335.37 169.014 333.393C183.103 332.349 197.886 330.265 211.367 325.768C223.197 321.823 235.948 318.163 246.809 311.938C252.001 308 253.934 361.331 228.468 353.166C222.179 355.586 211.679 351.125 206.582 355.205C204.637 356.762 196.725 358.185 194.178 358.751C186.643 360.427 178.34 361.943 170.609 361.943C160.314 361.943 150.945 365.135 140.838 365.135C108.425 365.135 76.7956 368.907 44.6136 361.588Z" fill="#5F5369"/>
<path d="M244 229.5C243.419 254.668 199.623 277.482 104.042 275.272C8.46081 273.061 9.91848 254.668 10.4998 229.5C11.081 204.332 10.5658 181.919 106.147 184.129C201.728 186.339 244.581 204.332 244 229.5Z" fill="#E1DFEA"/>
<path opacity="0.2" d="M234.435 270.668C219.172 271.038 209.465 276.947 201.938 290.056C200.763 291.977 199.627 291.06 198.254 293.141C196.858 295.259 195.094 297.546 194.347 299.981C192.259 306.785 191.478 315.025 190.963 322.131C190.24 332.106 189.231 342.057 188.169 352C190.963 367 202.999 373.5 222.999 365.5C242.999 357.5 248.361 366.5 249.467 357C252.471 333.605 253.561 309.954 249.761 286.631C248.326 277.822 245.226 270.406 234.435 270.668Z" fill="#292130"/>
<path d="M93.5432 181.928C84.2682 173.136 68.4478 176.018 56.8366 176.018C40.105 176.018 24.3682 183.468 8.50097 188.456C3.50097 192.436 1.00097 198 3.00097 206.5C5.00097 215 3.50097 216.455 10.501 214.67C16.7257 212.936 22.9863 211.601 28.8965 210.636C38.2447 209.109 47.8821 206.286 57.071 203.881C64.1962 202.017 71.7561 202.859 78.8231 200.879C82.2038 199.932 93.7929 196.134 95.1371 192.436C96.1512 189.645 95.6898 183.963 93.5432 181.928Z" fill="#6D4E4F"/>
<path d="M112.929 254.147C109.528 254.742 106.137 255.571 102.72 256.039C102.163 256.039 102.801 256.437 102.327 256.694C101.716 257.024 101.239 257.65 100.755 258.134C100.275 258.614 99.5918 259.153 99.3432 259.808C99.0681 260.533 99.3141 261.87 99.3141 262.646C99.3141 263.093 99.2235 263.794 99.6561 264.094C100.398 264.607 101.755 264.934 102.647 265.076C104.929 265.441 107.24 265.338 109.56 265.338H112.412C113.492 265.338 114.548 265.58 115.628 265.6C116.821 265.622 117.973 265.993 119.179 265.993C120.621 265.993 122.047 265.862 123.487 265.862C127.391 265.862 131.289 265.731 135.195 265.731C137.013 265.731 139.029 265.97 140.835 265.702C142.389 265.472 143.909 265.355 145.448 265.047C146.814 264.774 148.17 264.341 149.479 263.905C150.207 263.662 151.142 263.482 151.771 263.046C152.39 262.618 153.801 262.161 153.801 261.278C153.801 259.982 153.466 259.032 152.23 258.396C151.59 258.067 150.722 257.899 150.163 257.479C149.491 256.975 148.573 256.576 147.776 256.301C146.16 255.742 144.771 254.764 143.192 254.132C141.971 253.644 140.347 253.627 139.066 253.485C133.811 252.901 128.472 252.909 123.189 253.033C119.788 253.113 116.275 253.561 112.929 254.147Z" fill="#8C8394"/>
<path d="M10.082 184.117L33.5096 180.21C43.0545 178.473 70.4746 175 93.3826 175C114.208 175 160.197 178.473 180.589 180.21M128.525 329.984C104.018 329.984 63.6173 326.45 28.3032 321.759M4 265C53.4603 275.419 120.716 280.493 177.986 275.284M12.5008 210.978C37.6819 203.771 67.9935 201.048 116.811 201.048C165.391 201.048 216.665 210.216 247.049 223M247.049 342.679C221.85 352.602 186.885 362.544 144.145 362.544C85.3963 362.544 47.8678 360.91 7.0008 351.824" stroke="black" stroke-width="5" stroke-linecap="round" stroke-linejoin="round"/>
<path d="M151.358 251.836C162.858 258.991 148.188 262.809 123.333 262.65C98.4775 262.491 88.7791 254.991 103.358 251.836" stroke="black" stroke-width="5" stroke-linecap="round" stroke-linejoin="round"/>
<path d="M127.985 27.5001C138.636 21.1097 152.867 17.4698 160.5 8C163.26 8 167.841 4.6982 170.33 3.4536C173.456 1.89046 176.776 0.874144 180.23 0.26017C186.147 -0.791811 191.896 -1.0172 197.921 -1.0172C209.289 -1.0172 220.921 -1.84385 232.155 0.132433C238.566 1.26036 245.437 6.18377 245.631 13.3532C245.726 16.8411 243.01 16.4716 240.713 18.5266C237.544 21.3626 232.781 24.5176 228.706 25.9992C223.591 27.8593 219.735 32.9266 216.028 36.6333C212.968 39.6939 211.104 42.7873 208.843 46.2456C206.631 49.6287 204.77 53.1217 202.52 56.4645C200.526 59.4273 199.867 63.0013 197.347 65.6616C195.595 67.5106 194.056 69.1612 192.173 70.835C190.831 72.0279 188.728 72.2927 187.255 73.1342C184.843 74.5128 181.863 75.5292 179.24 76.3277C177.043 76.9964 173.481 76.5457 174.386 79.7127C175.117 82.273 182.345 83.0958 182.401 84.0558C182.611 87.6177 181.942 91.4124 179.527 93.8276C176.766 96.5888 175.311 99.2898 173.779 102.737C170.295 110.576 158.39 109.738 151.361 109.348C149.733 109.257 148.231 107.254 146.763 106.601C144.996 105.816 142.101 108.128 140.887 109.22C137.625 112.156 137.566 118.578 137.566 122.824C137.566 124.772 138.14 126.443 138.14 128.317C138.14 130.555 139.865 132.714 139.865 134.927V145.274C139.865 150.815 132.239 144.412 129.263 144.412C125.584 144.412 123.484 142.112 119.746 142.112C117.942 142.112 116.445 142.791 114.573 142.687C113.129 142.607 108.846 139.893 108.122 138.663C106.025 135.098 104.226 131.677 104.226 127.486C104.226 120.985 102.12 115.82 100.745 109.635C100.474 108.412 99.345 107.077 98.9251 105.771C98.6184 104.817 98.6646 103.59 98.1906 102.737C97.2857 101.108 97.969 98.0314 97.9032 96.2547C97.7498 92.1133 95.6039 87.9896 95.6039 83.928C95.6039 79.7618 95.5378 75.0306 97.041 71.1224C97.9069 68.8711 97.1019 66.0135 97.6158 63.6497C98.1408 61.2348 97.9032 58.6412 97.9032 56.1771C97.9032 52.7094 99.0261 47.4235 101.352 44.9682C104.706 41.428 108.881 39.1636 112.274 35.7711C114.283 33.7619 117.806 32.5984 120.449 31.6196C122.992 30.6778 125.688 28.8788 127.985 27.5001Z" fill="white"/>
<path d="M109.787 118.845C107.273 123.873 108.597 131.489 108.597 136.78C110.442 141.922 114.336 142.912 114.507 136.965C114.507 133.093 115.984 129.24 115.984 125.329C115.984 123.422 116.723 121.724 116.723 119.871V113.715C116.723 109.78 115.984 105.922 115.984 102.059C115.984 100.3 115.397 97.3694 116.066 95.7796C116.637 94.4234 117.092 92.2876 117.092 90.7931C117.092 88.3321 116.019 84.0672 118.754 82.8516C122.252 81.2969 121.525 77.2538 121.525 74.1714C121.525 71.9945 120.786 69.967 120.786 67.7895C120.786 66.3702 120.851 64.9339 120.704 63.5212C120.654 63.0391 120.464 60.504 120.232 60.6894C119.579 61.2117 118.088 63.3896 117.851 64.2189C117.421 65.726 115.792 66.649 115.163 68.1589C114.205 70.459 112.514 72.9297 110.813 74.7255C110.237 75.3334 108.058 77.2284 108.412 77.8651C108.903 78.75 108.597 80.3742 108.597 81.3742V90.6084C108.597 92.2737 108.414 93.8459 107.653 95.3692C106.993 96.6892 107.119 97.8881 107.119 99.4734C107.119 101.178 108.23 103.088 108.617 104.829C109.009 106.593 110.254 108.39 110.443 110.185C110.776 113.349 111.235 115.948 109.787 118.845Z" fill="#F3DDC8"/>
<path d="M124.643 138.187C123.944 140.547 122.556 141.495 120.273 142.854C121.168 142.854 122.174 144.936 122.951 145.367C123.575 145.714 124.347 145.364 125.004 145.663C125.576 145.923 126.271 146.112 126.877 146.337C130.012 147.498 133.87 149.125 137.13 147.585C139.567 146.434 139.956 145.045 139.956 142.41C139.956 140.801 139.753 138.539 139.298 137.005L139.274 136.922C138.044 132.771 136.652 128.073 137.606 123.778C137.893 122.489 138.348 121.483 139.068 120.312C140.524 117.947 140.286 114.307 140.974 111.653C141.382 110.079 141.369 107.661 143.505 107.661C144.988 107.661 146.066 108.092 147.201 108.975C148.79 110.211 150.756 111.322 152.607 112.097C155.901 113.476 158.094 113.44 161.413 112.245C164.124 111.269 167.047 110.424 169.464 108.844C170.466 108.188 172.342 106.895 172.487 105.591C172.643 104.181 173.328 102.8 173.67 101.434C174.064 99.8564 175.648 99.1284 176.693 97.9672C178.218 96.273 179.363 94.3844 180.767 92.5782C182.308 90.5974 182.146 88.5346 181.589 86.1377C181.428 85.4461 180.976 84.2398 180.472 83.706C180.055 83.2648 179.349 83.1154 178.993 82.671C178.303 81.8079 175.647 82.3126 174.623 81.9973C173.712 81.7171 173.19 81.5985 172.355 80.9787C172.203 80.8653 170.241 79.1723 170.877 78.9907C173.156 78.3393 175.474 77.7445 177.679 76.7562C182.698 74.5063 187.442 71.7362 192.449 69.5106C195.088 68.3377 196.676 65.2085 198.577 63.2344C200.349 61.3945 201.731 59.3127 203.178 57.254C204.218 55.7735 204.371 53.6483 205.018 51.9964C205.616 50.4691 206.491 49.0838 207.219 47.6261C208.567 44.9314 210.858 43.4443 213.003 41.4156C214.512 39.9876 216.37 38.9173 217.965 37.571C219.221 36.5097 220.109 35.0075 221.3 33.8907C223.552 31.7793 225.821 29.9949 228.233 28.1074C230.698 26.1786 232.669 23.6827 235.249 21.8969C236.478 21.0462 237.519 20.1911 238.141 18.7916C239.515 15.7 235.774 13.8955 233.261 13.3369C231.749 13.001 230.548 12.4333 228.973 12.4333C227.796 12.4333 225.57 11.9913 224.684 12.8769C223.425 14.1366 222.098 14.4772 220.626 15.3907C218.289 16.8412 215.752 18.0542 213.364 19.4653C211.493 20.5709 209.808 22.4674 208.37 24.0856L208.271 24.1971C206.69 25.9756 204.901 27.3557 202.948 28.6988C201.864 29.4436 200.362 31.6562 198.955 31.6562C198.343 31.6562 197.888 31.6378 197.329 31.8862C195.592 32.6583 193.635 33.1563 191.841 34.0221C190.33 34.7515 188.861 34.8576 187.865 36.3223C187.112 37.4297 186.679 39.266 185.647 40.0683C184.364 41.0666 182.558 41.94 181.425 42.96C179.635 44.5706 178.281 46.7553 176.446 48.2504C173.332 50.7883 169.873 53.3734 167.607 56.6461C165.351 59.9046 163.455 63.57 159.573 65.3046C157.773 66.1088 155.738 66.5997 153.855 67.2105C151.908 67.8421 149.979 69.4729 148.105 70.3814C144.741 72.0124 143.476 74.608 141.369 77.4956C139.723 79.7509 139.264 82.3049 138.181 84.7411C137.627 85.9885 137.377 87.8941 136.637 88.9636C135.537 90.5523 135.266 93.1458 134.698 95.0098C134.12 96.9068 134.537 98.9551 133.877 100.842C133.04 103.233 131.362 105.174 130.722 107.661C130.317 109.235 129.489 110.438 128.422 111.505C127.123 112.805 127.646 114.295 127.223 115.777C127.022 116.478 125.531 115.875 126.204 116.697C126.811 117.44 126.935 119.496 126.582 120.378C125.344 123.472 125.042 126.655 122.934 129.365C122.157 130.364 120.964 131.911 123.099 131.911C124.29 131.911 126.377 132.611 126.04 134.129C125.738 135.488 125.042 136.842 124.643 138.187Z" fill="#F3DDC8"/>
<path d="M105.122 203.289C116.511 183.482 118.009 180.876 120.5 146C123.333 143.167 129 138.9 129 144.5C129 151.5 133.5 184 145 197C156.5 210 152.5 219.5 147.5 228.5C142.5 237.5 117.5 237 111 235.5C104.5 234 93.5001 223.5 105 203.5L105.122 203.289Z" fill="#7E5537"/>
<path d="M105.122 203.289C116.511 183.482 118.009 180.876 120.5 146C123.333 143.167 123.5 138.9 123.5 144.5C123.5 151.5 124 175.5 131.5 196C139 216.5 136.5 220.5 131.5 229.5C126.5 238.5 117.5 237 111 235.5C104.5 234 93.5001 223.5 105 203.5L105.122 203.289Z" fill="#9C6431"/>
<path d="M108.469 204.18C117.889 184.807 119.128 182.259 121.188 148.146C123.531 145.375 123.669 141.202 123.669 146.679C123.669 153.526 125.737 168.197 119.534 190.693C116.226 200.474 112.917 223.948 109.196 222.97C103.82 221.503 98.8575 223.948 108.369 204.387L108.469 204.18Z" fill="#CF9865"/>
<path d="M118.815 143.601C126.086 146.019 130.934 140.579 133.964 130.908C135.032 127.498 135.875 125.741 136.624 124.26M118.815 143.601C117.12 143.038 115.951 142.08 115.18 140.835M118.815 143.601C117.452 142.796 114.818 140.458 115.18 137.557C115.632 133.931 115.785 132.722 117.603 129.699C121.481 130.667 126.49 133.326 128.51 134.535C128.51 137.436 127.702 139.944 127.298 140.835M203.039 34.8038C191.526 42.6614 187.285 46.8924 185.468 54.1456C183.65 58.9811 183.043 58.9811 179.408 65.6298C177.59 67.4431 176.985 69.8608 173.955 72.883C172.794 74.0415 171.098 76.0882 169.107 78.3081M121.239 58.9811C122.908 67.8569 122.024 75.7146 121.868 82.5539M115.18 140.835C112.641 136.74 114.391 129.54 115.785 123.051C116.997 117.611 121.845 91.6203 121.845 84.3672C121.845 83.7709 121.854 83.1665 121.868 82.5539M115.18 140.835C109.12 142.904 106.697 136.953 106.091 132.117C105.485 127.282 102.456 118.82 100.637 112.775C98.819 106.731 97.0023 101.291 95.7905 93.4336C94.5786 85.576 96.3964 77.114 97.0023 68.0475C97.6082 58.9811 97.6082 52.3323 102.456 44.4747C103.667 42.6614 108.878 37.826 120.027 32.9905M116.997 108.544C116.513 102.742 115.786 100.082 115.18 97.6647M115.18 97.6647C115.987 96.6573 117.603 93.9172 117.603 91.0159C117.603 88.1146 117.199 84.5686 116.997 83.1583M115.18 97.6647C110.332 97.0602 104.879 97.0602 101.243 97.6647M100.637 72.883C108.514 78.3229 114.013 83.7627 121.868 82.5539M107.303 117.006C110.696 116.523 113.564 116.805 114.574 117.006M120.027 112.775C125.359 113.259 127.904 114.589 128.51 115.193M123.057 117.611C125.965 118.094 128.308 119.424 129.116 120.029M129.722 145.415C133.357 147.228 136.992 147.228 138.811 145.415C140.629 143.601 141.234 140.579 140.023 136.348C139.053 132.963 137.353 126.879 136.624 124.26M136.624 124.26C137.999 121.54 139.06 119.748 140.629 110.358C142.18 101.075 146.46 95.2574 150.929 91.6377M145.476 106.731C151.535 109.753 153.353 110.358 159.412 110.358C162.555 110.358 165.209 109.707 167.289 108.912M159.412 96.4558C163.048 95.2469 166.077 94.0381 170.319 98.8735C174.56 103.709 173.349 105.522 171.531 106.731C170.656 107.313 169.22 108.175 167.289 108.912M167.289 108.912C161.836 107.94 161.23 104.313 159.412 104.918C157.594 105.522 159.412 109.681 161.836 109.753M164.26 89.8071C166.683 87.3893 170.32 80.7406 173.955 80.7406C177.59 80.7406 183.043 82.5539 182.437 86.7849M182.437 86.7849C181.226 88.5982 179.408 89.8071 175.772 89.8071C172.137 89.8071 171.531 87.3893 171.531 90.4115C171.531 93.4336 173.954 94.0381 176.378 93.4336C178.317 92.9501 180.504 91.2174 181.354 90.4115M182.437 86.7849C182.263 88.0034 181.887 89.2219 181.354 90.4115M175.166 98.2691C177.755 96.1173 180.036 93.3526 181.354 90.4115M169.107 78.3081C165.904 81.8792 161.937 85.8984 158.201 87.3893C157.62 87.6212 157.011 87.8864 156.383 88.1892M169.107 78.3081C185.468 72.883 189.103 72.2786 194.556 68.0475C200.009 63.8165 206.069 52.3323 208.492 47.4969C210.916 42.6614 212.734 39.0348 224.852 29.9684C234.547 22.7152 238.991 19.6931 240.001 19.0886M129.722 26.9462C138.205 22.1108 153.353 13.0443 161.836 7M150.929 91.6377C152.141 84.3672 151.535 76.5096 149.111 71.6741M150.929 91.6377C152.774 90.1433 154.652 89.0235 156.383 88.1892M156.383 88.1892C158.201 82.5539 157.594 80.7406 157.594 77.114" stroke="#3E3939" stroke-width="4" stroke-linecap="round" stroke-linejoin="round"/>
<path d="M126.64 241.298C137.483 240.529 142.884 237.723 144.229 236.417C144.444 235.19 144.7 232.84 144.003 233.253M144.003 233.253C143.132 233.769 136.548 236.962 129.771 237.442C122.994 237.923 119.557 237.486 113.57 236.321M144.003 233.253C143.213 231.719 151.442 229.319 151.847 219.07C152.17 210.871 147.443 202.954 145.04 200.021C142.469 196.872 137.292 190.078 137.15 188.089M137.15 188.089C137.794 187.708 137.926 185.525 136.005 184.764C134.424 184.876 132.536 187.054 125.307 187.567C119.524 187.977 117.12 187.39 116.642 187.046C115.186 186.705 114.642 186.499 114.099 186.416M137.15 188.089C134.294 189.427 129.631 190.894 125.564 191.182C123.37 191.187 118.787 191.663 115.302 190.548M147.878 214.355C147.135 216.679 142.714 218.355 139.762 211.978C136.809 205.601 140.489 203.069 144.232 204.62C141.844 206.153 141.65 206.621 141.73 207.75M109.827 234.769C109.488 233.203 101.146 230.843 101.003 219.27M109.896 194.338C107.936 197.062 106.163 199.642 104.724 202.427M112.559 190.288C111.526 188.544 111.607 186.495 112.962 186.398C113.463 186.363 113.781 186.368 114.099 186.416M114.099 186.416C113.705 184.075 112.689 182.557 115.19 182.607C115.614 182.615 115.982 182.66 116.334 182.727M111.763 236.449C110.794 238.789 113.392 240.194 116.393 240.89M122.384 207.079C127.579 206.71 130.887 211.699 129.192 216.589C127.497 221.479 125.915 224.77 120.494 221.975C116.157 219.739 117.074 215.405 118.075 213.517M104.408 206.537C106.587 205.247 109.491 204.587 108.974 210.074C108.458 215.562 107.989 221.727 104.31 221.08C103.101 220.867 102.427 220.121 102.084 219.193M101.309 217.204C102.794 215.1 103.359 210.927 103.456 209.103M131.745 182.341C131.761 182.567 130.438 183.115 125.017 183.499C119.39 183.898 118.056 183.053 116.334 182.727M116.334 182.727C118.433 180.332 121.315 162.888 120.026 144.81M115.18 124.864C115.065 123.41 112.32 121.725 116.391 120.029M126.692 144.81C127.352 154.075 127.986 174.204 131.762 179.387M106.102 208.007C106.593 209.789 106.543 212.064 106.457 212.978M125.094 210.066C122.577 209.791 120.786 210.145 120.915 211.953" stroke="#3E3939" stroke-width="4" stroke-linecap="round" stroke-linejoin="round"/>
<circle cx="205.5" cy="167.5" r="53.5" fill="white"/>
<path fill-rule="evenodd" clip-rule="evenodd" d="M230.581 142C234.888 146.133 238.556 150.489 239.819 154.931C219.67 170.625 215.775 174.243 202.65 189.27C202.201 189.812 201.71 190.373 201.171 190.966C201.024 191.136 200.875 191.307 200.725 191.48C200.719 191.477 200.713 191.475 200.708 191.472C200.469 191.731 200.221 191.996 199.964 192.268C187.865 184.274 186.395 182.238 183.111 177.69C181.081 174.878 178.357 171.107 172 164.373C174.509 161.298 176.183 159.78 180.099 157.768C187.27 165.57 188.858 167.645 190.793 169.321C192.222 170.559 193.841 171.579 198.04 174.529C199.491 172.788 200.854 171.126 202.167 169.525C210.511 159.354 216.827 151.654 230.581 142Z" fill="#108DBB"/>
</g>
<defs>
<clipPath id="clip0">
<rect width="254" height="373" fill="white"/>
</clipPath>
</defs>
</svg>
