<svg width="290" height="211" viewBox="0 0 290 211" fill="none" xmlns="http://www.w3.org/2000/svg">
<g clip-path="url(#clip0)">
<ellipse cx="165" cy="116.5" rx="92" ry="64.5" fill="#F1EFE5"/>
<ellipse cx="85.0002" cy="105.5" rx="51" ry="34.5" transform="rotate(19.6479 85.0002 105.5)" fill="#D7D5C9"/>
<ellipse cx="183.176" cy="119.491" rx="27.7197" ry="47.025" transform="rotate(28.4429 183.176 119.491)" fill="white"/>
<ellipse cx="153.483" cy="80.6202" rx="27.7197" ry="26.6326" transform="rotate(28.4429 153.483 80.6202)" fill="white"/>
<ellipse cx="187.8" cy="136" rx="15.7909" ry="34.7115" transform="rotate(28.4429 187.8 136)" fill="#D7D5C9"/>
<path d="M148.377 146C146.377 117.5 151.877 102.5 175.877 83" stroke="#ADAA9B" stroke-width="14" stroke-linecap="round" stroke-linejoin="round"/>
<path d="M121.46 138C119.021 105.881 125.729 88.9762 155 67" stroke="#ADAA9B" stroke-width="11" stroke-linecap="round" stroke-linejoin="round"/>
<rect opacity="0.7" x="128.687" y="101.828" width="32" height="44" transform="rotate(13.7491 128.687 101.828)" fill="#ADAA9B"/>
<path opacity="0.7" d="M76.6226 87L107.706 94.6055L107.706 144.95L76.6226 137.345L76.6226 87Z" fill="#ADAA9B"/>
<ellipse cx="93.3711" cy="57.6975" rx="43" ry="22" transform="rotate(10.8448 93.3711 57.6975)" fill="#F1EFE5"/>
<ellipse cx="186.008" cy="124.937" rx="41" ry="18" transform="rotate(116.692 186.008 124.937)" stroke="#3E3939" stroke-width="5" stroke-linecap="round" stroke-linejoin="round"/>
<path d="M177.622 74.8308C180.189 76.1216 181.927 78.7122 182.855 82.232M149.85 147.879C146.472 149.233 143.356 149.384 140.788 148.093C131.906 143.627 132.952 123.607 143.123 103.376C149.056 91.5758 156.783 82.3102 163.956 77.5234" stroke="#3E3939" stroke-width="5" stroke-linecap="round" stroke-linejoin="round"/>
<path d="M180.968 78.1926C180.04 74.6729 171.255 71.6299 168.687 70.339C159.805 65.8736 144.36 78.6539 134.189 98.8846C124.017 119.115 122.972 139.136 131.854 143.601C134.421 144.892 143.222 150.131 146.601 148.776" stroke="#3E3939" stroke-width="5" stroke-linecap="round" stroke-linejoin="round"/>
<path d="M198.622 83.1506C185.053 76.3285 165.405 87.9982 154.737 109.216C146.024 126.546 145.998 144.886 153.674 154.742" stroke="#3E3939" stroke-width="5" stroke-linecap="round" stroke-linejoin="round"/>
<path d="M158.861 64.2801C159.766 59.8845 158.536 49.566 146.385 43.4571C134.235 37.3481 101.059 13.3936 88.7587 14.4845C76.4579 15.5754 47.7889 36.9784 40.1527 52.1668C32.5165 67.3553 31.5392 104.919 38.6743 114.103C45.8095 123.286 96.301 143.075 96.301 143.075C98.9797 145.168 107.516 147.706 120.231 141.116" stroke="#3E3939" stroke-width="5" stroke-linecap="round" stroke-linejoin="round"/>
<path d="M135.351 78.7625C121.463 89.6886 118.321 94.8246 51.76 61.3602M97.9793 91.8728C110.934 98.3861 117.63 103.991 115.137 118.967M88.4822 139.704C98.3125 143.527 110.613 142.436 113.316 133.721" stroke="#3E3939" stroke-width="5" stroke-linecap="round"/>
<ellipse cx="191.815" cy="127.857" rx="5" ry="2.5" transform="rotate(116.692 191.815 127.857)" fill="#3E3939"/>
<ellipse cx="197.657" cy="115.124" rx="4" ry="2" transform="rotate(116.692 197.657 115.124)" fill="#3E3939"/>
<ellipse cx="189.15" cy="119.801" rx="5" ry="2.5" transform="rotate(116.692 189.15 119.801)" fill="#3E3939"/>
<ellipse cx="183.305" cy="133.652" rx="5" ry="2.5" transform="rotate(116.692 183.305 133.652)" fill="#3E3939"/>
<ellipse cx="198.758" cy="122.953" rx="3.5" ry="1.5" transform="rotate(116.692 198.758 122.953)" fill="#3E3939"/>
<ellipse cx="195.159" cy="132.337" rx="3.5" ry="1.5" transform="rotate(116.692 195.159 132.337)" fill="#3E3939"/>
<ellipse cx="187.54" cy="139.699" rx="4.5" ry="2" transform="rotate(116.692 187.54 139.699)" fill="#3E3939"/>
<circle cx="198.5" cy="146.5" r="2.5" fill="#3E3939"/>
<circle cx="212.5" cy="137.5" r="2.5" fill="#3E3939"/>
<circle cx="222.5" cy="155.5" r="2.5" fill="#3E3939"/>
<circle cx="231.5" cy="178.5" r="2.5" fill="#3E3939"/>
<circle cx="224.5" cy="163.5" r="2.5" fill="#3E3939"/>
<circle cx="211.5" cy="149.5" r="2.5" fill="#3E3939"/>
<circle cx="212.5" cy="164.5" r="2.5" fill="#3E3939"/>
<circle cx="189.5" cy="140.5" r="2.5" fill="#3E3939"/>
<circle cx="206.5" cy="128.5" r="2.5" fill="#3E3939"/>
</g>
<defs>
<clipPath id="clip0">
<rect width="290" height="211" fill="white"/>
</clipPath>
</defs>
</svg>
