<svg width="290" height="211" viewBox="0 0 290 211" fill="none" xmlns="http://www.w3.org/2000/svg">
<path fill-rule="evenodd" clip-rule="evenodd" d="M202.477 46C212.512 55.6199 221.056 65.7587 224 76.0976C177.056 112.626 167.984 121.045 137.403 156.025C136.359 157.284 135.217 158.588 133.964 159.966C133.619 160.362 133.271 160.761 132.92 161.164C132.907 161.158 132.894 161.153 132.881 161.147C132.324 161.749 131.747 162.366 131.148 163C102.962 144.394 99.5352 139.653 91.8856 129.069C87.1556 122.524 80.8111 113.746 66 98.0741C71.8456 90.9165 75.7459 87.3842 84.8674 82.7008C101.573 100.858 105.274 105.689 109.781 109.589C113.111 112.471 116.882 114.845 126.666 121.712C130.046 117.66 133.222 113.792 136.281 110.065C155.719 86.3917 170.434 68.47 202.477 46Z" fill="#108DBB"/>
</svg>
