<svg width="254" height="373" viewBox="0 0 254 373" fill="none" xmlns="http://www.w3.org/2000/svg">
<g clip-path="url(#clip0)">
<ellipse cx="126.5" cy="196.5" rx="111.5" ry="89.5" fill="#F4E9E0"/>
<circle cx="205.5" cy="167.5" r="53.5" fill="white"/>
<path d="M126.985 27.5001C137.636 21.1097 151.867 17.4698 159.5 8C162.26 8 166.841 4.6982 169.33 3.4536C172.456 1.89046 175.776 0.874144 179.23 0.26017C185.147 -0.791811 190.896 -1.0172 196.921 -1.0172C208.289 -1.0172 219.921 -1.84385 231.155 0.132433C237.566 1.26036 244.437 6.18377 244.631 13.3532C244.726 16.8411 242.01 16.4716 239.713 18.5266C236.544 21.3626 231.781 24.5176 227.706 25.9992C222.591 27.8593 218.735 32.9266 215.028 36.6333C211.968 39.6939 210.104 42.7873 207.843 46.2456C205.631 49.6287 203.77 53.1217 201.52 56.4645C199.526 59.4273 198.867 63.0013 196.347 65.6616C194.595 67.5106 193.056 69.1612 191.173 70.835C189.831 72.0279 187.728 72.2927 186.255 73.1342C183.843 74.5128 180.863 75.5292 178.24 76.3277C176.043 76.9964 172.481 76.5457 173.386 79.7127C174.117 82.273 181.345 83.0958 181.401 84.0558C181.611 87.6177 180.942 91.4124 178.527 93.8276C175.766 96.5888 174.311 99.2898 172.779 102.737C169.295 110.576 157.39 109.738 150.361 109.348C148.733 109.257 147.231 107.254 145.763 106.601C143.996 105.816 141.101 108.128 139.887 109.22C136.625 112.156 136.566 118.578 136.566 122.824C136.566 124.772 137.14 126.443 137.14 128.317C137.14 130.555 138.865 132.714 138.865 134.927V145.274C138.865 150.815 131.239 144.412 128.263 144.412C124.584 144.412 122.484 142.112 118.746 142.112C116.942 142.112 115.445 142.791 113.573 142.687C112.129 142.607 107.846 139.893 107.122 138.663C105.025 135.098 103.226 131.677 103.226 127.486C103.226 120.985 101.12 115.82 99.7454 109.635C99.4736 108.412 98.345 107.077 97.9251 105.771C97.6184 104.817 97.6646 103.59 97.1906 102.737C96.2857 101.108 96.969 98.0314 96.9032 96.2547C96.7498 92.1133 94.6039 87.9896 94.6039 83.928C94.6039 79.7618 94.5378 75.0306 96.041 71.1224C96.9069 68.8711 96.1019 66.0135 96.6158 63.6497C97.1408 61.2348 96.9032 58.6412 96.9032 56.1771C96.9032 52.7094 98.0261 47.4235 100.352 44.9682C103.706 41.428 107.881 39.1636 111.274 35.7711C113.283 33.7619 116.806 32.5984 119.449 31.6196C121.992 30.6778 124.688 28.8788 126.985 27.5001Z" fill="white"/>
<path d="M109.787 118.845C107.273 123.873 108.597 131.489 108.597 136.78C110.442 141.922 114.336 142.912 114.507 136.965C114.507 133.093 115.984 129.24 115.984 125.329C115.984 123.422 116.723 121.724 116.723 119.871V113.715C116.723 109.78 115.984 105.922 115.984 102.059C115.984 100.3 115.397 97.3694 116.066 95.7796C116.637 94.4234 117.092 92.2876 117.092 90.7931C117.092 88.3321 116.019 84.0672 118.754 82.8516C122.252 81.2969 121.525 77.2538 121.525 74.1714C121.525 71.9945 120.786 69.967 120.786 67.7895C120.786 66.3702 120.851 64.9339 120.704 63.5212C120.654 63.0391 120.464 60.504 120.232 60.6894C119.579 61.2117 118.088 63.3896 117.851 64.2189C117.421 65.726 115.792 66.649 115.163 68.1589C114.205 70.459 112.514 72.9297 110.813 74.7255C110.237 75.3334 108.058 77.2284 108.412 77.8651C108.903 78.75 108.597 80.3742 108.597 81.3742V90.6084C108.597 92.2737 108.414 93.8459 107.653 95.3692C106.993 96.6892 107.119 97.8881 107.119 99.4734C107.119 101.178 108.23 103.088 108.617 104.829C109.009 106.593 110.254 108.39 110.443 110.185C110.776 113.349 111.235 115.948 109.787 118.845Z" fill="#F3DDC8"/>
<path d="M124.643 138.187C123.944 140.547 122.556 141.495 120.273 142.854C121.168 142.854 122.174 144.936 122.951 145.367C123.575 145.714 124.347 145.364 125.004 145.663C125.576 145.923 126.271 146.112 126.877 146.337C130.012 147.498 133.87 149.125 137.13 147.585C139.567 146.434 139.956 145.045 139.956 142.41C139.956 140.801 139.753 138.539 139.298 137.005L139.274 136.922C138.044 132.771 136.652 128.073 137.606 123.778C137.893 122.489 138.348 121.483 139.068 120.312C140.524 117.947 140.286 114.307 140.974 111.653C141.382 110.079 141.369 107.661 143.505 107.661C144.988 107.661 146.066 108.092 147.201 108.975C148.79 110.211 150.756 111.322 152.607 112.097C155.901 113.476 158.094 113.44 161.413 112.245C164.124 111.269 167.047 110.424 169.464 108.844C170.466 108.188 172.342 106.895 172.487 105.591C172.643 104.181 173.328 102.8 173.67 101.434C174.064 99.8564 175.648 99.1284 176.693 97.9672C178.218 96.273 179.363 94.3844 180.767 92.5782C182.308 90.5974 182.146 88.5346 181.589 86.1377C181.428 85.4461 180.976 84.2398 180.472 83.706C180.055 83.2648 179.349 83.1154 178.993 82.671C178.303 81.8079 175.647 82.3126 174.623 81.9973C173.712 81.7171 173.19 81.5985 172.355 80.9787C172.203 80.8653 170.241 79.1723 170.877 78.9907C173.156 78.3393 175.474 77.7445 177.679 76.7562C182.698 74.5063 187.442 71.7362 192.449 69.5106C195.088 68.3377 196.676 65.2085 198.577 63.2344C200.349 61.3945 201.731 59.3127 203.178 57.254C204.218 55.7735 204.371 53.6483 205.018 51.9964C205.616 50.4691 206.491 49.0838 207.219 47.6261C208.567 44.9314 210.858 43.4443 213.003 41.4156C214.512 39.9876 216.37 38.9173 217.965 37.571C219.221 36.5097 220.109 35.0075 221.3 33.8907C223.552 31.7793 225.821 29.9949 228.233 28.1074C230.698 26.1786 232.669 23.6827 235.249 21.8969C236.478 21.0462 237.519 20.1911 238.141 18.7916C239.515 15.7 235.774 13.8955 233.261 13.3369C231.749 13.001 230.548 12.4333 228.973 12.4333C227.796 12.4333 225.57 11.9913 224.684 12.8769C223.425 14.1366 222.098 14.4772 220.626 15.3907C218.289 16.8412 215.752 18.0542 213.364 19.4653C211.493 20.5709 209.808 22.4674 208.37 24.0856L208.271 24.1971C206.69 25.9756 204.901 27.3557 202.948 28.6988C201.864 29.4436 200.362 31.6562 198.955 31.6562C198.343 31.6562 197.888 31.6378 197.329 31.8862C195.592 32.6583 193.635 33.1563 191.841 34.0221C190.33 34.7515 188.861 34.8576 187.865 36.3223C187.112 37.4297 186.679 39.266 185.647 40.0683C184.364 41.0666 182.558 41.94 181.425 42.96C179.635 44.5706 178.281 46.7553 176.446 48.2504C173.332 50.7883 169.873 53.3734 167.607 56.6461C165.351 59.9046 163.455 63.57 159.573 65.3046C157.773 66.1088 155.738 66.5997 153.855 67.2105C151.908 67.8421 149.979 69.4729 148.105 70.3814C144.741 72.0124 143.476 74.608 141.369 77.4956C139.723 79.7509 139.264 82.3049 138.181 84.7411C137.627 85.9885 137.377 87.8941 136.637 88.9636C135.537 90.5523 135.266 93.1458 134.698 95.0098C134.12 96.9068 134.537 98.9551 133.877 100.842C133.04 103.233 131.362 105.174 130.722 107.661C130.317 109.235 129.489 110.438 128.422 111.505C127.123 112.805 127.646 114.295 127.223 115.777C127.022 116.478 125.531 115.875 126.204 116.697C126.811 117.44 126.935 119.496 126.582 120.378C125.344 123.472 125.042 126.655 122.934 129.365C122.157 130.364 120.964 131.911 123.099 131.911C124.29 131.911 126.377 132.611 126.04 134.129C125.738 135.488 125.042 136.842 124.643 138.187Z" fill="#F3DDC8"/>
<path d="M105.122 203.289C116.511 183.482 118.009 180.876 120.5 146C123.333 143.167 129 138.9 129 144.5C129 151.5 133.5 184 145 197C156.5 210 152.5 219.5 147.5 228.5C142.5 237.5 117.5 237 111 235.5C104.5 234 93.5001 223.5 105 203.5L105.122 203.289Z" fill="#7E5537"/>
<path d="M105.122 203.289C116.511 183.482 118.009 180.876 120.5 146C123.333 143.167 123.5 138.9 123.5 144.5C123.5 151.5 124 175.5 131.5 196C139 216.5 136.5 220.5 131.5 229.5C126.5 238.5 117.5 237 111 235.5C104.5 234 93.5001 223.5 105 203.5L105.122 203.289Z" fill="#9C6431"/>
<path d="M108.469 204.18C117.889 184.807 119.128 182.259 121.188 148.146C123.531 145.375 123.669 141.202 123.669 146.679C123.669 153.526 125.737 168.197 119.534 190.693C116.226 200.474 112.917 223.948 109.196 222.97C103.82 221.503 98.8575 223.948 108.369 204.387L108.469 204.18Z" fill="#CF9865"/>
<path d="M118.815 143.601C126.086 146.019 130.934 140.579 133.964 130.908C135.032 127.498 135.875 125.741 136.624 124.26M118.815 143.601C117.12 143.038 115.951 142.08 115.18 140.835M118.815 143.601C117.452 142.796 114.818 140.458 115.18 137.557C115.632 133.931 115.785 132.722 117.603 129.699C121.481 130.667 126.49 133.326 128.51 134.535C128.51 137.436 127.702 139.944 127.298 140.835M203.039 34.8038C191.526 42.6614 187.285 46.8924 185.468 54.1456C183.65 58.9811 183.043 58.9811 179.408 65.6298C177.59 67.4431 176.985 69.8608 173.955 72.883C172.794 74.0415 171.098 76.0882 169.107 78.3081M121.239 58.9811C122.908 67.8569 122.024 75.7146 121.868 82.5539M115.18 140.835C112.641 136.74 114.391 129.54 115.785 123.051C116.997 117.611 121.845 91.6203 121.845 84.3672C121.845 83.7709 121.854 83.1665 121.868 82.5539M115.18 140.835C109.12 142.904 106.697 136.953 106.091 132.117C105.485 127.282 102.456 118.82 100.637 112.775C98.819 106.731 97.0023 101.291 95.7905 93.4336C94.5786 85.576 96.3964 77.114 97.0023 68.0475C97.6082 58.9811 97.6082 52.3323 102.456 44.4747C103.667 42.6614 108.878 37.826 120.027 32.9905M116.997 108.544C116.513 102.742 115.786 100.082 115.18 97.6647M115.18 97.6647C115.987 96.6573 117.603 93.9172 117.603 91.0159C117.603 88.1146 117.199 84.5686 116.997 83.1583M115.18 97.6647C110.332 97.0602 104.879 97.0602 101.243 97.6647M100.637 72.883C108.514 78.3229 114.013 83.7627 121.868 82.5539M107.303 117.006C110.696 116.523 113.564 116.805 114.574 117.006M120.027 112.775C125.359 113.259 127.904 114.589 128.51 115.193M123.057 117.611C125.965 118.094 128.308 119.424 129.116 120.029M129.722 145.415C133.357 147.228 136.992 147.228 138.811 145.415C140.629 143.601 141.234 140.579 140.023 136.348C139.053 132.963 137.353 126.879 136.624 124.26M136.624 124.26C137.999 121.54 139.06 119.748 140.629 110.358C142.18 101.075 146.46 95.2574 150.929 91.6377M145.476 106.731C151.535 109.753 153.353 110.358 159.412 110.358C162.555 110.358 165.209 109.707 167.289 108.912M159.412 96.4558C163.048 95.2469 166.077 94.0381 170.319 98.8735C174.56 103.709 173.349 105.522 171.531 106.731C170.656 107.313 169.22 108.175 167.289 108.912M167.289 108.912C161.836 107.94 161.23 104.313 159.412 104.918C157.594 105.522 159.412 109.681 161.836 109.753M164.26 89.8071C166.683 87.3893 170.32 80.7406 173.955 80.7406C177.59 80.7406 183.043 82.5539 182.437 86.7849M182.437 86.7849C181.226 88.5982 179.408 89.8071 175.772 89.8071C172.137 89.8071 171.531 87.3893 171.531 90.4115C171.531 93.4336 173.954 94.0381 176.378 93.4336C178.317 92.9501 180.504 91.2174 181.354 90.4115M182.437 86.7849C182.263 88.0034 181.887 89.2219 181.354 90.4115M175.166 98.2691C177.755 96.1173 180.036 93.3526 181.354 90.4115M169.107 78.3081C165.904 81.8792 161.937 85.8984 158.201 87.3893C157.62 87.6212 157.011 87.8864 156.383 88.1892M169.107 78.3081C185.468 72.883 189.103 72.2786 194.556 68.0475C200.009 63.8165 206.069 52.3323 208.492 47.4969C210.916 42.6614 212.734 39.0348 224.852 29.9684C234.547 22.7152 238.991 19.6931 240.001 19.0886M129.722 26.9462C138.205 22.1108 153.353 13.0443 161.836 7M150.929 91.6377C152.141 84.3672 151.535 76.5096 149.111 71.6741M150.929 91.6377C152.774 90.1433 154.652 89.0235 156.383 88.1892M156.383 88.1892C158.201 82.5539 157.594 80.7406 157.594 77.114" stroke="#3E3939" stroke-width="4" stroke-linecap="round" stroke-linejoin="round"/>
<path d="M126.64 241.298C137.483 240.529 142.884 237.723 144.229 236.417C144.444 235.19 144.7 232.84 144.003 233.253M144.003 233.253C143.132 233.769 136.548 236.962 129.771 237.442C122.994 237.923 119.557 237.486 113.57 236.321M144.003 233.253C143.213 231.719 151.442 229.319 151.847 219.07C152.17 210.871 147.443 202.954 145.04 200.021C142.469 196.872 137.292 190.078 137.15 188.089M137.15 188.089C137.794 187.708 137.926 185.525 136.005 184.764C134.424 184.876 132.536 187.054 125.307 187.567C119.524 187.977 117.12 187.39 116.642 187.046C115.186 186.705 114.642 186.499 114.099 186.416M137.15 188.089C134.294 189.427 129.631 190.894 125.564 191.182C123.37 191.187 118.787 191.663 115.302 190.548M147.878 214.355C147.135 216.679 142.714 218.355 139.762 211.978C136.809 205.601 140.489 203.069 144.232 204.62C141.844 206.153 141.65 206.621 141.73 207.75M109.827 234.769C109.488 233.203 101.146 230.843 101.003 219.27M109.896 194.338C107.936 197.062 106.163 199.642 104.724 202.427M112.559 190.288C111.526 188.544 111.607 186.495 112.962 186.398C113.463 186.363 113.781 186.368 114.099 186.416M114.099 186.416C113.705 184.075 112.689 182.557 115.19 182.607C115.614 182.615 115.982 182.66 116.334 182.727M111.763 236.449C110.794 238.789 113.392 240.194 116.393 240.89M122.384 207.079C127.579 206.71 130.887 211.699 129.192 216.589C127.497 221.479 125.915 224.77 120.494 221.975C116.157 219.739 117.074 215.405 118.075 213.517M104.408 206.537C106.587 205.247 109.491 204.587 108.974 210.074C108.458 215.562 107.989 221.727 104.31 221.08C103.101 220.867 102.427 220.121 102.084 219.193M101.309 217.204C102.794 215.1 103.359 210.927 103.456 209.103M131.745 182.341C131.761 182.567 130.438 183.115 125.017 183.499C119.39 183.898 118.056 183.053 116.334 182.727M116.334 182.727C118.433 180.332 121.315 162.888 120.026 144.81M115.18 124.864C115.065 123.41 112.32 121.725 116.391 120.029M126.692 144.81C127.352 154.075 127.986 174.204 131.762 179.387M106.102 208.007C106.593 209.789 106.543 212.064 106.457 212.978M125.094 210.066C122.577 209.791 120.786 210.145 120.915 211.953" stroke="#3E3939" stroke-width="4" stroke-linecap="round" stroke-linejoin="round"/>
<path fill-rule="evenodd" clip-rule="evenodd" d="M223.059 195.88C227.155 191.537 228.923 189.063 230 184.525C222.213 178.801 216.174 173.943 210.915 169.289C216.142 164.344 221.56 159.688 228.078 154.087C228.68 153.569 229.292 153.043 229.915 152.508C228.1 148.463 226.675 146.704 223.748 144.033C218.31 148.838 213.067 153.031 208.025 157.063C206.175 158.542 204.353 160 202.557 161.459C197.439 156.395 192.598 151.125 186.775 144.786C186.236 144.2 185.69 143.605 185.134 143C181.218 145.012 179.544 146.53 177.035 149.605C182.022 154.887 186.396 159.998 190.603 164.914C191.714 166.213 192.813 167.498 193.91 168.769C187.558 174.435 181.585 180.622 176 188.485C180.109 192.816 182.475 194.711 186.909 196C192.659 188.704 197.551 182.993 202.2 178.035C208.242 184.436 214.776 190.407 223.059 195.88Z" fill="#FFBCBC"/>
<path d="M114.04 320.23C107.796 318.575 104.096 317.626 98.027 315.6C96.5917 316.147 95.4228 317.577 94.0767 318.399C91.3637 320.056 87.7064 320.92 84.6946 322.383C78.6383 325.324 65.0507 331.191 67.2354 337.861C68.6833 342.281 69.8065 346.608 74.8892 349.489C81.914 353.472 92.0093 354.648 100.39 356.084C115.337 358.645 131.887 361.39 147.266 359.206C153.756 358.285 160.354 358.132 166.735 356.784C175.206 354.994 183.229 352.497 190.72 348.924C196.528 346.153 201.145 343.439 199.749 337.995C198.69 333.865 196.294 330.46 193.259 326.986C189.2 322.339 183.613 317.719 177.07 315.142C171.338 312.884 163.359 314.53 157.459 315.357C148.561 316.605 141.185 320.567 132.557 322.087C126.371 323.176 119.844 321.767 114.04 320.23Z" fill="#D9B497"/>
<path d="M114.091 289.887C109.103 287.44 106.146 286.037 101.297 283.04C100.15 283.85 99.2165 285.965 98.141 287.18C95.9734 289.629 93.0514 290.908 90.6451 293.071C85.8064 297.42 74.9504 306.097 76.6959 315.959C77.8527 322.495 78.7501 328.893 82.811 333.155C88.4235 339.044 96.4892 340.783 103.185 342.907C115.127 346.693 128.35 350.753 140.637 347.524C145.822 346.161 151.094 345.936 156.192 343.942C162.96 341.294 169.37 337.602 175.355 332.319C179.995 328.222 183.684 324.208 182.569 316.158C181.723 310.051 179.808 305.015 177.384 299.878C174.14 293.006 169.677 286.175 164.449 282.363C159.87 279.025 153.495 281.459 148.781 282.682C141.672 284.526 135.779 290.386 128.886 292.633C123.943 294.244 118.728 292.161 114.091 289.887Z" fill="#BB8663"/>
<path d="M110.091 272.881C103.82 271.739 100.103 271.084 94.0075 269.685C92.5658 270.063 91.3918 271.05 90.0398 271.617C87.3148 272.76 83.6414 273.357 80.6163 274.367C74.5334 276.396 60.8858 280.445 63.0802 285.048C64.5345 288.098 65.6626 291.084 70.7677 293.072C77.8235 295.82 87.9632 296.632 96.3811 297.623C111.394 299.39 128.017 301.285 143.463 299.778C149.982 299.142 156.609 299.037 163.018 298.106C171.526 296.871 179.585 295.148 187.109 292.682C192.942 290.77 197.579 288.897 196.178 285.14C195.114 282.29 192.707 279.94 189.659 277.543C185.582 274.336 179.97 271.148 173.398 269.37C167.641 267.812 159.628 268.948 153.701 269.518C144.764 270.379 137.356 273.114 128.69 274.162C122.477 274.914 115.92 273.942 110.091 272.881Z" fill="#B46F45"/>
<path d="M54.9998 295.129C55.8734 292.007 56.3745 290.156 57.4444 287.121C57.1552 286.403 56.4002 285.819 55.9663 285.145C55.0917 283.789 54.6351 281.96 53.8628 280.454C52.3098 277.425 49.2118 270.63 45.6905 271.722C43.3566 272.447 41.072 273.008 39.5506 275.55C37.4478 279.063 36.8266 284.112 36.0684 288.303C34.7163 295.777 33.2668 304.054 34.4198 311.744C34.9063 314.99 34.9868 318.29 35.6989 321.481C36.6441 325.717 37.9625 329.729 39.849 333.475C41.3118 336.38 42.7451 338.689 45.6194 337.991C47.7999 337.461 49.5981 336.263 51.4324 334.745C53.8861 332.715 56.3252 329.921 57.686 326.649C58.8781 323.783 58.009 319.793 57.5723 316.842C56.9137 312.392 54.8214 308.704 54.0191 304.389C53.4439 301.296 54.1878 298.031 54.9998 295.129Z" fill="#B46F45"/>
<path d="M208.469 307.967C207.955 311.168 207.667 313.063 206.949 316.199C207.317 316.88 208.134 317.376 208.641 317.996C209.664 319.245 210.325 321.011 211.263 322.421C213.15 325.256 216.999 331.659 220.374 330.177C222.611 329.195 224.817 328.38 226.04 325.684C227.731 321.956 227.776 316.87 228.054 312.621C228.549 305.042 229.051 296.655 227.033 289.144C226.182 285.973 225.727 282.704 224.658 279.613C223.238 275.511 221.473 271.672 219.174 268.162C217.391 265.441 215.705 263.308 212.928 264.325C210.822 265.096 209.171 266.489 207.521 268.203C205.313 270.496 203.206 273.547 202.225 276.951C201.366 279.933 202.682 283.8 203.451 286.682C204.61 291.03 207.107 294.459 208.393 298.656C209.316 301.665 208.947 304.992 208.469 307.967Z" fill="#BB8663"/>
<path d="M143.893 294.073L143.897 294.052C148.274 294.052 159.861 292.459 162.659 297.195C165.443 301.909 166.541 307.477 169.541 312.124C171.056 314.47 172.149 317.224 172.303 319.981C172.418 322.045 174.882 324.133 175.854 325.874C179.262 331.984 180.679 339.322 185.892 344.514C189.224 352.527 181 351.5 170.681 348.268C163.274 341.814 152.432 338.538 146.703 330.24C139.173 319.334 141.544 306.645 143.893 294.073Z" fill="white"/>
<path d="M88.6514 547.477C92.4465 563.349 100.037 582.244 126.602 582.244C153.167 582.244 160.758 574.686 166.83 558.058C172.902 541.43 177.456 518 183.528 504.395M43.8697 323C39.3156 304.105 39.3156 286.721 46.9057 276.895C54.4959 267.07 61.3262 265.558 69.6753 265.558C78.0245 265.558 78.7835 265.558 92.4457 261.779C106.108 258 113.698 258 125.083 258C134.191 258 151.649 259.008 159.239 259.512M87.8916 267.826C100.795 271.605 112.18 272.36 132.673 272.36C153.167 272.36 180.491 267.07 167.588 264.802M60.5672 279.163C52.2181 286.721 49.182 289.744 51.459 307.884C53.7361 326.023 58.2902 335.093 60.5672 335.849M60.5672 335.849C62.8442 336.605 75.7474 327.535 83.3376 317.709C90.9277 307.884 93.9637 300.326 87.8916 292.012M60.5672 335.849L56.0131 337.36M70.4344 279.163C75.7474 279.919 76.5065 282.186 79.5425 285.209C82.5786 288.233 83.3376 286.721 84.8556 288.233M93.9637 289.744C115.216 294.279 144.818 292.767 160.757 289.744M167.588 292.767C172.142 285.965 175.178 287.477 181.25 282.186C183.274 280.171 189.296 278.105 197.189 279.919C207.057 282.186 207.057 290.5 207.816 301.081C208.575 311.663 205.539 323.756 198.707 334.337C196.43 333.581 190.206 330.407 183.527 323.756C176.848 317.105 173.66 312.419 172.901 310.907M181.25 264.802C198.707 267.826 215.406 269.337 219.96 289.744C224.514 310.151 214.647 332.826 211.611 350.965M160.757 304.105C159.239 313.174 159.239 324.512 175.937 337.36M73.4704 350.965C77.2655 345.674 80.3015 347.186 81.8195 344.919M103.831 307.884C105.653 310.302 104.084 312.922 103.072 313.93M54.4951 355.5C52.0663 359.733 49.9415 354.24 49.1828 350.965" stroke="#3E3939" stroke-width="5" stroke-linecap="round" stroke-linejoin="round"/>
</g>
<defs>
<clipPath id="clip0">
<rect width="254" height="373" fill="white"/>
</clipPath>
</defs>
</svg>
