<svg width="290" height="211" viewBox="0 0 290 211" fill="none" xmlns="http://www.w3.org/2000/svg">
<g clip-path="url(#clip0)">
<ellipse opacity="0.4" cx="121" cy="115.5" rx="107" ry="71.5" fill="#E0DADA"/>
<rect opacity="0.7" width="28.4726" height="118.669" transform="matrix(0.985481 0.169788 -0.17106 0.985261 68.9165 14.5089)" fill="#ABA2A2"/>
<rect opacity="0.7" width="90.1553" height="111.718" transform="matrix(0.975041 0.222026 -0.22394 0.974603 95.1855 6.19788)" fill="#D1CACA"/>
<rect opacity="0.7" width="35.5876" height="118.68" transform="matrix(0.975041 0.222026 -0.22394 0.974603 159.868 31.9362)" fill="#CDC4C4"/>
<rect opacity="0.7" width="10.2809" height="89.5993" transform="matrix(0.975041 0.222026 -0.22394 0.974603 207.876 52.5411)" fill="#CDC4C4"/>
<rect opacity="0.7" width="10.2778" height="56.6061" transform="matrix(0.943905 0.330218 -0.333334 0.942809 252.231 82.3866)" fill="#CDC4C4"/>
<rect opacity="0.7" width="10.2223" height="57.1639" transform="matrix(-0.378611 0.925556 -0.926997 -0.375068 248.467 62.6017)" fill="#CDC4C4"/>
<rect opacity="0.7" width="22.1405" height="118.696" transform="matrix(0.960815 0.277189 -0.279743 0.960075 182.508 40.5754)" fill="#C1B8B8"/>
<rect x="61.1069" y="117" width="109" height="23" transform="rotate(12.8286 61.1069 117)" fill="#A49999"/>
<circle cx="94.5" cy="183.5" r="2.5" fill="#3E3939"/>
<circle cx="97.5" cy="163.5" r="2.5" fill="#3E3939"/>
<circle cx="74.5" cy="177.5" r="2.5" fill="#3E3939"/>
<circle cx="77.5" cy="155.5" r="2.5" fill="#3E3939"/>
<circle cx="85.5" cy="171.5" r="2.5" fill="#3E3939"/>
<circle cx="80.5" cy="195.5" r="2.5" fill="#3E3939"/>
<circle cx="113.5" cy="160.5" r="2.5" fill="#3E3939"/>
<circle cx="88.5" cy="157.5" r="2.5" fill="#3E3939"/>
<circle cx="115.5" cy="152.5" r="2.5" fill="#3E3939"/>
<circle cx="79.5" cy="141.5" r="2.5" fill="#3E3939"/>
<circle cx="91.5" cy="150.5" r="2.5" fill="#3E3939"/>
<ellipse rx="4.36056" ry="2.85767" transform="matrix(0.976506 0.215492 -0.128378 0.991725 80.7975 131.746)" fill="#3E3939"/>
<ellipse rx="4.36056" ry="2.85767" transform="matrix(0.976506 0.215492 -0.128378 0.991725 94.5026 134.308)" fill="#3E3939"/>
<ellipse rx="4.36056" ry="2.85767" transform="matrix(0.976506 0.215492 -0.128378 0.991725 107.07 136.896)" fill="#3E3939"/>
<ellipse rx="4.36056" ry="2.85767" transform="matrix(0.976506 0.215492 -0.128378 0.991725 120.809 140.895)" fill="#3E3939"/>
<ellipse rx="4.36056" ry="2.85767" transform="matrix(0.976506 0.215492 -0.128378 0.991725 133.41 144.921)" fill="#3E3939"/>
<ellipse rx="4.36056" ry="2.85767" transform="matrix(0.976506 0.215492 -0.128378 0.991725 146.045 150.386)" fill="#3E3939"/>
<ellipse rx="2.74592" ry="1.79953" transform="matrix(0.976506 0.215492 -0.128378 0.991725 89.4655 138.75)" fill="#3E3939"/>
<ellipse rx="2.74592" ry="1.79953" transform="matrix(0.976506 0.215492 -0.128378 0.991725 71.0813 130.54)" fill="#3E3939"/>
<ellipse rx="2.74592" ry="1.79953" transform="matrix(0.976506 0.215492 -0.128378 0.991725 99.7605 141.39)" fill="#3E3939"/>
<ellipse rx="2.74592" ry="1.79953" transform="matrix(0.976506 0.215492 -0.128378 0.991725 110.055 144.03)" fill="#3E3939"/>
<ellipse rx="2.74592" ry="1.79953" transform="matrix(0.976506 0.215492 -0.128378 0.991725 118.077 146.723)" fill="#3E3939"/>
<ellipse rx="2.74592" ry="1.79953" transform="matrix(0.976506 0.215492 -0.128378 0.991725 126.067 147.977)" fill="#3E3939"/>
<ellipse rx="2.74592" ry="1.79953" transform="matrix(0.976506 0.215492 -0.128378 0.991725 136.395 152.056)" fill="#3E3939"/>
<ellipse rx="2.74592" ry="1.79953" transform="matrix(0.976506 0.215492 -0.128378 0.991725 156.919 154.46)" fill="#3E3939"/>
<circle cx="100.5" cy="173.5" r="2.5" fill="#3E3939"/>
<circle cx="100.5" cy="141.5" r="2.5" fill="#3E3939"/>
<circle cx="104.5" cy="192.5" r="2.5" fill="#3E3939"/>
<circle cx="112.5" cy="169.5" r="2.5" fill="#3E3939"/>
<circle cx="115.5" cy="181.5" r="2.5" fill="#3E3939"/>
<circle cx="119.5" cy="200.5" r="2.5" fill="#3E3939"/>
<circle cx="145.5" cy="152.5" r="2.5" fill="#3E3939"/>
<circle cx="139.5" cy="161.5" r="2.5" fill="#3E3939"/>
<circle cx="125.5" cy="163.5" r="2.5" fill="#3E3939"/>
<circle cx="129.5" cy="179.5" r="2.5" fill="#3E3939"/>
<rect opacity="0.7" width="13.3938" height="103.762" transform="matrix(0.979499 0.20145 -0.202714 0.979238 87.9541 13.5909)" fill="white"/>
<rect opacity="0.4" width="13.3938" height="103.762" transform="matrix(0.979499 0.20145 -0.202714 0.979238 175.034 26)" fill="#3E3939"/>
<path d="M74.5189 14.9196C113.799 -3.17128 167.296 8.13133 196.352 42.6622M77.0208 19.9227L70.6845 47.4987C69.9539 47.7354 68.3519 48.8215 67.7887 51.2727C67.2255 53.7239 68.2525 55.14 68.8364 55.5417L61.2681 88.4796C60.5082 88.8439 58.8651 90.1088 58.3723 92.2536C57.8795 94.3984 58.8654 95.9932 59.42 96.5225L52.9622 122.862C52.5403 124.109 55.5521 127.482 55.5521 127.482C61.558 145.22 162.173 172.525 170.831 153.732C163.054 134.475 85.1356 114.737 60.5 121M185.381 78.0496C156.116 51.9429 106.798 40.0773 77.0208 49.7928M175.965 119.03C174.174 117.82 172.34 116.645 170.467 115.507C139.38 93.0354 95.7905 84.3516 67.7887 91.7326M194.106 45.375C191.833 46.792 191.596 49.2368 191.332 50.3858L186.5 69.5M183.5 85.5L177.855 110.5M173.5 126.5C171.542 133.846 169.152 145.853 170.467 150.022M178.006 129.571C176.246 137.231 177.172 140.263 177.855 140.822L197.132 145.211C235.687 153.991 240.993 141.496 247.551 120.016C247.228 121.42 247.991 118.101 253.623 93.589C259.255 69.0771 230.135 55.7288 214.871 52.1186L200.22 48.7825C199.034 48.6468 197.13 49.9308 195.51 56.978M180.243 135.723C189.497 137.83 194.894 139.059 195.51 136.378C196.003 134.234 208.69 82.5511 214.972 56.978" stroke="#3E3939" stroke-width="5" stroke-linecap="round" stroke-linejoin="round"/>
</g>
<defs>
<clipPath id="clip0">
<rect width="290" height="211" fill="white"/>
</clipPath>
</defs>
</svg>
