<svg width="290" height="290" viewBox="0 0 290 290" fill="none" xmlns="http://www.w3.org/2000/svg">
<path opacity="0.8" d="M122.887 269.535C114.505 265.95 111.251 266.544 106.33 261.671C101.409 256.799 115.113 253.959 120.665 253.278C132.24 251.859 144.252 251.282 155.901 251.09C165.819 250.926 172.11 248.522 181.975 247.701C187.771 247.219 197.421 249.597 203.221 250.498C206.925 251.073 211.934 251.324 214.968 253.924C220.115 258.334 219.111 265.043 214.225 269.141C204.797 277.047 197.149 275.625 185.412 276.125C171.424 276.72 153.314 277.465 139.591 274.436C133.974 273.196 128.226 271.819 122.887 269.535Z" fill="#A97A68"/>
<ellipse opacity="0.4" cx="145" cy="164.5" rx="126" ry="74.5" fill="#CEA393"/>
<ellipse rx="76.4363" ry="109.588" transform="matrix(0.997977 0.0635764 -0.0634539 0.997985 148.086 152.227)" fill="#A97A68"/>
<ellipse rx="68.2714" ry="76.6382" transform="matrix(0.997977 0.0635764 -0.0634539 0.997985 124.975 149.837)" fill="#CEA393"/>
<ellipse rx="28.7817" ry="44.9683" transform="matrix(0.978827 0.204687 -0.204308 0.978907 82.6607 132.777)" fill="white"/>
<ellipse opacity="0.5" rx="39.1054" ry="67.9793" transform="matrix(0.978827 0.204687 -0.204308 0.978907 105.404 141.443)" fill="white"/>
<path d="M120.039 247.752C114.609 245.895 109.23 243.596 103.737 242.051C100.821 243.479 98.2451 245.68 98.2451 248.859C98.2451 259.304 104.794 265.296 112.23 267.474C122.474 270.475 132.798 272.235 143.327 271.975C148.936 271.836 154.594 270.785 160.14 269.786C164.547 268.993 169.371 268.609 173.488 266.343C177.927 263.9 181.173 259.281 183.707 254.293C184.711 252.319 185.696 248.439 184.584 246.178C184.102 245.199 180.397 245.883 179.703 245.883C176.277 245.883 172.845 246.169 169.483 247.039C164.865 248.234 160.497 251.094 155.817 251.883C151.151 252.671 145.955 252.237 141.275 251.883C133.967 251.332 127.092 250.163 120.039 247.752Z" fill="#7D4B38"/>
<path d="M109.505 64.1762C101.594 62.7965 93.7572 61.0944 85.7611 59.9242C84.9321 60.5419 84.4415 61.4379 84.4415 62.7584C84.4415 70.6822 91.2158 71.2508 98.2451 78.28C105.274 85.3093 128.48 82.7494 144.138 82.5522C152.48 82.4472 160.895 81.6493 169.143 80.8918C175.696 80.2901 182.871 79.9992 188.993 78.28C195.594 76.4262 200.422 72.9225 204.191 69.1387C205.683 67.6406 207.148 64.6974 205.495 62.9823C204.778 62.2395 199.268 62.7584 198.236 62.7584C193.141 62.7584 188.037 62.9752 183.038 63.6352C176.169 64.5421 169.673 66.7114 162.714 67.3104C155.774 67.9078 148.047 67.5784 141.087 67.3104C130.219 66.8919 119.993 66.0056 109.505 64.1762Z" fill="#956451"/>
<ellipse rx="28.6659" ry="6.65843" transform="matrix(0.961511 0.274766 -0.274275 0.961651 174.389 55.6224)" fill="white"/>
<path d="M103.255 250.829C104.368 260.857 121.011 270.916 143.33 270.329C163.839 269.788 175.057 265.314 183.406 254.171M104.368 246.371C119.953 256.957 131.645 258.933 142.217 259.186C155.624 259.506 180.623 255.286 183.406 249.157C183.962 245.443 186.523 236.231 192.311 229.1C199.547 220.186 224.594 195.114 224.594 149.429M224.594 149.429C224.594 103.743 200.66 80.9 200.66 69.2C167.821 79.7857 114.943 76.4429 89.8963 69.2C85.4435 66.2286 78.5416 59.1714 86.5567 54.7143C96.5755 49.1429 114.943 46.9143 143.33 46.9143C161.419 46.9143 181.092 47.012 192 51C194.44 51.8921 201.992 54.1502 203 58.5C204.007 62.8498 200.66 64.4 200.66 64.4M224.594 149.429C219.399 154.629 195.874 165.029 143.33 165.029C123.021 165.029 107.325 163.475 95.4623 161.268M64.8491 149.429C67.467 152.619 76.6348 157.766 95.4623 161.268M99.3586 235.786C94.3491 219.071 76.5378 202.357 69.8586 178.4C69.311 176.436 68.7971 174.39 68.3254 172.271M80.434 89.2572C73.3527 100.098 69.1549 111.953 67.0242 123.8C63.9274 141.019 65.1967 158.221 68.3254 172.271M105.481 58.6143C124.406 62.5143 156.132 62.5143 174.5 61.4C182.832 60.8945 187.817 59.2414 190.5 57.3436M116.613 103.743C116.057 121.014 126.632 127.7 121.623 134.943C116.613 142.186 111.604 131.043 105.481 129.371M111.047 122.129C110.862 121.014 109.823 118.897 107.151 119.343M92.6793 129.371C86.5567 132.714 83.217 135.5 86.5567 136.614M97.6887 119.343C97.6887 121.571 95.7963 125.249 88.2265 122.129C80.7646 119.053 80.2255 119.096 73.7548 121.437M73.7548 146.643C78.2076 146.086 80.434 144.414 82.6604 149.429M95.4623 161.268C92.8648 160.293 88.6718 157.34 92.6793 153.329C97.6887 148.314 97.6887 146.086 97.6887 143.3M95.4623 161.268C97.3177 162.893 100.694 167.369 99.3586 172.271M89.8963 100.957C90.0818 101.7 90.6755 102.071 91.5661 97.6143M105.481 88.1429C105.11 90.1857 105.37 94.16 109.377 93.7143C114.387 93.1572 114.387 89.2572 115.5 91.4857M68.3254 172.271C70.1352 175.057 74.7567 180.629 78.7642 180.629M88.2265 182.857C89.3397 182.671 91.2321 183.191 89.8963 186.757M107.708 219.071C107.522 217.214 106.372 213.723 103.255 214.614" stroke="#3E3939" stroke-width="5" stroke-linecap="round" stroke-linejoin="round"/>
</svg>
