<svg width="290" height="290" viewBox="0 0 290 290" fill="none" xmlns="http://www.w3.org/2000/svg">
<g clip-path="url(#clip0)">
<path opacity="0.5" d="M163.804 244.001C145.503 245.943 134.014 253.181 115.404 253.181C111.363 259.686 109.64 267.758 117.603 271.805C128.759 277.476 143.066 278.729 155.004 280.593C174.053 283.566 192.675 283.871 211.961 283.871C223.601 283.871 235.588 284.696 247.04 282.166C259.228 279.474 274.03 280.129 284.196 271.477C306.114 252.825 259.6 241.378 249.729 241.378C233.645 241.378 217.265 240.486 201.205 241.443C194.667 241.833 188.196 243.625 181.649 243.738C175.716 243.841 169.717 243.373 163.804 244.001Z" fill="#4B4155"/>
<ellipse opacity="0.3" cx="145" cy="164.5" rx="126" ry="74.5" fill="#8C8394"/>
<path d="M90.4136 118.011C85.2182 115.506 79.6318 112.504 75 109.063C70.2437 111.441 71.1321 116.746 71.1321 122.547V122.56C71.1321 129.55 71.1321 140.038 76.0155 145.673C80.6768 151.051 85.126 158.424 91.5478 161.803C95.255 163.755 100.062 165.206 104.245 165.206C106.473 165.206 109.744 165.898 111.68 164.607C113.85 163.16 113.365 156.898 113.791 154.557C114.313 151.687 114.869 148.734 115.65 145.925C117.413 139.577 116.513 132.808 114.232 126.769C113.68 125.309 112.507 121.539 110.546 121.539C107.87 121.539 104.958 121.907 102.354 121.256C98.3714 120.26 94.2006 119.836 90.4136 118.011Z" fill="#8C8394"/>
<path d="M100.77 173.198C94.0125 169.958 87.0981 166.079 81.171 160.911C78.9885 159.608 80.8522 162.47 79.4642 164.244C76.8302 167.61 77.3966 171.539 77.9973 176.008C78.8128 182.076 79.5884 188.769 82.1149 194.326C84.5399 199.66 87.3379 204.383 90.0664 209.496C92.1127 213.33 95.999 216.68 99.1645 219.119C102.273 221.514 106.272 221.691 109.492 223.813C114.477 227.098 120.562 227.963 125.793 230.525C130.061 232.615 134.093 232.642 137.511 228.949C140.383 225.848 137.314 218.234 136.585 214.434C135.191 207.161 133.376 199.858 132.25 192.541C131.898 190.255 131.002 183.325 128.701 182.171C126.507 181.071 124.297 181.242 122.099 180.363C118.15 178.782 114.133 178.974 110.032 177.784C107.069 176.924 103.668 174.587 100.77 173.198Z" fill="#8C8394"/>
<path d="M118.74 99.0985C106.053 96.8636 95.895 87.8141 84.2307 83C79.8184 85.2257 81.3493 103.01 82.7037 107.109C85.8451 116.617 93.4212 119.029 102.783 121.128C105.589 121.757 108.195 123.074 111.029 123.747C114.761 124.633 118.67 124.594 122.481 124.594C136.46 124.594 150.401 123.208 164.358 123.208C170.202 123.208 176.661 122.789 182.415 121.821C192.418 120.139 204.713 118.353 213.565 112.809C216.926 110.705 221.615 108.924 223.567 105.184C225.88 100.75 226.387 96.5619 225.743 91.3574C225.366 88.321 223.857 83.4812 220.284 83.6932C218.495 83.7994 216.432 86.0698 214.481 86.4277C212.397 86.81 210.268 88.1488 208.221 88.8925C202.129 91.1051 196.579 92.859 190.393 94.4769C182.624 96.5092 175.924 99.163 168.061 100.485C158.948 102.017 150.542 102.411 141.263 102.411C133.884 102.411 126.001 100.377 118.74 99.0985Z" fill="#6D4E4F"/>
<path d="M108.496 156.076C95.2523 153.439 85.0593 146.613 73.0394 142.396C68.2637 143.43 68.8707 155.123 70.0661 157.912C72.8387 164.38 80.6862 166.655 90.4336 168.893C93.3548 169.563 96.0261 170.662 98.975 171.364C102.858 172.288 106.979 172.628 110.996 172.984C125.485 177.551 140.73 180.413 155.13 178.518C161.288 179.064 168.195 176.875 174.313 176.784C184.949 176.626 198.007 176.615 207.65 173.842C211.311 172.789 216.354 172.071 218.622 169.824C221.31 167.161 224.082 154.488 223.697 151.048C223.472 149.041 222.155 145.756 218.378 145.56C216.487 145.462 214.184 146.744 212.108 146.794C209.89 146.847 207.571 147.518 205.371 147.81C198.826 148.677 190.878 159.298 184.268 159.771C175.965 160.364 168.754 161.462 160.394 161.586C150.704 161.729 141.822 161.199 132.044 160.332C124.267 159.643 116.075 157.586 108.496 156.076Z" fill="#6D4E4F"/>
<path d="M116.401 231.702C106.716 229.578 99.3159 223.798 90.5461 220.295C87.0307 221.243 87.3421 231.34 88.1871 233.736C90.1471 239.293 95.8781 241.167 103.003 242.987C105.139 243.533 107.086 244.451 109.241 245.023C112.079 245.776 115.099 246.022 118.042 246.283C128.619 250.06 139.77 252.356 150.356 250.55C154.867 250.95 159.959 248.978 164.449 248.828C172.254 248.568 181.834 248.406 188.939 245.897C191.637 244.945 195.345 244.265 197.035 242.297C199.037 239.965 199.634 237.646 199.391 234.678C199.249 232.946 198.321 230.124 195.552 229.998C194.166 229.935 192.462 231.07 190.938 231.137C189.31 231.209 187.601 231.816 185.984 232.094C181.173 232.92 176.802 233.525 171.947 234.011C165.849 234.621 160.546 235.653 154.412 235.858C147.301 236.095 140.792 235.74 133.628 235.105C127.931 234.6 121.944 232.918 116.401 231.702Z" fill="#6D4E4F"/>
<path d="M113.164 220.422C111.06 206.466 112.451 192.27 112.451 178.154C113.386 176.185 113.068 177.012 115.161 176.933C120.511 176.732 127.158 175.949 132.168 177.849C139.415 180.596 148.563 179.743 156.122 179.037L156.134 179.036C163.792 178.322 171.2 177.298 178.456 174.491C183.818 172.416 188.785 169.238 193.886 166.553C199.079 163.818 203.658 161.057 209.54 161.057C211.54 161.057 212.908 160.552 213.857 162.55C215.781 166.603 214.838 172.326 214.179 176.662C213.039 184.166 211.497 191.726 209.54 199.051C207.761 205.715 206.384 214.78 202.551 220.524C199.053 225.766 194.356 230.195 188.12 230.633C182.075 231.058 176.671 233.165 170.693 234.195C164.149 235.323 157.486 235.663 150.98 236.909C145.326 237.992 139.865 238.475 134.166 237.384C128.965 236.388 121.879 235.227 117.448 232.194C113.97 229.813 113.734 224.208 113.164 220.422Z" fill="#5F5369"/>
<path d="M113.39 150.867C113.39 141.896 112.938 132.824 114.003 123.91C115.346 119.881 119.275 123.631 122.58 124.386C127.382 125.484 132.35 125.135 137.284 125.135C147.574 125.135 157.806 125.282 168.054 124.523C173.466 124.122 179.145 123.322 184.323 121.595C188.868 120.081 193.766 118.675 197.938 116.286C201.708 114.126 205.082 111.15 208.694 108.729C212.512 106.17 221.758 104.428 223.534 109.955C225.822 117.072 224.895 125.364 224.895 132.726C224.895 139.886 222.734 142.438 217.543 146.442C214.07 149.122 212.446 153.544 208.013 155.156C202.26 157.248 195.941 157.574 190.28 159.751C187.864 160.68 183.831 158.968 181.873 160.534C181.125 161.132 178.086 161.678 177.107 161.895C174.213 162.538 171.024 163.121 168.054 163.121C164.099 163.121 160.5 164.346 156.617 164.346C144.166 164.346 132.016 165.794 119.653 162.984C113.085 161.492 113.39 156.432 113.39 150.867Z" fill="#5F5369"/>
<ellipse cx="143.5" cy="75.5" rx="66.5" ry="17.5" transform="rotate(1.32386 143.5 75.5)" fill="#E1DFEA"/>
<path d="M104.729 236.571C101.135 235.255 96.8267 232.755 93 232.5C93 240.726 98.8379 250.683 103.627 256.778C106.447 260.366 109.225 263.315 112.82 266.111C116.49 268.965 120.853 269.331 125.276 270.256C128.537 270.939 131.94 271.209 135.15 272.059C137.727 272.741 140.364 273.659 143.02 273.961C147.377 274.458 151.735 273.54 155.797 272.039C159.524 270.661 163.862 270.737 167.453 269.075C171.81 267.058 175.322 264.825 178.788 261.425C181.616 258.65 183.585 255.413 186.759 252.933C189.693 250.641 193.495 248.166 195.17 244.662C196.224 242.459 198.138 238.958 195.911 236.731C193.94 234.761 188.168 235.828 185.838 236.391C182.592 237.174 179.504 238.567 176.225 239.235C170.546 240.392 164.917 241.825 159.242 242.96C151.197 244.569 142.707 245.133 134.529 244.201C131.376 243.842 128.426 242.681 125.256 242.319C122.228 241.973 119.337 241.078 116.425 240.236C112.472 239.094 108.613 237.993 104.729 236.571Z" fill="#54495E"/>
<path opacity="0.2" d="M208.09 91.0735C197.006 92.1488 190.255 96.965 185.471 106.911C184.717 108.373 183.843 107.764 182.954 109.353C182.049 110.969 180.887 112.728 180.471 114.541C179.311 119.607 179.178 125.65 179.178 130.853C179.178 148.736 177.919 166.611 177.919 184.436C177.919 192.036 179.027 200.416 177.605 207.869C175.825 217.193 173.636 225.37 169.249 233.881C166.747 238.735 163.314 245.001 162.327 250.362C161.685 253.851 162.187 257.778 162.187 261.316C162.187 267.678 168.668 268.034 173.514 265.623C181.717 261.542 188.018 255.171 191.414 246.7C194.123 239.943 199.095 234.676 201.203 227.573C204.351 216.967 210.091 207.406 215.012 197.56C219.512 188.557 221.543 177.842 222.459 167.954C224.499 145.937 225.223 123.503 220.082 101.892C218.573 95.5515 215.927 90.3134 208.09 91.0735Z" fill="#292130"/>
<path d="M104.774 60.1492C96.2028 62.5598 88.6368 66.1056 80.7143 70.126C78.2444 70.9493 78.1211 73.1697 78.1211 75.6006C78.1211 77.3832 78.756 79.6615 80.8944 79.8326C86.2381 80.2601 91.835 76.9475 96.2017 74.2679C101.338 71.1164 108.25 69.1572 114.228 68.1811C117.819 67.5948 121.521 66.511 125.051 65.5878C127.788 64.872 130.693 65.1954 133.407 64.4353C134.706 64.0716 139.158 62.6137 139.674 61.1937C140.064 60.1224 139.887 57.941 139.062 57.1598C135.499 53.7844 129.422 54.8907 124.961 54.8907C117.965 54.8907 111.422 58.2795 104.774 60.1492Z" fill="#6D4E4F"/>
<path d="M93.4884 100.437C91.0412 94.4911 84.3775 90.0424 78.8159 87C78.8159 88.5571 79.0696 91.7829 78.4208 93.2387C77.6918 94.8748 77.9434 96.5507 77.5461 98.2776C75.2606 108.212 74.7527 119.396 74.7527 129.498C74.7527 146.017 71.3566 162.635 74.0191 179.167C75.2455 186.782 77.1008 193.954 79.0255 201.393L79.0416 201.456C80.0883 205.501 79.8988 209.835 81.3554 213.746C82.3032 216.292 85.1261 218.488 88.0709 217.905C92.9982 216.931 92.5291 211.017 92.5291 207.454C92.5291 197.675 89.8234 188.299 90.6104 178.447C91.9473 161.71 90.9859 144.959 92.7548 128.245C93.6423 119.859 96.8732 108.661 93.4884 100.437Z" fill="white"/>
<path d="M220.5 158C220.5 192.5 206 220 202 227C198 234 196.5 243.5 195 248C193.5 252.5 178 274 146.5 274C135.3 274 127.167 272.333 124.5 271.5M213 162.5C207.934 166.553 195.431 173.344 177 177.324M85.5004 164.5C88.1268 166.508 91.9944 168.803 97 171.016M107 58C93 60 85.0345 64.1491 80.6747 70M204.5 155C194 160 175.5 165.5 148 165.5C134.684 165.5 122.775 164.21 112.5 162.085M93 119C114.5 125.5 130 126.5 158.5 126.5C187 126.5 206.5 115 213 112C219.501 109 218.5 105 218.5 103C218.5 101.4 218.167 98.3333 218 97C218 94.3333 218 87.1 218 79.5C218 70 208.5 66 193.5 61M77.271 93C77.4148 89.5958 77.5004 85.9405 77.5004 82C77.5004 76.6182 78.5643 72.8322 80.6747 70M77.271 93C76.8125 103.85 75.7616 112.149 75.0004 119C74.0004 128 72.0004 146 85.5004 153C89.1083 154.871 93.2875 156.634 98 158.215M77.271 93C77.1529 95.5 82 105 96.5 108C111 111 138.5 114 152.5 114M80.6747 70C78.0655 76 85 85 104 89C123 93 149.5 95 171.5 93M145.5 87C142.5 85 146.5 84 152.5 84C158.5 84 163.5 87 157 87M93 74.5C107 67 119 64.5 148 64.5C177 64.5 208.5 73 208.5 82M116 56.5C119.667 55.8333 130.2 54.5 139 54.5C147 54.5 164.667 55.8333 172.5 56.5M73 155C74.6494 180.561 80.0377 198.304 87.764 220M116 268C112.766 266.836 105.759 261.275 98.8562 248M87.764 220C88.9151 223.233 90.1182 226.553 91.3685 230M87.764 220C91.866 223.037 96.1332 225.643 100.5 227.86M91.3685 230C91.9038 231.476 92.4478 232.975 93 234.5C94.8812 239.696 96.8643 244.169 98.8562 248M91.3685 230C101.5 238.5 119.5 245.5 139 245.5M112 176.209C111.5 184.306 111.7 202.7 112.5 211.5C113.3 220.3 113.833 229.788 114 233.432M112 176.209C106.235 174.683 101.214 172.879 97 171.016M112 176.209C118.04 177.807 124.896 179.1 132.5 179.835M114 233.432C124.952 237.002 127.3 238.5 146.5 238.5C165.7 238.5 180.667 232.833 189 230M114 233.432C109.443 231.947 104.921 230.103 100.5 227.86M97 171.016C96 194 97 203.5 98 213C98.8 220.6 100 226.073 100.5 227.86M112.5 162.085L114 141.5M112.5 162.085C107.226 160.995 102.382 159.684 98 158.215M98 158.215L99 143.5M132.5 179.835C136.919 180.262 141.591 180.5 146.5 180.5C157.923 180.5 168.146 179.236 177 177.324M132.5 179.835C132 187.557 132 205 132.5 217.5M177 177.324C177 183.716 176.6 200.7 175 217.5M219.5 118C219.5 131.2 220.167 141.833 220.5 145.5M98.8562 248C114 258.5 123.501 264.5 146.5 264.5C164.9 264.5 181.167 256.167 187 252" stroke="black" stroke-width="5" stroke-linecap="round" stroke-linejoin="round"/>
</g>
<defs>
<clipPath id="clip0">
<rect width="290" height="290" fill="white"/>
</clipPath>
</defs>
</svg>
