<svg width="290" height="290" viewBox="0 0 290 290" fill="none" xmlns="http://www.w3.org/2000/svg">
<g clip-path="url(#clip0)">
<path opacity="0.8" d="M118.85 280.758C108.938 276.519 105.091 277.221 99.2717 271.461C93.4524 265.7 109.658 262.342 116.223 261.537C129.911 259.859 144.115 259.176 157.891 258.949C169.62 258.756 177.059 255.913 188.724 254.943C195.579 254.373 206.99 257.185 213.849 258.25C218.229 258.93 224.152 259.226 227.741 262.301C233.827 267.515 232.639 275.447 226.861 280.292C215.712 289.64 206.669 287.959 192.789 288.55C176.248 289.254 154.832 290.134 138.604 286.553C131.961 285.087 125.165 283.459 118.85 280.758Z" fill="#A97A68"/>
<ellipse opacity="0.4" cx="145" cy="156.5" rx="139" ry="82.5" fill="#CEA393"/>
<ellipse rx="90.3889" ry="129.573" transform="matrix(0.997978 0.0635669 -0.0634634 0.997984 148.649 142.058)" fill="#A97A68"/>
<ellipse rx="80.7336" ry="90.6142" transform="matrix(0.997978 0.0635669 -0.0634634 0.997984 121.32 139.231)" fill="#CEA393"/>
<ellipse rx="34.0353" ry="53.1692" transform="matrix(0.978834 0.204658 -0.204337 0.978901 71.2815 119.061)" fill="white"/>
<ellipse opacity="0.5" rx="46.2434" ry="80.3767" transform="matrix(0.978834 0.204658 -0.204337 0.978901 98.1761 129.308)" fill="white"/>
<path d="M115.483 255.003C109.061 252.807 102.701 250.088 96.2044 248.262C92.7567 249.95 89.7104 252.553 89.7104 256.311C89.7104 268.661 97.4549 275.747 106.248 278.322C118.362 281.87 130.571 283.95 143.021 283.643C149.654 283.479 156.346 282.236 162.904 281.055C168.115 280.117 173.82 279.664 178.688 276.984C183.937 274.095 187.776 268.634 190.773 262.737C191.959 260.402 193.124 255.815 191.809 253.142C191.24 251.984 186.858 252.793 186.038 252.793C181.987 252.793 177.928 253.131 173.953 254.159C168.491 255.573 163.326 258.954 157.792 259.887C152.273 260.819 146.13 260.305 140.595 259.887C131.954 259.235 123.823 257.854 115.483 255.003Z" fill="#7D4B38"/>
<path d="M103.026 37.9498C93.6714 36.3186 84.4035 34.306 74.9479 32.9224C73.9676 33.6528 73.3875 34.7121 73.3875 36.2734C73.3875 45.6422 81.3983 46.3145 89.7107 54.6256C98.0232 62.9368 125.465 59.9101 143.981 59.6769C153.845 59.5527 163.797 58.6093 173.55 57.7138C181.3 57.0022 189.784 56.6583 197.023 54.6256C204.83 52.4338 210.539 48.2911 214.996 43.8173C216.761 42.0459 218.493 38.5661 216.538 36.5381C215.691 35.6599 209.174 36.2734 207.954 36.2734C201.929 36.2734 195.893 36.5298 189.981 37.3102C181.859 38.3824 174.177 40.9474 165.948 41.6556C157.74 42.3619 148.603 41.9725 140.373 41.6556C127.521 41.1608 115.429 40.1128 103.026 37.9498Z" fill="#956451"/>
<ellipse rx="33.8982" ry="7.87277" transform="matrix(0.961522 0.274728 -0.274313 0.96164 179.754 27.836)" fill="white"/>
<path d="M95.6345 258.641C96.9509 270.498 116.632 282.392 143.025 281.697C167.278 281.058 180.543 275.768 190.416 262.593M96.9509 253.371C115.381 265.887 129.207 268.223 141.709 268.522C157.563 268.901 187.125 263.911 190.416 256.664C191.074 252.273 194.102 241.382 200.947 232.95C209.504 222.41 239.123 192.766 239.123 138.749M239.123 138.749C239.123 84.732 210.821 57.7235 210.821 43.8898C171.986 56.406 109.457 52.4535 79.8375 43.8898C74.5719 40.3765 66.4101 32.0324 75.8883 26.7625C87.736 20.175 109.457 17.54 143.025 17.54C164.416 17.54 187.68 17.6556 200.579 22.3708C203.464 23.4256 212.395 26.0954 213.587 31.2385C214.778 36.3816 210.821 38.2145 210.821 38.2145M239.123 138.749C232.98 144.897 205.16 157.194 143.025 157.194C119.009 157.194 100.447 155.357 86.4196 152.748M50.2183 138.749C53.314 142.521 64.1552 148.607 86.4196 152.748M91.027 240.855C85.1032 221.092 64.0406 201.33 56.1421 173.004C55.4946 170.682 54.8869 168.262 54.3291 165.758M68.648 67.6046C60.2741 80.4223 55.3101 94.439 52.7904 108.447C49.1283 128.805 50.6293 149.145 54.3291 165.758M98.2673 31.3737C120.646 35.9849 158.164 35.9849 179.885 34.6674C189.738 34.0697 195.633 32.1151 198.805 29.8713M111.431 84.732C110.773 105.153 123.279 113.058 117.355 121.622C111.431 130.185 105.508 117.011 98.2673 115.034M104.849 106.471C104.63 105.153 103.401 102.65 100.242 103.177M83.1286 115.034C75.8883 118.987 71.9391 122.28 75.8883 123.598M89.0524 103.177C89.0524 105.812 86.8145 110.16 77.8629 106.471C69.039 102.834 68.4015 102.885 60.7496 105.653M60.7496 135.455C66.0152 134.797 68.648 132.82 71.2809 138.749M86.4196 152.748C83.348 151.595 78.3895 148.103 83.1286 143.36C89.0524 137.432 89.0524 134.797 89.0524 131.503M86.4196 152.748C88.6136 154.669 92.6067 159.961 91.027 165.758M79.8375 81.4383C80.0569 82.3166 80.759 82.7558 81.8122 77.4858M98.2673 66.2872C97.8285 68.7026 98.1357 73.4016 102.875 72.8746C108.799 72.2159 108.799 67.6046 110.115 70.2396M54.3291 165.758C56.4693 169.051 61.9343 175.639 66.6734 175.639M77.8629 178.274C79.1793 178.054 81.4172 178.669 79.8375 182.885M100.9 221.092C100.681 218.896 99.3204 214.768 95.6345 215.822" stroke="#3E3939" stroke-width="5" stroke-linecap="round" stroke-linejoin="round"/>
<circle cx="245.5" cy="94.5" r="53.5" fill="#FFFBFB"/>
<path fill-rule="evenodd" clip-rule="evenodd" d="M263.059 122.88C267.155 118.537 268.923 116.063 270 111.525C262.213 105.801 256.174 100.943 250.915 96.2886C256.142 91.3437 261.56 86.6875 268.078 81.0865C268.68 80.5686 269.292 80.0426 269.915 79.5075C268.1 75.4627 266.675 73.7041 263.748 71.0329C258.31 75.8381 253.067 80.0305 248.025 84.0632C246.175 85.5424 244.353 87.0002 242.557 88.4589C237.439 83.3948 232.598 78.1253 226.775 71.786C226.236 71.2001 225.69 70.6049 225.134 70C221.218 72.0122 219.544 73.5298 217.035 76.605C222.022 81.8873 226.396 86.9981 230.603 91.9142C231.714 93.2128 232.813 94.4977 233.91 95.7687C227.558 101.435 221.585 107.622 216 115.485C220.109 119.816 222.475 121.711 226.909 123C232.659 115.704 237.551 109.993 242.2 105.035C248.242 111.436 254.776 117.407 263.059 122.88Z" fill="#FFBCBC"/>
</g>
<defs>
<clipPath id="clip0">
<rect width="290" height="290" fill="white"/>
</clipPath>
</defs>
</svg>
