<svg width="290" height="211" viewBox="0 0 290 211" fill="none" xmlns="http://www.w3.org/2000/svg">
<path fill-rule="evenodd" clip-rule="evenodd" d="M191.806 166.721C201.363 156.642 205.489 150.9 208.001 140.369C189.832 127.084 175.74 115.811 163.468 105.009C175.665 93.5333 188.307 82.7276 203.514 69.7293C204.921 68.5273 206.349 67.3065 207.801 66.0648C203.567 56.6778 200.242 52.5965 193.413 46.3972C180.723 57.5489 168.491 67.2785 156.725 76.6373C152.409 80.0702 148.156 83.4532 143.967 86.8381C132.024 75.0857 120.73 62.8566 107.142 48.1449C105.886 46.785 104.61 45.4039 103.313 44C94.1772 48.6698 90.2709 52.1918 84.4162 59.3286C96.0534 71.5874 106.258 83.4485 116.074 94.8574C118.666 97.871 121.232 100.853 123.79 103.802C108.969 116.952 95.0326 131.312 82 149.559C91.5872 159.61 97.1073 164.009 107.455 167C120.87 150.067 132.285 136.814 143.133 125.306C157.231 140.163 172.477 154.019 191.806 166.721Z" fill="#FFBCBC"/>
</svg>
