<svg width="290" height="290" viewBox="0 0 290 290" fill="none" xmlns="http://www.w3.org/2000/svg">
<g clip-path="url(#clip0)">
<circle cx="245.5" cy="94.5" r="53.5" fill="#FFFBFB"/>
<path fill-rule="evenodd" clip-rule="evenodd" d="M263.059 122.88C267.155 118.537 268.923 116.063 270 111.525C262.213 105.801 256.174 100.943 250.915 96.2886C256.142 91.3437 261.56 86.6875 268.078 81.0865C268.68 80.5686 269.292 80.0426 269.915 79.5075C268.1 75.4627 266.675 73.7041 263.748 71.0329C258.31 75.8381 253.067 80.0305 248.025 84.0632C246.175 85.5424 244.353 87.0002 242.557 88.4589C237.439 83.3948 232.598 78.1253 226.775 71.786C226.236 71.2001 225.69 70.6049 225.134 70C221.218 72.0122 219.544 73.5298 217.035 76.605C222.022 81.8873 226.396 86.9981 230.603 91.9142C231.714 93.2128 232.813 94.4977 233.91 95.7687C227.558 101.435 221.585 107.622 216 115.485C220.109 119.816 222.475 121.711 226.909 123C232.659 115.704 237.551 109.993 242.2 105.035C248.242 111.436 254.776 117.407 263.059 122.88Z" fill="#FFBCBC"/>
<path opacity="0.8" d="M188.343 270.568L166.575 266.899C160.141 266.793 153.687 267.625 147.169 267.342C142.223 267.126 137.292 266.994 132.346 266.776C130.203 266.681 127.059 265.554 125.063 266.157C122.842 266.827 124.024 271.413 124.601 272.724C126.311 276.611 131.847 279.616 136.387 281.355C139.844 282.679 143.9 283.012 147.568 283.63C153.549 284.638 159.529 285.134 165.541 285.877C172.216 286.703 179.05 287.225 185.739 287.501C191.654 287.745 198.355 287.958 203.76 286.282C209.655 284.453 213.528 277.783 206.191 274.553C200.689 272.13 194.298 271.571 188.343 270.568Z" fill="#C09271"/>
<ellipse opacity="0.7" cx="143.641" cy="231.63" rx="40.1186" ry="44.9896" fill="#E5B99C"/>
<ellipse opacity="0.3" cx="144.5" cy="218.247" rx="72.5" ry="41.8574" fill="#E5B99C"/>
<ellipse cx="134.184" cy="226.79" rx="41.5514" ry="32.1761" fill="#E5C2AB"/>
<ellipse cx="146.219" cy="175.82" rx="16.9071" ry="10.8203" fill="#E5C2AB"/>
<ellipse cx="121.862" cy="220.24" rx="24.6443" ry="20.5016" fill="#F9E8DD"/>
<ellipse cx="114.124" cy="213.691" rx="16.9071" ry="13.9525" fill="white"/>
<ellipse rx="13.608" ry="3.13551" transform="matrix(0.91418 0.405308 -0.409632 0.912251 161.95 199.572)" fill="white"/>
<ellipse rx="13.622" ry="3.13224" transform="matrix(0.998648 0.051983 -0.0526467 0.998613 149.959 168.836)" fill="white"/>
<path opacity="0.7" d="M184.89 238.876C169.362 250.121 135.282 244.627 101.229 236.756L101.803 238.876C108.341 266.145 148.114 266.426 164.731 265.582C181.349 264.739 200.418 227.631 184.89 238.876Z" fill="#AE7A55"/>
<path opacity="0.7" d="M158.771 179.137C153.197 184.65 140.963 181.957 128.739 178.098L128.945 179.137C131.292 192.505 145.569 192.642 151.535 192.229C157.5 191.815 164.345 173.625 158.771 179.137Z" fill="#AE7A55"/>
<g style="mix-blend-mode:multiply">
<path d="M116.018 258.758C114.768 257.827 113.66 256.841 112.587 255.717C111.838 255.33 111.75 254.392 111.793 253.626C111.857 252.482 113.836 253.087 114.357 253.303C115.901 253.946 117.273 255.127 118.709 255.977C121.125 257.407 123.689 257.98 126.456 258.4C136.761 259.962 147.199 260.496 157.608 260.894C159.405 260.963 161.121 261.271 162.899 261.468C164.609 261.658 166.302 261.713 168.001 262.024C168.24 262.068 171.068 262.559 170.538 263.236C169.432 264.648 167.59 265.246 166.692 266.869C166.006 268.109 165.094 269.151 164.488 270.422C164.094 271.251 164.419 272.393 163.396 272.845C162.499 273.241 161.785 274.083 161.048 274.693C160.307 275.307 159.476 275.771 158.682 276.317C157.667 277.016 156.355 277.284 155.206 277.681C153.956 278.113 152.571 278.479 151.269 278.731C149.874 279 148.448 278.912 147.053 279.143C145.99 279.319 145.232 279.628 144.127 279.628C143.087 279.628 141.807 279.82 140.795 279.538C139.637 279.216 138.469 278.959 137.31 278.623C135.36 278.057 133.329 277.072 131.332 276.757C130.072 276.558 129.341 276.248 128.244 275.554C127.043 274.795 126.378 272.888 125.68 271.714C124.872 270.356 124.203 268.694 123.991 267.121C123.914 266.545 123.894 265.865 123.657 265.335C123.379 264.712 122.698 264.323 122.285 263.801C121.534 262.852 120.149 262.184 119.188 261.441C118.09 260.592 117.139 259.594 116.018 258.758Z" fill="#A57655"/>
</g>
<g style="mix-blend-mode:multiply">
<path d="M132.751 180.661C135.617 182.654 143.067 182.085 149.085 182.085C155.103 182.085 158.828 180.091 160.834 178.668C162.84 177.244 162.267 175.251 162.553 172.403C162.84 169.556 160.261 165.854 144.787 165.854C141.348 165.854 133.725 166.367 130.745 168.417M154.53 184.078C154.243 187.21 153.957 190.627 157.395 192.335C160.834 194.044 166.565 193.474 177.168 201.447M187.484 212.268C189.395 214.83 192.528 222.404 189.777 232.2C189.49 233.22 189.22 234.166 188.963 235.047M182.899 249.284C184.217 247.483 185.157 246.153 186.371 243.02M179.747 253.84C178.983 254.6 177.225 256.46 176.308 257.827M167.998 264.945L165.419 266.938C165.706 267.983 165.763 270.64 163.7 272.918C161.121 275.766 158.828 277.759 152.237 278.898C145.646 280.037 138.482 280.321 131.605 276.905C126.154 274.196 125.383 270.594 124.727 267.94M110.686 253.84C113.838 258.396 121.862 263.806 124.154 266.084C124.392 266.616 124.556 267.245 124.727 267.94M102.376 241.311C100.847 239.034 97.7905 232.541 97.7905 224.796C97.7905 215.115 101.229 211.983 104.381 207.996C106.903 204.807 113.169 200.593 115.844 198.885M115.844 198.885C115.844 201.39 115.557 202.396 115.557 202.586M115.844 198.885C115.653 196.512 115.328 185.16 115.557 181.515C115.844 176.959 118.136 174.112 120.715 173.258C123.294 172.403 125.874 172.119 127.879 172.688M127.879 172.688C127.688 173.353 127.478 174.966 128.166 176.105C128.854 177.244 130.554 179.047 131.318 179.807C132.56 181.23 135.043 185.046 135.043 188.919M127.879 172.688C127.879 172.426 127.949 171.95 128.166 171.423M129.026 170.125C128.615 170.534 128.342 170.995 128.166 171.423M119.569 205.434C120.45 204.486 121.905 202.105 122.221 198.885M135.043 188.919C133.038 185.881 128.051 180.148 124.154 181.515C119.59 183.116 121.063 188.964 121.974 194.613M135.043 188.919C134.852 190.058 134.241 192.335 133.324 192.335C132.178 192.335 128.739 195.752 124.727 194.898C121.518 194.215 121.554 194.424 121.974 194.613M121.974 194.613C122.035 194.994 122.094 195.375 122.148 195.752C122.308 196.862 122.316 197.912 122.221 198.885M107.534 237.325C125.874 244.159 142.781 247.291 160.834 244.728C175.277 242.678 185.605 237.42 188.963 235.047M188.963 235.047C187.91 238.659 187.092 241.158 186.371 243.02M186.371 243.02C183.303 245.393 174.073 250.594 161.694 252.417C149.314 254.239 133.802 252.606 127.593 251.562M124.727 267.94C127.497 270.169 135.215 274.627 143.927 274.627M150.518 188.064C150.518 192.335 152.81 194.329 155.389 195.752M128.166 171.423C129.026 173.827 134.47 176.105 143.927 176.105C151.492 176.105 154.721 175.725 155.389 175.536M152.237 170.125C155.103 170.695 153.957 171.834 148.225 172.119M105.241 213.976C105.432 213.501 106.101 212.609 107.247 212.837M124.154 215.115C123.294 216.539 124.154 217.678 124.727 217.678M122.221 198.885C123.82 199.359 128.739 199.112 133.324 196.607M128.453 225.935C130.459 224.512 131.318 224.796 131.891 225.935C132.464 227.074 130.459 224.796 130.459 221.949M114.698 227.644C116.704 225.935 115.271 222.518 114.411 227.074M113.838 208.566C114.411 208.566 115.672 208.338 116.13 207.427M112.978 219.101C112.31 219.386 110.915 220.183 110.686 221.095C110.399 222.234 111.832 217.962 110.686 216.539C109.769 215.4 111.45 215.495 112.405 215.684M133.038 210.844C132.751 208.566 132.751 208.566 131.318 208.566C129.885 208.566 131.318 206.573 133.038 206.857C134.757 207.142 131.891 209.135 135.33 208.566" stroke="#3E3939" stroke-width="5" stroke-linecap="round" stroke-linejoin="round"/>
</g>
</g>
<defs>
<clipPath id="clip0">
<rect width="290" height="290" fill="white"/>
</clipPath>
</defs>
</svg>
