<svg width="290" height="290" viewBox="0 0 290 290" fill="none" xmlns="http://www.w3.org/2000/svg">
<g clip-path="url(#clip0)">
<ellipse opacity="0.3" cx="146" cy="134.5" rx="126" ry="74.5" fill="#D9B497"/>
<path d="M91.9851 153.368C90.3476 142.233 92.8189 131.491 93.0291 120.352C94.559 120.352 95.929 119.517 97.4141 119.517C98.7012 119.517 101.692 119.112 102.843 118.473C103.654 118.022 105.058 118.082 105.999 117.847C107.336 117.512 108.285 116.633 109.734 116.594C112.725 116.513 116.467 116.09 118.597 118.635C121.367 121.948 123.167 125.945 125.835 129.354C128.64 132.938 131.124 136.813 133.283 140.816C137.061 147.82 138.293 156.821 138.782 164.62C139.168 170.787 139.086 176.938 138.341 183.065C137.472 190.208 136.392 197.242 135.209 204.34C133.99 211.653 133.765 220.136 129.965 226.66C128.359 229.417 125.598 234.738 121.845 231.95C119.242 230.016 118.501 227.378 116.833 224.757C114.692 221.392 113.254 216.973 111.636 213.296C107.427 203.729 104.168 194.078 100.639 184.248C97.0933 174.371 93.5111 163.745 91.9851 153.368Z" fill="white"/>
<path d="M161.254 247.649C147.48 247.266 156.185 249.688 142.334 249.688C134.066 249.688 125 245.129 125 236.433C125 225.292 141.116 221.454 150.264 221.139C168.123 220.523 186.028 222.158 203.738 222.158C216.085 222.158 231.645 221.566 243.277 226.463C251.009 229.719 259.101 233.634 255.739 243.344C252.652 252.263 241.313 255.806 233.081 255.806C220.532 255.806 207.494 255.601 195.128 253.54C184.161 251.712 172.342 247.957 161.254 247.649Z" fill="#CDB5A2"/>
<path d="M112.315 132.787C113.931 130.388 116.229 130.634 118.958 130.634C119.495 129.711 122.201 129.583 123.309 129.365C126.833 128.673 130.813 129.073 134.264 129.666C137.124 130.157 140.325 129.875 143.238 130.1C146.2 130.329 148.92 130.764 151.746 131.535C153.975 132.143 155.777 133.627 157.34 135.074C158.141 135.815 157.798 137.495 157.768 138.445C157.717 140.016 156.579 142.025 156.019 143.552C155.167 145.879 154.995 148.404 154.193 150.762C151.597 158.4 149.321 166.054 147.628 173.895C146.273 180.172 144.358 186.265 144.481 192.688C144.519 194.642 145.27 196.585 145.53 198.529C146.007 202.085 146.171 205.635 146.23 209.211C146.349 216.562 149.165 227.172 157.787 230.658C160.252 231.655 163.898 232.903 162.798 235.949C162.1 237.882 159.815 240.045 157.748 241.022C153.06 243.238 146.516 242.992 141.354 242.992C135.973 242.992 131.845 241.642 128.243 238.052C124.879 234.699 122.105 230.32 122.105 225.851C122.105 222.744 122.849 219.821 123.134 216.755C123.49 212.932 123.154 208.988 123.154 205.155C123.154 196.384 124.584 186.361 120.862 177.984C120.12 176.315 119.115 174.742 118.278 173.11C117.225 171.057 116.763 168.786 115.967 166.651C113.828 160.917 110.557 155.063 110.256 148.993C110.008 143.991 109.287 137.281 112.315 132.787Z" fill="#D9B497"/>
<path d="M130.674 78.0215C125.275 75.3599 122.076 73.8333 116.828 70.5735C115.587 71.4546 114.576 73.7548 113.412 75.0769C111.066 77.7415 107.904 79.1326 105.3 81.4856C100.063 86.2172 88.3145 95.6559 90.2035 106.384C91.4555 113.495 92.4267 120.456 96.8215 125.091C102.896 131.498 111.625 133.39 118.871 135.7C131.795 139.82 146.105 144.236 159.403 140.723C165.015 139.241 170.72 138.995 176.237 136.826C183.561 133.946 190.499 129.929 196.976 124.182C201.998 119.725 205.99 115.358 204.783 106.601C203.867 99.9574 201.795 94.4789 199.171 88.8903C195.661 81.4146 190.83 73.9833 185.173 69.8373C180.217 66.2053 173.318 68.8532 168.216 70.1837C160.522 72.1902 154.145 78.565 146.685 81.0093C141.336 82.7619 135.692 80.4955 130.674 78.0215Z" fill="#D9B497"/>
<path d="M134.758 52.0941C131.472 50.4756 129.524 49.5473 126.33 47.5649C125.575 48.1008 124.959 49.4995 124.251 50.3035C122.823 51.9239 120.898 52.7698 119.313 54.2007C116.125 57.078 108.974 62.8178 110.124 69.3419C110.886 73.6659 111.477 77.8987 114.152 80.7175C117.849 84.6135 123.163 85.7644 127.574 87.169C135.441 89.674 144.151 92.3596 152.245 90.2236C155.661 89.322 159.134 89.1729 162.492 87.8536C166.95 86.1024 171.173 83.6598 175.116 80.1646C178.173 77.4544 180.602 74.7988 179.868 69.4736C179.311 65.4336 178.049 62.102 176.452 58.7036C174.316 54.1575 171.375 49.6385 167.931 47.1173C164.915 44.9087 160.715 46.5188 157.61 47.328C152.927 48.5481 149.045 52.4246 144.504 53.9111C141.248 54.9768 137.813 53.5986 134.758 52.0941Z" fill="#BB8663"/>
<path d="M132.124 40.8439C127.993 40.0886 125.545 39.6554 121.529 38.7303C120.579 38.9804 119.806 39.6331 118.915 40.0083C117.12 40.7645 114.7 41.1593 112.708 41.827C108.701 43.1697 99.7102 45.8483 101.156 48.8929C102.114 50.9108 102.857 52.8861 106.22 54.2015C110.868 56.0196 117.547 56.5567 123.093 57.2122C132.982 58.3812 143.933 59.6345 154.108 58.6377C158.402 58.217 162.768 58.1474 166.99 57.5317C172.595 56.7145 177.903 55.5746 182.86 53.9435C186.703 52.6787 189.757 51.4394 188.834 48.9543C188.133 47.069 186.548 45.5143 184.54 43.9283C181.854 41.8068 178.157 39.698 173.828 38.5214C170.036 37.4907 164.757 38.2421 160.852 38.6197C154.965 39.1891 150.085 40.9982 144.376 41.6918C140.283 42.1892 135.964 41.546 132.124 40.8439Z" fill="#B46F45"/>
<path d="M95.8332 55.5621C96.4087 53.4966 96.7388 52.2724 97.4436 50.2646C97.2531 49.7897 96.7557 49.403 96.4699 48.9577C95.8937 48.0602 95.5929 46.8502 95.0842 45.8538C94.0612 43.8503 92.0204 39.3551 89.7007 40.0779C88.1632 40.5569 86.6582 40.9285 85.656 42.61C84.2708 44.9339 83.8616 48.2737 83.3621 51.0464C82.4715 55.9912 81.5166 61.4663 82.2761 66.554C82.5966 68.7012 82.6496 70.884 83.1187 72.9951C83.7414 75.7974 84.6099 78.4517 85.8526 80.9298C86.8162 82.8513 87.7604 84.3786 89.6538 83.9169C91.0903 83.5667 92.2748 82.7739 93.4832 81.7699C95.0996 80.4269 96.7063 78.5786 97.6027 76.414C98.388 74.5178 97.8155 71.8783 97.5278 69.9262C97.094 66.9825 95.7157 64.5425 95.1872 61.6882C94.8082 59.6417 95.2983 57.4822 95.8332 55.5621Z" fill="#B46F45"/>
<path d="M196.931 64.0554C196.592 66.1728 196.402 67.4264 195.929 69.5009C196.172 69.9513 196.71 70.2793 197.044 70.6895C197.718 71.5162 198.153 72.6844 198.771 73.617C200.014 75.4922 202.549 79.7281 204.773 78.748C206.246 78.0984 207.699 77.5592 208.505 75.7753C209.619 73.3098 209.649 69.9451 209.832 67.1338C210.158 62.12 210.489 56.5721 209.16 51.6027C208.599 49.5055 208.299 47.3426 207.595 45.298C206.66 42.584 205.497 40.0448 203.982 37.7229C202.808 35.9225 201.697 34.5116 199.868 35.1841C198.48 35.6944 197.393 36.6159 196.306 37.7499C194.851 39.2669 193.464 41.2848 192.817 43.5368C192.251 45.5096 193.118 48.0675 193.624 49.9746C194.388 52.8505 196.033 55.1193 196.881 57.8956C197.488 59.8862 197.245 62.0872 196.931 64.0554Z" fill="#BB8663"/>
<path d="M166.612 133.491C170.646 132.751 175.423 132.217 179.194 130.665C184.959 129.139 188.259 130.603 189.188 131.525C189.188 138.23 188.616 144.557 186.476 150.963C185.126 155.004 184.668 158.728 184.668 163.004C184.668 172.086 184.215 180.961 182.182 189.839C181.074 194.674 178.654 198.991 176.883 203.6C175.323 207.661 173.722 211.796 171.986 215.788C168.753 223.224 166 231.063 161.715 238.003C159.366 241.807 152.288 243.095 148.154 243.655C143.365 244.304 138.343 244.471 135.673 240.116C134.143 237.621 135.64 231.514 136.075 229.009C137.798 219.079 139.976 209.214 141.625 199.275C143.79 186.221 141.786 172.722 143.634 159.662C144.569 153.053 146.266 146.338 149.611 140.47C150.565 138.796 151.639 137.388 153.453 136.612C154.825 136.024 156.53 136.36 157.998 135.924C160.846 135.078 163.687 134.028 166.612 133.491Z" fill="#B46F45"/>
<path d="M133.6 211.781C129.75 212.952 125.949 212.75 121.963 212.249C119.444 214.307 122.578 222.709 123.32 225.134C125.484 232.21 129.309 238.413 136.857 242.602C145.234 247.253 156.621 246.995 165.317 242.652C168.887 240.869 168.627 237.799 169.478 234.817C170.929 229.736 173.743 225.422 176.201 220.65C178.821 215.565 181.976 210.186 183.407 204.808C184.136 202.067 186 199.091 186 196.283C186 194.553 186.081 192.009 183.015 193.401C180.892 194.365 178.622 194.773 176.774 196.283C174.936 197.785 172.648 198.768 170.805 200.275C168.801 201.912 166.85 203.381 164.172 204.266C157.577 206.445 150.598 207.479 143.67 208.701C140.16 209.32 136.95 210.762 133.6 211.781Z" fill="#8A5F3F"/>
<path d="M154.391 54.8637L154.394 54.85C157.277 54.85 164.91 53.7957 166.753 56.9292C168.587 60.0475 169.31 63.7311 171.287 66.8052C172.284 68.3573 173.005 70.179 173.106 72.0031C173.182 73.3686 174.805 74.7497 175.445 75.9016C177.69 79.943 178.623 84.7976 182.058 88.2322C183.821 89.9951 184.712 90.7156 187.14 90.7156H193.378C193.87 90.7156 199.381 90.2838 199.586 91.0044C199.957 92.3022 199.096 94.6675 199.096 96.1734C199.096 101.083 201.78 105.254 199.875 110.208C198.931 112.663 198.768 115.575 197.94 118.149C197.433 119.729 196.794 121.306 196.497 122.943C196.041 125.448 194.061 127.579 193.898 130.104C193.599 134.73 193.378 139.274 193.378 143.965C193.378 147.126 193.978 150.994 193.089 154.043C192.546 155.907 191.477 157.636 190.779 159.443C189.841 161.872 188.9 163.792 187.66 166.085C186.819 167.641 185.449 169.02 185.061 170.763C184.337 174.023 186.876 177.532 184.863 180.12C182.712 182.885 183.954 187.651 180.623 188.841C177.773 189.858 175.309 188.624 175.309 185.78C175.309 176.719 172.171 170.361 174.55 161.927C176.779 154.024 178.698 146.289 179.863 138.132C181.147 129.143 185.183 119.865 183.906 110.641C182.825 102.833 177.885 95.8324 172.038 90.7156C167.158 86.4464 160.016 84.2788 156.242 78.7893C151.282 71.5751 152.844 63.1803 154.391 54.8637Z" fill="white"/>
<path d="M105 181.5C114.5 210.5 115.5 212 118 222.5C120.5 233 125.5 245.5 143 245.5C160.5 245.5 165.501 240.5 169.501 229.5C173.501 218.5 176.501 203 180.501 194C184.501 185 190.001 163 192.501 146M99.0005 156.5C96.9226 146.803 95.4843 137.852 94.4396 129.5M164.5 32C159.5 31.6667 148 31 142 31C134.5 31 129.5 31 120.5 33.5C111.5 36 111 36 105.5 36C100 36 95.5005 37 90.5005 43.5C85.5005 50 85.5005 61.5 88.5005 74C91.5005 86.5 91.0005 87 92.0005 102.5C92.5387 110.843 93.2218 119.765 94.4396 129.5M117.5 37.5C126 40 133.5 40.5 147 40.5C160.5 40.5 178.5 37 170 35.5M99.5 45C94 50 92 52 93.5 64C95 76 98 82 99.5 82.5M99.5 82.5C101 83 109.5 77 114.5 70.5C119.5 64 121.5 59 117.5 53.5M99.5 82.5L96.5 83.5M106 45C109.5 45.5 110 47 112 49C114 51 114.5 50 115.5 51M121.5 52C135.5 55 155 54 165.5 52M170 54C173 49.5 175 50.5 179 47C180.333 45.6667 184.3 44.3 189.5 45.5C196 47 196 52.5 196.5 59.5C197 66.5 195 74.5 190.5 81.5C189 81 184.9 78.9 180.5 74.5C176.1 70.1 174 67 173.5 66M179 35.5C190.5 37.5 201.5 38.5 204.5 52C207.5 65.5 201 80.5 199 92.5C196.5 105.5 199.5 103 195 132.5M189.5 107.5C180.501 114.5 176.5 118 147 118C140.623 118.167 124.295 117.1 110 111.5M165.5 61.5C164.5 67.5 164.5 75 175.5 83.5M106 141.5C107.5 139.5 108 139.5 109 140.5M115.5 156.5C118 154 117.5 151 114.5 152.5M108 92.5C110.5 89 112.5 90 113.5 88.5M128 64C129.2 65.6 128.167 67.3333 127.5 68M102.5 108C101 111.5 98.5 112 101 115.5C103.5 119 103.5 113 104 113.5M95.5 95.5C93.9 98.3 92.5003 94.6667 92.0005 92.5M94.4396 129.5C98.4879 129.9 97.5 133.333 96.5 135" stroke="#3E3939" stroke-width="5" stroke-linecap="round" stroke-linejoin="round"/>
<circle cx="245.5" cy="94.5" r="53.5" fill="white"/>
<path fill-rule="evenodd" clip-rule="evenodd" d="M263.059 122.88C267.155 118.537 268.923 116.063 270 111.525C262.213 105.801 256.174 100.943 250.915 96.2886C256.142 91.3437 261.56 86.6875 268.078 81.0865C268.68 80.5686 269.292 80.0426 269.915 79.5075C268.1 75.4627 266.675 73.7041 263.748 71.0329C258.31 75.8381 253.067 80.0305 248.025 84.0632C246.175 85.5424 244.353 87.0002 242.557 88.4589C237.439 83.3948 232.598 78.1253 226.775 71.786C226.236 71.2001 225.69 70.6049 225.134 70C221.218 72.0122 219.544 73.5298 217.035 76.605C222.022 81.8873 226.396 86.9981 230.603 91.9142C231.714 93.2128 232.813 94.4977 233.91 95.7687C227.558 101.435 221.585 107.622 216 115.485C220.109 119.816 222.475 121.711 226.909 123C232.659 115.704 237.551 109.993 242.2 105.035C248.242 111.436 254.776 117.407 263.059 122.88Z" fill="#FFBCBC"/>
</g>
<defs>
<clipPath id="clip0">
<rect width="290" height="290" fill="white"/>
</clipPath>
</defs>
</svg>
