<svg width="290" height="290" viewBox="0 0 290 290" fill="none" xmlns="http://www.w3.org/2000/svg">
<g clip-path="url(#clip0)">
<ellipse opacity="0.3" cx="145" cy="192.871" rx="101" ry="59.6514" fill="#D9B497"/>
<path d="M101.702 207.978C100.39 199.063 102.371 190.462 102.539 181.543C103.765 181.543 104.864 180.875 106.054 180.875C107.086 180.875 109.483 180.551 110.406 180.039C111.056 179.678 112.182 179.725 112.935 179.537C114.007 179.269 114.768 178.565 115.929 178.534C118.327 178.469 121.327 178.13 123.034 180.169C125.254 182.821 126.697 186.022 128.836 188.751C131.084 191.62 133.075 194.723 134.806 197.928C137.835 203.536 138.822 210.744 139.214 216.988C139.524 221.926 139.458 226.851 138.86 231.757C138.164 237.476 137.298 243.108 136.35 248.792C135.373 254.647 135.192 261.439 132.147 266.663C130.859 268.871 128.646 273.131 125.637 270.898C123.551 269.35 122.957 267.237 121.62 265.139C119.903 262.444 118.751 258.907 117.454 255.962C114.08 248.302 111.468 240.575 108.639 232.704C105.797 224.795 102.925 216.287 101.702 207.978Z" fill="white"/>
<path d="M157.227 283.469C146.186 283.162 153.164 285.102 142.061 285.102C135.433 285.102 128.167 281.451 128.167 274.488C128.167 265.568 141.085 262.495 148.418 262.242C162.733 261.749 177.086 263.059 191.282 263.059C201.179 263.059 213.652 262.584 222.976 266.506C229.174 269.112 235.66 272.247 232.966 280.022C230.491 287.163 221.402 290 214.803 290C204.743 290 194.293 289.836 184.38 288.186C175.589 286.722 166.115 283.715 157.227 283.469Z" fill="#CDB5A2"/>
<path d="M117.999 191.5C119.294 189.579 121.136 189.776 123.324 189.776C123.754 189.037 125.923 188.934 126.811 188.76C129.636 188.206 132.826 188.526 135.593 189.001C137.886 189.394 140.451 189.168 142.786 189.348C145.161 189.531 147.341 189.88 149.606 190.497C151.393 190.984 152.837 192.172 154.09 193.331C154.732 193.924 154.458 195.27 154.433 196.03C154.392 197.288 153.48 198.897 153.032 200.119C152.348 201.983 152.211 204.004 151.568 205.892C149.487 212.007 147.662 218.136 146.305 224.414C145.219 229.44 143.684 234.319 143.783 239.462C143.813 241.027 144.415 242.582 144.624 244.139C145.006 246.986 145.138 249.829 145.184 252.692C145.28 258.577 147.538 267.073 154.448 269.864C156.425 270.662 159.347 271.662 158.466 274.1C157.906 275.648 156.074 277.381 154.417 278.163C150.659 279.937 145.414 279.74 141.276 279.74C136.963 279.74 133.654 278.659 130.766 275.784C128.07 273.099 125.846 269.594 125.846 266.015C125.846 263.528 126.442 261.187 126.671 258.732C126.957 255.671 126.687 252.513 126.687 249.444C126.687 242.421 127.834 234.396 124.85 227.688C124.255 226.352 123.45 225.093 122.779 223.786C121.934 222.142 121.564 220.324 120.926 218.615C119.211 214.023 116.589 209.336 116.348 204.476C116.15 200.471 115.571 195.098 117.999 191.5Z" fill="#D9B497"/>
<path d="M132.715 147.65C128.387 145.518 125.823 144.296 121.616 141.686C120.621 142.392 119.811 144.233 118.878 145.292C116.998 147.425 114.463 148.539 112.375 150.423C108.178 154.212 98.7602 161.769 100.274 170.36C101.278 176.053 102.057 181.626 105.579 185.338C110.448 190.467 117.445 191.983 123.254 193.832C133.614 197.131 145.085 200.667 155.744 197.854C160.242 196.667 164.815 196.471 169.238 194.734C175.109 192.428 180.67 189.212 185.862 184.61C189.887 181.041 193.087 177.545 192.12 170.533C191.386 165.213 189.725 160.827 187.622 156.352C184.808 150.366 180.936 144.416 176.401 141.097C172.428 138.189 166.898 140.309 162.809 141.374C156.641 142.981 151.529 148.085 145.549 150.042C141.262 151.445 136.737 149.631 132.715 147.65Z" fill="#D9B497"/>
<path d="M135.989 126.89C133.355 125.594 131.793 124.851 129.233 123.263C128.627 123.692 128.134 124.812 127.566 125.456C126.422 126.753 124.879 127.431 123.608 128.576C121.053 130.88 115.321 135.476 116.242 140.7C116.853 144.162 117.327 147.551 119.471 149.808C122.435 152.928 126.694 153.849 130.23 154.974C136.536 156.98 143.518 159.13 150.006 157.42C152.744 156.698 155.528 156.578 158.22 155.522C161.794 154.12 165.179 152.164 168.339 149.365C170.789 147.195 172.737 145.069 172.148 140.805C171.702 137.571 170.691 134.903 169.41 132.182C167.698 128.542 165.341 124.924 162.58 122.905C160.162 121.136 156.796 122.426 154.307 123.074C150.553 124.05 147.441 127.154 143.801 128.345C141.191 129.198 138.437 128.094 135.989 126.89Z" fill="#BB8663"/>
<path d="M133.878 117.882C130.566 117.277 128.603 116.93 125.385 116.189C124.623 116.39 124.003 116.912 123.289 117.213C121.851 117.818 119.911 118.134 118.313 118.669C115.101 119.744 107.895 121.889 109.054 124.327C109.821 125.942 110.417 127.524 113.113 128.577C116.839 130.033 122.193 130.463 126.638 130.988C134.565 131.924 143.343 132.927 151.499 132.129C154.942 131.792 158.441 131.737 161.826 131.244C166.318 130.589 170.573 129.677 174.546 128.371C177.627 127.358 180.075 126.366 179.335 124.376C178.774 122.866 177.503 121.621 175.893 120.351C173.74 118.653 170.777 116.964 167.307 116.022C164.267 115.197 160.035 115.799 156.906 116.101C152.186 116.557 148.275 118.005 143.699 118.561C140.418 118.959 136.956 118.444 133.878 117.882Z" fill="#B46F45"/>
<path d="M104.787 129.667C105.248 128.013 105.513 127.033 106.078 125.425C105.925 125.045 105.527 124.735 105.297 124.379C104.836 123.66 104.594 122.691 104.187 121.893C103.367 120.289 101.731 116.69 99.8713 117.269C98.6389 117.652 97.4325 117.95 96.6291 119.296C95.5187 121.157 95.1907 123.831 94.7904 126.051C94.0764 130.01 93.311 134.394 93.9198 138.468C94.1768 140.187 94.2193 141.935 94.5953 143.625C95.0944 145.869 95.7906 147.994 96.7867 149.978C97.5592 151.517 98.316 152.74 99.8338 152.37C100.985 152.09 101.935 151.455 102.903 150.651C104.199 149.576 105.487 148.096 106.205 146.363C106.835 144.844 106.376 142.731 106.145 141.168C105.798 138.811 104.693 136.857 104.269 134.572C103.965 132.933 104.358 131.204 104.787 129.667Z" fill="#B46F45"/>
<path d="M185.825 136.467C185.554 138.162 185.402 139.166 185.022 140.827C185.217 141.188 185.648 141.45 185.916 141.779C186.456 142.441 186.805 143.376 187.301 144.123C188.297 145.624 190.329 149.016 192.111 148.231C193.292 147.711 194.457 147.279 195.104 145.851C195.996 143.877 196.02 141.183 196.167 138.932C196.428 134.917 196.693 130.475 195.628 126.496C195.178 124.817 194.938 123.085 194.374 121.448C193.624 119.275 192.692 117.242 191.478 115.383C190.536 113.941 189.646 112.812 188.18 113.35C187.068 113.759 186.196 114.496 185.324 115.404C184.159 116.619 183.046 118.235 182.528 120.038C182.074 121.618 182.769 123.666 183.175 125.193C183.787 127.495 185.106 129.312 185.785 131.535C186.272 133.129 186.077 134.891 185.825 136.467Z" fill="#BB8663"/>
<path d="M161.522 192.064C164.756 191.471 168.585 191.043 171.608 189.801C176.229 188.579 178.875 189.751 179.619 190.489C179.619 195.858 179.161 200.924 177.445 206.053C176.363 209.289 175.996 212.27 175.996 215.694C175.996 222.966 175.633 230.072 174.003 237.18C173.115 241.053 171.175 244.509 169.756 248.199C168.505 251.45 167.222 254.762 165.83 257.958C163.238 263.912 161.032 270.188 157.597 275.745C155.714 278.791 150.041 279.822 146.727 280.271C142.888 280.79 138.862 280.924 136.722 277.438C135.496 275.439 136.696 270.549 137.044 268.544C138.425 260.593 140.171 252.695 141.493 244.736C143.229 234.284 141.622 223.476 143.103 213.018C143.853 207.726 145.213 202.35 147.894 197.651C148.659 196.311 149.521 195.184 150.974 194.562C152.074 194.092 153.441 194.361 154.618 194.011C156.901 193.334 159.178 192.493 161.522 192.064Z" fill="#B46F45"/>
<path d="M135.061 254.749C131.974 255.687 128.927 255.525 125.732 255.124C123.713 256.772 126.225 263.5 126.82 265.442C128.555 271.107 131.621 276.074 137.671 279.428C144.386 283.151 153.514 282.945 160.485 279.468C163.346 278.04 163.137 275.582 163.82 273.194C164.983 269.126 167.238 265.672 169.209 261.851C171.309 257.78 173.838 253.472 174.985 249.167C175.57 246.972 177.063 244.589 177.063 242.341C177.063 240.956 177.129 238.918 174.671 240.033C172.969 240.805 171.15 241.132 169.668 242.341C168.195 243.543 166.361 244.33 164.883 245.537C163.278 246.847 161.714 248.024 159.566 248.733C154.28 250.477 148.685 251.305 143.133 252.283C140.319 252.779 137.746 253.934 135.061 254.749Z" fill="#8A5F3F"/>
<path d="M151.726 129.108L151.728 129.097C154.039 129.097 160.158 128.252 161.635 130.761C163.106 133.258 163.685 136.207 165.269 138.669C166.069 139.912 166.646 141.37 166.728 142.831C166.788 143.924 168.09 145.03 168.603 145.952C170.402 149.188 171.15 153.075 173.903 155.825C175.317 157.237 176.031 157.814 177.977 157.814H182.977C183.372 157.814 187.789 157.468 187.954 158.045C188.251 159.084 187.561 160.978 187.561 162.184C187.561 166.115 189.713 169.455 188.186 173.421C187.428 175.387 187.298 177.719 186.635 179.779C186.228 181.044 185.716 182.307 185.477 183.618C185.112 185.623 183.525 187.33 183.394 189.352C183.155 193.056 182.977 196.694 182.977 200.45C182.977 202.981 183.459 206.078 182.746 208.52C182.31 210.012 181.454 211.396 180.894 212.843C180.142 214.788 179.388 216.325 178.394 218.161C177.72 219.407 176.621 220.511 176.311 221.907C175.73 224.517 177.765 227.327 176.152 229.399C174.428 231.613 175.423 235.429 172.753 236.381C170.469 237.196 168.494 236.208 168.494 233.93C168.494 226.676 165.978 221.585 167.885 214.832C169.672 208.504 171.21 202.31 172.144 195.78C173.174 188.582 176.409 181.153 175.385 173.768C174.518 167.516 170.559 161.911 165.871 157.814C161.96 154.395 156.235 152.66 153.209 148.264C149.234 142.488 150.486 135.766 151.726 129.108Z" fill="white"/>
<path d="M112.135 230.504C119.75 253.724 120.552 254.925 122.556 263.332C124.56 271.739 128.568 281.748 142.596 281.748C156.624 281.748 160.631 277.745 163.838 268.937C167.044 260.129 169.449 247.719 172.655 240.512C175.862 233.306 180.27 215.691 182.274 202.079M107.326 210.487C105.66 202.722 104.507 195.555 103.67 188.868M159.829 110.801C155.822 110.534 146.603 110 141.794 110C135.782 110 131.774 110 124.56 112.002C117.345 114.003 116.945 114.003 112.536 114.003C108.127 114.003 104.52 114.804 100.512 120.009C96.5045 125.213 96.5045 134.421 98.9092 144.43C101.314 154.438 100.913 154.839 101.715 167.249C102.146 173.929 102.694 181.073 103.67 188.868M122.155 115.204C128.968 117.206 134.98 117.607 145.802 117.607C156.623 117.607 171.052 114.804 164.238 113.603M107.726 121.21C103.318 125.213 101.714 126.814 102.917 136.423C104.119 146.031 106.524 150.835 107.726 151.236M107.726 151.236C108.929 151.636 115.742 146.832 119.75 141.627C123.758 136.423 125.361 132.419 122.155 128.016M107.726 151.236L105.322 152.036M112.937 121.21C115.742 121.61 116.143 122.811 117.746 124.412C119.349 126.014 119.75 125.213 120.552 126.014M125.361 126.814C136.583 129.217 152.214 128.416 160.631 126.814M164.238 128.416C166.643 124.813 168.246 125.613 171.452 122.811C172.521 121.743 175.701 120.649 179.869 121.61C185.079 122.811 185.079 127.215 185.48 132.82C185.881 138.424 184.278 144.83 180.671 150.435C179.468 150.035 176.182 148.353 172.655 144.83C169.128 141.307 167.445 138.825 167.044 138.024M171.452 113.603C180.671 115.204 189.488 116.005 191.893 126.814C194.298 137.624 189.087 149.634 187.484 159.242C185.48 169.651 187.885 167.65 184.278 191.27M179.869 171.253C172.655 176.858 169.449 179.66 145.802 179.66C140.69 179.793 127.601 178.939 116.143 174.456M160.631 134.421C159.829 139.225 159.829 145.23 168.647 152.036M112.937 198.476C114.139 196.875 114.54 196.875 115.341 197.676M120.552 210.487C122.556 208.485 122.155 206.083 119.75 207.284M114.54 159.242C116.544 156.44 118.147 157.241 118.949 156.04M130.572 136.423C131.533 137.704 130.705 139.092 130.171 139.626M110.131 171.653C108.929 174.456 106.925 174.856 108.929 177.658C110.933 180.461 110.933 175.657 111.333 176.057M104.52 161.645C103.237 163.886 102.115 160.977 101.715 159.242M103.67 188.868C106.915 189.188 106.123 191.937 105.322 193.272" stroke="#3E3939" stroke-width="5" stroke-linecap="round" stroke-linejoin="round"/>
<circle cx="245.5" cy="94.5" r="53.5" fill="#FFFBFB"/>
<path fill-rule="evenodd" clip-rule="evenodd" d="M263.059 122.88C267.155 118.537 268.923 116.063 270 111.525C262.213 105.801 256.174 100.943 250.915 96.2886C256.142 91.3437 261.56 86.6875 268.078 81.0865C268.68 80.5686 269.292 80.0426 269.915 79.5075C268.1 75.4627 266.675 73.7041 263.748 71.0329C258.31 75.8381 253.067 80.0305 248.025 84.0632C246.175 85.5424 244.353 87.0002 242.557 88.4589C237.439 83.3948 232.598 78.1253 226.775 71.786C226.236 71.2001 225.69 70.6049 225.134 70C221.218 72.0122 219.544 73.5298 217.035 76.605C222.022 81.8873 226.396 86.9981 230.603 91.9142C231.714 93.2128 232.813 94.4977 233.91 95.7687C227.558 101.435 221.585 107.622 216 115.485C220.109 119.816 222.475 121.711 226.909 123C232.659 115.704 237.551 109.993 242.2 105.035C248.242 111.436 254.776 117.407 263.059 122.88Z" fill="#FFBCBC"/>
</g>
<defs>
<clipPath id="clip0">
<rect width="290" height="290" fill="white"/>
</clipPath>
</defs>
</svg>
