<svg width="290" height="211" viewBox="0 0 290 211" fill="none" xmlns="http://www.w3.org/2000/svg">
<ellipse opacity="0.4" cx="145" cy="103.5" rx="107" ry="71.5" fill="#C0F4FF"/>
<rect x="52.3623" y="37.4241" width="52.9462" height="15.9691" transform="rotate(30.1553 52.3623 37.4241)" fill="#F15A3F"/>
<rect x="95" y="63" width="23.1889" height="25.0555" transform="rotate(30.1553 95 63)" fill="#F15A3F"/>
<rect x="121.716" y="78" width="120.327" height="11.8587" transform="rotate(34.4971 121.716 78)" fill="#C0F4FF"/>
<rect opacity="0.5" x="110.998" y="85.1349" width="120.327" height="11.8587" transform="rotate(31.8998 110.998 85.1349)" fill="#7DC5D5"/>
<rect opacity="0.5" x="160.339" y="103" width="50.6734" height="15.7805" transform="rotate(31.8998 160.339 103)" fill="#22859B"/>
<rect opacity="0.5" x="220.173" y="161" width="13.8283" height="21.8967" transform="rotate(43.8637 220.173 161)" fill="#22859B"/>
<rect opacity="0.5" x="58.9453" y="32.7455" width="53.1984" height="13.7321" transform="rotate(35.8703 58.9453 32.7455)" fill="#F15A3F"/>
<rect opacity="0.5" x="99.6006" y="63.2593" width="28.7506" height="13.7321" transform="rotate(10.8237 99.6006 63.2593)" fill="#F15A3F"/>
<rect x="73.7759" y="58.222" width="43.9409" height="5.52581" transform="rotate(30.1553 73.7759 58.222)" fill="#8D4032"/>
<rect x="90.1318" y="67.7244" width="25.025" height="14.197" transform="rotate(30.1553 90.1318 67.7244)" fill="#8D4032"/>
<rect width="89.8818" height="4.57787" transform="matrix(0.824155 0.566365 0.566365 -0.824155 121.716 78)" fill="white"/>
<rect opacity="0.4" width="41.3251" height="4.57787" transform="matrix(0.824155 0.566365 0.566365 -0.824155 64 38.7728)" fill="#F7AC9E"/>
<rect width="14.7816" height="3.09156" transform="matrix(0.824155 0.566365 0.566365 -0.824155 198.736 135.082)" fill="white"/>
<path d="M106.132 86.8149L102 84" stroke="#F7AC9E" stroke-width="3" stroke-linecap="round" stroke-linejoin="round"/>
<path d="M111.132 83.8149L107 81" stroke="#F7AC9E" stroke-width="3" stroke-linecap="round" stroke-linejoin="round"/>
<path d="M115.132 77.8149L111 75" stroke="#F7AC9E" stroke-width="3" stroke-linecap="round" stroke-linejoin="round"/>
<path d="M120.132 66.8149L116 64" stroke="white" stroke-width="3" stroke-linecap="round" stroke-linejoin="round"/>
<path d="M113.407 88.9806C112.266 88.2033 110.711 88.4982 109.934 89.6393C109.157 90.7804 109.451 92.3356 110.593 93.1129L113.407 88.9806ZM133.426 73.4391C132.284 72.6638 130.729 72.9615 129.954 74.104C129.178 75.2465 129.476 76.8012 130.619 77.5764L133.426 73.4391ZM203.91 133.69L201.498 134.347C201.655 134.921 202.011 135.421 202.503 135.756L203.91 133.69ZM199.125 140.715L200.532 138.649C200.018 138.298 199.391 138.152 198.774 138.239L199.125 140.715ZM197.969 120.259L199.517 118.295C199.47 118.258 199.422 118.223 199.373 118.19L197.969 120.259ZM208.623 147.184L207.215 149.251C207.897 149.715 208.764 149.813 209.533 149.513L208.623 147.184ZM213.408 140.159L215.907 140.088C215.884 139.286 215.478 138.545 214.815 138.093L213.408 140.159ZM199.125 140.715C198.774 138.239 198.774 138.239 198.775 138.239C198.775 138.239 198.775 138.239 198.775 138.239C198.775 138.239 198.775 138.239 198.774 138.239C198.773 138.24 198.772 138.24 198.77 138.24C198.766 138.241 198.758 138.242 198.749 138.243C198.729 138.246 198.699 138.25 198.659 138.255C198.578 138.266 198.456 138.282 198.299 138.302C197.985 138.342 197.529 138.397 196.972 138.457C195.853 138.577 194.34 138.716 192.744 138.791C191.136 138.867 189.506 138.876 188.134 138.755C186.627 138.621 185.903 138.363 185.721 138.239L182.907 142.372C184.248 143.286 186.138 143.598 187.693 143.735C189.384 143.885 191.266 143.867 192.98 143.786C194.706 143.704 196.324 143.556 197.507 143.428C198.099 143.365 198.587 143.306 198.928 143.262C199.098 143.241 199.233 143.223 199.326 143.211C199.372 143.204 199.408 143.199 199.433 143.196C199.446 143.194 199.456 143.193 199.463 143.192C199.466 143.191 199.469 143.191 199.471 143.191C199.472 143.19 199.473 143.19 199.474 143.19C199.474 143.19 199.475 143.19 199.475 143.19C199.475 143.19 199.475 143.19 199.125 140.715ZM185.721 138.239L113.407 88.9806L110.593 93.1129L182.907 142.372L185.721 138.239ZM130.619 77.5764L196.566 122.328L199.373 118.19L133.426 73.4391L130.619 77.5764ZM196.422 122.223C196.682 122.427 197.212 123.111 197.893 124.453C198.522 125.695 199.136 127.199 199.68 128.69C200.221 130.171 200.678 131.591 200.999 132.643C201.16 133.168 201.286 133.599 201.371 133.896C201.414 134.045 201.446 134.16 201.468 134.237C201.478 134.275 201.486 134.304 201.491 134.323C201.494 134.332 201.496 134.339 201.497 134.343C201.498 134.345 201.498 134.346 201.498 134.347C201.498 134.347 201.498 134.348 201.498 134.348C201.498 134.348 201.498 134.348 201.498 134.348C201.498 134.347 201.498 134.347 203.91 133.69C206.322 133.032 206.322 133.032 206.322 133.032C206.322 133.031 206.322 133.031 206.322 133.031C206.322 133.03 206.321 133.029 206.321 133.028C206.321 133.026 206.32 133.024 206.319 133.02C206.317 133.014 206.315 133.005 206.311 132.993C206.305 132.969 206.295 132.935 206.283 132.891C206.259 132.804 206.223 132.677 206.177 132.517C206.085 132.196 205.951 131.738 205.781 131.182C205.442 130.074 204.958 128.564 204.377 126.974C203.799 125.393 203.108 123.683 202.352 122.191C201.647 120.801 200.708 119.234 199.517 118.295L196.422 122.223ZM197.717 142.781L207.215 149.251L210.03 145.118L200.532 138.649L197.717 142.781ZM209.533 149.513C211.425 148.773 213.246 147.861 214.451 146.191C215.688 144.477 215.973 142.404 215.907 140.088L210.909 140.231C210.964 142.151 210.674 142.881 210.397 143.265C210.088 143.692 209.456 144.175 207.713 144.856L209.533 149.513ZM214.815 138.093L205.318 131.624L202.503 135.756L212 142.226L214.815 138.093Z" fill="#3E3939"/>
<path d="M101.669 54.0792L67.4291 30.7554M81.7142 70.0874L53.9177 50.5908" stroke="#3E3939" stroke-width="5" stroke-linecap="round" stroke-linejoin="round"/>
<path d="M89.1768 83.6587L99.9209 90.9774M110.57 52.2527L121.314 59.5714" stroke="#3E3939" stroke-width="5" stroke-linecap="round" stroke-linejoin="round"/>
<path d="M121.506 68.1712C123.788 69.7259 122.613 75.4264 118.882 80.9038C115.151 86.3812 110.276 89.5612 107.994 88.0066" stroke="#3E3939" stroke-width="5"/>
<path d="M103.323 55.7858C105.149 57.0295 103.605 62.478 99.8735 67.9554C97.6572 71.209 95.1678 73.741 93.1292 74.9999" stroke="#3E3939" stroke-width="5" stroke-linecap="round"/>
<path d="M120.488 59.0082C124.139 61.4956 122.311 70.5425 116.403 79.215C110.496 87.8875 102.746 92.9016 99.0947 90.4142" stroke="#3E3939" stroke-width="5"/>
<path d="M88.3511 83.0957C86.2832 81.6871 85.9728 78.1749 87.1654 73.8183M100.677 53.983C104.294 51.2782 107.676 50.2811 109.744 51.6897C111.973 53.208 112.16 57.1705 110.624 62C109.643 65.0823 107.961 68.5178 105.659 71.8965C103.015 75.7793 100.001 78.9287 97.1503 81" stroke="#3E3939" stroke-width="5" stroke-linecap="round"/>
<path d="M67.4291 30.7556C61.9517 27.0245 54.4868 28.4401 50.7557 33.9175C47.0246 39.3949 48.4403 46.8598 53.9177 50.5909" stroke="#3E3939" stroke-width="5"/>
<path d="M104.389 87.9706L100.256 85.1558" stroke="#3E3939" stroke-width="3" stroke-linecap="round" stroke-linejoin="round"/>
<path d="M83 62.9999L59.7749 47.3206" stroke="#3E3939" stroke-width="3" stroke-linecap="round" stroke-linejoin="round"/>
<path d="M157.654 114.575L113.025 84.1738" stroke="#3E3939" stroke-width="3" stroke-linecap="round" stroke-linejoin="round"/>
<path d="M108.857 84.9642L104.725 82.1493" stroke="#3E3939" stroke-width="3" stroke-linecap="round" stroke-linejoin="round"/>
<path d="M113.624 79.742L109.492 76.9271" stroke="#3E3939" stroke-width="3" stroke-linecap="round" stroke-linejoin="round"/>
<path d="M120.152 64.8297L116.02 62.0148" stroke="#3E3939" stroke-width="3" stroke-linecap="round" stroke-linejoin="round"/>
<path d="M186 134.5L195.906 135.193" stroke="#3E3939" stroke-width="3" stroke-linecap="round" stroke-linejoin="round"/>
<path d="M221 173C221 177.418 217.418 181 213 181C208.582 181 205 177.418 205 173C205 168.582 213 157 213 157C213 157 221 168.582 221 173Z" stroke="#3E3939" stroke-width="5"/>
</svg>
