<svg width="290" height="290" viewBox="0 0 290 290" fill="none" xmlns="http://www.w3.org/2000/svg">
<g clip-path="url(#clip0)">
<path opacity="0.8" d="M191.596 251.386L163.748 246.663C155.441 246.972 147.036 248.918 138.635 248.924C132.26 248.928 125.897 249.077 119.522 249.075C116.76 249.075 112.784 247.352 110.158 248.555C107.235 249.894 108.41 257.795 109.053 260.036C110.963 266.679 117.886 271.491 123.618 274.174C127.983 276.217 133.2 276.485 137.892 277.281C145.544 278.579 153.233 278.984 160.945 279.819C169.508 280.745 178.3 281.13 186.923 281.098C194.549 281.069 203.192 280.927 210.306 277.59C218.065 273.951 223.586 262.029 214.354 256.962C207.43 253.162 199.214 252.678 191.596 251.386Z" fill="#C09271"/>
<ellipse opacity="0.7" cx="143" cy="188" rx="70" ry="79" fill="#E5B99C"/>
<ellipse opacity="0.3" cx="144.5" cy="164.5" rx="126.5" ry="73.5" fill="#E5B99C"/>
<ellipse cx="126.5" cy="179.5" rx="72.5" ry="56.5" fill="#E5C2AB"/>
<ellipse cx="147.5" cy="90" rx="29.5" ry="19" fill="#E5C2AB"/>
<ellipse cx="105" cy="168" rx="43" ry="36" fill="#F9E8DD"/>
<ellipse cx="91.5" cy="156.5" rx="29.5" ry="24.5" fill="white"/>
<ellipse cx="174.947" cy="131.708" rx="23.7685" ry="5.5" transform="rotate(24.0458 174.947 131.708)" fill="white"/>
<ellipse cx="154.024" cy="77.7359" rx="23.7685" ry="5.5" transform="rotate(2.99873 154.024 77.7359)" fill="white"/>
<path opacity="0.7" d="M214.973 200.723C187.88 220.468 128.415 210.822 69 197L70 200.723C81.4077 248.606 150.805 249.1 179.799 247.619C208.794 246.138 242.066 180.977 214.973 200.723Z" fill="#AE7A55"/>
<path opacity="0.7" d="M169.401 95.8249C159.675 105.504 138.329 100.775 117 94L117.359 95.8249C121.454 119.297 146.366 119.539 156.774 118.813C167.182 118.087 179.126 86.1457 169.401 95.8249Z" fill="#AE7A55"/>
<g style="mix-blend-mode:multiply">
<path d="M94.8048 235.636C92.6229 234 90.6893 232.27 88.8175 230.295C87.5107 229.616 87.3568 227.969 87.4315 226.625C87.5432 224.615 90.9967 225.677 91.9059 226.057C94.6006 227.185 96.9933 229.26 99.4997 230.752C103.716 233.263 108.189 234.27 113.017 235.006C130.997 237.749 149.21 238.688 167.372 239.386C170.508 239.507 173.501 240.047 176.604 240.394C179.587 240.728 182.542 240.825 185.505 241.371C185.923 241.448 190.857 242.309 189.932 243.498C188.003 245.979 184.789 247.028 183.221 249.879C182.024 252.055 180.434 253.885 179.377 256.118C178.688 257.572 179.255 259.578 177.47 260.371C175.906 261.067 174.661 262.545 173.374 263.617C172.08 264.695 170.631 265.51 169.246 266.469C167.474 267.696 165.185 268.166 163.181 268.863C161 269.622 158.582 270.265 156.312 270.707C153.878 271.18 151.388 271.026 148.954 271.431C147.099 271.74 145.778 272.282 143.85 272.282C142.036 272.282 139.801 272.619 138.036 272.125C136.015 271.559 133.977 271.108 131.955 270.518C128.553 269.524 125.009 267.794 121.525 267.241C119.325 266.891 118.05 266.347 116.137 265.129C114.04 263.795 112.88 260.447 111.662 258.386C110.253 256.001 109.085 253.083 108.716 250.32C108.581 249.309 108.547 248.115 108.133 247.185C107.647 246.091 106.459 245.408 105.739 244.491C104.429 242.824 102.012 241.652 100.335 240.347C98.4186 238.857 96.7599 237.103 94.8048 235.636Z" fill="#A57655"/>
</g>
<g style="mix-blend-mode:multiply">
<path d="M124 98.5C129 102 142 101 152.5 101C163 101 169.5 97.5 173 95C176.5 92.5 175.5 89 176 84C176.5 79 172 72.5 145 72.5C139 72.5 125.7 73.4 120.5 77M162 104.5C161.5 110 161 116 167 119C173 122 183 121 201.5 135M219.5 154C222.833 158.5 228.3 171.8 223.5 189C223 190.791 222.528 192.454 222.08 194M211.5 219C213.8 215.838 215.439 213.502 217.557 208M206 227C204.667 228.333 201.6 231.6 200 234M185.5 246.5L181 250C181.5 251.833 181.6 256.5 178 260.5C173.5 265.5 169.5 269 158 271C146.5 273 134 273.5 122 267.5C112.489 262.744 111.144 256.418 110 251.758M85.5 227C91 235 105 244.5 109 248.5C109.415 249.433 109.701 250.539 110 251.758M71 205C68.3333 201 63 189.6 63 176C63 159 69 153.5 74.5 146.5C78.9 140.9 89.8333 133.5 94.5 130.5M94.5 130.5C94.5 134.9 94 136.667 94 137M94.5 130.5C94.1667 126.333 93.6 106.4 94 100C94.5 92 98.5 87 103 85.5C107.5 84 112 83.5 115.5 84.5M115.5 84.5C115.167 85.6667 114.8 88.5 116 90.5C117.2 92.5 120.167 95.6667 121.5 97C123.667 99.5 128 106.2 128 113M115.5 84.5C115.5 84.0401 115.622 83.2045 116 82.279M117.5 80C116.783 80.717 116.307 81.5276 116 82.279M101 142C102.536 140.336 105.075 136.155 105.626 130.5M128 113C124.5 107.667 115.8 97.6 109 100C101.037 102.81 103.606 113.081 105.195 123M128 113C127.667 115 126.6 119 125 119C123 119 117 125 110 123.5C104.4 122.3 104.463 122.667 105.195 123M105.195 123C105.302 123.669 105.405 124.337 105.5 125C105.778 126.949 105.793 128.792 105.626 130.5M80 198C112 210 141.5 215.5 173 211C198.2 207.4 216.22 198.167 222.08 194M222.08 194C220.244 200.343 218.816 204.731 217.557 208M217.557 208C212.205 212.167 196.1 221.3 174.5 224.5C152.9 227.7 125.833 224.833 115 223M110 251.758C114.833 255.672 128.3 263.5 143.5 263.5M155 111.5C155 119 159 122.5 163.5 125M116 82.279C117.5 86.5 127 90.5 143.5 90.5C156.7 90.5 162.333 89.8333 163.5 89.5M158 80C163 81 161 83 151 83.5C141 84 128 83 132.5 79.5M76 157C76.3333 156.167 77.5 154.6 79.5 155M109 159C107.5 161.5 109 163.5 110 163.5M105.626 130.5C108.418 131.333 117 130.9 125 126.5M116.5 178C120 175.5 121.5 176 122.5 178C123.5 180 120 176 120 171M92.5 181C96 178 93.5 172 92 180M91 147.5C92 147.5 94.2 147.1 95 145.5M89.5 166C88.3333 166.5 85.9 167.9 85.5 169.5C85 171.5 87.5 164 85.5 161.5C83.9 159.5 86.8333 159.667 88.5 160M124.5 151.5C124 147.5 124 147.5 121.5 147.5C119 147.5 121.5 144 124.5 144.5C127.5 145 122.5 148.5 128.5 147.5" stroke="#3E3939" stroke-width="5" stroke-linecap="round" stroke-linejoin="round"/>
</g>
</g>
<defs>
<clipPath id="clip0">
<rect width="290" height="290" fill="white"/>
</clipPath>
</defs>
</svg>
