<svg width="290" height="290" viewBox="0 0 290 290" fill="none" xmlns="http://www.w3.org/2000/svg">
<g clip-path="url(#clip0)">
<path opacity="0.5" d="M162.774 254.445C146.498 256.172 136.281 262.606 119.732 262.606C116.138 268.388 114.606 275.562 121.687 279.16C131.608 284.201 144.331 285.315 154.948 286.971C171.888 289.614 188.449 289.886 205.6 289.886C215.951 289.886 226.611 290.619 236.795 288.37C247.635 285.977 260.797 286.56 269.838 278.869C289.33 262.289 247.965 252.114 239.186 252.114C224.883 252.114 210.317 251.321 196.035 252.172C190.221 252.518 184.466 254.111 178.643 254.212C173.367 254.303 168.032 253.887 162.774 254.445Z" fill="#4B4155"/>
<ellipse opacity="0.3" cx="146.052" cy="183.778" rx="112.052" ry="66.2222" fill="#8C8394"/>
<path d="M97.5082 142.454C92.8879 140.227 87.9199 137.559 83.8009 134.5C79.5711 136.614 80.3612 141.33 80.3612 146.487V146.498C80.3612 152.711 80.3612 162.034 84.704 167.042C88.8493 171.823 92.8059 178.377 98.5168 181.381C101.814 183.115 106.088 184.405 109.808 184.405C111.79 184.405 114.699 185.02 116.42 183.873C118.351 182.587 117.919 177.02 118.297 174.94C118.762 172.389 119.257 169.763 119.951 167.266C121.518 161.624 120.718 155.607 118.69 150.239C118.199 148.941 117.156 145.59 115.412 145.59C113.033 145.59 110.442 145.917 108.127 145.338C104.585 144.453 100.876 144.077 97.5082 142.454Z" fill="#8C8394"/>
<path d="M106.718 191.509C100.708 188.63 94.5594 185.181 89.2885 180.587C87.3476 179.429 89.005 181.973 87.7707 183.55C85.4282 186.543 85.9319 190.035 86.4661 194.007C87.1914 199.401 87.8811 205.35 90.1279 210.29C92.2844 215.031 94.7727 219.23 97.1992 223.774C99.0189 227.182 102.475 230.16 105.29 232.328C108.055 234.457 111.611 234.614 114.474 236.5C118.907 239.42 124.319 240.19 128.971 242.466C132.767 244.324 136.352 244.348 139.392 241.066C141.946 238.309 139.216 231.541 138.568 228.164C137.328 221.699 135.714 215.207 134.713 208.703C134.4 206.671 133.603 200.511 131.557 199.486C129.606 198.508 127.64 198.66 125.686 197.878C122.173 196.473 118.602 196.644 114.955 195.586C112.32 194.822 109.295 192.744 106.718 191.509Z" fill="#8C8394"/>
<path d="M122.699 125.643C111.417 123.656 102.383 115.612 92.0098 111.333C88.086 113.312 89.4474 129.12 90.6519 132.764C93.4455 141.215 100.183 143.359 108.509 145.225C111.004 145.784 113.321 146.955 115.842 147.553C119.16 148.34 122.637 148.306 126.026 148.306C138.457 148.306 150.855 147.073 163.267 147.073C168.464 147.073 174.208 146.701 179.325 145.841C188.22 144.346 199.154 142.758 207.027 137.83C210.016 135.959 214.186 134.377 215.921 131.052C217.978 127.111 218.43 123.388 217.856 118.762C217.522 116.063 216.179 111.761 213.002 111.949C211.411 112.044 209.576 114.062 207.841 114.38C205.988 114.72 204.095 115.91 202.274 116.571C196.856 118.538 191.921 120.097 186.42 121.535C179.511 123.341 173.552 125.7 166.56 126.875C158.456 128.238 150.98 128.587 142.729 128.587C136.166 128.587 129.156 126.78 122.699 125.643Z" fill="#6D4E4F"/>
<path d="M113.589 176.29C101.811 173.946 92.7466 167.878 82.0573 164.13C77.8102 165.048 78.3501 175.442 79.4131 177.921C81.8788 183.671 88.8576 185.693 97.5259 187.682C100.124 188.278 102.499 189.255 105.122 189.879C108.575 190.7 112.24 191.003 115.812 191.319C128.697 195.379 142.255 197.923 155.06 196.238C160.537 196.724 166.679 194.777 172.12 194.697C181.579 194.557 193.191 194.546 201.766 192.082C205.022 191.146 209.506 190.507 211.523 188.51C213.914 186.143 216.379 174.878 216.037 171.82C215.837 170.036 214.666 167.117 211.306 166.942C209.625 166.855 207.577 167.994 205.731 168.039C203.759 168.086 201.696 168.683 199.74 168.942C193.919 169.713 186.851 179.154 180.973 179.574C173.589 180.102 167.176 181.077 159.741 181.187C151.124 181.315 143.226 180.844 134.53 180.073C127.614 179.46 120.329 177.632 113.589 176.29Z" fill="#6D4E4F"/>
<path d="M120.619 243.513C112.006 241.625 105.425 236.487 97.6261 233.373C94.4999 234.216 94.7768 243.191 95.5283 245.321C97.2712 250.261 102.368 251.926 108.704 253.544C110.603 254.029 112.335 254.845 114.252 255.354C116.775 256.023 119.461 256.242 122.078 256.474C131.484 259.831 141.401 261.872 150.815 260.267C154.827 260.623 159.355 258.869 163.348 258.736C170.289 258.505 178.808 258.361 185.127 256.131C187.526 255.284 190.824 254.68 192.326 252.931C194.107 250.858 194.638 248.797 194.422 246.158C194.296 244.619 193.47 242.11 191.008 241.998C189.775 241.942 188.26 242.951 186.905 243.011C185.457 243.075 183.937 243.614 182.499 243.861C178.22 244.595 174.333 245.133 170.016 245.565C164.593 246.107 159.877 247.025 154.422 247.207C148.098 247.417 142.309 247.102 135.939 246.538C130.872 246.089 125.548 244.594 120.619 243.513Z" fill="#6D4E4F"/>
<path d="M117.739 233.487C115.869 221.081 117.106 208.462 117.106 195.915C117.937 194.164 117.654 194.899 119.515 194.829C124.273 194.651 130.185 193.955 134.64 195.644C141.085 198.086 149.22 197.327 155.942 196.7L155.953 196.699C162.763 196.064 169.351 195.154 175.804 192.658C180.572 190.815 184.99 187.99 189.525 185.602C194.144 183.172 198.216 180.717 203.447 180.717C205.225 180.717 206.442 180.268 207.286 182.044C208.997 185.648 208.158 190.734 207.572 194.588C206.558 201.259 205.187 207.979 203.447 214.49C201.864 220.413 200.64 228.471 197.231 233.577C194.121 238.237 189.943 242.174 184.398 242.563C179.022 242.94 174.216 244.813 168.901 245.729C163.08 246.732 157.155 247.034 151.369 248.141C146.341 249.104 141.485 249.534 136.416 248.563C131.792 247.678 125.49 246.646 121.549 243.95C118.456 241.834 118.247 236.852 117.739 233.487Z" fill="#5F5369"/>
<path d="M117.941 171.66C117.941 163.685 117.539 155.622 118.486 147.698C119.68 144.117 123.175 147.45 126.114 148.121C130.384 149.097 134.802 148.787 139.19 148.787C148.341 148.787 157.441 148.917 166.553 148.242C171.366 147.886 176.417 147.175 181.022 145.64C185.063 144.294 189.419 143.045 193.13 140.921C196.482 139.001 199.483 136.356 202.695 134.204C206.09 131.929 214.312 130.38 215.892 135.293C217.926 141.619 217.103 148.99 217.103 155.534C217.103 161.898 215.18 164.167 210.565 167.727C207.476 170.108 206.032 174.039 202.089 175.472C196.973 177.331 191.353 177.621 186.319 179.556C184.171 180.382 180.584 178.86 178.843 180.252C178.178 180.784 175.475 181.269 174.605 181.462C172.031 182.034 169.194 182.552 166.553 182.552C163.036 182.552 159.836 183.641 156.383 183.641C145.31 183.641 134.505 184.928 123.511 182.431C117.67 181.104 117.941 176.606 117.941 171.66Z" fill="#5F5369"/>
<ellipse rx="59.1384" ry="15.5556" transform="matrix(0.999733 0.0230929 -0.0231142 0.999733 144.718 104.667)" fill="#E1DFEA"/>
<path d="M110.239 247.841C107.043 246.671 103.211 244.449 99.8081 244.222C99.8081 251.535 105 260.385 109.259 265.803C111.766 268.992 114.237 271.613 117.434 274.099C120.697 276.636 124.578 276.961 128.511 277.783C131.412 278.39 134.438 278.63 137.292 279.386C139.584 279.992 141.929 280.808 144.291 281.077C148.166 281.518 152.041 280.702 155.654 279.368C158.968 278.144 162.826 278.211 166.019 276.733C169.894 274.94 173.017 272.956 176.1 269.933C178.614 267.467 180.365 264.589 183.188 262.385C185.797 260.347 189.178 258.147 190.668 255.033C191.605 253.074 193.307 249.963 191.327 247.983C189.574 246.232 184.441 247.181 182.369 247.681C179.482 248.377 176.736 249.615 173.82 250.209C168.769 251.237 163.764 252.511 158.717 253.52C151.563 254.95 144.013 255.452 136.74 254.623C133.936 254.304 131.312 253.272 128.494 252.95C125.801 252.642 123.23 251.847 120.639 251.099C117.125 250.084 113.692 249.105 110.239 247.841Z" fill="#54495E"/>
<path opacity="0.2" d="M202.158 118.51C192.301 119.465 186.297 123.747 182.042 132.587C181.372 133.887 180.594 133.346 179.804 134.758C179 136.194 177.966 137.758 177.596 139.37C176.564 143.873 176.446 149.245 176.446 153.87C176.446 169.765 175.327 185.654 175.327 201.498C175.327 208.254 176.312 215.703 175.047 222.328C173.464 230.616 171.517 237.885 167.616 245.449C165.391 249.764 162.338 255.334 161.461 260.1C160.889 263.201 161.336 266.691 161.336 269.836C161.336 275.492 167.1 275.808 171.409 273.665C178.704 270.038 184.307 264.374 187.328 256.844C189.737 250.838 194.159 246.156 196.033 239.842C198.832 230.415 203.937 221.917 208.314 213.164C212.316 205.162 214.121 195.638 214.936 186.848C216.75 167.277 217.394 147.336 212.822 128.126C211.481 122.49 209.127 117.834 202.158 118.51Z" fill="#292130"/>
<path d="M110.278 91.0215C102.656 93.1643 95.9278 96.3161 88.8823 99.8897C86.6859 100.622 86.5762 102.595 86.5762 104.756C86.5762 106.341 87.1408 108.366 89.0425 108.518C93.7946 108.898 98.7719 105.953 102.655 103.571C107.223 100.77 113.369 99.0286 118.686 98.1609C121.88 97.6398 125.172 96.6764 128.311 95.8558C130.745 95.2195 133.328 95.507 135.742 94.8313C136.897 94.5081 140.856 93.2121 141.315 91.95C141.662 90.9976 141.504 89.0587 140.771 88.3643C137.602 85.3639 132.198 86.3473 128.231 86.3473C122.009 86.3473 116.19 89.3595 110.278 91.0215Z" fill="#6D4E4F"/>
<path d="M100.242 126.833C98.066 121.548 92.14 117.593 87.194 114.889C87.194 116.273 87.4196 119.14 86.8427 120.434C86.1943 121.889 86.4182 123.378 86.0648 124.913C84.0323 133.744 83.5806 143.685 83.5806 152.665C83.5806 167.348 80.5605 182.12 82.9282 196.815C84.0189 203.584 85.6688 209.959 87.3804 216.572L87.3948 216.627C88.3256 220.223 88.157 224.075 89.4524 227.552C90.2953 229.815 92.8057 231.767 95.4245 231.249C99.8064 230.383 99.3892 225.126 99.3892 221.959C99.3892 213.266 96.983 204.933 97.6829 196.175C98.8718 181.297 98.0168 166.408 99.5899 151.551C100.379 144.097 103.252 134.143 100.242 126.833Z" fill="white"/>
<path d="M213.194 178C213.194 208.667 200.299 233.111 196.742 239.333C193.185 245.556 191.851 254 190.517 258C189.183 262 175.399 281.111 147.386 281.111C137.425 281.111 130.192 279.63 127.821 278.889M206.524 182C202.019 185.603 190.899 191.639 174.509 195.177M93.1386 183.778C95.4742 185.563 98.9137 187.603 103.365 189.57M112.258 89.1111C99.808 90.8889 92.7243 94.577 88.8471 99.7778M198.965 175.333C189.627 179.778 173.175 184.667 148.719 184.667C136.878 184.667 126.287 183.52 117.149 181.632M99.808 143.333C118.928 149.111 132.712 150 158.057 150C183.402 150 200.743 139.778 206.524 137.111C212.305 134.444 211.415 130.889 211.415 129.111C211.415 127.689 211.119 124.963 210.97 123.778C210.97 121.407 210.97 114.978 210.97 108.222C210.97 99.7778 202.522 96.2222 189.182 91.7778M85.8202 120.222C85.9481 117.196 86.0242 113.947 86.0242 110.444C86.0242 105.661 86.9703 102.295 88.8471 99.7778M85.8202 120.222C85.4124 129.867 84.4778 137.244 83.8009 143.333C82.9116 151.333 81.133 167.333 93.1386 173.556C96.3471 175.218 100.064 176.786 104.254 178.191M85.8202 120.222C85.7152 122.444 90.0257 130.889 102.92 133.556C115.815 136.222 140.271 138.889 152.721 138.889M88.8471 99.7778C86.5267 105.111 92.6936 113.111 109.59 116.667C126.487 120.222 150.053 122 169.618 120.222M99.808 103.778C112.258 97.1111 122.93 94.8889 148.719 94.8889C174.509 94.8889 202.522 102.444 202.522 110.444M120.262 87.7778C123.523 87.1852 132.89 86 140.716 86C147.83 86 163.541 87.1852 170.507 87.7778M82.022 175.333C83.4888 198.054 88.2806 213.825 95.1516 233.111M120.262 275.778C117.386 274.743 111.154 269.8 105.016 258M95.1516 233.111C96.1753 235.985 97.2452 238.936 98.3571 242M95.1516 233.111C98.7995 235.81 102.594 238.127 106.478 240.097M98.3571 242C98.8331 243.312 99.3168 244.644 99.808 246C101.481 250.618 103.244 254.595 105.016 258M98.3571 242C107.367 249.556 123.374 255.778 140.716 255.778M116.705 194.186C116.26 201.383 116.438 217.733 117.149 225.556C117.861 233.378 118.335 241.812 118.483 245.051M116.705 194.186C111.577 192.829 107.113 191.225 103.365 189.57M116.705 194.186C122.076 195.606 128.173 196.756 134.935 197.409M118.483 245.051C128.223 248.224 130.311 249.556 147.386 249.556C164.46 249.556 177.77 244.519 185.181 242M118.483 245.051C114.431 243.731 110.409 242.092 106.478 240.097M103.365 189.57C102.476 210 103.365 218.444 104.254 226.889C104.966 233.644 106.033 238.509 106.478 240.097M117.149 181.632L118.483 163.333M117.149 181.632C112.459 180.662 108.152 179.497 104.254 178.191M104.254 178.191L105.144 165.111M134.935 197.409C138.865 197.788 143.02 198 147.386 198C157.544 198 166.635 196.877 174.509 195.177M134.935 197.409C134.491 204.272 134.491 219.778 134.935 230.889M174.509 195.177C174.509 200.859 174.153 215.956 172.73 230.889M212.304 142.444C212.304 154.178 212.897 163.63 213.194 166.889M105.016 258C118.483 267.333 126.932 272.667 147.386 272.667C163.749 272.667 178.214 265.259 183.402 261.556" stroke="black" stroke-width="5" stroke-linecap="round" stroke-linejoin="round"/>
<path d="M193.931 198.407C193.407 197.585 192.598 197.714 191.893 197.647C191.402 197.697 190.47 199.479 190.044 200.089C189.552 200.793 189.038 202.925 188.905 203.909C188.547 206.565 188.583 209.109 188.925 211.633C189.202 213.676 189.684 215.893 191.107 216.063C192.089 216.18 193 215.374 193.613 214.026C194.323 212.46 194.35 210.39 194.521 208.608C194.744 206.284 194.866 204.206 194.745 201.91C194.679 200.647 194.484 199.273 193.931 198.407Z" fill="white"/>
<path d="M192.386 214.27C189.108 217.395 188.069 212.709 188.723 205.892C189.378 199.075 194.35 193.819 193.64 201.204" stroke="black" stroke-width="5" stroke-linecap="round" stroke-linejoin="round"/>
<circle cx="238.5" cy="94.5" r="53.5" fill="#F6FDFF"/>
<path fill-rule="evenodd" clip-rule="evenodd" d="M263.581 69C267.888 73.1331 271.556 77.4892 272.819 81.9312C252.67 97.6251 248.775 101.243 235.65 116.27C235.201 116.812 234.71 117.373 234.171 117.966C234.024 118.136 233.875 118.307 233.725 118.48C233.719 118.477 233.713 118.475 233.708 118.472C233.469 118.731 233.221 118.996 232.964 119.268C220.865 111.274 219.395 109.238 216.111 104.69C214.081 101.878 211.357 98.1065 205 91.3732C207.509 88.298 209.183 86.7804 213.099 84.7682C220.27 92.5696 221.858 94.6451 223.793 96.3209C225.222 97.559 226.841 98.5789 231.04 101.529C232.491 99.7883 233.854 98.1261 235.167 96.5252C243.511 86.354 249.827 78.6541 263.581 69Z" fill="#108DBB"/>
</g>
<defs>
<clipPath id="clip0">
<rect width="290" height="290" fill="white"/>
</clipPath>
</defs>
</svg>
