<svg width="290" height="290" viewBox="0 0 290 290" fill="none" xmlns="http://www.w3.org/2000/svg">
<g clip-path="url(#clip0)">
<path opacity="0.8" d="M191.596 221.386L163.748 216.663C155.441 216.972 147.036 218.918 138.635 218.924C132.26 218.928 125.897 219.077 119.522 219.075C116.76 219.075 112.784 217.352 110.158 218.555C107.235 219.894 108.41 227.795 109.053 230.036C110.963 236.679 117.886 241.491 123.618 244.174C127.983 246.217 133.2 246.485 137.892 247.281C145.544 248.579 153.233 248.984 160.945 249.819C169.508 250.745 178.3 251.13 186.923 251.098C194.549 251.069 203.192 250.927 210.306 247.59C218.065 243.951 223.586 232.029 214.354 226.962C207.43 223.162 199.214 222.678 191.596 221.386Z" fill="#C09271"/>
<ellipse opacity="0.7" cx="143" cy="158" rx="70" ry="79" fill="#E5B99C"/>
<ellipse opacity="0.3" cx="144.5" cy="134.5" rx="126.5" ry="73.5" fill="#E5B99C"/>
<ellipse cx="126.5" cy="149.5" rx="72.5" ry="56.5" fill="#E5C2AB"/>
<ellipse cx="147.5" cy="60" rx="29.5" ry="19" fill="#E5C2AB"/>
<ellipse cx="105" cy="138" rx="43" ry="36" fill="#F9E8DD"/>
<ellipse cx="91.5" cy="126.5" rx="29.5" ry="24.5" fill="white"/>
<ellipse cx="174.947" cy="101.708" rx="23.7685" ry="5.5" transform="rotate(24.0458 174.947 101.708)" fill="white"/>
<ellipse cx="154.024" cy="47.7359" rx="23.7685" ry="5.5" transform="rotate(2.99873 154.024 47.7359)" fill="white"/>
<path opacity="0.7" d="M214.973 170.723C187.88 190.468 128.415 180.822 69 167L70 170.723C81.4077 218.606 150.805 219.1 179.799 217.619C208.794 216.138 242.066 150.977 214.973 170.723Z" fill="#AE7A55"/>
<path opacity="0.7" d="M169.401 65.8249C159.675 75.5041 138.329 70.7754 117 64L117.359 65.8249C121.454 89.297 146.366 89.539 156.774 88.813C167.182 88.0871 179.126 56.1457 169.401 65.8249Z" fill="#AE7A55"/>
<g style="mix-blend-mode:multiply">
<path d="M94.8048 205.636C92.6229 204 90.6893 202.27 88.8175 200.295C87.5107 199.616 87.3568 197.969 87.4315 196.625C87.5432 194.615 90.9967 195.677 91.9059 196.057C94.6006 197.185 96.9933 199.26 99.4997 200.752C103.716 203.263 108.189 204.27 113.017 205.006C130.997 207.749 149.21 208.688 167.372 209.386C170.508 209.507 173.501 210.047 176.604 210.394C179.587 210.728 182.542 210.825 185.505 211.371C185.923 211.448 190.857 212.309 189.932 213.498C188.003 215.979 184.789 217.028 183.221 219.879C182.024 222.055 180.434 223.885 179.377 226.118C178.688 227.572 179.255 229.578 177.47 230.371C175.906 231.067 174.661 232.545 173.374 233.617C172.08 234.695 170.631 235.51 169.246 236.469C167.474 237.696 165.185 238.166 163.181 238.863C161 239.622 158.582 240.265 156.312 240.707C153.878 241.18 151.388 241.026 148.954 241.431C147.099 241.74 145.778 242.282 143.85 242.282C142.036 242.282 139.801 242.619 138.036 242.125C136.015 241.559 133.977 241.108 131.955 240.518C128.553 239.524 125.009 237.794 121.525 237.241C119.325 236.891 118.05 236.347 116.137 235.129C114.04 233.795 112.88 230.447 111.662 228.386C110.253 226.001 109.085 223.083 108.716 220.32C108.581 219.309 108.547 218.115 108.133 217.185C107.647 216.091 106.459 215.408 105.739 214.491C104.429 212.824 102.012 211.652 100.335 210.347C98.4186 208.857 96.7599 207.103 94.8048 205.636Z" fill="#A57655"/>
</g>
<g style="mix-blend-mode:multiply">
<path d="M124 68.5C129 72 142 71 152.5 71C163 71 169.5 67.5 173 65C176.5 62.5 175.5 59 176 54C176.5 49 172 42.5 145 42.5C139 42.5 125.7 43.4 120.5 47M162 74.5C161.5 80 161 86 167 89C173 92 183 91 201.5 105M219.5 124C222.833 128.5 228.3 141.8 223.5 159C223 160.791 222.528 162.454 222.08 164M211.5 189C213.8 185.838 215.439 183.502 217.557 178M206 197C204.667 198.333 201.6 201.6 200 204M185.5 216.5L181 220C181.5 221.833 181.6 226.5 178 230.5C173.5 235.5 169.5 239 158 241C146.5 243 134 243.5 122 237.5C112.489 232.744 111.144 226.418 110 221.758M85.5 197C91 205 105 214.5 109 218.5C109.415 219.433 109.701 220.539 110 221.758M71 175C68.3333 171 63 159.6 63 146C63 129 69 123.5 74.5 116.5C78.9 110.9 89.8333 103.5 94.5 100.5M94.5 100.5C94.5 104.9 94 106.667 94 107M94.5 100.5C94.1667 96.3333 93.6 76.4 94 70C94.5 62 98.5 57 103 55.5C107.5 54 112 53.5 115.5 54.5M115.5 54.5C115.167 55.6667 114.8 58.5 116 60.5C117.2 62.5 120.167 65.6667 121.5 67C123.667 69.5 128 76.2 128 83M115.5 54.5C115.5 54.0401 115.622 53.2045 116 52.279M117.5 50C116.783 50.717 116.307 51.5276 116 52.279M101 112C102.536 110.336 105.075 106.155 105.626 100.5M128 83C124.5 77.6667 115.8 67.6 109 70C101.037 72.8104 103.606 83.0806 105.195 93M128 83C127.667 85 126.6 89 125 89C123 89 117 95 110 93.5C104.4 92.3 104.463 92.6667 105.195 93M105.195 93C105.302 93.6691 105.405 94.3365 105.5 95C105.778 96.9488 105.793 98.7917 105.626 100.5M80 168C112 180 141.5 185.5 173 181C198.2 177.4 216.22 168.167 222.08 164M222.08 164C220.244 170.343 218.816 174.731 217.557 178M217.557 178C212.205 182.167 196.1 191.3 174.5 194.5C152.9 197.7 125.833 194.833 115 193M110 221.758C114.833 225.672 128.3 233.5 143.5 233.5M155 81.5C155 89 159 92.5 163.5 95M116 52.279C117.5 56.5 127 60.5 143.5 60.5C156.7 60.5 162.333 59.8333 163.5 59.5M158 50C163 51 161 53 151 53.5C141 54 128 53 132.5 49.5M76 127C76.3333 126.167 77.5 124.6 79.5 125M109 129C107.5 131.5 109 133.5 110 133.5M105.626 100.5C108.418 101.333 117 100.9 125 96.5M116.5 148C120 145.5 121.5 146 122.5 148C123.5 150 120 146 120 141M92.5 151C96 148 93.5 142 92 150M91 117.5C92 117.5 94.2 117.1 95 115.5M89.5 136C88.3333 136.5 85.9 137.9 85.5 139.5C85 141.5 87.5 134 85.5 131.5C83.9 129.5 86.8333 129.667 88.5 130M124.5 121.5C124 117.5 124 117.5 121.5 117.5C119 117.5 121.5 114 124.5 114.5C127.5 115 122.5 118.5 128.5 117.5" stroke="#3E3939" stroke-width="5" stroke-linecap="round" stroke-linejoin="round"/>
</g>
<circle cx="245.5" cy="94.5" r="53.5" fill="white"/>
<path fill-rule="evenodd" clip-rule="evenodd" d="M263.059 122.88C267.155 118.537 268.923 116.063 270 111.525C262.213 105.801 256.174 100.943 250.915 96.2886C256.142 91.3437 261.56 86.6875 268.078 81.0865C268.68 80.5686 269.292 80.0426 269.915 79.5075C268.1 75.4627 266.675 73.7041 263.748 71.0329C258.31 75.8381 253.067 80.0305 248.025 84.0632C246.175 85.5424 244.353 87.0002 242.557 88.4589C237.439 83.3948 232.598 78.1253 226.775 71.786C226.236 71.2001 225.69 70.6049 225.134 70C221.218 72.0122 219.544 73.5298 217.035 76.605C222.022 81.8873 226.396 86.9981 230.603 91.9142C231.714 93.2128 232.813 94.4977 233.91 95.7687C227.558 101.435 221.585 107.622 216 115.485C220.109 119.816 222.475 121.711 226.909 123C232.659 115.704 237.551 109.993 242.2 105.035C248.242 111.436 254.776 117.407 263.059 122.88Z" fill="#FFBCBC"/>
</g>
<defs>
<clipPath id="clip0">
<rect width="290" height="290" fill="white"/>
</clipPath>
</defs>
</svg>
