<svg width="254" height="373" viewBox="0 0 254 373" fill="none" xmlns="http://www.w3.org/2000/svg">
<g clip-path="url(#clip0)">
<ellipse cx="126.5" cy="196.5" rx="111.5" ry="89.5" fill="#EBDAD4"/>
<path d="M126.985 27.5001C137.636 21.1097 151.867 17.4698 159.5 8C162.26 8 166.841 4.6982 169.33 3.4536C172.456 1.89046 175.776 0.874144 179.23 0.26017C185.147 -0.791811 190.896 -1.0172 196.921 -1.0172C208.289 -1.0172 219.921 -1.84385 231.155 0.132433C237.566 1.26036 244.437 6.18377 244.631 13.3532C244.726 16.8411 242.01 16.4716 239.713 18.5266C236.544 21.3626 231.781 24.5176 227.706 25.9992C222.591 27.8593 218.735 32.9266 215.028 36.6333C211.968 39.6939 210.104 42.7873 207.843 46.2456C205.631 49.6287 203.77 53.1217 201.52 56.4645C199.526 59.4273 198.867 63.0013 196.347 65.6616C194.595 67.5106 193.056 69.1612 191.173 70.835C189.831 72.0279 187.728 72.2927 186.255 73.1342C183.843 74.5128 180.863 75.5292 178.24 76.3277C176.043 76.9964 172.481 76.5457 173.386 79.7127C174.117 82.273 181.345 83.0958 181.401 84.0558C181.611 87.6177 180.942 91.4124 178.527 93.8276C175.766 96.5888 174.311 99.2898 172.779 102.737C169.295 110.576 157.39 109.738 150.361 109.348C148.733 109.257 147.231 107.254 145.763 106.601C143.996 105.816 141.101 108.128 139.887 109.22C136.625 112.156 136.566 118.578 136.566 122.824C136.566 124.772 137.14 126.443 137.14 128.317C137.14 130.555 138.865 132.714 138.865 134.927V145.274C138.865 150.815 131.239 144.412 128.263 144.412C124.584 144.412 122.484 142.112 118.746 142.112C116.942 142.112 115.445 142.791 113.573 142.687C112.129 142.607 107.846 139.893 107.122 138.663C105.025 135.098 103.226 131.677 103.226 127.486C103.226 120.985 101.12 115.82 99.7454 109.635C99.4736 108.412 98.345 107.077 97.9251 105.771C97.6184 104.817 97.6646 103.59 97.1906 102.737C96.2857 101.108 96.969 98.0314 96.9032 96.2547C96.7498 92.1133 94.6039 87.9896 94.6039 83.928C94.6039 79.7618 94.5378 75.0306 96.041 71.1224C96.9069 68.8711 96.1019 66.0135 96.6158 63.6497C97.1408 61.2348 96.9032 58.6412 96.9032 56.1771C96.9032 52.7094 98.0261 47.4235 100.352 44.9682C103.706 41.428 107.881 39.1636 111.274 35.7711C113.283 33.7619 116.806 32.5984 119.449 31.6196C121.992 30.6778 124.688 28.8788 126.985 27.5001Z" fill="white"/>
<path d="M109.787 118.845C107.273 123.873 108.597 131.489 108.597 136.78C110.442 141.922 114.336 142.912 114.507 136.965C114.507 133.093 115.984 129.24 115.984 125.329C115.984 123.422 116.723 121.724 116.723 119.871V113.715C116.723 109.78 115.984 105.922 115.984 102.059C115.984 100.3 115.397 97.3694 116.066 95.7796C116.637 94.4234 117.092 92.2876 117.092 90.7931C117.092 88.3321 116.019 84.0672 118.754 82.8516C122.252 81.2969 121.525 77.2538 121.525 74.1714C121.525 71.9945 120.786 69.967 120.786 67.7895C120.786 66.3702 120.851 64.9339 120.704 63.5212C120.654 63.0391 120.464 60.504 120.232 60.6894C119.579 61.2117 118.088 63.3896 117.851 64.2189C117.421 65.726 115.792 66.649 115.163 68.1589C114.205 70.459 112.514 72.9297 110.813 74.7255C110.237 75.3334 108.058 77.2284 108.412 77.8651C108.903 78.75 108.597 80.3742 108.597 81.3742V90.6084C108.597 92.2737 108.414 93.8459 107.653 95.3692C106.993 96.6892 107.119 97.8881 107.119 99.4734C107.119 101.178 108.23 103.088 108.617 104.829C109.009 106.593 110.254 108.39 110.443 110.185C110.776 113.349 111.235 115.948 109.787 118.845Z" fill="#F3DDC8"/>
<path d="M124.643 138.187C123.944 140.547 122.556 141.495 120.273 142.854C121.168 142.854 122.174 144.936 122.951 145.367C123.575 145.714 124.347 145.364 125.004 145.663C125.576 145.923 126.271 146.112 126.877 146.337C130.012 147.498 133.87 149.125 137.13 147.585C139.567 146.434 139.956 145.045 139.956 142.41C139.956 140.801 139.753 138.539 139.298 137.005L139.274 136.922C138.044 132.771 136.652 128.073 137.606 123.778C137.893 122.489 138.348 121.483 139.068 120.312C140.524 117.947 140.286 114.307 140.974 111.653C141.382 110.079 141.369 107.661 143.505 107.661C144.988 107.661 146.066 108.092 147.201 108.975C148.79 110.211 150.756 111.322 152.607 112.097C155.901 113.476 158.094 113.44 161.413 112.245C164.124 111.269 167.047 110.424 169.464 108.844C170.466 108.188 172.342 106.895 172.487 105.591C172.643 104.181 173.328 102.8 173.67 101.434C174.064 99.8564 175.648 99.1284 176.693 97.9672C178.218 96.273 179.363 94.3844 180.767 92.5782C182.308 90.5974 182.146 88.5346 181.589 86.1377C181.428 85.4461 180.976 84.2398 180.472 83.706C180.055 83.2648 179.349 83.1154 178.993 82.671C178.303 81.8079 175.647 82.3126 174.623 81.9973C173.712 81.7171 173.19 81.5985 172.355 80.9787C172.203 80.8653 170.241 79.1723 170.877 78.9907C173.156 78.3393 175.474 77.7445 177.679 76.7562C182.698 74.5063 187.442 71.7362 192.449 69.5106C195.088 68.3377 196.676 65.2085 198.577 63.2344C200.349 61.3945 201.731 59.3127 203.178 57.254C204.218 55.7735 204.371 53.6483 205.018 51.9964C205.616 50.4691 206.491 49.0838 207.219 47.6261C208.567 44.9314 210.858 43.4443 213.003 41.4156C214.512 39.9876 216.37 38.9173 217.965 37.571C219.221 36.5097 220.109 35.0075 221.3 33.8907C223.552 31.7793 225.821 29.9949 228.233 28.1074C230.698 26.1786 232.669 23.6827 235.249 21.8969C236.478 21.0462 237.519 20.1911 238.141 18.7916C239.515 15.7 235.774 13.8955 233.261 13.3369C231.749 13.001 230.548 12.4333 228.973 12.4333C227.796 12.4333 225.57 11.9913 224.684 12.8769C223.425 14.1366 222.098 14.4772 220.626 15.3907C218.289 16.8412 215.752 18.0542 213.364 19.4653C211.493 20.5709 209.808 22.4674 208.37 24.0856L208.271 24.1971C206.69 25.9756 204.901 27.3557 202.948 28.6988C201.864 29.4436 200.362 31.6562 198.955 31.6562C198.343 31.6562 197.888 31.6378 197.329 31.8862C195.592 32.6583 193.635 33.1563 191.841 34.0221C190.33 34.7515 188.861 34.8576 187.865 36.3223C187.112 37.4297 186.679 39.266 185.647 40.0683C184.364 41.0666 182.558 41.94 181.425 42.96C179.635 44.5706 178.281 46.7553 176.446 48.2504C173.332 50.7883 169.873 53.3734 167.607 56.6461C165.351 59.9046 163.455 63.57 159.573 65.3046C157.773 66.1088 155.738 66.5997 153.855 67.2105C151.908 67.8421 149.979 69.4729 148.105 70.3814C144.741 72.0124 143.476 74.608 141.369 77.4956C139.723 79.7509 139.264 82.3049 138.181 84.7411C137.627 85.9885 137.377 87.8941 136.637 88.9636C135.537 90.5523 135.266 93.1458 134.698 95.0098C134.12 96.9068 134.537 98.9551 133.877 100.842C133.04 103.233 131.362 105.174 130.722 107.661C130.317 109.235 129.489 110.438 128.422 111.505C127.123 112.805 127.646 114.295 127.223 115.777C127.022 116.478 125.531 115.875 126.204 116.697C126.811 117.44 126.935 119.496 126.582 120.378C125.344 123.472 125.042 126.655 122.934 129.365C122.157 130.364 120.964 131.911 123.099 131.911C124.29 131.911 126.377 132.611 126.04 134.129C125.738 135.488 125.042 136.842 124.643 138.187Z" fill="#F3DDC8"/>
<path d="M105.122 203.289C116.511 183.482 118.009 180.876 120.5 146C123.333 143.167 129 138.9 129 144.5C129 151.5 133.5 184 145 197C156.5 210 152.5 219.5 147.5 228.5C142.5 237.5 117.5 237 111 235.5C104.5 234 93.5001 223.5 105 203.5L105.122 203.289Z" fill="#7E5537"/>
<path d="M105.122 203.289C116.511 183.482 118.009 180.876 120.5 146C123.333 143.167 123.5 138.9 123.5 144.5C123.5 151.5 124 175.5 131.5 196C139 216.5 136.5 220.5 131.5 229.5C126.5 238.5 117.5 237 111 235.5C104.5 234 93.5001 223.5 105 203.5L105.122 203.289Z" fill="#9C6431"/>
<path d="M108.469 204.18C117.889 184.807 119.128 182.259 121.188 148.146C123.531 145.375 123.669 141.202 123.669 146.679C123.669 153.526 125.737 168.197 119.534 190.693C116.226 200.474 112.917 223.948 109.196 222.97C103.82 221.503 98.8575 223.948 108.369 204.387L108.469 204.18Z" fill="#CF9865"/>
<path d="M118.815 143.601C126.086 146.019 130.934 140.579 133.964 130.908C135.032 127.498 135.875 125.741 136.624 124.26M118.815 143.601C117.12 143.038 115.951 142.08 115.18 140.835M118.815 143.601C117.452 142.796 114.818 140.458 115.18 137.557C115.632 133.931 115.785 132.722 117.603 129.699C121.481 130.667 126.49 133.326 128.51 134.535C128.51 137.436 127.702 139.944 127.298 140.835M203.039 34.8038C191.526 42.6614 187.285 46.8924 185.468 54.1456C183.65 58.9811 183.043 58.9811 179.408 65.6298C177.59 67.4431 176.985 69.8608 173.955 72.883C172.794 74.0415 171.098 76.0882 169.107 78.3081M121.239 58.9811C122.908 67.8569 122.024 75.7146 121.868 82.5539M115.18 140.835C112.641 136.74 114.391 129.54 115.785 123.051C116.997 117.611 121.845 91.6203 121.845 84.3672C121.845 83.7709 121.854 83.1665 121.868 82.5539M115.18 140.835C109.12 142.904 106.697 136.953 106.091 132.117C105.485 127.282 102.456 118.82 100.637 112.775C98.819 106.731 97.0023 101.291 95.7905 93.4336C94.5786 85.576 96.3964 77.114 97.0023 68.0475C97.6082 58.9811 97.6082 52.3323 102.456 44.4747C103.667 42.6614 108.878 37.826 120.027 32.9905M116.997 108.544C116.513 102.742 115.786 100.082 115.18 97.6647M115.18 97.6647C115.987 96.6573 117.603 93.9172 117.603 91.0159C117.603 88.1146 117.199 84.5686 116.997 83.1583M115.18 97.6647C110.332 97.0602 104.879 97.0602 101.243 97.6647M100.637 72.883C108.514 78.3229 114.013 83.7627 121.868 82.5539M107.303 117.006C110.696 116.523 113.564 116.805 114.574 117.006M120.027 112.775C125.359 113.259 127.904 114.589 128.51 115.193M123.057 117.611C125.965 118.094 128.308 119.424 129.116 120.029M129.722 145.415C133.357 147.228 136.992 147.228 138.811 145.415C140.629 143.601 141.234 140.579 140.023 136.348C139.053 132.963 137.353 126.879 136.624 124.26M136.624 124.26C137.999 121.54 139.06 119.748 140.629 110.358C142.18 101.075 146.46 95.2574 150.929 91.6377M145.476 106.731C151.535 109.753 153.353 110.358 159.412 110.358C162.555 110.358 165.209 109.707 167.289 108.912M159.412 96.4558C163.048 95.2469 166.077 94.0381 170.319 98.8735C174.56 103.709 173.349 105.522 171.531 106.731C170.656 107.313 169.22 108.175 167.289 108.912M167.289 108.912C161.836 107.94 161.23 104.313 159.412 104.918C157.594 105.522 159.412 109.681 161.836 109.753M164.26 89.8071C166.683 87.3893 170.32 80.7406 173.955 80.7406C177.59 80.7406 183.043 82.5539 182.437 86.7849M182.437 86.7849C181.226 88.5982 179.408 89.8071 175.772 89.8071C172.137 89.8071 171.531 87.3893 171.531 90.4115C171.531 93.4336 173.954 94.0381 176.378 93.4336C178.317 92.9501 180.504 91.2174 181.354 90.4115M182.437 86.7849C182.263 88.0034 181.887 89.2219 181.354 90.4115M175.166 98.2691C177.755 96.1173 180.036 93.3526 181.354 90.4115M169.107 78.3081C165.904 81.8792 161.937 85.8984 158.201 87.3893C157.62 87.6212 157.011 87.8864 156.383 88.1892M169.107 78.3081C185.468 72.883 189.103 72.2786 194.556 68.0475C200.009 63.8165 206.069 52.3323 208.492 47.4969C210.916 42.6614 212.734 39.0348 224.852 29.9684C234.547 22.7152 238.991 19.6931 240.001 19.0886M129.722 26.9462C138.205 22.1108 153.353 13.0443 161.836 7M150.929 91.6377C152.141 84.3672 151.535 76.5096 149.111 71.6741M150.929 91.6377C152.774 90.1433 154.652 89.0235 156.383 88.1892M156.383 88.1892C158.201 82.5539 157.594 80.7406 157.594 77.114" stroke="#3E3939" stroke-width="4" stroke-linecap="round" stroke-linejoin="round"/>
<path d="M126.64 241.298C137.483 240.529 142.884 237.723 144.229 236.417C144.444 235.19 144.7 232.84 144.003 233.253M144.003 233.253C143.132 233.769 136.548 236.962 129.771 237.442C122.994 237.923 119.557 237.486 113.57 236.321M144.003 233.253C143.213 231.719 151.442 229.319 151.847 219.07C152.17 210.871 147.443 202.954 145.04 200.021C142.469 196.872 137.292 190.078 137.15 188.089M137.15 188.089C137.794 187.708 137.926 185.525 136.005 184.764C134.424 184.876 132.536 187.054 125.307 187.567C119.524 187.977 117.12 187.39 116.642 187.046C115.186 186.705 114.642 186.499 114.099 186.416M137.15 188.089C134.294 189.427 129.631 190.894 125.564 191.182C123.37 191.187 118.787 191.663 115.302 190.548M147.878 214.355C147.135 216.679 142.714 218.355 139.762 211.978C136.809 205.601 140.489 203.069 144.232 204.62C141.844 206.153 141.65 206.621 141.73 207.75M109.827 234.769C109.488 233.203 101.146 230.843 101.003 219.27M109.896 194.338C107.936 197.062 106.163 199.642 104.724 202.427M112.559 190.288C111.526 188.544 111.607 186.495 112.962 186.398C113.463 186.363 113.781 186.368 114.099 186.416M114.099 186.416C113.705 184.075 112.689 182.557 115.19 182.607C115.614 182.615 115.982 182.66 116.334 182.727M111.763 236.449C110.794 238.789 113.392 240.194 116.393 240.89M122.384 207.079C127.579 206.71 130.887 211.699 129.192 216.589C127.497 221.479 125.915 224.77 120.494 221.975C116.157 219.739 117.074 215.405 118.075 213.517M104.408 206.537C106.587 205.247 109.491 204.587 108.974 210.074C108.458 215.562 107.989 221.727 104.31 221.08C103.101 220.867 102.427 220.121 102.084 219.193M101.309 217.204C102.794 215.1 103.359 210.927 103.456 209.103M131.745 182.341C131.761 182.567 130.438 183.115 125.017 183.499C119.39 183.898 118.056 183.053 116.334 182.727M116.334 182.727C118.433 180.332 121.315 162.888 120.026 144.81M115.18 124.864C115.065 123.41 112.32 121.725 116.391 120.029M126.692 144.81C127.352 154.075 127.986 174.204 131.762 179.387M106.102 208.007C106.593 209.789 106.543 212.064 106.457 212.978M125.094 210.066C122.577 209.791 120.786 210.145 120.915 211.953" stroke="#3E3939" stroke-width="4" stroke-linecap="round" stroke-linejoin="round"/>
<path d="M61.4185 294.458C45.9115 291.746 30.5479 288.399 14.8732 286.099C13.2481 287.313 12.2864 289.075 12.2864 291.671C12.2864 307.247 25.566 308.365 39.3458 322.183C53.1255 336.001 98.6164 330.969 129.311 330.581C145.663 330.375 162.16 328.806 178.328 327.317C191.174 326.134 205.238 325.563 217.24 322.183C230.181 318.539 239.645 311.651 247.033 304.213C249.959 301.268 252.831 295.482 249.589 292.111C248.185 290.65 237.382 291.671 235.36 291.671C225.373 291.671 215.366 292.097 205.566 293.394C192.102 295.177 179.367 299.441 165.725 300.619C152.12 301.793 136.973 301.146 123.329 300.619C102.025 299.796 81.9793 298.054 61.4185 294.458Z" fill="#956451"/>
<path d="M77.9843 312.596C64.7336 309.08 51.6055 304.741 38.2115 301.759C36.8228 303.333 36.001 305.617 36.001 308.983C36.001 329.179 47.3485 330.628 59.1233 348.544C70.898 366.46 109.77 359.936 135.998 359.433C149.971 359.165 164.067 357.132 177.883 355.201C188.86 353.667 200.878 352.926 211.133 348.544C222.191 343.819 230.278 334.889 236.592 325.245C239.092 321.426 241.546 313.925 238.775 309.553C237.576 307.66 228.345 308.983 226.617 308.983C218.083 308.983 209.532 309.535 201.158 311.217C189.653 313.529 178.771 319.058 167.114 320.585C155.488 322.107 142.546 321.268 130.887 320.585C112.682 319.518 95.5535 317.259 77.9843 312.596Z" fill="#CEA393"/>
<ellipse rx="56.2062" ry="13.0865" transform="matrix(0.984428 0.175789 -0.173831 0.984776 188.611 277.642)" fill="white"/>
<path d="M22.9805 316C18.8281 322.375 13.5219 331.412 8.01172 341.572M240.113 294.898C240.113 294.898 246.674 291.85 244.699 283.299C242.724 274.748 227.918 270.309 223.135 268.556C201.753 260.716 163.188 260.524 127.728 260.524C72.0809 260.524 36.0739 264.905 16.4338 275.857C0.721651 284.619 14.2515 298.492 22.9805 304.333C72.0809 318.572 175.737 325.143 240.113 304.333C240.113 310.813 243.837 319.03 249.186 329.5M53.5319 283.524C90.6299 291.191 152.824 291.191 188.831 289C205.165 288.006 214.936 284.757 220.195 281.026M53.5319 341.572C52.8044 345.587 53.3136 353.4 61.1697 352.524C70.9898 351.429 70.9898 343.762 73.172 348.143M22.9805 341.572C32 336.5 37 344.5 30 345M37 321C42.5 325.5 52.5 320 48.5 325" stroke="#3E3939" stroke-width="5" stroke-linecap="round" stroke-linejoin="round"/>
<circle cx="205.5" cy="167.5" r="53.5" fill="white"/>
<path fill-rule="evenodd" clip-rule="evenodd" d="M223.059 195.88C227.155 191.537 228.923 189.063 230 184.525C222.213 178.801 216.174 173.943 210.915 169.289C216.142 164.344 221.56 159.688 228.078 154.087C228.68 153.569 229.292 153.043 229.915 152.508C228.1 148.463 226.675 146.704 223.748 144.033C218.31 148.838 213.067 153.031 208.025 157.063C206.175 158.542 204.353 160 202.557 161.459C197.439 156.395 192.598 151.125 186.775 144.786C186.236 144.2 185.69 143.605 185.134 143C181.218 145.012 179.544 146.53 177.035 149.605C182.022 154.887 186.396 159.998 190.603 164.914C191.714 166.213 192.813 167.498 193.91 168.769C187.558 174.435 181.585 180.622 176 188.485C180.109 192.816 182.475 194.711 186.909 196C192.659 188.704 197.551 182.993 202.2 178.035C208.242 184.436 214.776 190.407 223.059 195.88Z" fill="#FFBCBC"/>
</g>
<defs>
<clipPath id="clip0">
<rect width="254" height="373" fill="white"/>
</clipPath>
</defs>
</svg>
