<svg width="290" height="290" viewBox="0 0 290 290" fill="none" xmlns="http://www.w3.org/2000/svg">
<ellipse opacity="0.3" cx="146" cy="164.5" rx="126" ry="74.5" fill="#D9B497"/>
<path d="M91.9851 183.368C90.3476 172.233 92.8189 161.491 93.0291 150.352C94.559 150.352 95.929 149.517 97.4141 149.517C98.7012 149.517 101.692 149.112 102.843 148.473C103.654 148.022 105.058 148.082 105.999 147.847C107.336 147.512 108.285 146.633 109.734 146.594C112.725 146.513 116.467 146.09 118.597 148.635C121.367 151.948 123.167 155.945 125.835 159.354C128.64 162.938 131.124 166.813 133.283 170.816C137.061 177.82 138.293 186.821 138.782 194.62C139.168 200.787 139.086 206.938 138.341 213.065C137.472 220.208 136.392 227.242 135.209 234.34C133.99 241.653 133.765 250.136 129.965 256.66C128.359 259.417 125.598 264.738 121.845 261.95C119.242 260.016 118.501 257.378 116.833 254.757C114.692 251.392 113.254 246.973 111.636 243.296C107.427 233.729 104.168 224.078 100.639 214.248C97.0933 204.371 93.5111 193.745 91.9851 183.368Z" fill="white"/>
<path d="M161.254 277.649C147.48 277.266 156.185 279.688 142.334 279.688C134.066 279.688 125 275.129 125 266.433C125 255.292 141.116 251.454 150.264 251.139C168.123 250.523 186.028 252.158 203.738 252.158C216.085 252.158 231.645 251.566 243.277 256.463C251.009 259.719 259.101 263.634 255.739 273.344C252.652 282.263 241.313 285.806 233.081 285.806C220.532 285.806 207.494 285.601 195.128 283.54C184.161 281.712 172.342 277.957 161.254 277.649Z" fill="#CDB5A2"/>
<path d="M112.315 162.787C113.931 160.388 116.229 160.634 118.958 160.634C119.495 159.711 122.201 159.583 123.309 159.365C126.833 158.673 130.813 159.073 134.264 159.666C137.124 160.157 140.325 159.875 143.238 160.1C146.2 160.329 148.92 160.764 151.746 161.535C153.975 162.143 155.777 163.627 157.34 165.074C158.141 165.815 157.798 167.495 157.768 168.445C157.717 170.016 156.579 172.025 156.019 173.552C155.167 175.879 154.995 178.404 154.193 180.762C151.597 188.4 149.321 196.054 147.628 203.895C146.273 210.172 144.358 216.265 144.481 222.688C144.519 224.642 145.27 226.585 145.53 228.529C146.007 232.085 146.171 235.635 146.23 239.211C146.349 246.562 149.165 257.172 157.787 260.658C160.252 261.655 163.898 262.903 162.798 265.949C162.1 267.882 159.815 270.045 157.748 271.022C153.06 273.238 146.516 272.992 141.354 272.992C135.973 272.992 131.845 271.642 128.243 268.052C124.879 264.699 122.105 260.32 122.105 255.851C122.105 252.744 122.849 249.821 123.134 246.755C123.49 242.932 123.154 238.988 123.154 235.155C123.154 226.384 124.584 216.361 120.862 207.984C120.12 206.315 119.115 204.742 118.278 203.11C117.225 201.057 116.763 198.786 115.967 196.651C113.828 190.917 110.557 185.063 110.256 178.993C110.008 173.991 109.287 167.281 112.315 162.787Z" fill="#D9B497"/>
<path d="M130.674 108.021C125.275 105.36 122.076 103.833 116.828 100.573C115.587 101.455 114.576 103.755 113.412 105.077C111.066 107.742 107.904 109.133 105.3 111.486C100.063 116.217 88.3145 125.656 90.2035 136.384C91.4555 143.495 92.4267 150.456 96.8215 155.091C102.896 161.498 111.625 163.39 118.871 165.7C131.795 169.82 146.105 174.236 159.403 170.723C165.015 169.241 170.72 168.995 176.237 166.826C183.561 163.946 190.499 159.929 196.976 154.182C201.998 149.725 205.99 145.358 204.783 136.601C203.867 129.957 201.795 124.479 199.171 118.89C195.661 111.415 190.83 103.983 185.173 99.8373C180.217 96.2053 173.318 98.8532 168.216 100.184C160.522 102.19 154.145 108.565 146.685 111.009C141.336 112.762 135.692 110.495 130.674 108.021Z" fill="#D9B497"/>
<path d="M134.758 82.0941C131.472 80.4756 129.524 79.5473 126.33 77.5649C125.575 78.1008 124.959 79.4995 124.251 80.3035C122.823 81.9239 120.898 82.7698 119.313 84.2007C116.125 87.078 108.974 92.8178 110.124 99.3419C110.886 103.666 111.477 107.899 114.152 110.718C117.849 114.613 123.163 115.764 127.574 117.169C135.441 119.674 144.151 122.36 152.245 120.224C155.661 119.322 159.134 119.173 162.492 117.854C166.95 116.102 171.173 113.66 175.116 110.165C178.173 107.454 180.602 104.799 179.868 99.4736C179.311 95.4336 178.049 92.102 176.452 88.7036C174.316 84.1575 171.375 79.6385 167.931 77.1173C164.915 74.9087 160.715 76.5188 157.61 77.328C152.927 78.5481 149.045 82.4246 144.504 83.9111C141.248 84.9768 137.813 83.5986 134.758 82.0941Z" fill="#BB8663"/>
<path d="M132.124 70.8439C127.993 70.0886 125.545 69.6554 121.529 68.7303C120.579 68.9804 119.806 69.6331 118.915 70.0083C117.12 70.7645 114.7 71.1593 112.708 71.827C108.701 73.1697 99.7102 75.8483 101.156 78.8929C102.114 80.9108 102.857 82.8861 106.22 84.2015C110.868 86.0196 117.547 86.5567 123.093 87.2122C132.982 88.3812 143.933 89.6345 154.108 88.6377C158.402 88.217 162.768 88.1474 166.99 87.5317C172.595 86.7145 177.903 85.5746 182.86 83.9435C186.703 82.6787 189.757 81.4394 188.834 78.9543C188.133 77.069 186.548 75.5143 184.54 73.9283C181.854 71.8068 178.157 69.698 173.828 68.5214C170.036 67.4907 164.757 68.2421 160.852 68.6197C154.965 69.1891 150.085 70.9982 144.376 71.6918C140.283 72.1892 135.964 71.546 132.124 70.8439Z" fill="#B46F45"/>
<path d="M95.8332 85.5621C96.4087 83.4966 96.7388 82.2724 97.4436 80.2646C97.2531 79.7897 96.7557 79.403 96.4699 78.9577C95.8937 78.0602 95.5929 76.8502 95.0842 75.8538C94.0612 73.8503 92.0204 69.3551 89.7007 70.0779C88.1632 70.5569 86.6582 70.9285 85.656 72.61C84.2708 74.9339 83.8616 78.2737 83.3621 81.0464C82.4715 85.9912 81.5166 91.4663 82.2761 96.554C82.5966 98.7012 82.6496 100.884 83.1187 102.995C83.7414 105.797 84.6099 108.452 85.8526 110.93C86.8162 112.851 87.7604 114.379 89.6538 113.917C91.0903 113.567 92.2748 112.774 93.4832 111.77C95.0996 110.427 96.7063 108.579 97.6027 106.414C98.388 104.518 97.8155 101.878 97.5278 99.9262C97.094 96.9825 95.7157 94.5425 95.1872 91.6882C94.8082 89.6417 95.2983 87.4822 95.8332 85.5621Z" fill="#B46F45"/>
<path d="M196.931 94.0554C196.592 96.1728 196.402 97.4264 195.929 99.5009C196.172 99.9513 196.71 100.279 197.044 100.689C197.718 101.516 198.153 102.684 198.771 103.617C200.014 105.492 202.549 109.728 204.773 108.748C206.246 108.098 207.699 107.559 208.505 105.775C209.619 103.31 209.649 99.9451 209.832 97.1338C210.158 92.12 210.489 86.5721 209.16 81.6027C208.599 79.5055 208.299 77.3426 207.595 75.298C206.66 72.584 205.497 70.0448 203.982 67.7229C202.808 65.9225 201.697 64.5116 199.868 65.1841C198.48 65.6944 197.393 66.6159 196.306 67.7499C194.851 69.2669 193.464 71.2848 192.817 73.5368C192.251 75.5096 193.118 78.0675 193.624 79.9746C194.388 82.8505 196.033 85.1193 196.881 87.8956C197.488 89.8862 197.245 92.0872 196.931 94.0554Z" fill="#BB8663"/>
<path d="M166.612 163.491C170.646 162.751 175.423 162.217 179.194 160.665C184.959 159.139 188.259 160.603 189.188 161.525C189.188 168.23 188.616 174.557 186.476 180.963C185.126 185.004 184.668 188.728 184.668 193.004C184.668 202.086 184.215 210.961 182.182 219.839C181.074 224.674 178.654 228.991 176.883 233.6C175.323 237.661 173.722 241.796 171.986 245.788C168.753 253.224 166 261.063 161.715 268.003C159.366 271.807 152.288 273.095 148.154 273.655C143.365 274.304 138.343 274.471 135.673 270.116C134.143 267.621 135.64 261.514 136.075 259.009C137.798 249.079 139.976 239.214 141.625 229.275C143.79 216.221 141.786 202.722 143.634 189.662C144.569 183.053 146.266 176.338 149.611 170.47C150.565 168.796 151.639 167.388 153.453 166.612C154.825 166.024 156.53 166.36 157.998 165.924C160.846 165.078 163.687 164.028 166.612 163.491Z" fill="#B46F45"/>
<path d="M133.6 241.781C129.75 242.952 125.949 242.75 121.963 242.249C119.444 244.307 122.578 252.709 123.32 255.134C125.484 262.21 129.309 268.413 136.857 272.602C145.234 277.253 156.621 276.995 165.317 272.652C168.887 270.869 168.627 267.799 169.478 264.817C170.929 259.736 173.743 255.422 176.201 250.65C178.821 245.565 181.976 240.186 183.407 234.808C184.136 232.067 186 229.091 186 226.283C186 224.553 186.081 222.009 183.015 223.401C180.892 224.365 178.622 224.773 176.774 226.283C174.936 227.785 172.648 228.768 170.805 230.275C168.801 231.912 166.85 233.381 164.172 234.266C157.577 236.445 150.598 237.479 143.67 238.701C140.16 239.32 136.95 240.762 133.6 241.781Z" fill="#8A5F3F"/>
<path d="M154.391 84.8637L154.394 84.85C157.277 84.85 164.91 83.7957 166.753 86.9292C168.587 90.0475 169.31 93.7311 171.287 96.8052C172.284 98.3573 173.005 100.179 173.106 102.003C173.182 103.369 174.805 104.75 175.445 105.902C177.69 109.943 178.623 114.798 182.058 118.232C183.821 119.995 184.712 120.716 187.14 120.716H193.378C193.87 120.716 199.381 120.284 199.586 121.004C199.957 122.302 199.096 124.667 199.096 126.173C199.096 131.083 201.78 135.254 199.875 140.208C198.931 142.663 198.768 145.575 197.94 148.149C197.433 149.729 196.794 151.306 196.497 152.943C196.041 155.448 194.061 157.579 193.898 160.104C193.599 164.73 193.378 169.274 193.378 173.965C193.378 177.126 193.978 180.994 193.089 184.043C192.546 185.907 191.477 187.636 190.779 189.443C189.841 191.872 188.9 193.792 187.66 196.085C186.819 197.641 185.449 199.02 185.061 200.763C184.337 204.023 186.876 207.532 184.863 210.12C182.712 212.885 183.954 217.651 180.623 218.841C177.773 219.858 175.309 218.624 175.309 215.78C175.309 206.719 172.171 200.361 174.55 191.927C176.779 184.024 178.698 176.289 179.863 168.132C181.147 159.143 185.183 149.865 183.906 140.641C182.825 132.833 177.885 125.832 172.038 120.716C167.158 116.446 160.016 114.279 156.242 108.789C151.282 101.575 152.844 93.1803 154.391 84.8637Z" fill="white"/>
<path d="M105 211.5C114.5 240.5 115.5 242 118 252.5C120.5 263 125.5 275.5 143 275.5C160.5 275.5 165.501 270.5 169.501 259.5C173.501 248.5 176.501 233 180.501 224C184.501 215 190.001 193 192.501 176M99.0005 186.5C96.9226 176.803 95.4843 167.852 94.4396 159.5M164.5 62C159.5 61.6667 148 61 142 61C134.5 61 129.5 61 120.5 63.5C111.5 66 111 66 105.5 66C100 66 95.5005 67 90.5005 73.5C85.5005 80 85.5005 91.5 88.5005 104C91.5005 116.5 91.0005 117 92.0005 132.5C92.5387 140.843 93.2218 149.765 94.4396 159.5M117.5 67.5C126 70 133.5 70.5 147 70.5C160.5 70.5 178.5 67 170 65.5M99.5 75C94 80 92 82 93.5 94C95 106 98 112 99.5 112.5M99.5 112.5C101 113 109.5 107 114.5 100.5C119.5 94 121.5 89 117.5 83.5M99.5 112.5L96.5 113.5M106 75C109.5 75.5 110 77 112 79C114 81 114.5 80 115.5 81M121.5 82C135.5 85 155 84 165.5 82M170 84C173 79.5 175 80.5 179 77C180.333 75.6667 184.3 74.3 189.5 75.5C196 77 196 82.5 196.5 89.5C197 96.5 195 104.5 190.5 111.5C189 111 184.9 108.9 180.5 104.5C176.1 100.1 174 97 173.5 96M179 65.5C190.5 67.5 201.5 68.5 204.5 82C207.5 95.5 201 110.5 199 122.5C196.5 135.5 199.5 133 195 162.5M189.5 137.5C180.501 144.5 176.5 148 147 148C140.623 148.167 124.295 147.1 110 141.5M165.5 91.5C164.5 97.5 164.5 105 175.5 113.5M106 171.5C107.5 169.5 108 169.5 109 170.5M115.5 186.5C118 184 117.5 181 114.5 182.5M108 122.5C110.5 119 112.5 120 113.5 118.5M128 94C129.2 95.6 128.167 97.3333 127.5 98M102.5 138C101 141.5 98.5 142 101 145.5C103.5 149 103.5 143 104 143.5M95.5 125.5C93.9 128.3 92.5003 124.667 92.0005 122.5M94.4396 159.5C98.4879 159.9 97.5 163.333 96.5 165" stroke="#3E3939" stroke-width="5" stroke-linecap="round" stroke-linejoin="round"/>
</svg>
