<svg width="290" height="290" viewBox="0 0 290 290" fill="none" xmlns="http://www.w3.org/2000/svg">
<path opacity="0.8" d="M122.887 269.535C114.505 265.95 111.251 266.544 106.33 261.671C101.409 256.799 115.113 253.959 120.665 253.278C132.24 251.859 144.252 251.282 155.901 251.09C165.819 250.926 172.11 248.522 181.975 247.701C187.771 247.219 197.421 249.597 203.221 250.498C206.925 251.073 211.934 251.324 214.968 253.924C220.115 258.334 219.111 265.043 214.225 269.141C204.797 277.047 197.149 275.625 185.412 276.125C171.424 276.72 153.314 277.465 139.591 274.436C133.974 273.196 128.226 271.819 122.887 269.535Z" fill="#A97A68"/>
<ellipse opacity="0.4" cx="145" cy="164.5" rx="126" ry="74.5" fill="#CEA393"/>
<ellipse rx="76.4363" ry="109.588" transform="matrix(0.997977 0.0635764 -0.0634539 0.997985 148.086 152.227)" fill="#A97A68"/>
<ellipse rx="68.2714" ry="76.6382" transform="matrix(0.997977 0.0635764 -0.0634539 0.997985 124.975 149.836)" fill="#CEA393"/>
<ellipse rx="28.7817" ry="44.9683" transform="matrix(0.978827 0.204687 -0.204308 0.978907 82.6607 132.777)" fill="white"/>
<ellipse opacity="0.5" rx="39.1054" ry="67.9793" transform="matrix(0.978827 0.204687 -0.204308 0.978907 105.404 141.443)" fill="white"/>
<path d="M120.04 247.752C114.61 245.895 109.231 243.596 103.738 242.051C100.822 243.479 98.2461 245.68 98.2461 248.859C98.2461 259.304 104.795 265.296 112.231 267.474C122.475 270.475 132.799 272.235 143.328 271.975C148.937 271.836 154.595 270.785 160.141 269.786C164.548 268.993 169.372 268.609 173.489 266.343C177.928 263.9 181.174 259.281 183.708 254.293C184.712 252.319 185.697 248.439 184.585 246.178C184.103 245.199 180.398 245.883 179.704 245.883C176.278 245.883 172.846 246.169 169.484 247.039C164.866 248.234 160.498 251.094 155.818 251.883C151.152 252.671 145.956 252.237 141.276 251.883C133.968 251.332 127.093 250.163 120.04 247.752Z" fill="#7D4B38"/>
<path d="M109.505 64.1762C101.595 62.7965 93.7576 61.0944 85.7616 59.9242C84.9326 60.5419 84.442 61.4379 84.442 62.7584C84.442 70.6822 91.2163 71.2508 98.2456 78.28C105.275 85.3093 128.481 82.7494 144.139 82.5522C152.48 82.4472 160.896 81.6493 169.143 80.8918C175.697 80.2901 182.871 79.9992 188.993 78.28C195.595 76.4262 200.422 72.9225 204.192 69.1387C205.684 67.6406 207.149 64.6974 205.495 62.9823C204.779 62.2395 199.268 62.7584 198.237 62.7584C193.142 62.7584 188.037 62.9752 183.038 63.6352C176.17 64.5421 169.673 66.7114 162.714 67.3104C155.774 67.9078 148.048 67.5784 141.087 67.3104C130.22 66.8919 119.994 66.0056 109.505 64.1762Z" fill="#956451"/>
<ellipse rx="28.6659" ry="6.65843" transform="matrix(0.961511 0.274766 -0.274275 0.961651 174.389 55.6223)" fill="white"/>
<path d="M103.255 250.829C104.368 260.857 121.012 270.916 143.331 270.329C163.839 269.788 175.057 265.314 183.406 254.171M104.368 246.371C119.953 256.957 131.645 258.933 142.218 259.186C155.625 259.506 180.623 255.286 183.406 249.157C183.963 245.443 186.523 236.231 192.312 229.1C199.548 220.186 224.595 195.114 224.595 149.429M224.595 149.429C224.595 103.743 200.661 80.9 200.661 69.2C167.821 79.7857 114.944 76.4429 89.8968 69.2C85.4439 66.2286 78.5421 59.1714 86.5572 54.7143C96.576 49.1429 114.944 46.9143 143.331 46.9143C161.42 46.9143 181.092 47.012 192 51C194.44 51.8921 201.992 54.1502 203 58.5C204.008 62.8498 200.661 64.4 200.661 64.4M224.595 149.429C219.4 154.629 195.874 165.029 143.331 165.029C123.022 165.029 107.325 163.475 95.4628 161.268M64.8496 149.429C67.4675 152.619 76.6352 157.766 95.4628 161.268M99.359 235.786C94.3496 219.071 76.5383 202.357 69.859 178.4C69.3115 176.436 68.7976 174.39 68.3259 172.271M80.4345 89.2572C73.3532 100.098 69.1554 111.953 67.0247 123.8C63.9279 141.019 65.1972 158.221 68.3259 172.271M105.482 58.6143C124.406 62.5143 156.133 62.5143 174.501 61.4C182.833 60.8945 187.818 59.2414 190.5 57.3436M116.614 103.743C116.057 121.014 126.633 127.7 121.623 134.943C116.614 142.186 111.604 131.043 105.482 129.371M111.048 122.129C110.862 121.014 109.823 118.897 107.151 119.343M92.6798 129.371C86.5572 132.714 83.2175 135.5 86.5572 136.614M97.6892 119.343C97.6892 121.571 95.7968 125.249 88.227 122.129C80.7651 119.053 80.226 119.096 73.7553 121.437M73.7553 146.643C78.2081 146.086 80.4345 144.414 82.6609 149.429M95.4628 161.268C92.8653 160.293 88.6723 157.34 92.6798 153.329C97.6892 148.314 97.6892 146.086 97.6892 143.3M95.4628 161.268C97.3182 162.893 100.695 167.369 99.359 172.271M89.8968 100.957C90.0823 101.7 90.676 102.071 91.5666 97.6143M105.482 88.1429C105.111 90.1857 105.37 94.16 109.378 93.7143C114.387 93.1572 114.387 89.2572 115.501 91.4857M68.3259 172.271C70.1357 175.057 74.7572 180.629 78.7647 180.629M88.227 182.857C89.3402 182.671 91.2326 183.191 89.8968 186.757M107.708 219.071C107.523 217.214 106.372 213.723 103.255 214.614" stroke="#3E3939" stroke-width="5" stroke-linecap="round" stroke-linejoin="round"/>
</svg>
