<svg width="290" height="211" viewBox="0 0 290 211" fill="none" xmlns="http://www.w3.org/2000/svg">
<ellipse opacity="0.4" cx="142.5" cy="113" rx="107.5" ry="71" fill="#FFE3AF"/>
<path d="M52 121.462L197.813 90.9599L234.399 123.697L88.5858 154.199L52 121.462Z" fill="#E8B984"/>
<path d="M90 154L237.813 112.195L253.399 142.697L92 184L90 154Z" fill="#FFE3AF"/>
<path d="M90.3228 155.453L53.1664 119.959L43.8767 146.235L83.3745 177.896L90.3228 155.453Z" fill="#CF8C55"/>
<rect x="124" y="83" width="41" height="43" fill="#E8B984"/>
<ellipse cx="145" cy="50" rx="35" ry="41" fill="#E8B984"/>
<ellipse cx="160" cy="51.5" rx="25" ry="34.5" fill="#FFE3AF"/>
<ellipse cx="120.709" cy="50.8554" rx="15" ry="30.5" transform="rotate(-11.3493 120.709 50.8554)" fill="#CF8C55"/>
<ellipse opacity="0.6" cx="143.875" cy="20.0714" rx="24.3825" ry="9.47385" transform="rotate(0.451836 143.875 20.0714)" fill="#CF8C55"/>
<rect opacity="0.8" x="125" y="86" width="40" height="24" fill="#D99E68"/>
<rect opacity="0.8" x="127" y="86" width="14" height="37" fill="#996537"/>
<rect opacity="0.8" x="93" y="110" width="38" height="15" fill="#996537"/>
<rect opacity="0.8" x="56.3052" y="127" width="43.715" height="15" transform="rotate(55.1192 56.3052 127)" fill="#996537"/>
<rect opacity="0.8" x="126.881" y="100" width="14" height="21" transform="rotate(34.4543 126.881 100)" fill="#996537"/>
<rect x="155.953" y="26.2712" width="22" height="40" transform="rotate(-6.05203 155.953 26.2712)" fill="white"/>
<rect x="152" y="84.3195" width="14.2934" height="40" transform="rotate(-6.05203 152 84.3195)" fill="white"/>
<rect x="143" y="134.831" width="99.1385" height="14.3091" transform="rotate(-12.1293 143 134.831)" fill="white"/>
<path d="M120.5 79.3427C113.431 71.9397 109 61.3102 109 49.5C109 27.1325 117.106 12 144.5 12C171.894 12 180 27.1325 180 49.5C180 55.5713 178.829 61.3306 176.731 66.5M132.5 87.6277C136.248 89.1633 140.288 90 144.5 90C148.712 90 152.752 89.1633 156.5 87.6277" stroke="#3E3939" stroke-width="5" stroke-linecap="round"/>
<path d="M173 74.5C165.5 82 165.5 96 165.5 103.5C165.5 111 176.5 116 173 119.5C169.5 123 160 126 145 126C130 126 124 123 119 119.5C114 116 126 111 126 103.5C126 99.7452 125.425 94.5517 123.733 89" stroke="#3E3939" stroke-width="5" stroke-linecap="round"/>
<path d="M89.5497 154.318L60.2041 123M89.5497 154.318L228 120.068M89.5497 154.318L87.6772 175M125.5 105.375L54.559 116.976L46.5002 140L86.5003 188L247.5 138.5L240.5 116.976L192 94.5L165.5 98.8335" stroke="#3E3939" stroke-width="5" stroke-linecap="round" stroke-linejoin="round"/>
<path d="M164.617 29.8782C162.503 29.4085 160.381 29.3488 158.315 29.6512C149.941 30.8769 142.498 38.0526 140.294 47.9734C137.546 60.3412 143.981 72.292 154.666 74.6661C156.981 75.1804 159.306 75.2031 161.555 74.7972" stroke="#3E3939" stroke-width="5" stroke-linecap="round"/>
<path d="M157 20.8771C153.289 22.9589 147.847 24.0687 142.889 23.5033C137.196 23.2113 132.598 22.3604 129.5 21.182" stroke="#3E3939" stroke-width="5" stroke-linecap="round"/>
</svg>
