<svg width="290" height="290" viewBox="0 0 290 290" fill="none" xmlns="http://www.w3.org/2000/svg">
<g clip-path="url(#clip0)">
<path opacity="0.8" d="M122.887 239.535C114.505 235.95 111.251 236.544 106.33 231.671C101.409 226.799 115.113 223.959 120.665 223.278C132.24 221.859 144.252 221.282 155.901 221.09C165.819 220.926 172.11 218.522 181.975 217.701C187.771 217.219 197.421 219.597 203.221 220.498C206.925 221.073 211.934 221.324 214.968 223.924C220.115 228.334 219.111 235.043 214.225 239.141C204.797 247.047 197.149 245.625 185.412 246.125C171.424 246.72 153.314 247.465 139.591 244.436C133.974 243.196 128.226 241.819 122.887 239.535Z" fill="#A97A68"/>
<ellipse opacity="0.4" cx="145" cy="134.5" rx="126" ry="74.5" fill="#CEA393"/>
<ellipse rx="76.4363" ry="109.588" transform="matrix(0.997977 0.0635764 -0.0634539 0.997985 148.086 122.227)" fill="#A97A68"/>
<ellipse rx="68.2714" ry="76.6382" transform="matrix(0.997977 0.0635764 -0.0634539 0.997985 124.975 119.836)" fill="#CEA393"/>
<ellipse rx="28.7817" ry="44.9683" transform="matrix(0.978827 0.204687 -0.204308 0.978907 82.6607 102.777)" fill="white"/>
<ellipse opacity="0.5" rx="39.1054" ry="67.9793" transform="matrix(0.978827 0.204687 -0.204308 0.978907 105.404 111.443)" fill="white"/>
<path d="M120.039 217.752C114.609 215.895 109.23 213.596 103.737 212.051C100.821 213.479 98.2451 215.68 98.2451 218.859C98.2451 229.304 104.794 235.296 112.23 237.474C122.474 240.475 132.798 242.235 143.327 241.975C148.936 241.836 154.594 240.785 160.14 239.786C164.547 238.993 169.371 238.609 173.488 236.343C177.927 233.9 181.173 229.281 183.707 224.293C184.711 222.319 185.696 218.439 184.584 216.178C184.102 215.199 180.397 215.883 179.703 215.883C176.277 215.883 172.845 216.169 169.483 217.039C164.865 218.234 160.497 221.094 155.817 221.883C151.151 222.671 145.955 222.237 141.275 221.883C133.967 221.332 127.092 220.163 120.039 217.752Z" fill="#7D4B38"/>
<path d="M109.505 34.1762C101.594 32.7965 93.7572 31.0944 85.7611 29.9242C84.9321 30.5419 84.4415 31.4379 84.4415 32.7584C84.4415 40.6822 91.2158 41.2508 98.2451 48.28C105.274 55.3093 128.48 52.7494 144.138 52.5522C152.48 52.4472 160.895 51.6493 169.143 50.8918C175.696 50.2901 182.871 49.9992 188.993 48.28C195.594 46.4262 200.422 42.9225 204.191 39.1387C205.683 37.6406 207.148 34.6974 205.495 32.9823C204.778 32.2395 199.268 32.7584 198.236 32.7584C193.141 32.7584 188.037 32.9752 183.038 33.6352C176.169 34.5421 169.673 36.7114 162.714 37.3104C155.774 37.9078 148.047 37.5784 141.087 37.3104C130.219 36.8919 119.993 36.0056 109.505 34.1762Z" fill="#956451"/>
<ellipse rx="28.6659" ry="6.65843" transform="matrix(0.961511 0.274766 -0.274275 0.961651 174.389 25.6223)" fill="white"/>
<path d="M103.255 220.829C104.368 230.857 121.011 240.916 143.33 240.329C163.839 239.788 175.057 235.314 183.406 224.171M104.368 216.371C119.953 226.957 131.645 228.933 142.217 229.186C155.624 229.506 180.623 225.286 183.406 219.157C183.962 215.443 186.523 206.231 192.311 199.1C199.547 190.186 224.594 165.114 224.594 119.429M224.594 119.429C224.594 73.7429 200.66 50.9 200.66 39.2C167.821 49.7857 114.943 46.4429 89.8963 39.2C85.4435 36.2286 78.5416 29.1714 86.5567 24.7143C96.5755 19.1429 114.943 16.9143 143.33 16.9143C161.419 16.9143 181.092 17.012 192 21C194.44 21.8921 201.992 24.1502 203 28.5C204.007 32.8498 200.66 34.4 200.66 34.4M224.594 119.429C219.399 124.629 195.874 135.029 143.33 135.029C123.021 135.029 107.325 133.475 95.4623 131.268M64.8491 119.429C67.467 122.619 76.6348 127.766 95.4623 131.268M99.3586 205.786C94.3491 189.071 76.5378 172.357 69.8586 148.4C69.311 146.436 68.7971 144.39 68.3254 142.271M80.434 59.2572C73.3527 70.0979 69.1549 81.9527 67.0242 93.8C63.9274 111.019 65.1967 128.221 68.3254 142.271M105.481 28.6143C124.406 32.5143 156.132 32.5143 174.5 31.4C182.832 30.8945 187.817 29.2414 190.5 27.3436M116.613 73.7429C116.057 91.0143 126.632 97.7 121.623 104.943C116.613 112.186 111.604 101.043 105.481 99.3715M111.047 92.1286C110.862 91.0143 109.823 88.8972 107.151 89.3429M92.6793 99.3715C86.5567 102.714 83.217 105.5 86.5567 106.614M97.6887 89.3429C97.6887 91.5715 95.7963 95.2486 88.2265 92.1286C80.7646 89.0531 80.2255 89.0958 73.7548 91.4372M73.7548 116.643C78.2076 116.086 80.434 114.414 82.6604 119.429M95.4623 131.268C92.8648 130.293 88.6718 127.34 92.6793 123.329C97.6887 118.314 97.6887 116.086 97.6887 113.3M95.4623 131.268C97.3177 132.893 100.694 137.369 99.3586 142.271M89.8963 70.9572C90.0818 71.7 90.6755 72.0715 91.5661 67.6143M105.481 58.1429C105.11 60.1857 105.37 64.16 109.377 63.7143C114.387 63.1572 114.387 59.2572 115.5 61.4857M68.3254 142.271C70.1352 145.057 74.7567 150.629 78.7642 150.629M88.2265 152.857C89.3397 152.671 91.2321 153.191 89.8963 156.757M107.708 189.071C107.522 187.214 106.372 183.723 103.255 184.614" stroke="#3E3939" stroke-width="5" stroke-linecap="round" stroke-linejoin="round"/>
<circle cx="245.5" cy="94.5" r="53.5" fill="white"/>
<path fill-rule="evenodd" clip-rule="evenodd" d="M263.059 122.88C267.155 118.537 268.923 116.063 270 111.525C262.213 105.801 256.174 100.943 250.915 96.2886C256.142 91.3437 261.56 86.6875 268.078 81.0865C268.68 80.5686 269.292 80.0426 269.915 79.5075C268.1 75.4627 266.675 73.7041 263.748 71.0329C258.31 75.8381 253.067 80.0305 248.025 84.0632C246.175 85.5424 244.353 87.0002 242.557 88.4589C237.439 83.3948 232.598 78.1253 226.775 71.786C226.236 71.2001 225.69 70.6049 225.134 70C221.218 72.0122 219.544 73.5298 217.035 76.605C222.022 81.8873 226.396 86.9981 230.603 91.9142C231.714 93.2128 232.813 94.4977 233.91 95.7687C227.558 101.435 221.585 107.622 216 115.485C220.109 119.816 222.475 121.711 226.909 123C232.659 115.704 237.551 109.993 242.2 105.035C248.242 111.436 254.776 117.407 263.059 122.88Z" fill="#FFBCBC"/>
</g>
<defs>
<clipPath id="clip0">
<rect width="290" height="290" fill="white"/>
</clipPath>
</defs>
</svg>
