<svg width="290" height="290" viewBox="0 0 290 290" fill="none" xmlns="http://www.w3.org/2000/svg">
<g clip-path="url(#clip0)">
<path opacity="0.5" d="M163.804 214.001C145.503 215.943 134.014 223.181 115.404 223.181C111.363 229.686 109.64 237.758 117.603 241.805C128.759 247.476 143.066 248.729 155.004 250.593C174.053 253.566 192.675 253.871 211.961 253.871C223.601 253.871 235.588 254.696 247.04 252.166C259.228 249.474 274.03 250.129 284.196 241.477C306.114 222.825 259.6 211.378 249.729 211.378C233.645 211.378 217.265 210.486 201.205 211.443C194.667 211.833 188.196 213.625 181.649 213.738C175.716 213.841 169.717 213.373 163.804 214.001Z" fill="#4B4155"/>
<ellipse opacity="0.3" cx="145" cy="134.5" rx="126" ry="74.5" fill="#8C8394"/>
<path d="M90.4136 88.0106C85.2182 85.5057 79.6318 82.5038 75 79.063C70.2437 81.4411 71.1321 86.746 71.1321 92.5474V92.56C71.1321 99.5499 71.1321 110.038 76.0155 115.673C80.6768 121.051 85.126 128.424 91.5478 131.803C95.255 133.755 100.062 135.206 104.245 135.206C106.473 135.206 109.744 135.898 111.68 134.607C113.85 133.16 113.365 126.898 113.791 124.557C114.313 121.687 114.869 118.734 115.65 115.925C117.413 109.577 116.513 102.808 114.232 96.7692C113.68 95.3086 112.507 91.5392 110.546 91.5392C107.87 91.5392 104.958 91.9066 102.354 91.2557C98.3714 90.26 94.2006 89.8365 90.4136 88.0106Z" fill="#8C8394"/>
<path d="M100.77 143.198C94.0125 139.958 87.0981 136.079 81.171 130.911C78.9885 129.608 80.8522 132.47 79.4642 134.244C76.8302 137.61 77.3966 141.539 77.9973 146.008C78.8128 152.076 79.5884 158.769 82.1149 164.326C84.5399 169.66 87.3379 174.383 90.0664 179.496C92.1127 183.33 95.999 186.68 99.1645 189.119C102.273 191.514 106.272 191.691 109.492 193.813C114.477 197.098 120.562 197.963 125.793 200.525C130.061 202.615 134.093 202.642 137.511 198.949C140.383 195.848 137.314 188.234 136.585 184.434C135.191 177.161 133.376 169.858 132.25 162.541C131.898 160.255 131.002 153.325 128.701 152.171C126.507 151.071 124.297 151.242 122.099 150.363C118.15 148.782 114.133 148.974 110.032 147.784C107.069 146.924 103.668 144.587 100.77 143.198Z" fill="#8C8394"/>
<path d="M118.74 69.0985C106.053 66.8636 95.895 57.8141 84.2307 53C79.8184 55.2257 81.3493 73.0099 82.7037 77.1093C85.8451 86.6172 93.4212 89.0291 102.783 91.1281C105.589 91.7571 108.195 93.0741 111.029 93.7469C114.761 94.6328 118.67 94.5942 122.481 94.5942C136.46 94.5942 150.401 93.2078 164.358 93.2078C170.202 93.2078 176.661 92.7888 182.415 91.8213C192.418 90.1394 204.713 88.3526 213.565 82.8092C216.926 80.7045 221.615 78.9241 223.567 75.1836C225.88 70.7502 226.387 66.5619 225.743 61.3574C225.366 58.321 223.857 53.4812 220.284 53.6932C218.495 53.7994 216.432 56.0698 214.481 56.4277C212.397 56.81 210.268 58.1488 208.221 58.8925C202.129 61.1051 196.579 62.859 190.393 64.4769C182.624 66.5092 175.924 69.163 168.061 70.485C158.948 72.0173 150.542 72.4106 141.263 72.4106C133.884 72.4106 126.001 70.3775 118.74 69.0985Z" fill="#6D4E4F"/>
<path d="M108.496 126.076C95.2523 123.439 85.0593 116.613 73.0394 112.396C68.2637 113.43 68.8707 125.123 70.0661 127.912C72.8387 134.38 80.6862 136.655 90.4336 138.893C93.3548 139.563 96.0261 140.662 98.975 141.364C102.858 142.288 106.979 142.628 110.996 142.984C125.485 147.551 140.73 150.413 155.13 148.518C161.288 149.064 168.195 146.875 174.313 146.784C184.949 146.626 198.007 146.615 207.65 143.842C211.311 142.789 216.354 142.071 218.622 139.824C221.31 137.161 224.082 124.488 223.697 121.048C223.472 119.041 222.155 115.756 218.378 115.56C216.487 115.462 214.184 116.744 212.108 116.794C209.89 116.847 207.571 117.518 205.371 117.81C198.826 118.677 190.878 129.298 184.268 129.771C175.965 130.364 168.754 131.462 160.394 131.586C150.704 131.729 141.822 131.199 132.044 130.332C124.267 129.643 116.075 127.586 108.496 126.076Z" fill="#6D4E4F"/>
<path d="M116.401 201.702C106.716 199.578 99.3159 193.798 90.5461 190.295C87.0307 191.243 87.3421 201.34 88.1871 203.736C90.1471 209.293 95.8781 211.167 103.003 212.987C105.139 213.533 107.086 214.451 109.241 215.023C112.079 215.776 115.099 216.022 118.042 216.283C128.619 220.06 139.77 222.356 150.356 220.55C154.867 220.95 159.959 218.978 164.449 218.828C172.254 218.568 181.834 218.406 188.939 215.897C191.637 214.945 195.345 214.265 197.035 212.297C199.037 209.965 199.634 207.646 199.391 204.678C199.249 202.946 198.321 200.124 195.552 199.998C194.166 199.935 192.462 201.07 190.938 201.137C189.31 201.209 187.601 201.816 185.984 202.094C181.173 202.92 176.802 203.525 171.947 204.011C165.849 204.621 160.546 205.653 154.412 205.858C147.301 206.095 140.792 205.74 133.628 205.105C127.931 204.6 121.944 202.918 116.401 201.702Z" fill="#6D4E4F"/>
<path d="M113.164 190.422C111.06 176.466 112.451 162.27 112.451 148.154C113.386 146.185 113.068 147.012 115.161 146.933C120.511 146.732 127.158 145.949 132.168 147.849C139.415 150.596 148.563 149.743 156.122 149.037L156.134 149.036C163.792 148.322 171.2 147.298 178.456 144.491C183.818 142.416 188.785 139.238 193.886 136.553C199.079 133.818 203.658 131.057 209.54 131.057C211.54 131.057 212.908 130.552 213.857 132.55C215.781 136.603 214.838 142.326 214.179 146.662C213.039 154.166 211.497 161.726 209.54 169.051C207.761 175.715 206.384 184.78 202.551 190.524C199.053 195.766 194.356 200.195 188.12 200.633C182.075 201.058 176.671 203.165 170.693 204.195C164.149 205.323 157.486 205.663 150.98 206.909C145.326 207.992 139.865 208.475 134.166 207.384C128.965 206.388 121.879 205.227 117.448 202.194C113.97 199.813 113.734 194.208 113.164 190.422Z" fill="#5F5369"/>
<path d="M113.39 120.867C113.39 111.896 112.938 102.824 114.003 93.9099C115.346 89.8814 119.275 93.631 122.58 94.3864C127.382 95.4839 132.35 95.1353 137.284 95.1353C147.574 95.1353 157.806 95.2816 168.054 94.5226C173.466 94.1217 179.145 93.3216 184.323 91.5954C188.868 90.0806 193.766 88.6755 197.938 86.2856C201.708 84.126 205.082 81.1504 208.694 78.7294C212.512 76.1698 221.758 74.4281 223.534 79.9547C225.822 87.0717 224.895 95.3638 224.895 102.726C224.895 109.886 222.734 112.438 217.543 116.442C214.07 119.122 212.446 123.544 208.013 125.156C202.26 127.248 195.941 127.574 190.28 129.751C187.864 130.68 183.831 128.968 181.873 130.534C181.125 131.132 178.086 131.678 177.107 131.895C174.213 132.538 171.024 133.121 168.054 133.121C164.099 133.121 160.5 134.346 156.617 134.346C144.166 134.346 132.016 135.794 119.653 132.984C113.085 131.492 113.39 126.432 113.39 120.867Z" fill="#5F5369"/>
<ellipse cx="143.5" cy="45.5" rx="66.5" ry="17.5" transform="rotate(1.32386 143.5 45.5)" fill="#E1DFEA"/>
<path d="M104.729 206.571C101.135 205.255 96.8267 202.755 93 202.5C93 210.726 98.8379 220.683 103.627 226.778C106.447 230.366 109.225 233.315 112.82 236.111C116.49 238.965 120.853 239.331 125.276 240.256C128.537 240.939 131.94 241.209 135.15 242.059C137.727 242.741 140.364 243.659 143.02 243.961C147.377 244.458 151.735 243.54 155.797 242.039C159.524 240.661 163.862 240.737 167.453 239.075C171.81 237.058 175.322 234.825 178.788 231.425C181.616 228.65 183.585 225.413 186.759 222.933C189.693 220.641 193.495 218.166 195.17 214.662C196.224 212.459 198.138 208.958 195.911 206.731C193.94 204.761 188.168 205.828 185.838 206.391C182.592 207.174 179.504 208.567 176.225 209.235C170.546 210.392 164.917 211.825 159.242 212.96C151.197 214.569 142.707 215.133 134.529 214.201C131.376 213.842 128.426 212.681 125.256 212.319C122.228 211.973 119.337 211.078 116.425 210.236C112.472 209.094 108.613 207.993 104.729 206.571Z" fill="#54495E"/>
<path opacity="0.2" d="M208.09 61.0735C197.006 62.1488 190.255 66.965 185.471 76.9109C184.717 78.3726 183.843 77.764 182.954 79.3526C182.049 80.9688 180.887 82.7281 180.471 84.5412C179.311 89.6067 179.178 95.6504 179.178 100.853C179.178 118.736 177.919 136.611 177.919 154.436C177.919 162.036 179.027 170.416 177.605 177.869C175.825 187.193 173.636 195.37 169.249 203.881C166.747 208.735 163.314 215.001 162.327 220.362C161.685 223.851 162.187 227.778 162.187 231.316C162.187 237.678 168.668 238.034 173.514 235.623C181.717 231.542 188.018 225.171 191.414 216.7C194.123 209.943 199.095 204.676 201.203 197.573C204.351 186.967 210.091 177.406 215.012 167.56C219.512 158.557 221.543 147.842 222.459 137.954C224.499 115.937 225.223 93.5035 220.082 71.8918C218.573 65.5515 215.927 60.3134 208.09 61.0735Z" fill="#292130"/>
<path d="M104.774 30.1492C96.2028 32.5598 88.6368 36.1056 80.7143 40.126C78.2444 40.9493 78.1211 43.1697 78.1211 45.6006C78.1211 47.3832 78.756 49.6615 80.8944 49.8326C86.2381 50.2601 91.835 46.9475 96.2017 44.2679C101.338 41.1164 108.25 39.1572 114.228 38.1811C117.819 37.5948 121.521 36.511 125.051 35.5878C127.788 34.872 130.693 35.1954 133.407 34.4353C134.706 34.0716 139.158 32.6137 139.674 31.1937C140.064 30.1224 139.887 27.941 139.062 27.1598C135.499 23.7844 129.422 24.8907 124.961 24.8907C117.965 24.8907 111.422 28.2795 104.774 30.1492Z" fill="#6D4E4F"/>
<path d="M93.4884 70.4371C91.0412 64.4911 84.3775 60.0424 78.8159 57C78.8159 58.5571 79.0696 61.7829 78.4208 63.2387C77.6918 64.8748 77.9434 66.5507 77.5461 68.2776C75.2606 78.2116 74.7527 89.3957 74.7527 99.4976C74.7527 116.017 71.3566 132.635 74.0191 149.167C75.2455 156.782 77.1008 163.954 79.0255 171.393L79.0416 171.456C80.0883 175.501 79.8988 179.835 81.3554 183.746C82.3032 186.292 85.1261 188.488 88.0709 187.905C92.9982 186.931 92.5291 181.017 92.5291 177.454C92.5291 167.675 89.8234 158.299 90.6104 148.447C91.9473 131.71 90.9859 114.959 92.7548 98.2445C93.6423 89.8586 96.8732 78.661 93.4884 70.4371Z" fill="white"/>
<path d="M220.5 128C220.5 162.5 206 190 202 197C198 204 196.5 213.5 195 218C193.5 222.5 178 244 146.5 244C135.3 244 127.167 242.333 124.5 241.5M213 132.5C207.934 136.553 195.431 143.344 177 147.324M85.5004 134.5C88.1268 136.508 91.9944 138.803 97 141.016M107 28C93 30 85.0345 34.1491 80.6747 40M204.5 125C194 130 175.5 135.5 148 135.5C134.684 135.5 122.775 134.21 112.5 132.085M93 89C114.5 95.5 130 96.5 158.5 96.5C187 96.5 206.5 85 213 82C219.501 79 218.5 75 218.5 73C218.5 71.4 218.167 68.3333 218 67C218 64.3333 218 57.1 218 49.5C218 40 208.5 36 193.5 31M77.271 63C77.4148 59.5958 77.5004 55.9405 77.5004 52C77.5004 46.6182 78.5643 42.8322 80.6747 40M77.271 63C76.8125 73.8502 75.7616 82.1494 75.0004 89C74.0004 98 72.0004 116 85.5004 123C89.1083 124.871 93.2875 126.634 98 128.215M77.271 63C77.1529 65.5 82 75 96.5 78C111 81 138.5 84 152.5 84M80.6747 40C78.0655 46 85 55 104 59C123 63 149.5 65 171.5 63M93 44.5C107 37 119 34.5 148 34.5C177 34.5 208.5 43 208.5 52M116 26.5C119.667 25.8333 130.2 24.5 139 24.5C147 24.5 164.667 25.8333 172.5 26.5M73 125C74.6494 150.561 80.0377 168.304 87.764 190M116 238C112.766 236.836 105.759 231.275 98.8562 218M87.764 190C88.9151 193.233 90.1182 196.553 91.3685 200M87.764 190C91.866 193.037 96.1332 195.643 100.5 197.86M91.3685 200C91.9038 201.476 92.4478 202.975 93 204.5C94.8812 209.696 96.8643 214.169 98.8562 218M91.3685 200C101.5 208.5 119.5 215.5 139 215.5M112 146.209C111.5 154.306 111.7 172.7 112.5 181.5C113.3 190.3 113.833 199.788 114 203.432M112 146.209C106.235 144.683 101.214 142.879 97 141.016M112 146.209C118.04 147.807 124.896 149.1 132.5 149.835M114 203.432C124.952 207.002 127.3 208.5 146.5 208.5C165.7 208.5 180.667 202.833 189 200M114 203.432C109.443 201.947 104.921 200.103 100.5 197.86M97 141.016C96 164 97 173.5 98 183C98.8 190.6 100 196.073 100.5 197.86M112.5 132.085L114 111.5M112.5 132.085C107.226 130.995 102.382 129.684 98 128.215M98 128.215L99 113.5M132.5 149.835C136.919 150.262 141.591 150.5 146.5 150.5C157.923 150.5 168.146 149.236 177 147.324M132.5 149.835C132 157.557 132 175 132.5 187.5M177 147.324C177 153.716 176.6 170.7 175 187.5M219.5 88C219.5 101.2 220.167 111.833 220.5 115.5M98.8562 218C114 228.5 123.501 234.5 146.5 234.5C164.9 234.5 181.167 226.167 187 222" stroke="black" stroke-width="5" stroke-linecap="round" stroke-linejoin="round"/>
<path d="M198.84 150.958C198.25 150.033 197.34 150.178 196.548 150.102C195.996 150.159 194.947 152.164 194.468 152.85C193.915 153.642 193.337 156.04 193.188 157.148C192.785 160.136 192.826 162.998 193.21 165.837C193.522 168.136 194.064 170.63 195.663 170.82C196.768 170.952 197.793 170.046 198.481 168.529C199.28 166.768 199.31 164.439 199.503 162.434C199.754 159.819 199.89 157.482 199.755 154.898C199.68 153.478 199.461 151.932 198.84 150.958Z" fill="white"/>
<path d="M197.102 168.804C193.416 172.32 192.248 167.048 192.984 159.379C193.72 151.71 199.31 145.796 198.513 154.105" stroke="black" stroke-width="5" stroke-linecap="round" stroke-linejoin="round"/>
<circle cx="238.5" cy="94.5" r="53.5" fill="white"/>
<path fill-rule="evenodd" clip-rule="evenodd" d="M263.581 69C267.888 73.1331 271.556 77.4892 272.819 81.9312C252.67 97.6251 248.775 101.243 235.65 116.27C235.201 116.812 234.71 117.373 234.171 117.966C234.024 118.136 233.875 118.307 233.725 118.48C233.719 118.477 233.713 118.475 233.708 118.472C233.469 118.731 233.221 118.996 232.964 119.268C220.865 111.274 219.395 109.238 216.111 104.69C214.081 101.878 211.357 98.1065 205 91.3732C207.509 88.298 209.183 86.7804 213.099 84.7682C220.27 92.5696 221.858 94.6451 223.793 96.3209C225.222 97.559 226.841 98.5789 231.04 101.529C232.491 99.7883 233.854 98.1261 235.167 96.5252C243.511 86.354 249.827 78.6541 263.581 69Z" fill="#108DBB"/>
</g>
<defs>
<clipPath id="clip0">
<rect width="290" height="290" fill="white"/>
</clipPath>
</defs>
</svg>
