<svg width="290" height="211" viewBox="0 0 290 211" fill="none" xmlns="http://www.w3.org/2000/svg">
<ellipse opacity="0.4" cx="142.5" cy="102.941" rx="112.5" ry="58.5" fill="#88FFA9"/>
<ellipse cx="152.311" cy="58.5341" rx="91.0309" ry="20.1151" transform="rotate(20.9697 152.311 58.5341)" fill="#88FFA9"/>
<ellipse cx="187.951" cy="61.7613" rx="76.4248" ry="20.1151" transform="rotate(20.9697 187.951 61.7613)" fill="white"/>
<path d="M197.417 50.1251C188.842 46.6197 179.498 43.2377 169.637 40.1288C122.758 25.3495 81.9284 22.3355 78.4412 33.3968C74.9539 44.4581 110.13 65.406 157.009 80.1852C203.887 94.9645 244.717 97.9785 248.204 86.9172C249.457 82.9452 245.723 77.6984 238.253 71.9202" stroke="#3E3939" stroke-width="5" stroke-linecap="round" stroke-linejoin="round"/>
<path d="M233.1 91.592C220.673 94.3999 182.617 95.3824 154.302 88.7688C126.52 76.7111 96.1396 54.2723 88.1334 45.8891C90.6243 37.9882 125.095 41.8142 165.127 54.4347C205.158 67.0552 235.591 83.6911 233.1 91.592Z" fill="#5ED6AB"/>
<path d="M193.447 65.8191C179.328 70.5768 168.417 63.3749 137.279 56.725C101.291 69.067 86.3684 55.1572 78.079 44.5217C81.4895 33.7038 119.733 36.1194 163.498 49.9169C207.263 63.7145 196.857 55.0012 193.447 65.8191Z" fill="#2F926E"/>
<path d="M201.554 61.9453C191.535 57.3102 179.741 52.751 166.931 48.7123C126.9 36.0918 92.0919 33.3333 89.1859 42.551C95.3665 49.9678 115.651 67.0583 137.661 80.0278M227.641 77.311C232.659 81.5266 235.077 85.3201 234.152 88.2539C224.277 91.2189 198.842 93.6574 174.667 91.6946" stroke="#3E3939" stroke-width="5" stroke-linecap="round" stroke-linejoin="round"/>
<ellipse cx="149.423" cy="65.6072" rx="7.23351" ry="15.5" transform="rotate(6.64336 149.423 65.6072)" fill="#88FFA9"/>
<ellipse cx="128.135" cy="59.5413" rx="5.63428" ry="15.5" transform="rotate(-16.6148 128.135 59.5413)" fill="#88FFA9"/>
<ellipse cx="111.369" cy="53.7281" rx="3.3831" ry="12.6965" transform="rotate(-29.1561 111.369 53.7281)" fill="#88FFA9"/>
<ellipse rx="7.23351" ry="15.5" transform="matrix(-0.882496 -0.470319 -0.470319 0.882496 173.265 73.1239)" fill="#88FFA9"/>
<ellipse rx="5.63428" ry="15.5" transform="matrix(-0.620993 -0.783816 -0.783816 0.620993 194.183 80.3638)" fill="#88FFA9"/>
<ellipse rx="3.3831" ry="12.6965" transform="matrix(-0.435976 -0.899958 -0.899958 0.435976 211.252 85.2178)" fill="#88FFA9"/>
<ellipse cx="150.845" cy="64.0601" rx="4.82572" ry="10.3406" transform="rotate(6.64336 150.845 64.0601)" fill="#5ED6AB"/>
<ellipse cx="154.172" cy="61.5337" rx="4.82572" ry="10.3406" transform="rotate(6.64336 154.172 61.5337)" fill="white"/>
<ellipse cx="130.33" cy="57.6214" rx="3.69985" ry="10.1783" transform="rotate(-16.6148 130.33 57.6214)" fill="#5ED6AB"/>
<ellipse cx="131.232" cy="54.7603" rx="3.69985" ry="10.1783" transform="rotate(-16.6148 131.232 54.7603)" fill="white"/>
<ellipse cx="114.245" cy="52.1705" rx="2.48339" ry="9.31993" transform="rotate(-29.1561 114.245 52.1705)" fill="#5ED6AB"/>
<ellipse rx="4.61415" ry="9.88722" transform="matrix(-0.882496 -0.470319 -0.470319 0.882496 171.964 71.526)" fill="#5ED6AB"/>
<ellipse rx="4.61415" ry="9.88722" transform="matrix(-0.882496 -0.470319 -0.470319 0.882496 172.119 66.6683)" fill="white"/>
<ellipse rx="3.77387" ry="10.382" transform="matrix(-0.620993 -0.783816 -0.783816 0.620993 191.12 78.3043)" fill="#5ED6AB"/>
<ellipse rx="3.77387" ry="10.382" transform="matrix(-0.620993 -0.783816 -0.783816 0.620993 194.282 74.8581)" fill="white"/>
<ellipse cx="149.423" cy="65.6072" rx="7.23351" ry="15.5" transform="rotate(6.64336 149.423 65.6072)" stroke="#3E3939" stroke-width="5"/>
<ellipse cx="128.135" cy="59.5413" rx="5.63428" ry="15.5" transform="rotate(-16.6148 128.135 59.5413)" stroke="#3E3939" stroke-width="5"/>
<ellipse cx="111.369" cy="53.7281" rx="3.3831" ry="12.6965" transform="rotate(-29.1561 111.369 53.7281)" stroke="#3E3939" stroke-width="5"/>
<ellipse rx="7.23351" ry="15.5" transform="matrix(-0.882496 -0.470319 -0.470319 0.882496 173.265 73.1239)" stroke="#3E3939" stroke-width="5"/>
<ellipse rx="5.63428" ry="15.5" transform="matrix(-0.620993 -0.783816 -0.783816 0.620993 194.183 80.3638)" stroke="#3E3939" stroke-width="5"/>
<ellipse rx="3.3831" ry="12.6965" transform="matrix(-0.435976 -0.899958 -0.899958 0.435976 211.252 85.2178)" stroke="#3E3939" stroke-width="5"/>
<path opacity="0.8" d="M52.7 177.124L135.631 83.8346C154.394 80.7817 164.556 81.7673 181.876 89.8319L154 189C147.197 192.502 111.082 197.85 89.0717 194.995C67.0616 192.141 55.653 181.892 52.7 177.124Z" fill="#FFFCA9"/>
<path d="M60 180.541L122.604 96.2773C142.533 91.3139 122.052 92.6771 141.979 97.9412L101.979 192.441C77.6958 192.441 63.875 184.507 60 180.541Z" fill="#F3EF8F"/>
<path d="M143 185.941C143 190.636 120.882 194.441 101 194.441C81.1177 194.441 57 190.636 57 185.941C57 181.247 81.1177 177.441 101 177.441C105.182 177.441 115.198 177.61 118.933 177.919M143 185.941C143 184.255 140.922 182.684 137.337 181.363M143 185.941L174 92.4412M137 81.4412L74.5 167.941" stroke="#3E3939" stroke-width="5" stroke-linecap="round" stroke-linejoin="round"/>
<path d="M174.431 96.0338C174.673 95.2652 174.035 94.271 172.712 93.1659M136.271 84.0417C137.03 81.6268 146.188 82.3537 156.726 85.6653C160.098 86.725 163.203 87.921 165.841 89.1367" stroke="#3E3939" stroke-width="5" stroke-linecap="round" stroke-linejoin="round"/>
<rect x="158.35" y="101" width="6.92885" height="85.5488" transform="rotate(20.4873 158.35 101)" fill="white"/>
</svg>
