<svg width="290" height="211" viewBox="0 0 290 211" fill="none" xmlns="http://www.w3.org/2000/svg">
<path opacity="0.5" d="M58 162.5L118.5 159L137.5 172L77 175.5L58 162.5Z" fill="#B67426"/>
<path opacity="0.5" d="M158 151.747L233.2 140.749L253.881 150.863L178.681 161.861L158 151.747Z" fill="#B67426"/>
<path d="M191 89.8564L239 76V138.144L191 152V89.8564Z" fill="#FFC356"/>
<path d="M151 70.5001L195.121 57.5L244.121 70.5L200 83.5001L151 70.5001Z" fill="#FED996"/>
<path d="M146 76.5L192.5 87V148L169.25 142.75L146 140V76.5Z" fill="#FFAF50"/>
<path d="M121 68L167.23 80.1888C172.695 113.234 171.798 127.858 167.23 151L144.115 144.906L121 141.713V68Z" fill="#C17720"/>
<ellipse cx="98.2676" cy="108.845" rx="60.5147" ry="58.9173" transform="rotate(18.5968 98.2676 108.845)" fill="#FFAF50"/>
<ellipse opacity="0.6" cx="92.0859" cy="106.765" rx="53.9924" ry="58.9173" transform="rotate(18.5968 92.0859 106.765)" fill="#FFD15A"/>
<ellipse cx="77.8706" cy="98.8003" rx="38.8762" ry="49.9836" transform="rotate(30.5128 77.8706 98.8003)" fill="#FED996"/>
<ellipse cx="68.9834" cy="82.8478" rx="29.4069" ry="31.9709" transform="rotate(34.9837 68.9834 82.8478)" fill="white"/>
<path opacity="0.5" d="M222 81.0344L247 76V120.966L222 126V81.0344Z" fill="white"/>
<path d="M105 68.5C103.619 68.5 102.5 69.6193 102.5 71C102.5 72.3807 103.619 73.5 105 73.5V68.5ZM139.521 92.81C140.245 93.986 141.785 94.3528 142.961 93.6293C144.137 92.9058 144.503 91.366 143.78 90.19L139.521 92.81ZM149.198 140.599C147.872 140.214 146.485 140.976 146.099 142.302C145.714 143.628 146.476 145.015 147.802 145.401L149.198 140.599ZM191.5 155.5L190.802 157.901C191.294 158.044 191.818 158.032 192.303 157.867L191.5 155.5ZM247.5 136.5L248.303 138.867C249.318 138.523 250 137.571 250 136.5H247.5ZM247.5 70H250C250 68.7724 249.109 67.7265 247.897 67.5317L247.5 70ZM191.5 61L191.897 58.5317C191.636 58.4898 191.371 58.4894 191.11 58.5306L191.5 61ZM153.11 64.5306C151.746 64.7459 150.815 66.0261 151.031 67.3899C151.246 68.7537 152.526 69.6847 153.89 69.4694L153.11 64.5306ZM189 143C189 144.381 190.119 145.5 191.5 145.5C192.881 145.5 194 144.381 194 143H189ZM158.369 73.0274C157.003 72.8236 155.731 73.7654 155.527 75.131C155.324 76.4965 156.265 77.7688 157.631 77.9726L158.369 73.0274ZM221.918 77.8755C223.279 77.6446 224.196 76.3538 223.965 74.9926C223.734 73.6313 222.443 72.715 221.082 72.9459L221.918 77.8755ZM52.2308 86.8827C52.8541 85.6507 52.3606 84.1467 51.1286 83.5234C49.8966 82.9001 48.3925 83.3936 47.7692 84.6256L52.2308 86.8827ZM78.5844 56.5447C77.2996 57.0504 76.668 58.5018 77.1737 59.7866C77.6793 61.0714 79.1308 61.703 80.4156 61.1974L78.5844 56.5447ZM153.5 111C153.5 140.547 129.547 164.5 100 164.5V169.5C132.309 169.5 158.5 143.309 158.5 111H153.5ZM100 164.5C70.4528 164.5 46.5 140.547 46.5 111H41.5C41.5 143.309 67.6913 169.5 100 169.5V164.5ZM100 57.5C129.547 57.5 153.5 81.4528 153.5 111H158.5C158.5 78.6913 132.309 52.5 100 52.5V57.5ZM105 73.5C119.596 73.5 132.391 81.2193 139.521 92.81L143.78 90.19C135.777 77.1822 121.404 68.5 105 68.5V73.5ZM147.802 145.401L190.802 157.901L192.198 153.099L149.198 140.599L147.802 145.401ZM192.303 157.867L248.303 138.867L246.697 134.133L190.697 153.133L192.303 157.867ZM250 136.5V70H245V136.5H250ZM247.897 67.5317L191.897 58.5317L191.103 63.4683L247.103 72.4683L247.897 67.5317ZM191.11 58.5306L153.11 64.5306L153.89 69.4694L191.89 63.4694L191.11 58.5306ZM189 80.5V143H194V80.5H189ZM191.869 78.0274L158.369 73.0274L157.631 77.9726L191.131 82.9726L191.869 78.0274ZM221.082 72.9459L191.082 78.0352L191.918 82.9648L221.918 77.8755L221.082 72.9459ZM46.5 111C46.5 102.318 48.5659 94.1267 52.2308 86.8827L47.7692 84.6256C43.7585 92.5533 41.5 101.516 41.5 111H46.5ZM80.4156 61.1974C86.4775 58.8116 93.0826 57.5 100 57.5V52.5C92.4457 52.5 85.22 53.9332 78.5844 56.5447L80.4156 61.1974Z" fill="#3E3939"/>
</svg>
