<svg width="290" height="290" viewBox="0 0 290 290" fill="none" xmlns="http://www.w3.org/2000/svg">
<ellipse opacity="0.3" cx="146" cy="192.871" rx="101" ry="59.6514" fill="#D9B497"/>
<path d="M102.702 207.978C101.39 199.063 103.371 190.462 103.539 181.543C104.765 181.543 105.864 180.875 107.054 180.875C108.086 180.875 110.483 180.551 111.406 180.039C112.056 179.678 113.182 179.725 113.935 179.537C115.007 179.269 115.768 178.565 116.929 178.534C119.327 178.469 122.327 178.13 124.034 180.169C126.254 182.821 127.697 186.022 129.836 188.751C132.084 191.62 134.075 194.723 135.806 197.928C138.835 203.536 139.822 210.744 140.214 216.988C140.524 221.926 140.458 226.851 139.86 231.757C139.164 237.476 138.298 243.108 137.35 248.792C136.373 254.647 136.192 261.439 133.147 266.663C131.859 268.871 129.646 273.131 126.637 270.898C124.551 269.35 123.957 267.237 122.62 265.139C120.903 262.444 119.751 258.907 118.454 255.962C115.08 248.302 112.468 240.575 109.639 232.704C106.797 224.795 103.925 216.287 102.702 207.978Z" fill="white"/>
<path d="M158.227 283.469C147.186 283.162 154.164 285.102 143.061 285.102C136.433 285.102 129.167 281.451 129.167 274.488C129.167 265.568 142.085 262.495 149.418 262.242C163.733 261.749 178.086 263.059 192.282 263.059C202.179 263.059 214.652 262.584 223.976 266.506C230.174 269.112 236.66 272.247 233.966 280.022C231.491 287.163 222.402 290 215.803 290C205.743 290 195.293 289.836 185.38 288.186C176.589 286.722 167.115 283.715 158.227 283.469Z" fill="#CDB5A2"/>
<path d="M118.999 191.5C120.294 189.579 122.136 189.776 124.324 189.776C124.754 189.037 126.923 188.934 127.811 188.76C130.636 188.206 133.826 188.526 136.593 189.001C138.886 189.394 141.451 189.168 143.786 189.348C146.161 189.531 148.341 189.88 150.606 190.497C152.393 190.984 153.837 192.172 155.09 193.331C155.732 193.924 155.458 195.27 155.433 196.03C155.392 197.288 154.48 198.897 154.032 200.119C153.348 201.983 153.211 204.004 152.568 205.892C150.487 212.007 148.662 218.136 147.305 224.414C146.219 229.44 144.684 234.319 144.783 239.462C144.813 241.027 145.415 242.582 145.624 244.139C146.006 246.986 146.138 249.829 146.184 252.692C146.28 258.577 148.538 267.073 155.448 269.864C157.425 270.662 160.347 271.662 159.466 274.1C158.906 275.648 157.074 277.381 155.417 278.163C151.659 279.937 146.414 279.74 142.276 279.74C137.963 279.74 134.654 278.659 131.766 275.784C129.07 273.099 126.846 269.594 126.846 266.015C126.846 263.528 127.442 261.187 127.671 258.732C127.957 255.671 127.687 252.513 127.687 249.444C127.687 242.421 128.834 234.396 125.85 227.688C125.255 226.352 124.45 225.093 123.779 223.786C122.934 222.142 122.564 220.324 121.926 218.615C120.211 214.023 117.589 209.336 117.348 204.476C117.15 200.471 116.571 195.098 118.999 191.5Z" fill="#D9B497"/>
<path d="M133.715 147.65C129.387 145.518 126.823 144.296 122.616 141.686C121.621 142.392 120.811 144.233 119.878 145.292C117.998 147.425 115.463 148.539 113.375 150.423C109.178 154.212 99.7602 161.769 101.274 170.36C102.278 176.053 103.057 181.626 106.579 185.338C111.448 190.467 118.445 191.983 124.254 193.832C134.614 197.131 146.085 200.667 156.744 197.854C161.242 196.667 165.815 196.471 170.238 194.734C176.109 192.428 181.67 189.212 186.862 184.61C190.887 181.041 194.087 177.545 193.12 170.533C192.386 165.213 190.725 160.827 188.622 156.352C185.808 150.366 181.936 144.416 177.401 141.097C173.428 138.189 167.898 140.309 163.809 141.374C157.641 142.981 152.529 148.085 146.549 150.042C142.262 151.445 137.737 149.631 133.715 147.65Z" fill="#D9B497"/>
<path d="M136.989 126.89C134.355 125.594 132.793 124.851 130.233 123.263C129.627 123.692 129.134 124.812 128.566 125.456C127.422 126.753 125.879 127.431 124.608 128.576C122.053 130.88 116.321 135.476 117.242 140.7C117.853 144.162 118.327 147.551 120.471 149.808C123.435 152.928 127.694 153.849 131.23 154.974C137.536 156.98 144.518 159.13 151.006 157.42C153.744 156.698 156.528 156.578 159.22 155.522C162.794 154.12 166.179 152.164 169.339 149.365C171.789 147.195 173.737 145.069 173.148 140.805C172.702 137.571 171.691 134.903 170.41 132.182C168.698 128.542 166.341 124.924 163.58 122.905C161.162 121.136 157.796 122.426 155.307 123.074C151.553 124.05 148.441 127.154 144.801 128.345C142.191 129.198 139.437 128.094 136.989 126.89Z" fill="#BB8663"/>
<path d="M134.878 117.882C131.566 117.277 129.603 116.93 126.385 116.189C125.623 116.39 125.003 116.912 124.289 117.213C122.851 117.818 120.911 118.134 119.313 118.669C116.101 119.744 108.895 121.889 110.054 124.327C110.821 125.942 111.417 127.524 114.113 128.577C117.839 130.033 123.193 130.463 127.638 130.988C135.565 131.924 144.343 132.927 152.499 132.129C155.942 131.792 159.441 131.737 162.826 131.244C167.318 130.589 171.573 129.677 175.546 128.371C178.627 127.358 181.075 126.366 180.335 124.376C179.774 122.866 178.503 121.621 176.893 120.351C174.74 118.653 171.777 116.964 168.307 116.022C165.267 115.197 161.035 115.799 157.906 116.101C153.186 116.557 149.275 118.005 144.699 118.561C141.418 118.959 137.956 118.444 134.878 117.882Z" fill="#B46F45"/>
<path d="M105.787 129.667C106.248 128.013 106.513 127.033 107.078 125.425C106.925 125.045 106.527 124.735 106.297 124.379C105.836 123.66 105.594 122.691 105.187 121.893C104.367 120.289 102.731 116.69 100.871 117.269C99.6389 117.652 98.4325 117.95 97.6291 119.296C96.5187 121.157 96.1907 123.831 95.7904 126.051C95.0764 130.01 94.311 134.394 94.9198 138.468C95.1768 140.187 95.2193 141.935 95.5953 143.625C96.0944 145.869 96.7906 147.994 97.7867 149.978C98.5592 151.517 99.316 152.74 100.834 152.37C101.985 152.09 102.935 151.455 103.903 150.651C105.199 149.576 106.487 148.096 107.205 146.363C107.835 144.844 107.376 142.731 107.145 141.168C106.798 138.811 105.693 136.857 105.269 134.572C104.965 132.933 105.358 131.204 105.787 129.667Z" fill="#B46F45"/>
<path d="M186.825 136.467C186.554 138.162 186.402 139.166 186.022 140.827C186.217 141.188 186.648 141.45 186.916 141.779C187.456 142.441 187.805 143.376 188.301 144.123C189.297 145.624 191.329 149.016 193.111 148.231C194.292 147.711 195.457 147.279 196.104 145.851C196.996 143.877 197.02 141.183 197.167 138.932C197.428 134.917 197.693 130.475 196.628 126.496C196.178 124.817 195.938 123.085 195.374 121.448C194.624 119.275 193.692 117.242 192.478 115.383C191.536 113.941 190.646 112.812 189.18 113.35C188.068 113.759 187.196 114.496 186.324 115.404C185.159 116.619 184.046 118.235 183.528 120.038C183.074 121.618 183.769 123.666 184.175 125.193C184.787 127.495 186.106 129.312 186.785 131.535C187.272 133.129 187.077 134.891 186.825 136.467Z" fill="#BB8663"/>
<path d="M162.522 192.064C165.756 191.471 169.585 191.043 172.608 189.801C177.229 188.579 179.875 189.751 180.619 190.489C180.619 195.858 180.161 200.924 178.445 206.053C177.363 209.289 176.996 212.27 176.996 215.694C176.996 222.966 176.633 230.072 175.003 237.18C174.115 241.053 172.175 244.509 170.756 248.199C169.505 251.45 168.222 254.762 166.83 257.958C164.238 263.912 162.032 270.188 158.597 275.745C156.714 278.791 151.041 279.822 147.727 280.271C143.888 280.79 139.862 280.924 137.722 277.438C136.496 275.439 137.696 270.549 138.044 268.544C139.425 260.593 141.171 252.695 142.493 244.736C144.229 234.284 142.622 223.476 144.103 213.018C144.853 207.726 146.213 202.35 148.894 197.651C149.659 196.311 150.521 195.184 151.974 194.562C153.074 194.092 154.441 194.361 155.618 194.011C157.901 193.334 160.178 192.493 162.522 192.064Z" fill="#B46F45"/>
<path d="M136.061 254.749C132.974 255.687 129.927 255.525 126.732 255.124C124.713 256.772 127.225 263.5 127.82 265.442C129.555 271.107 132.621 276.074 138.671 279.428C145.386 283.151 154.514 282.945 161.485 279.468C164.346 278.04 164.137 275.582 164.82 273.194C165.983 269.126 168.238 265.672 170.209 261.851C172.309 257.78 174.838 253.472 175.985 249.167C176.57 246.972 178.063 244.589 178.063 242.341C178.063 240.956 178.129 238.918 175.671 240.033C173.969 240.805 172.15 241.132 170.668 242.341C169.195 243.543 167.361 244.33 165.883 245.537C164.278 246.847 162.714 248.024 160.566 248.733C155.28 250.477 149.685 251.305 144.133 252.283C141.319 252.779 138.746 253.934 136.061 254.749Z" fill="#8A5F3F"/>
<path d="M152.726 129.108L152.728 129.097C155.039 129.097 161.158 128.252 162.635 130.761C164.106 133.258 164.685 136.207 166.269 138.669C167.069 139.912 167.646 141.37 167.728 142.831C167.788 143.924 169.09 145.03 169.603 145.952C171.402 149.188 172.15 153.075 174.903 155.825C176.317 157.237 177.031 157.814 178.977 157.814H183.977C184.372 157.814 188.789 157.468 188.954 158.045C189.251 159.084 188.561 160.978 188.561 162.184C188.561 166.115 190.713 169.455 189.186 173.421C188.428 175.387 188.298 177.719 187.635 179.779C187.228 181.044 186.716 182.307 186.477 183.618C186.112 185.623 184.525 187.33 184.394 189.352C184.155 193.056 183.977 196.694 183.977 200.45C183.977 202.981 184.459 206.078 183.746 208.52C183.31 210.012 182.454 211.396 181.894 212.843C181.142 214.788 180.388 216.325 179.394 218.161C178.72 219.407 177.621 220.511 177.311 221.907C176.73 224.517 178.765 227.327 177.152 229.399C175.428 231.613 176.423 235.429 173.753 236.381C171.469 237.196 169.494 236.208 169.494 233.93C169.494 226.676 166.978 221.585 168.885 214.832C170.672 208.504 172.21 202.31 173.144 195.78C174.174 188.582 177.409 181.153 176.385 173.768C175.518 167.516 171.559 161.911 166.871 157.814C162.96 154.395 157.235 152.66 154.209 148.264C150.234 142.488 151.486 135.766 152.726 129.108Z" fill="white"/>
<path d="M113.135 230.504C120.75 253.724 121.552 254.925 123.556 263.332C125.56 271.739 129.568 281.748 143.596 281.748C157.624 281.748 161.631 277.745 164.838 268.937C168.044 260.129 170.449 247.719 173.655 240.512C176.862 233.306 181.27 215.691 183.274 202.079M108.326 210.487C106.66 202.722 105.507 195.555 104.67 188.868M160.829 110.801C156.822 110.534 147.603 110 142.794 110C136.782 110 132.774 110 125.56 112.002C118.345 114.003 117.945 114.003 113.536 114.003C109.127 114.003 105.52 114.804 101.512 120.009C97.5045 125.213 97.5045 134.421 99.9092 144.43C102.314 154.438 101.913 154.839 102.715 167.249C103.146 173.929 103.694 181.073 104.67 188.868M123.155 115.204C129.968 117.206 135.98 117.607 146.802 117.607C157.623 117.607 172.052 114.804 165.238 113.603M108.726 121.21C104.318 125.213 102.714 126.814 103.917 136.423C105.119 146.031 107.524 150.835 108.726 151.236M108.726 151.236C109.929 151.636 116.742 146.832 120.75 141.627C124.758 136.423 126.361 132.419 123.155 128.016M108.726 151.236L106.322 152.036M113.937 121.21C116.742 121.61 117.143 122.811 118.746 124.412C120.349 126.014 120.75 125.213 121.552 126.014M126.361 126.814C137.583 129.217 153.214 128.416 161.631 126.814M165.238 128.416C167.643 124.813 169.246 125.613 172.452 122.811C173.521 121.743 176.701 120.649 180.869 121.61C186.079 122.811 186.079 127.215 186.48 132.82C186.881 138.424 185.278 144.83 181.671 150.435C180.468 150.035 177.182 148.353 173.655 144.83C170.128 141.307 168.445 138.825 168.044 138.024M172.452 113.603C181.671 115.204 190.488 116.005 192.893 126.814C195.298 137.624 190.087 149.634 188.484 159.242C186.48 169.651 188.885 167.65 185.278 191.27M180.869 171.253C173.655 176.858 170.449 179.66 146.802 179.66C141.69 179.793 128.601 178.939 117.143 174.456M161.631 134.421C160.829 139.225 160.829 145.23 169.647 152.036M113.937 198.476C115.139 196.875 115.54 196.875 116.341 197.676M121.552 210.487C123.556 208.485 123.155 206.083 120.75 207.284M115.54 159.242C117.544 156.44 119.147 157.241 119.949 156.04M131.572 136.423C132.533 137.704 131.705 139.092 131.171 139.626M111.131 171.653C109.929 174.456 107.925 174.856 109.929 177.658C111.933 180.461 111.933 175.657 112.333 176.057M105.52 161.645C104.237 163.886 103.115 160.977 102.715 159.242M104.67 188.868C107.915 189.188 107.123 191.937 106.322 193.272" stroke="#3E3939" stroke-width="5" stroke-linecap="round" stroke-linejoin="round"/>
</svg>
