<svg width="1599" height="3391" viewBox="0 0 1599 3391" fill="none" xmlns="http://www.w3.org/2000/svg">
<path opacity="0.2" d="M1384.23 2236.9C1376.44 2392.76 1315.16 2568.95 1182.57 2663.3C1167.15 2709.56 1075.14 2673.27 1041.37 2657.38C969.228 2623.43 904.767 2599.11 842.201 2549.84C782.796 2503.06 718.673 2440.26 643.965 2419.24C591.297 2404.43 563.7 2373.73 540.172 2326.67C514.4 2275.13 494.65 2221.11 471.288 2168.33C452.773 2126.5 427.106 2096.06 405.522 2057.68C366.908 1989.04 317.594 1927.36 283.65 1855.39C261.165 1807.73 243.857 1756.67 225.987 1707.03C205.948 1651.36 160.167 1597.46 127.805 1548.07C101.655 1508.16 110.973 1446.38 110.973 1400.95V1226.09C110.973 1131.88 97.6725 1026.2 113.779 932.789C130.875 833.629 149.049 741.682 231.286 674.397C286.471 629.246 327.896 620.893 394.612 656.008C437.872 678.776 470.459 719.801 514.925 742.034C560.884 765.014 606.374 792.253 648.329 821.827C728.29 878.193 824.68 935.989 916.072 971.751C944.283 982.79 972.242 994.368 1000.54 1005.1C1022.67 1013.5 1046.9 1012.75 1069.11 1020.69C1093.04 1029.23 1112.62 1044.25 1129.89 1061.52C1159.6 1091.23 1186.36 1114.15 1211.87 1148.48C1228.39 1170.73 1241.53 1194.22 1251.14 1220.17C1284.93 1311.39 1279.37 1412.48 1283.56 1508.79C1286.12 1567.67 1306 1622.66 1306 1681.78C1306 1706.61 1306.2 1729.91 1310.36 1754.41C1313.81 1774.69 1324.49 1791.08 1328.44 1810.82C1341.94 1878.34 1366.6 1944.74 1384.54 2011.24C1392.96 2042.45 1388.67 2070.56 1385.79 2102.25C1381.73 2146.96 1386.47 2192.12 1384.23 2236.9Z" fill="#CF9865"/>
<path d="M752.018 874.844C773.078 853.785 781.226 818.813 791.547 791.722C815.691 803.794 807.346 842.365 820.827 864.271C835.485 888.091 835.862 926.672 839.045 953.413C848.474 1032.61 847.179 1110.36 847.179 1190.26C847.179 1244.49 833.986 1295.56 828.96 1349.34C824.819 1393.66 808.895 1435.52 801.307 1479.15C796.085 1509.18 787.036 1540.95 785.691 1571.22C784.47 1598.69 772.474 1624.76 768.773 1651.9C764.466 1683.49 769.548 1716.7 767.472 1748.53C764.638 1791.99 758.834 1834.55 743.072 1875.41C733.262 1900.83 716.788 1922.7 708.261 1948.28C701.936 1967.26 684.423 1984.43 670.848 1998.55C648.161 2022.14 625.569 2045.17 604.154 2069.96C576.01 2102.53 547.202 2139.92 511.922 2164.96L510.519 2165.95C468.536 2195.75 429.08 2223.76 375.77 2220.42C366.277 2219.83 343.562 2215.75 343.562 2204.48C343.562 2193.43 342.503 2181.8 343.725 2170.81C350.355 2111.14 410.243 2056.42 457.754 2025.88C469.576 2018.28 481.916 2017.08 488.498 2003.92C495.788 1989.34 495.603 1971.48 506.066 1958.69C519.439 1942.35 528.026 1919.96 528.026 1898.34C528.026 1893.6 524.896 1871.95 529.653 1869.23C536.177 1865.5 545.646 1865.15 552.914 1863.53C571.324 1859.44 563.162 1843.23 563.162 1828.24C563.162 1811.31 561.376 1786.93 577.802 1777.81C593.672 1768.99 610.783 1776.35 625.301 1764.47C639.053 1753.22 643.795 1743.35 645.146 1725.1C646.935 1700.96 659.515 1675.58 668.57 1653.21C679.224 1626.88 679.182 1600.34 683.861 1572.85C689.061 1542.3 704.915 1510.75 706.634 1479.8C708.757 1441.6 719.638 1403.26 724.365 1365.45C727.586 1339.68 732.45 1311.91 743.234 1288.18C751.461 1270.08 747.626 1244.86 747.626 1225.23C747.626 1164.88 750.554 1104.24 750.554 1043.69C750.554 1002.01 747.626 960.405 747.626 919.253C747.626 906.422 743.169 883.694 752.018 874.844Z" fill="white"/>
<path d="M848.074 560.658C848.074 512.62 929.243 526.818 947 523.5C964.757 520.182 1011.05 508.633 1011.05 539.704C1011.05 580.81 991.967 620.939 983.114 660.774C976.792 689.222 974.38 719.241 966.558 747.179C957.173 780.695 939.849 811.309 929.564 844.449C908.532 912.217 917.923 989.19 917.923 1059.69C917.923 1171.03 912.117 1281.99 913.266 1393.4C913.77 1442.29 926.672 1490.32 927.236 1538.79C927.632 1572.86 922.593 1610.1 929.564 1643.57C938.689 1687.37 958.885 1725.6 970.955 1768.52C976.285 1787.46 983.722 1804.88 999.671 1817.93C1014.6 1830.14 1070.48 1843.53 1071.59 1866.82C1073.76 1912.52 1084.57 1942.73 1105.22 1983.23C1122.44 2017.01 1151.55 2041.59 1165.75 2077.4C1172.34 2094 1172.3 2112.34 1181.02 2127.85C1191.29 2146.1 1200.22 2164.94 1211.03 2182.95C1256.57 2258.86 1284.63 2337.63 1311.14 2420.95C1331.56 2485.13 1303.25 2572.92 1291.48 2636.19C1280.5 2695.23 1283.79 2743.85 1234.57 2785.2C1208.46 2807.12 1181.33 2827.34 1150.75 2842.63C1132.82 2851.59 1117.3 2851.93 1113.76 2874.96C1108.25 2910.75 1104.36 2953.96 1059.69 2961.11C1023.26 2966.94 960.237 2987.79 937.583 2942.48C930.96 2929.24 935.492 2914.04 945.862 2908.85C960.129 2901.72 963.878 2875.2 964.488 2861.77C965.699 2835.13 977.23 2805.14 982.079 2778.47C986.42 2754.6 991.982 2733.16 999.671 2709.4C1012.55 2669.6 1028.08 2630.63 1041.32 2590.91C1053.75 2553.63 1056.57 2531.62 1053.22 2493.13C1050.45 2461.29 1035.54 2436.35 1020.37 2408.53C1002.18 2375.19 1004.32 2335.26 998.119 2298.85C995.151 2281.41 998.985 2263.64 994.497 2246.33C989.725 2227.92 983.764 2209.5 978.458 2191.23C969.273 2159.59 969.145 2132.82 969.145 2099.65C969.145 2048.19 967.208 2002 939.136 1957.88C930.258 1943.93 948.591 1944.67 950.26 1933.82C952.291 1920.62 952.301 1903.31 938.618 1897.09C934.861 1895.38 921.019 1896.41 923.614 1890.1C925.799 1884.8 929.916 1879.33 924.649 1874.06C915.843 1865.26 903.761 1864.04 893.605 1857.51L892.965 1857.1C879.687 1848.57 846.176 1827.05 874.461 1815.6C893.281 1807.98 920.983 1809.93 903.953 1786.62C893.409 1772.2 865.036 1765 858.422 1749.37C850.465 1730.57 850.46 1716.43 847.816 1696.6C842.393 1655.93 824.792 1622.47 824.792 1580.44C824.792 1538.05 829.448 1495.62 829.448 1452.91C829.448 1400.1 832.376 1348.03 834.363 1295.36C836.553 1237.33 851.737 1179.94 852.731 1122.29C853.385 1084.37 852.731 1046.38 852.731 1008.46C852.731 950.987 865.916 894.975 866.7 837.723C867.168 803.585 866.056 769.414 866.7 735.279C867.264 705.429 882.071 677.029 885.068 647.063C886.813 629.616 887.755 609.195 880.67 593.254C874.015 578.279 848.074 577.882 848.074 560.658Z" fill="#7E5537"/>
<path d="M705.557 2876.02C641.744 2885.84 574.388 2880.96 509.538 2880.96C470.779 2900.34 621.913 2992.26 632.086 2995.96C663.388 3007.34 690.922 3008.27 723.852 3011.93C775.353 3017.65 824.109 3040.28 875.44 3047.07C927.678 3053.98 984.8 3048.23 1037.48 3048.23C1090.34 3048.23 1145.19 3042.06 1196.62 3029.65C1240.71 3019 1283.49 3018.13 1327.59 3011.35C1351.8 3007.63 1378.18 2995.96 1402.22 2995.96C1417.47 2995.96 1475.51 2983.61 1476.56 2964.6C1477.79 2942.52 1448.93 2926.1 1431.84 2915.23C1380.68 2882.67 1315.68 2846.69 1252.96 2844.37C1198.46 2842.35 1144.6 2839.14 1089.75 2839.14C1027.56 2839.14 960.078 2835.67 898.962 2846.98C834.962 2858.84 769.434 2866.2 705.557 2876.02Z" fill="#6A4327"/>
<path d="M735.663 580.384C784.126 578.959 774.591 588.5 823.071 588.5C839.958 588.5 863.7 589.871 881.084 589.871C902.55 589.871 901.343 598.954 901.343 616.503C901.343 632.715 894.416 647.027 887.003 660.207C875.128 681.318 890.946 721.047 888.793 744.73C884.672 790.055 870.371 835.155 870.371 880.849C870.371 907.635 856.494 938.285 861.281 964.615C866.113 991.192 868.565 1021.37 868.565 1048.38C868.565 1074.53 875.73 1113.02 865.378 1137.61C857.311 1156.77 863.532 1199.04 866.408 1218.59L866.516 1219.33C873.275 1265.28 853.148 1311.84 853.148 1357.95C853.148 1413.64 873.148 1469.34 873.148 1525.03C873.148 1558.07 868.536 1594.94 878.156 1627C887.562 1658.36 905.399 1686.88 915.714 1717.83C924.183 1743.23 929.652 1769.77 930.51 1796.36C931.011 1811.89 940.891 1823.27 943.029 1838.24C945.732 1857.16 965.959 1881.64 973.531 1900.15C989.549 1939.31 997.677 1983.65 1006.31 2024.89C1023.91 2108.98 1068.11 2183.37 1091.44 2265.72C1101.7 2301.92 1109.98 2338.44 1120.8 2374.52C1137.59 2430.47 1131.18 2488.96 1123.99 2546.15C1120.24 2576.03 1124.53 2609.72 1118.3 2638.8C1109.38 2680.44 1086.44 2721.82 1066.63 2759.21C1034.51 2819.82 1003.29 2878.57 955.093 2928.11C935.976 2947.76 922.307 2965.9 897.732 2978.19C886.281 2983.91 871.048 2981.37 858.353 2981.37C833.659 2981.37 807.516 2983.87 783.009 2981.14C754.742 2978 722.724 2970.53 696.739 2958.84C687.588 2954.72 644.158 2938.44 644.158 2926.06C644.158 2909.7 659.356 2900.97 644.613 2886.22C636.249 2877.86 628.292 2868.63 622.306 2858.45C613.97 2844.28 598.633 2838.89 598.633 2819.76C598.633 2785.23 596.775 2752.45 606.827 2719.15L607.159 2718.05C618.462 2680.6 628.511 2647.31 652.808 2616.72C662.824 2604.1 678.371 2584.78 696.967 2593.04C719.134 2602.9 753.037 2614.1 773.904 2595.32C800.487 2571.4 811.83 2534.31 830.127 2503.81C849.219 2472 845.882 2413.79 821.705 2385.22C801.38 2361.2 766.617 2343.57 737.939 2330.82C722.809 2324.1 728.125 2322.1 717.453 2309.42C707.154 2297.19 712.897 2259.63 710.169 2243.87C704.84 2213.07 696.287 2182.62 703.113 2151.22C706.408 2136.06 707.851 2123.28 712.445 2108.66C718.217 2090.29 730.374 2072.98 739.533 2056.08C751.674 2033.66 746.134 2002.55 746.134 1977.77C746.134 1966.11 742.342 1945.04 748.182 1934.53C754.844 1922.53 758.985 1910.97 768.441 1901.52C775.581 1894.38 770.717 1866.5 770.717 1856.68C770.717 1848.29 778.122 1831.5 785.058 1825.95C793.245 1819.4 784.432 1794.8 783.237 1787.02C780.313 1768.02 783.009 1745.88 783.009 1726.7C783.009 1692.44 778.759 1654.91 783.92 1621.09C796.817 1536.54 795.301 1454.54 795.301 1368.88C795.301 1288.23 798.5 1213.17 798.5 1133C798.5 1047.55 811.5 971.177 811.5 885.5C811.5 861.626 828.742 829.596 828.079 805.733C827.494 784.69 829.27 751.219 823.071 731.072C812.226 695.825 786.213 680.12 754.328 663.24C738.796 655.017 713.916 581.024 735.663 580.384Z" fill="#9C6431"/>
<path d="M773.727 633.11C753.238 601.588 724.915 565.464 686.922 555.745C693.805 566.07 733.689 616.881 737.815 628.801C741.899 640.601 746.023 648.284 746.023 661.224C746.023 701.338 754.771 728.814 767 765.5C787.14 825.921 777 891.453 777 955V1288C777 1342.2 779.216 1390.8 767 1443C755.564 1491.86 761.917 1544.19 754.232 1593.71C748.92 1627.94 738.9 1644.86 718.319 1674.98C690.151 1716.2 658.056 1757.37 624.127 1793.18C612.224 1805.75 613.88 1821.65 613.045 1837.51C612.452 1848.77 594.986 1854.29 594.986 1861.52C594.986 1878.23 602.608 1896.2 601.963 1914.26C601.434 1929.08 583.945 1936.7 579.8 1950.17C573.166 1971.73 564.556 1970.01 544.709 1981.77C520.939 1995.86 504.661 2013.17 487.454 2034.1C463.87 2062.79 438.277 2084.03 421.171 2118.24C408.449 2143.68 396.109 2169.69 386.9 2196.63C383.456 2206.71 370.466 2231.78 384.027 2239.32C389.415 2242.31 394.829 2245.54 397.981 2251.22L398.791 2252.67C407.348 2268.07 413.993 2280.02 418.913 2297.6C429.204 2334.35 423.625 2399.56 408.037 2433.86C397.961 2456.02 384.133 2475.94 374.587 2498.5C365.802 2519.26 346.26 2496.69 342.574 2514.3C336.242 2544.55 339.701 2577.2 339.701 2608.08V2659.18C339.701 2682.56 367.196 2694.99 384.027 2707.61C402.76 2721.66 416.787 2737.56 431.636 2756.04C445.933 2773.84 465.142 2790.6 473.5 2812.27C486.576 2846.17 489.795 2894.43 512.901 2922.68C526.351 2939.11 556.649 2941.3 576.107 2944.84C607.582 2950.56 635.699 2971.46 664.554 2984.44C696.972 2999.03 771.041 2995.86 743.15 2945.66C736.406 2933.52 727.949 2923.06 720.166 2911.59C702.337 2885.32 693.487 2855.77 675.84 2829.3C652.883 2794.87 657.371 2758.54 657.371 2718.69C657.371 2696.38 662.85 2666.84 679.534 2650.15C688.569 2641.12 708.715 2639.72 720.372 2644.82C742.348 2654.43 762.894 2661.84 787.476 2656.72C877.027 2638.06 893.315 2529.18 873.461 2454.17C865.293 2423.32 857.215 2394.91 837.548 2369.42C827.7 2356.65 805.121 2335.18 788.913 2332.69C760.944 2328.38 732.742 2337.81 704.981 2336.18C697.061 2335.71 716.404 2325.16 722.013 2319.55C733.202 2308.36 731.248 2299.87 731.248 2284.46V2239.32C731.248 2212.25 752.987 2183.56 766.339 2160.92C801.544 2101.23 794.677 2031.82 797.532 1964.74C800.287 1899.99 808.819 1834.42 808.819 1769.79C808.819 1730.65 803.589 1692.69 800.61 1653.64C792.725 1550.25 798.926 1455.66 808.819 1351.5C818.286 1251.81 808.819 1150.28 808.819 1050.31C808.819 997.048 810.255 947.268 819.9 894.757C826.918 856.547 838.369 818.395 838.369 779.427C838.369 741.447 814.627 717.758 804.304 684.208C798.167 664.265 784.872 650.256 773.727 633.11Z" fill="#CF9865"/>
<path d="M381.232 2377.88C381.232 2335.24 368.404 2291.76 361.496 2259.31C354.589 2226.86 426.76 2239.58 446.704 2239.58C475.405 2239.58 477.091 2265.93 473.645 2288.76C470.346 2310.61 463.313 2330.02 462.994 2352.35C462.669 2375.07 453.947 2396.25 448.897 2418.14C444.393 2437.65 431.523 2454.32 426.968 2472.96C422.917 2489.53 417.581 2507.03 410.835 2522.77C405.552 2535.09 396.751 2541.25 384.051 2541.25C367.868 2541.25 339.118 2537.83 332.05 2521.67C322.725 2500.36 341.951 2476.21 355.858 2462.31C376.559 2441.61 381.232 2405.22 381.232 2377.88Z" fill="#9C6431"/>
<path d="M628.077 2479.77C608.2 2499.65 612.567 2533.97 631.035 2553.46C601.311 2523.5 600.386 2484.38 601.311 2478.6C603.499 2464.93 607.645 2450.04 612.458 2437.04C621.121 2413.65 640.032 2397.65 652.09 2376.63C655.009 2371.54 659.71 2367.96 662.549 2362.8C665.108 2358.15 666.1 2352.77 667.64 2347.73C671.841 2333.98 680.073 2321.45 686.768 2308.79C700.338 2283.12 741.711 2288.03 764.794 2292.41C776.172 2294.57 791.53 2299.48 799.472 2308.31C815.502 2326.12 828.631 2347.24 842.545 2366.72C856.88 2386.79 861.955 2414.31 860.021 2438.49C859.248 2448.15 857.726 2454.59 847.499 2454.38C841.137 2454.25 834.551 2452.48 828.233 2451.63C807.306 2448.82 787.227 2439.64 767.271 2433.26C744.504 2425.97 724.632 2425.56 701.493 2433.33C675.232 2442.14 647.498 2460.35 628.077 2479.77Z" fill="#9C6431"/>
<path d="M1121.29 2265.69H1163.07C1118.66 2280.49 1088.97 2325.73 1101.04 2375.75C1105.06 2392.4 1105.7 2408.55 1111.35 2425.07C1116.09 2438.94 1121.66 2451.6 1121.66 2466.48C1121.66 2475.82 1122.24 2490 1110.15 2480.93C1102.33 2475.06 1095.1 2468.36 1088.53 2461.06C1084.62 2456.72 1077.14 2448.23 1076.93 2442.56C1076.68 2435.78 1074.52 2428.63 1072.7 2422.13C1068.88 2408.49 1063.73 2395.06 1058.34 2382.01C1050.78 2363.69 1050.43 2348.32 1050.43 2328.63C1050.43 2317.45 1048.88 2301.01 1059.63 2293.85C1068.66 2287.83 1077.2 2281.87 1086.04 2275.72C1098 2267.4 1107.09 2265.69 1121.29 2265.69Z" fill="#6A4327"/>
<path d="M712.694 2899.59C659.432 2872.83 617.616 2863.54 559.885 2863.54C551.768 2863.54 496.58 2863.71 496.117 2872.61C495.252 2889.24 499.327 2890.86 503.878 2906.65C518.788 2958.37 586.261 2952.51 673.956 2979.25C761.652 3005.99 779.413 3002.44 861.487 2979.25C896.885 2969.25 937.017 2960.14 973.673 2958.83C989.714 2958.26 1004.87 2951.38 1020.91 2950.01C1032 2949.06 1043.98 2951.63 1054.92 2949.5C1075.64 2945.48 1104.76 2920.57 1120.81 2906.65C1136.05 2893.44 1137.23 2859 1114.91 2859C1064.85 2859 1031.8 2863.92 988.316 2891.77C934.688 2926.12 886.335 2944.9 823.462 2935.13C783.873 2928.99 748.744 2917.7 712.694 2899.59Z" fill="#6A4327"/>
<path d="M605.911 1939.53C595.284 1939.57 594.228 1943.18 588.293 1953.34C588.335 1963.87 643.35 1971.86 652.409 1972.61C709.039 1977.31 765.876 1985.83 822.942 1976.95C852.478 1972.36 881.234 1964.77 910.248 1956.97C938.411 1949.39 966.945 1953.36 995.649 1951.61C1010.12 1950.72 1030.67 1946.71 1040.86 1935.83C1049.51 1926.59 1068.85 1910.67 1060.34 1895.49C1053.77 1883.79 1026.45 1869.42 1016.55 1884.87C1009.27 1896.21 1000.34 1902.31 987.172 1905.06C969.658 1908.71 952.051 1913.04 935.742 1920.97C914.242 1931.43 894.617 1934.45 870.993 1934.54C848.833 1934.63 827.201 1936.45 805.787 1942.66C782.052 1949.54 750.447 1953.64 726.162 1946.46C706.453 1940.64 688.794 1937.23 668.305 1937.31C647.458 1937.4 626.775 1939.44 605.911 1939.53Z" fill="#6A4327"/>
<path d="M634.874 1788.85C624.542 1783.97 610.21 1786.57 599.024 1786.57C599.024 1794.9 597.788 1812.12 603.861 1817.59C607.22 1820.61 618.026 1820.72 622.711 1821.21C626.371 1821.6 630.677 1821.83 634.305 1822.49C655.861 1826.41 680.791 1837.17 702.094 1825.69C705.103 1824.07 710.416 1823.92 710.416 1819.86C710.416 1815.72 709.264 1814.24 705.294 1812.82C697.101 1809.89 688.298 1810.64 679.972 1808.05C670.26 1805.04 662.379 1797.31 652.159 1795.53C646.797 1794.6 639.866 1791.2 634.874 1788.85Z" fill="white"/>
<path d="M633.492 1872.81C620.64 1866.57 609.596 1858.54 594.509 1858.19C586.926 1861.98 578.568 1882.3 580.162 1889.87C581.942 1898.32 584.5 1909.77 590.855 1916.12C594.002 1919.27 603.965 1911.94 606.691 1910.57C610.397 1908.72 611.434 1906.92 615.76 1906.92C619.728 1906.92 623.705 1906.84 627.671 1906.92C636.503 1907.11 645.077 1909.39 653.66 1911.18C664.968 1913.55 676.149 1914.63 687.634 1915.72C697.8 1916.68 707.288 1920.32 717.548 1920.32C725.701 1920.32 733.851 1920.72 741.912 1919.37C756.828 1916.89 772.148 1912.19 785.767 1905.7C788.329 1904.48 797.949 1902.07 797.949 1899C797.949 1895 793.784 1895.96 790.911 1895.96H749.492C732.875 1895.96 714.347 1900.42 698.056 1896.23C693.497 1895.05 690.915 1892.93 687.093 1890.47C683.204 1887.97 679.079 1886.96 674.911 1884.99C669.417 1882.4 661.132 1881.57 655.149 1881.34C648.295 1881.07 639.544 1875.75 633.492 1872.81Z" fill="white"/>
<path d="M758.621 2983C978.609 2983 1091.66 2934.09 1120.68 2909.64C1126.8 2885.19 1135.35 2838.12 1120.68 2845.45M1120.68 2845.45C1102.35 2854.62 964.859 2909.64 827.367 2909.64C689.874 2909.64 621.128 2895.89 501.968 2863.79M1120.68 2845.45C1106.93 2813.36 1276.51 2776.68 1299.42 2570.36C1317.76 2405.31 1233.73 2238.73 1189.43 2176.07C1142.07 2108.82 1047.35 1964.25 1047.35 1923.9M1047.35 1923.9C1060.9 1917.13 1066.71 1873.24 1029.02 1855.13C996.941 1855.13 955.693 1896.39 809.035 1896.39C691.708 1896.39 644.043 1881.11 634.877 1873.47C605.979 1864.51 595.299 1859.56 584.455 1857.12M1047.35 1923.9C987.775 1946.83 891.53 1969.75 809.035 1969.75C764.731 1966.69 671.542 1969.75 602.796 1942.24M1226.1 2469.5C1207.76 2515.35 1116.1 2542.86 1065.69 2409.9C1015.27 2276.94 1093.18 2231.09 1166.51 2267.77C1116.09 2295.27 1111.51 2304.44 1111.51 2327.37M428.639 2827.12C424.055 2795.02 259.064 2735.42 272.814 2501.59M488.211 2011.01C444.74 2063.2 405.231 2112.74 372.183 2166.9M547.791 1933.07C529.458 1896.39 534.041 1855.13 561.54 1855.13C571.697 1855.13 578.104 1855.69 584.455 1857.12M584.455 1857.12C579.872 1809.28 561.54 1777.19 611.954 1781.77C620.506 1782.55 627.871 1783.99 634.877 1785.84M465.295 2863.79C442.38 2909.64 492.794 2941.74 552.374 2960.08M721.948 2286.1C827.351 2286.1 886.939 2391.56 845.691 2487.84C804.443 2584.12 767.779 2648.31 662.368 2584.12C578.039 2532.77 602.788 2446.57 625.703 2409.9M359.884 2249.43C405.715 2226.5 465.287 2217.33 446.963 2327.37C428.639 2437.4 410.298 2561.2 336.969 2542.86C312.885 2536.83 300.336 2520.82 294.757 2501.59M281.972 2460.33C314.97 2419.98 332.386 2336.54 336.969 2299.86M946.519 1800.11C946.519 1804.7 919.022 1813.87 809.035 1813.87C694.872 1813.87 669.175 1794.9 634.877 1785.84M634.877 1785.84C680.7 1740.51 758.621 1460.83 758.621 1094.04C758.621 727.258 754.029 672.239 721.948 630.976C689.866 589.712 655.453 529.539 781.528 516.355C854.646 508.709 864.759 512.726 932.77 516.355C1017.16 520.857 996.933 580.542 960.268 630.976C923.604 681.41 896.105 906.066 896.105 1094.04C896.105 1282.02 882.356 1630.47 951.102 1740.51M772.362 575.959C820.026 594.299 876.245 582.073 919.02 575.959M391.966 2281.52C399.299 2318.2 395.021 2364.05 391.966 2382.39M772.362 2350.29C721.948 2341.12 685.283 2345.71 685.283 2382.39" stroke="#3E3939" stroke-width="10" stroke-linecap="round" stroke-linejoin="round"/>
</svg>
