<svg width="1599" height="3391" viewBox="0 0 1599 3391" fill="none" xmlns="http://www.w3.org/2000/svg">
<path d="M724.631 446.335C722.77 442.263 686.871 427.618 685.462 429.734C679.866 427.363 634.027 551.867 624.136 562.143C614.244 572.42 597.231 562.538 588.923 570.048C580.614 577.558 590.901 609.178 584.571 614.711C579.506 619.138 565.315 622.089 558.853 623.012C550.808 623.934 533.69 627.201 529.575 632.893C524.431 640.007 531.158 649.098 537.488 670.837C543.818 692.575 547.379 700.876 517.705 754.63C488.031 808.384 463.897 826.17 423.54 887.038C383.184 947.907 359.84 985.06 359.84 1051.07C359.84 1117.07 392.679 1147.51 392.679 1198.89C392.679 1250.27 338.079 1300.87 320.671 1353.04C303.262 1405.21 316.319 1441.57 329.771 1471.61C343.223 1501.65 391.097 1541.18 420.375 1559.36C449.653 1577.54 445.697 1590.98 445.697 1606.79C445.697 1619.44 456.775 1623.39 462.314 1623.78C471.942 1624.31 502.117 1624.5 545.797 1621.02C600.397 1616.67 731.357 1601.65 750.349 1601.65C765.542 1601.65 789.123 1604.29 799.014 1605.6V1570.43C751.272 1571.22 644.393 1572.8 598.814 1572.8C541.84 1572.8 531.949 1545.92 522.058 1534.46C512.166 1523 501.484 1513.11 451.236 1485.84C400.988 1458.57 383.579 1449.08 373.688 1395.73C363.797 1342.37 442.532 1254.62 442.532 1205.21C442.532 1155.81 411.275 1097.31 409.297 1051.07C407.714 1014.07 436.597 958.447 451.236 935.259L527.201 811.546C545.137 784.142 582.592 723.642 588.923 700.876C596.836 672.418 607.518 626.964 660.931 579.139C703.662 540.879 726.492 450.406 724.631 446.335Z" fill="black"/>
<path d="M299.305 1416.28C285.853 1381.1 269.236 1338.41 270.027 1265.29C270.819 1192.17 283.084 1157.39 306.427 1106.4C325.102 1065.61 344.014 1024.32 351.136 1008.78M798.222 1572.01L807.709 966.089M816.422 409.577L814.102 557.795M727.401 418.667L733.335 402.462M689.418 409.577L696.144 391M624.135 1620.62C662.909 1616.27 726.214 1615.88 798.222 1614.3C855.829 1613.03 1036.4 1609.29 1119.49 1607.58C1125.16 1607.71 1136.82 1607.42 1138.09 1605.21C1139.35 1602.99 1138.61 1587.16 1138.09 1579.52C1137.9 1578.23 1136.39 1576.04 1132.15 1574.84M794.661 1576.75C900.696 1575.83 1115.22 1573.98 1125.03 1573.98C1127.99 1573.98 1130.32 1574.32 1132.15 1574.84M840.161 1189.01C848.47 1202.05 855.196 1203.24 852.427 1228.53C850.211 1248.77 839.37 1279.13 834.227 1291.77M862.318 1201.66C866.274 1226.16 865.879 1236.44 856.779 1262.53M898.718 1168.06C917.709 1225.77 903.466 1267.66 881.705 1296.91C859.944 1326.16 840.953 1339.6 836.6 1341.58C832.248 1343.55 827.105 1343.55 821.566 1341.58M870.231 1108.38C933.535 1155.02 935.909 1203.24 928.787 1245.93C921.666 1288.61 903.466 1307.19 881.705 1327.35C864.296 1343.47 846.756 1353.04 840.161 1355.81M814.102 557.795L813.563 592.182M814.102 557.795L1016.23 552.728M1036.4 592.182C1037.86 586.517 1040.84 572.894 1041.15 563.724C1041.47 554.554 1037.06 552.262 1034.82 552.262L1016.23 552.728M1036.4 592.182H813.563M1036.4 592.182C1037.46 594.817 1041.94 601.589 1051.44 607.597M813.563 592.182L813.266 611.154M813.266 611.154L1051.44 607.597M813.266 611.154L812.913 633.683M1051.44 607.597L1097.33 635.66M812.913 633.683L1097.33 635.66M812.913 633.683L812.245 676.37M1097.33 635.66C1085.07 655.027 1082.3 665.699 1079.93 674.789M812.245 676.37L1079.93 674.789M812.245 676.37L811.923 696.923M1079.93 674.789C1079.27 678.61 1078.34 688.386 1079.93 696.923M811.923 696.923H1079.93M811.923 696.923L808.594 909.568M1079.93 696.923C1080.98 708.517 1092.75 745.144 1131.36 798.898C1177.89 863.666 1200.89 892.812 1204.26 904.034M1209.7 920.24C1204.95 916.682 1206.53 915.497 1204.56 905.22C1204.49 904.849 1204.39 904.455 1204.26 904.034M1209.7 920.24C1214.45 923.797 1221.17 929.33 1224.34 945.14M1209.7 920.24L808.315 927.354M1224.34 945.14L807.957 950.279M1224.34 945.14C1225.48 950.859 1227.82 955.491 1230.86 960.16M1132.15 1574.84C1164.6 1553.47 1239.37 1493.75 1278.94 1425.76C1328.4 1340.79 1325.63 1236.04 1315.34 1158.97C1305.05 1081.9 1261.93 1014.31 1250.85 991.385C1243.78 976.752 1236.22 968.399 1230.86 960.16M808.594 909.568L1204.26 904.034M808.594 909.568L808.315 927.354M808.315 927.354L807.957 950.279M807.957 950.279L807.709 966.089M1230.86 960.16L807.709 966.089M1162.62 1263.32C1179.23 1279.52 1183.19 1280.31 1206.14 1277.94M1178.84 1136.84C1152.73 1138.81 1124.24 1184.66 1125.82 1221.42C1127.4 1258.18 1153.12 1287.82 1167.76 1288.61C1172.9 1288.89 1172.9 1288.61 1175.28 1288.61M1145.21 1121.03C1132.81 1133.54 1107.46 1164.5 1105.25 1188.22C1102.48 1217.86 1100.5 1241.18 1110.39 1266.48C1120.28 1291.77 1141.25 1311.14 1170.53 1311.14C1193.95 1311.14 1213.52 1302.18 1220.38 1297.7M1274.59 1262.53C1259.16 1296.91 1255.99 1304.42 1225.13 1317.47C1194.27 1330.51 1184.38 1340 1153.52 1336.44C1122.66 1332.88 1068.85 1293.36 1068.85 1234.07C1068.85 1174.78 1104.06 1106.8 1145.21 1096.13C1186.36 1085.45 1214.05 1079.92 1242.14 1108.38C1264.62 1131.15 1269.44 1155.02 1269.05 1164.11M1016.23 552.728C999.213 542.381 995.652 540.404 984.574 513.527C975.712 492.026 963.737 455.03 958.857 439.22M954.109 417.877L950.153 404.043M802.574 1687.82L806.135 1807.97M776.857 2302.43C797.035 2295.71 808.905 2303.22 813.653 2314.68C818.4 2326.14 814.84 2344.72 798.618 2349.07C782.396 2353.42 765.779 2353.42 759.844 2339.19C753.909 2324.96 761.822 2307.17 776.857 2302.43ZM660.931 2087.41C682.296 2077.93 691.792 2088.2 693.77 2103.22C695.748 2118.24 689.022 2137.61 672.801 2137.61C656.579 2137.61 653.018 2129.7 651.435 2118.24C649.853 2106.78 649.061 2096.11 660.931 2087.41ZM541.049 2326.14C566.37 2326.54 569.931 2336.42 568.744 2354.21C567.557 2371.99 546.588 2381.48 535.509 2376.34C524.431 2371.2 517.309 2356.97 520.475 2343.14C523.64 2329.31 532.344 2325.53 541.049 2326.14ZM787.935 2542.35C801.783 2535.23 819.192 2538.79 823.544 2553.41C827.896 2568.04 811.674 2580.29 806.927 2581.08C802.179 2581.87 782 2589.38 775.274 2576.34C768.548 2563.29 774.483 2549.06 787.935 2542.35ZM1035.61 2348.67C1058.56 2354.6 1061.33 2365.67 1053.42 2377.92C1045.5 2390.17 1034.82 2398.47 1020.18 2389.38C1005.54 2380.29 1008.31 2365.27 1013.06 2358.16C1017.81 2351.04 1022.95 2343.86 1035.61 2348.67ZM917.709 2126.54C931.953 2137.61 959.253 2134.45 965.583 2124.17C971.913 2113.89 988.531 2087.41 965.583 2075.56C942.635 2063.7 929.974 2073.97 924.831 2079.9C919.687 2085.83 898.718 2109.55 917.709 2126.54ZM806.135 1976.74C1003.54 1963.34 1160.19 2161.05 1168.16 2326.14C1175.35 2475.27 1038.47 2704.62 823.544 2690.56C692.751 2682.01 446.424 2580.59 448.466 2326.14C450.235 2105.72 620.124 1993.45 806.135 1976.74ZM806.927 1863.7C907.422 1865.68 1014.25 1863.7 1024.14 1863.7C1034.03 1863.7 1051.84 1861.33 1066.47 1873.19C1081.11 1885.04 1169.34 2017.85 1193.08 2041.96C1216.82 2066.07 1269.44 2140.38 1281.31 2164.09C1293.18 2187.81 1328 2229.7 1328 2256.18C1328 2282.67 1286.85 2419.82 1275.77 2440.37C1264.7 2460.92 1214.45 2601.24 1177.65 2645.9C1140.86 2690.56 1129.78 2715.07 1039.97 2743.13C950.153 2771.2 860.34 2787.01 806.927 2794.12C753.514 2801.23 689.022 2817.83 636.401 2800.05C583.779 2782.26 488.031 2688.98 443.718 2649.06C399.405 2609.14 360.236 2564.87 333.727 2535.63C307.218 2506.38 285.062 2475.94 296.14 2415.08C307.218 2354.21 317.901 2277.53 333.727 2217.85C349.553 2158.16 359.049 2134.05 410.088 2055.4C461.127 1976.74 477.349 1930.1 541.049 1896.9C604.748 1863.7 652.622 1863.7 689.418 1863.7C718.854 1863.7 780.022 1863.7 806.927 1863.7Z" stroke="black" stroke-width="10" stroke-linecap="round" stroke-linejoin="round"/>
<rect x="293.5" y="3089.91" width="1026.62" height="61.5947" stroke="black" stroke-width="15"/>
<rect x="286" y="3082" width="347.333" height="77" fill="black"/>
<rect x="980.667" y="3082" width="347.333" height="77" fill="black"/>
<path d="M1132.8 3001.49C1132.8 2984.46 1120.58 2972.5 1105.37 2972.5C1100.17 2972.5 1094.84 2973.67 1088.6 2978.61L1119.54 2933.76V2933.5H1102.25L1085.22 2965.48C1080.28 2974.84 1071.18 2988.36 1071.18 3000.71C1071.18 3016.44 1081.06 3032.3 1101.86 3032.3C1122.01 3032.3 1132.8 3017.09 1132.8 3001.49ZM1084.05 3002.79C1084.05 2990.18 1093.15 2984.59 1101.73 2984.59C1113.69 2984.59 1119.93 2992.26 1119.93 3002.79C1119.93 3013.19 1113.82 3021.64 1101.86 3021.64C1090.03 3021.64 1084.05 3012.93 1084.05 3002.79ZM1203.45 2964.7C1186.81 2964.7 1171.86 2975.62 1171.86 2997.72C1171.86 3017.61 1184.34 3032.3 1202.8 3032.3C1210.47 3032.3 1217.49 3028.66 1220.61 3025.54L1221.91 3016.44H1221.65C1216.71 3019.56 1211.25 3022.42 1204.36 3022.42C1192.79 3022.42 1184.73 3014.49 1184.73 2997.98C1184.73 2983.03 1193.18 2976.53 1203.06 2976.53C1209.43 2976.53 1215.54 2978.61 1221.52 2983.03H1221.78L1219.18 2967.82C1215.67 2966 1210.34 2964.7 1203.45 2964.7ZM1263.2 2977.83C1271.39 2977.83 1276.72 2980.43 1276.33 2992.78L1275.03 3031H1289.59L1288.29 2988.49C1288.16 2986.54 1288.03 2984.72 1287.77 2982.9C1291.8 2979.91 1296.74 2977.83 1301.16 2977.83C1309.35 2977.83 1314.68 2980.43 1314.29 2992.78L1313.12 3031H1327.68L1326.25 2988.49C1325.73 2974.19 1320.01 2964.7 1308.44 2964.7C1301.68 2964.7 1295.57 2969.25 1289.98 2974.06L1286.47 2977.18C1283.87 2969.38 1278.67 2964.7 1270.48 2964.7C1263.72 2964.7 1257.61 2969.25 1252.02 2974.06L1249.94 2975.88L1249.68 2966H1236.16V2966.26L1238.5 2982.9L1236.94 3031H1251.5L1250.2 2982.77C1254.1 2979.78 1258.91 2977.83 1263.2 2977.83Z" fill="black"/>
</svg>
