<svg width="1599" height="3391" viewBox="0 0 1599 3391" fill="none" xmlns="http://www.w3.org/2000/svg">
<path d="M724.631 1567.04C722.77 1562.97 686.871 1548.33 685.462 1550.44C679.866 1548.07 634.027 1672.58 624.136 1682.85C614.244 1693.13 597.231 1683.25 588.923 1690.76C580.614 1698.27 590.901 1729.89 584.571 1735.42C579.506 1739.85 565.315 1742.8 558.853 1743.72C550.808 1744.64 533.69 1747.91 529.575 1753.6C524.431 1760.72 531.158 1769.81 537.488 1791.55C543.818 1813.28 547.379 1821.59 517.705 1875.34C488.031 1929.09 463.897 1946.88 423.54 2007.75C383.184 2068.62 359.84 2105.77 359.84 2171.78C359.84 2237.78 392.679 2268.22 392.679 2319.6C392.679 2370.98 338.079 2421.57 320.671 2473.75C303.262 2525.92 316.319 2562.28 329.771 2592.32C343.223 2622.36 391.097 2661.89 420.375 2680.07C449.653 2698.25 445.697 2711.69 445.697 2727.5C445.697 2740.15 456.775 2744.1 462.314 2744.49C471.942 2745.02 502.117 2745.21 545.797 2741.73C600.397 2737.38 731.357 2722.36 750.349 2722.36C765.542 2722.36 789.123 2724.99 799.014 2726.31V2691.14C751.272 2691.93 644.393 2693.51 598.814 2693.51C541.84 2693.51 531.949 2666.63 522.058 2655.17C512.166 2643.71 501.484 2633.82 451.236 2606.55C400.988 2579.28 383.579 2569.79 373.688 2516.43C363.797 2463.08 442.532 2375.33 442.532 2325.92C442.532 2276.52 411.275 2218.02 409.297 2171.78C407.714 2134.78 436.597 2079.16 451.236 2055.97L527.201 1932.26C545.137 1904.85 582.592 1844.35 588.923 1821.59C596.836 1793.13 607.518 1747.67 660.931 1699.85C703.662 1661.59 726.492 1571.12 724.631 1567.04Z" fill="black"/>
<path d="M299.305 2536.99C285.853 2501.81 269.236 2459.12 270.027 2386C270.819 2312.88 283.084 2278.1 306.427 2227.11C325.102 2186.32 344.014 2145.03 351.136 2129.49M798.222 2692.72L807.709 2086.8M816.422 1530.29L814.102 1678.5M727.401 1539.38L733.335 1523.17M689.418 1530.29L696.144 1511.71M624.135 2741.33C662.909 2736.98 726.214 2736.59 798.222 2735.01C855.829 2733.74 1036.4 2730 1119.49 2728.29C1125.16 2728.42 1136.82 2728.13 1138.09 2725.92C1139.35 2723.7 1138.61 2707.87 1138.09 2700.23C1137.9 2698.94 1136.39 2696.75 1132.15 2695.55M794.661 2697.46C900.696 2696.54 1115.22 2694.69 1125.03 2694.69C1127.99 2694.69 1130.32 2695.03 1132.15 2695.55M840.161 2309.72C848.47 2322.76 855.196 2323.95 852.427 2349.24C850.211 2369.48 839.37 2399.84 834.227 2412.48M862.318 2322.37C866.274 2346.87 865.879 2357.15 856.779 2383.24M898.718 2288.77C917.709 2346.48 903.466 2388.37 881.705 2417.62C859.944 2446.87 840.953 2460.31 836.6 2462.29C832.248 2464.26 827.105 2464.26 821.566 2462.29M870.231 2229.09C933.535 2275.73 935.909 2323.95 928.787 2366.64C921.666 2409.32 903.466 2427.9 881.705 2448.06C864.296 2464.18 846.756 2473.75 840.161 2476.51M814.102 1678.5L813.563 1712.89M814.102 1678.5L1016.23 1673.44M1036.4 1712.89C1037.86 1707.23 1040.84 1693.6 1041.15 1684.43C1041.47 1675.26 1037.06 1672.97 1034.82 1672.97L1016.23 1673.44M1036.4 1712.89H813.563M1036.4 1712.89C1037.46 1715.53 1041.94 1722.3 1051.44 1728.31M813.563 1712.89L813.266 1731.86M813.266 1731.86L1051.44 1728.31M813.266 1731.86L812.913 1754.39M1051.44 1728.31L1097.34 1756.37M812.913 1754.39L1097.34 1756.37M812.913 1754.39L812.245 1797.08M1097.34 1756.37C1085.07 1775.74 1082.3 1786.41 1079.93 1795.5M812.245 1797.08L1079.93 1795.5M812.245 1797.08L811.923 1817.63M1079.93 1795.5C1079.27 1799.32 1078.34 1809.1 1079.93 1817.63M811.923 1817.63H1079.93M811.923 1817.63L808.594 2030.28M1079.93 1817.63C1080.98 1829.23 1092.75 1865.85 1131.36 1919.61C1177.89 1984.38 1200.89 2013.52 1204.26 2024.74M1209.7 2040.95C1204.95 2037.39 1206.53 2036.21 1204.56 2025.93C1204.49 2025.56 1204.39 2025.16 1204.26 2024.74M1209.7 2040.95C1214.45 2044.51 1221.17 2050.04 1224.34 2065.85M1209.7 2040.95L808.315 2048.06M1224.34 2065.85L807.957 2070.99M1224.34 2065.85C1225.48 2071.57 1227.82 2076.2 1230.86 2080.87M1132.15 2695.55C1164.6 2674.18 1239.37 2614.46 1278.94 2546.47C1328.4 2461.5 1325.63 2356.75 1315.34 2279.68C1305.05 2202.61 1261.93 2135.02 1250.85 2112.09C1243.78 2097.46 1236.22 2089.11 1230.86 2080.87M808.594 2030.28L1204.26 2024.74M808.594 2030.28L808.315 2048.06M808.315 2048.06L807.957 2070.99M807.957 2070.99L807.709 2086.8M1230.86 2080.87L807.709 2086.8M1162.62 2384.03C1179.23 2400.23 1183.19 2401.02 1206.14 2398.65M1178.84 2257.55C1152.73 2259.52 1124.24 2305.37 1125.82 2342.13C1127.4 2378.89 1153.12 2408.53 1167.76 2409.32C1172.9 2409.6 1172.9 2409.32 1175.28 2409.32M1145.21 2241.74C1132.81 2254.25 1107.46 2285.21 1105.25 2308.93C1102.48 2338.57 1100.5 2361.89 1110.39 2387.19C1120.28 2412.48 1141.25 2431.85 1170.53 2431.85C1193.95 2431.85 1213.52 2422.89 1220.38 2418.41M1274.59 2383.24C1259.16 2417.62 1255.99 2425.13 1225.13 2438.18C1194.27 2451.22 1184.38 2460.7 1153.52 2457.15C1122.66 2453.59 1068.85 2414.07 1068.85 2354.78C1068.85 2295.49 1104.06 2227.51 1145.21 2216.84C1186.36 2206.16 1214.05 2200.63 1242.14 2229.09C1264.62 2251.85 1269.44 2275.73 1269.05 2284.82M1016.23 1673.44C999.213 1663.09 995.652 1661.11 984.574 1634.24C975.712 1612.74 963.737 1575.74 958.857 1559.93M954.109 1538.59L950.153 1524.75" stroke="black" stroke-width="10" stroke-linecap="round" stroke-linejoin="round"/>
<path d="M717.321 1446.71C741.89 1308.12 759.565 1135.35 759.565 942.828C759.565 497.223 753.986 430.382 715.001 380.252C678.574 333.41 638.943 252.527 759.565 242.115M934.845 1472.21C920.327 1297.09 926.636 1083.16 926.636 942.828C926.636 714.454 960.052 441.523 1004.61 380.252C1049.16 318.98 1073.88 241 971.19 241C892.453 241 879.118 241 820.5 241M820.5 1446.71V380.252M820.5 241C810.857 241 799.989 241 787.402 241C777.295 241 768.035 241.384 759.565 242.115M820.5 241V380.252M750 1455.5C774.5 1306.5 787.402 977.5 787.402 617C787.402 411 738 344 738 316.5C738 289 781.131 242.115 759.565 242.115M941.5 380.252H820.5" stroke="#108DBB" stroke-width="10" stroke-linecap="round" stroke-linejoin="round" stroke-dasharray="15 25"/>
<rect x="293.5" y="3089.91" width="1026.62" height="61.5947" stroke="black" stroke-width="15"/>
<rect x="286" y="3082" width="347.333" height="77" fill="black"/>
<rect x="980.667" y="3082" width="347.333" height="77" fill="black"/>
<path d="M1132.8 3001.49C1132.8 2984.46 1120.58 2972.5 1105.37 2972.5C1100.17 2972.5 1094.84 2973.67 1088.6 2978.61L1119.54 2933.76V2933.5H1102.25L1085.22 2965.48C1080.28 2974.84 1071.18 2988.36 1071.18 3000.71C1071.18 3016.44 1081.06 3032.3 1101.86 3032.3C1122.01 3032.3 1132.8 3017.09 1132.8 3001.49ZM1084.05 3002.79C1084.05 2990.18 1093.15 2984.59 1101.73 2984.59C1113.69 2984.59 1119.93 2992.26 1119.93 3002.79C1119.93 3013.19 1113.82 3021.64 1101.86 3021.64C1090.03 3021.64 1084.05 3012.93 1084.05 3002.79ZM1203.45 2964.7C1186.81 2964.7 1171.86 2975.62 1171.86 2997.72C1171.86 3017.61 1184.34 3032.3 1202.8 3032.3C1210.47 3032.3 1217.49 3028.66 1220.61 3025.54L1221.91 3016.44H1221.65C1216.71 3019.56 1211.25 3022.42 1204.36 3022.42C1192.79 3022.42 1184.73 3014.49 1184.73 2997.98C1184.73 2983.03 1193.18 2976.53 1203.06 2976.53C1209.43 2976.53 1215.54 2978.61 1221.52 2983.03H1221.78L1219.18 2967.82C1215.67 2966 1210.34 2964.7 1203.45 2964.7ZM1263.2 2977.83C1271.39 2977.83 1276.72 2980.43 1276.33 2992.78L1275.03 3031H1289.59L1288.29 2988.49C1288.16 2986.54 1288.03 2984.72 1287.77 2982.9C1291.8 2979.91 1296.74 2977.83 1301.16 2977.83C1309.35 2977.83 1314.68 2980.43 1314.29 2992.78L1313.12 3031H1327.68L1326.25 2988.49C1325.73 2974.19 1320.01 2964.7 1308.44 2964.7C1301.68 2964.7 1295.57 2969.25 1289.98 2974.06L1286.47 2977.18C1283.87 2969.38 1278.67 2964.7 1270.48 2964.7C1263.72 2964.7 1257.61 2969.25 1252.02 2974.06L1249.94 2975.88L1249.68 2966H1236.16V2966.26L1238.5 2982.9L1236.94 3031H1251.5L1250.2 2982.77C1254.1 2979.78 1258.91 2977.83 1263.2 2977.83Z" fill="black"/>
</svg>
